<?xml version="1.0" encoding="utf-8"?>
<!-- Generator: Adobe Illustrator 25.2.3, SVG Export Plug-In . SVG Version: 6.00 Build 0)  -->
<svg version="1.1" id="Layer_1" xmlns="http://www.w3.org/2000/svg" xmlns:xlink="http://www.w3.org/1999/xlink" x="0px" y="0px"
	 viewBox="0 0 640 640" style="enable-background:new 0 0 640 640;" xml:space="preserve">
<style type="text/css">
	.st0{fill:none;stroke:#434244;stroke-width:0.5;stroke-miterlimit:10;}
	.st1{fill:#087892;}
</style>
<g id="a2b33892-a9d1-4b8d-8925-7d05171b156c">
	
		<image style="overflow:visible;enable-background:new    ;" width="536" height="685" xlink:href="536591CEB0022781.jpeg"  transform="matrix(0.48 0 0 0.48 355.46 260.4698)">
	</image>
	<line class="st0" x1="33.8" y1="589.3" x2="611.1" y2="589.3"/>
	<g>
		<path class="st1" d="M64.7,64.3c1,1.3,1.5,2.9,1.5,4.7c0,2.7-1.1,4.8-3.2,6.2c-2.2,1.5-5.3,2.2-9.4,2.2H37.1V46.8h15.7
			c3.9,0,6.9,0.7,8.9,2.2c2,1.4,3.1,3.4,3.1,5.8c0,1.5-0.4,2.8-1.1,3.9c-0.7,1.2-1.7,2.1-3,2.7C62.3,62.1,63.7,63,64.7,64.3z
			 M45.6,53.1V59h5.9c2.9,0,4.4-1,4.4-3c0-2-1.5-2.9-4.4-2.9H45.6z M57.4,68.1c0-2.1-1.5-3.1-4.5-3.1h-7.3v6.2h7.3
			C55.9,71.2,57.4,70.1,57.4,68.1z"/>
		<path class="st1" d="M81.5,54.1c1.4-0.5,2.9-0.8,4.7-0.8v7.5c-0.8-0.1-1.4-0.1-1.9-0.1c-1.8,0-3.2,0.5-4.2,1.4
			c-1,1-1.5,2.4-1.5,4.4v10.9h-8.3V53.7h7.9v2.8C79.1,55.5,80.2,54.7,81.5,54.1z"/>
		<path class="st1" d="M108.5,56c2.1,1.8,3.1,4.5,3.1,8.2v13.2h-7.7v-3.1c-1.2,2.3-3.5,3.5-7,3.5c-1.8,0-3.4-0.3-4.8-1
			c-1.3-0.6-2.4-1.5-3-2.6c-0.7-1.1-1-2.3-1-3.7c0-2.2,0.9-4,2.6-5.2c1.7-1.2,4.4-1.9,8-1.9h4.7c-0.1-2.5-1.8-3.8-5-3.8
			c-1.1,0-2.3,0.2-3.5,0.5c-1.2,0.4-2.2,0.9-3,1.5l-2.8-5.6c1.3-0.9,2.9-1.6,4.8-2s3.8-0.7,5.7-0.7C103.4,53.3,106.4,54.2,108.5,56z
			 M101.7,71.9c0.7-0.5,1.3-1.2,1.6-2.1v-2.1h-3.6c-2.4,0-3.6,0.8-3.6,2.4c0,0.7,0.3,1.3,0.8,1.7c0.6,0.4,1.3,0.7,2.3,0.7
			S101,72.3,101.7,71.9z"/>
		<path class="st1" d="M139.4,56c1.8,1.7,2.7,4.4,2.7,7.9v13.6h-8.3V65.2c0-3.2-1.3-4.9-3.9-4.9c-1.4,0-2.6,0.5-3.4,1.4
			c-0.9,0.9-1.3,2.3-1.3,4.2v11.5h-8.3V53.7h7.9v2.6c0.9-1,2-1.7,3.3-2.2c1.3-0.5,2.7-0.8,4.2-0.8C135.2,53.3,137.6,54.2,139.4,56z"
			/>
		<path class="st1" d="M172.8,45v32.4h-7.9v-2.4c-1.5,1.8-3.9,2.8-7,2.8c-2.2,0-4.1-0.5-5.9-1.5c-1.8-1-3.2-2.4-4.2-4.3
			c-1-1.9-1.6-4-1.6-6.5c0-2.4,0.5-4.6,1.6-6.4c1-1.9,2.4-3.3,4.2-4.3c1.8-1,3.7-1.5,5.9-1.5c2.8,0,5,0.8,6.6,2.4V45H172.8z
			 M163.3,69.7c0.9-1,1.4-2.4,1.4-4.2c0-1.7-0.5-3.1-1.4-4.1c-0.9-1-2.1-1.5-3.6-1.5c-1.5,0-2.7,0.5-3.6,1.5c-0.9,1-1.4,2.4-1.4,4.1
			c0,1.8,0.5,3.2,1.4,4.2c0.9,1,2.1,1.5,3.6,1.5C161.1,71.2,162.3,70.7,163.3,69.7z"/>
		<path class="st1" d="M178.6,49.8c-0.9-0.8-1.4-1.9-1.4-3.1c0-1.3,0.5-2.3,1.4-3.1c0.9-0.8,2.2-1.3,3.7-1.3c1.5,0,2.7,0.4,3.7,1.2
			c0.9,0.8,1.4,1.8,1.4,3.1c0,1.3-0.5,2.4-1.4,3.3c-0.9,0.9-2.2,1.3-3.7,1.3C180.8,51.1,179.6,50.7,178.6,49.8z M178.2,53.7h8.3
			v23.7h-8.3V53.7z"/>
		<path class="st1" d="M214.4,56c1.8,1.7,2.7,4.4,2.7,7.9v13.6h-8.3V65.2c0-3.2-1.3-4.9-3.9-4.9c-1.4,0-2.6,0.5-3.4,1.4
			c-0.9,0.9-1.3,2.3-1.3,4.2v11.5h-8.3V53.7h7.9v2.6c0.9-1,2-1.7,3.3-2.2c1.3-0.5,2.7-0.8,4.2-0.8C210.2,53.3,212.6,54.2,214.4,56z"
			/>
		<path class="st1" d="M248.1,53.7v19.4c0,4.4-1.2,7.7-3.6,9.9c-2.4,2.2-5.8,3.3-10.3,3.3c-2.3,0-4.5-0.3-6.6-0.8
			c-2-0.5-3.8-1.3-5.2-2.3l3-5.8c1,0.8,2.2,1.4,3.7,1.9c1.5,0.5,2.9,0.7,4.4,0.7c2.2,0,3.8-0.5,4.8-1.4c1-1,1.5-2.4,1.5-4.3v-0.8
			c-1.6,1.9-4,2.8-7,2.8c-2.1,0-4-0.5-5.8-1.4c-1.8-0.9-3.2-2.3-4.2-4c-1-1.7-1.6-3.7-1.6-6c0-2.2,0.5-4.2,1.6-6
			c1-1.7,2.5-3.1,4.2-4c1.8-0.9,3.7-1.4,5.8-1.4c3.4,0,5.9,1.1,7.4,3.3v-2.9H248.1z M238.4,68.2c1-0.9,1.5-2.1,1.5-3.5
			c0-1.4-0.5-2.6-1.4-3.5c-1-0.9-2.2-1.3-3.7-1.3c-1.5,0-2.8,0.4-3.7,1.3c-1,0.9-1.5,2-1.5,3.5c0,1.4,0.5,2.6,1.5,3.5
			c1,0.9,2.2,1.4,3.7,1.4S237.5,69.1,238.4,68.2z"/>
		<path class="st1" d="M290.8,77.9l-3.5-3.1c-1.4,1-3,1.8-4.8,2.3S279,78,277.1,78c-2.3,0-4.4-0.4-6.3-1.1c-1.9-0.7-3.3-1.8-4.4-3.1
			c-1-1.3-1.6-2.8-1.6-4.4c0-1.9,0.5-3.6,1.5-5.1c1-1.4,2.6-2.8,4.9-4c-2-2-2.9-4-2.9-6.2c0-1.5,0.4-2.9,1.3-4.1
			c0.8-1.2,2-2.1,3.6-2.8c1.6-0.7,3.4-1,5.4-1c2.8,0,5.1,0.7,6.8,2c1.7,1.3,2.6,3.1,2.6,5.4c0,1.6-0.5,3-1.4,4.2
			c-0.9,1.2-2.4,2.4-4.3,3.5l4.5,4c0.6-1.3,1-2.7,1.4-4.4l6.7,2c-0.6,2.6-1.5,4.9-2.8,7l3.2,2.9L290.8,77.9z M282.4,70.4l-6.6-5.9
			c-1,0.6-1.7,1.2-2.1,1.8c-0.4,0.6-0.7,1.3-0.7,2.1c0,0.9,0.4,1.7,1.3,2.3c0.8,0.6,2,0.9,3.4,0.9C279.4,71.7,280.9,71.3,282.4,70.4
			z M276.6,52.5c-0.5,0.4-0.7,1-0.7,1.6c0,0.5,0.1,1,0.4,1.4c0.3,0.5,0.8,1,1.6,1.8c1.2-0.6,2-1.2,2.5-1.7c0.5-0.5,0.7-1.1,0.7-1.7
			c0-0.6-0.2-1.1-0.6-1.5c-0.4-0.4-1-0.5-1.8-0.5C277.8,51.8,277.1,52.1,276.6,52.5z"/>
		<path class="st1" d="M43.7,122.5c-2.6-1.4-4.6-3.2-6-5.7c-1.5-2.4-2.2-5.2-2.2-8.2c0-3.1,0.7-5.8,2.2-8.2c1.5-2.4,3.5-4.3,6-5.7
			s5.4-2,8.6-2c2.8,0,5.3,0.5,7.6,1.5c2.2,1,4.1,2.4,5.6,4.3l-5.5,5c-2-2.4-4.4-3.6-7.2-3.6c-1.7,0-3.1,0.4-4.4,1.1
			c-1.3,0.7-2.3,1.8-3,3.1c-0.7,1.3-1.1,2.8-1.1,4.6c0,1.7,0.4,3.2,1.1,4.6c0.7,1.3,1.7,2.4,3,3.1c1.3,0.7,2.8,1.1,4.4,1.1
			c2.8,0,5.2-1.2,7.2-3.6l5.5,5c-1.5,1.9-3.4,3.3-5.6,4.3c-2.2,1-4.8,1.5-7.6,1.5C49.1,124.5,46.2,123.8,43.7,122.5z"/>
		<path class="st1" d="M73.2,122.7c-2-1-3.6-2.5-4.8-4.4c-1.2-1.9-1.7-4-1.7-6.3c0-2.3,0.6-4.4,1.7-6.3c1.2-1.9,2.7-3.3,4.8-4.4
			c2-1,4.3-1.6,6.9-1.6c2.6,0,4.9,0.5,6.9,1.6c2,1,3.6,2.5,4.8,4.3c1.1,1.9,1.7,4,1.7,6.3s-0.6,4.5-1.7,6.3
			c-1.1,1.9-2.7,3.3-4.8,4.4c-2,1-4.3,1.6-6.9,1.6C77.6,124.3,75.3,123.8,73.2,122.7z M83.7,116.2c0.9-1,1.4-2.4,1.4-4.2
			c0-1.7-0.5-3.1-1.4-4.1c-0.9-1-2.1-1.5-3.6-1.5c-1.5,0-2.7,0.5-3.6,1.5c-0.9,1-1.4,2.4-1.4,4.1c0,1.8,0.5,3.2,1.4,4.2
			c0.9,1,2.1,1.5,3.6,1.5C81.5,117.7,82.7,117.2,83.7,116.2z"/>
		<path class="st1" d="M135.2,102.4c1.7,1.7,2.6,4.4,2.6,7.9v13.6h-8.3v-12.2c0-1.7-0.3-2.9-0.9-3.7c-0.6-0.8-1.5-1.2-2.6-1.2
			c-1.3,0-2.3,0.4-3,1.3c-0.8,0.9-1.1,2.2-1.1,4v11.8h-8.3v-12.2c0-3.2-1.2-4.9-3.6-4.9c-1.3,0-2.3,0.4-3.1,1.3
			c-0.8,0.9-1.1,2.2-1.1,4v11.8h-8.3v-23.7h7.9v2.5c0.9-1,1.9-1.7,3.1-2.2c1.2-0.5,2.5-0.7,4-0.7c1.7,0,3.1,0.3,4.5,0.9
			c1.3,0.6,2.4,1.5,3.2,2.8c0.9-1.2,2.1-2.1,3.5-2.8c1.4-0.6,3-1,4.7-1C131.1,99.8,133.4,100.7,135.2,102.4z"/>
		<path class="st1" d="M180.9,102.4c1.7,1.7,2.6,4.4,2.6,7.9v13.6h-8.3v-12.2c0-1.7-0.3-2.9-0.9-3.7c-0.6-0.8-1.5-1.2-2.6-1.2
			c-1.3,0-2.3,0.4-3,1.3c-0.8,0.9-1.1,2.2-1.1,4v11.8h-8.3v-12.2c0-3.2-1.2-4.9-3.6-4.9c-1.3,0-2.3,0.4-3.1,1.3
			c-0.8,0.9-1.1,2.2-1.1,4v11.8H143v-23.7h7.9v2.5c0.9-1,1.9-1.7,3.1-2.2c1.2-0.5,2.5-0.7,4-0.7c1.7,0,3.1,0.3,4.5,0.9
			c1.3,0.6,2.4,1.5,3.2,2.8c0.9-1.2,2.1-2.1,3.5-2.8c1.4-0.6,3-1,4.7-1C176.8,99.8,179.1,100.7,180.9,102.4z"/>
		<path class="st1" d="M213.6,100.2v23.7h-7.9v-2.5c-0.9,1-1.9,1.7-3.1,2.2c-1.2,0.5-2.5,0.7-3.9,0.7c-3.1,0-5.5-0.9-7.3-2.7
			c-1.8-1.8-2.7-4.5-2.7-8.1v-13.2h8.3v11.9c0,1.8,0.3,3.1,1,3.9c0.7,0.8,1.6,1.2,2.9,1.2c1.3,0,2.4-0.5,3.2-1.4
			c0.8-0.9,1.2-2.3,1.2-4.2v-11.4H213.6z"/>
		<path class="st1" d="M241.5,102.4c1.8,1.7,2.7,4.4,2.7,7.9v13.6h-8.3v-12.2c0-3.2-1.3-4.9-3.9-4.9c-1.4,0-2.6,0.5-3.4,1.4
			c-0.9,0.9-1.3,2.3-1.3,4.2v11.5H219v-23.7h7.9v2.6c0.9-1,2-1.7,3.3-2.2c1.3-0.5,2.7-0.8,4.2-0.8
			C237.3,99.8,239.7,100.7,241.5,102.4z"/>
		<path class="st1" d="M249.9,96.3c-0.9-0.8-1.4-1.9-1.4-3.1c0-1.3,0.5-2.3,1.4-3.1c0.9-0.8,2.2-1.3,3.7-1.3s2.7,0.4,3.7,1.2
			c0.9,0.8,1.4,1.8,1.4,3.1c0,1.3-0.5,2.4-1.4,3.3c-0.9,0.9-2.2,1.3-3.7,1.3S250.8,97.1,249.9,96.3z M249.4,100.2h8.3v23.7h-8.3
			V100.2z"/>
		<path class="st1" d="M268.2,122.7c-2.1-1-3.7-2.5-4.8-4.4c-1.2-1.9-1.7-4-1.7-6.3s0.6-4.5,1.7-6.3c1.2-1.9,2.8-3.3,4.8-4.3
			c2.1-1,4.4-1.6,7-1.6c2.7,0,5,0.6,7,1.7c2,1.2,3.3,2.7,4.2,4.8l-6.4,3.3c-1.1-2.1-2.7-3.2-4.7-3.2c-1.5,0-2.7,0.5-3.7,1.5
			c-1,1-1.5,2.4-1.5,4.1c0,1.8,0.5,3.2,1.5,4.2c1,1,2.2,1.5,3.7,1.5c2.1,0,3.6-1.1,4.7-3.2l6.4,3.3c-0.8,2-2.2,3.6-4.2,4.8
			c-2,1.2-4.3,1.7-7,1.7C272.6,124.3,270.2,123.8,268.2,122.7z"/>
		<path class="st1" d="M308.6,102.5c2.1,1.8,3.1,4.5,3.1,8.2v13.2h-7.7v-3.1c-1.2,2.3-3.5,3.5-7,3.5c-1.8,0-3.4-0.3-4.8-1
			c-1.3-0.6-2.4-1.5-3-2.6c-0.7-1.1-1-2.3-1-3.7c0-2.2,0.9-4,2.6-5.2c1.7-1.2,4.4-1.9,8-1.9h4.7c-0.1-2.5-1.8-3.8-5-3.8
			c-1.1,0-2.3,0.2-3.5,0.5c-1.2,0.4-2.2,0.9-3,1.5l-2.8-5.6c1.3-0.9,2.9-1.6,4.8-2s3.8-0.7,5.7-0.7
			C303.5,99.8,306.5,100.7,308.6,102.5z M301.8,118.3c0.7-0.5,1.3-1.2,1.6-2.1v-2.1h-3.6c-2.4,0-3.6,0.8-3.6,2.4
			c0,0.7,0.3,1.3,0.8,1.7c0.6,0.4,1.3,0.7,2.3,0.7S301,118.8,301.8,118.3z"/>
		<path class="st1" d="M333.3,122.9c-0.7,0.4-1.6,0.8-2.6,1c-1,0.2-2.1,0.3-3.2,0.3c-3.1,0-5.5-0.8-7.1-2.3
			c-1.7-1.5-2.5-3.8-2.5-6.8v-8h-3.5v-6.2h3.5v-6.2h8.3v6.2h5.4v6.2h-5.4v7.9c0,0.8,0.2,1.5,0.7,2c0.5,0.5,1.1,0.7,1.8,0.7
			c1,0,1.8-0.2,2.5-0.7L333.3,122.9z"/>
		<path class="st1" d="M336.9,96.3c-0.9-0.8-1.4-1.9-1.4-3.1c0-1.3,0.5-2.3,1.4-3.1c0.9-0.8,2.2-1.3,3.7-1.3s2.7,0.4,3.7,1.2
			c0.9,0.8,1.4,1.8,1.4,3.1c0,1.3-0.5,2.4-1.4,3.3c-0.9,0.9-2.2,1.3-3.7,1.3S337.9,97.1,336.9,96.3z M336.4,100.2h8.3v23.7h-8.3
			V100.2z"/>
		<path class="st1" d="M355.2,122.7c-2-1-3.6-2.5-4.8-4.4c-1.2-1.9-1.7-4-1.7-6.3c0-2.3,0.6-4.4,1.7-6.3c1.2-1.9,2.7-3.3,4.8-4.4
			c2-1,4.3-1.6,6.9-1.6s4.9,0.5,6.9,1.6c2,1,3.6,2.5,4.8,4.3c1.1,1.9,1.7,4,1.7,6.3s-0.6,4.5-1.7,6.3c-1.1,1.9-2.7,3.3-4.8,4.4
			c-2,1-4.3,1.6-6.9,1.6C359.5,124.3,357.2,123.8,355.2,122.7z M365.6,116.2c0.9-1,1.4-2.4,1.4-4.2c0-1.7-0.5-3.1-1.4-4.1
			c-0.9-1-2.1-1.5-3.6-1.5c-1.5,0-2.7,0.5-3.6,1.5c-0.9,1-1.4,2.4-1.4,4.1c0,1.8,0.5,3.2,1.4,4.2c0.9,1,2.1,1.5,3.6,1.5
			C363.5,117.7,364.7,117.2,365.6,116.2z"/>
		<path class="st1" d="M401.8,102.4c1.8,1.7,2.7,4.4,2.7,7.9v13.6h-8.3v-12.2c0-3.2-1.3-4.9-3.9-4.9c-1.4,0-2.6,0.5-3.4,1.4
			c-0.9,0.9-1.3,2.3-1.3,4.2v11.5h-8.3v-23.7h7.9v2.6c0.9-1,2-1.7,3.3-2.2c1.3-0.5,2.7-0.8,4.2-0.8
			C397.6,99.8,400,100.7,401.8,102.4z"/>
	</g>
	<g>
		<path class="st1" d="M68,153.1l-7,21h-4.1l-5.2-15.5l-5.3,15.5h-4.2l-7-21h4l5.2,16l5.4-16h3.6l5.3,16l5.4-16H68z"/>
		<path class="st1" d="M84.6,167.3H72.1c0.2,1.2,0.8,2.1,1.7,2.8c0.9,0.7,2.1,1,3.5,1c1.8,0,3.2-0.6,4.4-1.7l2,2.3
			c-0.7,0.9-1.6,1.5-2.7,1.9c-1.1,0.4-2.3,0.7-3.7,0.7c-1.8,0-3.3-0.3-4.7-1s-2.4-1.7-3.1-2.9c-0.7-1.2-1.1-2.7-1.1-4.2
			c0-1.6,0.4-3,1.1-4.2c0.7-1.2,1.7-2.2,3-2.9c1.3-0.7,2.7-1.1,4.3-1.1c1.6,0,3,0.3,4.2,1s2.2,1.7,2.9,2.9s1,2.7,1,4.3
			C84.7,166.5,84.7,166.8,84.6,167.3z M73.5,162c-0.8,0.7-1.3,1.7-1.5,2.8h9.1c-0.2-1.2-0.7-2.1-1.5-2.8c-0.8-0.7-1.8-1.1-3.1-1.1
			C75.4,160.9,74.4,161.3,73.5,162z"/>
		<path class="st1" d="M111.6,167.3H99c0.2,1.2,0.8,2.1,1.7,2.8c0.9,0.7,2.1,1,3.5,1c1.8,0,3.2-0.6,4.4-1.7l2,2.3
			c-0.7,0.9-1.6,1.5-2.7,1.9c-1.1,0.4-2.3,0.7-3.7,0.7c-1.8,0-3.3-0.3-4.7-1s-2.4-1.7-3.1-2.9c-0.7-1.2-1.1-2.7-1.1-4.2
			c0-1.6,0.4-3,1.1-4.2c0.7-1.2,1.7-2.2,3-2.9c1.3-0.7,2.7-1.1,4.3-1.1c1.6,0,3,0.3,4.2,1s2.2,1.7,2.9,2.9s1,2.7,1,4.3
			C111.6,166.5,111.6,166.8,111.6,167.3z M100.5,162c-0.8,0.7-1.3,1.7-1.5,2.8h9.1c-0.2-1.2-0.7-2.1-1.5-2.8
			c-0.8-0.7-1.8-1.1-3.1-1.1C102.3,160.9,101.3,161.3,100.5,162z"/>
		<path class="st1" d="M129.2,159.7c1.2,1.2,1.8,2.9,1.8,5.2v9.2h-3.8v-8.7c0-1.4-0.3-2.5-1-3.2c-0.7-0.7-1.6-1.1-2.8-1.1
			c-1.4,0-2.5,0.4-3.3,1.2c-0.8,0.8-1.2,2-1.2,3.6v8.1h-3.8v-16h3.6v2.1c0.6-0.7,1.4-1.3,2.3-1.7c0.9-0.4,2-0.6,3.2-0.6
			C126.3,157.9,128,158.5,129.2,159.7z"/>
		<path class="st1" d="M149.7,159.7c1.2,1.2,1.8,2.9,1.8,5.2v9.2h-3.8v-8.7c0-1.4-0.3-2.5-1-3.2c-0.7-0.7-1.6-1.1-2.8-1.1
			c-1.4,0-2.5,0.4-3.3,1.2c-0.8,0.8-1.2,2-1.2,3.6v8.1h-3.8v-22.3h3.8v8.1c0.6-0.7,1.4-1.2,2.3-1.5s1.9-0.5,3-0.5
			C146.9,157.9,148.5,158.5,149.7,159.7z"/>
		<path class="st1" d="M167.9,159.6c1.2,1.1,1.9,2.8,1.9,5.1v9.4h-3.5v-2c-0.5,0.7-1.1,1.2-2,1.6c-0.9,0.4-1.9,0.6-3.1,0.6
			s-2.2-0.2-3.1-0.6s-1.6-1-2.1-1.7c-0.5-0.7-0.7-1.6-0.7-2.5c0-1.4,0.5-2.6,1.6-3.5c1.1-0.9,2.8-1.3,5.1-1.3h4.1v-0.2
			c0-1.1-0.3-2-1-2.6c-0.7-0.6-1.7-0.9-3-0.9c-0.9,0-1.8,0.1-2.7,0.4c-0.9,0.3-1.6,0.7-2.2,1.2l-1.5-2.7c0.8-0.6,1.9-1.1,3-1.5
			c1.2-0.3,2.4-0.5,3.8-0.5C164.8,157.9,166.6,158.5,167.9,159.6z M164.4,171c0.7-0.4,1.2-1,1.5-1.8v-1.9h-3.9
			c-2.2,0-3.2,0.7-3.2,2.1c0,0.7,0.3,1.2,0.8,1.6c0.5,0.4,1.3,0.6,2.2,0.6C162.9,171.6,163.7,171.4,164.4,171z"/>
		<path class="st1" d="M188.5,159.7c1.2,1.2,1.8,2.9,1.8,5.2v9.2h-3.8v-8.7c0-1.4-0.3-2.5-1-3.2c-0.7-0.7-1.6-1.1-2.8-1.1
			c-1.4,0-2.5,0.4-3.3,1.2c-0.8,0.8-1.2,2-1.2,3.6v8.1h-3.8v-16h3.6v2.1c0.6-0.7,1.4-1.3,2.3-1.7c0.9-0.4,2-0.6,3.2-0.6
			C185.6,157.9,187.3,158.5,188.5,159.7z"/>
		<path class="st1" d="M198.1,173.3c-1.3-0.7-2.4-1.7-3.1-2.9c-0.7-1.2-1.1-2.7-1.1-4.2s0.4-3,1.1-4.2c0.7-1.2,1.8-2.2,3.1-2.9
			c1.3-0.7,2.8-1.1,4.5-1.1c1.6,0,3,0.3,4.2,1c1.2,0.6,2.1,1.6,2.7,2.8l-2.9,1.7c-0.5-0.7-1-1.3-1.7-1.7s-1.4-0.6-2.3-0.6
			c-1.4,0-2.6,0.5-3.5,1.4s-1.4,2.1-1.4,3.6s0.5,2.7,1.4,3.6c0.9,0.9,2.1,1.4,3.5,1.4c0.8,0,1.6-0.2,2.3-0.6
			c0.7-0.4,1.3-0.9,1.7-1.7l2.9,1.7c-0.6,1.2-1.5,2.1-2.7,2.8c-1.2,0.7-2.6,1-4.1,1C200.9,174.3,199.4,174,198.1,173.3z"/>
		<path class="st1" d="M227.4,167.3h-12.6c0.2,1.2,0.8,2.1,1.7,2.8c0.9,0.7,2.1,1,3.5,1c1.8,0,3.2-0.6,4.4-1.7l2,2.3
			c-0.7,0.9-1.6,1.5-2.7,1.9c-1.1,0.4-2.3,0.7-3.7,0.7c-1.8,0-3.3-0.3-4.7-1s-2.4-1.7-3.1-2.9c-0.7-1.2-1.1-2.7-1.1-4.2
			c0-1.6,0.4-3,1.1-4.2c0.7-1.2,1.7-2.2,3-2.9c1.3-0.7,2.7-1.1,4.3-1.1c1.6,0,3,0.3,4.2,1s2.2,1.7,2.9,2.9s1,2.7,1,4.3
			C227.5,166.5,227.5,166.8,227.4,167.3z M216.3,162c-0.8,0.7-1.3,1.7-1.5,2.8h9.1c-0.2-1.2-0.7-2.1-1.5-2.8
			c-0.8-0.7-1.8-1.1-3.1-1.1C218.2,160.9,217.2,161.3,216.3,162z"/>
		<path class="st1" d="M254.4,158.1l-7.5,17.3c-0.7,1.7-1.6,3-2.5,3.7c-1,0.7-2.2,1.1-3.6,1.1c-0.8,0-1.6-0.1-2.4-0.4
			c-0.8-0.3-1.4-0.6-1.9-1.1l1.5-2.8c0.4,0.3,0.8,0.6,1.3,0.8c0.5,0.2,1,0.3,1.5,0.3c0.7,0,1.2-0.2,1.6-0.5c0.4-0.3,0.8-0.9,1.2-1.7
			l0.3-0.6l-7-16.1h3.9l5,11.9l5.1-11.9H254.4z"/>
		<path class="st1" d="M259.1,173.3c-1.3-0.7-2.3-1.7-3-2.9c-0.7-1.2-1.1-2.7-1.1-4.2s0.4-3,1.1-4.2c0.7-1.2,1.7-2.2,3-2.9
			c1.3-0.7,2.8-1.1,4.4-1.1c1.6,0,3.1,0.4,4.4,1.1c1.3,0.7,2.3,1.7,3,2.9c0.7,1.2,1.1,2.7,1.1,4.2s-0.4,3-1.1,4.2
			c-0.7,1.3-1.7,2.2-3,2.9c-1.3,0.7-2.8,1-4.4,1C261.8,174.3,260.4,174,259.1,173.3z M266.9,169.7c0.9-0.9,1.4-2.1,1.4-3.6
			s-0.5-2.7-1.4-3.6c-0.9-0.9-2-1.4-3.4-1.4c-1.4,0-2.5,0.5-3.4,1.4c-0.9,0.9-1.3,2.1-1.3,3.6s0.4,2.7,1.3,3.6
			c0.9,0.9,2,1.4,3.4,1.4C264.8,171.1,266,170.7,266.9,169.7z"/>
		<path class="st1" d="M291.1,158.1v16h-3.6v-2c-0.6,0.7-1.4,1.3-2.2,1.7s-1.9,0.6-2.9,0.6c-2.1,0-3.8-0.6-5.1-1.8
			c-1.2-1.2-1.8-3-1.8-5.3v-9.1h3.8v8.6c0,1.4,0.3,2.5,1,3.2s1.6,1.1,2.8,1.1c1.3,0,2.4-0.4,3.2-1.2c0.8-0.8,1.2-2,1.2-3.6v-8.1
			H291.1z"/>
		<path class="st1" d="M305.3,157.9v3.6c-0.3-0.1-0.6-0.1-0.9-0.1c-1.5,0-2.6,0.4-3.4,1.3c-0.8,0.9-1.2,2.1-1.2,3.7v7.8H296v-16h3.6
			v2.3C300.7,158.8,302.6,157.9,305.3,157.9z"/>
		<path class="st1" d="M330,158.9c1.2,0.7,2.2,1.6,2.9,2.9c0.7,1.2,1,2.7,1,4.3c0,1.6-0.3,3.1-1,4.3c-0.7,1.2-1.7,2.2-2.9,2.9
			c-1.2,0.7-2.6,1-4.2,1c-1.1,0-2.1-0.2-3-0.6c-0.9-0.4-1.7-0.9-2.3-1.7v2.1h-3.6v-22.3h3.7v8.2c0.6-0.7,1.4-1.2,2.3-1.6
			c0.9-0.4,1.8-0.5,2.9-0.5C327.4,157.9,328.8,158.3,330,158.9z M328.8,169.7c0.9-0.9,1.3-2.1,1.3-3.6s-0.4-2.7-1.3-3.6
			c-0.9-0.9-2-1.4-3.4-1.4c-0.9,0-1.7,0.2-2.4,0.6c-0.7,0.4-1.3,1-1.7,1.8c-0.4,0.8-0.6,1.6-0.6,2.6s0.2,1.9,0.6,2.6
			c0.4,0.8,1,1.3,1.7,1.8c0.7,0.4,1.5,0.6,2.4,0.6C326.8,171.1,327.9,170.7,328.8,169.7z"/>
		<path class="st1" d="M346.8,157.9v3.6c-0.3-0.1-0.6-0.1-0.9-0.1c-1.5,0-2.6,0.4-3.4,1.3c-0.8,0.9-1.2,2.1-1.2,3.7v7.8h-3.8v-16
			h3.6v2.3C342.1,158.8,344,157.9,346.8,157.9z"/>
		<path class="st1" d="M361.4,159.6c1.2,1.1,1.9,2.8,1.9,5.1v9.4h-3.5v-2c-0.5,0.7-1.1,1.2-2,1.6c-0.9,0.4-1.9,0.6-3.1,0.6
			s-2.2-0.2-3.2-0.6c-0.9-0.4-1.6-1-2.1-1.7c-0.5-0.7-0.7-1.6-0.7-2.5c0-1.4,0.5-2.6,1.6-3.5c1.1-0.9,2.8-1.3,5.1-1.3h4.1v-0.2
			c0-1.1-0.3-2-1-2.6c-0.7-0.6-1.7-0.9-3-0.9c-0.9,0-1.8,0.1-2.7,0.4c-0.9,0.3-1.6,0.7-2.2,1.2l-1.5-2.7c0.8-0.6,1.8-1.1,3-1.5
			c1.2-0.3,2.4-0.5,3.8-0.5C358.3,157.9,360.1,158.5,361.4,159.6z M358,171c0.7-0.4,1.2-1,1.5-1.8v-1.9h-3.9c-2.2,0-3.2,0.7-3.2,2.1
			c0,0.7,0.3,1.2,0.8,1.6c0.5,0.4,1.3,0.6,2.2,0.6C356.4,171.6,357.2,171.4,358,171z"/>
		<path class="st1" d="M382,159.7c1.2,1.2,1.8,2.9,1.8,5.2v9.2h-3.8v-8.7c0-1.4-0.3-2.5-1-3.2c-0.7-0.7-1.6-1.1-2.8-1.1
			c-1.4,0-2.5,0.4-3.3,1.2c-0.8,0.8-1.2,2-1.2,3.6v8.1h-3.8v-16h3.6v2.1c0.6-0.7,1.4-1.3,2.3-1.7c0.9-0.4,2-0.6,3.2-0.6
			C379.2,157.9,380.8,158.5,382,159.7z"/>
		<path class="st1" d="M404.5,151.9v22.3h-3.6v-2.1c-0.6,0.8-1.4,1.3-2.3,1.7c-0.9,0.4-1.9,0.6-3,0.6c-1.5,0-2.9-0.3-4.2-1
			c-1.2-0.7-2.2-1.6-2.9-2.9c-0.7-1.2-1.1-2.7-1.1-4.3c0-1.6,0.3-3,1.1-4.3c0.7-1.2,1.7-2.2,2.9-2.9c1.2-0.7,2.6-1,4.2-1
			c1.1,0,2,0.2,2.9,0.5c0.9,0.4,1.6,0.9,2.2,1.6v-8.2H404.5z M398.4,170.5c0.7-0.4,1.3-1,1.7-1.8c0.4-0.8,0.6-1.6,0.6-2.6
			s-0.2-1.9-0.6-2.6c-0.4-0.8-1-1.3-1.7-1.8c-0.7-0.4-1.5-0.6-2.4-0.6c-0.9,0-1.7,0.2-2.4,0.6c-0.7,0.4-1.3,1-1.7,1.8
			c-0.4,0.8-0.6,1.6-0.6,2.6s0.2,1.9,0.6,2.6c0.4,0.8,1,1.3,1.7,1.8c0.7,0.4,1.5,0.6,2.4,0.6C396.9,171.1,397.7,170.9,398.4,170.5z"
			/>
		<path class="st1" d="M442.6,158.1l-5.9,16h-3.6l-4.1-11l-4.2,11h-3.6l-5.9-16h3.5l4.2,11.8l4.4-11.8h3.2L435,170l4.4-11.9H442.6z"
			/>
		<path class="st1" d="M445.4,154.8c-0.5-0.4-0.7-1-0.7-1.6c0-0.6,0.2-1.2,0.7-1.6c0.5-0.4,1-0.6,1.7-0.6s1.2,0.2,1.7,0.6
			c0.5,0.4,0.7,0.9,0.7,1.5c0,0.7-0.2,1.2-0.7,1.7s-1,0.7-1.7,0.7C446.4,155.5,445.9,155.3,445.4,154.8z M445.2,158.1h3.8v16h-3.8
			V158.1z"/>
		<path class="st1" d="M463.5,173.3c-0.4,0.4-1,0.6-1.6,0.8s-1.3,0.3-2,0.3c-1.8,0-3.1-0.5-4.1-1.4s-1.4-2.3-1.4-4v-7.7h-2.6v-3h2.6
			v-3.7h3.8v3.7h4.3v3h-4.3v7.6c0,0.8,0.2,1.4,0.6,1.8c0.4,0.4,0.9,0.6,1.7,0.6c0.8,0,1.5-0.2,2.1-0.7L463.5,173.3z"/>
		<path class="st1" d="M480.6,159.7c1.2,1.2,1.8,2.9,1.8,5.2v9.2h-3.8v-8.7c0-1.4-0.3-2.5-1-3.2c-0.7-0.7-1.6-1.1-2.8-1.1
			c-1.4,0-2.5,0.4-3.3,1.2c-0.8,0.8-1.2,2-1.2,3.6v8.1h-3.8v-22.3h3.8v8.1c0.6-0.7,1.4-1.2,2.3-1.5s1.9-0.5,3-0.5
			C477.7,157.9,479.3,158.5,480.6,159.7z"/>
		<path class="st1" d="M507,159.6c1.2,1.1,1.9,2.8,1.9,5.1v9.4h-3.5v-2c-0.5,0.7-1.1,1.2-2,1.6c-0.9,0.4-1.9,0.6-3.1,0.6
			s-2.2-0.2-3.2-0.6c-0.9-0.4-1.6-1-2.1-1.7c-0.5-0.7-0.7-1.6-0.7-2.5c0-1.4,0.5-2.6,1.6-3.5c1.1-0.9,2.8-1.3,5.1-1.3h4.1v-0.2
			c0-1.1-0.3-2-1-2.6c-0.7-0.6-1.7-0.9-3-0.9c-0.9,0-1.8,0.1-2.7,0.4c-0.9,0.3-1.6,0.7-2.2,1.2l-1.5-2.7c0.8-0.6,1.8-1.1,3-1.5
			c1.2-0.3,2.4-0.5,3.8-0.5C503.9,157.9,505.7,158.5,507,159.6z M503.6,171c0.7-0.4,1.2-1,1.5-1.8v-1.9h-3.9c-2.2,0-3.2,0.7-3.2,2.1
			c0,0.7,0.3,1.2,0.8,1.6c0.5,0.4,1.3,0.6,2.2,0.6C502,171.6,502.8,171.4,503.6,171z"/>
		<path class="st1" d="M52.6,187.9v22.3H49v-2.1c-0.6,0.8-1.4,1.3-2.3,1.7c-0.9,0.4-1.9,0.6-3,0.6c-1.5,0-2.9-0.3-4.2-1
			c-1.2-0.7-2.2-1.6-2.9-2.9c-0.7-1.2-1-2.7-1-4.3c0-1.6,0.3-3,1-4.3c0.7-1.2,1.7-2.2,2.9-2.9c1.2-0.7,2.6-1,4.2-1
			c1.1,0,2,0.2,2.9,0.5c0.9,0.4,1.6,0.9,2.2,1.6v-8.2H52.6z M46.6,206.5c0.7-0.4,1.3-1,1.7-1.8c0.4-0.8,0.6-1.6,0.6-2.6
			s-0.2-1.9-0.6-2.6c-0.4-0.8-1-1.3-1.7-1.8c-0.7-0.4-1.5-0.6-2.4-0.6s-1.7,0.2-2.4,0.6c-0.7,0.4-1.3,1-1.7,1.8
			c-0.4,0.8-0.6,1.6-0.6,2.6s0.2,1.9,0.6,2.6c0.4,0.8,1,1.3,1.7,1.8c0.7,0.4,1.5,0.6,2.4,0.6S45.9,206.9,46.6,206.5z"/>
		<path class="st1" d="M57.7,190.8c-0.5-0.4-0.7-1-0.7-1.6c0-0.6,0.2-1.2,0.7-1.6c0.5-0.4,1-0.6,1.7-0.6c0.7,0,1.2,0.2,1.7,0.6
			c0.5,0.4,0.7,0.9,0.7,1.5c0,0.7-0.2,1.2-0.7,1.7c-0.5,0.5-1,0.7-1.7,0.7C58.8,191.5,58.2,191.3,57.7,190.8z M57.6,194.1h3.8v16
			h-3.8V194.1z"/>
		<path class="st1" d="M67.4,209.8c-1.2-0.3-2.2-0.8-3-1.3l1.4-2.9c0.7,0.5,1.6,0.9,2.6,1.2c1,0.3,2,0.4,3,0.4
			c2.2,0,3.4-0.6,3.4-1.8c0-0.6-0.3-0.9-0.9-1.2c-0.6-0.2-1.5-0.4-2.7-0.6c-1.3-0.2-2.4-0.4-3.2-0.7c-0.8-0.3-1.6-0.7-2.2-1.4
			c-0.6-0.6-0.9-1.6-0.9-2.7c0-1.5,0.6-2.7,1.9-3.6c1.3-0.9,3-1.4,5.1-1.4c1.1,0,2.2,0.1,3.3,0.4c1.1,0.3,2,0.6,2.7,1l-1.4,2.8
			c-1.4-0.8-2.9-1.2-4.6-1.2c-1.1,0-1.9,0.2-2.5,0.5c-0.6,0.3-0.9,0.8-0.9,1.3c0,0.6,0.3,1,0.9,1.3c0.6,0.3,1.6,0.5,2.8,0.7
			c1.3,0.2,2.3,0.4,3.1,0.7c0.8,0.3,1.5,0.7,2.1,1.3c0.6,0.6,0.9,1.5,0.9,2.6c0,1.5-0.6,2.7-1.9,3.6c-1.3,0.9-3.1,1.4-5.3,1.4
			C69.9,210.3,68.6,210.2,67.4,209.8z"/>
		<path class="st1" d="M91.3,209.3c-0.4,0.4-1,0.6-1.6,0.8c-0.6,0.2-1.3,0.3-2,0.3c-1.8,0-3.1-0.5-4.1-1.4s-1.4-2.3-1.4-4v-7.7h-2.6
			v-3h2.6v-3.7h3.8v3.7h4.3v3h-4.3v7.6c0,0.8,0.2,1.4,0.6,1.8c0.4,0.4,0.9,0.6,1.6,0.6c0.8,0,1.5-0.2,2.1-0.7L91.3,209.3z"/>
		<path class="st1" d="M94.6,190.8c-0.5-0.4-0.7-1-0.7-1.6c0-0.6,0.2-1.2,0.7-1.6c0.5-0.4,1-0.6,1.7-0.6c0.7,0,1.2,0.2,1.7,0.6
			c0.5,0.4,0.7,0.9,0.7,1.5c0,0.7-0.2,1.2-0.7,1.7c-0.5,0.5-1,0.7-1.7,0.7C95.6,191.5,95,191.3,94.6,190.8z M94.4,194.1h3.8v16h-3.8
			V194.1z"/>
		<path class="st1" d="M117,195.7c1.2,1.2,1.8,2.9,1.8,5.2v9.2h-3.8v-8.7c0-1.4-0.3-2.5-1-3.2c-0.7-0.7-1.6-1.1-2.8-1.1
			c-1.4,0-2.5,0.4-3.3,1.2c-0.8,0.8-1.2,2-1.2,3.6v8.1h-3.8v-16h3.6v2.1c0.6-0.7,1.4-1.3,2.3-1.7c0.9-0.4,2-0.6,3.2-0.6
			C114.2,193.9,115.8,194.5,117,195.7z"/>
		<path class="st1" d="M126.7,209.3c-1.3-0.7-2.4-1.7-3.1-2.9c-0.7-1.2-1.1-2.7-1.1-4.2s0.4-3,1.1-4.2c0.7-1.2,1.8-2.2,3.1-2.9
			c1.3-0.7,2.8-1.1,4.5-1.1c1.6,0,3,0.3,4.2,1c1.2,0.6,2.1,1.6,2.7,2.8l-2.9,1.7c-0.5-0.7-1-1.3-1.7-1.7s-1.4-0.6-2.3-0.6
			c-1.4,0-2.6,0.5-3.5,1.4s-1.4,2.1-1.4,3.6s0.5,2.7,1.4,3.6c0.9,0.9,2.1,1.4,3.5,1.4c0.8,0,1.6-0.2,2.3-0.6
			c0.7-0.4,1.3-0.9,1.7-1.7l2.9,1.7c-0.6,1.2-1.5,2.1-2.7,2.8c-1.2,0.7-2.6,1-4.1,1C129.5,210.3,128,210,126.7,209.3z"/>
		<path class="st1" d="M151,209.3c-0.4,0.4-1,0.6-1.6,0.8c-0.6,0.2-1.3,0.3-2,0.3c-1.8,0-3.1-0.5-4.1-1.4s-1.4-2.3-1.4-4v-7.7h-2.6
			v-3h2.6v-3.7h3.8v3.7h4.3v3h-4.3v7.6c0,0.8,0.2,1.4,0.6,1.8c0.4,0.4,0.9,0.6,1.6,0.6c0.8,0,1.5-0.2,2.1-0.7L151,209.3z"/>
		<path class="st1" d="M154.3,190.8c-0.5-0.4-0.7-1-0.7-1.6c0-0.6,0.2-1.2,0.7-1.6c0.5-0.4,1-0.6,1.7-0.6c0.7,0,1.2,0.2,1.7,0.6
			c0.5,0.4,0.7,0.9,0.7,1.5c0,0.7-0.2,1.2-0.7,1.7c-0.5,0.5-1,0.7-1.7,0.7C155.3,191.5,154.8,191.3,154.3,190.8z M154.1,194.1h3.8
			v16h-3.8V194.1z"/>
		<path class="st1" d="M177.8,194.1l-6.9,16h-3.9l-6.9-16h3.9l5,11.9l5.1-11.9H177.8z"/>
		<path class="st1" d="M194.7,203.3h-12.6c0.2,1.2,0.8,2.1,1.7,2.8c0.9,0.7,2.1,1,3.5,1c1.8,0,3.2-0.6,4.4-1.7l2,2.3
			c-0.7,0.9-1.6,1.5-2.7,1.9c-1.1,0.4-2.3,0.7-3.7,0.7c-1.8,0-3.3-0.3-4.7-1s-2.4-1.7-3.1-2.9c-0.7-1.2-1.1-2.7-1.1-4.2
			c0-1.6,0.4-3,1.1-4.2c0.7-1.2,1.7-2.2,3-2.9c1.3-0.7,2.7-1.1,4.3-1.1c1.6,0,3,0.3,4.2,1s2.2,1.7,2.9,2.9s1,2.7,1,4.3
			C194.8,202.5,194.7,202.8,194.7,203.3z M183.6,198c-0.8,0.7-1.3,1.7-1.5,2.8h9.1c-0.2-1.2-0.7-2.1-1.5-2.8
			c-0.8-0.7-1.8-1.1-3.1-1.1C185.5,196.9,184.4,197.3,183.6,198z"/>
		<path class="st1" d="M206.8,190.8c-0.5-0.4-0.7-1-0.7-1.6c0-0.6,0.2-1.2,0.7-1.6c0.5-0.4,1-0.6,1.7-0.6c0.7,0,1.2,0.2,1.7,0.6
			c0.5,0.4,0.7,0.9,0.7,1.5c0,0.7-0.2,1.2-0.7,1.7c-0.5,0.5-1,0.7-1.7,0.7C207.8,191.5,207.3,191.3,206.8,190.8z M206.6,194.1h3.8
			v16h-3.8V194.1z"/>
		<path class="st1" d="M231,187.9v22.3h-3.6v-2.1c-0.6,0.8-1.4,1.3-2.3,1.7c-0.9,0.4-1.9,0.6-3,0.6c-1.5,0-2.9-0.3-4.2-1
			c-1.2-0.7-2.2-1.6-2.9-2.9c-0.7-1.2-1-2.7-1-4.3c0-1.6,0.3-3,1-4.3c0.7-1.2,1.7-2.2,2.9-2.9c1.2-0.7,2.6-1,4.2-1
			c1.1,0,2,0.2,2.9,0.5c0.9,0.4,1.6,0.9,2.2,1.6v-8.2H231z M225,206.5c0.7-0.4,1.3-1,1.7-1.8c0.4-0.8,0.6-1.6,0.6-2.6
			s-0.2-1.9-0.6-2.6c-0.4-0.8-1-1.3-1.7-1.8c-0.7-0.4-1.5-0.6-2.4-0.6s-1.7,0.2-2.4,0.6c-0.7,0.4-1.3,1-1.7,1.8
			c-0.4,0.8-0.6,1.6-0.6,2.6s0.2,1.9,0.6,2.6c0.4,0.8,1,1.3,1.7,1.8c0.7,0.4,1.5,0.6,2.4,0.6S224.2,206.9,225,206.5z"/>
		<path class="st1" d="M250.9,203.3h-12.6c0.2,1.2,0.8,2.1,1.7,2.8c0.9,0.7,2.1,1,3.5,1c1.8,0,3.2-0.6,4.4-1.7l2,2.3
			c-0.7,0.9-1.6,1.5-2.7,1.9c-1.1,0.4-2.3,0.7-3.7,0.7c-1.8,0-3.3-0.3-4.7-1s-2.4-1.7-3.1-2.9c-0.7-1.2-1.1-2.7-1.1-4.2
			c0-1.6,0.4-3,1.1-4.2c0.7-1.2,1.7-2.2,3-2.9c1.3-0.7,2.7-1.1,4.3-1.1c1.6,0,3,0.3,4.2,1s2.2,1.7,2.9,2.9s1,2.7,1,4.3
			C251,202.5,251,202.8,250.9,203.3z M239.8,198c-0.8,0.7-1.3,1.7-1.5,2.8h9.1c-0.2-1.2-0.7-2.1-1.5-2.8c-0.8-0.7-1.8-1.1-3.1-1.1
			C241.7,196.9,240.7,197.3,239.8,198z"/>
		<path class="st1" d="M268.5,195.7c1.2,1.2,1.8,2.9,1.8,5.2v9.2h-3.8v-8.7c0-1.4-0.3-2.5-1-3.2c-0.7-0.7-1.6-1.1-2.8-1.1
			c-1.4,0-2.5,0.4-3.3,1.2c-0.8,0.8-1.2,2-1.2,3.6v8.1h-3.8v-16h3.6v2.1c0.6-0.7,1.4-1.3,2.3-1.7c0.9-0.4,2-0.6,3.2-0.6
			C265.7,193.9,267.3,194.5,268.5,195.7z"/>
		<path class="st1" d="M284.8,209.3c-0.4,0.4-1,0.6-1.6,0.8c-0.6,0.2-1.3,0.3-2,0.3c-1.8,0-3.1-0.5-4.1-1.4s-1.4-2.3-1.4-4v-7.7H273
			v-3h2.6v-3.7h3.8v3.7h4.3v3h-4.3v7.6c0,0.8,0.2,1.4,0.6,1.8c0.4,0.4,0.9,0.6,1.6,0.6c0.8,0,1.5-0.2,2.1-0.7L284.8,209.3z"/>
		<path class="st1" d="M288,190.8c-0.5-0.4-0.7-1-0.7-1.6c0-0.6,0.2-1.2,0.7-1.6c0.5-0.4,1-0.6,1.7-0.6c0.7,0,1.2,0.2,1.7,0.6
			c0.5,0.4,0.7,0.9,0.7,1.5c0,0.7-0.2,1.2-0.7,1.7c-0.5,0.5-1,0.7-1.7,0.7C289.1,191.5,288.5,191.3,288,190.8z M287.8,194.1h3.8v16
			h-3.8V194.1z"/>
		<path class="st1" d="M306.1,209.3c-0.4,0.4-1,0.6-1.6,0.8c-0.6,0.2-1.3,0.3-2,0.3c-1.8,0-3.1-0.5-4.1-1.4s-1.4-2.3-1.4-4v-7.7
			h-2.6v-3h2.6v-3.7h3.8v3.7h4.3v3h-4.3v7.6c0,0.8,0.2,1.4,0.6,1.8c0.4,0.4,0.9,0.6,1.6,0.6c0.8,0,1.5-0.2,2.1-0.7L306.1,209.3z"/>
		<path class="st1" d="M323.9,194.1l-7.5,17.3c-0.7,1.7-1.6,3-2.5,3.7c-1,0.7-2.2,1.1-3.6,1.1c-0.8,0-1.6-0.1-2.4-0.4
			c-0.8-0.3-1.4-0.6-1.9-1.1l1.5-2.8c0.4,0.3,0.8,0.6,1.3,0.8c0.5,0.2,1,0.3,1.5,0.3c0.7,0,1.2-0.2,1.6-0.5c0.4-0.3,0.8-0.9,1.2-1.7
			l0.3-0.6l-7-16.1h3.9l5,11.9l5.1-11.9H323.9z"/>
		<path class="st1" d="M344.2,209.3c-0.4,0.4-1,0.6-1.6,0.8s-1.3,0.3-2,0.3c-1.8,0-3.1-0.5-4.1-1.4s-1.4-2.3-1.4-4v-7.7h-2.6v-3h2.6
			v-3.7h3.8v3.7h4.3v3h-4.3v7.6c0,0.8,0.2,1.4,0.6,1.8c0.4,0.4,0.9,0.6,1.7,0.6c0.8,0,1.5-0.2,2.1-0.7L344.2,209.3z"/>
		<path class="st1" d="M349.6,209.3c-1.3-0.7-2.3-1.7-3-2.9c-0.7-1.2-1.1-2.7-1.1-4.2s0.4-3,1.1-4.2c0.7-1.2,1.7-2.2,3-2.9
			c1.3-0.7,2.8-1.1,4.4-1.1c1.6,0,3.1,0.4,4.4,1.1c1.3,0.7,2.3,1.7,3,2.9c0.7,1.2,1.1,2.7,1.1,4.2s-0.4,3-1.1,4.2
			c-0.7,1.3-1.7,2.2-3,2.9c-1.3,0.7-2.8,1-4.4,1C352.3,210.3,350.9,210,349.6,209.3z M357.4,205.7c0.9-0.9,1.3-2.1,1.3-3.6
			s-0.4-2.7-1.3-3.6c-0.9-0.9-2-1.4-3.4-1.4s-2.5,0.5-3.4,1.4c-0.9,0.9-1.3,2.1-1.3,3.6s0.4,2.7,1.3,3.6s2,1.4,3.4,1.4
			S356.5,206.7,357.4,205.7z"/>
		<path class="st1" d="M377.2,209.3c-1.3-0.7-2.4-1.7-3.1-2.9c-0.7-1.2-1.1-2.7-1.1-4.2s0.4-3,1.1-4.2c0.7-1.2,1.8-2.2,3.1-2.9
			c1.3-0.7,2.8-1.1,4.5-1.1c1.6,0,3,0.3,4.2,1c1.2,0.6,2.1,1.6,2.7,2.8l-2.9,1.7c-0.5-0.7-1-1.3-1.7-1.7c-0.7-0.4-1.4-0.6-2.3-0.6
			c-1.4,0-2.6,0.5-3.5,1.4s-1.4,2.1-1.4,3.6s0.5,2.7,1.4,3.6c0.9,0.9,2.1,1.4,3.5,1.4c0.8,0,1.6-0.2,2.3-0.6
			c0.7-0.4,1.3-0.9,1.7-1.7l2.9,1.7c-0.6,1.2-1.5,2.1-2.7,2.8c-1.2,0.7-2.6,1-4.1,1C380,210.3,378.6,210,377.2,209.3z"/>
		<path class="st1" d="M394.4,209.3c-1.3-0.7-2.3-1.7-3-2.9c-0.7-1.2-1.1-2.7-1.1-4.2s0.4-3,1.1-4.2c0.7-1.2,1.7-2.2,3-2.9
			c1.3-0.7,2.8-1.1,4.4-1.1c1.6,0,3.1,0.4,4.4,1.1c1.3,0.7,2.3,1.7,3,2.9c0.7,1.2,1.1,2.7,1.1,4.2s-0.4,3-1.1,4.2
			c-0.7,1.3-1.7,2.2-3,2.9c-1.3,0.7-2.8,1-4.4,1C397.1,210.3,395.7,210,394.4,209.3z M402.2,205.7c0.9-0.9,1.3-2.1,1.3-3.6
			s-0.4-2.7-1.3-3.6c-0.9-0.9-2-1.4-3.4-1.4s-2.5,0.5-3.4,1.4c-0.9,0.9-1.3,2.1-1.3,3.6s0.4,2.7,1.3,3.6s2,1.4,3.4,1.4
			S401.3,206.7,402.2,205.7z"/>
		<path class="st1" d="M424.9,195.7c1.2,1.2,1.8,2.9,1.8,5.2v9.2h-3.8v-8.7c0-1.4-0.3-2.5-1-3.2c-0.7-0.7-1.6-1.1-2.8-1.1
			c-1.4,0-2.5,0.4-3.3,1.2c-0.8,0.8-1.2,2-1.2,3.6v8.1h-3.8v-16h3.6v2.1c0.6-0.7,1.4-1.3,2.3-1.7c0.9-0.4,2-0.6,3.2-0.6
			C422,193.9,423.6,194.5,424.9,195.7z"/>
		<path class="st1" d="M445.4,195.7c1.2,1.2,1.8,2.9,1.8,5.2v9.2h-3.8v-8.7c0-1.4-0.3-2.5-1-3.2c-0.7-0.7-1.6-1.1-2.8-1.1
			c-1.4,0-2.5,0.4-3.3,1.2c-0.8,0.8-1.2,2-1.2,3.6v8.1h-3.8v-16h3.6v2.1c0.6-0.7,1.4-1.3,2.3-1.7c0.9-0.4,2-0.6,3.2-0.6
			C442.6,193.9,444.2,194.5,445.4,195.7z"/>
		<path class="st1" d="M467.1,203.3h-12.6c0.2,1.2,0.8,2.1,1.7,2.8c0.9,0.7,2.1,1,3.5,1c1.8,0,3.2-0.6,4.3-1.7l2,2.3
			c-0.7,0.9-1.6,1.5-2.7,1.9c-1.1,0.4-2.3,0.7-3.7,0.7c-1.8,0-3.3-0.3-4.7-1s-2.4-1.7-3.1-2.9c-0.7-1.2-1.1-2.7-1.1-4.2
			c0-1.6,0.4-3,1.1-4.2c0.7-1.2,1.7-2.2,3-2.9c1.3-0.7,2.7-1.1,4.3-1.1c1.6,0,3,0.3,4.2,1c1.2,0.7,2.2,1.7,2.9,2.9
			c0.7,1.2,1,2.7,1,4.3C467.2,202.5,467.2,202.8,467.1,203.3z M456.1,198c-0.8,0.7-1.3,1.7-1.5,2.8h9.1c-0.2-1.2-0.7-2.1-1.5-2.8
			c-0.8-0.7-1.8-1.1-3.1-1.1C457.9,196.9,456.9,197.3,456.1,198z"/>
		<path class="st1" d="M473.7,209.3c-1.3-0.7-2.4-1.7-3.1-2.9c-0.7-1.2-1.1-2.7-1.1-4.2s0.4-3,1.1-4.2c0.7-1.2,1.8-2.2,3.1-2.9
			c1.3-0.7,2.8-1.1,4.5-1.1c1.6,0,3,0.3,4.2,1c1.2,0.6,2.1,1.6,2.7,2.8l-2.9,1.7c-0.5-0.7-1-1.3-1.7-1.7c-0.7-0.4-1.4-0.6-2.3-0.6
			c-1.4,0-2.6,0.5-3.5,1.4s-1.4,2.1-1.4,3.6s0.5,2.7,1.4,3.6c0.9,0.9,2.1,1.4,3.5,1.4c0.8,0,1.6-0.2,2.3-0.6
			c0.7-0.4,1.3-0.9,1.7-1.7l2.9,1.7c-0.6,1.2-1.5,2.1-2.7,2.8c-1.2,0.7-2.6,1-4.1,1C476.5,210.3,475,210,473.7,209.3z"/>
		<path class="st1" d="M498.1,209.3c-0.4,0.4-1,0.6-1.6,0.8s-1.3,0.3-2,0.3c-1.8,0-3.1-0.5-4.1-1.4s-1.4-2.3-1.4-4v-7.7h-2.6v-3h2.6
			v-3.7h3.8v3.7h4.3v3h-4.3v7.6c0,0.8,0.2,1.4,0.6,1.8c0.4,0.4,0.9,0.6,1.7,0.6c0.8,0,1.5-0.2,2.1-0.7L498.1,209.3z"/>
		<path class="st1" d="M534.4,194.1l-5.9,16h-3.6l-4.1-11l-4.2,11H513l-5.9-16h3.5l4.2,11.8l4.4-11.8h3.2l4.3,11.9l4.4-11.9H534.4z"
			/>
		<path class="st1" d="M537.2,190.8c-0.5-0.4-0.7-1-0.7-1.6c0-0.6,0.2-1.2,0.7-1.6c0.5-0.4,1-0.6,1.7-0.6s1.2,0.2,1.7,0.6
			c0.5,0.4,0.7,0.9,0.7,1.5c0,0.7-0.2,1.2-0.7,1.7s-1,0.7-1.7,0.7C538.2,191.5,537.7,191.3,537.2,190.8z M537,194.1h3.8v16H537
			V194.1z"/>
		<path class="st1" d="M555.3,209.3c-0.4,0.4-1,0.6-1.6,0.8s-1.3,0.3-2,0.3c-1.8,0-3.1-0.5-4.1-1.4s-1.4-2.3-1.4-4v-7.7h-2.6v-3h2.6
			v-3.7h3.8v3.7h4.3v3h-4.3v7.6c0,0.8,0.2,1.4,0.6,1.8c0.4,0.4,0.9,0.6,1.7,0.6c0.8,0,1.5-0.2,2.1-0.7L555.3,209.3z"/>
		<path class="st1" d="M572.4,195.7c1.2,1.2,1.8,2.9,1.8,5.2v9.2h-3.8v-8.7c0-1.4-0.3-2.5-1-3.2c-0.7-0.7-1.6-1.1-2.8-1.1
			c-1.4,0-2.5,0.4-3.3,1.2c-0.8,0.8-1.2,2-1.2,3.6v8.1h-3.8v-22.3h3.8v8.1c0.6-0.7,1.4-1.2,2.3-1.5s1.9-0.5,3-0.5
			C569.5,193.9,571.1,194.5,572.4,195.7z"/>
		<path class="st1" d="M52,230.1l-7.5,17.3c-0.7,1.7-1.6,3-2.5,3.7c-1,0.7-2.2,1.1-3.6,1.1c-0.8,0-1.6-0.1-2.4-0.4
			c-0.8-0.3-1.4-0.6-1.9-1.1l1.5-2.8c0.4,0.3,0.8,0.6,1.3,0.8c0.5,0.2,1,0.3,1.5,0.3c0.7,0,1.2-0.2,1.6-0.5c0.4-0.3,0.8-0.9,1.2-1.7
			l0.3-0.6l-7-16.1h3.9l5,11.9l5.1-11.9H52z"/>
		<path class="st1" d="M56.7,245.3c-1.3-0.7-2.3-1.7-3-2.9c-0.7-1.2-1.1-2.7-1.1-4.2s0.4-3,1.1-4.2c0.7-1.2,1.7-2.2,3-2.9
			c1.3-0.7,2.8-1.1,4.4-1.1c1.6,0,3.1,0.4,4.4,1.1c1.3,0.7,2.3,1.7,3,2.9c0.7,1.2,1.1,2.7,1.1,4.2s-0.4,3-1.1,4.2
			c-0.7,1.3-1.7,2.2-3,2.9c-1.3,0.7-2.8,1-4.4,1C59.4,246.3,58,246,56.7,245.3z M64.5,241.7c0.9-0.9,1.4-2.1,1.4-3.6
			s-0.5-2.7-1.4-3.6c-0.9-0.9-2-1.4-3.4-1.4c-1.4,0-2.5,0.5-3.4,1.4c-0.9,0.9-1.3,2.1-1.3,3.6s0.4,2.7,1.3,3.6
			c0.9,0.9,2,1.4,3.4,1.4C62.4,243.1,63.6,242.7,64.5,241.7z"/>
		<path class="st1" d="M88.7,230.1v16h-3.6v-2c-0.6,0.7-1.4,1.3-2.2,1.7s-1.9,0.6-2.9,0.6c-2.1,0-3.8-0.6-5.1-1.8
			c-1.2-1.2-1.8-3-1.8-5.3v-9.1h3.8v8.6c0,1.4,0.3,2.5,1,3.2s1.6,1.1,2.8,1.1c1.3,0,2.4-0.4,3.2-1.2c0.8-0.8,1.2-2,1.2-3.6v-8.1
			H88.7z"/>
		<path class="st1" d="M102.9,229.9v3.6c-0.3-0.1-0.6-0.1-0.9-0.1c-1.5,0-2.6,0.4-3.4,1.3c-0.8,0.9-1.2,2.1-1.2,3.7v7.8h-3.8v-16
			h3.6v2.3C98.3,230.8,100.2,229.9,102.9,229.9z"/>
		<path class="st1" d="M124.1,245.3c-0.4,0.4-1,0.6-1.6,0.8c-0.6,0.2-1.3,0.3-2,0.3c-1.8,0-3.1-0.5-4.1-1.4s-1.4-2.3-1.4-4v-7.7
			h-2.6v-3h2.6v-3.7h3.8v3.7h4.3v3h-4.3v7.6c0,0.8,0.2,1.4,0.6,1.8c0.4,0.4,0.9,0.6,1.6,0.6c0.8,0,1.5-0.2,2.1-0.7L124.1,245.3z"/>
		<path class="st1" d="M138.8,231.6c1.2,1.1,1.9,2.8,1.9,5.1v9.4h-3.5v-2c-0.5,0.7-1.1,1.2-2,1.6c-0.9,0.4-1.9,0.6-3.1,0.6
			s-2.2-0.2-3.1-0.6s-1.6-1-2.1-1.7c-0.5-0.7-0.7-1.6-0.7-2.5c0-1.4,0.5-2.6,1.6-3.5c1.1-0.9,2.8-1.3,5.1-1.3h4.1v-0.2
			c0-1.1-0.3-2-1-2.6c-0.7-0.6-1.7-0.9-3-0.9c-0.9,0-1.8,0.1-2.7,0.4c-0.9,0.3-1.6,0.7-2.2,1.2l-1.5-2.7c0.8-0.6,1.9-1.1,3-1.5
			c1.2-0.3,2.4-0.5,3.8-0.5C135.7,229.9,137.5,230.5,138.8,231.6z M135.3,243c0.7-0.4,1.2-1,1.5-1.8v-1.9H133
			c-2.2,0-3.2,0.7-3.2,2.1c0,0.7,0.3,1.2,0.8,1.6c0.5,0.4,1.3,0.6,2.2,0.6C133.8,243.6,134.6,243.4,135.3,243z"/>
		<path class="st1" d="M154.7,229.9v3.6c-0.3-0.1-0.6-0.1-0.9-0.1c-1.5,0-2.6,0.4-3.4,1.3c-0.8,0.9-1.2,2.1-1.2,3.7v7.8h-3.8v-16
			h3.6v2.3C150.1,230.8,152,229.9,154.7,229.9z"/>
		<path class="st1" d="M173.6,230.1v13.6c0,5.6-2.9,8.5-8.6,8.5c-1.5,0-3-0.2-4.4-0.6c-1.4-0.4-2.5-1-3.4-1.7l1.7-2.8
			c0.7,0.6,1.6,1,2.7,1.4c1.1,0.3,2.2,0.5,3.3,0.5c1.8,0,3-0.4,3.9-1.2c0.8-0.8,1.2-2,1.2-3.7v-0.8c-0.6,0.7-1.4,1.2-2.3,1.6
			c-0.9,0.4-1.9,0.5-3,0.5c-1.5,0-2.9-0.3-4.1-1c-1.2-0.6-2.2-1.6-2.9-2.7c-0.7-1.2-1.1-2.5-1.1-4.1c0-1.5,0.4-2.9,1.1-4
			c0.7-1.2,1.7-2.1,2.9-2.7c1.2-0.6,2.6-1,4.1-1c1.2,0,2.2,0.2,3.2,0.6s1.7,1,2.4,1.7v-2.1H173.6z M168.6,241c0.9-0.9,1.4-2,1.4-3.3
			c0-1.3-0.5-2.4-1.4-3.3c-0.9-0.8-2.1-1.3-3.5-1.3c-1.4,0-2.6,0.4-3.5,1.3c-0.9,0.8-1.4,1.9-1.4,3.3c0,1.4,0.5,2.5,1.4,3.3
			c0.9,0.9,2.1,1.3,3.5,1.3C166.5,242.2,167.7,241.8,168.6,241z"/>
		<path class="st1" d="M193.6,239.3H181c0.2,1.2,0.8,2.1,1.7,2.8c0.9,0.7,2.1,1,3.5,1c1.8,0,3.2-0.6,4.4-1.7l2,2.3
			c-0.7,0.9-1.6,1.5-2.7,1.9c-1.1,0.4-2.3,0.7-3.7,0.7c-1.8,0-3.3-0.3-4.7-1s-2.4-1.7-3.1-2.9c-0.7-1.2-1.1-2.7-1.1-4.2
			c0-1.6,0.4-3,1.1-4.2c0.7-1.2,1.7-2.2,3-2.9c1.3-0.7,2.7-1.1,4.3-1.1c1.6,0,3,0.3,4.2,1s2.2,1.7,2.9,2.9s1,2.7,1,4.3
			C193.6,238.5,193.6,238.8,193.6,239.3z M182.5,234c-0.8,0.7-1.3,1.7-1.5,2.8h9.1c-0.2-1.2-0.7-2.1-1.5-2.8
			c-0.8-0.7-1.8-1.1-3.1-1.1C184.3,232.9,183.3,233.3,182.5,234z"/>
		<path class="st1" d="M206.8,245.3c-0.4,0.4-1,0.6-1.6,0.8c-0.6,0.2-1.3,0.3-2,0.3c-1.8,0-3.1-0.5-4.1-1.4s-1.4-2.3-1.4-4v-7.7
			h-2.6v-3h2.6v-3.7h3.8v3.7h4.3v3h-4.3v7.6c0,0.8,0.2,1.4,0.6,1.8c0.4,0.4,0.9,0.6,1.6,0.6c0.8,0,1.5-0.2,2.1-0.7L206.8,245.3z"/>
		<path class="st1" d="M229.8,231.6c1.2,1.1,1.9,2.8,1.9,5.1v9.4h-3.5v-2c-0.5,0.7-1.1,1.2-2,1.6c-0.9,0.4-1.9,0.6-3.1,0.6
			s-2.2-0.2-3.1-0.6s-1.6-1-2.1-1.7c-0.5-0.7-0.7-1.6-0.7-2.5c0-1.4,0.5-2.6,1.6-3.5c1.1-0.9,2.8-1.3,5.1-1.3h4.1v-0.2
			c0-1.1-0.3-2-1-2.6c-0.7-0.6-1.7-0.9-3-0.9c-0.9,0-1.8,0.1-2.7,0.4c-0.9,0.3-1.6,0.7-2.2,1.2l-1.5-2.7c0.8-0.6,1.9-1.1,3-1.5
			c1.2-0.3,2.4-0.5,3.8-0.5C226.7,229.9,228.5,230.5,229.8,231.6z M226.3,243c0.7-0.4,1.2-1,1.5-1.8v-1.9H224
			c-2.2,0-3.2,0.7-3.2,2.1c0,0.7,0.3,1.2,0.8,1.6c0.5,0.4,1.3,0.6,2.2,0.6C224.8,243.6,225.6,243.4,226.3,243z"/>
		<path class="st1" d="M251.9,230.1v16h-3.6v-2c-0.6,0.7-1.4,1.3-2.2,1.7s-1.9,0.6-2.9,0.6c-2.1,0-3.8-0.6-5.1-1.8
			c-1.2-1.2-1.8-3-1.8-5.3v-9.1h3.8v8.6c0,1.4,0.3,2.5,1,3.2s1.6,1.1,2.8,1.1c1.3,0,2.4-0.4,3.2-1.2c0.8-0.8,1.2-2,1.2-3.6v-8.1
			H251.9z"/>
		<path class="st1" d="M272.5,223.9v22.3h-3.6v-2.1c-0.6,0.8-1.4,1.3-2.3,1.7c-0.9,0.4-1.9,0.6-3,0.6c-1.5,0-2.9-0.3-4.2-1
			c-1.2-0.7-2.2-1.6-2.9-2.9c-0.7-1.2-1-2.7-1-4.3c0-1.6,0.3-3,1-4.3c0.7-1.2,1.7-2.2,2.9-2.9c1.2-0.7,2.6-1,4.2-1
			c1.1,0,2,0.2,2.9,0.5c0.9,0.4,1.6,0.9,2.2,1.6v-8.2H272.5z M266.5,242.5c0.7-0.4,1.3-1,1.7-1.8c0.4-0.8,0.6-1.6,0.6-2.6
			s-0.2-1.9-0.6-2.6c-0.4-0.8-1-1.3-1.7-1.8c-0.7-0.4-1.5-0.6-2.4-0.6s-1.7,0.2-2.4,0.6c-0.7,0.4-1.3,1-1.7,1.8
			c-0.4,0.8-0.6,1.6-0.6,2.6s0.2,1.9,0.6,2.6c0.4,0.8,1,1.3,1.7,1.8c0.7,0.4,1.5,0.6,2.4,0.6S265.8,242.9,266.5,242.5z"/>
		<path class="st1" d="M277.6,226.8c-0.5-0.4-0.7-1-0.7-1.6c0-0.6,0.2-1.2,0.7-1.6c0.5-0.4,1-0.6,1.7-0.6c0.7,0,1.2,0.2,1.7,0.6
			c0.5,0.4,0.7,0.9,0.7,1.5c0,0.7-0.2,1.2-0.7,1.7c-0.5,0.5-1,0.7-1.7,0.7C278.7,227.5,278.1,227.3,277.6,226.8z M277.5,230.1h3.8
			v16h-3.8V230.1z"/>
		<path class="st1" d="M301.1,239.3h-12.6c0.2,1.2,0.8,2.1,1.7,2.8c0.9,0.7,2.1,1,3.5,1c1.8,0,3.2-0.6,4.4-1.7l2,2.3
			c-0.7,0.9-1.6,1.5-2.7,1.9c-1.1,0.4-2.3,0.7-3.7,0.7c-1.8,0-3.3-0.3-4.7-1s-2.4-1.7-3.1-2.9c-0.7-1.2-1.1-2.7-1.1-4.2
			c0-1.6,0.4-3,1.1-4.2c0.7-1.2,1.7-2.2,3-2.9c1.3-0.7,2.7-1.1,4.3-1.1c1.6,0,3,0.3,4.2,1s2.2,1.7,2.9,2.9s1,2.7,1,4.3
			C301.2,238.5,301.2,238.8,301.1,239.3z M290.1,234c-0.8,0.7-1.3,1.7-1.5,2.8h9.1c-0.2-1.2-0.7-2.1-1.5-2.8
			c-0.8-0.7-1.8-1.1-3.1-1.1C291.9,232.9,290.9,233.3,290.1,234z"/>
		<path class="st1" d="M318.7,231.7c1.2,1.2,1.8,2.9,1.8,5.2v9.2h-3.7v-8.7c0-1.4-0.3-2.5-1-3.2c-0.7-0.7-1.6-1.1-2.8-1.1
			c-1.4,0-2.5,0.4-3.3,1.2c-0.8,0.8-1.2,2-1.2,3.6v8.1h-3.8v-16h3.6v2.1c0.6-0.7,1.4-1.3,2.3-1.7c0.9-0.4,2-0.6,3.2-0.6
			C315.9,229.9,317.5,230.5,318.7,231.7z"/>
		<path class="st1" d="M328.4,245.3c-1.3-0.7-2.4-1.7-3.1-2.9c-0.7-1.2-1.1-2.7-1.1-4.2s0.4-3,1.1-4.2c0.7-1.2,1.8-2.2,3.1-2.9
			c1.3-0.7,2.8-1.1,4.5-1.1c1.6,0,3,0.3,4.2,1c1.2,0.6,2.1,1.6,2.7,2.8l-2.9,1.7c-0.5-0.7-1-1.3-1.7-1.7c-0.7-0.4-1.4-0.6-2.3-0.6
			c-1.4,0-2.6,0.5-3.5,1.4s-1.4,2.1-1.4,3.6s0.5,2.7,1.4,3.6c0.9,0.9,2.1,1.4,3.5,1.4c0.8,0,1.6-0.2,2.3-0.6
			c0.7-0.4,1.3-0.9,1.7-1.7l2.9,1.7c-0.6,1.2-1.5,2.1-2.7,2.8c-1.2,0.7-2.6,1-4.1,1C331.2,246.3,329.7,246,328.4,245.3z"/>
		<path class="st1" d="M357.7,239.3h-12.6c0.2,1.2,0.8,2.1,1.7,2.8c0.9,0.7,2.1,1,3.5,1c1.8,0,3.2-0.6,4.3-1.7l2,2.3
			c-0.7,0.9-1.6,1.5-2.7,1.9c-1.1,0.4-2.3,0.7-3.7,0.7c-1.8,0-3.3-0.3-4.7-1s-2.4-1.7-3.1-2.9c-0.7-1.2-1.1-2.7-1.1-4.2
			c0-1.6,0.4-3,1.1-4.2c0.7-1.2,1.7-2.2,3-2.9c1.3-0.7,2.7-1.1,4.3-1.1c1.6,0,3,0.3,4.2,1c1.2,0.7,2.2,1.7,2.9,2.9
			c0.7,1.2,1,2.7,1,4.3C357.7,238.5,357.7,238.8,357.7,239.3z M346.6,234c-0.8,0.7-1.3,1.7-1.5,2.8h9.1c-0.2-1.2-0.7-2.1-1.5-2.8
			c-0.8-0.7-1.8-1.1-3.1-1.1C348.4,232.9,347.4,233.3,346.6,234z"/>
		<path class="st1" d="M360.8,245.6c-0.5-0.5-0.7-1.1-0.7-1.8c0-0.7,0.2-1.3,0.7-1.8c0.5-0.5,1.1-0.7,1.8-0.7c0.7,0,1.3,0.2,1.8,0.7
			c0.5,0.5,0.7,1.1,0.7,1.8c0,0.7-0.2,1.3-0.7,1.8c-0.5,0.5-1.1,0.7-1.7,0.7C361.9,246.3,361.3,246.1,360.8,245.6z"/>
		<path d="M35.8,351.8c-0.3-0.3-0.5-0.7-0.5-1.2c0-0.5,0.2-0.9,0.5-1.2c0.3-0.3,0.7-0.5,1.2-0.5s0.9,0.2,1.2,0.5s0.5,0.7,0.5,1.2
			c0,0.5-0.2,0.9-0.5,1.2c-0.3,0.3-0.7,0.5-1.2,0.5C36.5,352.3,36.1,352.1,35.8,351.8z"/>
		<path d="M46.8,338.1h2.6v11.8h7.3v2.2h-9.9V338.1z"/>
		<path d="M60.3,351.6c-0.9-0.5-1.5-1.1-2-2c-0.5-0.8-0.7-1.8-0.7-2.8s0.2-2,0.7-2.8c0.5-0.8,1.2-1.5,2-1.9s1.8-0.7,2.9-0.7
			c1.1,0,2.1,0.2,2.9,0.7s1.5,1.1,2,1.9c0.5,0.8,0.7,1.8,0.7,2.8s-0.2,2-0.7,2.8c-0.5,0.8-1.2,1.5-2,2s-1.8,0.7-2.9,0.7
			C62.1,352.3,61.2,352,60.3,351.6z M65.5,349.2c0.6-0.6,0.9-1.4,0.9-2.4s-0.3-1.8-0.9-2.4c-0.6-0.6-1.4-0.9-2.3-0.9
			s-1.7,0.3-2.3,0.9s-0.9,1.4-0.9,2.4s0.3,1.8,0.9,2.4s1.4,0.9,2.3,0.9S64.9,349.8,65.5,349.2z"/>
		<path d="M81.9,341.4v9.1c0,3.8-1.9,5.6-5.8,5.6c-1,0-2-0.1-2.9-0.4s-1.7-0.6-2.3-1.1l1.1-1.9c0.5,0.4,1.1,0.7,1.8,0.9
			s1.4,0.4,2.2,0.4c1.2,0,2-0.3,2.6-0.8s0.8-1.3,0.8-2.4v-0.6c-0.4,0.5-0.9,0.8-1.6,1.1c-0.6,0.2-1.3,0.4-2,0.4
			c-1,0-1.9-0.2-2.8-0.6c-0.8-0.4-1.5-1-1.9-1.8c-0.5-0.8-0.7-1.7-0.7-2.7c0-1,0.2-1.9,0.7-2.7c0.5-0.8,1.1-1.4,1.9-1.8
			c0.8-0.4,1.7-0.6,2.8-0.6c0.8,0,1.5,0.1,2.1,0.4s1.2,0.6,1.6,1.2v-1.4H81.9z M78.5,348.7c0.6-0.6,0.9-1.3,0.9-2.2
			c0-0.9-0.3-1.6-0.9-2.2c-0.6-0.6-1.4-0.8-2.3-0.8c-1,0-1.7,0.3-2.4,0.8c-0.6,0.6-0.9,1.3-0.9,2.2c0,0.9,0.3,1.6,0.9,2.2
			c0.6,0.6,1.4,0.9,2.4,0.9C77.2,349.5,77.9,349.2,78.5,348.7z"/>
		<path d="M87.1,351.6c-0.9-0.5-1.5-1.1-2-2c-0.5-0.8-0.7-1.8-0.7-2.8s0.2-2,0.7-2.8c0.5-0.8,1.2-1.5,2-1.9s1.8-0.7,2.9-0.7
			c1.1,0,2.1,0.2,2.9,0.7s1.5,1.1,2,1.9c0.5,0.8,0.7,1.8,0.7,2.8s-0.2,2-0.7,2.8c-0.5,0.8-1.2,1.5-2,2s-1.8,0.7-2.9,0.7
			C88.9,352.3,87.9,352,87.1,351.6z M92.3,349.2c0.6-0.6,0.9-1.4,0.9-2.4s-0.3-1.8-0.9-2.4c-0.6-0.6-1.4-0.9-2.3-0.9
			s-1.7,0.3-2.3,0.9s-0.9,1.4-0.9,2.4s0.3,1.8,0.9,2.4s1.4,0.9,2.3,0.9S91.7,349.8,92.3,349.2z"/>
		<path d="M105.5,351.6c-0.9-0.5-1.6-1.1-2.1-2c-0.5-0.8-0.7-1.8-0.7-2.8s0.2-2,0.7-2.8c0.5-0.8,1.2-1.5,2-1.9
			c0.9-0.5,1.9-0.7,3-0.7c1.1,0,2,0.2,2.8,0.6c0.8,0.4,1.4,1,1.8,1.8l-1.9,1.1c-0.3-0.5-0.7-0.9-1.2-1.1c-0.5-0.2-1-0.4-1.5-0.4
			c-0.9,0-1.7,0.3-2.3,0.9c-0.6,0.6-0.9,1.4-0.9,2.4s0.3,1.8,0.9,2.4c0.6,0.6,1.4,0.9,2.3,0.9c0.5,0,1-0.1,1.5-0.4
			c0.5-0.2,0.8-0.6,1.2-1.1l1.9,1.1c-0.4,0.8-1,1.4-1.8,1.9c-0.8,0.4-1.7,0.6-2.8,0.6C107.4,352.3,106.4,352,105.5,351.6z"/>
		<path d="M121.4,341.3v2.4c-0.2,0-0.4-0.1-0.6-0.1c-1,0-1.7,0.3-2.3,0.9c-0.5,0.6-0.8,1.4-0.8,2.5v5.2h-2.5v-10.7h2.4v1.6
			C118.3,341.9,119.6,341.3,121.4,341.3z"/>
		<path d="M133.4,347.6h-8.4c0.1,0.8,0.5,1.4,1.2,1.9c0.6,0.5,1.4,0.7,2.3,0.7c1.2,0,2.1-0.4,2.9-1.2l1.3,1.5
			c-0.5,0.6-1.1,1-1.8,1.3c-0.7,0.3-1.6,0.4-2.5,0.4c-1.2,0-2.2-0.2-3.1-0.7c-0.9-0.5-1.6-1.1-2.1-2c-0.5-0.8-0.7-1.8-0.7-2.8
			c0-1,0.2-2,0.7-2.8c0.5-0.8,1.1-1.5,2-1.9s1.8-0.7,2.8-0.7c1,0,2,0.2,2.8,0.7c0.8,0.5,1.5,1.1,1.9,1.9c0.5,0.8,0.7,1.8,0.7,2.9
			C133.5,347,133.5,347.3,133.4,347.6z M126,344c-0.6,0.5-0.9,1.1-1,1.9h6.1c-0.1-0.8-0.4-1.4-1-1.9c-0.5-0.5-1.2-0.7-2-0.7
			C127.3,343.3,126.6,343.6,126,344z"/>
		<path d="M143.3,342.5c0.8,0.8,1.2,1.9,1.2,3.4v6.3h-2.4v-1.3c-0.3,0.5-0.7,0.8-1.3,1.1c-0.6,0.2-1.2,0.4-2.1,0.4
			c-0.8,0-1.5-0.1-2.1-0.4c-0.6-0.3-1.1-0.7-1.4-1.1c-0.3-0.5-0.5-1-0.5-1.6c0-1,0.4-1.7,1.1-2.3c0.7-0.6,1.8-0.9,3.4-0.9h2.8v-0.2
			c0-0.7-0.2-1.3-0.7-1.7c-0.4-0.4-1.1-0.6-2-0.6c-0.6,0-1.2,0.1-1.8,0.3c-0.6,0.2-1.1,0.4-1.5,0.8l-1-1.8c0.6-0.4,1.2-0.8,2-1
			c0.8-0.2,1.6-0.3,2.5-0.3C141.2,341.3,142.4,341.7,143.3,342.5z M141,350c0.5-0.3,0.8-0.7,1-1.2v-1.2h-2.6c-1.4,0-2.2,0.5-2.2,1.4
			c0,0.5,0.2,0.8,0.5,1.1c0.4,0.3,0.9,0.4,1.5,0.4C139.9,350.4,140.5,350.3,141,350z"/>
		<path d="M154.1,351.5c-0.3,0.2-0.6,0.4-1.1,0.5c-0.4,0.1-0.9,0.2-1.3,0.2c-1.2,0-2.1-0.3-2.7-0.9s-1-1.5-1-2.7v-5.1h-1.8v-2h1.8
			v-2.4h2.5v2.4h2.9v2h-2.9v5.1c0,0.5,0.1,0.9,0.4,1.2s0.6,0.4,1.1,0.4c0.6,0,1-0.1,1.4-0.4L154.1,351.5z"/>
		<path d="M156.3,339.3c-0.3-0.3-0.5-0.6-0.5-1.1c0-0.4,0.2-0.8,0.5-1.1s0.7-0.4,1.1-0.4s0.8,0.1,1.1,0.4c0.3,0.3,0.5,0.6,0.5,1
			c0,0.4-0.1,0.8-0.5,1.1c-0.3,0.3-0.7,0.4-1.1,0.4C157,339.7,156.6,339.5,156.3,339.3z M156.2,341.4h2.5v10.7h-2.5V341.4z"/>
		<path d="M163.9,351.6c-0.9-0.5-1.5-1.1-2-2c-0.5-0.8-0.7-1.8-0.7-2.8s0.2-2,0.7-2.8c0.5-0.8,1.2-1.5,2-1.9s1.8-0.7,2.9-0.7
			c1.1,0,2.1,0.2,2.9,0.7s1.5,1.1,2,1.9c0.5,0.8,0.7,1.8,0.7,2.8s-0.2,2-0.7,2.8c-0.5,0.8-1.2,1.5-2,2s-1.8,0.7-2.9,0.7
			C165.7,352.3,164.7,352,163.9,351.6z M169.1,349.2c0.6-0.6,0.9-1.4,0.9-2.4s-0.3-1.8-0.9-2.4c-0.6-0.6-1.4-0.9-2.3-0.9
			s-1.7,0.3-2.3,0.9s-0.9,1.4-0.9,2.4s0.3,1.8,0.9,2.4s1.4,0.9,2.3,0.9S168.5,349.8,169.1,349.2z"/>
		<path d="M184.2,342.5c0.8,0.8,1.2,2,1.2,3.5v6.1h-2.5v-5.8c0-0.9-0.2-1.6-0.7-2.1c-0.4-0.5-1.1-0.7-1.9-0.7
			c-0.9,0-1.6,0.3-2.2,0.8c-0.5,0.6-0.8,1.3-0.8,2.4v5.4h-2.5v-10.7h2.4v1.4c0.4-0.5,0.9-0.9,1.6-1.1c0.6-0.3,1.3-0.4,2.1-0.4
			C182.3,341.3,183.4,341.7,184.2,342.5z"/>
		<path d="M35.8,385.8c-0.3-0.3-0.5-0.7-0.5-1.2c0-0.5,0.2-0.9,0.5-1.2c0.3-0.3,0.7-0.5,1.2-0.5s0.9,0.2,1.2,0.5s0.5,0.7,0.5,1.2
			c0,0.5-0.2,0.9-0.5,1.2c-0.3,0.3-0.7,0.5-1.2,0.5C36.5,386.3,36.1,386.1,35.8,385.8z"/>
		<path d="M49.4,385.4c-1.1-0.6-2-1.5-2.7-2.6c-0.6-1.1-1-2.3-1-3.7s0.3-2.6,1-3.7c0.7-1.1,1.6-2,2.7-2.6c1.1-0.6,2.4-0.9,3.8-0.9
			c1.1,0,2.2,0.2,3.1,0.6c0.9,0.4,1.7,1,2.4,1.7l-1.7,1.6c-1-1.1-2.3-1.6-3.7-1.6c-1,0-1.8,0.2-2.6,0.6c-0.8,0.4-1.4,1-1.8,1.8
			c-0.4,0.7-0.6,1.6-0.6,2.5c0,0.9,0.2,1.8,0.6,2.5c0.4,0.7,1,1.3,1.8,1.8c0.8,0.4,1.6,0.6,2.6,0.6c1.5,0,2.7-0.6,3.7-1.7l1.7,1.6
			c-0.7,0.8-1.5,1.3-2.4,1.7c-1,0.4-2,0.6-3.1,0.6C51.8,386.3,50.6,386,49.4,385.4z"/>
		<path d="M62.6,385.6c-0.9-0.5-1.5-1.1-2-2c-0.5-0.8-0.7-1.8-0.7-2.8s0.2-2,0.7-2.8c0.5-0.8,1.2-1.5,2-1.9s1.8-0.7,2.9-0.7
			c1.1,0,2.1,0.2,2.9,0.7s1.5,1.1,2,1.9c0.5,0.8,0.7,1.8,0.7,2.8s-0.2,2-0.7,2.8c-0.5,0.8-1.2,1.5-2,2s-1.8,0.7-2.9,0.7
			C64.4,386.3,63.4,386,62.6,385.6z M67.8,383.2c0.6-0.6,0.9-1.4,0.9-2.4s-0.3-1.8-0.9-2.4c-0.6-0.6-1.4-0.9-2.3-0.9
			s-1.7,0.3-2.3,0.9s-0.9,1.4-0.9,2.4s0.3,1.8,0.9,2.4s1.4,0.9,2.3,0.9S67.2,383.8,67.8,383.2z"/>
		<path d="M79.8,375.3v2.4c-0.2,0-0.4-0.1-0.6-0.1c-1,0-1.7,0.3-2.3,0.9c-0.5,0.6-0.8,1.4-0.8,2.5v5.2h-2.5v-10.7H76v1.6
			C76.7,375.9,77.9,375.3,79.8,375.3z"/>
		<path d="M90.6,376c0.8,0.5,1.5,1.1,1.9,1.9c0.5,0.8,0.7,1.8,0.7,2.9s-0.2,2-0.7,2.9s-1.1,1.5-1.9,1.9c-0.8,0.5-1.8,0.7-2.8,0.7
			c-1.4,0-2.6-0.5-3.4-1.4v5.2h-2.5v-14.6h2.4v1.4c0.4-0.5,0.9-0.9,1.5-1.1c0.6-0.3,1.3-0.4,2-0.4C88.8,375.3,89.8,375.6,90.6,376z
			 M89.8,383.2c0.6-0.6,0.9-1.4,0.9-2.4s-0.3-1.8-0.9-2.4s-1.3-0.9-2.3-0.9c-0.6,0-1.1,0.1-1.6,0.4s-0.9,0.7-1.1,1.2
			s-0.4,1.1-0.4,1.8s0.1,1.3,0.4,1.8s0.7,0.9,1.1,1.2s1,0.4,1.6,0.4C88.4,384.1,89.2,383.8,89.8,383.2z"/>
		<path d="M97.5,385.6c-0.9-0.5-1.5-1.1-2-2c-0.5-0.8-0.7-1.8-0.7-2.8s0.2-2,0.7-2.8c0.5-0.8,1.2-1.5,2-1.9s1.8-0.7,2.9-0.7
			c1.1,0,2.1,0.2,2.9,0.7s1.5,1.1,2,1.9c0.5,0.8,0.7,1.8,0.7,2.8s-0.2,2-0.7,2.8c-0.5,0.8-1.2,1.5-2,2s-1.8,0.7-2.9,0.7
			C99.3,386.3,98.3,386,97.5,385.6z M102.7,383.2c0.6-0.6,0.9-1.4,0.9-2.4s-0.3-1.8-0.9-2.4c-0.6-0.6-1.4-0.9-2.3-0.9
			s-1.7,0.3-2.3,0.9s-0.9,1.4-0.9,2.4s0.3,1.8,0.9,2.4s1.4,0.9,2.3,0.9S102.1,383.8,102.7,383.2z"/>
		<path d="M114.7,375.3v2.4c-0.2,0-0.4-0.1-0.6-0.1c-1,0-1.7,0.3-2.3,0.9c-0.5,0.6-0.8,1.4-0.8,2.5v5.2h-2.5v-10.7h2.4v1.6
			C111.6,375.9,112.9,375.3,114.7,375.3z"/>
		<path d="M124.4,376.5c0.8,0.8,1.2,1.9,1.2,3.4v6.3h-2.4v-1.3c-0.3,0.5-0.7,0.8-1.3,1.1c-0.6,0.2-1.2,0.4-2.1,0.4
			c-0.8,0-1.5-0.1-2.1-0.4c-0.6-0.3-1.1-0.7-1.4-1.1c-0.3-0.5-0.5-1-0.5-1.6c0-1,0.4-1.7,1.1-2.3c0.7-0.6,1.8-0.9,3.4-0.9h2.8v-0.2
			c0-0.7-0.2-1.3-0.7-1.7c-0.4-0.4-1.1-0.6-2-0.6c-0.6,0-1.2,0.1-1.8,0.3c-0.6,0.2-1.1,0.4-1.5,0.8l-1-1.8c0.6-0.4,1.2-0.8,2-1
			c0.8-0.2,1.6-0.3,2.5-0.3C122.4,375.3,123.6,375.7,124.4,376.5z M122.1,384c0.5-0.3,0.8-0.7,1-1.2v-1.2h-2.6
			c-1.4,0-2.2,0.5-2.2,1.4c0,0.5,0.2,0.8,0.5,1.1c0.4,0.3,0.9,0.4,1.5,0.4C121.1,384.4,121.7,384.3,122.1,384z"/>
		<path d="M135.3,385.5c-0.3,0.2-0.6,0.4-1.1,0.5c-0.4,0.1-0.9,0.2-1.3,0.2c-1.2,0-2.1-0.3-2.7-0.9s-1-1.5-1-2.7v-5.1h-1.8v-2h1.8
			v-2.4h2.5v2.4h2.9v2h-2.9v5.1c0,0.5,0.1,0.9,0.4,1.2s0.6,0.4,1.1,0.4c0.6,0,1-0.1,1.4-0.4L135.3,385.5z"/>
		<path d="M147,381.6h-8.4c0.1,0.8,0.5,1.4,1.2,1.9c0.6,0.5,1.4,0.7,2.3,0.7c1.2,0,2.1-0.4,2.9-1.2l1.3,1.5c-0.5,0.6-1.1,1-1.8,1.3
			c-0.7,0.3-1.6,0.4-2.5,0.4c-1.2,0-2.2-0.2-3.1-0.7c-0.9-0.5-1.6-1.1-2.1-2c-0.5-0.8-0.7-1.8-0.7-2.8c0-1,0.2-2,0.7-2.8
			c0.5-0.8,1.1-1.5,2-1.9s1.8-0.7,2.8-0.7c1,0,2,0.2,2.8,0.7c0.8,0.5,1.5,1.1,1.9,1.9c0.5,0.8,0.7,1.8,0.7,2.9
			C147,381,147,381.3,147,381.6z M139.6,378c-0.6,0.5-0.9,1.1-1,1.9h6.1c-0.1-0.8-0.4-1.4-1-1.9c-0.5-0.5-1.2-0.7-2-0.7
			C140.8,377.3,140.2,377.6,139.6,378z"/>
		<path d="M155.1,373.3c-0.3-0.3-0.5-0.6-0.5-1.1c0-0.4,0.2-0.8,0.5-1.1s0.7-0.4,1.1-0.4s0.8,0.1,1.1,0.4c0.3,0.3,0.5,0.6,0.5,1
			c0,0.4-0.1,0.8-0.5,1.1c-0.3,0.3-0.7,0.4-1.1,0.4C155.8,373.7,155.4,373.5,155.1,373.3z M155,375.4h2.5v10.7H155V375.4z"/>
		<path d="M171.2,371.3v14.8h-2.4v-1.4c-0.4,0.5-0.9,0.9-1.5,1.1c-0.6,0.3-1.3,0.4-2,0.4c-1,0-2-0.2-2.8-0.7
			c-0.8-0.5-1.5-1.1-1.9-1.9s-0.7-1.8-0.7-2.9s0.2-2,0.7-2.9c0.5-0.8,1.1-1.5,1.9-1.9c0.8-0.5,1.7-0.7,2.8-0.7
			c0.7,0,1.4,0.1,1.9,0.4c0.6,0.2,1.1,0.6,1.5,1.1v-5.5H171.2z M167.2,383.7c0.5-0.3,0.9-0.7,1.1-1.2c0.3-0.5,0.4-1.1,0.4-1.8
			s-0.1-1.3-0.4-1.8c-0.3-0.5-0.7-0.9-1.1-1.2s-1-0.4-1.6-0.4s-1.1,0.1-1.6,0.4s-0.9,0.7-1.1,1.2c-0.3,0.5-0.4,1.1-0.4,1.8
			s0.1,1.3,0.4,1.8c0.3,0.5,0.7,0.9,1.1,1.2s1,0.4,1.6,0.4S166.7,384,167.2,383.7z"/>
		<path d="M184.5,381.6h-8.4c0.1,0.8,0.5,1.4,1.2,1.9c0.6,0.5,1.4,0.7,2.3,0.7c1.2,0,2.1-0.4,2.9-1.2l1.3,1.5
			c-0.5,0.6-1.1,1-1.8,1.3c-0.7,0.3-1.6,0.4-2.5,0.4c-1.2,0-2.2-0.2-3.1-0.7c-0.9-0.5-1.6-1.1-2.1-2c-0.5-0.8-0.7-1.8-0.7-2.8
			c0-1,0.2-2,0.7-2.8c0.5-0.8,1.1-1.5,2-1.9s1.8-0.7,2.8-0.7c1,0,2,0.2,2.8,0.7c0.8,0.5,1.5,1.1,1.9,1.9c0.5,0.8,0.7,1.8,0.7,2.9
			C184.5,381,184.5,381.3,184.5,381.6z M177.1,378c-0.6,0.5-0.9,1.1-1,1.9h6.1c-0.1-0.8-0.4-1.4-1-1.9c-0.5-0.5-1.2-0.7-2-0.7
			C178.3,377.3,177.6,377.6,177.1,378z"/>
		<path d="M196.2,376.5c0.8,0.8,1.2,2,1.2,3.5v6.1h-2.5v-5.8c0-0.9-0.2-1.6-0.7-2.1c-0.4-0.5-1.1-0.7-1.9-0.7
			c-0.9,0-1.6,0.3-2.2,0.8c-0.5,0.6-0.8,1.3-0.8,2.4v5.4h-2.5v-10.7h2.4v1.4c0.4-0.5,0.9-0.9,1.6-1.1c0.6-0.3,1.3-0.4,2.1-0.4
			C194.3,375.3,195.4,375.7,196.2,376.5z"/>
		<path d="M207,385.5c-0.3,0.2-0.6,0.4-1.1,0.5c-0.4,0.1-0.9,0.2-1.3,0.2c-1.2,0-2.1-0.3-2.7-0.9s-1-1.5-1-2.7v-5.1h-1.8v-2h1.8
			v-2.4h2.5v2.4h2.9v2h-2.9v5.1c0,0.5,0.1,0.9,0.4,1.2s0.6,0.4,1.1,0.4c0.6,0,1-0.1,1.4-0.4L207,385.5z"/>
		<path d="M209.2,373.3c-0.3-0.3-0.5-0.6-0.5-1.1c0-0.4,0.2-0.8,0.5-1.1s0.7-0.4,1.1-0.4s0.8,0.1,1.1,0.4c0.3,0.3,0.5,0.6,0.5,1
			c0,0.4-0.1,0.8-0.5,1.1c-0.3,0.3-0.7,0.4-1.1,0.4C209.9,373.7,209.5,373.5,209.2,373.3z M209.1,375.4h2.5v10.7h-2.5V375.4z"/>
		<path d="M221.3,385.5c-0.3,0.2-0.6,0.4-1.1,0.5c-0.4,0.1-0.9,0.2-1.3,0.2c-1.2,0-2.1-0.3-2.7-0.9s-1-1.5-1-2.7v-5.1h-1.8v-2h1.8
			v-2.4h2.5v2.4h2.9v2h-2.9v5.1c0,0.5,0.1,0.9,0.4,1.2s0.6,0.4,1.1,0.4c0.6,0,1-0.1,1.4-0.4L221.3,385.5z"/>
		<path d="M233.2,375.4l-5,11.5c-0.5,1.2-1,2-1.7,2.4c-0.7,0.5-1.5,0.7-2.4,0.7c-0.5,0-1.1-0.1-1.6-0.3c-0.5-0.2-0.9-0.4-1.3-0.7
			l1-1.8c0.2,0.2,0.5,0.4,0.8,0.5c0.3,0.1,0.7,0.2,1,0.2c0.4,0,0.8-0.1,1.1-0.3s0.6-0.6,0.8-1.1l0.2-0.4l-4.7-10.7h2.6l3.4,7.9
			l3.4-7.9H233.2z"/>
		<path d="M35.8,419.8c-0.3-0.3-0.5-0.7-0.5-1.2c0-0.5,0.2-0.9,0.5-1.2c0.3-0.3,0.7-0.5,1.2-0.5s0.9,0.2,1.2,0.5s0.5,0.7,0.5,1.2
			c0,0.5-0.2,0.9-0.5,1.2c-0.3,0.3-0.7,0.5-1.2,0.5C36.5,420.3,36.1,420.1,35.8,419.8z"/>
		<path d="M58.5,414.1c0.5,0.6,0.7,1.3,0.7,2.2c0,1.2-0.5,2.1-1.4,2.8c-0.9,0.7-2.3,1-4.1,1h-7v-14h6.6c1.7,0,2.9,0.3,3.8,1
			c0.9,0.6,1.3,1.5,1.3,2.7c0,0.7-0.2,1.3-0.5,1.8c-0.3,0.5-0.8,0.9-1.3,1.2C57.5,413.1,58.1,413.5,58.5,414.1z M49.4,408.2v3.9h3.7
			c0.9,0,1.6-0.2,2.1-0.5c0.5-0.3,0.7-0.8,0.7-1.4c0-0.6-0.2-1.1-0.7-1.5c-0.5-0.3-1.2-0.5-2.1-0.5H49.4z M56.6,416.1c0-1.3-1-2-3-2
			h-4.2v4h4.2C55.6,418.1,56.6,417.4,56.6,416.1z"/>
		<path d="M67.9,409.3v2.4c-0.2,0-0.4-0.1-0.6-0.1c-1,0-1.7,0.3-2.3,0.9c-0.5,0.6-0.8,1.4-0.8,2.5v5.2h-2.5v-10.7h2.4v1.6
			C64.9,409.9,66.1,409.3,67.9,409.3z"/>
		<path d="M77.7,410.5c0.8,0.8,1.2,1.9,1.2,3.4v6.3h-2.4v-1.3c-0.3,0.5-0.7,0.8-1.3,1.1c-0.6,0.2-1.2,0.4-2.1,0.4
			c-0.8,0-1.5-0.1-2.1-0.4c-0.6-0.3-1.1-0.7-1.4-1.1c-0.3-0.5-0.5-1-0.5-1.6c0-1,0.4-1.7,1.1-2.3c0.7-0.6,1.8-0.9,3.4-0.9h2.8v-0.2
			c0-0.7-0.2-1.3-0.7-1.7c-0.4-0.4-1.1-0.6-2-0.6c-0.6,0-1.2,0.1-1.8,0.3c-0.6,0.2-1.1,0.4-1.5,0.8l-1-1.8c0.6-0.4,1.2-0.8,2-1
			c0.8-0.2,1.6-0.3,2.5-0.3C75.7,409.3,76.9,409.7,77.7,410.5z M75.4,418c0.5-0.3,0.8-0.7,1-1.2v-1.2h-2.6c-1.4,0-2.2,0.5-2.2,1.4
			c0,0.5,0.2,0.8,0.5,1.1c0.4,0.3,0.9,0.4,1.5,0.4C74.4,418.4,74.9,418.3,75.4,418z"/>
		<path d="M91.4,410.5c0.8,0.8,1.2,2,1.2,3.5v6.1h-2.5v-5.8c0-0.9-0.2-1.6-0.7-2.1c-0.4-0.5-1.1-0.7-1.9-0.7c-0.9,0-1.6,0.3-2.2,0.8
			c-0.5,0.6-0.8,1.3-0.8,2.4v5.4h-2.5v-10.7h2.4v1.4c0.4-0.5,0.9-0.9,1.6-1.1c0.6-0.3,1.3-0.4,2.1-0.4
			C89.5,409.3,90.6,409.7,91.4,410.5z"/>
		<path d="M106.4,405.3v14.8H104v-1.4c-0.4,0.5-0.9,0.9-1.5,1.1c-0.6,0.3-1.3,0.4-2,0.4c-1,0-2-0.2-2.8-0.7
			c-0.8-0.5-1.5-1.1-1.9-1.9s-0.7-1.8-0.7-2.9s0.2-2,0.7-2.9c0.5-0.8,1.1-1.5,1.9-1.9c0.8-0.5,1.7-0.7,2.8-0.7
			c0.7,0,1.4,0.1,1.9,0.4c0.6,0.2,1.1,0.6,1.5,1.1v-5.5H106.4z M102.4,417.7c0.5-0.3,0.9-0.7,1.1-1.2c0.3-0.5,0.4-1.1,0.4-1.8
			s-0.1-1.3-0.4-1.8c-0.3-0.5-0.7-0.9-1.1-1.2s-1-0.4-1.6-0.4s-1.1,0.1-1.6,0.4s-0.9,0.7-1.1,1.2c-0.3,0.5-0.4,1.1-0.4,1.8
			s0.1,1.3,0.4,1.8c0.3,0.5,0.7,0.9,1.1,1.2s1,0.4,1.6,0.4S101.9,418,102.4,417.7z"/>
		<path d="M131.9,410.5c0.8,0.8,1.2,2,1.2,3.5v6.1h-2.5v-5.8c0-0.9-0.2-1.6-0.6-2.1c-0.4-0.5-1-0.7-1.8-0.7c-0.8,0-1.5,0.3-2,0.8
			c-0.5,0.6-0.8,1.3-0.8,2.4v5.4h-2.5v-5.8c0-0.9-0.2-1.6-0.6-2.1c-0.4-0.5-1-0.7-1.8-0.7c-0.9,0-1.5,0.3-2,0.8s-0.8,1.3-0.8,2.4
			v5.4h-2.5v-10.7h2.4v1.4c0.4-0.5,0.9-0.8,1.5-1.1s1.3-0.4,2-0.4c0.8,0,1.5,0.1,2.1,0.5c0.6,0.3,1.1,0.7,1.5,1.3
			c0.4-0.6,1-1,1.7-1.3s1.5-0.5,2.3-0.5C130,409.3,131.1,409.7,131.9,410.5z"/>
		<path d="M143.9,410.5c0.8,0.8,1.2,1.9,1.2,3.4v6.3h-2.4v-1.3c-0.3,0.5-0.7,0.8-1.3,1.1c-0.6,0.2-1.2,0.4-2.1,0.4
			c-0.8,0-1.5-0.1-2.1-0.4c-0.6-0.3-1.1-0.7-1.4-1.1c-0.3-0.5-0.5-1-0.5-1.6c0-1,0.4-1.7,1.1-2.3c0.7-0.6,1.8-0.9,3.4-0.9h2.8v-0.2
			c0-0.7-0.2-1.3-0.7-1.7c-0.4-0.4-1.1-0.6-2-0.6c-0.6,0-1.2,0.1-1.8,0.3c-0.6,0.2-1.1,0.4-1.5,0.8l-1-1.8c0.6-0.4,1.2-0.8,2-1
			c0.8-0.2,1.6-0.3,2.5-0.3C141.9,409.3,143.1,409.7,143.9,410.5z M141.7,418c0.5-0.3,0.8-0.7,1-1.2v-1.2h-2.6
			c-1.4,0-2.2,0.5-2.2,1.4c0,0.5,0.2,0.8,0.5,1.1c0.4,0.3,0.9,0.4,1.5,0.4C140.6,418.4,141.2,418.3,141.7,418z"/>
		<path d="M157.7,410.5c0.8,0.8,1.2,2,1.2,3.5v6.1h-2.5v-5.8c0-0.9-0.2-1.6-0.7-2.1c-0.4-0.5-1.1-0.7-1.9-0.7
			c-0.9,0-1.6,0.3-2.2,0.8c-0.5,0.6-0.8,1.3-0.8,2.4v5.4h-2.5v-10.7h2.4v1.4c0.4-0.5,0.9-0.9,1.6-1.1c0.6-0.3,1.3-0.4,2.1-0.4
			C155.8,409.3,156.9,409.7,157.7,410.5z"/>
		<path d="M172.4,409.4v10.7h-2.4v-1.4c-0.4,0.5-0.9,0.9-1.5,1.1s-1.2,0.4-1.9,0.4c-1.4,0-2.6-0.4-3.4-1.2s-1.2-2-1.2-3.5v-6.1h2.5
			v5.8c0,1,0.2,1.7,0.6,2.2c0.4,0.5,1,0.7,1.9,0.7c0.9,0,1.6-0.3,2.1-0.8c0.5-0.6,0.8-1.4,0.8-2.4v-5.4H172.4z"/>
		<path d="M183.4,410.5c0.8,0.8,1.2,1.9,1.2,3.4v6.3h-2.4v-1.3c-0.3,0.5-0.7,0.8-1.3,1.1c-0.6,0.2-1.2,0.4-2.1,0.4
			c-0.8,0-1.5-0.1-2.1-0.4c-0.6-0.3-1.1-0.7-1.4-1.1c-0.3-0.5-0.5-1-0.5-1.6c0-1,0.4-1.7,1.1-2.3c0.7-0.6,1.8-0.9,3.4-0.9h2.8v-0.2
			c0-0.7-0.2-1.3-0.7-1.7c-0.4-0.4-1.1-0.6-2-0.6c-0.6,0-1.2,0.1-1.8,0.3c-0.6,0.2-1.1,0.4-1.5,0.8l-1-1.8c0.6-0.4,1.2-0.8,2-1
			c0.8-0.2,1.6-0.3,2.5-0.3C181.4,409.3,182.6,409.7,183.4,410.5z M181.1,418c0.5-0.3,0.8-0.7,1-1.2v-1.2h-2.6
			c-1.4,0-2.2,0.5-2.2,1.4c0,0.5,0.2,0.8,0.5,1.1c0.4,0.3,0.9,0.4,1.5,0.4C180.1,418.4,180.6,418.3,181.1,418z"/>
		<path d="M187.9,405.3h2.5v14.8h-2.5V405.3z"/>
		<path d="M35.8,453.8c-0.3-0.3-0.5-0.7-0.5-1.2c0-0.5,0.2-0.9,0.5-1.2c0.3-0.3,0.7-0.5,1.2-0.5s0.9,0.2,1.2,0.5s0.5,0.7,0.5,1.2
			c0,0.5-0.2,0.9-0.5,1.2c-0.3,0.3-0.7,0.5-1.2,0.5C36.5,454.3,36.1,454.1,35.8,453.8z"/>
		<path d="M58.5,448.1c0.5,0.6,0.7,1.3,0.7,2.2c0,1.2-0.5,2.1-1.4,2.8c-0.9,0.7-2.3,1-4.1,1h-7v-14h6.6c1.7,0,2.9,0.3,3.8,1
			c0.9,0.6,1.3,1.5,1.3,2.7c0,0.7-0.2,1.3-0.5,1.8c-0.3,0.5-0.8,0.9-1.3,1.2C57.5,447.1,58.1,447.5,58.5,448.1z M49.4,442.2v3.9h3.7
			c0.9,0,1.6-0.2,2.1-0.5c0.5-0.3,0.7-0.8,0.7-1.4c0-0.6-0.2-1.1-0.7-1.5c-0.5-0.3-1.2-0.5-2.1-0.5H49.4z M56.6,450.1c0-1.3-1-2-3-2
			h-4.2v4h4.2C55.6,452.1,56.6,451.4,56.6,450.1z"/>
		<path d="M67.9,443.3v2.4c-0.2,0-0.4-0.1-0.6-0.1c-1,0-1.7,0.3-2.3,0.9c-0.5,0.6-0.8,1.4-0.8,2.5v5.2h-2.5v-10.7h2.4v1.6
			C64.9,443.9,66.1,443.3,67.9,443.3z"/>
		<path d="M77.7,444.5c0.8,0.8,1.2,1.9,1.2,3.4v6.3h-2.4v-1.3c-0.3,0.5-0.7,0.8-1.3,1.1c-0.6,0.2-1.2,0.4-2.1,0.4
			c-0.8,0-1.5-0.1-2.1-0.4c-0.6-0.3-1.1-0.7-1.4-1.1c-0.3-0.5-0.5-1-0.5-1.6c0-1,0.4-1.7,1.1-2.3c0.7-0.6,1.8-0.9,3.4-0.9h2.8v-0.2
			c0-0.7-0.2-1.3-0.7-1.7c-0.4-0.4-1.1-0.6-2-0.6c-0.6,0-1.2,0.1-1.8,0.3c-0.6,0.2-1.1,0.4-1.5,0.8l-1-1.8c0.6-0.4,1.2-0.8,2-1
			c0.8-0.2,1.6-0.3,2.5-0.3C75.7,443.3,76.9,443.7,77.7,444.5z M75.4,452c0.5-0.3,0.8-0.7,1-1.2v-1.2h-2.6c-1.4,0-2.2,0.5-2.2,1.4
			c0,0.5,0.2,0.8,0.5,1.1c0.4,0.3,0.9,0.4,1.5,0.4C74.4,452.4,74.9,452.3,75.4,452z"/>
		<path d="M91.4,444.5c0.8,0.8,1.2,2,1.2,3.5v6.1h-2.5v-5.8c0-0.9-0.2-1.6-0.7-2.1c-0.4-0.5-1.1-0.7-1.9-0.7c-0.9,0-1.6,0.3-2.2,0.8
			c-0.5,0.6-0.8,1.3-0.8,2.4v5.4h-2.5v-10.7h2.4v1.4c0.4-0.5,0.9-0.9,1.6-1.1c0.6-0.3,1.3-0.4,2.1-0.4
			C89.5,443.3,90.6,443.7,91.4,444.5z"/>
		<path d="M106.4,439.3v14.8H104v-1.4c-0.4,0.5-0.9,0.9-1.5,1.1c-0.6,0.3-1.3,0.4-2,0.4c-1,0-2-0.2-2.8-0.7
			c-0.8-0.5-1.5-1.1-1.9-1.9s-0.7-1.8-0.7-2.9s0.2-2,0.7-2.9c0.5-0.8,1.1-1.5,1.9-1.9c0.8-0.5,1.7-0.7,2.8-0.7
			c0.7,0,1.4,0.1,1.9,0.4c0.6,0.2,1.1,0.6,1.5,1.1v-5.5H106.4z M102.4,451.7c0.5-0.3,0.9-0.7,1.1-1.2c0.3-0.5,0.4-1.1,0.4-1.8
			s-0.1-1.3-0.4-1.8c-0.3-0.5-0.7-0.9-1.1-1.2s-1-0.4-1.6-0.4s-1.1,0.1-1.6,0.4s-0.9,0.7-1.1,1.2c-0.3,0.5-0.4,1.1-0.4,1.8
			s0.1,1.3,0.4,1.8c0.3,0.5,0.7,0.9,1.1,1.2s1,0.4,1.6,0.4S101.9,452,102.4,451.7z"/>
		<path d="M110.4,453.9c-0.8-0.2-1.5-0.5-2-0.9l1-1.9c0.5,0.3,1.1,0.6,1.7,0.8c0.7,0.2,1.3,0.3,2,0.3c1.5,0,2.2-0.4,2.2-1.2
			c0-0.4-0.2-0.6-0.6-0.8c-0.4-0.1-1-0.3-1.8-0.4c-0.9-0.1-1.6-0.3-2.1-0.5c-0.6-0.2-1-0.5-1.4-0.9c-0.4-0.4-0.6-1-0.6-1.8
			c0-1,0.4-1.8,1.3-2.4s2-0.9,3.4-0.9c0.7,0,1.5,0.1,2.2,0.2c0.7,0.2,1.3,0.4,1.8,0.7l-1,1.9c-0.9-0.5-1.9-0.8-3.1-0.8
			c-0.7,0-1.3,0.1-1.7,0.3s-0.6,0.5-0.6,0.9c0,0.4,0.2,0.7,0.6,0.8c0.4,0.2,1,0.3,1.9,0.5c0.9,0.1,1.6,0.3,2.1,0.5s1,0.5,1.4,0.9
			c0.4,0.4,0.6,1,0.6,1.8c0,1-0.4,1.8-1.3,2.4c-0.9,0.6-2,0.9-3.5,0.9C112.1,454.3,111.3,454.2,110.4,453.9z"/>
		<path d="M121.9,453.6c-0.9-0.5-1.5-1.1-2-2c-0.5-0.8-0.7-1.8-0.7-2.8s0.2-2,0.7-2.8c0.5-0.8,1.2-1.5,2-1.9s1.8-0.7,2.9-0.7
			c1.1,0,2.1,0.2,2.9,0.7s1.5,1.1,2,1.9c0.5,0.8,0.7,1.8,0.7,2.8s-0.2,2-0.7,2.8c-0.5,0.8-1.2,1.5-2,2s-1.8,0.7-2.9,0.7
			C123.7,454.3,122.7,454,121.9,453.6z M127.1,451.2c0.6-0.6,0.9-1.4,0.9-2.4s-0.3-1.8-0.9-2.4c-0.6-0.6-1.4-0.9-2.3-0.9
			s-1.7,0.3-2.3,0.9s-0.9,1.4-0.9,2.4s0.3,1.8,0.9,2.4s1.4,0.9,2.3,0.9S126.5,451.8,127.1,451.2z"/>
		<path d="M142.2,444.5c0.8,0.8,1.2,2,1.2,3.5v6.1h-2.5v-5.8c0-0.9-0.2-1.6-0.7-2.1c-0.4-0.5-1.1-0.7-1.9-0.7
			c-0.9,0-1.6,0.3-2.2,0.8c-0.5,0.6-0.8,1.3-0.8,2.4v5.4h-2.5v-10.7h2.4v1.4c0.4-0.5,0.9-0.9,1.6-1.1c0.6-0.3,1.3-0.4,2.1-0.4
			C140.3,443.3,141.4,443.7,142.2,444.5z"/>
		<path d="M154.3,444.5c0.8,0.8,1.2,1.9,1.2,3.4v6.3h-2.4v-1.3c-0.3,0.5-0.7,0.8-1.3,1.1c-0.6,0.2-1.2,0.4-2.1,0.4
			c-0.8,0-1.5-0.1-2.1-0.4c-0.6-0.3-1.1-0.7-1.4-1.1c-0.3-0.5-0.5-1-0.5-1.6c0-1,0.4-1.7,1.1-2.3c0.7-0.6,1.8-0.9,3.4-0.9h2.8v-0.2
			c0-0.7-0.2-1.3-0.7-1.7c-0.4-0.4-1.1-0.6-2-0.6c-0.6,0-1.2,0.1-1.8,0.3c-0.6,0.2-1.1,0.4-1.5,0.8l-1-1.8c0.6-0.4,1.2-0.8,2-1
			c0.8-0.2,1.6-0.3,2.5-0.3C152.2,443.3,153.4,443.7,154.3,444.5z M152,452c0.5-0.3,0.8-0.7,1-1.2v-1.2h-2.6c-1.4,0-2.2,0.5-2.2,1.4
			c0,0.5,0.2,0.8,0.5,1.1c0.4,0.3,0.9,0.4,1.5,0.4C150.9,452.4,151.5,452.3,152,452z"/>
		<path d="M158.7,439.3h2.5v14.8h-2.5V439.3z"/>
		<path d="M164.6,441.3c-0.3-0.3-0.5-0.6-0.5-1.1c0-0.4,0.2-0.8,0.5-1.1s0.7-0.4,1.1-0.4s0.8,0.1,1.1,0.4c0.3,0.3,0.5,0.6,0.5,1
			c0,0.4-0.1,0.8-0.5,1.1c-0.3,0.3-0.7,0.4-1.1,0.4C165.3,441.7,164.9,441.5,164.6,441.3z M164.5,443.4h2.5v10.7h-2.5V443.4z"/>
		<path d="M176.7,453.5c-0.3,0.2-0.6,0.4-1.1,0.5c-0.4,0.1-0.9,0.2-1.3,0.2c-1.2,0-2.1-0.3-2.7-0.9s-1-1.5-1-2.7v-5.1h-1.8v-2h1.8
			v-2.4h2.5v2.4h2.9v2h-2.9v5.1c0,0.5,0.1,0.9,0.4,1.2s0.6,0.4,1.1,0.4c0.6,0,1-0.1,1.4-0.4L176.7,453.5z"/>
		<path d="M188.6,443.4l-5,11.5c-0.5,1.2-1,2-1.7,2.4c-0.7,0.5-1.5,0.7-2.4,0.7c-0.5,0-1.1-0.1-1.6-0.3c-0.5-0.2-0.9-0.4-1.3-0.7
			l1-1.8c0.2,0.2,0.5,0.4,0.8,0.5c0.3,0.1,0.7,0.2,1,0.2c0.4,0,0.8-0.1,1.1-0.3s0.6-0.6,0.8-1.1l0.2-0.4l-4.7-10.7h2.6l3.4,7.9
			l3.4-7.9H188.6z"/>
		<path d="M35.8,487.8c-0.3-0.3-0.5-0.7-0.5-1.2c0-0.5,0.2-0.9,0.5-1.2c0.3-0.3,0.7-0.5,1.2-0.5s0.9,0.2,1.2,0.5s0.5,0.7,0.5,1.2
			c0,0.5-0.2,0.9-0.5,1.2c-0.3,0.3-0.7,0.5-1.2,0.5C36.5,488.3,36.1,488.1,35.8,487.8z"/>
		<path d="M58.5,482.1c0.5,0.6,0.7,1.3,0.7,2.2c0,1.2-0.5,2.1-1.4,2.8c-0.9,0.7-2.3,1-4.1,1h-7v-14h6.6c1.7,0,2.9,0.3,3.8,1
			c0.9,0.6,1.3,1.5,1.3,2.7c0,0.7-0.2,1.3-0.5,1.8c-0.3,0.5-0.8,0.9-1.3,1.2C57.5,481.1,58.1,481.5,58.5,482.1z M49.4,476.2v3.9h3.7
			c0.9,0,1.6-0.2,2.1-0.5c0.5-0.3,0.7-0.8,0.7-1.4c0-0.6-0.2-1.1-0.7-1.5c-0.5-0.3-1.2-0.5-2.1-0.5H49.4z M56.6,484.1c0-1.3-1-2-3-2
			h-4.2v4h4.2C55.6,486.1,56.6,485.4,56.6,484.1z"/>
		<path d="M67.9,477.3v2.4c-0.2,0-0.4-0.1-0.6-0.1c-1,0-1.7,0.3-2.3,0.9c-0.5,0.6-0.8,1.4-0.8,2.5v5.2h-2.5v-10.7h2.4v1.6
			C64.9,477.9,66.1,477.3,67.9,477.3z"/>
		<path d="M77.7,478.5c0.8,0.8,1.2,1.9,1.2,3.4v6.3h-2.4v-1.3c-0.3,0.5-0.7,0.8-1.3,1.1c-0.6,0.2-1.2,0.4-2.1,0.4
			c-0.8,0-1.5-0.1-2.1-0.4c-0.6-0.3-1.1-0.7-1.4-1.1c-0.3-0.5-0.5-1-0.5-1.6c0-1,0.4-1.7,1.1-2.3c0.7-0.6,1.8-0.9,3.4-0.9h2.8v-0.2
			c0-0.7-0.2-1.3-0.7-1.7c-0.4-0.4-1.1-0.6-2-0.6c-0.6,0-1.2,0.1-1.8,0.3c-0.6,0.2-1.1,0.4-1.5,0.8l-1-1.8c0.6-0.4,1.2-0.8,2-1
			c0.8-0.2,1.6-0.3,2.5-0.3C75.7,477.3,76.9,477.7,77.7,478.5z M75.4,486c0.5-0.3,0.8-0.7,1-1.2v-1.2h-2.6c-1.4,0-2.2,0.5-2.2,1.4
			c0,0.5,0.2,0.8,0.5,1.1c0.4,0.3,0.9,0.4,1.5,0.4C74.4,486.4,74.9,486.3,75.4,486z"/>
		<path d="M91.4,478.5c0.8,0.8,1.2,2,1.2,3.5v6.1h-2.5v-5.8c0-0.9-0.2-1.6-0.7-2.1c-0.4-0.5-1.1-0.7-1.9-0.7c-0.9,0-1.6,0.3-2.2,0.8
			c-0.5,0.6-0.8,1.3-0.8,2.4v5.4h-2.5v-10.7h2.4v1.4c0.4-0.5,0.9-0.9,1.6-1.1c0.6-0.3,1.3-0.4,2.1-0.4
			C89.5,477.3,90.6,477.7,91.4,478.5z"/>
		<path d="M106.4,473.3v14.8H104v-1.4c-0.4,0.5-0.9,0.9-1.5,1.1c-0.6,0.3-1.3,0.4-2,0.4c-1,0-2-0.2-2.8-0.7
			c-0.8-0.5-1.5-1.1-1.9-1.9s-0.7-1.8-0.7-2.9s0.2-2,0.7-2.9c0.5-0.8,1.1-1.5,1.9-1.9c0.8-0.5,1.7-0.7,2.8-0.7
			c0.7,0,1.4,0.1,1.9,0.4c0.6,0.2,1.1,0.6,1.5,1.1v-5.5H106.4z M102.4,485.7c0.5-0.3,0.9-0.7,1.1-1.2c0.3-0.5,0.4-1.1,0.4-1.8
			s-0.1-1.3-0.4-1.8c-0.3-0.5-0.7-0.9-1.1-1.2s-1-0.4-1.6-0.4s-1.1,0.1-1.6,0.4s-0.9,0.7-1.1,1.2c-0.3,0.5-0.4,1.1-0.4,1.8
			s0.1,1.3,0.4,1.8c0.3,0.5,0.7,0.9,1.1,1.2s1,0.4,1.6,0.4S101.9,486,102.4,485.7z"/>
		<path d="M123.9,478c0.8,0.5,1.5,1.1,1.9,1.9c0.5,0.8,0.7,1.8,0.7,2.9s-0.2,2-0.7,2.9s-1.1,1.5-1.9,1.9c-0.8,0.5-1.8,0.7-2.8,0.7
			c-1.4,0-2.6-0.5-3.4-1.4v5.2h-2.5v-14.6h2.4v1.4c0.4-0.5,0.9-0.9,1.5-1.1c0.6-0.3,1.3-0.4,2-0.4
			C122.2,477.3,123.1,477.6,123.9,478z M123.1,485.2c0.6-0.6,0.9-1.4,0.9-2.4s-0.3-1.8-0.9-2.4s-1.3-0.9-2.3-0.9
			c-0.6,0-1.1,0.1-1.6,0.4s-0.9,0.7-1.1,1.2s-0.4,1.1-0.4,1.8s0.1,1.3,0.4,1.8s0.7,0.9,1.1,1.2s1,0.4,1.6,0.4
			C121.8,486.1,122.5,485.8,123.1,485.2z"/>
		<path d="M139.3,477.4v10.7h-2.4v-1.4c-0.4,0.5-0.9,0.9-1.5,1.1s-1.2,0.4-1.9,0.4c-1.4,0-2.6-0.4-3.4-1.2s-1.2-2-1.2-3.5v-6.1h2.5
			v5.8c0,1,0.2,1.7,0.6,2.2c0.4,0.5,1,0.7,1.9,0.7c0.9,0,1.6-0.3,2.1-0.8c0.5-0.6,0.8-1.4,0.8-2.4v-5.4H139.3z"/>
		<path d="M148.7,477.3v2.4c-0.2,0-0.4-0.1-0.6-0.1c-1,0-1.7,0.3-2.3,0.9c-0.5,0.6-0.8,1.4-0.8,2.5v5.2h-2.5v-10.7h2.4v1.6
			C145.6,477.9,146.9,477.3,148.7,477.3z"/>
		<path d="M159.5,478c0.8,0.5,1.5,1.1,1.9,1.9c0.5,0.8,0.7,1.8,0.7,2.9s-0.2,2-0.7,2.9s-1.1,1.5-1.9,1.9c-0.8,0.5-1.8,0.7-2.8,0.7
			c-1.4,0-2.6-0.5-3.4-1.4v5.2h-2.5v-14.6h2.4v1.4c0.4-0.5,0.9-0.9,1.5-1.1c0.6-0.3,1.3-0.4,2-0.4
			C157.8,477.3,158.7,477.6,159.5,478z M158.7,485.2c0.6-0.6,0.9-1.4,0.9-2.4s-0.3-1.8-0.9-2.4s-1.3-0.9-2.3-0.9
			c-0.6,0-1.1,0.1-1.6,0.4s-0.9,0.7-1.1,1.2s-0.4,1.1-0.4,1.8s0.1,1.3,0.4,1.8s0.7,0.9,1.1,1.2s1,0.4,1.6,0.4
			C157.4,486.1,158.2,485.8,158.7,485.2z"/>
		<path d="M166.4,487.6c-0.9-0.5-1.5-1.1-2-2c-0.5-0.8-0.7-1.8-0.7-2.8s0.2-2,0.7-2.8c0.5-0.8,1.2-1.5,2-1.9s1.8-0.7,2.9-0.7
			c1.1,0,2.1,0.2,2.9,0.7s1.5,1.1,2,1.9c0.5,0.8,0.7,1.8,0.7,2.8s-0.2,2-0.7,2.8c-0.5,0.8-1.2,1.5-2,2s-1.8,0.7-2.9,0.7
			C168.3,488.3,167.3,488,166.4,487.6z M171.6,485.2c0.6-0.6,0.9-1.4,0.9-2.4s-0.3-1.8-0.9-2.4c-0.6-0.6-1.4-0.9-2.3-0.9
			s-1.7,0.3-2.3,0.9s-0.9,1.4-0.9,2.4s0.3,1.8,0.9,2.4s1.4,0.9,2.3,0.9S171,485.8,171.6,485.2z"/>
		<path d="M178.2,487.9c-0.8-0.2-1.5-0.5-2-0.9l1-1.9c0.5,0.3,1.1,0.6,1.7,0.8c0.7,0.2,1.3,0.3,2,0.3c1.5,0,2.2-0.4,2.2-1.2
			c0-0.4-0.2-0.6-0.6-0.8c-0.4-0.1-1-0.3-1.8-0.4c-0.9-0.1-1.6-0.3-2.1-0.5c-0.6-0.2-1-0.5-1.4-0.9c-0.4-0.4-0.6-1-0.6-1.8
			c0-1,0.4-1.8,1.3-2.4s2-0.9,3.4-0.9c0.7,0,1.5,0.1,2.2,0.2c0.7,0.2,1.3,0.4,1.8,0.7l-1,1.9c-0.9-0.5-1.9-0.8-3.1-0.8
			c-0.7,0-1.3,0.1-1.7,0.3s-0.6,0.5-0.6,0.9c0,0.4,0.2,0.7,0.6,0.8c0.4,0.2,1,0.3,1.9,0.5c0.9,0.1,1.6,0.3,2.1,0.5s1,0.5,1.4,0.9
			c0.4,0.4,0.6,1,0.6,1.8c0,1-0.4,1.8-1.3,2.4c-0.9,0.6-2,0.9-3.5,0.9C179.9,488.3,179,488.2,178.2,487.9z"/>
		<path d="M197.8,483.6h-8.4c0.1,0.8,0.5,1.4,1.2,1.9c0.6,0.5,1.4,0.7,2.3,0.7c1.2,0,2.1-0.4,2.9-1.2l1.3,1.5
			c-0.5,0.6-1.1,1-1.8,1.3c-0.7,0.3-1.6,0.4-2.5,0.4c-1.2,0-2.2-0.2-3.1-0.7c-0.9-0.5-1.6-1.1-2.1-2c-0.5-0.8-0.7-1.8-0.7-2.8
			c0-1,0.2-2,0.7-2.8c0.5-0.8,1.1-1.5,2-1.9s1.8-0.7,2.8-0.7c1,0,2,0.2,2.8,0.7c0.8,0.5,1.5,1.1,1.9,1.9c0.5,0.8,0.7,1.8,0.7,2.9
			C197.8,483,197.8,483.3,197.8,483.6z M190.4,480c-0.6,0.5-0.9,1.1-1,1.9h6.1c-0.1-0.8-0.4-1.4-1-1.9c-0.5-0.5-1.2-0.7-2-0.7
			C191.6,479.3,190.9,479.6,190.4,480z"/>
		<path d="M222.4,477.4l-3.9,10.7H216l-2.8-7.4l-2.8,7.4h-2.4l-3.9-10.7h2.4l2.8,7.9l2.9-7.9h2.1l2.9,7.9l2.9-7.9H222.4z"/>
		<path d="M225.7,487.6c-0.9-0.5-1.5-1.1-2-2c-0.5-0.8-0.7-1.8-0.7-2.8s0.2-2,0.7-2.8c0.5-0.8,1.2-1.5,2-1.9s1.8-0.7,2.9-0.7
			c1.1,0,2.1,0.2,2.9,0.7s1.5,1.1,2,1.9c0.5,0.8,0.7,1.8,0.7,2.8s-0.2,2-0.7,2.8c-0.5,0.8-1.2,1.5-2,2s-1.8,0.7-2.9,0.7
			C227.5,488.3,226.5,488,225.7,487.6z M230.9,485.2c0.6-0.6,0.9-1.4,0.9-2.4s-0.3-1.8-0.9-2.4c-0.6-0.6-1.4-0.9-2.3-0.9
			s-1.7,0.3-2.3,0.9s-0.9,1.4-0.9,2.4s0.3,1.8,0.9,2.4s1.4,0.9,2.3,0.9S230.3,485.8,230.9,485.2z"/>
		<path d="M242.9,477.3v2.4c-0.2,0-0.4-0.1-0.6-0.1c-1,0-1.7,0.3-2.3,0.9c-0.5,0.6-0.8,1.4-0.8,2.5v5.2h-2.5v-10.7h2.4v1.6
			C239.8,477.9,241.1,477.3,242.9,477.3z"/>
		<path d="M249.4,483.5l-1.9,1.8v2.8H245v-14.8h2.5v9l5.2-4.8h3l-4.5,4.5l4.9,6.2h-3L249.4,483.5z"/>
		<path d="M258.1,487.9c-0.8-0.2-1.5-0.5-2-0.9l1-1.9c0.5,0.3,1.1,0.6,1.7,0.8c0.7,0.2,1.3,0.3,2,0.3c1.5,0,2.2-0.4,2.2-1.2
			c0-0.4-0.2-0.6-0.6-0.8c-0.4-0.1-1-0.3-1.8-0.4c-0.9-0.1-1.6-0.3-2.1-0.5c-0.6-0.2-1-0.5-1.4-0.9c-0.4-0.4-0.6-1-0.6-1.8
			c0-1,0.4-1.8,1.3-2.4s2-0.9,3.4-0.9c0.7,0,1.5,0.1,2.2,0.2c0.7,0.2,1.3,0.4,1.8,0.7l-1,1.9c-0.9-0.5-1.9-0.8-3.1-0.8
			c-0.7,0-1.3,0.1-1.7,0.3s-0.6,0.5-0.6,0.9c0,0.4,0.2,0.7,0.6,0.8c0.4,0.2,1,0.3,1.9,0.5c0.9,0.1,1.6,0.3,2.1,0.5s1,0.5,1.4,0.9
			c0.4,0.4,0.6,1,0.6,1.8c0,1-0.4,1.8-1.3,2.4c-0.9,0.6-2,0.9-3.5,0.9C259.8,488.3,259,488.2,258.1,487.9z"/>
		<path d="M277,478.5c0.8,0.8,1.2,2,1.2,3.5v6.1h-2.5v-5.8c0-0.9-0.2-1.6-0.7-2.1c-0.4-0.5-1.1-0.7-1.9-0.7c-0.9,0-1.6,0.3-2.2,0.8
			c-0.5,0.6-0.8,1.3-0.8,2.4v5.4h-2.5v-14.8h2.5v5.4c0.4-0.4,0.9-0.8,1.5-1c0.6-0.2,1.3-0.3,2-0.3
			C275.1,477.3,276.2,477.7,277,478.5z"/>
		<path d="M283.4,487.6c-0.9-0.5-1.5-1.1-2-2c-0.5-0.8-0.7-1.8-0.7-2.8s0.2-2,0.7-2.8c0.5-0.8,1.2-1.5,2-1.9s1.8-0.7,2.9-0.7
			c1.1,0,2.1,0.2,2.9,0.7s1.5,1.1,2,1.9c0.5,0.8,0.7,1.8,0.7,2.8s-0.2,2-0.7,2.8c-0.5,0.8-1.2,1.5-2,2s-1.8,0.7-2.9,0.7
			C285.2,488.3,284.2,488,283.4,487.6z M288.6,485.2c0.6-0.6,0.9-1.4,0.9-2.4s-0.3-1.8-0.9-2.4c-0.6-0.6-1.4-0.9-2.3-0.9
			s-1.7,0.3-2.3,0.9s-0.9,1.4-0.9,2.4s0.3,1.8,0.9,2.4s1.4,0.9,2.3,0.9S288,485.8,288.6,485.2z"/>
		<path d="M303.1,478c0.8,0.5,1.5,1.1,1.9,1.9c0.5,0.8,0.7,1.8,0.7,2.9s-0.2,2-0.7,2.9s-1.1,1.5-1.9,1.9c-0.8,0.5-1.8,0.7-2.8,0.7
			c-1.4,0-2.6-0.5-3.4-1.4v5.2h-2.5v-14.6h2.4v1.4c0.4-0.5,0.9-0.9,1.5-1.1c0.6-0.3,1.3-0.4,2-0.4
			C301.3,477.3,302.3,477.6,303.1,478z M302.3,485.2c0.6-0.6,0.9-1.4,0.9-2.4s-0.3-1.8-0.9-2.4s-1.3-0.9-2.3-0.9
			c-0.6,0-1.1,0.1-1.6,0.4s-0.9,0.7-1.1,1.2s-0.4,1.1-0.4,1.8s0.1,1.3,0.4,1.8s0.7,0.9,1.1,1.2s1,0.4,1.6,0.4
			C300.9,486.1,301.7,485.8,302.3,485.2z"/>
		<path d="M308.9,487.9c-0.8-0.2-1.5-0.5-2-0.9l1-1.9c0.5,0.3,1.1,0.6,1.7,0.8c0.7,0.2,1.3,0.3,2,0.3c1.5,0,2.2-0.4,2.2-1.2
			c0-0.4-0.2-0.6-0.6-0.8c-0.4-0.1-1-0.3-1.8-0.4c-0.9-0.1-1.6-0.3-2.1-0.5c-0.6-0.2-1-0.5-1.4-0.9c-0.4-0.4-0.6-1-0.6-1.8
			c0-1,0.4-1.8,1.3-2.4s2-0.9,3.4-0.9c0.7,0,1.5,0.1,2.2,0.2c0.7,0.2,1.3,0.4,1.8,0.7l-1,1.9c-0.9-0.5-1.9-0.8-3.1-0.8
			c-0.7,0-1.3,0.1-1.7,0.3s-0.6,0.5-0.6,0.9c0,0.4,0.2,0.7,0.6,0.8c0.4,0.2,1,0.3,1.9,0.5c0.9,0.1,1.6,0.3,2.1,0.5s1,0.5,1.4,0.9
			c0.4,0.4,0.6,1,0.6,1.8c0,1-0.4,1.8-1.3,2.4c-0.9,0.6-2,0.9-3.5,0.9C310.5,488.3,309.7,488.2,308.9,487.9z"/>
		<path d="M35.8,521.8c-0.3-0.3-0.5-0.7-0.5-1.2c0-0.5,0.2-0.9,0.5-1.2c0.3-0.3,0.7-0.5,1.2-0.5s0.9,0.2,1.2,0.5s0.5,0.7,0.5,1.2
			c0,0.5-0.2,0.9-0.5,1.2c-0.3,0.3-0.7,0.5-1.2,0.5C36.5,522.3,36.1,522.1,35.8,521.8z"/>
		<path d="M58.5,516.1c0.5,0.6,0.7,1.3,0.7,2.2c0,1.2-0.5,2.1-1.4,2.8c-0.9,0.7-2.3,1-4.1,1h-7v-14h6.6c1.7,0,2.9,0.3,3.8,1
			c0.9,0.6,1.3,1.5,1.3,2.7c0,0.7-0.2,1.3-0.5,1.8c-0.3,0.5-0.8,0.9-1.3,1.2C57.5,515.1,58.1,515.5,58.5,516.1z M49.4,510.2v3.9h3.7
			c0.9,0,1.6-0.2,2.1-0.5c0.5-0.3,0.7-0.8,0.7-1.4c0-0.6-0.2-1.1-0.7-1.5c-0.5-0.3-1.2-0.5-2.1-0.5H49.4z M56.6,518.1c0-1.3-1-2-3-2
			h-4.2v4h4.2C55.6,520.1,56.6,519.4,56.6,518.1z"/>
		<path d="M67.9,511.3v2.4c-0.2,0-0.4-0.1-0.6-0.1c-1,0-1.7,0.3-2.3,0.9c-0.5,0.6-0.8,1.4-0.8,2.5v5.2h-2.5v-10.7h2.4v1.6
			C64.9,511.9,66.1,511.3,67.9,511.3z"/>
		<path d="M71.8,521.6c-0.9-0.5-1.5-1.1-2-2c-0.5-0.8-0.7-1.8-0.7-2.8s0.2-2,0.7-2.8c0.5-0.8,1.2-1.5,2-1.9c0.9-0.5,1.8-0.7,2.9-0.7
			c1.1,0,2.1,0.2,2.9,0.7c0.9,0.5,1.5,1.1,2,1.9c0.5,0.8,0.7,1.8,0.7,2.8s-0.2,2-0.7,2.8c-0.5,0.8-1.2,1.5-2,2s-1.8,0.7-2.9,0.7
			C73.7,522.3,72.7,522,71.8,521.6z M77,519.2c0.6-0.6,0.9-1.4,0.9-2.4s-0.3-1.8-0.9-2.4c-0.6-0.6-1.4-0.9-2.3-0.9s-1.7,0.3-2.3,0.9
			s-0.9,1.4-0.9,2.4s0.3,1.8,0.9,2.4s1.4,0.9,2.3,0.9S76.4,519.8,77,519.2z"/>
		<path d="M84.8,521.6c-0.9-0.5-1.6-1.1-2.1-2c-0.5-0.8-0.7-1.8-0.7-2.8s0.2-2,0.7-2.8c0.5-0.8,1.2-1.5,2-1.9c0.9-0.5,1.9-0.7,3-0.7
			c1.1,0,2,0.2,2.8,0.6c0.8,0.4,1.4,1,1.8,1.8l-1.9,1.1c-0.3-0.5-0.7-0.9-1.2-1.1c-0.5-0.2-1-0.4-1.5-0.4c-0.9,0-1.7,0.3-2.3,0.9
			c-0.6,0.6-0.9,1.4-0.9,2.4s0.3,1.8,0.9,2.4c0.6,0.6,1.4,0.9,2.3,0.9c0.5,0,1-0.1,1.5-0.4c0.5-0.2,0.8-0.6,1.2-1.1l1.9,1.1
			c-0.4,0.8-1,1.4-1.8,1.9c-0.8,0.4-1.7,0.6-2.8,0.6C86.7,522.3,85.7,522,84.8,521.6z"/>
		<path d="M103.7,512.5c0.8,0.8,1.2,2,1.2,3.5v6.1h-2.5v-5.8c0-0.9-0.2-1.6-0.7-2.1c-0.4-0.5-1.1-0.7-1.9-0.7
			c-0.9,0-1.6,0.3-2.2,0.8c-0.5,0.6-0.8,1.3-0.8,2.4v5.4h-2.5v-14.8h2.5v5.4c0.4-0.4,0.9-0.8,1.5-1c0.6-0.2,1.3-0.3,2-0.3
			C101.8,511.3,102.9,511.7,103.7,512.5z"/>
		<path d="M118.4,511.4v10.7H116v-1.4c-0.4,0.5-0.9,0.9-1.5,1.1s-1.2,0.4-1.9,0.4c-1.4,0-2.6-0.4-3.4-1.2s-1.2-2-1.2-3.5v-6.1h2.5
			v5.8c0,1,0.2,1.7,0.6,2.2c0.4,0.5,1,0.7,1.9,0.7c0.9,0,1.6-0.3,2.1-0.8c0.5-0.6,0.8-1.4,0.8-2.4v-5.4H118.4z"/>
		<path d="M127.9,511.3v2.4c-0.2,0-0.4-0.1-0.6-0.1c-1,0-1.7,0.3-2.3,0.9c-0.5,0.6-0.8,1.4-0.8,2.5v5.2h-2.5v-10.7h2.4v1.6
			C124.8,511.9,126.1,511.3,127.9,511.3z"/>
		<path d="M139.9,517.6h-8.4c0.1,0.8,0.5,1.4,1.2,1.9c0.6,0.5,1.4,0.7,2.3,0.7c1.2,0,2.1-0.4,2.9-1.2l1.3,1.5
			c-0.5,0.6-1.1,1-1.8,1.3c-0.7,0.3-1.6,0.4-2.5,0.4c-1.2,0-2.2-0.2-3.1-0.7c-0.9-0.5-1.6-1.1-2.1-2c-0.5-0.8-0.7-1.8-0.7-2.8
			c0-1,0.2-2,0.7-2.8c0.5-0.8,1.1-1.5,2-1.9c0.8-0.5,1.8-0.7,2.8-0.7c1,0,2,0.2,2.8,0.7c0.8,0.5,1.5,1.1,1.9,1.9
			c0.5,0.8,0.7,1.8,0.7,2.9C139.9,517,139.9,517.3,139.9,517.6z M132.5,514c-0.6,0.5-0.9,1.1-1,1.9h6.1c-0.1-0.8-0.4-1.4-1-1.9
			c-0.5-0.5-1.2-0.7-2-0.7C133.7,513.3,133.1,513.6,132.5,514z"/>
		<path d="M143.1,521.9c-0.8-0.2-1.5-0.5-2-0.9l1-1.9c0.5,0.3,1.1,0.6,1.7,0.8c0.7,0.2,1.3,0.3,2,0.3c1.5,0,2.2-0.4,2.2-1.2
			c0-0.4-0.2-0.6-0.6-0.8c-0.4-0.1-1-0.3-1.8-0.4c-0.9-0.1-1.6-0.3-2.1-0.5c-0.6-0.2-1-0.5-1.4-0.9c-0.4-0.4-0.6-1-0.6-1.8
			c0-1,0.4-1.8,1.3-2.4c0.8-0.6,2-0.9,3.4-0.9c0.7,0,1.5,0.1,2.2,0.2c0.7,0.2,1.3,0.4,1.8,0.7l-1,1.9c-0.9-0.5-1.9-0.8-3.1-0.8
			c-0.7,0-1.3,0.1-1.7,0.3s-0.6,0.5-0.6,0.9c0,0.4,0.2,0.7,0.6,0.8c0.4,0.2,1,0.3,1.9,0.5c0.9,0.1,1.6,0.3,2.1,0.5s1,0.5,1.4,0.9
			c0.4,0.4,0.6,1,0.6,1.8c0,1-0.4,1.8-1.3,2.4c-0.9,0.6-2,0.9-3.5,0.9C144.8,522.3,143.9,522.2,143.1,521.9z"/>
		<path d="M35.8,555.8c-0.3-0.3-0.5-0.7-0.5-1.2c0-0.5,0.2-0.9,0.5-1.2c0.3-0.3,0.7-0.5,1.2-0.5s0.9,0.2,1.2,0.5s0.5,0.7,0.5,1.2
			c0,0.5-0.2,0.9-0.5,1.2c-0.3,0.3-0.7,0.5-1.2,0.5C36.5,556.3,36.1,556.1,35.8,555.8z"/>
		<path d="M46.8,542.1h6.1c1.5,0,2.8,0.3,4,0.9s2.1,1.4,2.7,2.5c0.6,1.1,1,2.3,1,3.7s-0.3,2.6-1,3.7c-0.6,1.1-1.5,1.9-2.7,2.5
			s-2.5,0.9-4,0.9h-6.1V542.1z M52.8,553.9c1,0,1.9-0.2,2.7-0.6c0.8-0.4,1.4-1,1.8-1.7s0.6-1.6,0.6-2.5s-0.2-1.8-0.6-2.5
			c-0.4-0.7-1-1.3-1.8-1.7c-0.8-0.4-1.7-0.6-2.7-0.6h-3.4v9.6H52.8z"/>
		<path d="M63.2,543.3c-0.3-0.3-0.5-0.6-0.5-1.1c0-0.4,0.2-0.8,0.5-1.1s0.7-0.4,1.1-0.4s0.8,0.1,1.1,0.4c0.3,0.3,0.5,0.6,0.5,1
			c0,0.4-0.1,0.8-0.5,1.1c-0.3,0.3-0.7,0.4-1.1,0.4C63.9,543.7,63.5,543.5,63.2,543.3z M63.1,545.4h2.5v10.7h-2.5V545.4z"/>
		<path d="M79.4,545.4v9.1c0,3.8-1.9,5.6-5.8,5.6c-1,0-2-0.1-2.9-0.4s-1.7-0.6-2.3-1.1l1.1-1.9c0.5,0.4,1.1,0.7,1.8,0.9
			s1.4,0.4,2.2,0.4c1.2,0,2-0.3,2.6-0.8s0.8-1.3,0.8-2.4v-0.6c-0.4,0.5-0.9,0.8-1.6,1.1c-0.6,0.2-1.3,0.4-2,0.4
			c-1,0-1.9-0.2-2.8-0.6c-0.8-0.4-1.5-1-1.9-1.8c-0.5-0.8-0.7-1.7-0.7-2.7c0-1,0.2-1.9,0.7-2.7c0.5-0.8,1.1-1.4,1.9-1.8
			c0.8-0.4,1.7-0.6,2.8-0.6c0.8,0,1.5,0.1,2.1,0.4s1.2,0.6,1.6,1.2v-1.4H79.4z M76.1,552.7c0.6-0.6,0.9-1.3,0.9-2.2
			c0-0.9-0.3-1.6-0.9-2.2c-0.6-0.6-1.4-0.8-2.3-0.8c-1,0-1.7,0.3-2.4,0.8c-0.6,0.6-0.9,1.3-0.9,2.2c0,0.9,0.3,1.6,0.9,2.2
			c0.6,0.6,1.4,0.9,2.4,0.9C74.7,553.5,75.5,553.2,76.1,552.7z"/>
		<path d="M82.8,543.3c-0.3-0.3-0.5-0.6-0.5-1.1c0-0.4,0.2-0.8,0.5-1.1s0.7-0.4,1.1-0.4s0.8,0.1,1.1,0.4c0.3,0.3,0.5,0.6,0.5,1
			c0,0.4-0.1,0.8-0.5,1.1c-0.3,0.3-0.7,0.4-1.1,0.4C83.5,543.7,83.1,543.5,82.8,543.3z M82.7,545.4h2.5v10.7h-2.5V545.4z"/>
		<path d="M94.9,555.5c-0.3,0.2-0.6,0.4-1.1,0.5c-0.4,0.1-0.9,0.2-1.3,0.2c-1.2,0-2.1-0.3-2.7-0.9s-1-1.5-1-2.7v-5.1h-1.8v-2h1.8
			v-2.4h2.5v2.4h2.9v2h-2.9v5.1c0,0.5,0.1,0.9,0.4,1.2s0.6,0.4,1.1,0.4c0.6,0,1-0.1,1.4-0.4L94.9,555.5z"/>
		<path d="M104.7,546.5c0.8,0.8,1.2,1.9,1.2,3.4v6.3h-2.4v-1.3c-0.3,0.5-0.7,0.8-1.3,1.1c-0.6,0.2-1.2,0.4-2.1,0.4
			c-0.8,0-1.5-0.1-2.1-0.4c-0.6-0.3-1.1-0.7-1.4-1.1c-0.3-0.5-0.5-1-0.5-1.6c0-1,0.4-1.7,1.1-2.3c0.7-0.6,1.8-0.9,3.4-0.9h2.8v-0.2
			c0-0.7-0.2-1.3-0.7-1.7c-0.4-0.4-1.1-0.6-2-0.6c-0.6,0-1.2,0.1-1.8,0.3c-0.6,0.2-1.1,0.4-1.5,0.8l-1-1.8c0.6-0.4,1.2-0.8,2-1
			c0.8-0.2,1.6-0.3,2.5-0.3C102.6,545.3,103.8,545.7,104.7,546.5z M102.4,554c0.5-0.3,0.8-0.7,1-1.2v-1.2h-2.6
			c-1.4,0-2.2,0.5-2.2,1.4c0,0.5,0.2,0.8,0.5,1.1c0.4,0.3,0.9,0.4,1.5,0.4C101.3,554.4,101.9,554.3,102.4,554z"/>
		<path d="M109.1,541.3h2.5v14.8h-2.5V541.3z"/>
		<path d="M129.1,546c0.8,0.5,1.5,1.1,1.9,1.9c0.5,0.8,0.7,1.8,0.7,2.9s-0.2,2-0.7,2.9s-1.1,1.5-1.9,1.9c-0.8,0.5-1.8,0.7-2.8,0.7
			c-1.4,0-2.6-0.5-3.4-1.4v5.2h-2.5v-14.6h2.4v1.4c0.4-0.5,0.9-0.9,1.5-1.1c0.6-0.3,1.3-0.4,2-0.4
			C127.4,545.3,128.3,545.6,129.1,546z M128.3,553.2c0.6-0.6,0.9-1.4,0.9-2.4s-0.3-1.8-0.9-2.4s-1.3-0.9-2.3-0.9
			c-0.6,0-1.1,0.1-1.6,0.4s-0.9,0.7-1.1,1.2s-0.4,1.1-0.4,1.8s0.1,1.3,0.4,1.8s0.7,0.9,1.1,1.2s1,0.4,1.6,0.4
			C127,554.1,127.7,553.8,128.3,553.2z"/>
		<path d="M134.3,543.3c-0.3-0.3-0.5-0.6-0.5-1.1c0-0.4,0.2-0.8,0.5-1.1s0.7-0.4,1.1-0.4s0.8,0.1,1.1,0.4c0.3,0.3,0.5,0.6,0.5,1
			c0,0.4-0.1,0.8-0.5,1.1c-0.3,0.3-0.7,0.4-1.1,0.4C134.9,543.7,134.6,543.5,134.3,543.3z M134.1,545.4h2.5v10.7h-2.5V545.4z"/>
		<path d="M149.9,551.6h-8.4c0.1,0.8,0.5,1.4,1.2,1.9c0.6,0.5,1.4,0.7,2.3,0.7c1.2,0,2.1-0.4,2.9-1.2l1.3,1.5
			c-0.5,0.6-1.1,1-1.8,1.3c-0.7,0.3-1.6,0.4-2.5,0.4c-1.2,0-2.2-0.2-3.1-0.7c-0.9-0.5-1.6-1.1-2.1-2c-0.5-0.8-0.7-1.8-0.7-2.8
			c0-1,0.2-2,0.7-2.8c0.5-0.8,1.1-1.5,2-1.9s1.8-0.7,2.8-0.7c1,0,2,0.2,2.8,0.7c0.8,0.5,1.5,1.1,1.9,1.9c0.5,0.8,0.7,1.8,0.7,2.9
			C150,551,149.9,551.3,149.9,551.6z M142.5,548c-0.6,0.5-0.9,1.1-1,1.9h6.1c-0.1-0.8-0.4-1.4-1-1.9c-0.5-0.5-1.2-0.7-2-0.7
			C143.8,547.3,143.1,547.6,142.5,548z"/>
		<path d="M154.3,555.6c-0.9-0.5-1.6-1.1-2.1-2c-0.5-0.8-0.7-1.8-0.7-2.8s0.2-2,0.7-2.8c0.5-0.8,1.2-1.5,2-1.9
			c0.9-0.5,1.9-0.7,3-0.7c1.1,0,2,0.2,2.8,0.6c0.8,0.4,1.4,1,1.8,1.8l-1.9,1.1c-0.3-0.5-0.7-0.9-1.2-1.1c-0.5-0.2-1-0.4-1.5-0.4
			c-0.9,0-1.7,0.3-2.3,0.9c-0.6,0.6-0.9,1.4-0.9,2.4s0.3,1.8,0.9,2.4c0.6,0.6,1.4,0.9,2.3,0.9c0.5,0,1-0.1,1.5-0.4
			c0.5-0.2,0.8-0.6,1.2-1.1l1.9,1.1c-0.4,0.8-1,1.4-1.8,1.9c-0.8,0.4-1.7,0.6-2.8,0.6C156.2,556.3,155.2,556,154.3,555.6z"/>
		<path d="M173.8,551.6h-8.4c0.1,0.8,0.5,1.4,1.2,1.9c0.6,0.5,1.4,0.7,2.3,0.7c1.2,0,2.1-0.4,2.9-1.2l1.3,1.5
			c-0.5,0.6-1.1,1-1.8,1.3c-0.7,0.3-1.6,0.4-2.5,0.4c-1.2,0-2.2-0.2-3.1-0.7c-0.9-0.5-1.6-1.1-2.1-2c-0.5-0.8-0.7-1.8-0.7-2.8
			c0-1,0.2-2,0.7-2.8c0.5-0.8,1.1-1.5,2-1.9s1.8-0.7,2.8-0.7c1,0,2,0.2,2.8,0.7c0.8,0.5,1.5,1.1,1.9,1.9c0.5,0.8,0.7,1.8,0.7,2.9
			C173.9,551,173.8,551.3,173.8,551.6z M166.4,548c-0.6,0.5-0.9,1.1-1,1.9h6.1c-0.1-0.8-0.4-1.4-1-1.9c-0.5-0.5-1.2-0.7-2-0.7
			C167.7,547.3,167,547.6,166.4,548z"/>
		<path d="M177,555.9c-0.8-0.2-1.5-0.5-2-0.9l1-1.9c0.5,0.3,1.1,0.6,1.7,0.8c0.7,0.2,1.3,0.3,2,0.3c1.5,0,2.2-0.4,2.2-1.2
			c0-0.4-0.2-0.6-0.6-0.8c-0.4-0.1-1-0.3-1.8-0.4c-0.9-0.1-1.6-0.3-2.1-0.5c-0.6-0.2-1-0.5-1.4-0.9c-0.4-0.4-0.6-1-0.6-1.8
			c0-1,0.4-1.8,1.3-2.4s2-0.9,3.4-0.9c0.7,0,1.5,0.1,2.2,0.2c0.7,0.2,1.3,0.4,1.8,0.7l-1,1.9c-0.9-0.5-1.9-0.8-3.1-0.8
			c-0.7,0-1.3,0.1-1.7,0.3s-0.6,0.5-0.6,0.9c0,0.4,0.2,0.7,0.6,0.8c0.4,0.2,1,0.3,1.9,0.5c0.9,0.1,1.6,0.3,2.1,0.5s1,0.5,1.4,0.9
			c0.4,0.4,0.6,1,0.6,1.8c0,1-0.4,1.8-1.3,2.4c-0.9,0.6-2,0.9-3.5,0.9C178.7,556.3,177.8,556.2,177,555.9z"/>
	</g>
</g>
</svg>
