<?xml version="1.0" encoding="utf-8"?>
<!-- Generator: Adobe Illustrator 25.2.3, SVG Export Plug-In . SVG Version: 6.00 Build 0)  -->
<svg version="1.1" id="Layer_1" xmlns="http://www.w3.org/2000/svg" xmlns:xlink="http://www.w3.org/1999/xlink" x="0px" y="0px"
	 viewBox="0 0 640 640" style="enable-background:new 0 0 640 640;" xml:space="preserve">
<style type="text/css">
	.st0{fill:none;stroke:#434244;stroke-width:0.5;stroke-miterlimit:10;}
	.st1{fill:#087892;}
</style>
<g id="f331f5c5-ef73-469b-bc2a-0d44302b0f9b">
	
		<image style="overflow:visible;enable-background:new    ;" width="607" height="513" xlink:href="5398141B0C582137.png"  transform="matrix(0.45 0 0 0.45 333.4 355.9398)">
	</image>
	<line class="st0" x1="34.7" y1="587.4" x2="612" y2="587.4"/>
	<g>
		<path class="st1" d="M67.2,160.6l-7.1,21h-2.3l-6.1-17.9l-6.2,17.9h-2.3l-7.1-21h2.3l6.1,18.1l6.3-18.1h2.1l6.2,18.1l6.1-18.1
			H67.2z"/>
		<path class="st1" d="M83.4,174.3H70.2c0.1,1.6,0.8,3,1.9,4c1.1,1,2.6,1.5,4.3,1.5c1,0,1.9-0.2,2.7-0.5c0.8-0.3,1.5-0.9,2.1-1.5
			l1.2,1.4c-0.7,0.8-1.6,1.5-2.6,1.9s-2.2,0.7-3.5,0.7c-1.6,0-3.1-0.3-4.3-1c-1.2-0.7-2.2-1.6-2.9-2.9c-0.7-1.2-1.1-2.6-1.1-4.1
			c0-1.5,0.3-2.9,1-4.1s1.6-2.2,2.8-2.9c1.2-0.7,2.5-1,3.9-1s2.8,0.3,3.9,1c1.2,0.7,2.1,1.6,2.7,2.8c0.7,1.2,1,2.6,1,4.2L83.4,174.3
			z M71.9,168.9c-1,1-1.6,2.2-1.8,3.8h11.2c-0.1-1.6-0.7-2.8-1.8-3.8c-1-1-2.3-1.5-3.9-1.5C74.2,167.5,73,168,71.9,168.9z"/>
		<path class="st1" d="M103.9,180.6c-0.4,0.4-0.9,0.6-1.5,0.8c-0.6,0.2-1.2,0.3-1.8,0.3c-1.5,0-2.6-0.4-3.4-1.2s-1.2-1.9-1.2-3.4
			v-9.5h-2.8v-1.8H96v-3.5h2.1v3.5h4.8v1.8h-4.8v9.4c0,0.9,0.2,1.7,0.7,2.1c0.5,0.5,1.1,0.7,2,0.7c0.4,0,0.9-0.1,1.3-0.2
			c0.4-0.1,0.8-0.3,1.1-0.6L103.9,180.6z"/>
		<path class="st1" d="M122,165.8v15.8h-2v-2.9c-0.6,1-1.3,1.7-2.3,2.2c-1,0.5-2.1,0.8-3.4,0.8c-2.1,0-3.7-0.6-4.9-1.7
			c-1.2-1.1-1.8-2.8-1.8-5.1v-9.1h2.1v8.9c0,1.7,0.4,2.9,1.2,3.8c0.8,0.9,2,1.3,3.5,1.3c1.7,0,3-0.5,3.9-1.5c1-1,1.4-2.4,1.4-4.2
			v-8.3H122z"/>
		<path class="st1" d="M132.3,166.5c1-0.5,2.2-0.8,3.7-0.8v2.1l-0.5,0c-1.7,0-3,0.5-3.9,1.5s-1.4,2.5-1.4,4.3v8H128v-15.8h2v3.1
			C130.5,167.8,131.3,167,132.3,166.5z"/>
		<path class="st1" d="M152.6,167.4c1.2,1.1,1.8,2.8,1.8,5v9.1h-2.1v-8.9c0-1.6-0.4-2.9-1.2-3.8c-0.8-0.9-2-1.3-3.5-1.3
			c-1.7,0-3,0.5-4,1.5c-1,1-1.5,2.4-1.5,4.2v8.3h-2.1v-15.8h2v2.9c0.6-1,1.4-1.7,2.4-2.2c1-0.5,2.2-0.8,3.6-0.8
			C149.8,165.7,151.4,166.2,152.6,167.4z"/>
		<path class="st1" d="M181.2,165.8l-7.9,17.7c-0.6,1.5-1.4,2.5-2.2,3.1c-0.8,0.6-1.9,0.9-3,0.9c-0.8,0-1.5-0.1-2.1-0.4
			c-0.7-0.2-1.2-0.6-1.7-1.1l1-1.6c0.8,0.8,1.8,1.2,2.9,1.2c0.7,0,1.3-0.2,1.8-0.6c0.5-0.4,1-1.1,1.4-2l0.7-1.5l-7.1-15.8h2.2
			l5.9,13.4l5.9-13.4H181.2z"/>
		<path class="st1" d="M186.1,180.7c-1.2-0.7-2.2-1.6-2.9-2.9c-0.7-1.2-1.1-2.6-1.1-4.1c0-1.5,0.3-2.9,1.1-4.1
			c0.7-1.2,1.7-2.2,2.9-2.9c1.2-0.7,2.6-1,4.1-1c1.5,0,2.9,0.3,4.1,1c1.2,0.7,2.2,1.6,2.9,2.9s1,2.6,1,4.1c0,1.5-0.3,2.9-1,4.1
			c-0.7,1.2-1.6,2.2-2.9,2.9c-1.2,0.7-2.6,1-4.1,1C188.7,181.7,187.3,181.4,186.1,180.7z M193.2,179c0.9-0.5,1.6-1.2,2.1-2.2
			c0.5-0.9,0.8-2,0.8-3.2c0-1.2-0.3-2.3-0.8-3.2c-0.5-0.9-1.2-1.7-2.1-2.2c-0.9-0.5-1.9-0.8-3-0.8s-2.1,0.3-3,0.8
			c-0.9,0.5-1.6,1.2-2.1,2.2c-0.5,0.9-0.8,2-0.8,3.2c0,1.2,0.3,2.3,0.8,3.2c0.5,0.9,1.2,1.7,2.1,2.2c0.9,0.5,1.9,0.8,3,0.8
			S192.3,179.6,193.2,179z"/>
		<path class="st1" d="M216.8,165.8v15.8h-2v-2.9c-0.6,1-1.3,1.7-2.3,2.2c-1,0.5-2.1,0.8-3.4,0.8c-2.1,0-3.7-0.6-4.9-1.7
			c-1.2-1.1-1.8-2.8-1.8-5.1v-9.1h2.1v8.9c0,1.7,0.4,2.9,1.2,3.8c0.8,0.9,2,1.3,3.5,1.3c1.7,0,3-0.5,3.9-1.5c1-1,1.4-2.4,1.4-4.2
			v-8.3H216.8z"/>
		<path class="st1" d="M227,166.5c1-0.5,2.2-0.8,3.7-0.8v2.1l-0.5,0c-1.7,0-3,0.5-3.9,1.5s-1.4,2.5-1.4,4.3v8h-2.1v-15.8h2v3.1
			C225.3,167.8,226.1,167,227,166.5z"/>
		<path class="st1" d="M254.8,166.7c1.2,0.7,2.1,1.6,2.8,2.8c0.7,1.2,1,2.6,1,4.2c0,1.6-0.3,3-1,4.2c-0.7,1.2-1.6,2.2-2.8,2.8
			c-1.2,0.7-2.5,1-4,1c-1.3,0-2.4-0.3-3.5-0.8c-1-0.5-1.9-1.3-2.5-2.3v8.8h-2.1v-21.6h2v3.1c0.6-1,1.5-1.8,2.5-2.4
			c1.1-0.6,2.2-0.8,3.6-0.8C252.3,165.7,253.6,166,254.8,166.7z M253.6,179c0.9-0.5,1.6-1.2,2.1-2.2c0.5-0.9,0.8-2,0.8-3.2
			c0-1.2-0.3-2.3-0.8-3.2c-0.5-0.9-1.2-1.7-2.1-2.2c-0.9-0.5-1.9-0.8-3-0.8c-1.1,0-2.1,0.3-3,0.8c-0.9,0.5-1.6,1.2-2.1,2.2
			c-0.5,0.9-0.8,2-0.8,3.2c0,1.2,0.3,2.3,0.8,3.2c0.5,0.9,1.2,1.7,2.1,2.2c0.9,0.5,1.9,0.8,3,0.8C251.7,179.8,252.7,179.6,253.6,179
			z"/>
		<path class="st1" d="M267.3,166.5c1-0.5,2.2-0.8,3.7-0.8v2.1l-0.5,0c-1.7,0-3,0.5-3.9,1.5s-1.4,2.5-1.4,4.3v8H263v-15.8h2v3.1
			C265.5,167.8,266.3,167,267.3,166.5z"/>
		<path class="st1" d="M277,180.7c-1.2-0.7-2.2-1.6-2.9-2.9c-0.7-1.2-1.1-2.6-1.1-4.1c0-1.5,0.3-2.9,1.1-4.1
			c0.7-1.2,1.7-2.2,2.9-2.9c1.2-0.7,2.6-1,4.1-1c1.5,0,2.9,0.3,4.1,1c1.2,0.7,2.2,1.6,2.9,2.9s1,2.6,1,4.1c0,1.5-0.3,2.9-1,4.1
			c-0.7,1.2-1.6,2.2-2.9,2.9c-1.2,0.7-2.6,1-4.1,1C279.6,181.7,278.2,181.4,277,180.7z M284.1,179c0.9-0.5,1.6-1.2,2.1-2.2
			c0.5-0.9,0.8-2,0.8-3.2c0-1.2-0.3-2.3-0.8-3.2c-0.5-0.9-1.2-1.7-2.1-2.2c-0.9-0.5-1.9-0.8-3-0.8s-2.1,0.3-3,0.8
			c-0.9,0.5-1.6,1.2-2.1,2.2c-0.5,0.9-0.8,2-0.8,3.2c0,1.2,0.3,2.3,0.8,3.2c0.5,0.9,1.2,1.7,2.1,2.2c0.9,0.5,1.9,0.8,3,0.8
			S283.2,179.6,284.1,179z"/>
		<path class="st1" d="M307.8,159.3v22.3h-2v-3.1c-0.6,1.1-1.5,1.9-2.5,2.4c-1,0.6-2.2,0.8-3.6,0.8c-1.5,0-2.8-0.3-4-1
			c-1.2-0.7-2.1-1.6-2.8-2.9c-0.7-1.2-1-2.6-1-4.2s0.3-2.9,1-4.2c0.7-1.2,1.6-2.2,2.8-2.8c1.2-0.7,2.5-1,4-1c1.3,0,2.4,0.3,3.5,0.8
			c1,0.5,1.9,1.3,2.5,2.3v-9.5H307.8z M302.9,179c0.9-0.5,1.6-1.2,2.1-2.2c0.5-0.9,0.8-2,0.8-3.2c0-1.2-0.3-2.3-0.8-3.2
			c-0.5-0.9-1.2-1.7-2.1-2.2c-0.9-0.5-1.9-0.8-3-0.8c-1.1,0-2.1,0.3-3,0.8c-0.9,0.5-1.6,1.2-2.1,2.2c-0.5,0.9-0.8,2-0.8,3.2
			c0,1.2,0.3,2.3,0.8,3.2c0.5,0.9,1.2,1.7,2.1,2.2c0.9,0.5,1.9,0.8,3,0.8C301,179.8,302,179.6,302.9,179z"/>
		<path class="st1" d="M328,165.8v15.8h-2v-2.9c-0.6,1-1.3,1.7-2.3,2.2c-1,0.5-2.1,0.8-3.4,0.8c-2.1,0-3.7-0.6-4.9-1.7
			c-1.2-1.1-1.8-2.8-1.8-5.1v-9.1h2.1v8.9c0,1.7,0.4,2.9,1.2,3.8c0.8,0.9,2,1.3,3.5,1.3c1.7,0,3-0.5,3.9-1.5c1-1,1.4-2.4,1.4-4.2
			v-8.3H328z"/>
		<path class="st1" d="M336.3,180.7c-1.2-0.7-2.2-1.6-2.9-2.9s-1-2.6-1-4.2c0-1.5,0.3-2.9,1-4.1s1.7-2.2,2.9-2.9
			c1.2-0.7,2.6-1,4.2-1c1.4,0,2.6,0.3,3.6,0.8c1.1,0.5,1.9,1.3,2.5,2.3l-1.6,1.1c-0.5-0.8-1.2-1.4-2-1.8s-1.7-0.6-2.6-0.6
			c-1.1,0-2.2,0.3-3.1,0.8c-0.9,0.5-1.6,1.2-2.1,2.2c-0.5,0.9-0.8,2-0.8,3.2c0,1.2,0.3,2.3,0.8,3.2c0.5,0.9,1.2,1.6,2.1,2.2
			c0.9,0.5,1.9,0.8,3.1,0.8c0.9,0,1.8-0.2,2.6-0.6c0.8-0.4,1.5-1,2-1.7l1.6,1.1c-0.6,1-1.5,1.8-2.6,2.3c-1.1,0.5-2.3,0.8-3.6,0.8
			C339,181.7,337.6,181.4,336.3,180.7z"/>
		<path class="st1" d="M359.4,180.6c-0.4,0.4-0.9,0.6-1.5,0.8c-0.6,0.2-1.2,0.3-1.8,0.3c-1.5,0-2.6-0.4-3.4-1.2
			c-0.8-0.8-1.2-1.9-1.2-3.4v-9.5h-2.8v-1.8h2.8v-3.5h2.1v3.5h4.8v1.8h-4.8v9.4c0,0.9,0.2,1.7,0.7,2.1c0.5,0.5,1.1,0.7,2,0.7
			c0.4,0,0.9-0.1,1.3-0.2c0.4-0.1,0.8-0.3,1.1-0.6L359.4,180.6z"/>
		<path class="st1" d="M373.4,180.7c-1.2-0.7-2.2-1.6-2.9-2.9c-0.7-1.2-1-2.6-1-4.1c0-1.5,0.3-2.9,1-4.1s1.7-2.2,2.9-2.9
			c1.2-0.7,2.6-1,4.1-1c1.5,0,2.9,0.3,4.1,1c1.2,0.7,2.2,1.6,2.9,2.9c0.7,1.2,1,2.6,1,4.1c0,1.5-0.3,2.9-1,4.1
			c-0.7,1.2-1.6,2.2-2.9,2.9c-1.2,0.7-2.6,1-4.1,1C376,181.7,374.6,181.4,373.4,180.7z M380.5,179c0.9-0.5,1.6-1.2,2.1-2.2
			c0.5-0.9,0.8-2,0.8-3.2c0-1.2-0.2-2.3-0.8-3.2c-0.5-0.9-1.2-1.7-2.1-2.2c-0.9-0.5-1.9-0.8-3-0.8s-2.1,0.3-3,0.8
			c-0.9,0.5-1.6,1.2-2.1,2.2c-0.5,0.9-0.8,2-0.8,3.2c0,1.2,0.3,2.3,0.8,3.2c0.5,0.9,1.2,1.7,2.1,2.2c0.9,0.5,1.9,0.8,3,0.8
			S379.7,179.6,380.5,179z"/>
		<path class="st1" d="M394.2,166.5c1-0.5,2.2-0.8,3.7-0.8v2.1l-0.5,0c-1.7,0-3,0.5-3.9,1.5s-1.4,2.5-1.4,4.3v8h-2.1v-15.8h2v3.1
			C392.4,167.8,393.2,167,394.2,166.5z"/>
		<path class="st1" d="M410.3,181.1c-1.2-0.4-2.1-0.8-2.7-1.4l1-1.7c0.7,0.5,1.5,0.9,2.5,1.3c1,0.3,2,0.5,3.1,0.5
			c1.4,0,2.5-0.2,3.2-0.7c0.7-0.5,1-1.1,1-1.9c0-0.6-0.2-1-0.6-1.4c-0.4-0.3-0.9-0.6-1.4-0.8c-0.6-0.2-1.4-0.3-2.3-0.5
			c-1.3-0.2-2.3-0.5-3.1-0.7s-1.4-0.7-2-1.3c-0.5-0.6-0.8-1.4-0.8-2.5c0-1.3,0.5-2.4,1.7-3.2c1.1-0.8,2.6-1.3,4.6-1.3
			c1,0,2,0.1,3.1,0.4c1,0.3,1.9,0.6,2.5,1.1l-0.9,1.7c-1.3-0.9-2.9-1.3-4.7-1.3c-1.4,0-2.4,0.2-3.1,0.7c-0.7,0.5-1,1.1-1,1.9
			c0,0.6,0.2,1.1,0.6,1.4c0.4,0.4,0.9,0.6,1.5,0.8c0.6,0.2,1.4,0.3,2.4,0.5c1.3,0.2,2.3,0.5,3,0.7c0.8,0.2,1.4,0.6,2,1.2
			s0.8,1.4,0.8,2.4c0,1.4-0.6,2.5-1.7,3.3c-1.2,0.8-2.7,1.2-4.8,1.2C412.7,181.7,411.5,181.5,410.3,181.1z"/>
		<path class="st1" d="M438.2,174.3H425c0.1,1.6,0.8,3,1.9,4c1.1,1,2.6,1.5,4.3,1.5c1,0,1.9-0.2,2.7-0.5c0.8-0.3,1.5-0.9,2.1-1.5
			l1.2,1.4c-0.7,0.8-1.6,1.5-2.6,1.9s-2.2,0.7-3.5,0.7c-1.6,0-3.1-0.3-4.3-1c-1.3-0.7-2.2-1.6-2.9-2.9c-0.7-1.2-1-2.6-1-4.1
			c0-1.5,0.3-2.9,1-4.1s1.6-2.2,2.8-2.9c1.2-0.7,2.5-1,3.9-1s2.8,0.3,3.9,1c1.2,0.7,2.1,1.6,2.7,2.8c0.7,1.2,1,2.6,1,4.2
			L438.2,174.3z M426.7,168.9c-1,1-1.6,2.2-1.8,3.8h11.2c-0.1-1.6-0.7-2.8-1.8-3.8c-1-1-2.3-1.5-3.9-1.5
			C429.1,167.5,427.8,168,426.7,168.9z"/>
		<path class="st1" d="M446.8,166.5c1-0.5,2.2-0.8,3.7-0.8v2.1l-0.5,0c-1.7,0-3,0.5-3.9,1.5s-1.4,2.5-1.4,4.3v8h-2.1v-15.8h2v3.1
			C445.1,167.8,445.9,167,446.8,166.5z"/>
		<path class="st1" d="M468.3,165.8l-7,15.8h-2.2l-7-15.8h2.2l5.9,13.4l6-13.4H468.3z"/>
		<path class="st1" d="M471.3,161.9c-0.3-0.3-0.5-0.7-0.5-1.1c0-0.4,0.1-0.8,0.5-1.1c0.3-0.3,0.7-0.4,1.1-0.4c0.4,0,0.8,0.1,1.1,0.4
			c0.3,0.3,0.5,0.6,0.5,1c0,0.4-0.2,0.8-0.5,1.1c-0.3,0.3-0.7,0.5-1.1,0.5C472,162.3,471.6,162.2,471.3,161.9z M471.3,165.8h2.1
			v15.8h-2.1V165.8z"/>
		<path class="st1" d="M481.7,180.7c-1.2-0.7-2.2-1.6-2.9-2.9s-1-2.6-1-4.2c0-1.5,0.3-2.9,1-4.1s1.7-2.2,2.9-2.9
			c1.2-0.7,2.6-1,4.2-1c1.4,0,2.6,0.3,3.6,0.8c1.1,0.5,1.9,1.3,2.5,2.3l-1.6,1.1c-0.5-0.8-1.2-1.4-2-1.8s-1.7-0.6-2.6-0.6
			c-1.1,0-2.2,0.3-3.1,0.8c-0.9,0.5-1.6,1.2-2.1,2.2c-0.5,0.9-0.8,2-0.8,3.2c0,1.2,0.3,2.3,0.8,3.2c0.5,0.9,1.2,1.6,2.1,2.2
			c0.9,0.5,1.9,0.8,3.1,0.8c0.9,0,1.8-0.2,2.6-0.6c0.8-0.4,1.5-1,2-1.7l1.6,1.1c-0.6,1-1.5,1.8-2.6,2.3c-1.1,0.5-2.3,0.8-3.6,0.8
			C484.4,181.7,483,181.4,481.7,180.7z"/>
		<path class="st1" d="M509.7,174.3h-13.2c0.1,1.6,0.8,3,1.9,4c1.1,1,2.6,1.5,4.3,1.5c1,0,1.9-0.2,2.7-0.5c0.8-0.3,1.5-0.9,2.1-1.5
			l1.2,1.4c-0.7,0.8-1.6,1.5-2.6,1.9s-2.2,0.7-3.5,0.7c-1.6,0-3.1-0.3-4.3-1c-1.3-0.7-2.2-1.6-2.9-2.9c-0.7-1.2-1-2.6-1-4.1
			c0-1.5,0.3-2.9,1-4.1s1.6-2.2,2.8-2.9c1.2-0.7,2.5-1,3.9-1s2.8,0.3,3.9,1c1.2,0.7,2.1,1.6,2.7,2.8c0.7,1.2,1,2.6,1,4.2
			L509.7,174.3z M498.3,168.9c-1,1-1.6,2.2-1.8,3.8h11.2c-0.1-1.6-0.7-2.8-1.8-3.8c-1-1-2.3-1.5-3.9-1.5
			C500.6,167.5,499.3,168,498.3,168.9z"/>
		<path class="st1" d="M522,161.9c-0.3-0.3-0.5-0.7-0.5-1.1c0-0.4,0.1-0.8,0.5-1.1c0.3-0.3,0.7-0.4,1.1-0.4c0.4,0,0.8,0.1,1.1,0.4
			c0.3,0.3,0.5,0.6,0.5,1c0,0.4-0.2,0.8-0.5,1.1c-0.3,0.3-0.7,0.5-1.1,0.5C522.6,162.3,522.3,162.2,522,161.9z M522,165.8h2.1v15.8
			H522V165.8z"/>
		<path class="st1" d="M542.8,167.4c1.2,1.1,1.8,2.8,1.8,5v9.1h-2.1v-8.9c0-1.6-0.4-2.9-1.2-3.8s-2-1.3-3.5-1.3c-1.7,0-3,0.5-4,1.5
			s-1.5,2.4-1.5,4.2v8.3h-2.1v-15.8h2v2.9c0.6-1,1.4-1.7,2.4-2.2c1-0.5,2.2-0.8,3.6-0.8C540.1,165.7,541.6,166.2,542.8,167.4z"/>
		<path class="st1" d="M558.7,180.6c-0.4,0.4-0.9,0.6-1.5,0.8c-0.6,0.2-1.2,0.3-1.8,0.3c-1.5,0-2.6-0.4-3.4-1.2
			c-0.8-0.8-1.2-1.9-1.2-3.4v-9.5h-2.8v-1.8h2.8v-3.5h2.1v3.5h4.8v1.8h-4.8v9.4c0,0.9,0.2,1.7,0.7,2.1c0.5,0.5,1.1,0.7,2,0.7
			c0.4,0,0.9-0.1,1.3-0.2c0.4-0.1,0.8-0.3,1.1-0.6L558.7,180.6z"/>
		<path class="st1" d="M564.3,180.7c-1.2-0.7-2.2-1.6-2.9-2.9c-0.7-1.2-1-2.6-1-4.1c0-1.5,0.3-2.9,1-4.1s1.7-2.2,2.9-2.9
			c1.2-0.7,2.6-1,4.1-1c1.5,0,2.9,0.3,4.1,1c1.2,0.7,2.2,1.6,2.9,2.9c0.7,1.2,1,2.6,1,4.1c0,1.5-0.3,2.9-1,4.1
			c-0.7,1.2-1.6,2.2-2.9,2.9c-1.2,0.7-2.6,1-4.1,1C566.9,181.7,565.5,181.4,564.3,180.7z M571.4,179c0.9-0.5,1.6-1.2,2.1-2.2
			c0.5-0.9,0.8-2,0.8-3.2c0-1.2-0.2-2.3-0.8-3.2c-0.5-0.9-1.2-1.7-2.1-2.2c-0.9-0.5-1.9-0.8-3-0.8s-2.1,0.3-3,0.8
			c-0.9,0.5-1.6,1.2-2.1,2.2c-0.5,0.9-0.8,2-0.8,3.2c0,1.2,0.3,2.3,0.8,3.2c0.5,0.9,1.2,1.7,2.1,2.2c0.9,0.5,1.9,0.8,3,0.8
			S570.5,179.6,571.4,179z"/>
		<path class="st1" d="M48.2,203.2c1.1,1,1.6,2.6,1.6,4.6v9.8h-2v-2.5c-0.5,0.8-1.2,1.5-2.1,1.9c-0.9,0.5-2,0.7-3.3,0.7
			c-1.8,0-3.2-0.4-4.2-1.3c-1-0.8-1.6-2-1.6-3.3c0-1.3,0.5-2.4,1.5-3.2c1-0.8,2.5-1.2,4.6-1.2h5v-1c0-1.4-0.4-2.4-1.1-3.1
			c-0.8-0.7-1.9-1.1-3.3-1.1c-1,0-2,0.2-2.9,0.5s-1.7,0.8-2.4,1.4l-1-1.6c0.8-0.7,1.8-1.2,2.9-1.6c1.1-0.4,2.3-0.6,3.5-0.6
			C45.5,201.7,47.1,202.2,48.2,203.2z M45.8,215.2c0.9-0.5,1.5-1.3,1.9-2.4v-2.6h-5c-2.7,0-4,0.9-4,2.8c0,0.9,0.3,1.6,1,2.2
			c0.7,0.5,1.7,0.8,2.9,0.8C43.9,216,45,215.7,45.8,215.2z"/>
		<path class="st1" d="M64.2,217.3c-1.2-0.3-2.2-0.8-3-1.3l1.4-2.9c0.7,0.5,1.6,0.9,2.6,1.2c1,0.3,2,0.4,3,0.4
			c2.2,0,3.4-0.6,3.4-1.8c0-0.6-0.3-0.9-0.9-1.2c-0.6-0.2-1.5-0.4-2.7-0.6c-1.3-0.2-2.4-0.4-3.2-0.7c-0.8-0.3-1.6-0.7-2.2-1.4
			c-0.6-0.6-0.9-1.6-0.9-2.7c0-1.5,0.6-2.7,1.9-3.6c1.3-0.9,3-1.4,5.1-1.4c1.1,0,2.2,0.1,3.3,0.4c1.1,0.3,2,0.6,2.7,1l-1.4,2.8
			c-1.4-0.8-2.9-1.2-4.6-1.2c-1.1,0-1.9,0.2-2.5,0.5c-0.6,0.3-0.9,0.8-0.9,1.3c0,0.6,0.3,1,0.9,1.3c0.6,0.3,1.6,0.5,2.8,0.7
			c1.3,0.2,2.3,0.4,3.1,0.7c0.8,0.3,1.5,0.7,2.1,1.3c0.6,0.6,0.9,1.5,0.9,2.6c0,1.5-0.6,2.7-1.9,3.6c-1.3,0.9-3.1,1.4-5.3,1.4
			C66.7,217.8,65.4,217.6,64.2,217.3z"/>
		<path class="st1" d="M90,203c1.2,1.1,1.9,2.8,1.9,5.1v9.4h-3.5v-2c-0.5,0.7-1.1,1.2-2,1.6c-0.9,0.4-1.9,0.6-3.1,0.6
			s-2.2-0.2-3.1-0.6s-1.6-1-2.1-1.7c-0.5-0.7-0.7-1.6-0.7-2.5c0-1.4,0.5-2.6,1.6-3.5c1.1-0.9,2.8-1.3,5.1-1.3h4.1V208
			c0-1.1-0.3-2-1-2.6c-0.7-0.6-1.7-0.9-3-0.9c-0.9,0-1.8,0.1-2.7,0.4c-0.9,0.3-1.6,0.7-2.2,1.2l-1.5-2.7c0.8-0.6,1.9-1.1,3-1.5
			c1.2-0.3,2.4-0.5,3.8-0.5C86.9,201.4,88.8,201.9,90,203z M86.6,214.4c0.7-0.4,1.2-1,1.5-1.8v-1.9h-3.9c-2.2,0-3.2,0.7-3.2,2.1
			c0,0.7,0.3,1.2,0.8,1.6c0.5,0.4,1.3,0.6,2.2,0.6C85,215,85.9,214.8,86.6,214.4z"/>
		<path class="st1" d="M96.7,195.3h3.8v22.3h-3.8V195.3z"/>
		<path class="st1" d="M120.3,210.7h-12.6c0.2,1.2,0.8,2.1,1.7,2.8c0.9,0.7,2.1,1,3.5,1c1.8,0,3.2-0.6,4.4-1.7l2,2.3
			c-0.7,0.9-1.6,1.5-2.7,1.9c-1.1,0.4-2.3,0.7-3.7,0.7c-1.8,0-3.3-0.3-4.7-1s-2.4-1.7-3.1-2.9c-0.7-1.2-1.1-2.7-1.1-4.2
			c0-1.6,0.4-3,1.1-4.2c0.7-1.2,1.7-2.2,3-2.9c1.3-0.7,2.7-1.1,4.3-1.1c1.6,0,3,0.3,4.2,1s2.2,1.7,2.9,2.9s1,2.7,1,4.3
			C120.4,209.9,120.4,210.3,120.3,210.7z M109.3,205.4c-0.8,0.7-1.3,1.7-1.5,2.8h9.1c-0.2-1.2-0.7-2.1-1.5-2.8
			c-0.8-0.7-1.8-1.1-3.1-1.1C111.1,204.4,110.1,204.7,109.3,205.4z"/>
		<path class="st1" d="M125.1,217.3c-1.2-0.3-2.2-0.8-3-1.3l1.4-2.9c0.7,0.5,1.6,0.9,2.6,1.2c1,0.3,2,0.4,3,0.4
			c2.2,0,3.4-0.6,3.4-1.8c0-0.6-0.3-0.9-0.9-1.2c-0.6-0.2-1.5-0.4-2.7-0.6c-1.3-0.2-2.4-0.4-3.2-0.7c-0.8-0.3-1.6-0.7-2.2-1.4
			c-0.6-0.6-0.9-1.6-0.9-2.7c0-1.5,0.6-2.7,1.9-3.6c1.3-0.9,3-1.4,5.1-1.4c1.1,0,2.2,0.1,3.3,0.4c1.1,0.3,2,0.6,2.7,1l-1.4,2.8
			c-1.4-0.8-2.9-1.2-4.6-1.2c-1.1,0-1.9,0.2-2.5,0.5c-0.6,0.3-0.9,0.8-0.9,1.3c0,0.6,0.3,1,0.9,1.3c0.6,0.3,1.6,0.5,2.8,0.7
			c1.3,0.2,2.3,0.4,3.1,0.7c0.8,0.3,1.5,0.7,2.1,1.3c0.6,0.6,0.9,1.5,0.9,2.6c0,1.5-0.6,2.7-1.9,3.6c-1.3,0.9-3.1,1.4-5.3,1.4
			C127.7,217.8,126.4,217.6,125.1,217.3z"/>
		<path class="st1" d="M150.6,216.7c-1.3-0.7-2.3-1.7-3-2.9c-0.7-1.2-1.1-2.7-1.1-4.2s0.4-3,1.1-4.2c0.7-1.2,1.7-2.2,3-2.9
			c1.3-0.7,2.8-1.1,4.4-1.1c1.6,0,3.1,0.4,4.4,1.1c1.3,0.7,2.3,1.7,3,2.9c0.7,1.2,1.1,2.7,1.1,4.2s-0.4,3-1.1,4.2
			c-0.7,1.3-1.7,2.2-3,2.9c-1.3,0.7-2.8,1-4.4,1C153.3,217.8,151.9,217.4,150.6,216.7z M158.4,213.2c0.9-0.9,1.4-2.1,1.4-3.6
			s-0.5-2.7-1.4-3.6c-0.9-0.9-2-1.4-3.4-1.4c-1.4,0-2.5,0.5-3.4,1.4c-0.9,0.9-1.3,2.1-1.3,3.6s0.4,2.7,1.3,3.6
			c0.9,0.9,2,1.4,3.4,1.4C156.3,214.6,157.5,214.1,158.4,213.2z"/>
		<path class="st1" d="M180.2,202.4c1.2,0.7,2.2,1.6,2.9,2.9c0.7,1.2,1.1,2.7,1.1,4.3c0,1.6-0.4,3.1-1.1,4.3
			c-0.7,1.2-1.7,2.2-2.9,2.9c-1.2,0.7-2.6,1-4.2,1c-2.2,0-3.9-0.7-5.1-2.2v7.8h-3.8v-21.8h3.6v2.1c0.6-0.8,1.4-1.3,2.3-1.7
			c0.9-0.4,1.9-0.6,3-0.6C177.5,201.4,178.9,201.7,180.2,202.4z M179,213.2c0.9-0.9,1.3-2.1,1.3-3.6s-0.4-2.7-1.3-3.6
			c-0.9-0.9-2-1.4-3.4-1.4c-0.9,0-1.7,0.2-2.4,0.6c-0.7,0.4-1.3,1-1.7,1.8c-0.4,0.8-0.6,1.6-0.6,2.6s0.2,1.9,0.6,2.6
			c0.4,0.8,1,1.3,1.7,1.8c0.7,0.4,1.5,0.6,2.4,0.6C176.9,214.6,178.1,214.1,179,213.2z"/>
		<path class="st1" d="M200.7,202.4c1.2,0.7,2.2,1.6,2.9,2.9c0.7,1.2,1.1,2.7,1.1,4.3c0,1.6-0.4,3.1-1.1,4.3
			c-0.7,1.2-1.7,2.2-2.9,2.9c-1.2,0.7-2.6,1-4.2,1c-2.2,0-3.9-0.7-5.1-2.2v7.8h-3.8v-21.8h3.6v2.1c0.6-0.8,1.4-1.3,2.3-1.7
			c0.9-0.4,1.9-0.6,3-0.6C198.1,201.4,199.5,201.7,200.7,202.4z M199.5,213.2c0.9-0.9,1.3-2.1,1.3-3.6s-0.4-2.7-1.3-3.6
			c-0.9-0.9-2-1.4-3.4-1.4c-0.9,0-1.7,0.2-2.4,0.6c-0.7,0.4-1.3,1-1.7,1.8c-0.4,0.8-0.6,1.6-0.6,2.6s0.2,1.9,0.6,2.6
			c0.4,0.8,1,1.3,1.7,1.8c0.7,0.4,1.5,0.6,2.4,0.6C197.5,214.6,198.6,214.1,199.5,213.2z"/>
		<path class="st1" d="M211.1,216.7c-1.3-0.7-2.3-1.7-3-2.9c-0.7-1.2-1.1-2.7-1.1-4.2s0.4-3,1.1-4.2c0.7-1.2,1.7-2.2,3-2.9
			c1.3-0.7,2.8-1.1,4.4-1.1c1.6,0,3.1,0.4,4.4,1.1c1.3,0.7,2.3,1.7,3,2.9c0.7,1.2,1.1,2.7,1.1,4.2s-0.4,3-1.1,4.2
			c-0.7,1.3-1.7,2.2-3,2.9c-1.3,0.7-2.8,1-4.4,1C213.8,217.8,212.4,217.4,211.1,216.7z M218.9,213.2c0.9-0.9,1.4-2.1,1.4-3.6
			s-0.5-2.7-1.4-3.6c-0.9-0.9-2-1.4-3.4-1.4c-1.4,0-2.5,0.5-3.4,1.4c-0.9,0.9-1.3,2.1-1.3,3.6s0.4,2.7,1.3,3.6
			c0.9,0.9,2,1.4,3.4,1.4C216.8,214.6,218,214.1,218.9,213.2z"/>
		<path class="st1" d="M236.9,201.4v3.6c-0.3-0.1-0.6-0.1-0.9-0.1c-1.5,0-2.6,0.4-3.4,1.3c-0.8,0.9-1.2,2.1-1.2,3.7v7.8h-3.8v-16
			h3.6v2.3C232.2,202.2,234.1,201.4,236.9,201.4z"/>
		<path class="st1" d="M250.3,216.7c-0.4,0.4-1,0.6-1.6,0.8c-0.6,0.2-1.3,0.3-2,0.3c-1.8,0-3.1-0.5-4.1-1.4s-1.4-2.3-1.4-4v-7.7
			h-2.6v-3h2.6V198h3.8v3.7h4.3v3h-4.3v7.6c0,0.8,0.2,1.4,0.6,1.8c0.4,0.4,0.9,0.6,1.6,0.6c0.8,0,1.5-0.2,2.1-0.7L250.3,216.7z"/>
		<path class="st1" d="M268.9,201.5v16h-3.6v-2c-0.6,0.7-1.4,1.3-2.2,1.7s-1.9,0.6-2.9,0.6c-2.1,0-3.8-0.6-5.1-1.8
			c-1.2-1.2-1.8-3-1.8-5.3v-9.1h3.8v8.6c0,1.4,0.3,2.5,1,3.2s1.6,1.1,2.8,1.1c1.3,0,2.4-0.4,3.2-1.2c0.8-0.8,1.2-2,1.2-3.6v-8.1
			H268.9z"/>
		<path class="st1" d="M287.7,203.1c1.2,1.2,1.8,2.9,1.8,5.2v9.2h-3.8v-8.7c0-1.4-0.3-2.5-1-3.2c-0.7-0.7-1.6-1.1-2.8-1.1
			c-1.4,0-2.5,0.4-3.3,1.2c-0.8,0.8-1.2,2-1.2,3.6v8.1h-3.8v-16h3.6v2.1c0.6-0.7,1.4-1.3,2.3-1.7c0.9-0.4,2-0.6,3.2-0.6
			C284.9,201.4,286.5,201.9,287.7,203.1z"/>
		<path class="st1" d="M294.5,198.2c-0.5-0.4-0.7-1-0.7-1.6c0-0.6,0.2-1.2,0.7-1.6c0.5-0.4,1-0.6,1.7-0.6c0.7,0,1.2,0.2,1.7,0.6
			c0.5,0.4,0.7,0.9,0.7,1.5c0,0.7-0.2,1.2-0.7,1.7c-0.5,0.5-1,0.7-1.7,0.7C295.6,198.9,295,198.7,294.5,198.2z M294.3,201.5h3.8v16
			h-3.8V201.5z"/>
		<path class="st1" d="M312.6,216.7c-0.4,0.4-1,0.6-1.6,0.8c-0.6,0.2-1.3,0.3-2,0.3c-1.8,0-3.1-0.5-4.1-1.4s-1.4-2.3-1.4-4v-7.7
			h-2.6v-3h2.6V198h3.8v3.7h4.3v3h-4.3v7.6c0,0.8,0.2,1.4,0.6,1.8c0.4,0.4,0.9,0.6,1.6,0.6c0.8,0,1.5-0.2,2.1-0.7L312.6,216.7z"/>
		<path class="st1" d="M330.4,201.5l-7.5,17.3c-0.7,1.7-1.5,3-2.5,3.7c-1,0.7-2.2,1.1-3.6,1.1c-0.8,0-1.6-0.1-2.4-0.4
			c-0.8-0.3-1.4-0.6-1.9-1.1l1.5-2.8c0.4,0.3,0.8,0.6,1.3,0.8c0.5,0.2,1,0.3,1.5,0.3c0.7,0,1.2-0.2,1.6-0.5c0.4-0.3,0.8-0.9,1.2-1.7
			l0.3-0.6l-7-16.1h3.9l5,11.9l5.1-11.9H330.4z"/>
		<path class="st1" d="M331.2,217.1c-0.5-0.5-0.7-1.1-0.7-1.8c0-0.7,0.2-1.3,0.7-1.8c0.5-0.5,1.1-0.7,1.8-0.7c0.7,0,1.3,0.2,1.8,0.7
			c0.5,0.5,0.7,1.1,0.7,1.8c0,0.7-0.2,1.3-0.7,1.8c-0.5,0.5-1.1,0.7-1.7,0.7C332.3,217.8,331.7,217.5,331.2,217.1z"/>
		<path class="st1" d="M67.2,268.6l-7.1,21h-2.3l-6.1-17.9l-6.2,17.9h-2.3l-7.1-21h2.3l6.1,18.1l6.3-18.1h2.1l6.2,18.1l6.1-18.1
			H67.2z"/>
		<path class="st1" d="M83.4,282.3H70.2c0.1,1.6,0.8,3,1.9,4c1.1,1,2.6,1.5,4.3,1.5c1,0,1.9-0.2,2.7-0.5c0.8-0.3,1.5-0.9,2.1-1.5
			l1.2,1.4c-0.7,0.8-1.6,1.5-2.6,1.9s-2.2,0.7-3.5,0.7c-1.6,0-3.1-0.3-4.3-1c-1.2-0.7-2.2-1.6-2.9-2.9c-0.7-1.2-1.1-2.6-1.1-4.1
			c0-1.5,0.3-2.9,1-4.1s1.6-2.2,2.8-2.9c1.2-0.7,2.5-1,3.9-1s2.8,0.3,3.9,1c1.2,0.7,2.1,1.6,2.7,2.8c0.7,1.2,1,2.6,1,4.2L83.4,282.3
			z M71.9,276.9c-1,1-1.6,2.2-1.8,3.8h11.2c-0.1-1.6-0.7-2.8-1.8-3.8c-1-1-2.3-1.5-3.9-1.5C74.2,275.5,73,276,71.9,276.9z"/>
		<path class="st1" d="M110.2,273.8v13.9c0,2.7-0.7,4.7-2,6c-1.3,1.3-3.3,1.9-5.9,1.9c-1.5,0-2.8-0.2-4.2-0.6
			c-1.3-0.4-2.4-1-3.2-1.8l1.1-1.6c0.8,0.7,1.7,1.2,2.8,1.6c1.1,0.4,2.2,0.6,3.4,0.6c2,0,3.5-0.5,4.4-1.4c0.9-0.9,1.4-2.4,1.4-4.3
			v-2c-0.7,1-1.5,1.8-2.6,2.3c-1.1,0.5-2.3,0.8-3.6,0.8c-1.5,0-2.8-0.3-4-1c-1.2-0.6-2.2-1.6-2.9-2.7c-0.7-1.2-1-2.5-1-4
			s0.3-2.8,1-4c0.7-1.2,1.6-2.1,2.8-2.7s2.5-1,4-1c1.3,0,2.6,0.3,3.6,0.8c1.1,0.5,1.9,1.3,2.6,2.3v-3H110.2z M105.3,286.3
			c0.9-0.5,1.6-1.2,2.1-2.1c0.5-0.9,0.8-1.9,0.8-3s-0.3-2.1-0.8-3c-0.5-0.9-1.2-1.5-2.1-2c-0.9-0.5-1.9-0.7-3.1-0.7
			c-1.1,0-2.2,0.2-3.1,0.7c-0.9,0.5-1.6,1.2-2.1,2c-0.5,0.9-0.8,1.9-0.8,3s0.3,2.1,0.8,3c0.5,0.9,1.2,1.6,2.1,2.1
			c0.9,0.5,1.9,0.7,3.1,0.7C103.3,287.1,104.3,286.8,105.3,286.3z"/>
		<path class="st1" d="M129.9,282.3h-13.2c0.1,1.6,0.8,3,1.9,4c1.1,1,2.6,1.5,4.3,1.5c1,0,1.9-0.2,2.7-0.5c0.8-0.3,1.5-0.9,2.1-1.5
			l1.2,1.4c-0.7,0.8-1.6,1.5-2.6,1.9s-2.2,0.7-3.5,0.7c-1.6,0-3.1-0.3-4.3-1c-1.2-0.7-2.2-1.6-2.9-2.9c-0.7-1.2-1.1-2.6-1.1-4.1
			c0-1.5,0.3-2.9,1-4.1s1.6-2.2,2.8-2.9c1.2-0.7,2.5-1,3.9-1s2.8,0.3,3.9,1c1.2,0.7,2.1,1.6,2.7,2.8c0.7,1.2,1,2.6,1,4.2
			L129.9,282.3z M118.5,276.9c-1,1-1.6,2.2-1.8,3.8h11.2c-0.1-1.6-0.7-2.8-1.8-3.8c-1-1-2.3-1.5-3.9-1.5
			C120.8,275.5,119.5,276,118.5,276.9z"/>
		<path class="st1" d="M147.1,275.4c1.2,1.1,1.8,2.8,1.8,5v9.1h-2.1v-8.9c0-1.6-0.4-2.9-1.2-3.8c-0.8-0.9-2-1.3-3.5-1.3
			c-1.7,0-3,0.5-4,1.5c-1,1-1.5,2.4-1.5,4.2v8.3h-2.1v-15.8h2v2.9c0.6-1,1.4-1.7,2.4-2.2c1-0.5,2.2-0.8,3.6-0.8
			C144.3,273.7,145.9,274.2,147.1,275.4z"/>
		<path class="st1" d="M168.4,282.3h-13.2c0.1,1.6,0.8,3,1.9,4c1.1,1,2.6,1.5,4.3,1.5c1,0,1.9-0.2,2.7-0.5c0.8-0.3,1.5-0.9,2.1-1.5
			l1.2,1.4c-0.7,0.8-1.6,1.5-2.6,1.9s-2.2,0.7-3.5,0.7c-1.6,0-3.1-0.3-4.3-1c-1.2-0.7-2.2-1.6-2.9-2.9c-0.7-1.2-1.1-2.6-1.1-4.1
			c0-1.5,0.3-2.9,1-4.1s1.6-2.2,2.8-2.9c1.2-0.7,2.5-1,3.9-1s2.8,0.3,3.9,1c1.2,0.7,2.1,1.6,2.7,2.8c0.7,1.2,1,2.6,1,4.2
			L168.4,282.3z M157,276.9c-1,1-1.6,2.2-1.8,3.8h11.2c-0.1-1.6-0.7-2.8-1.8-3.8c-1-1-2.3-1.5-3.9-1.5
			C159.3,275.5,158,276,157,276.9z"/>
		<path class="st1" d="M177.1,274.5c1-0.5,2.2-0.8,3.7-0.8v2.1l-0.5,0c-1.7,0-3,0.5-3.9,1.5s-1.4,2.5-1.4,4.3v8h-2.1v-15.8h2v3.1
			C175.4,275.8,176.1,275,177.1,274.5z"/>
		<path class="st1" d="M194.8,275.2c1.1,1,1.6,2.6,1.6,4.6v9.8h-2v-2.5c-0.5,0.8-1.2,1.5-2.1,1.9c-0.9,0.5-2,0.7-3.3,0.7
			c-1.8,0-3.2-0.4-4.2-1.3c-1-0.8-1.6-2-1.6-3.3c0-1.3,0.5-2.4,1.5-3.2c1-0.8,2.5-1.2,4.6-1.2h5v-1c0-1.4-0.4-2.4-1.1-3.1
			c-0.8-0.7-1.9-1.1-3.3-1.1c-1,0-2,0.2-2.9,0.5s-1.7,0.8-2.4,1.4l-1-1.6c0.8-0.7,1.8-1.2,2.9-1.6c1.1-0.4,2.3-0.6,3.5-0.6
			C192.2,273.7,193.7,274.2,194.8,275.2z M192.4,287.2c0.9-0.5,1.5-1.3,1.9-2.4v-2.6h-5c-2.7,0-4,0.9-4,2.8c0,0.9,0.3,1.6,1,2.2
			c0.7,0.5,1.7,0.8,2.9,0.8C190.5,288,191.6,287.7,192.4,287.2z"/>
		<path class="st1" d="M210.6,288.6c-0.4,0.4-0.9,0.6-1.5,0.8c-0.6,0.2-1.2,0.3-1.8,0.3c-1.5,0-2.6-0.4-3.4-1.2s-1.2-1.9-1.2-3.4
			v-9.5h-2.8v-1.8h2.8v-3.5h2.1v3.5h4.8v1.8h-4.8v9.4c0,0.9,0.2,1.7,0.7,2.1c0.5,0.5,1.1,0.7,2,0.7c0.4,0,0.9-0.1,1.3-0.2
			c0.4-0.1,0.8-0.3,1.1-0.6L210.6,288.6z"/>
		<path class="st1" d="M227.6,282.3h-13.2c0.1,1.6,0.8,3,1.9,4c1.1,1,2.6,1.5,4.3,1.5c1,0,1.9-0.2,2.7-0.5c0.8-0.3,1.5-0.9,2.1-1.5
			l1.2,1.4c-0.7,0.8-1.6,1.5-2.6,1.9s-2.2,0.7-3.5,0.7c-1.6,0-3.1-0.3-4.3-1c-1.2-0.7-2.2-1.6-2.9-2.9c-0.7-1.2-1.1-2.6-1.1-4.1
			c0-1.5,0.3-2.9,1-4.1s1.6-2.2,2.8-2.9c1.2-0.7,2.5-1,3.9-1s2.8,0.3,3.9,1c1.2,0.7,2.1,1.6,2.7,2.8c0.7,1.2,1,2.6,1,4.2
			L227.6,282.3z M216.2,276.9c-1,1-1.6,2.2-1.8,3.8h11.2c-0.1-1.6-0.7-2.8-1.8-3.8c-1-1-2.3-1.5-3.9-1.5
			C218.5,275.5,217.2,276,216.2,276.9z"/>
		<path class="st1" d="M240.5,289.3c-1.2-0.3-2.2-0.8-3-1.3l1.4-2.9c0.7,0.5,1.6,0.9,2.6,1.2c1,0.3,2,0.4,3,0.4
			c2.2,0,3.4-0.6,3.4-1.8c0-0.6-0.3-0.9-0.9-1.2c-0.6-0.2-1.5-0.4-2.7-0.6c-1.3-0.2-2.4-0.4-3.2-0.7c-0.8-0.3-1.6-0.7-2.2-1.4
			c-0.6-0.6-0.9-1.6-0.9-2.7c0-1.5,0.6-2.7,1.9-3.6c1.3-0.9,3-1.4,5.1-1.4c1.1,0,2.2,0.1,3.3,0.4c1.1,0.3,2,0.6,2.7,1l-1.4,2.8
			c-1.4-0.8-2.9-1.2-4.6-1.2c-1.1,0-1.9,0.2-2.5,0.5c-0.6,0.3-0.9,0.8-0.9,1.3c0,0.6,0.3,1,0.9,1.3c0.6,0.3,1.6,0.5,2.8,0.7
			c1.3,0.2,2.3,0.4,3.1,0.7c0.8,0.3,1.5,0.7,2.1,1.3c0.6,0.6,0.9,1.5,0.9,2.6c0,1.5-0.6,2.7-1.9,3.6c-1.3,0.9-3.1,1.4-5.3,1.4
			C243,289.8,241.7,289.6,240.5,289.3z"/>
		<path class="st1" d="M266.3,275c1.2,1.1,1.9,2.8,1.9,5.1v9.4h-3.5v-2c-0.5,0.7-1.1,1.2-2,1.6c-0.9,0.4-1.9,0.6-3.1,0.6
			s-2.2-0.2-3.1-0.6s-1.6-1-2.1-1.7c-0.5-0.7-0.7-1.6-0.7-2.5c0-1.4,0.5-2.6,1.6-3.5c1.1-0.9,2.8-1.3,5.1-1.3h4.1V280
			c0-1.1-0.3-2-1-2.6c-0.7-0.6-1.7-0.9-3-0.9c-0.9,0-1.8,0.1-2.7,0.4c-0.9,0.3-1.6,0.7-2.2,1.2l-1.5-2.7c0.8-0.6,1.9-1.1,3-1.5
			c1.2-0.3,2.4-0.5,3.8-0.5C263.3,273.4,265.1,273.9,266.3,275z M262.9,286.4c0.7-0.4,1.2-1,1.5-1.8v-1.9h-3.9
			c-2.2,0-3.2,0.7-3.2,2.1c0,0.7,0.3,1.2,0.8,1.6c0.5,0.4,1.3,0.6,2.2,0.6C261.4,287,262.2,286.8,262.9,286.4z"/>
		<path class="st1" d="M273,267.3h3.8v22.3H273V267.3z"/>
		<path class="st1" d="M296.7,282.7h-12.6c0.2,1.2,0.8,2.1,1.7,2.8c0.9,0.7,2.1,1,3.5,1c1.8,0,3.2-0.6,4.4-1.7l2,2.3
			c-0.7,0.9-1.6,1.5-2.7,1.9c-1.1,0.4-2.3,0.7-3.7,0.7c-1.8,0-3.3-0.3-4.7-1s-2.4-1.7-3.1-2.9c-0.7-1.2-1.1-2.7-1.1-4.2
			c0-1.6,0.4-3,1.1-4.2c0.7-1.2,1.7-2.2,3-2.9c1.3-0.7,2.7-1.1,4.3-1.1c1.6,0,3,0.3,4.2,1s2.2,1.7,2.9,2.9s1,2.7,1,4.3
			C296.7,281.9,296.7,282.3,296.7,282.7z M285.6,277.4c-0.8,0.7-1.3,1.7-1.5,2.8h9.1c-0.2-1.2-0.7-2.1-1.5-2.8
			c-0.8-0.7-1.8-1.1-3.1-1.1C287.4,276.4,286.4,276.7,285.6,277.4z"/>
		<path class="st1" d="M301.5,289.3c-1.2-0.3-2.2-0.8-3-1.3l1.4-2.9c0.7,0.5,1.6,0.9,2.6,1.2c1,0.3,2,0.4,3,0.4
			c2.2,0,3.4-0.6,3.4-1.8c0-0.6-0.3-0.9-0.9-1.2c-0.6-0.2-1.5-0.4-2.7-0.6c-1.3-0.2-2.4-0.4-3.2-0.7c-0.8-0.3-1.6-0.7-2.2-1.4
			c-0.6-0.6-0.9-1.6-0.9-2.7c0-1.5,0.6-2.7,1.9-3.6c1.3-0.9,3-1.4,5.1-1.4c1.1,0,2.2,0.1,3.3,0.4c1.1,0.3,2,0.6,2.7,1l-1.4,2.8
			c-1.4-0.8-2.9-1.2-4.6-1.2c-1.1,0-1.9,0.2-2.5,0.5c-0.6,0.3-0.9,0.8-0.9,1.3c0,0.6,0.3,1,0.9,1.3c0.6,0.3,1.6,0.5,2.8,0.7
			c1.3,0.2,2.3,0.4,3.1,0.7c0.8,0.3,1.5,0.7,2.1,1.3c0.6,0.6,0.9,1.5,0.9,2.6c0,1.5-0.6,2.7-1.9,3.6c-1.3,0.9-3.1,1.4-5.3,1.4
			C304,289.8,302.7,289.6,301.5,289.3z"/>
		<path class="st1" d="M349.1,275.1c1.2,1.2,1.8,2.9,1.8,5.3v9.2h-3.8v-8.7c0-1.4-0.3-2.5-0.9-3.2c-0.6-0.7-1.5-1.1-2.7-1.1
			c-1.3,0-2.3,0.4-3,1.2c-0.8,0.8-1.1,2-1.1,3.6v8.1h-3.8v-8.7c0-1.4-0.3-2.5-0.9-3.2c-0.6-0.7-1.5-1.1-2.7-1.1
			c-1.3,0-2.3,0.4-3,1.2c-0.8,0.8-1.1,2-1.1,3.6v8.1h-3.8v-16h3.6v2c0.6-0.7,1.3-1.3,2.2-1.6c0.9-0.4,1.9-0.6,3-0.6
			c1.2,0,2.3,0.2,3.2,0.7c0.9,0.4,1.7,1.1,2.2,2c0.7-0.8,1.5-1.5,2.6-2c1-0.5,2.2-0.7,3.4-0.7C346.3,273.4,347.9,273.9,349.1,275.1z
			"/>
		<path class="st1" d="M370.8,282.7h-12.6c0.2,1.2,0.8,2.1,1.7,2.8c0.9,0.7,2.1,1,3.5,1c1.8,0,3.2-0.6,4.3-1.7l2,2.3
			c-0.7,0.9-1.6,1.5-2.7,1.9c-1.1,0.4-2.3,0.7-3.7,0.7c-1.8,0-3.3-0.3-4.7-1s-2.4-1.7-3.1-2.9c-0.7-1.2-1.1-2.7-1.1-4.2
			c0-1.6,0.4-3,1.1-4.2c0.7-1.2,1.7-2.2,3-2.9c1.3-0.7,2.7-1.1,4.3-1.1c1.6,0,3,0.3,4.2,1c1.2,0.7,2.2,1.7,2.9,2.9
			c0.7,1.2,1,2.7,1,4.3C370.9,281.9,370.9,282.3,370.8,282.7z M359.7,277.4c-0.8,0.7-1.3,1.7-1.5,2.8h9.1c-0.2-1.2-0.7-2.1-1.5-2.8
			c-0.8-0.7-1.8-1.1-3.1-1.1C361.6,276.4,360.6,276.7,359.7,277.4z"/>
		<path class="st1" d="M389.5,282.7h-12.6c0.2,1.2,0.8,2.1,1.7,2.8c0.9,0.7,2.1,1,3.5,1c1.8,0,3.2-0.6,4.3-1.7l2,2.3
			c-0.7,0.9-1.6,1.5-2.7,1.9c-1.1,0.4-2.3,0.7-3.7,0.7c-1.8,0-3.3-0.3-4.7-1s-2.4-1.7-3.1-2.9c-0.7-1.2-1.1-2.7-1.1-4.2
			c0-1.6,0.4-3,1.1-4.2c0.7-1.2,1.7-2.2,3-2.9c1.3-0.7,2.7-1.1,4.3-1.1c1.6,0,3,0.3,4.2,1c1.2,0.7,2.2,1.7,2.9,2.9
			c0.7,1.2,1,2.7,1,4.3C389.5,281.9,389.5,282.3,389.5,282.7z M378.4,277.4c-0.8,0.7-1.3,1.7-1.5,2.8h9.1c-0.2-1.2-0.7-2.1-1.5-2.8
			c-0.8-0.7-1.8-1.1-3.1-1.1C380.2,276.4,379.2,276.7,378.4,277.4z"/>
		<path class="st1" d="M402.8,288.7c-0.4,0.4-1,0.6-1.6,0.8s-1.3,0.3-2,0.3c-1.8,0-3.1-0.5-4.1-1.4s-1.4-2.3-1.4-4v-7.7H391v-3h2.6
			V270h3.8v3.7h4.3v3h-4.3v7.6c0,0.8,0.2,1.4,0.6,1.8c0.4,0.4,0.9,0.6,1.7,0.6c0.8,0,1.5-0.2,2.1-0.7L402.8,288.7z"/>
		<path class="st1" d="M406,270.2c-0.5-0.4-0.7-1-0.7-1.6c0-0.6,0.2-1.2,0.7-1.6c0.5-0.4,1-0.6,1.7-0.6s1.2,0.2,1.7,0.6
			c0.5,0.4,0.7,0.9,0.7,1.5c0,0.7-0.2,1.2-0.7,1.7s-1,0.7-1.7,0.7C407.1,270.9,406.5,270.7,406,270.2z M405.9,273.5h3.8v16h-3.8
			V273.5z"/>
		<path class="st1" d="M428.5,275.1c1.2,1.2,1.8,2.9,1.8,5.2v9.2h-3.8v-8.7c0-1.4-0.3-2.5-1-3.2c-0.7-0.7-1.6-1.1-2.8-1.1
			c-1.4,0-2.5,0.4-3.3,1.2c-0.8,0.8-1.2,2-1.2,3.6v8.1h-3.8v-16h3.6v2.1c0.6-0.7,1.4-1.3,2.3-1.7c0.9-0.4,2-0.6,3.2-0.6
			C425.6,273.4,427.3,273.9,428.5,275.1z"/>
		<path class="st1" d="M451.1,273.5v13.6c0,5.6-2.9,8.5-8.6,8.5c-1.5,0-3-0.2-4.4-0.6c-1.4-0.4-2.5-1-3.4-1.7l1.7-2.8
			c0.7,0.6,1.6,1,2.7,1.4c1.1,0.3,2.2,0.5,3.3,0.5c1.8,0,3-0.4,3.9-1.2c0.8-0.8,1.2-2,1.2-3.7v-0.8c-0.6,0.7-1.4,1.2-2.3,1.6
			c-0.9,0.4-1.9,0.5-3,0.5c-1.5,0-2.9-0.3-4.1-1c-1.2-0.6-2.2-1.6-2.9-2.7c-0.7-1.2-1.1-2.5-1.1-4.1c0-1.5,0.4-2.9,1.1-4
			s1.7-2.1,2.9-2.7c1.2-0.6,2.6-1,4.1-1c1.2,0,2.2,0.2,3.2,0.6c0.9,0.4,1.7,1,2.4,1.7v-2.1H451.1z M446.1,284.4
			c0.9-0.9,1.4-2,1.4-3.3c0-1.3-0.5-2.4-1.4-3.3c-0.9-0.8-2.1-1.3-3.5-1.3c-1.4,0-2.6,0.4-3.5,1.3c-0.9,0.8-1.4,1.9-1.4,3.3
			c0,1.4,0.5,2.5,1.4,3.3s2.1,1.3,3.5,1.3C444,285.7,445.2,285.2,446.1,284.4z"/>
		<path class="st1" d="M457.2,289.3c-1.2-0.3-2.2-0.8-3-1.3l1.4-2.9c0.7,0.5,1.6,0.9,2.6,1.2c1,0.3,2,0.4,3,0.4
			c2.2,0,3.4-0.6,3.4-1.8c0-0.6-0.3-0.9-0.9-1.2c-0.6-0.2-1.5-0.4-2.7-0.6c-1.3-0.2-2.4-0.4-3.2-0.7c-0.8-0.3-1.5-0.7-2.2-1.4
			c-0.6-0.6-0.9-1.6-0.9-2.7c0-1.5,0.6-2.7,1.9-3.6c1.3-0.9,3-1.4,5.1-1.4c1.1,0,2.2,0.1,3.3,0.4c1.1,0.3,2,0.6,2.7,1l-1.4,2.8
			c-1.4-0.8-2.9-1.2-4.6-1.2c-1.1,0-1.9,0.2-2.5,0.5c-0.6,0.3-0.9,0.8-0.9,1.3c0,0.6,0.3,1,0.9,1.3c0.6,0.3,1.6,0.5,2.8,0.7
			c1.3,0.2,2.3,0.4,3.2,0.7c0.8,0.3,1.5,0.7,2.1,1.3c0.6,0.6,0.9,1.5,0.9,2.6c0,1.5-0.7,2.7-2,3.6s-3.1,1.4-5.3,1.4
			C459.7,289.8,458.4,289.6,457.2,289.3z"/>
		<path class="st1" d="M504.8,273.5l-5.9,16h-3.6l-4.1-11l-4.2,11h-3.6l-5.9-16h3.5l4.2,11.8l4.4-11.8h3.2l4.3,11.9l4.4-11.9H504.8z
			"/>
		<path class="st1" d="M507.5,270.2c-0.5-0.4-0.7-1-0.7-1.6c0-0.6,0.2-1.2,0.7-1.6c0.5-0.4,1-0.6,1.7-0.6s1.2,0.2,1.7,0.6
			c0.5,0.4,0.7,0.9,0.7,1.5c0,0.7-0.2,1.2-0.7,1.7s-1,0.7-1.7,0.7C508.6,270.9,508,270.7,507.5,270.2z M507.3,273.5h3.8v16h-3.8
			V273.5z"/>
		<path class="st1" d="M525.6,288.7c-0.4,0.4-1,0.6-1.6,0.8s-1.3,0.3-2,0.3c-1.8,0-3.1-0.5-4.1-1.4s-1.4-2.3-1.4-4v-7.7h-2.6v-3h2.6
			V270h3.8v3.7h4.3v3h-4.3v7.6c0,0.8,0.2,1.4,0.6,1.8c0.4,0.4,0.9,0.6,1.7,0.6c0.8,0,1.5-0.2,2.1-0.7L525.6,288.7z"/>
		<path class="st1" d="M542.7,275.1c1.2,1.2,1.8,2.9,1.8,5.2v9.2h-3.8v-8.7c0-1.4-0.3-2.5-1-3.2c-0.7-0.7-1.6-1.1-2.8-1.1
			c-1.4,0-2.5,0.4-3.3,1.2c-0.8,0.8-1.2,2-1.2,3.6v8.1h-3.8v-22.3h3.8v8.1c0.6-0.7,1.4-1.2,2.3-1.5s1.9-0.5,3-0.5
			C539.8,273.4,541.5,273.9,542.7,275.1z"/>
		<path class="st1" d="M53.1,309.5v21.8h-3.8v-7.8c-1.3,1.4-3,2.2-5.1,2.2c-1.6,0-3-0.3-4.2-1c-1.2-0.7-2.2-1.6-2.9-2.9
			c-0.7-1.2-1-2.7-1-4.3c0-1.6,0.3-3,1-4.3c0.7-1.2,1.7-2.2,2.9-2.9c1.2-0.7,2.6-1,4.2-1c1.1,0,2.1,0.2,3,0.6s1.7,1,2.3,1.7v-2.1
			H53.1z M48.1,321.2c0.9-0.9,1.4-2.1,1.4-3.6s-0.5-2.7-1.4-3.6c-0.9-0.9-2-1.4-3.4-1.4c-1.4,0-2.5,0.5-3.4,1.4
			c-0.9,0.9-1.3,2.1-1.3,3.6s0.4,2.7,1.3,3.6c0.9,0.9,2,1.4,3.4,1.4C46,322.6,47.2,322.1,48.1,321.2z"/>
		<path class="st1" d="M73.5,309.5v16H70v-2c-0.6,0.7-1.4,1.3-2.2,1.7s-1.9,0.6-2.9,0.6c-2.1,0-3.8-0.6-5.1-1.8
			c-1.2-1.2-1.8-3-1.8-5.3v-9.1h3.8v8.6c0,1.4,0.3,2.5,1,3.2c0.6,0.7,1.6,1.1,2.8,1.1c1.3,0,2.4-0.4,3.2-1.2c0.8-0.8,1.2-2,1.2-3.6
			v-8.1H73.5z"/>
		<path class="st1" d="M90,311c1.2,1.1,1.9,2.8,1.9,5.1v9.4h-3.5v-2c-0.5,0.7-1.1,1.2-2,1.6c-0.9,0.4-1.9,0.6-3.1,0.6
			s-2.2-0.2-3.1-0.6c-0.9-0.4-1.6-1-2.1-1.7c-0.5-0.7-0.7-1.6-0.7-2.5c0-1.4,0.5-2.6,1.6-3.5c1.1-0.9,2.8-1.3,5.1-1.3h4.1V316
			c0-1.1-0.3-2-1-2.6c-0.7-0.6-1.7-0.9-3-0.9c-0.9,0-1.8,0.1-2.7,0.4c-0.9,0.3-1.6,0.7-2.2,1.2l-1.5-2.7c0.8-0.6,1.9-1.1,3-1.5
			c1.2-0.3,2.4-0.5,3.8-0.5C86.9,309.4,88.8,309.9,90,311z M86.6,322.4c0.7-0.4,1.2-1,1.5-1.8v-1.9h-3.9c-2.2,0-3.2,0.7-3.2,2.1
			c0,0.7,0.3,1.2,0.8,1.6c0.5,0.4,1.3,0.6,2.2,0.6C85,323,85.9,322.8,86.6,322.4z"/>
		<path class="st1" d="M96.7,303.3h3.8v22.3h-3.8V303.3z"/>
		<path class="st1" d="M105.5,306.2c-0.5-0.4-0.7-1-0.7-1.6c0-0.6,0.2-1.2,0.7-1.6c0.5-0.4,1-0.6,1.7-0.6c0.7,0,1.2,0.2,1.7,0.6
			c0.5,0.4,0.7,0.9,0.7,1.5c0,0.7-0.2,1.2-0.7,1.7c-0.5,0.5-1,0.7-1.7,0.7C106.6,306.9,106,306.7,105.5,306.2z M105.3,309.5h3.8v16
			h-3.8V309.5z"/>
		<path class="st1" d="M118.2,308.7v1h4.4v3h-4.3v12.9h-3.8v-12.9h-2.6v-3h2.6v-1c0-1.7,0.5-3.1,1.5-4.1c1-1,2.4-1.5,4.2-1.5
			c1.4,0,2.6,0.3,3.4,0.9l-1,2.8c-0.6-0.4-1.3-0.7-2.1-0.7C118.9,306.1,118.2,307,118.2,308.7z M127.7,306.2c-0.5-0.4-0.7-1-0.7-1.6
			c0-0.6,0.2-1.2,0.7-1.6c0.5-0.4,1-0.6,1.7-0.6c0.7,0,1.2,0.2,1.7,0.6c0.5,0.4,0.7,0.9,0.7,1.5c0,0.7-0.2,1.2-0.7,1.7
			c-0.4,0.5-1,0.7-1.7,0.7C128.7,306.9,128.1,306.7,127.7,306.2z M127.5,309.5h3.8v16h-3.8V309.5z"/>
		<path class="st1" d="M151.2,318.7h-12.6c0.2,1.2,0.8,2.1,1.7,2.8c0.9,0.7,2.1,1,3.5,1c1.8,0,3.2-0.6,4.4-1.7l2,2.3
			c-0.7,0.9-1.6,1.5-2.7,2c-1.1,0.4-2.3,0.7-3.7,0.7c-1.8,0-3.3-0.3-4.7-1s-2.4-1.7-3.1-2.9c-0.7-1.2-1.1-2.7-1.1-4.2
			c0-1.6,0.4-3,1.1-4.2c0.7-1.2,1.7-2.2,3-2.9c1.3-0.7,2.7-1.1,4.3-1.1c1.6,0,3,0.3,4.2,1s2.2,1.7,2.9,2.9s1,2.7,1,4.3
			C151.2,317.9,151.2,318.3,151.2,318.7z M140.1,313.4c-0.8,0.7-1.3,1.7-1.5,2.8h9.1c-0.2-1.2-0.7-2.1-1.5-2.8
			c-0.8-0.7-1.8-1.1-3.1-1.1C141.9,312.4,140.9,312.7,140.1,313.4z"/>
		<path class="st1" d="M170.5,303.3v22.3h-3.6v-2.1c-0.6,0.8-1.4,1.3-2.3,1.7c-0.9,0.4-1.9,0.6-3,0.6c-1.5,0-2.9-0.3-4.2-1
			c-1.2-0.7-2.2-1.6-2.9-2.9c-0.7-1.2-1-2.7-1-4.3c0-1.6,0.3-3,1-4.3c0.7-1.2,1.7-2.2,2.9-2.9c1.2-0.7,2.6-1,4.2-1
			c1.1,0,2,0.2,2.9,0.5c0.9,0.4,1.6,0.9,2.2,1.6v-8.2H170.5z M164.5,321.9c0.7-0.4,1.3-1,1.7-1.8c0.4-0.8,0.6-1.6,0.6-2.6
			s-0.2-1.9-0.6-2.6c-0.4-0.8-1-1.3-1.7-1.8c-0.7-0.4-1.5-0.6-2.4-0.6s-1.7,0.2-2.4,0.6c-0.7,0.4-1.3,1-1.7,1.8
			c-0.4,0.8-0.6,1.6-0.6,2.6s0.2,1.9,0.6,2.6c0.4,0.8,1,1.3,1.7,1.8c0.7,0.4,1.5,0.6,2.4,0.6S163.8,322.3,164.5,321.9z"/>
		<path class="st1" d="M183.7,303.3h3.8v22.3h-3.8V303.3z"/>
		<path class="st1" d="M207.4,318.7h-12.6c0.2,1.2,0.8,2.1,1.7,2.8c0.9,0.7,2.1,1,3.5,1c1.8,0,3.2-0.6,4.4-1.7l2,2.3
			c-0.7,0.9-1.6,1.5-2.7,2c-1.1,0.4-2.3,0.7-3.7,0.7c-1.8,0-3.3-0.3-4.7-1s-2.4-1.7-3.1-2.9c-0.7-1.2-1.1-2.7-1.1-4.2
			c0-1.6,0.4-3,1.1-4.2c0.7-1.2,1.7-2.2,3-2.9c1.3-0.7,2.7-1.1,4.3-1.1c1.6,0,3,0.3,4.2,1s2.2,1.7,2.9,2.9s1,2.7,1,4.3
			C207.4,317.9,207.4,318.3,207.4,318.7z M196.3,313.4c-0.8,0.7-1.3,1.7-1.5,2.8h9.1c-0.2-1.2-0.7-2.1-1.5-2.8
			c-0.8-0.7-1.8-1.1-3.1-1.1C198.1,312.4,197.1,312.7,196.3,313.4z"/>
		<path class="st1" d="M222.1,311c1.2,1.1,1.9,2.8,1.9,5.1v9.4h-3.5v-2c-0.5,0.7-1.1,1.2-2,1.6c-0.9,0.4-1.9,0.6-3.1,0.6
			s-2.2-0.2-3.1-0.6c-0.9-0.4-1.6-1-2.1-1.7c-0.5-0.7-0.7-1.6-0.7-2.5c0-1.4,0.5-2.6,1.6-3.5c1.1-0.9,2.8-1.3,5.1-1.3h4.1V316
			c0-1.1-0.3-2-1-2.6c-0.7-0.6-1.7-0.9-3-0.9c-0.9,0-1.8,0.1-2.7,0.4c-0.9,0.3-1.6,0.7-2.2,1.2l-1.5-2.7c0.8-0.6,1.9-1.1,3-1.5
			c1.2-0.3,2.4-0.5,3.8-0.5C219.1,309.4,220.9,309.9,222.1,311z M218.7,322.4c0.7-0.4,1.2-1,1.5-1.8v-1.9h-3.9
			c-2.2,0-3.2,0.7-3.2,2.1c0,0.7,0.3,1.2,0.8,1.6c0.5,0.4,1.3,0.6,2.2,0.6C217.1,323,218,322.8,218.7,322.4z"/>
		<path class="st1" d="M244.6,303.3v22.3H241v-2.1c-0.6,0.8-1.4,1.3-2.3,1.7c-0.9,0.4-1.9,0.6-3,0.6c-1.5,0-2.9-0.3-4.2-1
			c-1.2-0.7-2.2-1.6-2.9-2.9c-0.7-1.2-1-2.7-1-4.3c0-1.6,0.3-3,1-4.3c0.7-1.2,1.7-2.2,2.9-2.9c1.2-0.7,2.6-1,4.2-1
			c1.1,0,2,0.2,2.9,0.5c0.9,0.4,1.6,0.9,2.2,1.6v-8.2H244.6z M238.6,321.9c0.7-0.4,1.3-1,1.7-1.8c0.4-0.8,0.6-1.6,0.6-2.6
			s-0.2-1.9-0.6-2.6c-0.4-0.8-1-1.3-1.7-1.8c-0.7-0.4-1.5-0.6-2.4-0.6s-1.7,0.2-2.4,0.6c-0.7,0.4-1.3,1-1.7,1.8
			c-0.4,0.8-0.6,1.6-0.6,2.6s0.2,1.9,0.6,2.6c0.4,0.8,1,1.3,1.7,1.8c0.7,0.4,1.5,0.6,2.4,0.6S237.9,322.3,238.6,321.9z"/>
		<path class="st1" d="M250.7,325.3c-1.2-0.3-2.2-0.8-3-1.3l1.4-2.9c0.7,0.5,1.6,0.9,2.6,1.2c1,0.3,2,0.4,3,0.4
			c2.2,0,3.4-0.6,3.4-1.8c0-0.6-0.3-0.9-0.9-1.2c-0.6-0.2-1.5-0.4-2.7-0.6c-1.3-0.2-2.4-0.4-3.2-0.7c-0.8-0.3-1.6-0.7-2.2-1.4
			c-0.6-0.6-0.9-1.6-0.9-2.7c0-1.5,0.6-2.7,1.9-3.6c1.3-0.9,3-1.4,5.1-1.4c1.1,0,2.2,0.1,3.3,0.4c1.1,0.3,2,0.6,2.7,1l-1.4,2.8
			c-1.4-0.8-2.9-1.2-4.6-1.2c-1.1,0-1.9,0.2-2.5,0.5c-0.6,0.3-0.9,0.8-0.9,1.3c0,0.6,0.3,1,0.9,1.3c0.6,0.3,1.6,0.5,2.8,0.7
			c1.3,0.2,2.3,0.4,3.1,0.7c0.8,0.3,1.5,0.7,2.1,1.3c0.6,0.6,0.9,1.5,0.9,2.6c0,1.5-0.6,2.7-1.9,3.6c-1.3,0.9-3.1,1.4-5.3,1.4
			C253.2,325.8,251.9,325.6,250.7,325.3z"/>
		<path class="st1" d="M281.7,324.6c-0.4,0.4-0.9,0.6-1.5,0.8s-1.2,0.3-1.8,0.3c-1.5,0-2.6-0.4-3.4-1.2s-1.2-1.9-1.2-3.4v-9.5h-2.8
			v-1.8h2.8v-3.5h2.1v3.5h4.8v1.8h-4.8v9.4c0,0.9,0.2,1.7,0.7,2.1c0.5,0.5,1.1,0.7,2,0.7c0.4,0,0.9-0.1,1.3-0.2
			c0.4-0.1,0.8-0.3,1.1-0.6L281.7,324.6z"/>
		<path class="st1" d="M287.3,324.7c-1.2-0.7-2.2-1.6-2.9-2.9c-0.7-1.2-1.1-2.6-1.1-4.1c0-1.5,0.3-2.9,1.1-4.1
			c0.7-1.2,1.7-2.2,2.9-2.9c1.2-0.7,2.6-1,4.1-1c1.5,0,2.9,0.3,4.1,1c1.2,0.7,2.2,1.6,2.9,2.9s1,2.6,1,4.1c0,1.5-0.3,2.9-1,4.1
			c-0.7,1.2-1.6,2.2-2.9,2.9c-1.2,0.7-2.6,1-4.1,1C289.9,325.7,288.5,325.4,287.3,324.7z M294.5,323c0.9-0.5,1.6-1.2,2.1-2.2
			c0.5-0.9,0.8-2,0.8-3.2c0-1.2-0.3-2.3-0.8-3.2c-0.5-0.9-1.2-1.7-2.1-2.2c-0.9-0.5-1.9-0.8-3-0.8s-2.1,0.3-3,0.8
			c-0.9,0.5-1.6,1.2-2.1,2.2c-0.5,0.9-0.8,2-0.8,3.2c0,1.2,0.3,2.3,0.8,3.2c0.5,0.9,1.2,1.7,2.1,2.2c0.9,0.5,1.9,0.8,3,0.8
			S293.6,323.6,294.5,323z"/>
		<path class="st1" d="M321.9,311.2c1.1,1,1.7,2.6,1.7,4.6v9.8h-2v-2.5c-0.5,0.8-1.2,1.5-2.1,1.9c-0.9,0.5-2,0.7-3.3,0.7
			c-1.8,0-3.2-0.4-4.2-1.3c-1-0.8-1.6-2-1.6-3.3c0-1.3,0.5-2.4,1.5-3.2c1-0.8,2.5-1.2,4.6-1.2h5v-1c0-1.4-0.4-2.4-1.1-3.1
			c-0.8-0.7-1.9-1.1-3.3-1.1c-1,0-2,0.2-2.9,0.5s-1.7,0.8-2.4,1.4l-1-1.6c0.8-0.7,1.8-1.2,2.9-1.6c1.1-0.4,2.3-0.6,3.5-0.6
			C319.2,309.7,320.8,310.2,321.9,311.2z M319.5,323.2c0.9-0.5,1.5-1.3,1.9-2.4v-2.6h-4.9c-2.7,0-4,0.9-4,2.8c0,0.9,0.3,1.6,1,2.2
			c0.7,0.5,1.7,0.8,2.9,0.8C317.6,324,318.7,323.7,319.5,323.2z"/>
		<path class="st1" d="M331.8,324.7c-1.2-0.7-2.2-1.6-2.9-2.9c-0.7-1.2-1-2.6-1-4.2c0-1.5,0.3-2.9,1-4.1s1.7-2.2,2.9-2.9
			c1.2-0.7,2.6-1,4.2-1c1.4,0,2.6,0.3,3.6,0.8c1.1,0.5,1.9,1.3,2.5,2.3l-1.6,1.1c-0.5-0.8-1.2-1.4-2-1.8s-1.7-0.6-2.6-0.6
			c-1.1,0-2.2,0.3-3.1,0.8c-0.9,0.5-1.6,1.2-2.1,2.2c-0.5,0.9-0.8,2-0.8,3.2c0,1.2,0.3,2.3,0.8,3.2c0.5,0.9,1.2,1.6,2.1,2.2
			c0.9,0.5,1.9,0.8,3.1,0.8c0.9,0,1.8-0.2,2.6-0.6c0.8-0.4,1.5-1,2-1.7l1.6,1.1c-0.6,1-1.5,1.8-2.6,2.3c-1.1,0.5-2.3,0.8-3.6,0.8
			C334.4,325.7,333,325.4,331.8,324.7z"/>
		<path class="st1" d="M358.8,311.4c1.2,1.1,1.8,2.8,1.8,5v9.1h-2.1v-8.9c0-1.6-0.4-2.9-1.2-3.8s-2-1.3-3.5-1.3c-1.7,0-3,0.5-4,1.5
			s-1.5,2.4-1.5,4.2v8.3h-2.1v-22.3h2.1v9.2c0.6-0.9,1.4-1.6,2.4-2.1s2.2-0.8,3.5-0.8C356.1,309.7,357.7,310.2,358.8,311.4z"/>
		<path class="st1" d="M366.3,305.9c-0.3-0.3-0.5-0.7-0.5-1.1c0-0.4,0.1-0.8,0.5-1.1c0.3-0.3,0.7-0.4,1.1-0.4c0.4,0,0.8,0.1,1.1,0.4
			c0.3,0.3,0.5,0.6,0.5,1c0,0.4-0.2,0.8-0.5,1.1c-0.3,0.3-0.7,0.5-1.1,0.5C367,306.3,366.6,306.2,366.3,305.9z M366.4,309.8h2.1
			v15.8h-2.1V309.8z"/>
		<path class="st1" d="M388.2,318.3H375c0.1,1.6,0.8,3,1.9,4c1.1,1,2.6,1.5,4.3,1.5c1,0,1.9-0.2,2.7-0.5c0.8-0.3,1.5-0.9,2.1-1.5
			l1.2,1.4c-0.7,0.8-1.6,1.5-2.6,1.9s-2.2,0.7-3.5,0.7c-1.6,0-3.1-0.3-4.3-1c-1.3-0.7-2.2-1.6-2.9-2.9c-0.7-1.2-1-2.6-1-4.1
			c0-1.5,0.3-2.9,1-4.1s1.6-2.2,2.8-2.9c1.2-0.7,2.5-1,3.9-1s2.8,0.3,3.9,1c1.2,0.7,2.1,1.6,2.7,2.8c0.7,1.2,1,2.6,1,4.2
			L388.2,318.3z M376.7,312.9c-1,1-1.6,2.2-1.8,3.8h11.2c-0.1-1.6-0.7-2.8-1.8-3.8c-1-1-2.3-1.5-3.9-1.5
			C379,311.5,377.8,312,376.7,312.9z"/>
		<path class="st1" d="M405.5,309.8l-7,15.8h-2.2l-7-15.8h2.2l5.9,13.4l6-13.4H405.5z"/>
		<path class="st1" d="M421.8,318.3h-13.2c0.1,1.6,0.8,3,1.9,4c1.1,1,2.6,1.5,4.3,1.5c1,0,1.9-0.2,2.7-0.5c0.8-0.3,1.5-0.9,2.1-1.5
			l1.2,1.4c-0.7,0.8-1.6,1.5-2.6,1.9s-2.2,0.7-3.5,0.7c-1.6,0-3.1-0.3-4.3-1c-1.3-0.7-2.2-1.6-2.9-2.9c-0.7-1.2-1-2.6-1-4.1
			c0-1.5,0.3-2.9,1-4.1s1.6-2.2,2.8-2.9c1.2-0.7,2.5-1,3.9-1s2.8,0.3,3.9,1c1.2,0.7,2.1,1.6,2.7,2.8c0.7,1.2,1,2.6,1,4.2
			L421.8,318.3z M410.4,312.9c-1,1-1.6,2.2-1.8,3.8h11.2c-0.1-1.6-0.7-2.8-1.8-3.8c-1-1-2.3-1.5-3.9-1.5
			C412.7,311.5,411.4,312,410.4,312.9z"/>
		<path class="st1" d="M447.3,309.8l-7.9,17.7c-0.6,1.5-1.4,2.5-2.2,3.1s-1.9,0.9-3,0.9c-0.8,0-1.5-0.1-2.1-0.4
			c-0.7-0.2-1.2-0.6-1.7-1.1l1-1.6c0.8,0.8,1.8,1.2,2.9,1.2c0.7,0,1.3-0.2,1.8-0.6c0.5-0.4,1-1.1,1.4-2l0.7-1.5l-7-15.8h2.2
			l5.9,13.4l5.9-13.4H447.3z"/>
		<path class="st1" d="M452.2,324.7c-1.2-0.7-2.2-1.6-2.9-2.9c-0.7-1.2-1-2.6-1-4.1c0-1.5,0.3-2.9,1-4.1s1.7-2.2,2.9-2.9
			c1.2-0.7,2.6-1,4.1-1c1.5,0,2.9,0.3,4.1,1c1.2,0.7,2.2,1.6,2.9,2.9c0.7,1.2,1,2.6,1,4.1c0,1.5-0.3,2.9-1,4.1
			c-0.7,1.2-1.6,2.2-2.9,2.9c-1.2,0.7-2.6,1-4.1,1C454.8,325.7,453.4,325.4,452.2,324.7z M459.3,323c0.9-0.5,1.6-1.2,2.1-2.2
			c0.5-0.9,0.8-2,0.8-3.2c0-1.2-0.2-2.3-0.8-3.2c-0.5-0.9-1.2-1.7-2.1-2.2c-0.9-0.5-1.9-0.8-3-0.8s-2.1,0.3-3,0.8
			c-0.9,0.5-1.6,1.2-2.1,2.2c-0.5,0.9-0.8,2-0.8,3.2c0,1.2,0.3,2.3,0.8,3.2c0.5,0.9,1.2,1.7,2.1,2.2c0.9,0.5,1.9,0.8,3,0.8
			S458.4,323.6,459.3,323z"/>
		<path class="st1" d="M482.9,309.8v15.8h-2v-2.9c-0.6,1-1.3,1.7-2.3,2.2c-1,0.5-2.1,0.8-3.4,0.8c-2.1,0-3.7-0.6-4.9-1.7
			c-1.2-1.1-1.8-2.8-1.8-5.1v-9.1h2.1v8.9c0,1.7,0.4,2.9,1.2,3.8c0.8,0.9,2,1.3,3.5,1.3c1.7,0,3-0.5,3.9-1.5s1.4-2.4,1.4-4.2v-8.3
			H482.9z"/>
		<path class="st1" d="M493.1,310.5c1-0.5,2.2-0.8,3.7-0.8v2.1l-0.5,0c-1.7,0-3,0.5-3.9,1.5s-1.4,2.5-1.4,4.3v8h-2.1v-15.8h2v3.1
			C491.4,311.8,492.1,311,493.1,310.5z"/>
		<path class="st1" d="M50.1,346.7c1.2,0.7,2.1,1.6,2.8,2.8c0.7,1.2,1,2.6,1,4.2c0,1.6-0.3,3-1,4.2c-0.7,1.2-1.6,2.2-2.8,2.8
			c-1.2,0.7-2.5,1-4,1c-1.3,0-2.5-0.3-3.6-0.8c-1-0.6-1.9-1.4-2.5-2.4v3.1h-2v-22.3h2.1v9.5c0.7-1,1.5-1.8,2.5-2.3
			c1-0.5,2.2-0.8,3.5-0.8C47.6,345.7,48.9,346,50.1,346.7z M49,359c0.9-0.5,1.6-1.2,2.1-2.2c0.5-0.9,0.8-2,0.8-3.2
			c0-1.2-0.3-2.3-0.8-3.2c-0.5-0.9-1.2-1.7-2.1-2.2c-0.9-0.5-1.9-0.8-3-0.8c-1.1,0-2.1,0.3-3,0.8c-0.9,0.5-1.6,1.2-2.1,2.2
			c-0.5,0.9-0.8,2-0.8,3.2c0,1.2,0.3,2.3,0.8,3.2c0.5,0.9,1.2,1.7,2.1,2.2c0.9,0.5,1.9,0.8,3,0.8C47,359.8,48,359.6,49,359z"/>
		<path class="st1" d="M72.5,345.8v15.8h-2v-2.9c-0.6,1-1.3,1.7-2.3,2.2c-1,0.5-2.1,0.8-3.4,0.8c-2.1,0-3.7-0.6-4.9-1.7
			c-1.2-1.1-1.8-2.8-1.8-5.1v-9.2h2.1v8.9c0,1.7,0.4,2.9,1.2,3.8c0.8,0.9,2,1.3,3.5,1.3c1.7,0,3-0.5,3.9-1.5c1-1,1.4-2.4,1.4-4.2
			v-8.3H72.5z"/>
		<path class="st1" d="M79.1,361.1c-1.2-0.4-2.1-0.8-2.7-1.4l1-1.7c0.7,0.5,1.5,0.9,2.5,1.3c1,0.3,2,0.5,3.1,0.5
			c1.4,0,2.5-0.2,3.2-0.7s1-1.1,1-1.9c0-0.6-0.2-1-0.6-1.4s-0.9-0.6-1.4-0.8c-0.6-0.2-1.3-0.3-2.3-0.5c-1.3-0.2-2.3-0.5-3.1-0.7
			c-0.8-0.2-1.4-0.7-2-1.3c-0.6-0.6-0.8-1.4-0.8-2.5c0-1.3,0.5-2.4,1.6-3.2c1.1-0.8,2.6-1.3,4.6-1.3c1,0,2,0.1,3.1,0.4
			c1,0.3,1.9,0.6,2.5,1.1l-0.9,1.7c-1.3-0.9-2.9-1.4-4.7-1.4c-1.4,0-2.4,0.2-3.1,0.7c-0.7,0.5-1,1.1-1,1.9c0,0.6,0.2,1.1,0.6,1.4
			c0.4,0.4,0.9,0.6,1.5,0.8c0.6,0.2,1.4,0.3,2.4,0.5c1.3,0.2,2.3,0.5,3,0.7c0.8,0.2,1.4,0.7,1.9,1.2s0.8,1.4,0.8,2.4
			c0,1.4-0.6,2.5-1.7,3.3c-1.2,0.8-2.7,1.2-4.8,1.2C81.4,361.7,80.2,361.5,79.1,361.1z"/>
		<path class="st1" d="M93.1,341.9c-0.3-0.3-0.4-0.7-0.4-1.1c0-0.4,0.1-0.8,0.4-1c0.3-0.3,0.7-0.5,1.1-0.5s0.8,0.1,1.1,0.4
			c0.3,0.3,0.4,0.6,0.4,1c0,0.4-0.1,0.8-0.4,1.1c-0.3,0.3-0.7,0.4-1.1,0.4S93.4,342.2,93.1,341.9z M93.2,345.8h2.1v15.8h-2.1V345.8z
			"/>
		<path class="st1" d="M114,347.4c1.2,1.2,1.8,2.8,1.8,5v9.2h-2.1v-8.9c0-1.6-0.4-2.9-1.2-3.8c-0.8-0.9-2-1.3-3.5-1.3
			c-1.7,0-3,0.5-4,1.5c-1,1-1.5,2.4-1.5,4.2v8.3h-2.1v-15.8h2v2.9c0.6-1,1.4-1.7,2.4-2.2c1-0.5,2.2-0.8,3.6-0.8
			C111.3,345.7,112.8,346.2,114,347.4z"/>
		<path class="st1" d="M135.3,354.3h-13.2c0.1,1.6,0.8,3,1.9,4s2.6,1.5,4.3,1.5c1,0,1.9-0.2,2.7-0.5c0.8-0.3,1.5-0.9,2.1-1.5
			l1.2,1.4c-0.7,0.8-1.6,1.5-2.6,1.9s-2.2,0.7-3.5,0.7c-1.6,0-3.1-0.3-4.3-1c-1.2-0.7-2.2-1.6-2.9-2.9c-0.7-1.2-1.1-2.6-1.1-4.1
			s0.3-2.9,1-4.1c0.7-1.2,1.6-2.2,2.8-2.8s2.5-1,3.9-1s2.8,0.3,3.9,1c1.2,0.7,2.1,1.6,2.7,2.8s1,2.6,1,4.2L135.3,354.3z
			 M123.9,348.9c-1,1-1.6,2.2-1.8,3.8h11.2c-0.1-1.6-0.7-2.8-1.8-3.8c-1-1-2.3-1.5-3.9-1.5C126.2,347.5,124.9,348,123.9,348.9z"/>
		<path class="st1" d="M140.3,361.1c-1.2-0.4-2.1-0.8-2.7-1.4l1-1.7c0.7,0.5,1.5,0.9,2.5,1.3c1,0.3,2,0.5,3.1,0.5
			c1.4,0,2.5-0.2,3.2-0.7s1-1.1,1-1.9c0-0.6-0.2-1-0.6-1.4s-0.9-0.6-1.4-0.8c-0.6-0.2-1.3-0.3-2.3-0.5c-1.3-0.2-2.3-0.5-3.1-0.7
			c-0.8-0.2-1.4-0.7-2-1.3c-0.6-0.6-0.8-1.4-0.8-2.5c0-1.3,0.5-2.4,1.6-3.2c1.1-0.8,2.6-1.3,4.6-1.3c1,0,2,0.1,3.1,0.4
			c1,0.3,1.9,0.6,2.5,1.1l-0.9,1.7c-1.3-0.9-2.9-1.4-4.7-1.4c-1.4,0-2.4,0.2-3.1,0.7c-0.7,0.5-1,1.1-1,1.9c0,0.6,0.2,1.1,0.6,1.4
			c0.4,0.4,0.9,0.6,1.5,0.8c0.6,0.2,1.4,0.3,2.4,0.5c1.3,0.2,2.3,0.5,3,0.7c0.8,0.2,1.4,0.7,1.9,1.2s0.8,1.4,0.8,2.4
			c0,1.4-0.6,2.5-1.7,3.3c-1.2,0.8-2.7,1.2-4.8,1.2C142.7,361.7,141.5,361.5,140.3,361.1z"/>
		<path class="st1" d="M155,361.1c-1.2-0.4-2.1-0.8-2.7-1.4l1-1.7c0.7,0.5,1.5,0.9,2.5,1.3c1,0.3,2,0.5,3.1,0.5
			c1.4,0,2.5-0.2,3.2-0.7s1-1.1,1-1.9c0-0.6-0.2-1-0.6-1.4s-0.9-0.6-1.4-0.8c-0.6-0.2-1.3-0.3-2.3-0.5c-1.3-0.2-2.3-0.5-3.1-0.7
			c-0.8-0.2-1.4-0.7-2-1.3c-0.6-0.6-0.8-1.4-0.8-2.5c0-1.3,0.5-2.4,1.6-3.2c1.1-0.8,2.6-1.3,4.6-1.3c1,0,2,0.1,3.1,0.4
			c1,0.3,1.9,0.6,2.5,1.1l-0.9,1.7c-1.3-0.9-2.9-1.4-4.7-1.4c-1.4,0-2.4,0.2-3.1,0.7c-0.7,0.5-1,1.1-1,1.9c0,0.6,0.2,1.1,0.6,1.4
			c0.4,0.4,0.9,0.6,1.5,0.8c0.6,0.2,1.4,0.3,2.4,0.5c1.3,0.2,2.3,0.5,3,0.7c0.8,0.2,1.4,0.7,1.9,1.2s0.8,1.4,0.8,2.4
			c0,1.4-0.6,2.5-1.7,3.3c-1.2,0.8-2.7,1.2-4.8,1.2C157.3,361.7,156.1,361.5,155,361.1z"/>
		<path class="st1" d="M179.3,360.7c-1.2-0.7-2.2-1.6-2.9-2.9c-0.7-1.2-1.1-2.6-1.1-4.1s0.3-2.9,1.1-4.1c0.7-1.2,1.7-2.2,2.9-2.8
			c1.2-0.7,2.6-1,4.1-1c1.5,0,2.9,0.3,4.1,1s2.2,1.6,2.9,2.8c0.7,1.2,1,2.6,1,4.1s-0.3,2.9-1,4.1s-1.6,2.2-2.9,2.9
			c-1.2,0.7-2.6,1-4.1,1C181.9,361.7,180.5,361.4,179.3,360.7z M186.4,359c0.9-0.5,1.6-1.2,2.1-2.2c0.5-0.9,0.8-2,0.8-3.2
			c0-1.2-0.3-2.3-0.8-3.2c-0.5-0.9-1.2-1.7-2.1-2.2c-0.9-0.5-1.9-0.8-3-0.8s-2.1,0.3-3,0.8c-0.9,0.5-1.6,1.2-2.1,2.2
			c-0.5,0.9-0.8,2-0.8,3.2c0,1.2,0.3,2.3,0.8,3.2c0.5,0.9,1.2,1.7,2.1,2.2s1.9,0.8,3,0.8S185.5,359.6,186.4,359z"/>
		<path class="st1" d="M207.9,346.7c1.2,0.7,2.1,1.6,2.8,2.8c0.7,1.2,1,2.6,1,4.2c0,1.6-0.3,3-1,4.2c-0.7,1.2-1.6,2.2-2.8,2.8
			c-1.2,0.7-2.5,1-4,1c-1.3,0-2.5-0.3-3.6-0.8c-1-0.6-1.9-1.4-2.5-2.4v3.1h-2v-22.3h2.1v9.5c0.7-1,1.5-1.8,2.5-2.3
			c1-0.5,2.2-0.8,3.5-0.8C205.3,345.7,206.7,346,207.9,346.7z M206.7,359c0.9-0.5,1.6-1.2,2.1-2.2c0.5-0.9,0.8-2,0.8-3.2
			c0-1.2-0.3-2.3-0.8-3.2c-0.5-0.9-1.2-1.7-2.1-2.2c-0.9-0.5-1.9-0.8-3-0.8c-1.1,0-2.1,0.3-3,0.8c-0.9,0.5-1.6,1.2-2.1,2.2
			c-0.5,0.9-0.8,2-0.8,3.2c0,1.2,0.3,2.3,0.8,3.2c0.5,0.9,1.2,1.7,2.1,2.2c0.9,0.5,1.9,0.8,3,0.8C204.8,359.8,205.8,359.6,206.7,359
			z"/>
		<path class="st1" d="M211.9,367.3c-0.6-0.2-1.1-0.4-1.5-0.8l0.8-1.6c0.6,0.5,1.4,0.8,2.5,0.8c0.8,0,1.5-0.2,1.9-0.8
			c0.5-0.5,0.7-1.2,0.7-2.2v-17h2.1v17c0,1.5-0.4,2.7-1.2,3.5c-0.8,0.9-1.9,1.3-3.4,1.3C213.1,367.5,212.5,367.4,211.9,367.3z
			 M216.2,341.8c-0.3-0.3-0.4-0.7-0.4-1.1c0-0.4,0.1-0.8,0.4-1c0.3-0.3,0.7-0.5,1.1-0.5c0.4,0,0.8,0.1,1.1,0.4
			c0.3,0.3,0.4,0.6,0.4,1c0,0.4-0.1,0.8-0.4,1.1c-0.3,0.3-0.7,0.5-1.1,0.5C216.9,342.3,216.5,342.1,216.2,341.8z"/>
		<path class="st1" d="M238,354.3h-13.2c0.1,1.6,0.8,3,1.9,4s2.6,1.5,4.3,1.5c1,0,1.9-0.2,2.7-0.5c0.8-0.3,1.5-0.9,2.1-1.5l1.2,1.4
			c-0.7,0.8-1.6,1.5-2.6,1.9s-2.2,0.7-3.5,0.7c-1.6,0-3.1-0.3-4.3-1c-1.2-0.7-2.2-1.6-2.9-2.9c-0.7-1.2-1.1-2.6-1.1-4.1
			s0.3-2.9,1-4.1c0.7-1.2,1.6-2.2,2.8-2.8s2.5-1,3.9-1s2.8,0.3,3.9,1c1.2,0.7,2.1,1.6,2.7,2.8s1,2.6,1,4.2L238,354.3z M226.6,348.9
			c-1,1-1.6,2.2-1.8,3.8H236c-0.1-1.6-0.7-2.8-1.8-3.8c-1-1-2.3-1.5-3.9-1.5C228.9,347.5,227.6,348,226.6,348.9z"/>
		<path class="st1" d="M244.8,360.7c-1.2-0.7-2.2-1.6-2.9-2.9c-0.7-1.2-1.1-2.6-1.1-4.2s0.3-2.9,1.1-4.1c0.7-1.2,1.7-2.2,2.9-2.8
			s2.6-1,4.2-1c1.4,0,2.6,0.3,3.6,0.8c1.1,0.5,1.9,1.3,2.5,2.3l-1.6,1.1c-0.5-0.8-1.2-1.4-2-1.8c-0.8-0.4-1.7-0.6-2.6-0.6
			c-1.1,0-2.2,0.3-3.1,0.8c-0.9,0.5-1.6,1.2-2.1,2.2c-0.5,0.9-0.8,2-0.8,3.2c0,1.2,0.3,2.3,0.8,3.2c0.5,0.9,1.2,1.7,2.1,2.2
			c0.9,0.5,1.9,0.8,3.1,0.8c0.9,0,1.8-0.2,2.6-0.6c0.8-0.4,1.5-1,2-1.7l1.6,1.1c-0.6,1-1.5,1.8-2.5,2.3c-1.1,0.5-2.3,0.8-3.6,0.8
			C247.4,361.7,246,361.4,244.8,360.7z"/>
		<path class="st1" d="M267.8,360.6c-0.4,0.4-0.9,0.6-1.5,0.8c-0.6,0.2-1.2,0.3-1.8,0.3c-1.5,0-2.6-0.4-3.4-1.2s-1.2-1.9-1.2-3.4
			v-9.5H257v-1.8h2.8v-3.5h2.1v3.5h4.8v1.8H262v9.4c0,0.9,0.2,1.7,0.7,2.1c0.5,0.5,1.1,0.7,2,0.7c0.4,0,0.9-0.1,1.3-0.2
			c0.4-0.1,0.8-0.3,1.1-0.6L267.8,360.6z"/>
		<path class="st1" d="M271.6,341.9c-0.3-0.3-0.4-0.7-0.4-1.1c0-0.4,0.1-0.8,0.4-1c0.3-0.3,0.7-0.5,1.1-0.5s0.8,0.1,1.1,0.4
			c0.3,0.3,0.4,0.6,0.4,1c0,0.4-0.1,0.8-0.4,1.1c-0.3,0.3-0.7,0.4-1.1,0.4S271.9,342.2,271.6,341.9z M271.7,345.8h2.1v15.8h-2.1
			V345.8z"/>
		<path class="st1" d="M293,345.8l-7,15.8h-2.2l-7-15.8h2.2l5.9,13.4l6-13.4H293z"/>
		<path class="st1" d="M309.3,354.3h-13.2c0.1,1.6,0.8,3,1.9,4s2.6,1.5,4.3,1.5c1,0,1.9-0.2,2.7-0.5c0.8-0.3,1.5-0.9,2.1-1.5
			l1.2,1.4c-0.7,0.8-1.6,1.5-2.6,1.9s-2.2,0.7-3.5,0.7c-1.6,0-3.1-0.3-4.3-1c-1.2-0.7-2.2-1.6-2.9-2.9c-0.7-1.2-1.1-2.6-1.1-4.1
			s0.3-2.9,1-4.1c0.7-1.2,1.6-2.2,2.8-2.8s2.5-1,3.9-1s2.8,0.3,3.9,1c1.2,0.7,2.1,1.6,2.7,2.8s1,2.6,1,4.2L309.3,354.3z
			 M297.8,348.9c-1,1-1.6,2.2-1.8,3.8h11.2c-0.1-1.6-0.7-2.8-1.8-3.8c-1-1-2.3-1.5-3.9-1.5C300.1,347.5,298.9,348,297.8,348.9z"/>
		<path class="st1" d="M314.2,361.1c-1.2-0.4-2.1-0.8-2.7-1.4l1-1.7c0.7,0.5,1.5,0.9,2.5,1.3c1,0.3,2,0.5,3.1,0.5
			c1.4,0,2.5-0.2,3.2-0.7c0.7-0.5,1-1.1,1-1.9c0-0.6-0.2-1-0.6-1.4c-0.4-0.3-0.9-0.6-1.4-0.8c-0.6-0.2-1.3-0.3-2.3-0.5
			c-1.3-0.2-2.3-0.5-3.1-0.7c-0.8-0.2-1.4-0.7-2-1.3c-0.6-0.6-0.8-1.4-0.8-2.5c0-1.3,0.5-2.4,1.6-3.2c1.1-0.8,2.6-1.3,4.6-1.3
			c1,0,2,0.1,3.1,0.4c1,0.3,1.9,0.6,2.5,1.1l-0.9,1.7c-1.3-0.9-2.8-1.4-4.6-1.4c-1.4,0-2.4,0.2-3.1,0.7c-0.7,0.5-1,1.1-1,1.9
			c0,0.6,0.2,1.1,0.6,1.4c0.4,0.4,0.9,0.6,1.5,0.8c0.6,0.2,1.4,0.3,2.4,0.5c1.3,0.2,2.3,0.5,3,0.7c0.8,0.2,1.4,0.7,1.9,1.2
			c0.5,0.6,0.8,1.4,0.8,2.4c0,1.4-0.6,2.5-1.7,3.3c-1.2,0.8-2.7,1.2-4.8,1.2C316.6,361.7,315.4,361.5,314.2,361.1z"/>
		<path class="st1" d="M327.4,361.2c-0.3-0.3-0.5-0.7-0.5-1.2s0.2-0.8,0.5-1.2c0.3-0.3,0.7-0.5,1.1-0.5c0.4,0,0.8,0.2,1.1,0.5
			c0.3,0.3,0.5,0.7,0.5,1.2s-0.2,0.9-0.5,1.2c-0.3,0.3-0.7,0.5-1.1,0.5C328.1,361.7,327.7,361.5,327.4,361.2z"/>
		<path class="st1" d="M39.7,433c-1.4-0.5-2.5-1.2-3.3-2l0.9-1.7c0.8,0.8,1.8,1.4,3,1.8c1.3,0.5,2.6,0.7,3.9,0.7
			c1.9,0,3.3-0.3,4.2-1c0.9-0.7,1.4-1.6,1.4-2.7c0-0.8-0.3-1.5-0.8-2c-0.5-0.5-1.1-0.9-1.9-1.2c-0.7-0.3-1.8-0.6-3.1-0.9
			c-1.6-0.4-2.8-0.8-3.8-1.2s-1.7-0.9-2.4-1.7c-0.7-0.8-1-1.8-1-3.1c0-1.1,0.3-2,0.8-2.9c0.6-0.9,1.4-1.6,2.6-2.1
			c1.2-0.5,2.6-0.8,4.3-0.8c1.2,0,2.4,0.2,3.5,0.5c1.1,0.3,2.1,0.8,3,1.4l-0.8,1.8c-0.9-0.6-1.8-1-2.8-1.3c-1-0.3-2-0.4-2.9-0.4
			c-1.8,0-3.2,0.4-4.2,1.1c-0.9,0.7-1.4,1.6-1.4,2.7c0,0.8,0.3,1.5,0.8,2s1.1,0.9,1.9,1.2c0.8,0.3,1.8,0.6,3.1,0.9
			c1.5,0.4,2.8,0.8,3.7,1.1c0.9,0.4,1.8,0.9,2.4,1.7c0.7,0.8,1,1.8,1,3c0,1.1-0.3,2-0.9,2.9s-1.4,1.6-2.6,2.1
			c-1.2,0.5-2.6,0.8-4.4,0.8C42.6,433.7,41.2,433.5,39.7,433z"/>
		<path class="st1" d="M58.8,432.7c-1.2-0.7-2.2-1.6-2.9-2.9c-0.7-1.2-1.1-2.6-1.1-4.2s0.3-2.9,1.1-4.1c0.7-1.2,1.7-2.2,2.9-2.8
			s2.6-1,4.2-1c1.4,0,2.6,0.3,3.6,0.8c1.1,0.5,1.9,1.3,2.5,2.3l-1.6,1.1c-0.5-0.8-1.2-1.4-2-1.8c-0.8-0.4-1.7-0.6-2.6-0.6
			c-1.1,0-2.2,0.3-3.1,0.8c-0.9,0.5-1.6,1.2-2.1,2.2c-0.5,0.9-0.8,2-0.8,3.2c0,1.2,0.3,2.3,0.8,3.2c0.5,0.9,1.2,1.7,2.1,2.2
			c0.9,0.5,1.9,0.8,3.1,0.8c0.9,0,1.8-0.2,2.6-0.6c0.8-0.4,1.5-1,2-1.7l1.6,1.1c-0.6,1-1.5,1.8-2.5,2.3c-1.1,0.5-2.3,0.8-3.6,0.8
			C61.4,433.7,60,433.4,58.8,432.7z"/>
		<path class="st1" d="M83.6,419.2c1.1,1,1.6,2.6,1.6,4.6v9.8h-2v-2.5c-0.5,0.8-1.2,1.5-2.1,1.9c-0.9,0.5-2,0.7-3.3,0.7
			c-1.8,0-3.2-0.4-4.2-1.3c-1-0.8-1.6-1.9-1.6-3.3c0-1.3,0.5-2.4,1.5-3.2c1-0.8,2.5-1.2,4.6-1.2h5v-1c0-1.4-0.4-2.4-1.1-3.1
			c-0.8-0.7-1.9-1.1-3.3-1.1c-1,0-2,0.2-2.9,0.5s-1.7,0.8-2.4,1.4l-1-1.6c0.8-0.7,1.8-1.2,2.9-1.6c1.1-0.4,2.3-0.6,3.5-0.6
			C80.9,417.7,82.5,418.2,83.6,419.2z M81.2,431.2c0.9-0.5,1.5-1.3,1.9-2.4v-2.6h-5c-2.7,0-4,0.9-4,2.8c0,0.9,0.3,1.6,1,2.2
			c0.7,0.5,1.7,0.8,2.9,0.8C79.3,432,80.3,431.7,81.2,431.2z"/>
		<path class="st1" d="M91,411.3h2.1v22.3H91V411.3z"/>
		<path class="st1" d="M112.8,426.3H99.6c0.1,1.6,0.8,3,1.9,4s2.6,1.5,4.3,1.5c1,0,1.9-0.2,2.7-0.5c0.8-0.3,1.5-0.9,2.1-1.5l1.2,1.4
			c-0.7,0.8-1.6,1.5-2.6,1.9s-2.2,0.7-3.5,0.7c-1.6,0-3.1-0.3-4.3-1c-1.2-0.7-2.2-1.6-2.9-2.9c-0.7-1.2-1.1-2.6-1.1-4.1
			s0.3-2.9,1-4.1c0.7-1.2,1.6-2.2,2.8-2.8s2.5-1,3.9-1s2.8,0.3,3.9,1c1.2,0.7,2.1,1.6,2.7,2.8s1,2.6,1,4.2L112.8,426.3z
			 M101.4,420.9c-1,1-1.6,2.2-1.8,3.8h11.2c-0.1-1.6-0.7-2.8-1.8-3.8c-1-1-2.3-1.5-3.9-1.5C103.7,419.5,102.4,420,101.4,420.9z"/>
		<path class="st1" d="M138.3,417.8l-7.9,17.7c-0.6,1.5-1.4,2.5-2.2,3.2c-0.8,0.6-1.9,0.9-3,0.9c-0.8,0-1.5-0.1-2.1-0.4
			c-0.7-0.2-1.2-0.6-1.7-1.1l1-1.6c0.8,0.8,1.8,1.2,2.9,1.2c0.7,0,1.3-0.2,1.8-0.6c0.5-0.4,1-1.1,1.4-2l0.7-1.5l-7.1-15.8h2.2
			l5.9,13.4l5.9-13.4H138.3z"/>
		<path class="st1" d="M143.2,432.7c-1.2-0.7-2.2-1.6-2.9-2.9c-0.7-1.2-1.1-2.6-1.1-4.1s0.3-2.9,1.1-4.1c0.7-1.2,1.7-2.2,2.9-2.8
			c1.2-0.7,2.6-1,4.1-1c1.5,0,2.9,0.3,4.1,1s2.2,1.6,2.9,2.8c0.7,1.2,1,2.6,1,4.1s-0.3,2.9-1,4.1s-1.6,2.2-2.9,2.9
			c-1.2,0.7-2.6,1-4.1,1C145.8,433.7,144.4,433.4,143.2,432.7z M150.3,431c0.9-0.5,1.6-1.2,2.1-2.2c0.5-0.9,0.8-2,0.8-3.2
			c0-1.2-0.3-2.3-0.8-3.2c-0.5-0.9-1.2-1.7-2.1-2.2c-0.9-0.5-1.9-0.8-3-0.8s-2.1,0.3-3,0.8c-0.9,0.5-1.6,1.2-2.1,2.2
			c-0.5,0.9-0.8,2-0.8,3.2c0,1.2,0.3,2.3,0.8,3.2c0.5,0.9,1.2,1.7,2.1,2.2s1.9,0.8,3,0.8S149.4,431.6,150.3,431z"/>
		<path class="st1" d="M173.9,417.8v15.8h-2v-2.9c-0.6,1-1.3,1.7-2.3,2.2c-1,0.5-2.1,0.8-3.4,0.8c-2.1,0-3.7-0.6-4.9-1.7
			c-1.2-1.1-1.8-2.8-1.8-5.1v-9.2h2.1v8.9c0,1.7,0.4,2.9,1.2,3.8c0.8,0.9,2,1.3,3.5,1.3c1.7,0,3-0.5,3.9-1.5c1-1,1.4-2.4,1.4-4.2
			v-8.3H173.9z"/>
		<path class="st1" d="M184.1,418.5c1-0.5,2.2-0.8,3.7-0.8v2.1l-0.5,0c-1.7,0-3,0.5-3.9,1.5c-0.9,1-1.4,2.5-1.4,4.3v8h-2.1v-15.8h2
			v3.1C182.4,419.8,183.2,419,184.1,418.5z"/>
		<path class="st1" d="M211.9,418.7c1.2,0.7,2.1,1.6,2.8,2.8c0.7,1.2,1,2.6,1,4.2c0,1.6-0.3,3-1,4.2c-0.7,1.2-1.6,2.2-2.8,2.8
			c-1.2,0.7-2.5,1-4,1c-1.3,0-2.5-0.3-3.6-0.8c-1-0.6-1.9-1.4-2.5-2.4v3.1h-2v-22.3h2.1v9.5c0.7-1,1.5-1.8,2.5-2.3
			c1-0.5,2.2-0.8,3.5-0.8C209.4,417.7,210.7,418,211.9,418.7z M210.7,431c0.9-0.5,1.6-1.2,2.1-2.2c0.5-0.9,0.8-2,0.8-3.2
			c0-1.2-0.3-2.3-0.8-3.2c-0.5-0.9-1.2-1.7-2.1-2.2c-0.9-0.5-1.9-0.8-3-0.8c-1.1,0-2.1,0.3-3,0.8c-0.9,0.5-1.6,1.2-2.1,2.2
			c-0.5,0.9-0.8,2-0.8,3.2c0,1.2,0.3,2.3,0.8,3.2c0.5,0.9,1.2,1.7,2.1,2.2c0.9,0.5,1.9,0.8,3,0.8C208.8,431.8,209.8,431.6,210.7,431
			z"/>
		<path class="st1" d="M234.3,417.8v15.8h-2v-2.9c-0.6,1-1.3,1.7-2.3,2.2c-1,0.5-2.1,0.8-3.4,0.8c-2.1,0-3.7-0.6-4.9-1.7
			c-1.2-1.1-1.8-2.8-1.8-5.1v-9.2h2.1v8.9c0,1.7,0.4,2.9,1.2,3.8c0.8,0.9,2,1.3,3.5,1.3c1.7,0,3-0.5,3.9-1.5c1-1,1.4-2.4,1.4-4.2
			v-8.3H234.3z"/>
		<path class="st1" d="M240.8,433.1c-1.2-0.4-2.1-0.8-2.7-1.4l1-1.7c0.7,0.5,1.5,0.9,2.5,1.3c1,0.3,2,0.5,3.1,0.5
			c1.4,0,2.5-0.2,3.2-0.7s1-1.1,1-1.9c0-0.6-0.2-1-0.6-1.4s-0.9-0.6-1.4-0.8c-0.6-0.2-1.3-0.3-2.3-0.5c-1.3-0.2-2.3-0.5-3.1-0.7
			c-0.8-0.2-1.4-0.7-2-1.3c-0.6-0.6-0.8-1.4-0.8-2.5c0-1.3,0.5-2.4,1.6-3.2c1.1-0.8,2.6-1.3,4.6-1.3c1,0,2,0.1,3.1,0.4
			c1,0.3,1.9,0.6,2.5,1.1l-0.9,1.7c-1.3-0.9-2.9-1.4-4.7-1.4c-1.4,0-2.4,0.2-3.1,0.7c-0.7,0.5-1,1.1-1,1.9c0,0.6,0.2,1.1,0.6,1.4
			c0.4,0.4,0.9,0.6,1.5,0.8c0.6,0.2,1.4,0.3,2.4,0.5c1.3,0.2,2.3,0.5,3,0.7c0.8,0.2,1.4,0.7,1.9,1.2s0.8,1.4,0.8,2.4
			c0,1.4-0.6,2.5-1.7,3.3c-1.2,0.8-2.7,1.2-4.8,1.2C243.2,433.7,242,433.5,240.8,433.1z"/>
		<path class="st1" d="M254.9,413.9c-0.3-0.3-0.4-0.7-0.4-1.1c0-0.4,0.1-0.8,0.4-1c0.3-0.3,0.7-0.5,1.1-0.5s0.8,0.1,1.1,0.4
			c0.3,0.3,0.4,0.6,0.4,1c0,0.4-0.1,0.8-0.4,1.1c-0.3,0.3-0.7,0.4-1.1,0.4S255.2,414.2,254.9,413.9z M255,417.8h2.1v15.8H255V417.8z
			"/>
		<path class="st1" d="M275.8,419.4c1.2,1.2,1.8,2.8,1.8,5v9.2h-2.1v-8.9c0-1.6-0.4-2.9-1.2-3.8c-0.8-0.9-2-1.3-3.5-1.3
			c-1.7,0-3,0.5-4,1.5c-1,1-1.5,2.4-1.5,4.2v8.3H263v-15.8h2v2.9c0.6-1,1.4-1.7,2.4-2.2c1-0.5,2.2-0.8,3.6-0.8
			C273,417.7,274.6,418.2,275.8,419.4z"/>
		<path class="st1" d="M297.1,426.3h-13.2c0.1,1.6,0.8,3,1.9,4s2.6,1.5,4.3,1.5c1,0,1.9-0.2,2.7-0.5c0.8-0.3,1.5-0.9,2.1-1.5
			l1.2,1.4c-0.7,0.8-1.6,1.5-2.6,1.9s-2.2,0.7-3.5,0.7c-1.6,0-3.1-0.3-4.3-1c-1.2-0.7-2.2-1.6-2.9-2.9c-0.7-1.2-1.1-2.6-1.1-4.1
			s0.3-2.9,1-4.1c0.7-1.2,1.6-2.2,2.8-2.8s2.5-1,3.9-1s2.8,0.3,3.9,1c1.2,0.7,2.1,1.6,2.7,2.8s1,2.6,1,4.2L297.1,426.3z
			 M285.7,420.9c-1,1-1.6,2.2-1.8,3.8h11.2c-0.1-1.6-0.7-2.8-1.8-3.8c-1-1-2.3-1.5-3.9-1.5C288,419.5,286.7,420,285.7,420.9z"/>
		<path class="st1" d="M302.1,433.1c-1.2-0.4-2.1-0.8-2.7-1.4l1-1.7c0.7,0.5,1.5,0.9,2.5,1.3c1,0.3,2,0.5,3.1,0.5
			c1.4,0,2.5-0.2,3.2-0.7s1-1.1,1-1.9c0-0.6-0.2-1-0.6-1.4s-0.9-0.6-1.4-0.8c-0.6-0.2-1.3-0.3-2.3-0.5c-1.3-0.2-2.3-0.5-3.1-0.7
			c-0.8-0.2-1.4-0.7-2-1.3c-0.6-0.6-0.8-1.4-0.8-2.5c0-1.3,0.5-2.4,1.6-3.2c1.1-0.8,2.6-1.3,4.6-1.3c1,0,2,0.1,3.1,0.4
			c1,0.3,1.9,0.6,2.5,1.1l-0.9,1.7c-1.3-0.9-2.9-1.4-4.7-1.4c-1.4,0-2.4,0.2-3.1,0.7c-0.7,0.5-1,1.1-1,1.9c0,0.6,0.2,1.1,0.6,1.4
			c0.4,0.4,0.9,0.6,1.5,0.8c0.6,0.2,1.4,0.3,2.4,0.5c1.3,0.2,2.3,0.5,3,0.7c0.8,0.2,1.4,0.7,1.9,1.2s0.8,1.4,0.8,2.4
			c0,1.4-0.6,2.5-1.7,3.3c-1.2,0.8-2.7,1.2-4.8,1.2C304.5,433.7,303.2,433.5,302.1,433.1z"/>
		<path class="st1" d="M316.7,433.1c-1.2-0.4-2.1-0.8-2.7-1.4l1-1.7c0.7,0.5,1.5,0.9,2.5,1.3c1,0.3,2,0.5,3.1,0.5
			c1.4,0,2.5-0.2,3.2-0.7c0.7-0.5,1-1.1,1-1.9c0-0.6-0.2-1-0.6-1.4c-0.4-0.3-0.9-0.6-1.4-0.8c-0.6-0.2-1.3-0.3-2.3-0.5
			c-1.3-0.2-2.3-0.5-3.1-0.7c-0.8-0.2-1.4-0.7-2-1.3c-0.6-0.6-0.8-1.4-0.8-2.5c0-1.3,0.5-2.4,1.6-3.2c1.1-0.8,2.6-1.3,4.6-1.3
			c1,0,2,0.1,3.1,0.4c1,0.3,1.9,0.6,2.5,1.1l-0.9,1.7c-1.3-0.9-2.8-1.4-4.7-1.4c-1.4,0-2.4,0.2-3.1,0.7c-0.7,0.5-1,1.1-1,1.9
			c0,0.6,0.2,1.1,0.6,1.4c0.4,0.4,0.9,0.6,1.5,0.8c0.6,0.2,1.4,0.3,2.4,0.5c1.3,0.2,2.3,0.5,3,0.7c0.8,0.2,1.4,0.7,1.9,1.2
			c0.5,0.6,0.8,1.4,0.8,2.4c0,1.4-0.6,2.5-1.7,3.3c-1.2,0.8-2.7,1.2-4.8,1.2C319.1,433.7,317.9,433.5,316.7,433.1z"/>
		<path class="st1" d="M330.7,433.2c-0.3-0.3-0.5-0.7-0.5-1.1c0-0.4,0.2-0.8,0.5-1.1s0.7-0.4,1.1-0.4c0.4,0,0.8,0.1,1.1,0.4
			s0.5,0.7,0.5,1.1c0,0.4-0.2,0.8-0.5,1.1c-0.3,0.3-0.7,0.5-1.1,0.5C331.3,433.7,331,433.5,330.7,433.2z M330.5,412.6h2.5l-0.5,14.7
			h-1.7L330.5,412.6z"/>
	</g>
</g>
<g>
	<path class="st1" d="M41.1,47.7h8.7v23.7h14.6v6.9H41.1V47.7z"/>
	<path class="st1" d="M91.3,68.5H74.1c0.3,1.2,1,2.2,2,2.8s2.3,1,3.8,1c1.1,0,2.1-0.2,3-0.5c0.8-0.3,1.7-0.8,2.5-1.6l4.4,4.5
		c-2.3,2.6-5.7,3.8-10.1,3.8c-2.8,0-5.2-0.5-7.3-1.6s-3.7-2.5-4.9-4.4c-1.2-1.9-1.7-4-1.7-6.3c0-2.3,0.6-4.4,1.7-6.3
		c1.1-1.9,2.7-3.3,4.7-4.4c2-1,4.2-1.6,6.7-1.6c2.4,0,4.5,0.5,6.4,1.5s3.4,2.4,4.6,4.2c1.1,1.9,1.7,4,1.7,6.6
		C91.5,66.5,91.4,67.2,91.3,68.5z M75.6,61.2c-0.9,0.7-1.4,1.7-1.6,3h9.7c-0.2-1.3-0.8-2.2-1.6-3c-0.9-0.7-1.9-1.1-3.2-1.1
		C77.6,60.1,76.5,60.4,75.6,61.2z"/>
	<path class="st1" d="M113.8,56.9c2.1,1.8,3.1,4.5,3.1,8.2v13.2h-7.7v-3.1c-1.2,2.3-3.5,3.5-7,3.5c-1.8,0-3.4-0.3-4.8-1
		c-1.3-0.6-2.4-1.5-3-2.6c-0.7-1.1-1-2.3-1-3.7c0-2.2,0.9-4,2.6-5.2c1.7-1.2,4.4-1.9,8-1.9h4.7c-0.1-2.5-1.8-3.8-5-3.8
		c-1.1,0-2.3,0.2-3.5,0.5c-1.2,0.4-2.2,0.9-3,1.5l-2.8-5.6c1.3-0.9,2.9-1.6,4.8-2s3.8-0.7,5.7-0.7C108.7,54.2,111.7,55.1,113.8,56.9
		z M107,72.7c0.7-0.5,1.3-1.2,1.6-2.1v-2.1H105c-2.4,0-3.6,0.8-3.6,2.4c0,0.7,0.3,1.3,0.8,1.7c0.6,0.4,1.3,0.7,2.3,0.7
		S106.3,73.2,107,72.7z"/>
	<path class="st1" d="M147.7,45.8v32.4h-7.9v-2.4c-1.5,1.8-3.9,2.8-7,2.8c-2.2,0-4.1-0.5-5.9-1.5c-1.8-1-3.2-2.4-4.2-4.3
		c-1-1.9-1.6-4-1.6-6.5c0-2.4,0.5-4.6,1.6-6.4c1-1.9,2.4-3.3,4.2-4.3c1.8-1,3.7-1.5,5.9-1.5c2.8,0,5,0.8,6.6,2.4V45.8H147.7z
		 M138.1,70.5c0.9-1,1.4-2.4,1.4-4.2c0-1.7-0.5-3.1-1.4-4.1c-0.9-1-2.1-1.5-3.6-1.5c-1.5,0-2.7,0.5-3.6,1.5c-0.9,1-1.4,2.4-1.4,4.1
		c0,1.8,0.5,3.2,1.4,4.2c0.9,1,2.1,1.5,3.6,1.5C136,72,137.2,71.5,138.1,70.5z"/>
	<path class="st1" d="M61.6,108.8h7.7v12.7c-1.7,1.3-3.8,2.2-6,2.9c-2.3,0.7-4.5,1-6.8,1c-3.2,0-6.1-0.7-8.7-2
		c-2.6-1.4-4.6-3.2-6-5.7c-1.5-2.4-2.2-5.2-2.2-8.2c0-3.1,0.7-5.8,2.2-8.2c1.5-2.4,3.5-4.3,6.1-5.7c2.6-1.4,5.5-2,8.8-2
		c2.9,0,5.4,0.5,7.7,1.4c2.3,1,4.2,2.3,5.7,4.2l-5.5,5c-2.1-2.3-4.5-3.4-7.4-3.4c-2.6,0-4.7,0.8-6.3,2.4c-1.6,1.6-2.4,3.7-2.4,6.4
		c0,1.7,0.4,3.2,1.1,4.5c0.7,1.3,1.7,2.4,3.1,3.1c1.3,0.7,2.8,1.1,4.5,1.1c1.7,0,3.2-0.3,4.7-1V108.8z"/>
	<path class="st1" d="M98.4,115H81.2c0.3,1.2,1,2.2,2,2.8s2.3,1,3.8,1c1.1,0,2.1-0.2,3-0.5c0.8-0.3,1.7-0.8,2.5-1.6l4.4,4.5
		c-2.3,2.6-5.7,3.8-10.1,3.8c-2.8,0-5.2-0.5-7.3-1.6s-3.7-2.5-4.9-4.4c-1.2-1.9-1.7-4-1.7-6.3c0-2.3,0.6-4.4,1.7-6.3
		c1.1-1.9,2.7-3.3,4.7-4.4c2-1,4.2-1.6,6.7-1.6c2.4,0,4.5,0.5,6.4,1.5s3.4,2.4,4.6,4.2c1.1,1.9,1.7,4,1.7,6.6
		C98.6,113,98.5,113.7,98.4,115z M82.7,107.6c-0.9,0.7-1.4,1.7-1.6,3h9.7c-0.2-1.3-0.8-2.2-1.6-3c-0.9-0.7-1.9-1.1-3.2-1.1
		C84.6,106.5,83.6,106.9,82.7,107.6z"/>
	<path class="st1" d="M125,103.3c1.8,1.7,2.7,4.4,2.7,7.9v13.6h-8.3v-12.2c0-3.2-1.3-4.9-3.9-4.9c-1.4,0-2.6,0.5-3.4,1.4
		c-0.9,0.9-1.3,2.3-1.3,4.2v11.5h-8.3V101h7.9v2.6c0.9-1,2-1.7,3.3-2.2c1.3-0.5,2.7-0.8,4.2-0.8C120.8,100.6,123.2,101.5,125,103.3z
		"/>
	<path class="st1" d="M157.3,115h-17.2c0.3,1.2,1,2.2,2,2.8s2.3,1,3.8,1c1.1,0,2.1-0.2,3-0.5c0.8-0.3,1.7-0.8,2.5-1.6l4.4,4.5
		c-2.3,2.6-5.7,3.8-10.1,3.8c-2.8,0-5.2-0.5-7.3-1.6s-3.7-2.5-4.9-4.4c-1.2-1.9-1.7-4-1.7-6.3c0-2.3,0.6-4.4,1.7-6.3
		c1.1-1.9,2.7-3.3,4.7-4.4c2-1,4.2-1.6,6.7-1.6c2.4,0,4.5,0.5,6.4,1.5s3.4,2.4,4.6,4.2c1.1,1.9,1.7,4,1.7,6.6
		C157.4,113,157.4,113.7,157.3,115z M141.6,107.6c-0.9,0.7-1.4,1.7-1.6,3h9.7c-0.2-1.3-0.8-2.2-1.6-3c-0.9-0.7-1.9-1.1-3.2-1.1
		C143.5,106.5,142.4,106.9,141.6,107.6z"/>
	<path class="st1" d="M172.5,101.4c1.4-0.5,2.9-0.8,4.7-0.8v7.5c-0.8-0.1-1.4-0.1-1.9-0.1c-1.8,0-3.2,0.5-4.2,1.4
		c-1,1-1.5,2.4-1.5,4.4v10.9h-8.3V101h7.9v2.8C170,102.8,171.1,102,172.5,101.4z"/>
	<path class="st1" d="M199.5,103.3c2.1,1.8,3.1,4.5,3.1,8.2v13.2h-7.7v-3.1c-1.2,2.3-3.5,3.5-7,3.5c-1.8,0-3.4-0.3-4.8-1
		c-1.3-0.6-2.4-1.5-3-2.6c-0.7-1.1-1-2.3-1-3.7c0-2.2,0.9-4,2.6-5.2c1.7-1.2,4.4-1.9,8-1.9h4.7c-0.1-2.5-1.8-3.8-5-3.8
		c-1.1,0-2.3,0.2-3.5,0.5c-1.2,0.4-2.2,0.9-3,1.5l-2.8-5.6c1.3-0.9,2.9-1.6,4.8-2s3.8-0.7,5.7-0.7
		C194.4,100.6,197.4,101.5,199.5,103.3z M192.7,119.2c0.7-0.5,1.3-1.2,1.6-2.1v-2.1h-3.6c-2.4,0-3.6,0.8-3.6,2.4
		c0,0.7,0.3,1.3,0.8,1.7c0.6,0.4,1.3,0.7,2.3,0.7S192,119.6,192.7,119.2z"/>
	<path class="st1" d="M224.2,123.8c-0.7,0.4-1.6,0.8-2.6,1c-1,0.2-2.1,0.3-3.2,0.3c-3.1,0-5.5-0.8-7.1-2.3c-1.7-1.5-2.5-3.8-2.5-6.8
		v-8h-3.5v-6.2h3.5v-6.2h8.3v6.2h5.4v6.2h-5.4v7.9c0,0.8,0.2,1.5,0.7,2c0.5,0.5,1.1,0.7,1.8,0.7c1,0,1.8-0.2,2.5-0.7L224.2,123.8z"
		/>
	<path class="st1" d="M227.9,97.1c-0.9-0.8-1.4-1.9-1.4-3.1c0-1.3,0.5-2.3,1.4-3.1c0.9-0.8,2.2-1.3,3.7-1.3c1.5,0,2.7,0.4,3.7,1.2
		c0.9,0.8,1.4,1.8,1.4,3.1c0,1.3-0.5,2.4-1.4,3.3c-0.9,0.9-2.2,1.3-3.7,1.3C230,98.4,228.8,98,227.9,97.1z M227.4,101h8.3v23.7h-8.3
		V101z"/>
	<path class="st1" d="M246.1,123.5c-2-1-3.6-2.5-4.8-4.4c-1.2-1.9-1.7-4-1.7-6.3c0-2.3,0.6-4.4,1.7-6.3c1.2-1.9,2.7-3.3,4.8-4.4
		c2-1,4.3-1.6,6.9-1.6s4.9,0.5,6.9,1.6c2,1,3.6,2.5,4.8,4.3c1.1,1.9,1.7,4,1.7,6.3s-0.6,4.5-1.7,6.3c-1.1,1.9-2.7,3.3-4.8,4.4
		c-2,1-4.3,1.6-6.9,1.6C250.4,125.1,248.1,124.6,246.1,123.5z M256.5,117c0.9-1,1.4-2.4,1.4-4.2c0-1.7-0.5-3.1-1.4-4.1
		c-0.9-1-2.1-1.5-3.6-1.5c-1.5,0-2.7,0.5-3.6,1.5c-0.9,1-1.4,2.4-1.4,4.1c0,1.8,0.5,3.2,1.4,4.2c0.9,1,2.1,1.5,3.6,1.5
		C254.4,118.5,255.6,118,256.5,117z"/>
	<path class="st1" d="M292.7,103.3c1.8,1.7,2.7,4.4,2.7,7.9v13.6h-8.3v-12.2c0-3.2-1.3-4.9-3.9-4.9c-1.4,0-2.6,0.5-3.4,1.4
		c-0.9,0.9-1.3,2.3-1.3,4.2v11.5h-8.3V101h7.9v2.6c0.9-1,2-1.7,3.3-2.2c1.3-0.5,2.7-0.8,4.2-0.8
		C288.6,100.6,290.9,101.5,292.7,103.3z"/>
</g>
</svg>
