<?xml version="1.0" encoding="utf-8"?>
<!-- Generator: Adobe Illustrator 25.2.3, SVG Export Plug-In . SVG Version: 6.00 Build 0)  -->
<svg version="1.1" id="Layer_1" xmlns="http://www.w3.org/2000/svg" xmlns:xlink="http://www.w3.org/1999/xlink" x="0px" y="0px"
	 viewBox="0 0 640 640" style="enable-background:new 0 0 640 640;" xml:space="preserve">
<style type="text/css">
	.st0{fill:none;stroke:#434244;stroke-width:0.5;stroke-miterlimit:10;}
	.st1{fill:#087892;}
</style>
<g id="a4fec528-97c3-41ca-a4e9-0022f6a7dcd1">
	
		<image style="overflow:visible;enable-background:new    ;" width="619" height="673" xlink:href="53873E01983B78A5.jpeg"  transform="matrix(0.35 0 0 0.35 416.47 393.8598)">
	</image>
	<line class="st0" x1="33.8" y1="589.3" x2="432" y2="589.3"/>
	<path class="st1" d="M58.6,47.7c1.9,0.8,3.5,2.2,4.7,3.9c2.2,3.7,2.2,8.3,0,12c-1.1,1.7-2.8,3.1-4.7,3.9c-2.3,1-4.7,1.4-7.2,1.4
		h-6.3v8.6h-7.2V46.3h13.5C53.8,46.3,56.3,46.7,58.6,47.7z M55.9,61.6c1.2-1,1.8-2.5,1.7-4c0.1-1.5-0.6-3-1.7-4
		c-1.4-1-3.2-1.5-4.9-1.4h-5.9V63H51C52.7,63.1,54.5,62.6,55.9,61.6z"/>
	<path class="st1" d="M87.5,55.8c2,1.8,3,4.4,3,8v13.7H84v-3c-1.3,2.2-3.7,3.3-7.3,3.3c-1.6,0-3.3-0.3-4.8-0.9
		c-1.3-0.5-2.3-1.4-3.1-2.6c-0.7-1.1-1.1-2.4-1.1-3.7c-0.1-2.1,0.9-4,2.5-5.3c1.7-1.3,4.3-1.9,7.8-1.9h5.5c0.1-1.3-0.4-2.6-1.4-3.5
		C81,59,79.5,58.6,78,58.7c-1.3,0-2.5,0.2-3.8,0.6c-1.1,0.4-2.2,0.9-3.1,1.6l-2.5-4.8c1.4-1,3-1.7,4.7-2.1c1.8-0.5,3.7-0.8,5.7-0.8
		C82.7,53.2,85.6,54.1,87.5,55.8z M81.6,72.4c0.9-0.5,1.6-1.4,2-2.4v-2.5h-4.8c-2.9,0-4.3,0.9-4.3,2.8c0,0.8,0.3,1.6,1,2.1
		c0.8,0.6,1.9,0.8,2.9,0.8C79.5,73.2,80.6,72.9,81.6,72.4z"/>
	<path class="st1" d="M97.2,49.1c-1.5-1.4-1.6-3.8-0.2-5.3c0.1-0.1,0.1-0.2,0.2-0.2c0.9-0.8,2-1.2,3.1-1.1c1.1-0.1,2.3,0.3,3.1,1.1
		c0.8,0.7,1.2,1.6,1.2,2.7c0,1.1-0.4,2.1-1.2,2.9C101.6,50.6,99,50.6,97.2,49.1L97.2,49.1z M96.8,53.5h7v24h-7V53.5z"/>
	<path class="st1" d="M134.6,44.5v33H128v-2.8c-1.7,2.1-4.2,3.1-7.5,3.1c-2.1,0-4.2-0.5-6.1-1.5c-1.8-1-3.3-2.5-4.3-4.3
		c-2.1-4.1-2.1-8.9,0-13c1-1.8,2.5-3.3,4.3-4.3c1.9-1,4-1.5,6.1-1.5c2.7-0.1,5.3,0.9,7.2,2.9V44.5H134.6z M126.1,70.4
		c1.2-1.3,1.8-3.1,1.7-4.8c0.1-1.8-0.5-3.5-1.7-4.8c-2.4-2.4-6.3-2.4-8.8,0c-1.2,1.3-1.8,3.1-1.7,4.8c-0.1,1.8,0.5,3.5,1.7,4.8
		C119.7,72.8,123.6,72.8,126.1,70.4z"/>
	<path class="st1" d="M66.2,123.8v-18.7L57,120.5h-3.2l-9.1-15v18.3h-6.8V92.6h6L55.5,112L67,92.6h5.9l0.1,31.2H66.2z"/>
	<path class="st1" d="M103.3,113.8H85.1c0.3,1.4,1.1,2.7,2.3,3.5c1.3,0.9,2.9,1.4,4.5,1.3c1.1,0,2.3-0.2,3.3-0.6
		c1-0.4,1.9-1,2.7-1.8l3.7,4c-2.3,2.6-5.6,3.9-9.9,3.9c-2.5,0.1-4.9-0.5-7.2-1.6c-2-1-3.7-2.5-4.8-4.4c-2.2-3.9-2.2-8.8,0-12.7
		c1.1-1.9,2.7-3.4,4.6-4.4c2-1.1,4.2-1.6,6.5-1.6c2.2,0,4.4,0.5,6.4,1.5c1.9,1,3.4,2.5,4.5,4.3c1.1,2,1.7,4.3,1.6,6.6
		C103.4,112,103.3,112.6,103.3,113.8z M87,106.1c-1.1,0.9-1.8,2.2-2,3.7h11.8c-0.2-1.4-0.9-2.7-2-3.6c-1.1-0.9-2.4-1.4-3.8-1.4
		C89.5,104.7,88.1,105.2,87,106.1z"/>
	<path class="st1" d="M132.4,90.8v33.1h-6.6v-2.8c-1.7,2.1-4.2,3.1-7.5,3.1c-2.1,0-4.2-0.5-6.1-1.5c-1.8-1-3.3-2.5-4.3-4.3
		c-2.1-4.1-2.1-8.9,0-13c1-1.8,2.5-3.3,4.3-4.3c1.9-1,4-1.5,6.1-1.5c2.7-0.2,5.3,0.9,7.2,2.9V90.8H132.4z M123.9,116.7
		c2.3-2.8,2.3-6.9,0-9.7c-2.4-2.4-6.3-2.4-8.8,0c-2.3,2.8-2.3,6.9,0,9.7C117.5,119.1,121.4,119.1,123.9,116.7z"/>
	<path class="st1" d="M139.2,95.4c-1.5-1.4-1.6-3.8-0.2-5.3c0.1-0.1,0.1-0.1,0.2-0.2c0.9-0.8,2-1.2,3.1-1.1c1.1-0.1,2.2,0.3,3.1,1.1
		c0.8,0.7,1.2,1.6,1.2,2.7c0,1.1-0.4,2.1-1.2,2.9c-0.8,0.8-2,1.2-3.1,1.1C141.2,96.6,140.1,96.2,139.2,95.4z M138.8,99.9h6.9v24
		h-6.9V99.9z"/>
	<path class="st1" d="M170.5,102.2c2,1.8,3,4.4,3,8v13.7H167v-3c-1.3,2.2-3.7,3.3-7.3,3.3c-1.6,0-3.3-0.3-4.8-0.9
		c-1.3-0.5-2.3-1.4-3.1-2.6c-0.7-1.1-1.1-2.4-1.1-3.7c-0.1-2.1,0.9-4,2.5-5.2c1.7-1.3,4.3-1.9,7.8-1.9h5.5c0.1-1.3-0.4-2.6-1.4-3.5
		c-1.2-0.9-2.6-1.4-4.1-1.3c-1.3,0-2.6,0.2-3.8,0.6c-1.1,0.4-2.2,0.9-3.1,1.6l-2.5-4.9c1.4-1,3-1.7,4.7-2.1c1.8-0.5,3.7-0.8,5.6-0.8
		C165.6,99.5,168.5,100.4,170.5,102.2z M164.5,118.7c0.9-0.5,1.6-1.4,2-2.4v-2.4h-4.8c-2.9,0-4.3,0.9-4.3,2.8c0,0.8,0.3,1.6,1,2.1
		c0.9,0.6,1.9,0.8,2.9,0.8C162.5,119.5,163.6,119.2,164.5,118.7L164.5,118.7z"/>
	<g>
		<path class="st1" d="M69.8,167.4l-7.1,21h-2.3l-6.2-17.9L48,188.4h-2.3l-7.1-21h2.3l6.1,18.1l6.3-18.1h2.1l6.2,18.1l6.2-18.1H69.8
			z"/>
		<path class="st1" d="M85.9,181.2H72.7c0.1,1.6,0.8,3,1.9,4c1.1,1,2.6,1.5,4.3,1.5c1,0,1.9-0.2,2.7-0.5c0.8-0.3,1.5-0.9,2.1-1.5
			l1.2,1.4c-0.7,0.8-1.6,1.5-2.6,1.9c-1,0.4-2.2,0.7-3.5,0.7c-1.6,0-3.1-0.3-4.3-1c-1.2-0.7-2.2-1.6-2.9-2.9s-1-2.6-1-4.1
			c0-1.5,0.3-2.9,1-4.1s1.6-2.2,2.8-2.8s2.5-1,3.9-1s2.8,0.3,3.9,1s2.1,1.6,2.7,2.8s1,2.6,1,4.2L85.9,181.2z M74.4,175.8
			c-1,1-1.6,2.2-1.8,3.8h11.2c-0.1-1.6-0.7-2.8-1.8-3.8c-1-1-2.3-1.5-3.9-1.5C76.7,174.4,75.5,174.8,74.4,175.8z"/>
		<path class="st1" d="M98.1,166.2h2.1v22.3h-2.1V166.2z"/>
		<path class="st1" d="M119.9,181.2h-13.2c0.1,1.6,0.8,3,1.9,4c1.1,1,2.6,1.5,4.3,1.5c1,0,1.9-0.2,2.7-0.5c0.8-0.3,1.5-0.9,2.1-1.5
			l1.2,1.4c-0.7,0.8-1.6,1.5-2.6,1.9c-1,0.4-2.2,0.7-3.5,0.7c-1.6,0-3.1-0.3-4.3-1c-1.2-0.7-2.2-1.6-2.9-2.9
			c-0.7-1.2-1.1-2.6-1.1-4.1c0-1.5,0.3-2.9,1-4.1s1.6-2.2,2.8-2.8s2.5-1,3.9-1s2.8,0.3,3.9,1c1.2,0.7,2.1,1.6,2.7,2.8s1,2.6,1,4.2
			L119.9,181.2z M108.5,175.8c-1,1-1.6,2.2-1.8,3.8h11.2c-0.1-1.6-0.7-2.8-1.8-3.8c-1-1-2.3-1.5-3.9-1.5
			C110.8,174.4,109.5,174.8,108.5,175.8z"/>
		<path class="st1" d="M137.3,172.6l-7,15.8h-2.2l-7-15.8h2.2l5.9,13.4l6-13.4H137.3z"/>
		<path class="st1" d="M153.6,181.2h-13.2c0.1,1.6,0.8,3,1.9,4c1.1,1,2.6,1.5,4.3,1.5c1,0,1.9-0.2,2.7-0.5c0.8-0.3,1.5-0.9,2.1-1.5
			l1.2,1.4c-0.7,0.8-1.6,1.5-2.6,1.9c-1,0.4-2.2,0.7-3.5,0.7c-1.6,0-3.1-0.3-4.3-1c-1.2-0.7-2.2-1.6-2.9-2.9
			c-0.7-1.2-1.1-2.6-1.1-4.1c0-1.5,0.3-2.9,1-4.1s1.6-2.2,2.8-2.8s2.5-1,3.9-1s2.8,0.3,3.9,1c1.2,0.7,2.1,1.6,2.7,2.8s1,2.6,1,4.2
			L153.6,181.2z M142.1,175.8c-1,1-1.6,2.2-1.8,3.8h11.2c-0.1-1.6-0.7-2.8-1.8-3.8c-1-1-2.3-1.5-3.9-1.5
			C144.4,174.4,143.2,174.8,142.1,175.8z"/>
		<path class="st1" d="M162.2,173.3c1-0.5,2.2-0.8,3.7-0.8v2.1l-0.5,0c-1.7,0-3,0.5-3.9,1.5c-0.9,1-1.4,2.5-1.4,4.3v8h-2.1v-15.8h2
			v3.1C160.5,174.7,161.2,173.9,162.2,173.3z"/>
		<path class="st1" d="M180,174.1c1.1,1,1.7,2.6,1.7,4.6v9.8h-2V186c-0.5,0.8-1.2,1.5-2.1,1.9s-2,0.7-3.3,0.7
			c-1.8,0-3.2-0.4-4.2-1.3c-1-0.8-1.6-2-1.6-3.3c0-1.3,0.5-2.4,1.5-3.2c1-0.8,2.5-1.2,4.6-1.2h5v-1c0-1.4-0.4-2.4-1.1-3.1
			c-0.8-0.7-1.9-1.1-3.3-1.1c-1,0-2,0.2-2.9,0.5s-1.7,0.8-2.4,1.4l-1-1.6c0.8-0.7,1.8-1.2,2.9-1.6c1.1-0.4,2.3-0.6,3.5-0.6
			C177.3,172.5,178.9,173,180,174.1z M177.6,186.1c0.9-0.5,1.5-1.3,1.9-2.4v-2.6h-5c-2.7,0-4,0.9-4,2.8c0,0.9,0.3,1.6,1,2.2
			c0.7,0.5,1.7,0.8,2.9,0.8C175.7,186.9,176.7,186.6,177.6,186.1z"/>
		<path class="st1" d="M202.1,172.6v13.9c0,2.7-0.7,4.7-2,6c-1.3,1.3-3.3,1.9-5.9,1.9c-1.5,0-2.8-0.2-4.2-0.6
			c-1.3-0.4-2.4-1-3.2-1.8l1.1-1.6c0.8,0.7,1.7,1.2,2.8,1.6s2.2,0.6,3.4,0.6c2,0,3.5-0.5,4.4-1.4c0.9-0.9,1.4-2.4,1.4-4.3v-2
			c-0.7,1-1.5,1.8-2.6,2.3c-1.1,0.5-2.3,0.8-3.6,0.8c-1.5,0-2.8-0.3-4-1c-1.2-0.6-2.2-1.6-2.8-2.7c-0.7-1.2-1-2.5-1-4
			c0-1.5,0.3-2.8,1-4c0.7-1.2,1.6-2.1,2.8-2.7c1.2-0.6,2.5-1,4-1c1.3,0,2.5,0.3,3.6,0.8s2,1.3,2.6,2.3v-3H202.1z M197.1,185.2
			c0.9-0.5,1.6-1.2,2.1-2.1c0.5-0.9,0.8-1.9,0.8-3s-0.3-2.1-0.8-3c-0.5-0.9-1.2-1.5-2.1-2c-0.9-0.5-1.9-0.7-3.1-0.7
			c-1.1,0-2.2,0.2-3.1,0.7c-0.9,0.5-1.6,1.2-2.1,2s-0.8,1.9-0.8,3s0.3,2.1,0.8,3s1.2,1.6,2.1,2.1c0.9,0.5,1.9,0.7,3.1,0.7
			S196.2,185.7,197.1,185.2z"/>
		<path class="st1" d="M221.8,181.2h-13.2c0.1,1.6,0.8,3,1.9,4c1.1,1,2.6,1.5,4.3,1.5c1,0,1.9-0.2,2.7-0.5c0.8-0.3,1.5-0.9,2.1-1.5
			l1.2,1.4c-0.7,0.8-1.6,1.5-2.6,1.9c-1,0.4-2.2,0.7-3.5,0.7c-1.6,0-3.1-0.3-4.3-1c-1.2-0.7-2.2-1.6-2.9-2.9
			c-0.7-1.2-1.1-2.6-1.1-4.1c0-1.5,0.3-2.9,1-4.1s1.6-2.2,2.8-2.8s2.5-1,3.9-1s2.8,0.3,3.9,1c1.2,0.7,2.1,1.6,2.7,2.8s1,2.6,1,4.2
			L221.8,181.2z M210.3,175.8c-1,1-1.6,2.2-1.8,3.8h11.2c-0.1-1.6-0.7-2.8-1.8-3.8c-1-1-2.3-1.5-3.9-1.5
			C212.6,174.4,211.4,174.8,210.3,175.8z"/>
		<path class="st1" d="M247.3,172.6l-7.9,17.7c-0.6,1.5-1.4,2.5-2.2,3.2c-0.8,0.6-1.8,0.9-3,0.9c-0.8,0-1.5-0.1-2.1-0.4
			c-0.7-0.2-1.2-0.6-1.7-1.1l1-1.6c0.8,0.8,1.8,1.2,2.9,1.2c0.7,0,1.3-0.2,1.8-0.6c0.5-0.4,1-1.1,1.4-2l0.7-1.5l-7-15.8h2.2
			l5.9,13.4l5.9-13.4H247.3z"/>
		<path class="st1" d="M252.2,187.5c-1.2-0.7-2.2-1.6-2.9-2.9s-1-2.6-1-4.1c0-1.5,0.3-2.9,1-4.1s1.7-2.2,2.9-2.8s2.6-1,4.1-1
			c1.5,0,2.9,0.3,4.1,1s2.2,1.6,2.9,2.8c0.7,1.2,1,2.6,1,4.1c0,1.5-0.3,2.9-1,4.1c-0.7,1.2-1.6,2.2-2.9,2.9c-1.2,0.7-2.6,1-4.1,1
			C254.8,188.6,253.4,188.2,252.2,187.5z M259.3,185.9c0.9-0.5,1.6-1.2,2.1-2.2c0.5-0.9,0.8-2,0.8-3.2c0-1.2-0.2-2.3-0.8-3.2
			c-0.5-0.9-1.2-1.7-2.1-2.2s-1.9-0.8-3-0.8s-2.1,0.3-3,0.8c-0.9,0.5-1.6,1.2-2.1,2.2c-0.5,0.9-0.8,2-0.8,3.2c0,1.2,0.3,2.3,0.8,3.2
			c0.5,0.9,1.2,1.7,2.1,2.2c0.9,0.5,1.9,0.8,3,0.8S258.4,186.4,259.3,185.9z"/>
		<path class="st1" d="M282.9,172.6v15.8h-2v-2.9c-0.6,1-1.3,1.7-2.3,2.2c-1,0.5-2.1,0.8-3.4,0.8c-2.1,0-3.7-0.6-4.9-1.7
			c-1.2-1.1-1.8-2.8-1.8-5.1v-9.2h2.1v8.9c0,1.7,0.4,2.9,1.2,3.8c0.8,0.9,2,1.3,3.5,1.3c1.7,0,3-0.5,3.9-1.5s1.4-2.4,1.4-4.2v-8.3
			H282.9z"/>
		<path class="st1" d="M293.1,173.3c1-0.5,2.2-0.8,3.7-0.8v2.1l-0.5,0c-1.7,0-3,0.5-3.9,1.5c-0.9,1-1.4,2.5-1.4,4.3v8h-2.1v-15.8h2
			v3.1C291.4,174.7,292.1,173.9,293.1,173.3z"/>
		<path class="st1" d="M320.9,173.5c1.2,0.7,2.1,1.6,2.8,2.8c0.7,1.2,1,2.6,1,4.2c0,1.6-0.3,3-1,4.2c-0.7,1.2-1.6,2.2-2.8,2.9
			s-2.5,1-4,1c-1.3,0-2.5-0.3-3.6-0.8c-1-0.6-1.9-1.4-2.5-2.4v3.1h-2v-22.3h2.1v9.5c0.7-1,1.5-1.8,2.5-2.3c1-0.5,2.2-0.8,3.5-0.8
			C318.3,172.5,319.7,172.9,320.9,173.5z M319.7,185.9c0.9-0.5,1.6-1.2,2.1-2.2c0.5-0.9,0.8-2,0.8-3.2c0-1.2-0.3-2.3-0.8-3.2
			c-0.5-0.9-1.2-1.7-2.1-2.2s-1.9-0.8-3-0.8c-1.1,0-2.1,0.3-3,0.8c-0.9,0.5-1.6,1.2-2.1,2.2c-0.5,0.9-0.8,2-0.8,3.2
			c0,1.2,0.3,2.3,0.8,3.2c0.5,0.9,1.2,1.7,2.1,2.2c0.9,0.5,1.9,0.8,3,0.8C317.8,186.7,318.8,186.4,319.7,185.9z"/>
		<path class="st1" d="M333.3,173.3c1-0.5,2.2-0.8,3.7-0.8v2.1l-0.5,0c-1.7,0-3,0.5-3.9,1.5c-0.9,1-1.4,2.5-1.4,4.3v8h-2.1v-15.8h2
			v3.1C331.6,174.7,332.3,173.9,333.3,173.3z"/>
		<path class="st1" d="M351.1,174.1c1.1,1,1.6,2.6,1.6,4.6v9.8h-2V186c-0.5,0.8-1.2,1.5-2.1,1.9c-0.9,0.5-2,0.7-3.3,0.7
			c-1.8,0-3.2-0.4-4.2-1.3s-1.6-2-1.6-3.3c0-1.3,0.5-2.4,1.5-3.2c1-0.8,2.5-1.2,4.6-1.2h5v-1c0-1.4-0.4-2.4-1.1-3.1
			c-0.8-0.7-1.9-1.1-3.3-1.1c-1,0-2,0.2-2.9,0.5c-0.9,0.3-1.7,0.8-2.4,1.4l-1-1.6c0.8-0.7,1.8-1.2,2.9-1.6c1.1-0.4,2.3-0.6,3.5-0.6
			C348.4,172.5,350,173,351.1,174.1z M348.7,186.1c0.9-0.5,1.5-1.3,1.9-2.4v-2.6h-5c-2.7,0-4,0.9-4,2.8c0,0.9,0.3,1.6,1,2.2
			c0.7,0.5,1.7,0.8,2.9,0.8C346.8,186.9,347.8,186.6,348.7,186.1z"/>
		<path class="st1" d="M371.3,174.2c1.2,1.1,1.8,2.8,1.8,5v9.2h-2.1v-8.9c0-1.6-0.4-2.9-1.2-3.8c-0.8-0.9-2-1.3-3.5-1.3
			c-1.7,0-3,0.5-4,1.5s-1.5,2.4-1.5,4.2v8.3h-2.1v-15.8h2v2.9c0.6-1,1.4-1.7,2.4-2.2c1-0.5,2.2-0.8,3.6-0.8
			C368.5,172.5,370.1,173.1,371.3,174.2z"/>
		<path class="st1" d="M393.3,166.2v22.3h-2v-3.1c-0.6,1.1-1.5,1.9-2.5,2.4c-1,0.6-2.2,0.8-3.6,0.8c-1.5,0-2.8-0.3-4-1
			s-2.1-1.6-2.8-2.9c-0.7-1.2-1-2.6-1-4.2c0-1.6,0.3-2.9,1-4.2c0.7-1.2,1.6-2.2,2.8-2.8c1.2-0.7,2.5-1,4-1c1.3,0,2.4,0.3,3.5,0.8
			c1,0.5,1.9,1.3,2.5,2.3v-9.5H393.3z M388.3,185.9c0.9-0.5,1.6-1.2,2.1-2.2c0.5-0.9,0.8-2,0.8-3.2c0-1.2-0.3-2.3-0.8-3.2
			c-0.5-0.9-1.2-1.7-2.1-2.2c-0.9-0.5-1.9-0.8-3-0.8c-1.1,0-2.1,0.3-3,0.8c-0.9,0.5-1.6,1.2-2.1,2.2c-0.5,0.9-0.8,2-0.8,3.2
			c0,1.2,0.3,2.3,0.8,3.2c0.5,0.9,1.2,1.7,2.1,2.2c0.9,0.5,1.9,0.8,3,0.8C386.4,186.7,387.4,186.4,388.3,185.9z"/>
		<path class="st1" d="M417.4,174.1c1.1,1,1.6,2.6,1.6,4.6v9.8h-2V186c-0.5,0.8-1.2,1.5-2.1,1.9c-0.9,0.5-2,0.7-3.3,0.7
			c-1.8,0-3.2-0.4-4.2-1.3s-1.6-2-1.6-3.3c0-1.3,0.5-2.4,1.5-3.2c1-0.8,2.5-1.2,4.6-1.2h5v-1c0-1.4-0.4-2.4-1.1-3.1
			c-0.8-0.7-1.9-1.1-3.3-1.1c-1,0-2,0.2-2.9,0.5c-0.9,0.3-1.7,0.8-2.4,1.4l-1-1.6c0.8-0.7,1.8-1.2,2.9-1.6c1.1-0.4,2.3-0.6,3.5-0.6
			C414.7,172.5,416.3,173,417.4,174.1z M415,186.1c0.9-0.5,1.5-1.3,1.9-2.4v-2.6h-5c-2.7,0-4,0.9-4,2.8c0,0.9,0.3,1.6,1,2.2
			c0.7,0.5,1.7,0.8,2.9,0.8C413.1,186.9,414.1,186.6,415,186.1z"/>
		<path class="st1" d="M447.7,172.6l-6,15.8h-2l-5-12.9l-5,12.9h-2l-5.9-15.8h2l5,13.4l5.1-13.4h1.8l5,13.4l5-13.4H447.7z"/>
		<path class="st1" d="M460.6,174.1c1.1,1,1.6,2.6,1.6,4.6v9.8h-2V186c-0.5,0.8-1.2,1.5-2.1,1.9c-0.9,0.5-2,0.7-3.3,0.7
			c-1.8,0-3.2-0.4-4.2-1.3s-1.6-2-1.6-3.3c0-1.3,0.5-2.4,1.5-3.2c1-0.8,2.5-1.2,4.6-1.2h5v-1c0-1.4-0.4-2.4-1.1-3.1
			c-0.8-0.7-1.9-1.1-3.3-1.1c-1,0-2,0.2-2.9,0.5c-0.9,0.3-1.7,0.8-2.4,1.4l-1-1.6c0.8-0.7,1.8-1.2,2.9-1.6c1.1-0.4,2.3-0.6,3.5-0.6
			C458,172.5,459.5,173,460.6,174.1z M458.2,186.1c0.9-0.5,1.5-1.3,1.9-2.4v-2.6h-5c-2.7,0-4,0.9-4,2.8c0,0.9,0.3,1.6,1,2.2
			c0.7,0.5,1.7,0.8,2.9,0.8C456.4,186.9,457.4,186.6,458.2,186.1z"/>
		<path class="st1" d="M472.4,173.3c1-0.5,2.2-0.8,3.7-0.8v2.1l-0.5,0c-1.7,0-3,0.5-3.9,1.5c-0.9,1-1.4,2.5-1.4,4.3v8h-2.1v-15.8h2
			v3.1C470.6,174.7,471.4,173.9,472.4,173.3z"/>
		<path class="st1" d="M493.5,181.2h-13.2c0.1,1.6,0.8,3,1.9,4c1.1,1,2.6,1.5,4.3,1.5c1,0,1.9-0.2,2.7-0.5c0.8-0.3,1.5-0.9,2.1-1.5
			l1.2,1.4c-0.7,0.8-1.6,1.5-2.6,1.9c-1,0.4-2.2,0.7-3.5,0.7c-1.6,0-3.1-0.3-4.3-1c-1.3-0.7-2.2-1.6-2.9-2.9s-1-2.6-1-4.1
			c0-1.5,0.3-2.9,1-4.1s1.6-2.2,2.8-2.8c1.2-0.7,2.5-1,3.9-1s2.8,0.3,3.9,1s2.1,1.6,2.7,2.8s1,2.6,1,4.2L493.5,181.2z M482,175.8
			c-1,1-1.6,2.2-1.8,3.8h11.2c-0.1-1.6-0.7-2.8-1.8-3.8c-1-1-2.3-1.5-3.9-1.5C484.3,174.4,483,174.8,482,175.8z"/>
		<path class="st1" d="M510.6,174.2c1.2,1.1,1.8,2.8,1.8,5v9.2h-2.1v-8.9c0-1.6-0.4-2.9-1.2-3.8c-0.8-0.9-2-1.3-3.5-1.3
			c-1.7,0-3,0.5-4,1.5s-1.5,2.4-1.5,4.2v8.3h-2.1v-15.8h2v2.9c0.6-1,1.4-1.7,2.4-2.2c1-0.5,2.2-0.8,3.6-0.8
			C507.9,172.5,509.4,173.1,510.6,174.2z"/>
		<path class="st1" d="M532,181.2h-13.2c0.1,1.6,0.8,3,1.9,4c1.1,1,2.6,1.5,4.3,1.5c1,0,1.9-0.2,2.7-0.5c0.8-0.3,1.5-0.9,2.1-1.5
			l1.2,1.4c-0.7,0.8-1.6,1.5-2.6,1.9c-1,0.4-2.2,0.7-3.5,0.7c-1.6,0-3.1-0.3-4.3-1c-1.3-0.7-2.2-1.6-2.9-2.9s-1-2.6-1-4.1
			c0-1.5,0.3-2.9,1-4.1s1.6-2.2,2.8-2.8c1.2-0.7,2.5-1,3.9-1s2.8,0.3,3.9,1s2.1,1.6,2.7,2.8s1,2.6,1,4.2L532,181.2z M520.5,175.8
			c-1,1-1.6,2.2-1.8,3.8h11.2c-0.1-1.6-0.7-2.8-1.8-3.8c-1-1-2.3-1.5-3.9-1.5C522.8,174.4,521.5,174.8,520.5,175.8z"/>
		<path class="st1" d="M536.9,188c-1.2-0.4-2.1-0.8-2.7-1.4l1-1.7c0.7,0.5,1.5,0.9,2.5,1.3c1,0.3,2,0.5,3.1,0.5
			c1.4,0,2.5-0.2,3.2-0.7c0.7-0.5,1-1.1,1-1.9c0-0.6-0.2-1-0.6-1.4s-0.9-0.6-1.4-0.8c-0.6-0.2-1.4-0.3-2.3-0.5
			c-1.3-0.2-2.3-0.5-3.1-0.7s-1.4-0.7-2-1.3s-0.8-1.4-0.8-2.5c0-1.3,0.5-2.4,1.7-3.2c1.1-0.8,2.6-1.3,4.6-1.3c1,0,2,0.1,3.1,0.4
			c1,0.3,1.9,0.6,2.5,1.1l-0.9,1.7c-1.3-0.9-2.9-1.3-4.7-1.3c-1.4,0-2.4,0.2-3.1,0.7c-0.7,0.5-1,1.1-1,1.9c0,0.6,0.2,1.1,0.6,1.4
			c0.4,0.4,0.9,0.6,1.5,0.8c0.6,0.2,1.4,0.3,2.4,0.5c1.3,0.2,2.3,0.5,3,0.7c0.8,0.2,1.4,0.7,2,1.2s0.8,1.4,0.8,2.4
			c0,1.4-0.6,2.5-1.7,3.3c-1.2,0.8-2.7,1.2-4.8,1.2C539.3,188.6,538.1,188.4,536.9,188z"/>
		<path class="st1" d="M551.6,188c-1.2-0.4-2.1-0.8-2.7-1.4l1-1.7c0.7,0.5,1.5,0.9,2.5,1.3c1,0.3,2,0.5,3.1,0.5
			c1.4,0,2.5-0.2,3.2-0.7c0.7-0.5,1-1.1,1-1.9c0-0.6-0.2-1-0.6-1.4s-0.9-0.6-1.4-0.8c-0.6-0.2-1.4-0.3-2.3-0.5
			c-1.3-0.2-2.3-0.5-3.1-0.7s-1.4-0.7-2-1.3s-0.8-1.4-0.8-2.5c0-1.3,0.5-2.4,1.7-3.2c1.1-0.8,2.6-1.3,4.6-1.3c1,0,2,0.1,3.1,0.4
			c1,0.3,1.9,0.6,2.5,1.1l-0.9,1.7c-1.3-0.9-2.9-1.3-4.7-1.3c-1.4,0-2.4,0.2-3.1,0.7c-0.7,0.5-1,1.1-1,1.9c0,0.6,0.2,1.1,0.6,1.4
			c0.4,0.4,0.9,0.6,1.5,0.8c0.6,0.2,1.4,0.3,2.4,0.5c1.3,0.2,2.3,0.5,3,0.7c0.8,0.2,1.4,0.7,2,1.2s0.8,1.4,0.8,2.4
			c0,1.4-0.6,2.5-1.7,3.3c-1.2,0.8-2.7,1.2-4.8,1.2C554,188.6,552.7,188.4,551.6,188z"/>
		<path class="st1" d="M63.6,208.6l-6,15.8h-2l-5-12.9l-5,12.9h-2l-5.9-15.8h2l5,13.4l5.1-13.4h1.8l5,13.4l5-13.4H63.6z"/>
		<path class="st1" d="M66.8,204.7c-0.3-0.3-0.4-0.7-0.4-1.1c0-0.4,0.1-0.8,0.4-1.1c0.3-0.3,0.7-0.4,1.1-0.4c0.4,0,0.8,0.1,1.1,0.4
			c0.3,0.3,0.4,0.6,0.4,1c0,0.4-0.1,0.8-0.4,1.1c-0.3,0.3-0.7,0.5-1.1,0.5C67.5,205.2,67.1,205,66.8,204.7z M66.8,208.6H69v15.8
			h-2.1V208.6z"/>
		<path class="st1" d="M83.2,223.5c-0.4,0.4-0.9,0.6-1.5,0.8c-0.6,0.2-1.2,0.3-1.8,0.3c-1.5,0-2.6-0.4-3.4-1.2s-1.2-1.9-1.2-3.4
			v-9.5h-2.8v-1.8h2.8v-3.5h2.1v3.5h4.8v1.8h-4.8v9.4c0,0.9,0.2,1.7,0.7,2.1s1.1,0.7,2,0.7c0.4,0,0.9-0.1,1.3-0.2
			c0.4-0.1,0.8-0.3,1.1-0.6L83.2,223.5z"/>
		<path class="st1" d="M99.9,210.2c1.2,1.1,1.8,2.8,1.8,5v9.2h-2.1v-8.9c0-1.6-0.4-2.9-1.2-3.8c-0.8-0.9-2-1.3-3.5-1.3
			c-1.7,0-3,0.5-4,1.5c-1,1-1.5,2.4-1.5,4.2v8.3h-2.1v-22.3h2.1v9.2c0.6-0.9,1.4-1.6,2.4-2.1c1-0.5,2.2-0.8,3.5-0.8
			C97.1,208.5,98.7,209.1,99.9,210.2z"/>
		<path class="st1" d="M126.3,209.9c1.2,1.1,1.9,2.8,1.9,5.1v9.4h-3.5v-2c-0.5,0.7-1.1,1.2-2,1.6c-0.9,0.4-1.9,0.6-3.1,0.6
			s-2.2-0.2-3.2-0.6c-0.9-0.4-1.6-1-2.1-1.7c-0.5-0.7-0.7-1.6-0.7-2.5c0-1.4,0.5-2.6,1.6-3.5c1.1-0.9,2.8-1.3,5.1-1.3h4.1v-0.2
			c0-1.1-0.3-2-1-2.6c-0.7-0.6-1.7-0.9-3-0.9c-0.9,0-1.8,0.1-2.7,0.4s-1.6,0.7-2.2,1.2l-1.5-2.7c0.8-0.6,1.8-1.1,3-1.5
			c1.2-0.3,2.4-0.5,3.8-0.5C123.2,208.2,125,208.8,126.3,209.9z M122.9,221.3c0.7-0.4,1.2-1,1.5-1.8v-1.9h-3.9
			c-2.2,0-3.2,0.7-3.2,2.1c0,0.7,0.3,1.2,0.8,1.6s1.3,0.6,2.2,0.6C121.3,221.9,122.1,221.7,122.9,221.3z"/>
		<path class="st1" d="M148.8,202.2v22.3h-3.6v-2.1c-0.6,0.8-1.4,1.3-2.3,1.7s-1.9,0.6-3,0.6c-1.5,0-2.9-0.3-4.2-1
			c-1.2-0.7-2.2-1.6-2.9-2.9c-0.7-1.2-1-2.7-1-4.3c0-1.6,0.3-3,1-4.3c0.7-1.2,1.7-2.2,2.9-2.9c1.2-0.7,2.6-1,4.2-1
			c1.1,0,2,0.2,2.9,0.5c0.9,0.4,1.6,0.9,2.2,1.6v-8.2H148.8z M142.8,220.8c0.7-0.4,1.3-1,1.7-1.8s0.6-1.6,0.6-2.6s-0.2-1.9-0.6-2.6
			c-0.4-0.8-1-1.3-1.7-1.8c-0.7-0.4-1.5-0.6-2.4-0.6c-0.9,0-1.7,0.2-2.4,0.6c-0.7,0.4-1.3,1-1.7,1.8c-0.4,0.8-0.6,1.6-0.6,2.6
			s0.2,1.9,0.6,2.6c0.4,0.8,1,1.3,1.7,1.8c0.7,0.4,1.5,0.6,2.4,0.6C141.2,221.4,142,221.2,142.8,220.8z"/>
		<path class="st1" d="M168.7,208.4l-6.9,16H158l-6.9-16h3.9l5,11.9l5.1-11.9H168.7z"/>
		<path class="st1" d="M185.6,217.6H173c0.2,1.2,0.8,2.1,1.7,2.8c0.9,0.7,2.1,1,3.5,1c1.8,0,3.2-0.6,4.3-1.7l2,2.3
			c-0.7,0.9-1.6,1.5-2.7,2c-1.1,0.4-2.3,0.7-3.7,0.7c-1.8,0-3.3-0.3-4.7-1s-2.4-1.7-3.1-2.9c-0.7-1.2-1.1-2.7-1.1-4.2
			c0-1.6,0.4-3,1.1-4.2c0.7-1.2,1.7-2.2,3-2.9c1.3-0.7,2.7-1,4.3-1c1.6,0,3,0.3,4.2,1c1.2,0.7,2.2,1.7,2.9,2.9c0.7,1.2,1,2.7,1,4.3
			C185.7,216.8,185.6,217.1,185.6,217.6z M174.5,212.3c-0.8,0.7-1.3,1.7-1.5,2.8h9.1c-0.2-1.2-0.7-2.1-1.5-2.8s-1.8-1.1-3.1-1.1
			C176.4,211.2,175.4,211.6,174.5,212.3z"/>
		<path class="st1" d="M198.5,208.2v3.6c-0.3-0.1-0.6-0.1-0.9-0.1c-1.5,0-2.6,0.4-3.4,1.3c-0.8,0.9-1.2,2.1-1.2,3.7v7.8h-3.8v-16
			h3.6v2.3C193.9,209.1,195.8,208.2,198.5,208.2z"/>
		<path class="st1" d="M211.9,223.6c-0.4,0.4-1,0.6-1.6,0.8c-0.6,0.2-1.3,0.3-2,0.3c-1.8,0-3.1-0.5-4.1-1.4s-1.4-2.3-1.4-4v-7.7
			h-2.6v-3h2.6v-3.7h3.8v3.7h4.3v3h-4.3v7.6c0,0.8,0.2,1.4,0.6,1.8c0.4,0.4,0.9,0.6,1.6,0.6c0.8,0,1.5-0.2,2.1-0.7L211.9,223.6z"/>
		<path class="st1" d="M215.2,205.1c-0.5-0.4-0.7-1-0.7-1.6c0-0.6,0.2-1.2,0.7-1.6c0.5-0.4,1-0.6,1.7-0.6s1.2,0.2,1.7,0.6
			s0.7,0.9,0.7,1.5c0,0.7-0.2,1.2-0.7,1.7c-0.5,0.5-1,0.7-1.7,0.7C216.2,205.8,215.7,205.5,215.2,205.1z M215,208.4h3.8v16H215
			V208.4z"/>
		<path class="st1" d="M224.8,224.1c-1.2-0.3-2.2-0.8-3-1.3l1.4-2.9c0.7,0.5,1.6,0.9,2.6,1.2s2,0.4,3,0.4c2.2,0,3.4-0.6,3.4-1.8
			c0-0.6-0.3-1-0.9-1.2s-1.5-0.4-2.7-0.6c-1.3-0.2-2.4-0.4-3.2-0.7c-0.8-0.3-1.6-0.7-2.2-1.4c-0.6-0.6-0.9-1.6-0.9-2.7
			c0-1.5,0.6-2.7,1.9-3.6c1.3-0.9,3-1.4,5.1-1.4c1.1,0,2.2,0.1,3.3,0.4s2,0.6,2.7,1l-1.4,2.8c-1.4-0.8-2.9-1.2-4.6-1.2
			c-1.1,0-1.9,0.2-2.5,0.5c-0.6,0.3-0.9,0.8-0.9,1.3c0,0.6,0.3,1,0.9,1.3c0.6,0.3,1.6,0.5,2.8,0.7c1.3,0.2,2.3,0.4,3.1,0.7
			s1.5,0.7,2.1,1.3s0.9,1.5,0.9,2.6c0,1.5-0.6,2.7-1.9,3.6c-1.3,0.9-3.1,1.4-5.3,1.4C227.4,224.6,226.1,224.5,224.8,224.1z"/>
		<path class="st1" d="M239.3,205.1c-0.5-0.4-0.7-1-0.7-1.6c0-0.6,0.2-1.2,0.7-1.6c0.5-0.4,1-0.6,1.7-0.6c0.7,0,1.2,0.2,1.7,0.6
			c0.5,0.4,0.7,0.9,0.7,1.5c0,0.7-0.2,1.2-0.7,1.7s-1,0.7-1.7,0.7C240.4,205.8,239.8,205.5,239.3,205.1z M239.2,208.4h3.8v16h-3.8
			V208.4z"/>
		<path class="st1" d="M261.8,210c1.2,1.2,1.8,2.9,1.8,5.2v9.2h-3.8v-8.7c0-1.4-0.3-2.5-1-3.2s-1.6-1.1-2.8-1.1
			c-1.4,0-2.5,0.4-3.3,1.2c-0.8,0.8-1.2,2-1.2,3.6v8.1h-3.8v-16h3.6v2.1c0.6-0.7,1.4-1.3,2.3-1.7c0.9-0.4,2-0.6,3.2-0.6
			C258.9,208.2,260.6,208.8,261.8,210z"/>
		<path class="st1" d="M284.4,208.4V222c0,5.6-2.9,8.5-8.6,8.5c-1.5,0-3-0.2-4.4-0.6c-1.4-0.4-2.5-1-3.4-1.7l1.7-2.8
			c0.7,0.6,1.6,1,2.7,1.4c1.1,0.3,2.2,0.5,3.3,0.5c1.8,0,3-0.4,3.9-1.2c0.8-0.8,1.2-2,1.2-3.7v-0.8c-0.6,0.7-1.4,1.2-2.3,1.6
			c-0.9,0.4-1.9,0.5-3,0.5c-1.5,0-2.9-0.3-4.1-1c-1.2-0.6-2.2-1.6-2.9-2.7c-0.7-1.2-1.1-2.5-1.1-4c0-1.5,0.4-2.9,1.1-4
			c0.7-1.2,1.7-2.1,2.9-2.7c1.2-0.6,2.6-1,4.1-1c1.2,0,2.2,0.2,3.2,0.6c1,0.4,1.7,1,2.4,1.7v-2.1H284.4z M279.4,219.2
			c0.9-0.9,1.4-2,1.4-3.3c0-1.3-0.5-2.4-1.4-3.3c-0.9-0.8-2.1-1.3-3.5-1.3c-1.4,0-2.6,0.4-3.5,1.3c-0.9,0.8-1.4,1.9-1.4,3.3
			c0,1.4,0.5,2.5,1.4,3.3c0.9,0.8,2.1,1.3,3.5,1.3C277.3,220.5,278.5,220.1,279.4,219.2z"/>
		<path class="st1" d="M298.8,224.1c-1.2-0.3-2.2-0.8-3-1.3l1.4-2.9c0.7,0.5,1.6,0.9,2.6,1.2s2,0.4,3,0.4c2.2,0,3.4-0.6,3.4-1.8
			c0-0.6-0.3-1-0.9-1.2s-1.5-0.4-2.7-0.6c-1.3-0.2-2.4-0.4-3.2-0.7c-0.8-0.3-1.6-0.7-2.2-1.4c-0.6-0.6-0.9-1.6-0.9-2.7
			c0-1.5,0.6-2.7,1.9-3.6c1.3-0.9,3-1.4,5.1-1.4c1.1,0,2.2,0.1,3.3,0.4s2,0.6,2.7,1l-1.4,2.8c-1.4-0.8-2.9-1.2-4.6-1.2
			c-1.1,0-1.9,0.2-2.5,0.5c-0.6,0.3-0.9,0.8-0.9,1.3c0,0.6,0.3,1,0.9,1.3c0.6,0.3,1.6,0.5,2.8,0.7c1.3,0.2,2.3,0.4,3.1,0.7
			s1.5,0.7,2.1,1.3s0.9,1.5,0.9,2.6c0,1.5-0.6,2.7-1.9,3.6c-1.3,0.9-3.1,1.4-5.3,1.4C301.3,224.6,300,224.5,298.8,224.1z"/>
		<path class="st1" d="M322.7,223.6c-0.4,0.4-1,0.6-1.6,0.8c-0.6,0.2-1.3,0.3-2,0.3c-1.8,0-3.1-0.5-4.1-1.4s-1.4-2.3-1.4-4v-7.7
			h-2.6v-3h2.6v-3.7h3.8v3.7h4.3v3h-4.3v7.6c0,0.8,0.2,1.4,0.6,1.8s0.9,0.6,1.7,0.6c0.8,0,1.5-0.2,2.1-0.7L322.7,223.6z"/>
		<path class="st1" d="M335.1,208.2v3.6c-0.3-0.1-0.6-0.1-0.9-0.1c-1.5,0-2.6,0.4-3.4,1.3c-0.8,0.9-1.2,2.1-1.2,3.7v7.8h-3.8v-16
			h3.6v2.3C330.4,209.1,332.3,208.2,335.1,208.2z"/>
		<path class="st1" d="M349.7,209.9c1.2,1.1,1.9,2.8,1.9,5.1v9.4H348v-2c-0.5,0.7-1.1,1.2-2,1.6c-0.9,0.4-1.9,0.6-3.1,0.6
			s-2.2-0.2-3.2-0.6c-0.9-0.4-1.6-1-2.1-1.7c-0.5-0.7-0.7-1.6-0.7-2.5c0-1.4,0.5-2.6,1.6-3.5c1.1-0.9,2.8-1.3,5.1-1.3h4.1v-0.2
			c0-1.1-0.3-2-1-2.6c-0.7-0.6-1.7-0.9-3-0.9c-0.9,0-1.8,0.1-2.7,0.4c-0.9,0.3-1.6,0.7-2.2,1.2l-1.5-2.7c0.8-0.6,1.8-1.1,3-1.5
			c1.2-0.3,2.4-0.5,3.8-0.5C346.6,208.2,348.4,208.8,349.7,209.9z M346.3,221.3c0.7-0.4,1.2-1,1.5-1.8v-1.9h-3.9
			c-2.2,0-3.2,0.7-3.2,2.1c0,0.7,0.3,1.2,0.8,1.6s1.3,0.6,2.2,0.6C344.7,221.9,345.5,221.7,346.3,221.3z"/>
		<path class="st1" d="M366,223.6c-0.4,0.4-1,0.6-1.6,0.8c-0.6,0.2-1.3,0.3-2,0.3c-1.8,0-3.1-0.5-4.1-1.4s-1.4-2.3-1.4-4v-7.7h-2.6
			v-3h2.6v-3.7h3.8v3.7h4.3v3h-4.3v7.6c0,0.8,0.2,1.4,0.6,1.8s0.9,0.6,1.7,0.6c0.8,0,1.5-0.2,2.1-0.7L366,223.6z"/>
		<path class="st1" d="M383.5,217.6H371c0.2,1.2,0.8,2.1,1.7,2.8c0.9,0.7,2.1,1,3.5,1c1.8,0,3.2-0.6,4.3-1.7l2,2.3
			c-0.7,0.9-1.6,1.5-2.7,2c-1.1,0.4-2.3,0.7-3.7,0.7c-1.8,0-3.3-0.3-4.7-1s-2.4-1.7-3.1-2.9c-0.7-1.2-1.1-2.7-1.1-4.2
			c0-1.6,0.4-3,1.1-4.2c0.7-1.2,1.7-2.2,3-2.9c1.3-0.7,2.7-1,4.3-1c1.6,0,3,0.3,4.2,1c1.2,0.7,2.2,1.7,2.9,2.9c0.7,1.2,1,2.7,1,4.3
			C383.6,216.8,383.6,217.1,383.5,217.6z M372.5,212.3c-0.8,0.7-1.3,1.7-1.5,2.8h9.1c-0.2-1.2-0.7-2.1-1.5-2.8
			c-0.8-0.7-1.8-1.1-3.1-1.1C374.3,211.2,373.3,211.6,372.5,212.3z"/>
		<path class="st1" d="M403.1,208.4V222c0,5.6-2.9,8.5-8.6,8.5c-1.5,0-3-0.2-4.4-0.6c-1.4-0.4-2.5-1-3.4-1.7l1.7-2.8
			c0.7,0.6,1.6,1,2.7,1.4c1.1,0.3,2.2,0.5,3.3,0.5c1.8,0,3-0.4,3.9-1.2s1.2-2,1.2-3.7v-0.8c-0.6,0.7-1.4,1.2-2.3,1.6
			c-0.9,0.4-1.9,0.5-3,0.5c-1.5,0-2.9-0.3-4.1-1c-1.2-0.6-2.2-1.6-2.9-2.7c-0.7-1.2-1.1-2.5-1.1-4c0-1.5,0.4-2.9,1.1-4
			s1.7-2.1,2.9-2.7c1.2-0.6,2.6-1,4.1-1c1.2,0,2.2,0.2,3.2,0.6c0.9,0.4,1.7,1,2.4,1.7v-2.1H403.1z M398,219.2c0.9-0.9,1.4-2,1.4-3.3
			c0-1.3-0.5-2.4-1.4-3.3c-0.9-0.8-2.1-1.3-3.5-1.3c-1.4,0-2.6,0.4-3.5,1.3c-0.9,0.8-1.4,1.9-1.4,3.3c0,1.4,0.5,2.5,1.4,3.3
			c0.9,0.8,2.1,1.3,3.5,1.3C396,220.5,397.1,220.1,398,219.2z"/>
		<path class="st1" d="M423,208.4l-7.5,17.3c-0.7,1.7-1.5,3-2.5,3.7s-2.2,1.1-3.6,1.1c-0.8,0-1.6-0.1-2.4-0.4s-1.4-0.6-1.9-1.1
			l1.5-2.8c0.4,0.3,0.8,0.6,1.3,0.8s1,0.3,1.5,0.3c0.7,0,1.2-0.2,1.6-0.5s0.8-0.9,1.2-1.7l0.3-0.6l-7-16.1h3.9l5,11.9l5.1-11.9H423z
			"/>
		<path class="st1" d="M423.8,223.9c-0.5-0.5-0.7-1.1-0.7-1.8c0-0.7,0.2-1.3,0.7-1.8c0.5-0.5,1.1-0.7,1.8-0.7c0.7,0,1.3,0.2,1.8,0.7
			s0.7,1.1,0.7,1.8c0,0.7-0.2,1.3-0.7,1.8c-0.5,0.5-1.1,0.7-1.7,0.7C424.9,224.6,424.3,224.4,423.8,223.9z"/>
		<path d="M38.6,289.7c-0.3-0.3-0.5-0.8-0.5-1.3c0-0.5,0.2-0.9,0.5-1.3c0.3-0.3,0.7-0.5,1.2-0.5s0.9,0.2,1.2,0.5
			c0.3,0.3,0.5,0.7,0.5,1.3c0,0.5-0.2,0.9-0.5,1.3s-0.8,0.5-1.2,0.5S39,290,38.6,289.7z"/>
		<path d="M67.8,277.4L63.7,290h-3.1l-2.8-8.5L55,290h-3.1l-4.1-12.6h3l2.8,8.9l3-8.9h2.7l2.9,8.9l2.9-8.9H67.8z"/>
		<path d="M78,286h-7.3c0.1,0.6,0.4,1.1,0.9,1.4c0.5,0.3,1.1,0.5,1.8,0.5c0.5,0,1-0.1,1.3-0.2c0.4-0.1,0.8-0.4,1.1-0.7l1.5,1.6
			c-0.9,1-2.2,1.6-4,1.6c-1.1,0-2.1-0.2-2.9-0.6c-0.8-0.4-1.5-1-1.9-1.8s-0.7-1.6-0.7-2.6c0-0.9,0.2-1.8,0.7-2.6
			c0.5-0.8,1.1-1.4,1.9-1.8s1.7-0.6,2.6-0.6c0.9,0,1.8,0.2,2.6,0.6c0.8,0.4,1.4,1,1.8,1.8c0.4,0.8,0.7,1.6,0.7,2.7
			C78,285.3,78,285.5,78,286z M71.4,282.9c-0.4,0.4-0.7,0.9-0.8,1.5h4.8c-0.1-0.6-0.4-1.1-0.8-1.5s-1-0.5-1.6-0.5
			C72.4,282.3,71.8,282.5,71.4,282.9z"/>
		<path d="M93.2,280.8c0.7,0.4,1.3,1,1.7,1.7s0.6,1.6,0.6,2.6s-0.2,1.9-0.6,2.6s-1,1.3-1.7,1.7c-0.7,0.4-1.6,0.6-2.5,0.6
			c-1.3,0-2.3-0.4-3-1.3v1.1H85v-13.4h2.8v4.7c0.7-0.8,1.7-1.2,2.9-1.2C91.6,280.2,92.4,280.4,93.2,280.8z M92,287.1
			c0.5-0.5,0.7-1.1,0.7-2c0-0.8-0.2-1.5-0.7-2c-0.5-0.5-1.1-0.7-1.8-0.7s-1.3,0.2-1.8,0.7c-0.5,0.5-0.7,1.1-0.7,2
			c0,0.8,0.2,1.5,0.7,2c0.5,0.5,1.1,0.7,1.8,0.7S91.5,287.6,92,287.1z"/>
		<path d="M101.5,280.6c0.6-0.2,1.2-0.4,2-0.4v2.6c-0.3,0-0.5,0-0.6,0c-0.8,0-1.4,0.2-1.9,0.7s-0.7,1.1-0.7,2v4.6h-2.8v-9.7h2.7v1.3
			C100.4,281.1,100.9,280.8,101.5,280.6z"/>
		<path d="M105.3,278.5c-0.3-0.3-0.5-0.7-0.5-1.1s0.2-0.8,0.5-1.1s0.7-0.5,1.3-0.5s0.9,0.1,1.3,0.4c0.3,0.3,0.5,0.6,0.5,1.1
			c0,0.5-0.2,0.9-0.5,1.2c-0.3,0.3-0.7,0.5-1.3,0.5S105.6,278.8,105.3,278.5z M105.1,280.3h2.8v9.7h-2.8V280.3z"/>
		<path d="M119.3,281.3c0.7,0.7,1.1,1.8,1.1,3.2v5.5h-2.8v-5.1c0-0.8-0.2-1.3-0.5-1.7s-0.8-0.6-1.5-0.6c-0.7,0-1.3,0.2-1.7,0.7
			c-0.4,0.4-0.6,1.1-0.6,2v4.8h-2.8v-9.7h2.7v1.1c0.4-0.4,0.8-0.7,1.4-0.9c0.6-0.2,1.2-0.3,1.8-0.3
			C117.6,280.2,118.6,280.6,119.3,281.3z"/>
		<path d="M133.1,280.3v8.1c0,1.8-0.5,3.1-1.4,4c-0.9,0.9-2.3,1.3-4,1.3c-0.9,0-1.8-0.1-2.7-0.3c-0.8-0.2-1.5-0.6-2.1-1l1.1-2
			c0.4,0.3,0.9,0.6,1.5,0.8c0.6,0.2,1.2,0.3,1.9,0.3c1,0,1.7-0.2,2.2-0.7c0.5-0.4,0.7-1.1,0.7-2v-0.4c-0.7,0.8-1.8,1.2-3.1,1.2
			c-0.9,0-1.7-0.2-2.4-0.6c-0.7-0.4-1.3-0.9-1.8-1.6c-0.4-0.7-0.6-1.5-0.6-2.4s0.2-1.7,0.6-2.4c0.4-0.7,1-1.3,1.8-1.6
			c0.7-0.4,1.6-0.6,2.4-0.6c1.4,0,2.5,0.5,3.2,1.4v-1.2H133.1z M129.6,286.6c0.5-0.4,0.7-1,0.7-1.7s-0.2-1.3-0.7-1.7
			c-0.5-0.4-1.1-0.7-1.8-0.7c-0.7,0-1.4,0.2-1.8,0.7c-0.5,0.4-0.7,1-0.7,1.7s0.2,1.3,0.7,1.7c0.5,0.4,1.1,0.7,1.8,0.7
			C128.5,287.2,129.1,287,129.6,286.6z"/>
		<path d="M147,289.6c-0.3,0.2-0.6,0.4-1,0.5c-0.4,0.1-0.8,0.2-1.3,0.2c-1.2,0-2-0.3-2.7-0.9s-0.9-1.5-0.9-2.6v-4h-1.5v-2.2h1.5
			v-2.4h2.8v2.4h2.4v2.2h-2.4v3.9c0,0.4,0.1,0.7,0.3,0.9c0.2,0.2,0.5,0.3,0.9,0.3c0.4,0,0.8-0.1,1.1-0.4L147,289.6z"/>
		<path d="M152.6,280.6c0.6-0.2,1.2-0.4,2-0.4v2.6c-0.3,0-0.5,0-0.6,0c-0.8,0-1.4,0.2-1.9,0.7s-0.7,1.1-0.7,2v4.6h-2.8v-9.7h2.7v1.3
			C151.6,281.1,152.1,280.8,152.6,280.6z"/>
		<path d="M163.6,281.3c0.8,0.7,1.2,1.8,1.2,3.2v5.5h-2.6v-1.2c-0.5,0.9-1.5,1.4-3,1.4c-0.7,0-1.4-0.1-1.9-0.4c-0.5-0.3-1-0.6-1.3-1
			c-0.3-0.4-0.4-0.9-0.4-1.5c0-0.9,0.3-1.6,1-2.1c0.7-0.5,1.7-0.8,3.1-0.8h2.2c0-0.6-0.2-1.1-0.6-1.4s-0.9-0.5-1.7-0.5
			c-0.5,0-1,0.1-1.5,0.2c-0.5,0.2-0.9,0.4-1.3,0.7l-1-2c0.5-0.4,1.2-0.7,1.9-0.9c0.7-0.2,1.5-0.3,2.3-0.3
			C161.6,280.2,162.8,280.6,163.6,281.3z M161.2,287.9c0.4-0.2,0.6-0.5,0.8-1v-1h-1.9c-1.2,0-1.7,0.4-1.7,1.1c0,0.4,0.1,0.6,0.4,0.9
			s0.7,0.3,1.2,0.3C160.4,288.3,160.8,288.2,161.2,287.9z"/>
		<path d="M170.4,280.6h2.5v2.2h-2.4v7.3h-2.8v-7.3h-1.5v-2.2h1.5v-0.4c0-1.1,0.3-2,1-2.6c0.7-0.6,1.6-1,2.8-1c0.4,0,0.8,0,1.2,0.1
			c0.4,0.1,0.7,0.2,0.9,0.4l-0.7,2c-0.3-0.2-0.7-0.3-1.1-0.3c-0.9,0-1.3,0.5-1.3,1.4V280.6z"/>
		<path d="M177.4,280.6h2.5v2.2h-2.4v7.3h-2.8v-7.3h-1.5v-2.2h1.5v-0.4c0-1.1,0.3-2,1-2.6c0.7-0.6,1.6-1,2.8-1c0.4,0,0.8,0,1.2,0.1
			c0.4,0.1,0.7,0.2,0.9,0.4l-0.7,2c-0.3-0.2-0.7-0.3-1.1-0.3c-0.9,0-1.3,0.5-1.3,1.4V280.6z M182.8,278.5c-0.3-0.3-0.5-0.7-0.5-1.1
			s0.2-0.8,0.5-1.1s0.7-0.5,1.3-0.5s0.9,0.1,1.3,0.4c0.3,0.3,0.5,0.6,0.5,1.1c0,0.5-0.2,0.9-0.5,1.2c-0.3,0.3-0.7,0.5-1.3,0.5
			S183.2,278.8,182.8,278.5z M182.7,280.3h2.8v9.7h-2.8V280.3z"/>
		<path d="M190,289.5c-0.8-0.4-1.5-1-1.9-1.8s-0.7-1.6-0.7-2.6s0.2-1.8,0.7-2.6s1.1-1.3,1.9-1.8c0.8-0.4,1.7-0.6,2.8-0.6
			c1,0,1.9,0.2,2.7,0.6c0.8,0.4,1.3,1,1.7,1.8l-2.2,1.2c-0.5-0.9-1.2-1.3-2.2-1.3c-0.7,0-1.3,0.2-1.8,0.7c-0.5,0.5-0.7,1.1-0.7,2
			s0.2,1.5,0.7,2c0.5,0.5,1.1,0.7,1.8,0.7c1,0,1.7-0.4,2.2-1.3l2.2,1.2c-0.3,0.8-0.9,1.4-1.7,1.8c-0.8,0.4-1.7,0.6-2.7,0.6
			C191.8,290.2,190.8,290,190,289.5z"/>
		<path d="M210.1,289.6c-0.3,0.2-0.6,0.4-1,0.5c-0.4,0.1-0.8,0.2-1.3,0.2c-1.2,0-2-0.3-2.7-0.9s-0.9-1.5-0.9-2.6v-4h-1.5v-2.2h1.5
			v-2.4h2.8v2.4h2.4v2.2H207v3.9c0,0.4,0.1,0.7,0.3,0.9c0.2,0.2,0.5,0.3,0.9,0.3c0.4,0,0.8-0.1,1.1-0.4L210.1,289.6z"/>
		<path d="M213.2,289.5c-0.8-0.4-1.4-1-1.9-1.8s-0.7-1.6-0.7-2.6s0.2-1.8,0.7-2.6s1.1-1.3,1.9-1.8c0.8-0.4,1.7-0.6,2.7-0.6
			c1,0,1.9,0.2,2.7,0.6s1.4,1,1.9,1.8s0.7,1.6,0.7,2.6s-0.2,1.8-0.7,2.6s-1.1,1.3-1.9,1.8c-0.8,0.4-1.7,0.6-2.7,0.6
			C215,290.2,214.1,290,213.2,289.5z M217.8,287.1c0.5-0.5,0.7-1.1,0.7-2c0-0.8-0.2-1.5-0.7-2c-0.5-0.5-1.1-0.7-1.8-0.7
			c-0.7,0-1.3,0.2-1.8,0.7c-0.5,0.5-0.7,1.1-0.7,2c0,0.8,0.2,1.5,0.7,2c0.5,0.5,1.1,0.7,1.8,0.7
			C216.7,287.9,217.3,287.6,217.8,287.1z"/>
		<path d="M237.9,280.3l-4.4,10.3c-0.4,1.1-1,1.9-1.6,2.4s-1.4,0.7-2.4,0.7c-0.5,0-1-0.1-1.5-0.2c-0.5-0.2-0.9-0.4-1.2-0.6l1-2
			c0.2,0.2,0.5,0.3,0.7,0.5c0.3,0.1,0.6,0.2,0.8,0.2c0.4,0,0.7-0.1,0.9-0.3c0.2-0.2,0.5-0.5,0.6-0.9l0-0.1l-4.2-9.8h2.9l2.7,6.6
			l2.7-6.6H237.9z"/>
		<path d="M240.6,289.5c-0.8-0.4-1.4-1-1.9-1.8s-0.7-1.6-0.7-2.6s0.2-1.8,0.7-2.6s1.1-1.3,1.9-1.8c0.8-0.4,1.7-0.6,2.7-0.6
			c1,0,1.9,0.2,2.7,0.6c0.8,0.4,1.4,1,1.9,1.8s0.7,1.6,0.7,2.6s-0.2,1.8-0.7,2.6s-1.1,1.3-1.9,1.8c-0.8,0.4-1.7,0.6-2.7,0.6
			C242.3,290.2,241.4,290,240.6,289.5z M245.1,287.1c0.5-0.5,0.7-1.1,0.7-2c0-0.8-0.2-1.5-0.7-2c-0.5-0.5-1.1-0.7-1.8-0.7
			s-1.3,0.2-1.8,0.7c-0.5,0.5-0.7,1.1-0.7,2c0,0.8,0.2,1.5,0.7,2s1.1,0.7,1.8,0.7S244.7,287.6,245.1,287.1z"/>
		<path d="M260.3,280.3v9.7h-2.7v-1.2c-0.4,0.4-0.8,0.7-1.3,1c-0.5,0.2-1.1,0.3-1.7,0.3c-1.3,0-2.3-0.4-3-1.1
			c-0.7-0.7-1.1-1.8-1.1-3.3v-5.5h2.8v5.1c0,1.6,0.7,2.3,2,2.3c0.7,0,1.2-0.2,1.6-0.7c0.4-0.4,0.6-1.1,0.6-2v-4.8H260.3z"/>
		<path d="M267,280.6c0.6-0.2,1.2-0.4,2-0.4v2.6c-0.3,0-0.5,0-0.6,0c-0.8,0-1.4,0.2-1.9,0.7s-0.7,1.1-0.7,2v4.6h-2.8v-9.7h2.7v1.3
			C265.9,281.1,266.4,280.8,267,280.6z"/>
		<path d="M291.3,280.3l-3.5,9.7h-2.7l-2.2-6l-2.2,6H278l-3.5-9.7h2.6l2.3,6.6l2.4-6.6h2.4l2.3,6.6l2.4-6.6H291.3z"/>
		<path d="M301.8,286h-7.3c0.1,0.6,0.4,1.1,0.9,1.4c0.5,0.3,1.1,0.5,1.8,0.5c0.5,0,1-0.1,1.3-0.2c0.4-0.1,0.8-0.4,1.1-0.7l1.5,1.6
			c-0.9,1-2.2,1.6-4,1.6c-1.1,0-2.1-0.2-2.9-0.6c-0.8-0.4-1.5-1-1.9-1.8s-0.7-1.6-0.7-2.6c0-0.9,0.2-1.8,0.7-2.6
			c0.5-0.8,1.1-1.4,1.9-1.8s1.7-0.6,2.6-0.6c0.9,0,1.8,0.2,2.6,0.6c0.8,0.4,1.4,1,1.8,1.8c0.4,0.8,0.7,1.6,0.7,2.7
			C301.8,285.3,301.8,285.5,301.8,286z M295.2,282.9c-0.4,0.4-0.7,0.9-0.8,1.5h4.8c-0.1-0.6-0.4-1.1-0.8-1.5s-1-0.5-1.6-0.5
			C296.2,282.3,295.7,282.5,295.2,282.9z"/>
		<path d="M311.9,280.8c0.7,0.4,1.3,1,1.7,1.7s0.6,1.6,0.6,2.6s-0.2,1.9-0.6,2.6s-1,1.3-1.7,1.7c-0.7,0.4-1.6,0.6-2.5,0.6
			c-1.3,0-2.3-0.4-3-1.3v1.1h-2.7v-13.4h2.8v4.7c0.7-0.8,1.7-1.2,2.9-1.2C310.3,280.2,311.2,280.4,311.9,280.8z M310.7,287.1
			c0.5-0.5,0.7-1.1,0.7-2c0-0.8-0.2-1.5-0.7-2c-0.5-0.5-1.1-0.7-1.8-0.7s-1.3,0.2-1.8,0.7c-0.5,0.5-0.7,1.1-0.7,2
			c0,0.8,0.2,1.5,0.7,2c0.5,0.5,1.1,0.7,1.8,0.7S310.3,287.6,310.7,287.1z"/>
		<path d="M317,289.9c-0.8-0.2-1.4-0.4-1.8-0.7l0.9-2c0.4,0.3,1,0.5,1.6,0.7c0.6,0.2,1.2,0.3,1.8,0.3c1.2,0,1.8-0.3,1.8-0.9
			c0-0.3-0.2-0.5-0.5-0.6c-0.3-0.1-0.8-0.2-1.5-0.3c-0.8-0.1-1.4-0.3-2-0.4s-1-0.4-1.3-0.8c-0.4-0.4-0.6-1-0.6-1.7
			c0-0.6,0.2-1.2,0.5-1.6c0.4-0.5,0.9-0.8,1.5-1.1s1.5-0.4,2.4-0.4c0.7,0,1.4,0.1,2,0.2s1.2,0.4,1.7,0.6l-0.9,2
			c-0.9-0.5-1.8-0.7-2.8-0.7c-0.6,0-1,0.1-1.3,0.3c-0.3,0.2-0.5,0.4-0.5,0.6c0,0.3,0.2,0.5,0.5,0.6c0.3,0.1,0.8,0.2,1.5,0.3
			c0.8,0.1,1.4,0.3,1.9,0.4c0.5,0.2,0.9,0.4,1.3,0.8c0.4,0.4,0.6,0.9,0.6,1.7c0,0.6-0.2,1.1-0.5,1.6c-0.4,0.5-0.9,0.8-1.6,1.1
			c-0.7,0.3-1.5,0.4-2.5,0.4C318.6,290.2,317.8,290.1,317,289.9z"/>
		<path d="M325.8,278.5c-0.3-0.3-0.5-0.7-0.5-1.1s0.2-0.8,0.5-1.1c0.3-0.3,0.7-0.5,1.3-0.5c0.5,0,0.9,0.1,1.3,0.4s0.5,0.6,0.5,1.1
			c0,0.5-0.2,0.9-0.5,1.2c-0.3,0.3-0.7,0.5-1.3,0.5C326.6,279,326.2,278.8,325.8,278.5z M325.7,280.3h2.8v9.7h-2.8V280.3z"/>
		<path d="M337.4,289.6c-0.3,0.2-0.6,0.4-1,0.5c-0.4,0.1-0.8,0.2-1.3,0.2c-1.2,0-2-0.3-2.7-0.9s-0.9-1.5-0.9-2.6v-4H330v-2.2h1.5
			v-2.4h2.8v2.4h2.4v2.2h-2.4v3.9c0,0.4,0.1,0.7,0.3,0.9c0.2,0.2,0.5,0.3,0.9,0.3c0.4,0,0.8-0.1,1.1-0.4L337.4,289.6z"/>
		<path d="M348.1,286h-7.3c0.1,0.6,0.4,1.1,0.9,1.4c0.5,0.3,1.1,0.5,1.8,0.5c0.5,0,1-0.1,1.3-0.2c0.4-0.1,0.8-0.4,1.1-0.7l1.5,1.6
			c-0.9,1-2.2,1.6-4,1.6c-1.1,0-2.1-0.2-2.9-0.6c-0.8-0.4-1.5-1-1.9-1.8s-0.7-1.6-0.7-2.6c0-0.9,0.2-1.8,0.7-2.6
			c0.5-0.8,1.1-1.4,1.9-1.8c0.8-0.4,1.7-0.6,2.6-0.6c0.9,0,1.8,0.2,2.6,0.6c0.8,0.4,1.4,1,1.8,1.8c0.4,0.8,0.7,1.6,0.7,2.7
			C348.1,285.3,348.1,285.5,348.1,286z M341.5,282.9c-0.4,0.4-0.7,0.9-0.8,1.5h4.8c-0.1-0.6-0.4-1.1-0.8-1.5c-0.4-0.4-1-0.5-1.6-0.5
			C342.5,282.3,341.9,282.5,341.5,282.9z"/>
		<path d="M38.6,319.3c-0.3-0.3-0.5-0.8-0.5-1.3c0-0.5,0.2-0.9,0.5-1.3c0.3-0.3,0.7-0.5,1.2-0.5s0.9,0.2,1.2,0.5
			c0.3,0.3,0.5,0.7,0.5,1.3c0,0.5-0.2,0.9-0.5,1.3s-0.8,0.5-1.2,0.5S39,319.6,38.6,319.3z"/>
		<path d="M67.8,307l-4.1,12.6h-3.1l-2.8-8.5l-2.9,8.5h-3.1L47.7,307h3l2.8,8.9l3-8.9h2.7l2.9,8.9l2.9-8.9H67.8z"/>
		<path d="M78,315.6h-7.3c0.1,0.6,0.4,1.1,0.9,1.4c0.5,0.3,1.1,0.5,1.8,0.5c0.5,0,1-0.1,1.3-0.2c0.4-0.1,0.8-0.4,1.1-0.7l1.5,1.6
			c-0.9,1-2.2,1.6-4,1.6c-1.1,0-2.1-0.2-2.9-0.6c-0.8-0.4-1.5-1-1.9-1.8s-0.7-1.6-0.7-2.6c0-0.9,0.2-1.8,0.7-2.6
			c0.5-0.8,1.1-1.4,1.9-1.8s1.7-0.6,2.6-0.6c0.9,0,1.8,0.2,2.6,0.6c0.8,0.4,1.4,1,1.8,1.8c0.4,0.8,0.7,1.6,0.7,2.7
			C78,314.9,78,315.1,78,315.6z M71.4,312.5c-0.4,0.4-0.7,0.9-0.8,1.5h4.8c-0.1-0.6-0.4-1.1-0.8-1.5s-1-0.5-1.6-0.5
			C72.4,311.9,71.8,312.1,71.4,312.5z"/>
		<path d="M93.2,310.4c0.7,0.4,1.3,1,1.7,1.7s0.6,1.6,0.6,2.6s-0.2,1.9-0.6,2.6s-1,1.3-1.7,1.7c-0.7,0.4-1.6,0.6-2.5,0.6
			c-1.2,0-2.2-0.4-2.9-1.2v4.5H85v-13.2h2.7v1.1c0.7-0.8,1.7-1.3,3-1.3C91.6,309.8,92.4,310,93.2,310.4z M92,316.7
			c0.5-0.5,0.7-1.1,0.7-2c0-0.8-0.2-1.5-0.7-2c-0.5-0.5-1.1-0.7-1.8-0.7s-1.3,0.2-1.8,0.7c-0.5,0.5-0.7,1.1-0.7,2
			c0,0.8,0.2,1.5,0.7,2c0.5,0.5,1.1,0.7,1.8,0.7S91.5,317.2,92,316.7z"/>
		<path d="M99.3,319.1c-0.8-0.4-1.4-1-1.9-1.8s-0.7-1.6-0.7-2.6s0.2-1.8,0.7-2.6s1.1-1.3,1.9-1.8c0.8-0.4,1.7-0.6,2.7-0.6
			c1,0,1.9,0.2,2.7,0.6c0.8,0.4,1.4,1,1.9,1.8s0.7,1.6,0.7,2.6s-0.2,1.8-0.7,2.6s-1.1,1.3-1.9,1.8c-0.8,0.4-1.7,0.6-2.7,0.6
			C101,319.8,100.1,319.6,99.3,319.1z M103.8,316.7c0.5-0.5,0.7-1.1,0.7-2c0-0.8-0.2-1.5-0.7-2c-0.5-0.5-1.1-0.7-1.8-0.7
			s-1.3,0.2-1.8,0.7c-0.5,0.5-0.7,1.1-0.7,2c0,0.8,0.2,1.5,0.7,2s1.1,0.7,1.8,0.7S103.3,317.2,103.8,316.7z"/>
		<path d="M110.1,319.5c-0.8-0.2-1.4-0.4-1.8-0.7l0.9-2c0.4,0.3,1,0.5,1.6,0.7c0.6,0.2,1.2,0.3,1.8,0.3c1.2,0,1.8-0.3,1.8-0.9
			c0-0.3-0.2-0.5-0.5-0.6c-0.3-0.1-0.8-0.2-1.5-0.3c-0.8-0.1-1.4-0.3-2-0.4s-1-0.4-1.3-0.8c-0.4-0.4-0.6-1-0.6-1.7
			c0-0.6,0.2-1.2,0.5-1.6c0.4-0.5,0.9-0.8,1.5-1.1s1.5-0.4,2.4-0.4c0.7,0,1.4,0.1,2,0.2s1.2,0.4,1.7,0.6l-0.9,2
			c-0.9-0.5-1.8-0.7-2.8-0.7c-0.6,0-1,0.1-1.3,0.3c-0.3,0.2-0.5,0.4-0.5,0.6c0,0.3,0.2,0.5,0.5,0.6c0.3,0.1,0.8,0.2,1.5,0.3
			c0.8,0.1,1.4,0.3,1.9,0.4c0.5,0.2,0.9,0.4,1.3,0.8c0.4,0.4,0.6,0.9,0.6,1.7c0,0.6-0.2,1.1-0.5,1.6c-0.4,0.5-0.9,0.8-1.6,1.1
			c-0.7,0.3-1.5,0.4-2.5,0.4C111.7,319.8,110.9,319.7,110.1,319.5z"/>
		<path d="M118.9,308.1c-0.3-0.3-0.5-0.7-0.5-1.1s0.2-0.8,0.5-1.1s0.7-0.5,1.3-0.5s0.9,0.1,1.3,0.4c0.3,0.3,0.5,0.6,0.5,1.1
			c0,0.5-0.2,0.9-0.5,1.2c-0.3,0.3-0.7,0.5-1.3,0.5S119.2,308.4,118.9,308.1z M118.8,309.9h2.8v9.7h-2.8V309.9z"/>
		<path d="M130.4,319.2c-0.3,0.2-0.6,0.4-1,0.5c-0.4,0.1-0.8,0.2-1.3,0.2c-1.2,0-2-0.3-2.7-0.9s-0.9-1.5-0.9-2.6v-4H123v-2.2h1.5
			v-2.4h2.8v2.4h2.4v2.2h-2.4v3.9c0,0.4,0.1,0.7,0.3,0.9c0.2,0.2,0.5,0.3,0.9,0.3c0.4,0,0.8-0.1,1.1-0.4L130.4,319.2z"/>
		<path d="M132.2,308.1c-0.3-0.3-0.5-0.7-0.5-1.1s0.2-0.8,0.5-1.1s0.7-0.5,1.3-0.5s0.9,0.1,1.3,0.4c0.3,0.3,0.5,0.6,0.5,1.1
			c0,0.5-0.2,0.9-0.5,1.2c-0.3,0.3-0.7,0.5-1.3,0.5S132.5,308.4,132.2,308.1z M132,309.9h2.8v9.7H132V309.9z"/>
		<path d="M139.3,319.1c-0.8-0.4-1.4-1-1.9-1.8s-0.7-1.6-0.7-2.6s0.2-1.8,0.7-2.6s1.1-1.3,1.9-1.8c0.8-0.4,1.7-0.6,2.7-0.6
			c1,0,1.9,0.2,2.7,0.6c0.8,0.4,1.4,1,1.9,1.8s0.7,1.6,0.7,2.6s-0.2,1.8-0.7,2.6s-1.1,1.3-1.9,1.8c-0.8,0.4-1.7,0.6-2.7,0.6
			C141,319.8,140.1,319.6,139.3,319.1z M143.8,316.7c0.5-0.5,0.7-1.1,0.7-2c0-0.8-0.2-1.5-0.7-2c-0.5-0.5-1.1-0.7-1.8-0.7
			s-1.3,0.2-1.8,0.7c-0.5,0.5-0.7,1.1-0.7,2c0,0.8,0.2,1.5,0.7,2s1.1,0.7,1.8,0.7S143.4,317.2,143.8,316.7z"/>
		<path d="M158,310.9c0.7,0.7,1.1,1.8,1.1,3.2v5.5h-2.8v-5.1c0-0.8-0.2-1.3-0.5-1.7s-0.8-0.6-1.5-0.6c-0.7,0-1.3,0.2-1.7,0.7
			c-0.4,0.4-0.6,1.1-0.6,2v4.8h-2.8v-9.7h2.7v1.1c0.4-0.4,0.8-0.7,1.4-0.9c0.6-0.2,1.2-0.3,1.8-0.3
			C156.3,309.8,157.3,310.2,158,310.9z"/>
		<path d="M176.4,309.9l-4.4,10.3c-0.4,1.1-1,1.9-1.6,2.4s-1.4,0.7-2.4,0.7c-0.5,0-1-0.1-1.5-0.2c-0.5-0.2-0.9-0.4-1.2-0.6l1-2
			c0.2,0.2,0.5,0.3,0.7,0.5c0.3,0.1,0.6,0.2,0.8,0.2c0.4,0,0.7-0.1,0.9-0.3c0.2-0.2,0.5-0.5,0.6-0.9l0-0.1l-4.2-9.8h2.9l2.7,6.6
			l2.7-6.6H176.4z"/>
		<path d="M179.1,319.1c-0.8-0.4-1.4-1-1.9-1.8s-0.7-1.6-0.7-2.6s0.2-1.8,0.7-2.6s1.1-1.3,1.9-1.8c0.8-0.4,1.7-0.6,2.7-0.6
			c1,0,1.9,0.2,2.7,0.6c0.8,0.4,1.4,1,1.9,1.8s0.7,1.6,0.7,2.6s-0.2,1.8-0.7,2.6s-1.1,1.3-1.9,1.8c-0.8,0.4-1.7,0.6-2.7,0.6
			C180.8,319.8,179.9,319.6,179.1,319.1z M183.6,316.7c0.5-0.5,0.7-1.1,0.7-2c0-0.8-0.2-1.5-0.7-2c-0.5-0.5-1.1-0.7-1.8-0.7
			s-1.3,0.2-1.8,0.7c-0.5,0.5-0.7,1.1-0.7,2c0,0.8,0.2,1.5,0.7,2s1.1,0.7,1.8,0.7S183.2,317.2,183.6,316.7z"/>
		<path d="M198.8,309.9v9.7h-2.7v-1.2c-0.4,0.4-0.8,0.7-1.3,1c-0.5,0.2-1.1,0.3-1.7,0.3c-1.3,0-2.3-0.4-3-1.1
			c-0.7-0.7-1.1-1.8-1.1-3.3v-5.5h2.8v5.1c0,1.6,0.7,2.3,2,2.3c0.7,0,1.2-0.2,1.6-0.7c0.4-0.4,0.6-1.1,0.6-2v-4.8H198.8z"/>
		<path d="M205.4,310.2c0.6-0.2,1.2-0.4,2-0.4v2.6c-0.3,0-0.5,0-0.6,0c-0.8,0-1.4,0.2-1.9,0.7s-0.7,1.1-0.7,2v4.6h-2.8v-9.7h2.7v1.3
			C204.4,310.7,204.9,310.4,205.4,310.2z"/>
		<path d="M222.4,310.4c0.7,0.4,1.3,1,1.7,1.7s0.6,1.6,0.6,2.6s-0.2,1.9-0.6,2.6s-1,1.3-1.7,1.7s-1.6,0.6-2.5,0.6
			c-1.3,0-2.3-0.4-3-1.3v1.1h-2.7v-13.4h2.8v4.7c0.7-0.8,1.7-1.2,2.9-1.2C220.9,309.8,221.7,310,222.4,310.4z M221.3,316.7
			c0.5-0.5,0.7-1.1,0.7-2c0-0.8-0.2-1.5-0.7-2c-0.5-0.5-1.1-0.7-1.8-0.7c-0.7,0-1.3,0.2-1.8,0.7c-0.5,0.5-0.7,1.1-0.7,2
			c0,0.8,0.2,1.5,0.7,2s1.1,0.7,1.8,0.7C220.2,317.5,220.8,317.2,221.3,316.7z"/>
		<path d="M230.7,310.2c0.6-0.2,1.2-0.4,2-0.4v2.6c-0.3,0-0.5,0-0.6,0c-0.8,0-1.4,0.2-1.9,0.7s-0.7,1.1-0.7,2v4.6h-2.8v-9.7h2.7v1.3
			C229.7,310.7,230.1,310.4,230.7,310.2z"/>
		<path d="M241.7,310.9c0.8,0.7,1.2,1.8,1.2,3.2v5.5h-2.6v-1.2c-0.5,0.9-1.5,1.4-3,1.4c-0.7,0-1.4-0.1-1.9-0.4s-1-0.6-1.3-1
			c-0.3-0.4-0.4-0.9-0.4-1.5c0-0.9,0.3-1.6,1-2.1c0.7-0.5,1.7-0.8,3.1-0.8h2.2c0-0.6-0.2-1.1-0.6-1.4c-0.4-0.3-0.9-0.5-1.7-0.5
			c-0.5,0-1,0.1-1.5,0.2s-0.9,0.4-1.3,0.7l-1-2c0.5-0.4,1.2-0.7,1.9-0.9s1.5-0.3,2.3-0.3C239.7,309.8,240.9,310.1,241.7,310.9z
			 M239.3,317.5c0.4-0.2,0.6-0.5,0.8-1v-1h-1.9c-1.2,0-1.7,0.4-1.7,1.1c0,0.4,0.1,0.6,0.4,0.9c0.3,0.2,0.7,0.3,1.2,0.3
			C238.5,317.9,238.9,317.8,239.3,317.5z"/>
		<path d="M254.2,310.9c0.7,0.7,1.1,1.8,1.1,3.2v5.5h-2.8v-5.1c0-0.8-0.2-1.3-0.5-1.7s-0.8-0.6-1.5-0.6c-0.7,0-1.3,0.2-1.7,0.7
			c-0.4,0.4-0.6,1.1-0.6,2v4.8h-2.8v-9.7h2.7v1.1c0.4-0.4,0.8-0.7,1.4-0.9c0.6-0.2,1.2-0.3,1.8-0.3
			C252.5,309.8,253.5,310.2,254.2,310.9z"/>
		<path d="M267.8,306.3v13.4h-2.7v-1.1c-0.7,0.8-1.7,1.3-3,1.3c-0.9,0-1.7-0.2-2.5-0.6c-0.7-0.4-1.3-1-1.7-1.7s-0.6-1.6-0.6-2.6
			s0.2-1.9,0.6-2.6s1-1.3,1.7-1.7c0.7-0.4,1.6-0.6,2.5-0.6c1.2,0,2.2,0.4,2.9,1.2v-4.7H267.8z M264.4,316.7c0.5-0.5,0.7-1.1,0.7-2
			c0-0.8-0.2-1.5-0.7-2c-0.5-0.5-1.1-0.7-1.8-0.7c-0.7,0-1.3,0.2-1.8,0.7c-0.5,0.5-0.7,1.1-0.7,2c0,0.8,0.2,1.5,0.7,2
			s1.1,0.7,1.8,0.7C263.3,317.5,263.9,317.2,264.4,316.7z"/>
		<path d="M275.7,308.1c-0.3-0.3-0.5-0.7-0.5-1.1s0.2-0.8,0.5-1.1c0.3-0.3,0.7-0.5,1.3-0.5c0.5,0,0.9,0.1,1.3,0.4s0.5,0.6,0.5,1.1
			c0,0.5-0.2,0.9-0.5,1.2c-0.3,0.3-0.7,0.5-1.3,0.5C276.4,308.6,276,308.4,275.7,308.1z M275.5,309.9h2.8v9.7h-2.8V309.9z"/>
		<path d="M289.7,310.9c0.7,0.7,1.1,1.8,1.1,3.2v5.5H288v-5.1c0-0.8-0.2-1.3-0.5-1.7s-0.8-0.6-1.5-0.6c-0.7,0-1.3,0.2-1.7,0.7
			c-0.4,0.4-0.6,1.1-0.6,2v4.8h-2.8v-9.7h2.7v1.1c0.4-0.4,0.8-0.7,1.4-0.9c0.6-0.2,1.2-0.3,1.8-0.3C288,309.8,289,310.2,289.7,310.9
			z"/>
		<path d="M299.4,319.5c-0.8-0.2-1.4-0.4-1.8-0.7l0.9-2c0.4,0.3,1,0.5,1.6,0.7c0.6,0.2,1.2,0.3,1.8,0.3c1.2,0,1.8-0.3,1.8-0.9
			c0-0.3-0.2-0.5-0.5-0.6c-0.3-0.1-0.8-0.2-1.5-0.3c-0.8-0.1-1.4-0.3-2-0.4s-1-0.4-1.3-0.8c-0.4-0.4-0.6-1-0.6-1.7
			c0-0.6,0.2-1.2,0.5-1.6c0.4-0.5,0.9-0.8,1.5-1.1s1.5-0.4,2.4-0.4c0.7,0,1.4,0.1,2,0.2s1.2,0.4,1.7,0.6l-0.9,2
			c-0.9-0.5-1.8-0.7-2.8-0.7c-0.6,0-1,0.1-1.3,0.3c-0.3,0.2-0.5,0.4-0.5,0.6c0,0.3,0.2,0.5,0.5,0.6c0.3,0.1,0.8,0.2,1.5,0.3
			c0.8,0.1,1.4,0.3,1.9,0.4c0.5,0.2,0.9,0.4,1.3,0.8c0.4,0.4,0.6,0.9,0.6,1.7c0,0.6-0.2,1.1-0.5,1.6c-0.4,0.5-0.9,0.8-1.6,1.1
			c-0.7,0.3-1.5,0.4-2.5,0.4C300.9,319.8,300.1,319.7,299.4,319.5z"/>
		<path d="M317.5,315.6h-7.3c0.1,0.6,0.4,1.1,0.9,1.4c0.5,0.3,1.1,0.5,1.8,0.5c0.5,0,1-0.1,1.3-0.2c0.4-0.1,0.8-0.4,1.1-0.7l1.5,1.6
			c-0.9,1-2.2,1.6-4,1.6c-1.1,0-2.1-0.2-2.9-0.6c-0.8-0.4-1.5-1-1.9-1.8s-0.7-1.6-0.7-2.6c0-0.9,0.2-1.8,0.7-2.6
			c0.5-0.8,1.1-1.4,1.9-1.8c0.8-0.4,1.7-0.6,2.6-0.6c0.9,0,1.8,0.2,2.6,0.6c0.8,0.4,1.4,1,1.8,1.8c0.4,0.8,0.7,1.6,0.7,2.7
			C317.5,314.9,317.5,315.1,317.5,315.6z M310.9,312.5c-0.4,0.4-0.7,0.9-0.8,1.5h4.8c-0.1-0.6-0.4-1.1-0.8-1.5
			c-0.4-0.4-1-0.5-1.6-0.5C311.8,311.9,311.3,312.1,310.9,312.5z"/>
		<path d="M326.5,310.9c0.8,0.7,1.2,1.8,1.2,3.2v5.5H325v-1.2c-0.5,0.9-1.5,1.4-3,1.4c-0.7,0-1.4-0.1-1.9-0.4c-0.5-0.3-1-0.6-1.3-1
			c-0.3-0.4-0.4-0.9-0.4-1.5c0-0.9,0.3-1.6,1-2.1c0.7-0.5,1.7-0.8,3.1-0.8h2.2c0-0.6-0.2-1.1-0.6-1.4s-0.9-0.5-1.7-0.5
			c-0.5,0-1,0.1-1.5,0.2c-0.5,0.2-0.9,0.4-1.3,0.7l-1-2c0.5-0.4,1.2-0.7,1.9-0.9c0.7-0.2,1.5-0.3,2.3-0.3
			C324.5,309.8,325.7,310.1,326.5,310.9z M324.1,317.5c0.4-0.2,0.6-0.5,0.8-1v-1h-1.9c-1.2,0-1.7,0.4-1.7,1.1c0,0.4,0.1,0.6,0.4,0.9
			s0.7,0.3,1.2,0.3C323.3,317.9,323.7,317.8,324.1,317.5z"/>
		<path d="M334.3,310.2c0.6-0.2,1.2-0.4,2-0.4v2.6c-0.3,0-0.5,0-0.6,0c-0.8,0-1.4,0.2-1.9,0.7s-0.7,1.1-0.7,2v4.6h-2.8v-9.7h2.7v1.3
			C333.2,310.7,333.7,310.4,334.3,310.2z"/>
		<path d="M339.7,319.1c-0.8-0.4-1.5-1-1.9-1.8s-0.7-1.6-0.7-2.6s0.2-1.8,0.7-2.6s1.1-1.3,1.9-1.8c0.8-0.4,1.7-0.6,2.8-0.6
			c1,0,1.9,0.2,2.7,0.6c0.8,0.4,1.3,1,1.7,1.8l-2.2,1.2c-0.5-0.9-1.2-1.3-2.2-1.3c-0.7,0-1.3,0.2-1.8,0.7c-0.5,0.5-0.7,1.1-0.7,2
			s0.2,1.5,0.7,2c0.5,0.5,1.1,0.7,1.8,0.7c1,0,1.7-0.4,2.2-1.3l2.2,1.2c-0.3,0.8-0.9,1.4-1.7,1.8c-0.8,0.4-1.7,0.6-2.7,0.6
			C341.5,319.8,340.5,319.6,339.7,319.1z"/>
		<path d="M357.2,310.9c0.7,0.7,1.1,1.8,1.1,3.2v5.5h-2.8v-5.1c0-0.8-0.2-1.3-0.5-1.7s-0.8-0.6-1.5-0.6c-0.7,0-1.3,0.2-1.7,0.7
			c-0.4,0.4-0.6,1.1-0.6,2v4.8h-2.8v-13.4h2.8v4.7c0.4-0.4,0.8-0.7,1.4-0.9c0.5-0.2,1.1-0.3,1.7-0.3
			C355.5,309.8,356.4,310.2,357.2,310.9z"/>
		<path d="M375.3,315.6H368c0.1,0.6,0.4,1.1,0.9,1.4c0.5,0.3,1.1,0.5,1.8,0.5c0.5,0,1-0.1,1.3-0.2c0.4-0.1,0.8-0.4,1.1-0.7l1.5,1.6
			c-0.9,1-2.2,1.6-4,1.6c-1.1,0-2.1-0.2-2.9-0.6c-0.8-0.4-1.5-1-1.9-1.8s-0.7-1.6-0.7-2.6c0-0.9,0.2-1.8,0.7-2.6
			c0.5-0.8,1.1-1.4,1.9-1.8c0.8-0.4,1.7-0.6,2.6-0.6c0.9,0,1.8,0.2,2.6,0.6c0.8,0.4,1.4,1,1.8,1.8c0.4,0.8,0.7,1.6,0.7,2.7
			C375.4,314.9,375.4,315.1,375.3,315.6z M368.8,312.5c-0.4,0.4-0.7,0.9-0.8,1.5h4.8c-0.1-0.6-0.4-1.1-0.8-1.5
			c-0.4-0.4-1-0.5-1.6-0.5C369.7,311.9,369.2,312.1,368.8,312.5z"/>
		<path d="M386.1,310.9c0.7,0.7,1.1,1.8,1.1,3.2v5.5h-2.8v-5.1c0-0.8-0.2-1.3-0.5-1.7s-0.8-0.6-1.5-0.6c-0.7,0-1.3,0.2-1.7,0.7
			c-0.4,0.4-0.6,1.1-0.6,2v4.8h-2.8v-9.7h2.7v1.1c0.4-0.4,0.8-0.7,1.4-0.9c0.6-0.2,1.2-0.3,1.8-0.3
			C384.3,309.8,385.3,310.2,386.1,310.9z"/>
		<path d="M399.8,309.9v8.1c0,1.8-0.5,3.1-1.4,4c-0.9,0.9-2.3,1.3-4.1,1.3c-0.9,0-1.8-0.1-2.7-0.3c-0.8-0.2-1.5-0.6-2.1-1l1.1-2
			c0.4,0.3,0.9,0.6,1.5,0.8c0.6,0.2,1.2,0.3,1.9,0.3c1,0,1.7-0.2,2.2-0.7c0.5-0.4,0.7-1.1,0.7-2v-0.4c-0.7,0.8-1.8,1.2-3.1,1.2
			c-0.9,0-1.7-0.2-2.4-0.6c-0.7-0.4-1.3-0.9-1.8-1.6c-0.4-0.7-0.6-1.5-0.6-2.4s0.2-1.7,0.6-2.4c0.4-0.7,1-1.3,1.8-1.6
			c0.7-0.4,1.6-0.6,2.4-0.6c1.4,0,2.5,0.5,3.2,1.4v-1.2H399.8z M396.3,316.2c0.5-0.4,0.7-1,0.7-1.7s-0.2-1.3-0.7-1.7
			c-0.5-0.4-1.1-0.7-1.8-0.7s-1.4,0.2-1.8,0.7c-0.5,0.4-0.7,1-0.7,1.7s0.2,1.3,0.7,1.7c0.5,0.4,1.1,0.7,1.8,0.7
			S395.8,316.6,396.3,316.2z"/>
		<path d="M402.6,308.1c-0.3-0.3-0.5-0.7-0.5-1.1s0.2-0.8,0.5-1.1c0.3-0.3,0.7-0.5,1.3-0.5c0.5,0,0.9,0.1,1.3,0.4s0.5,0.6,0.5,1.1
			c0,0.5-0.2,0.9-0.5,1.2c-0.3,0.3-0.7,0.5-1.3,0.5C403.3,308.6,402.9,308.4,402.6,308.1z M402.4,309.9h2.8v9.7h-2.8V309.9z"/>
		<path d="M416.6,310.9c0.7,0.7,1.1,1.8,1.1,3.2v5.5h-2.8v-5.1c0-0.8-0.2-1.3-0.5-1.7s-0.8-0.6-1.5-0.6c-0.7,0-1.3,0.2-1.7,0.7
			c-0.4,0.4-0.6,1.1-0.6,2v4.8h-2.8v-9.7h2.7v1.1c0.4-0.4,0.8-0.7,1.4-0.9c0.6-0.2,1.2-0.3,1.8-0.3
			C414.9,309.8,415.9,310.2,416.6,310.9z"/>
		<path d="M429.8,315.6h-7.3c0.1,0.6,0.4,1.1,0.9,1.4c0.5,0.3,1.1,0.5,1.8,0.5c0.5,0,1-0.1,1.3-0.2c0.4-0.1,0.8-0.4,1.1-0.7l1.5,1.6
			c-0.9,1-2.2,1.6-4,1.6c-1.1,0-2.1-0.2-2.9-0.6c-0.8-0.4-1.5-1-1.9-1.8s-0.7-1.6-0.7-2.6c0-0.9,0.2-1.8,0.7-2.6
			c0.5-0.8,1.1-1.4,1.9-1.8c0.8-0.4,1.7-0.6,2.6-0.6c0.9,0,1.8,0.2,2.6,0.6c0.8,0.4,1.4,1,1.8,1.8c0.4,0.8,0.7,1.6,0.7,2.7
			C429.9,314.9,429.8,315.1,429.8,315.6z M423.2,312.5c-0.4,0.4-0.7,0.9-0.8,1.5h4.8c-0.1-0.6-0.4-1.1-0.8-1.5
			c-0.4-0.4-1-0.5-1.6-0.5C424.2,311.9,423.7,312.1,423.2,312.5z"/>
		<path d="M432.6,319.5c-0.8-0.2-1.4-0.4-1.8-0.7l0.9-2c0.4,0.3,1,0.5,1.6,0.7c0.6,0.2,1.2,0.3,1.8,0.3c1.2,0,1.8-0.3,1.8-0.9
			c0-0.3-0.2-0.5-0.5-0.6c-0.3-0.1-0.8-0.2-1.5-0.3c-0.8-0.1-1.4-0.3-2-0.4s-1-0.4-1.3-0.8c-0.4-0.4-0.6-1-0.6-1.7
			c0-0.6,0.2-1.2,0.5-1.6c0.4-0.5,0.9-0.8,1.5-1.1s1.5-0.4,2.4-0.4c0.7,0,1.4,0.1,2,0.2c0.7,0.2,1.2,0.4,1.7,0.6l-0.9,2
			c-0.9-0.5-1.8-0.7-2.8-0.7c-0.6,0-1.1,0.1-1.4,0.3c-0.3,0.2-0.4,0.4-0.4,0.6c0,0.3,0.2,0.5,0.5,0.6c0.3,0.1,0.8,0.2,1.5,0.3
			c0.8,0.1,1.4,0.3,1.9,0.4c0.5,0.2,0.9,0.4,1.3,0.8c0.4,0.4,0.6,0.9,0.6,1.7c0,0.6-0.2,1.1-0.5,1.6c-0.4,0.5-0.9,0.8-1.6,1.1
			c-0.7,0.3-1.5,0.4-2.5,0.4C434.2,319.8,433.4,319.7,432.6,319.5z"/>
		<path d="M38.6,348.9c-0.3-0.3-0.5-0.8-0.5-1.3c0-0.5,0.2-0.9,0.5-1.3c0.3-0.3,0.7-0.5,1.2-0.5s0.9,0.2,1.2,0.5
			c0.3,0.3,0.5,0.7,0.5,1.3c0,0.5-0.2,0.9-0.5,1.3c-0.3,0.3-0.8,0.5-1.2,0.5S39,349.2,38.6,348.9z"/>
		<path d="M67.8,336.6l-4.1,12.6h-3.1l-2.8-8.5l-2.9,8.5h-3.1l-4.1-12.6h3l2.8,8.9l3-8.9h2.7l2.9,8.9l2.9-8.9H67.8z"/>
		<path d="M78,345.2h-7.3c0.1,0.6,0.4,1.1,0.9,1.4s1.1,0.5,1.8,0.5c0.5,0,1-0.1,1.3-0.2c0.4-0.1,0.8-0.4,1.1-0.7l1.5,1.6
			c-0.9,1-2.2,1.6-4,1.6c-1.1,0-2.1-0.2-2.9-0.6c-0.8-0.4-1.5-1-1.9-1.8c-0.5-0.8-0.7-1.6-0.7-2.6c0-0.9,0.2-1.8,0.7-2.6
			c0.5-0.8,1.1-1.4,1.9-1.8c0.8-0.4,1.7-0.6,2.6-0.6c0.9,0,1.8,0.2,2.6,0.6c0.8,0.4,1.4,1,1.8,1.8c0.4,0.8,0.7,1.6,0.7,2.7
			C78,344.5,78,344.7,78,345.2z M71.4,342.1c-0.4,0.4-0.7,0.9-0.8,1.5h4.8c-0.1-0.6-0.4-1.1-0.8-1.5c-0.4-0.4-1-0.5-1.6-0.5
			C72.4,341.5,71.8,341.7,71.4,342.1z"/>
		<path d="M94.4,345.2h-7.3c0.1,0.6,0.4,1.1,0.9,1.4s1.1,0.5,1.8,0.5c0.5,0,1-0.1,1.3-0.2c0.4-0.1,0.8-0.4,1.1-0.7l1.5,1.6
			c-0.9,1-2.2,1.6-4,1.6c-1.1,0-2.1-0.2-2.9-0.6s-1.5-1-1.9-1.8c-0.5-0.8-0.7-1.6-0.7-2.6c0-0.9,0.2-1.8,0.7-2.6
			c0.5-0.8,1.1-1.4,1.9-1.8c0.8-0.4,1.7-0.6,2.6-0.6c0.9,0,1.8,0.2,2.6,0.6c0.8,0.4,1.4,1,1.8,1.8c0.4,0.8,0.7,1.6,0.7,2.7
			C94.5,344.5,94.5,344.7,94.4,345.2z M87.9,342.1c-0.4,0.4-0.7,0.9-0.8,1.5h4.8c-0.1-0.6-0.4-1.1-0.8-1.5c-0.4-0.4-1-0.5-1.6-0.5
			C88.8,341.5,88.3,341.7,87.9,342.1z"/>
		<path d="M105.2,340.5c0.7,0.7,1.1,1.8,1.1,3.2v5.5h-2.8v-5.1c0-0.8-0.2-1.3-0.5-1.7s-0.8-0.6-1.5-0.6c-0.7,0-1.3,0.2-1.7,0.7
			c-0.4,0.4-0.6,1.1-0.6,2v4.8h-2.8v-9.7H99v1.1c0.4-0.4,0.8-0.7,1.4-0.9c0.6-0.2,1.2-0.3,1.8-0.3
			C103.4,339.4,104.4,339.8,105.2,340.5z"/>
		<path d="M117.6,340.5c0.7,0.7,1.1,1.8,1.1,3.2v5.5h-2.8v-5.1c0-0.8-0.2-1.3-0.5-1.7s-0.8-0.6-1.5-0.6c-0.7,0-1.3,0.2-1.7,0.7
			c-0.4,0.4-0.6,1.1-0.6,2v4.8h-2.8v-13.4h2.8v4.7c0.4-0.4,0.8-0.7,1.3-0.9c0.5-0.2,1.1-0.3,1.7-0.3
			C115.9,339.4,116.9,339.8,117.6,340.5z"/>
		<path d="M128.6,340.5c0.8,0.7,1.2,1.8,1.2,3.2v5.5h-2.6V348c-0.5,0.9-1.5,1.3-3,1.3c-0.7,0-1.4-0.1-1.9-0.4s-1-0.6-1.3-1
			c-0.3-0.4-0.4-0.9-0.4-1.5c0-0.9,0.3-1.6,1-2.1c0.7-0.5,1.7-0.8,3.1-0.8h2.2c0-0.6-0.2-1.1-0.6-1.4c-0.4-0.3-0.9-0.5-1.7-0.5
			c-0.5,0-1,0.1-1.5,0.2c-0.5,0.2-0.9,0.4-1.3,0.7l-1-2c0.5-0.4,1.2-0.7,1.9-0.9c0.7-0.2,1.5-0.3,2.3-0.3
			C126.6,339.4,127.8,339.8,128.6,340.5z M126.2,347.1c0.4-0.2,0.6-0.5,0.8-1v-1h-1.9c-1.2,0-1.7,0.4-1.7,1.1c0,0.4,0.1,0.6,0.4,0.9
			c0.3,0.2,0.7,0.3,1.2,0.3C125.4,347.5,125.8,347.4,126.2,347.1z"/>
		<path d="M141.1,340.5c0.7,0.7,1.1,1.8,1.1,3.2v5.5h-2.8v-5.1c0-0.8-0.2-1.3-0.5-1.7s-0.8-0.6-1.5-0.6c-0.7,0-1.3,0.2-1.7,0.7
			c-0.4,0.4-0.6,1.1-0.6,2v4.8h-2.8v-9.7h2.7v1.1c0.4-0.4,0.8-0.7,1.4-0.9c0.6-0.2,1.2-0.3,1.8-0.3
			C139.4,339.4,140.4,339.8,141.1,340.5z"/>
		<path d="M146.8,348.7c-0.8-0.4-1.5-1-1.9-1.8c-0.5-0.8-0.7-1.6-0.7-2.6s0.2-1.8,0.7-2.6s1.1-1.3,1.9-1.8c0.8-0.4,1.7-0.6,2.8-0.6
			c1,0,1.9,0.2,2.7,0.6c0.8,0.4,1.3,1,1.7,1.8l-2.2,1.2c-0.5-0.9-1.2-1.3-2.2-1.3c-0.7,0-1.3,0.2-1.8,0.7c-0.5,0.5-0.7,1.1-0.7,2
			s0.2,1.5,0.7,2c0.5,0.5,1.1,0.7,1.8,0.7c1,0,1.7-0.4,2.2-1.3l2.2,1.2c-0.3,0.8-0.9,1.4-1.7,1.8c-0.8,0.4-1.7,0.6-2.7,0.6
			C148.5,349.4,147.6,349.2,146.8,348.7z"/>
		<path d="M164.8,345.2h-7.3c0.1,0.6,0.4,1.1,0.9,1.4s1.1,0.5,1.8,0.5c0.5,0,1-0.1,1.3-0.2c0.4-0.1,0.8-0.4,1.1-0.7l1.5,1.6
			c-0.9,1-2.2,1.6-4,1.6c-1.1,0-2.1-0.2-2.9-0.6s-1.5-1-1.9-1.8c-0.5-0.8-0.7-1.6-0.7-2.6c0-0.9,0.2-1.8,0.7-2.6
			c0.5-0.8,1.1-1.4,1.9-1.8c0.8-0.4,1.7-0.6,2.6-0.6c0.9,0,1.8,0.2,2.6,0.6c0.8,0.4,1.4,1,1.8,1.8c0.4,0.8,0.7,1.6,0.7,2.7
			C164.9,344.5,164.9,344.7,164.8,345.2z M158.3,342.1c-0.4,0.4-0.7,0.9-0.8,1.5h4.8c-0.1-0.6-0.4-1.1-0.8-1.5
			c-0.4-0.4-1-0.5-1.6-0.5C159.2,341.5,158.7,341.7,158.3,342.1z"/>
		<path d="M181.5,339.5l-4.4,10.3c-0.4,1.1-1,1.9-1.6,2.4s-1.4,0.7-2.4,0.7c-0.5,0-1-0.1-1.5-0.2c-0.5-0.2-0.9-0.4-1.2-0.6l1-2
			c0.2,0.2,0.5,0.3,0.7,0.5s0.6,0.2,0.8,0.2c0.4,0,0.7-0.1,0.9-0.3c0.2-0.2,0.5-0.5,0.6-0.9l0-0.1l-4.2-9.8h2.9l2.7,6.6l2.7-6.6
			H181.5z"/>
		<path d="M184.2,348.7c-0.8-0.4-1.4-1-1.9-1.8c-0.5-0.8-0.7-1.6-0.7-2.6s0.2-1.8,0.7-2.6s1.1-1.3,1.9-1.8c0.8-0.4,1.7-0.6,2.7-0.6
			c1,0,1.9,0.2,2.7,0.6c0.8,0.4,1.4,1,1.9,1.8s0.7,1.6,0.7,2.6s-0.2,1.8-0.7,2.6c-0.5,0.8-1.1,1.3-1.9,1.8c-0.8,0.4-1.7,0.6-2.7,0.6
			C185.9,349.4,185,349.2,184.2,348.7z M188.7,346.3c0.5-0.5,0.7-1.1,0.7-2s-0.2-1.5-0.7-2s-1.1-0.7-1.8-0.7s-1.3,0.2-1.8,0.7
			s-0.7,1.1-0.7,2s0.2,1.5,0.7,2c0.5,0.5,1.1,0.7,1.8,0.7S188.3,346.8,188.7,346.3z"/>
		<path d="M203.9,339.5v9.7h-2.7v-1.2c-0.4,0.4-0.8,0.7-1.3,1c-0.5,0.2-1.1,0.3-1.7,0.3c-1.3,0-2.3-0.4-3-1.1
			c-0.7-0.7-1.1-1.8-1.1-3.3v-5.5h2.8v5.1c0,1.6,0.7,2.3,2,2.3c0.7,0,1.2-0.2,1.6-0.7c0.4-0.4,0.6-1.1,0.6-2v-4.8H203.9z"/>
		<path d="M210.5,339.8c0.6-0.2,1.2-0.4,2-0.4v2.6c-0.3,0-0.5,0-0.6,0c-0.8,0-1.4,0.2-1.9,0.7c-0.5,0.4-0.7,1.1-0.7,2v4.6h-2.8v-9.7
			h2.7v1.3C209.5,340.3,210,340,210.5,339.8z"/>
		<path d="M220.3,349.1c-0.8-0.2-1.4-0.4-1.8-0.7l0.9-2c0.4,0.3,1,0.5,1.6,0.7c0.6,0.2,1.2,0.3,1.8,0.3c1.2,0,1.8-0.3,1.8-0.9
			c0-0.3-0.2-0.5-0.5-0.6s-0.8-0.2-1.5-0.3c-0.8-0.1-1.4-0.3-2-0.4c-0.5-0.2-1-0.4-1.3-0.8c-0.4-0.4-0.6-1-0.6-1.7
			c0-0.6,0.2-1.2,0.5-1.6c0.4-0.5,0.9-0.8,1.5-1.1c0.7-0.3,1.5-0.4,2.4-0.4c0.7,0,1.4,0.1,2,0.2c0.7,0.1,1.2,0.4,1.7,0.6l-0.9,2
			c-0.9-0.5-1.8-0.7-2.8-0.7c-0.6,0-1.1,0.1-1.4,0.3s-0.5,0.4-0.5,0.6c0,0.3,0.2,0.5,0.5,0.6s0.8,0.2,1.5,0.3
			c0.8,0.1,1.4,0.3,1.9,0.4c0.5,0.2,0.9,0.4,1.3,0.8c0.4,0.4,0.6,0.9,0.6,1.7c0,0.6-0.2,1.1-0.5,1.6c-0.4,0.5-0.9,0.8-1.6,1.1
			c-0.7,0.3-1.5,0.4-2.5,0.4C221.8,349.4,221,349.3,220.3,349.1z"/>
		<path d="M236.3,340.5c0.8,0.7,1.2,1.8,1.2,3.2v5.5h-2.6V348c-0.5,0.9-1.5,1.3-3,1.3c-0.7,0-1.4-0.1-1.9-0.4s-1-0.6-1.3-1
			c-0.3-0.4-0.4-0.9-0.4-1.5c0-0.9,0.3-1.6,1-2.1c0.7-0.5,1.7-0.8,3.1-0.8h2.2c0-0.6-0.2-1.1-0.6-1.4c-0.4-0.3-0.9-0.5-1.7-0.5
			c-0.5,0-1,0.1-1.5,0.2c-0.5,0.2-0.9,0.4-1.3,0.7l-1-2c0.5-0.4,1.2-0.7,1.9-0.9c0.7-0.2,1.5-0.3,2.3-0.3
			C234.3,339.4,235.5,339.8,236.3,340.5z M233.9,347.1c0.4-0.2,0.6-0.5,0.8-1v-1h-1.9c-1.2,0-1.7,0.4-1.7,1.1c0,0.4,0.1,0.6,0.4,0.9
			c0.3,0.2,0.7,0.3,1.2,0.3C233.1,347.5,233.5,347.4,233.9,347.1z"/>
		<path d="M240,335.9h2.8v13.4H240V335.9z"/>
		<path d="M254.9,345.2h-7.3c0.1,0.6,0.4,1.1,0.9,1.4s1.1,0.5,1.8,0.5c0.5,0,1-0.1,1.3-0.2c0.4-0.1,0.8-0.4,1.1-0.7l1.5,1.6
			c-0.9,1-2.2,1.6-4,1.6c-1.1,0-2.1-0.2-2.9-0.6s-1.5-1-1.9-1.8c-0.5-0.8-0.7-1.6-0.7-2.6c0-0.9,0.2-1.8,0.7-2.6
			c0.5-0.8,1.1-1.4,1.9-1.8c0.8-0.4,1.7-0.6,2.6-0.6c0.9,0,1.8,0.2,2.6,0.6c0.8,0.4,1.4,1,1.8,1.8c0.4,0.8,0.7,1.6,0.7,2.7
			C254.9,344.5,254.9,344.7,254.9,345.2z M248.3,342.1c-0.4,0.4-0.7,0.9-0.8,1.5h4.8c-0.1-0.6-0.4-1.1-0.8-1.5
			c-0.4-0.4-1-0.5-1.6-0.5C249.3,341.5,248.7,341.7,248.3,342.1z"/>
		<path d="M257.7,349.1c-0.8-0.2-1.4-0.4-1.8-0.7l0.9-2c0.4,0.3,1,0.5,1.6,0.7c0.6,0.2,1.2,0.3,1.8,0.3c1.2,0,1.8-0.3,1.8-0.9
			c0-0.3-0.2-0.5-0.5-0.6s-0.8-0.2-1.5-0.3c-0.8-0.1-1.4-0.3-2-0.4c-0.5-0.2-1-0.4-1.3-0.8c-0.4-0.4-0.6-1-0.6-1.7
			c0-0.6,0.2-1.2,0.5-1.6c0.4-0.5,0.9-0.8,1.5-1.1c0.7-0.3,1.5-0.4,2.4-0.4c0.7,0,1.4,0.1,2,0.2c0.7,0.1,1.2,0.4,1.7,0.6l-0.9,2
			c-0.9-0.5-1.8-0.7-2.8-0.7c-0.6,0-1.1,0.1-1.4,0.3s-0.5,0.4-0.5,0.6c0,0.3,0.2,0.5,0.5,0.6s0.8,0.2,1.5,0.3
			c0.8,0.1,1.4,0.3,1.9,0.4c0.5,0.2,0.9,0.4,1.3,0.8c0.4,0.4,0.6,0.9,0.6,1.7c0,0.6-0.2,1.1-0.5,1.6c-0.4,0.5-0.9,0.8-1.6,1.1
			c-0.7,0.3-1.5,0.4-2.5,0.4C259.2,349.4,258.5,349.3,257.7,349.1z"/>
		<path d="M38.6,378.5c-0.3-0.3-0.5-0.8-0.5-1.3c0-0.5,0.2-0.9,0.5-1.3c0.3-0.3,0.7-0.5,1.2-0.5s0.9,0.2,1.2,0.5
			c0.3,0.3,0.5,0.7,0.5,1.3c0,0.5-0.2,0.9-0.5,1.3c-0.3,0.3-0.8,0.5-1.2,0.5S39,378.8,38.6,378.5z"/>
		<path d="M67.8,366.2l-4.1,12.6h-3.1l-2.8-8.5l-2.9,8.5h-3.1l-4.1-12.6h3l2.8,8.9l3-8.9h2.7l2.9,8.9l2.9-8.9H67.8z"/>
		<path d="M78,374.8h-7.3c0.1,0.6,0.4,1.1,0.9,1.4s1.1,0.5,1.8,0.5c0.5,0,1-0.1,1.3-0.2c0.4-0.1,0.8-0.4,1.1-0.7l1.5,1.6
			c-0.9,1-2.2,1.6-4,1.6c-1.1,0-2.1-0.2-2.9-0.6c-0.8-0.4-1.5-1-1.9-1.8c-0.5-0.8-0.7-1.6-0.7-2.6c0-0.9,0.2-1.8,0.7-2.6
			c0.5-0.8,1.1-1.4,1.9-1.8c0.8-0.4,1.7-0.6,2.6-0.6c0.9,0,1.8,0.2,2.6,0.6c0.8,0.4,1.4,1,1.8,1.8c0.4,0.8,0.7,1.6,0.7,2.7
			C78,374.1,78,374.3,78,374.8z M71.4,371.7c-0.4,0.4-0.7,0.9-0.8,1.5h4.8c-0.1-0.6-0.4-1.1-0.8-1.5c-0.4-0.4-1-0.5-1.6-0.5
			C72.4,371.1,71.8,371.3,71.4,371.7z"/>
		<path d="M95,369.1v8.1c0,1.8-0.5,3.1-1.4,4c-0.9,0.9-2.3,1.3-4,1.3c-0.9,0-1.8-0.1-2.7-0.3c-0.8-0.2-1.5-0.6-2.1-1l1.1-2
			c0.4,0.3,0.9,0.6,1.5,0.8c0.6,0.2,1.2,0.3,1.9,0.3c1,0,1.7-0.2,2.2-0.7c0.5-0.4,0.7-1.1,0.7-2v-0.4c-0.7,0.8-1.8,1.2-3.1,1.2
			c-0.9,0-1.7-0.2-2.4-0.6c-0.7-0.4-1.3-0.9-1.8-1.6c-0.4-0.7-0.6-1.5-0.6-2.4c0-0.9,0.2-1.7,0.6-2.4c0.4-0.7,1-1.3,1.8-1.6
			c0.7-0.4,1.6-0.6,2.4-0.6c1.4,0,2.5,0.5,3.2,1.4v-1.2H95z M91.5,375.4c0.5-0.4,0.7-1,0.7-1.7c0-0.7-0.2-1.3-0.7-1.7
			c-0.5-0.4-1.1-0.7-1.8-0.7c-0.7,0-1.4,0.2-1.8,0.7c-0.5,0.4-0.7,1-0.7,1.7c0,0.7,0.2,1.3,0.7,1.7c0.5,0.4,1.1,0.7,1.8,0.7
			C90.4,376,91,375.8,91.5,375.4z"/>
		<path d="M107,374.8h-7.3c0.1,0.6,0.4,1.1,0.9,1.4s1.1,0.5,1.8,0.5c0.5,0,1-0.1,1.3-0.2c0.4-0.1,0.8-0.4,1.1-0.7l1.5,1.6
			c-0.9,1-2.2,1.6-4,1.6c-1.1,0-2.1-0.2-2.9-0.6c-0.8-0.4-1.5-1-1.9-1.8c-0.5-0.8-0.7-1.6-0.7-2.6c0-0.9,0.2-1.8,0.7-2.6
			c0.5-0.8,1.1-1.4,1.9-1.8c0.8-0.4,1.7-0.6,2.6-0.6c0.9,0,1.8,0.2,2.6,0.6c0.8,0.4,1.4,1,1.8,1.8c0.4,0.8,0.7,1.6,0.7,2.7
			C107.1,374.1,107.1,374.3,107,374.8z M100.5,371.7c-0.4,0.4-0.7,0.9-0.8,1.5h4.8c-0.1-0.6-0.4-1.1-0.8-1.5c-0.4-0.4-1-0.5-1.6-0.5
			C101.4,371.1,100.9,371.3,100.5,371.7z"/>
		<path d="M117.8,370.1c0.7,0.7,1.1,1.8,1.1,3.2v5.5h-2.8v-5.1c0-0.8-0.2-1.3-0.5-1.7s-0.8-0.6-1.5-0.6c-0.7,0-1.3,0.2-1.7,0.7
			c-0.4,0.4-0.6,1.1-0.6,2v4.8H109v-9.7h2.7v1.1c0.4-0.4,0.8-0.7,1.4-0.9c0.6-0.2,1.2-0.3,1.8-0.3C116,369,117,369.4,117.8,370.1z"
			/>
		<path d="M130.9,374.8h-7.3c0.1,0.6,0.4,1.1,0.9,1.4s1.1,0.5,1.8,0.5c0.5,0,1-0.1,1.3-0.2c0.4-0.1,0.8-0.4,1.1-0.7l1.5,1.6
			c-0.9,1-2.2,1.6-4,1.6c-1.1,0-2.1-0.2-2.9-0.6s-1.5-1-1.9-1.8c-0.5-0.8-0.7-1.6-0.7-2.6c0-0.9,0.2-1.8,0.7-2.6
			c0.5-0.8,1.1-1.4,1.9-1.8c0.8-0.4,1.7-0.6,2.6-0.6c0.9,0,1.8,0.2,2.6,0.6c0.8,0.4,1.4,1,1.8,1.8c0.4,0.8,0.7,1.6,0.7,2.7
			C131,374.1,131,374.3,130.9,374.8z M124.4,371.7c-0.4,0.4-0.7,0.9-0.8,1.5h4.8c-0.1-0.6-0.4-1.1-0.8-1.5c-0.4-0.4-1-0.5-1.6-0.5
			C125.3,371.1,124.8,371.3,124.4,371.7z"/>
		<path d="M136.9,369.4c0.6-0.2,1.2-0.4,2-0.4v2.6c-0.3,0-0.5,0-0.6,0c-0.8,0-1.4,0.2-1.9,0.7c-0.5,0.4-0.7,1.1-0.7,2v4.6h-2.8v-9.7
			h2.7v1.3C135.9,369.9,136.3,369.6,136.9,369.4z"/>
		<path d="M147.9,370.1c0.8,0.7,1.2,1.8,1.2,3.2v5.5h-2.6v-1.2c-0.5,0.9-1.5,1.3-3,1.3c-0.7,0-1.4-0.1-1.9-0.4s-1-0.6-1.3-1
			c-0.3-0.4-0.4-0.9-0.4-1.5c0-0.9,0.3-1.6,1-2.1c0.7-0.5,1.7-0.8,3.1-0.8h2.2c0-0.6-0.2-1.1-0.6-1.4c-0.4-0.3-0.9-0.5-1.7-0.5
			c-0.5,0-1,0.1-1.5,0.2c-0.5,0.2-0.9,0.4-1.3,0.7l-1-2c0.5-0.4,1.2-0.7,1.9-0.9c0.7-0.2,1.5-0.3,2.3-0.3
			C145.9,369,147.1,369.4,147.9,370.1z M145.5,376.7c0.4-0.2,0.6-0.5,0.8-1v-1h-1.9c-1.2,0-1.7,0.4-1.7,1.1c0,0.4,0.1,0.6,0.4,0.9
			c0.3,0.2,0.7,0.3,1.2,0.3C144.7,377.1,145.1,377,145.5,376.7z"/>
		<path d="M157.8,378.4c-0.3,0.2-0.6,0.4-1,0.5c-0.4,0.1-0.8,0.2-1.3,0.2c-1.2,0-2-0.3-2.7-0.9s-0.9-1.5-0.9-2.6v-4h-1.5v-2.2h1.5
			V367h2.8v2.4h2.4v2.2h-2.4v3.9c0,0.4,0.1,0.7,0.3,0.9c0.2,0.2,0.5,0.3,0.9,0.3c0.4,0,0.8-0.1,1.1-0.4L157.8,378.4z"/>
		<path d="M168.6,374.8h-7.3c0.1,0.6,0.4,1.1,0.9,1.4s1.1,0.5,1.8,0.5c0.5,0,1-0.1,1.3-0.2c0.4-0.1,0.8-0.4,1.1-0.7l1.5,1.6
			c-0.9,1-2.2,1.6-4,1.6c-1.1,0-2.1-0.2-2.9-0.6s-1.5-1-1.9-1.8c-0.5-0.8-0.7-1.6-0.7-2.6c0-0.9,0.2-1.8,0.7-2.6
			c0.5-0.8,1.1-1.4,1.9-1.8c0.8-0.4,1.7-0.6,2.6-0.6c0.9,0,1.8,0.2,2.6,0.6c0.8,0.4,1.4,1,1.8,1.8c0.4,0.8,0.7,1.6,0.7,2.7
			C168.6,374.1,168.6,374.3,168.6,374.8z M162,371.7c-0.4,0.4-0.7,0.9-0.8,1.5h4.8c-0.1-0.6-0.4-1.1-0.8-1.5c-0.4-0.4-1-0.5-1.6-0.5
			C163,371.1,162.4,371.3,162,371.7z"/>
		<path d="M186.7,373.4c0.4,0.5,0.6,1.2,0.6,2c0,1.1-0.4,2-1.3,2.5c-0.9,0.6-2.1,0.9-3.8,0.9h-6.5v-12.6h6.2c1.5,0,2.7,0.3,3.5,0.9
			s1.2,1.4,1.2,2.4c0,0.6-0.1,1.2-0.4,1.6c-0.3,0.5-0.7,0.9-1.2,1.1C185.7,372.5,186.3,372.9,186.7,373.4z M178.7,368.4v3h2.9
			c0.7,0,1.3-0.1,1.6-0.4c0.4-0.3,0.6-0.6,0.6-1.1s-0.2-0.9-0.6-1.1s-0.9-0.4-1.6-0.4H178.7z M183.8,376.2c0.4-0.3,0.6-0.6,0.6-1.2
			c0-1-0.8-1.6-2.3-1.6h-3.4v3.1h3.4C182.8,376.6,183.4,376.5,183.8,376.2z"/>
		<path d="M193.4,369.4c0.6-0.2,1.2-0.4,2-0.4v2.6c-0.3,0-0.5,0-0.6,0c-0.8,0-1.4,0.2-1.9,0.7c-0.5,0.4-0.7,1.1-0.7,2v4.6h-2.8v-9.7
			h2.7v1.3C192.4,369.9,192.8,369.6,193.4,369.4z"/>
		<path d="M204.3,370.1c0.8,0.7,1.2,1.8,1.2,3.2v5.5h-2.6v-1.2c-0.5,0.9-1.5,1.3-3,1.3c-0.7,0-1.4-0.1-1.9-0.4c-0.5-0.3-1-0.6-1.3-1
			c-0.3-0.4-0.4-0.9-0.4-1.5c0-0.9,0.3-1.6,1-2.1c0.7-0.5,1.7-0.8,3.1-0.8h2.2c0-0.6-0.2-1.1-0.6-1.4s-0.9-0.5-1.7-0.5
			c-0.5,0-1,0.1-1.5,0.2c-0.5,0.2-0.9,0.4-1.3,0.7l-1-2c0.5-0.4,1.2-0.7,1.9-0.9c0.7-0.2,1.5-0.3,2.3-0.3
			C202.4,369,203.5,369.4,204.3,370.1z M201.9,376.7c0.4-0.2,0.6-0.5,0.8-1v-1h-1.9c-1.2,0-1.7,0.4-1.7,1.1c0,0.4,0.1,0.6,0.4,0.9
			s0.7,0.3,1.2,0.3C201.1,377.1,201.6,377,201.9,376.7z"/>
		<path d="M216.9,370.1c0.7,0.7,1.1,1.8,1.1,3.2v5.5h-2.8v-5.1c0-0.8-0.2-1.3-0.5-1.7s-0.8-0.6-1.5-0.6c-0.7,0-1.3,0.2-1.7,0.7
			c-0.4,0.4-0.6,1.1-0.6,2v4.8h-2.8v-9.7h2.7v1.1c0.4-0.4,0.8-0.7,1.4-0.9c0.6-0.2,1.2-0.3,1.8-0.3
			C215.2,369,216.1,369.4,216.9,370.1z"/>
		<path d="M230.5,365.5v13.4h-2.7v-1.1c-0.7,0.8-1.7,1.3-3,1.3c-0.9,0-1.7-0.2-2.5-0.6c-0.7-0.4-1.3-1-1.7-1.7
			c-0.4-0.8-0.6-1.6-0.6-2.6s0.2-1.9,0.6-2.6c0.4-0.8,1-1.3,1.7-1.7c0.7-0.4,1.6-0.6,2.5-0.6c1.2,0,2.2,0.4,2.9,1.2v-4.7H230.5z
			 M227,375.9c0.5-0.5,0.7-1.1,0.7-2s-0.2-1.5-0.7-2c-0.5-0.5-1.1-0.7-1.8-0.7c-0.7,0-1.3,0.2-1.8,0.7c-0.5,0.5-0.7,1.1-0.7,2
			s0.2,1.5,0.7,2c0.5,0.5,1.1,0.7,1.8,0.7C226,376.7,226.6,376.4,227,375.9z"/>
		<path d="M233.2,367.3c-0.3-0.3-0.5-0.7-0.5-1.1c0-0.4,0.2-0.8,0.5-1.1s0.7-0.5,1.3-0.5s0.9,0.1,1.3,0.4c0.3,0.3,0.5,0.6,0.5,1.1
			c0,0.5-0.2,0.9-0.5,1.2c-0.3,0.3-0.7,0.5-1.3,0.5S233.6,367.6,233.2,367.3z M233.1,369.1h2.8v9.7h-2.8V369.1z"/>
		<path d="M247.3,370.1c0.7,0.7,1.1,1.8,1.1,3.2v5.5h-2.8v-5.1c0-0.8-0.2-1.3-0.5-1.7s-0.8-0.6-1.5-0.6c-0.7,0-1.3,0.2-1.7,0.7
			c-0.4,0.4-0.6,1.1-0.6,2v4.8h-2.8v-9.7h2.7v1.1c0.4-0.4,0.8-0.7,1.4-0.9c0.6-0.2,1.2-0.3,1.8-0.3
			C245.6,369,246.6,369.4,247.3,370.1z"/>
		<path d="M261,369.1v8.1c0,1.8-0.5,3.1-1.4,4c-0.9,0.9-2.3,1.3-4,1.3c-0.9,0-1.8-0.1-2.7-0.3c-0.8-0.2-1.5-0.6-2.1-1l1.1-2
			c0.4,0.3,0.9,0.6,1.5,0.8c0.6,0.2,1.2,0.3,1.9,0.3c1,0,1.7-0.2,2.2-0.7c0.5-0.4,0.7-1.1,0.7-2v-0.4c-0.7,0.8-1.8,1.2-3.1,1.2
			c-0.9,0-1.7-0.2-2.4-0.6c-0.7-0.4-1.3-0.9-1.8-1.6c-0.4-0.7-0.6-1.5-0.6-2.4c0-0.9,0.2-1.7,0.6-2.4c0.4-0.7,1-1.3,1.8-1.6
			c0.7-0.4,1.6-0.6,2.4-0.6c1.4,0,2.5,0.5,3.2,1.4v-1.2H261z M257.6,375.4c0.5-0.4,0.7-1,0.7-1.7c0-0.7-0.2-1.3-0.7-1.7
			c-0.5-0.4-1.1-0.7-1.8-0.7c-0.7,0-1.4,0.2-1.8,0.7c-0.5,0.4-0.7,1-0.7,1.7c0,0.7,0.2,1.3,0.7,1.7c0.5,0.4,1.1,0.7,1.8,0.7
			C256.5,376,257.1,375.8,257.6,375.4z"/>
		<path d="M270.6,378.3c-0.8-0.4-1.5-1-1.9-1.8c-0.5-0.8-0.7-1.6-0.7-2.6s0.2-1.8,0.7-2.6s1.1-1.3,1.9-1.8c0.8-0.4,1.7-0.6,2.8-0.6
			c1,0,1.9,0.2,2.7,0.6c0.8,0.4,1.3,1,1.7,1.8l-2.2,1.2c-0.5-0.9-1.2-1.3-2.2-1.3c-0.7,0-1.3,0.2-1.8,0.7c-0.5,0.5-0.7,1.1-0.7,2
			s0.2,1.5,0.7,2c0.5,0.5,1.1,0.7,1.8,0.7c1,0,1.7-0.4,2.2-1.3l2.2,1.2c-0.3,0.8-0.9,1.4-1.7,1.8c-0.8,0.4-1.7,0.6-2.7,0.6
			C272.4,379,271.5,378.8,270.6,378.3z"/>
		<path d="M286.7,370.1c0.8,0.7,1.2,1.8,1.2,3.2v5.5h-2.6v-1.2c-0.5,0.9-1.5,1.3-3,1.3c-0.7,0-1.4-0.1-1.9-0.4s-1-0.6-1.3-1
			c-0.3-0.4-0.4-0.9-0.4-1.5c0-0.9,0.3-1.6,1-2.1c0.7-0.5,1.7-0.8,3.1-0.8h2.2c0-0.6-0.2-1.1-0.6-1.4c-0.4-0.3-0.9-0.5-1.7-0.5
			c-0.5,0-1,0.1-1.5,0.2c-0.5,0.2-0.9,0.4-1.3,0.7l-1-2c0.5-0.4,1.2-0.7,1.9-0.9c0.7-0.2,1.5-0.3,2.3-0.3
			C284.8,369,285.9,369.4,286.7,370.1z M284.3,376.7c0.4-0.2,0.6-0.5,0.8-1v-1h-1.9c-1.2,0-1.7,0.4-1.7,1.1c0,0.4,0.1,0.6,0.4,0.9
			c0.3,0.2,0.7,0.3,1.2,0.3C283.6,377.1,284,377,284.3,376.7z"/>
		<path d="M305.8,370.1c0.7,0.7,1.1,1.8,1.1,3.2v5.5H304v-5.1c0-0.8-0.2-1.3-0.5-1.7s-0.8-0.6-1.4-0.6c-0.7,0-1.2,0.2-1.6,0.6
			s-0.6,1.1-0.6,1.9v4.9h-2.8v-5.1c0-1.5-0.6-2.3-1.8-2.3c-0.6,0-1.2,0.2-1.5,0.6c-0.4,0.4-0.6,1.1-0.6,1.9v4.9h-2.8v-9.7h2.7v1.1
			c0.4-0.4,0.8-0.7,1.3-0.9c0.5-0.2,1.1-0.3,1.7-0.3c0.7,0,1.3,0.1,1.9,0.4c0.6,0.3,1,0.7,1.3,1.2c0.4-0.5,0.9-0.9,1.5-1.2
			c0.6-0.3,1.3-0.4,2-0.4C304.1,369,305.1,369.4,305.8,370.1z"/>
		<path d="M317.6,369.6c0.7,0.4,1.3,1,1.7,1.7s0.6,1.6,0.6,2.6s-0.2,1.9-0.6,2.6s-1,1.3-1.7,1.7c-0.7,0.4-1.6,0.6-2.5,0.6
			c-1.2,0-2.2-0.4-2.9-1.2v4.5h-2.8v-13.2h2.7v1.1c0.7-0.8,1.7-1.3,3-1.3C316,369,316.8,369.2,317.6,369.6z M316.4,375.9
			c0.5-0.5,0.7-1.1,0.7-2s-0.2-1.5-0.7-2c-0.5-0.5-1.1-0.7-1.8-0.7s-1.3,0.2-1.8,0.7c-0.5,0.5-0.7,1.1-0.7,2s0.2,1.5,0.7,2
			c0.5,0.5,1.1,0.7,1.8,0.7S315.9,376.4,316.4,375.9z"/>
		<path d="M329,370.1c0.8,0.7,1.2,1.8,1.2,3.2v5.5h-2.6v-1.2c-0.5,0.9-1.5,1.3-3,1.3c-0.7,0-1.4-0.1-1.9-0.4s-1-0.6-1.3-1
			c-0.3-0.4-0.4-0.9-0.4-1.5c0-0.9,0.3-1.6,1-2.1c0.7-0.5,1.7-0.8,3.1-0.8h2.2c0-0.6-0.2-1.1-0.6-1.4c-0.4-0.3-0.9-0.5-1.7-0.5
			c-0.5,0-1,0.1-1.5,0.2c-0.5,0.2-0.9,0.4-1.3,0.7l-1-2c0.5-0.4,1.2-0.7,1.9-0.9c0.7-0.2,1.5-0.3,2.3-0.3
			C327,369,328.2,369.4,329,370.1z M326.6,376.7c0.4-0.2,0.6-0.5,0.8-1v-1h-1.9c-1.2,0-1.7,0.4-1.7,1.1c0,0.4,0.1,0.6,0.4,0.9
			s0.7,0.3,1.2,0.3C325.8,377.1,326.2,377,326.6,376.7z"/>
		<path d="M332.9,367.3c-0.3-0.3-0.5-0.7-0.5-1.1c0-0.4,0.2-0.8,0.5-1.1c0.3-0.3,0.7-0.5,1.3-0.5c0.5,0,0.9,0.1,1.3,0.4
			s0.5,0.6,0.5,1.1c0,0.5-0.2,0.9-0.5,1.2c-0.3,0.3-0.7,0.5-1.3,0.5C333.6,367.8,333.2,367.6,332.9,367.3z M332.7,369.1h2.8v9.7
			h-2.8V369.1z"/>
		<path d="M348.1,369.1v8.1c0,1.8-0.5,3.1-1.4,4c-0.9,0.9-2.3,1.3-4.1,1.3c-0.9,0-1.8-0.1-2.7-0.3c-0.8-0.2-1.5-0.6-2.1-1l1.1-2
			c0.4,0.3,0.9,0.6,1.5,0.8s1.2,0.3,1.9,0.3c1,0,1.7-0.2,2.2-0.7c0.5-0.4,0.7-1.1,0.7-2v-0.4c-0.7,0.8-1.8,1.2-3.1,1.2
			c-0.9,0-1.7-0.2-2.4-0.6c-0.7-0.4-1.3-0.9-1.8-1.6c-0.4-0.7-0.6-1.5-0.6-2.4c0-0.9,0.2-1.7,0.6-2.4c0.4-0.7,1-1.3,1.8-1.6
			c0.7-0.4,1.6-0.6,2.4-0.6c1.4,0,2.5,0.5,3.2,1.4v-1.2H348.1z M344.7,375.4c0.5-0.4,0.7-1,0.7-1.7c0-0.7-0.2-1.3-0.7-1.7
			c-0.5-0.4-1.1-0.7-1.8-0.7s-1.4,0.2-1.8,0.7c-0.5,0.4-0.7,1-0.7,1.7c0,0.7,0.2,1.3,0.7,1.7c0.5,0.4,1.1,0.7,1.8,0.7
			S344.2,375.8,344.7,375.4z"/>
		<path d="M359.5,370.1c0.7,0.7,1.1,1.8,1.1,3.2v5.5h-2.8v-5.1c0-0.8-0.2-1.3-0.5-1.7s-0.8-0.6-1.5-0.6c-0.7,0-1.3,0.2-1.7,0.7
			c-0.4,0.4-0.6,1.1-0.6,2v4.8h-2.8v-9.7h2.7v1.1c0.4-0.4,0.8-0.7,1.4-0.9c0.6-0.2,1.2-0.3,1.8-0.3
			C357.8,369,358.8,369.4,359.5,370.1z"/>
		<path d="M364.1,378.7c-0.8-0.2-1.4-0.4-1.8-0.7l0.9-2c0.4,0.3,1,0.5,1.6,0.7c0.6,0.2,1.2,0.3,1.8,0.3c1.2,0,1.8-0.3,1.8-0.9
			c0-0.3-0.2-0.5-0.5-0.6s-0.8-0.2-1.5-0.3c-0.8-0.1-1.4-0.3-2-0.4s-1-0.4-1.3-0.8c-0.4-0.4-0.6-1-0.6-1.7c0-0.6,0.2-1.2,0.5-1.6
			c0.4-0.5,0.9-0.8,1.5-1.1c0.7-0.3,1.5-0.4,2.4-0.4c0.7,0,1.4,0.1,2,0.2c0.7,0.1,1.2,0.4,1.7,0.6l-0.9,2c-0.9-0.5-1.8-0.7-2.8-0.7
			c-0.6,0-1.1,0.1-1.4,0.3s-0.4,0.4-0.4,0.6c0,0.3,0.2,0.5,0.5,0.6c0.3,0.1,0.8,0.2,1.5,0.3c0.8,0.1,1.4,0.3,1.9,0.4
			c0.5,0.2,0.9,0.4,1.3,0.8c0.4,0.4,0.6,0.9,0.6,1.7c0,0.6-0.2,1.1-0.5,1.6s-0.9,0.8-1.6,1.1c-0.7,0.3-1.5,0.4-2.5,0.4
			C365.6,379,364.9,378.9,364.1,378.7z"/>
		<path d="M38.6,408.1c-0.3-0.3-0.5-0.8-0.5-1.3c0-0.5,0.2-0.9,0.5-1.3c0.3-0.3,0.7-0.5,1.2-0.5s0.9,0.2,1.2,0.5
			c0.3,0.3,0.5,0.7,0.5,1.3c0,0.5-0.2,0.9-0.5,1.3c-0.3,0.3-0.8,0.5-1.2,0.5S39,408.4,38.6,408.1z"/>
		<path d="M67.8,395.8l-4.1,12.6h-3.1l-2.8-8.5l-2.9,8.5h-3.1l-4.1-12.6h3l2.8,8.9l3-8.9h2.7l2.9,8.9l2.9-8.9H67.8z"/>
		<path d="M78,404.4h-7.3c0.1,0.6,0.4,1.1,0.9,1.4s1.1,0.5,1.8,0.5c0.5,0,1-0.1,1.3-0.2c0.4-0.1,0.8-0.4,1.1-0.7l1.5,1.6
			c-0.9,1-2.2,1.6-4,1.6c-1.1,0-2.1-0.2-2.9-0.6c-0.8-0.4-1.5-1-1.9-1.8c-0.5-0.8-0.7-1.6-0.7-2.6c0-0.9,0.2-1.8,0.7-2.6
			c0.5-0.8,1.1-1.4,1.9-1.8c0.8-0.4,1.7-0.6,2.6-0.6c0.9,0,1.8,0.2,2.6,0.6c0.8,0.4,1.4,1,1.8,1.8c0.4,0.8,0.7,1.6,0.7,2.7
			C78,403.7,78,403.9,78,404.4z M71.4,401.3c-0.4,0.4-0.7,0.9-0.8,1.5h4.8c-0.1-0.6-0.4-1.1-0.8-1.5c-0.4-0.4-1-0.5-1.6-0.5
			C72.4,400.7,71.8,400.9,71.4,401.3z"/>
		<path d="M94.9,395.1v13.4h-2.7v-1.1c-0.7,0.8-1.7,1.3-3,1.3c-0.9,0-1.7-0.2-2.5-0.6c-0.7-0.4-1.3-1-1.7-1.7s-0.6-1.6-0.6-2.6
			s0.2-1.9,0.6-2.6s1-1.3,1.7-1.7c0.7-0.4,1.6-0.6,2.5-0.6c1.2,0,2.2,0.4,2.9,1.2v-4.7H94.9z M91.4,405.5c0.5-0.5,0.7-1.1,0.7-2
			s-0.2-1.5-0.7-2s-1.1-0.7-1.8-0.7c-0.7,0-1.3,0.2-1.8,0.7s-0.7,1.1-0.7,2s0.2,1.5,0.7,2c0.5,0.5,1.1,0.7,1.8,0.7
			C90.4,406.3,90.9,406,91.4,405.5z"/>
		<path d="M106.9,404.4h-7.3c0.1,0.6,0.4,1.1,0.9,1.4s1.1,0.5,1.8,0.5c0.5,0,1-0.1,1.3-0.2c0.4-0.1,0.8-0.4,1.1-0.7l1.5,1.6
			c-0.9,1-2.2,1.6-4,1.6c-1.1,0-2.1-0.2-2.9-0.6c-0.8-0.4-1.5-1-1.9-1.8c-0.5-0.8-0.7-1.6-0.7-2.6c0-0.9,0.2-1.8,0.7-2.6
			c0.5-0.8,1.1-1.4,1.9-1.8c0.8-0.4,1.7-0.6,2.6-0.6c0.9,0,1.8,0.2,2.6,0.6c0.8,0.4,1.4,1,1.8,1.8c0.4,0.8,0.7,1.6,0.7,2.7
			C106.9,403.7,106.9,403.9,106.9,404.4z M100.3,401.3c-0.4,0.4-0.7,0.9-0.8,1.5h4.8c-0.1-0.6-0.4-1.1-0.8-1.5
			c-0.4-0.4-1-0.5-1.6-0.5C101.3,400.7,100.8,400.9,100.3,401.3z"/>
		<path d="M118.2,398.7l-4.1,9.7h-2.9l-4.1-9.7h2.9l2.7,6.6l2.8-6.6H118.2z"/>
		<path d="M128.6,404.4h-7.3c0.1,0.6,0.4,1.1,0.9,1.4s1.1,0.5,1.8,0.5c0.5,0,1-0.1,1.3-0.2c0.4-0.1,0.8-0.4,1.1-0.7l1.5,1.6
			c-0.9,1-2.2,1.6-4,1.6c-1.1,0-2.1-0.2-2.9-0.6s-1.5-1-1.9-1.8c-0.5-0.8-0.7-1.6-0.7-2.6c0-0.9,0.2-1.8,0.7-2.6
			c0.5-0.8,1.1-1.4,1.9-1.8c0.8-0.4,1.7-0.6,2.6-0.6c0.9,0,1.8,0.2,2.6,0.6c0.8,0.4,1.4,1,1.8,1.8c0.4,0.8,0.7,1.6,0.7,2.7
			C128.6,403.7,128.6,403.9,128.6,404.4z M122,401.3c-0.4,0.4-0.7,0.9-0.8,1.5h4.8c-0.1-0.6-0.4-1.1-0.8-1.5c-0.4-0.4-1-0.5-1.6-0.5
			C123,400.7,122.4,400.9,122,401.3z"/>
		<path d="M130.5,395.1h2.8v13.4h-2.8V395.1z"/>
		<path d="M137.8,407.9c-0.8-0.4-1.4-1-1.9-1.8c-0.5-0.8-0.7-1.6-0.7-2.6s0.2-1.8,0.7-2.6s1.1-1.3,1.9-1.8c0.8-0.4,1.7-0.6,2.7-0.6
			c1,0,1.9,0.2,2.7,0.6c0.8,0.4,1.4,1,1.9,1.8s0.7,1.6,0.7,2.6s-0.2,1.8-0.7,2.6c-0.5,0.8-1.1,1.3-1.9,1.8s-1.7,0.6-2.7,0.6
			C139.5,408.6,138.6,408.4,137.8,407.9z M142.3,405.5c0.5-0.5,0.7-1.1,0.7-2s-0.2-1.5-0.7-2s-1.1-0.7-1.8-0.7
			c-0.7,0-1.3,0.2-1.8,0.7c-0.5,0.5-0.7,1.1-0.7,2s0.2,1.5,0.7,2c0.5,0.5,1.1,0.7,1.8,0.7C141.2,406.3,141.8,406,142.3,405.5z"/>
		<path d="M155.9,399.2c0.7,0.4,1.3,1,1.7,1.7s0.6,1.6,0.6,2.6s-0.2,1.9-0.6,2.6s-1,1.3-1.7,1.7c-0.7,0.4-1.6,0.6-2.5,0.6
			c-1.2,0-2.2-0.4-2.9-1.2v4.5h-2.8v-13.2h2.7v1.1c0.7-0.8,1.7-1.3,3-1.3C154.3,398.6,155.1,398.8,155.9,399.2z M154.7,405.5
			c0.5-0.5,0.7-1.1,0.7-2s-0.2-1.5-0.7-2s-1.1-0.7-1.8-0.7c-0.7,0-1.3,0.2-1.8,0.7s-0.7,1.1-0.7,2s0.2,1.5,0.7,2
			c0.5,0.5,1.1,0.7,1.8,0.7C153.7,406.3,154.2,406,154.7,405.5z"/>
		<path d="M173.8,396.4c0.8,0.4,1.5,0.9,1.9,1.6c0.4,0.7,0.7,1.5,0.7,2.4c0,0.9-0.2,1.7-0.7,2.4c-0.4,0.7-1.1,1.2-1.9,1.6
			c-0.8,0.4-1.8,0.5-2.9,0.5h-2.5v3.5h-2.9v-12.6h5.5C172,395.8,172.9,396,173.8,396.4z M172.7,402c0.5-0.4,0.7-0.9,0.7-1.6
			c0-0.7-0.2-1.3-0.7-1.6c-0.5-0.4-1.1-0.6-2-0.6h-2.4v4.4h2.4C171.6,402.6,172.2,402.4,172.7,402z"/>
		<path d="M187.6,404.4h-7.3c0.1,0.6,0.4,1.1,0.9,1.4s1.1,0.5,1.8,0.5c0.5,0,1-0.1,1.3-0.2c0.4-0.1,0.8-0.4,1.1-0.7l1.5,1.6
			c-0.9,1-2.2,1.6-4,1.6c-1.1,0-2.1-0.2-2.9-0.6s-1.5-1-1.9-1.8c-0.5-0.8-0.7-1.6-0.7-2.6c0-0.9,0.2-1.8,0.7-2.6
			c0.5-0.8,1.1-1.4,1.9-1.8c0.8-0.4,1.7-0.6,2.6-0.6c0.9,0,1.8,0.2,2.6,0.6c0.8,0.4,1.4,1,1.8,1.8c0.4,0.8,0.7,1.6,0.7,2.7
			C187.7,403.7,187.7,403.9,187.6,404.4z M181,401.3c-0.4,0.4-0.7,0.9-0.8,1.5h4.8c-0.1-0.6-0.4-1.1-0.8-1.5c-0.4-0.4-1-0.5-1.6-0.5
			C182,400.7,181.5,400.9,181,401.3z"/>
		<path d="M193.6,399c0.6-0.2,1.2-0.4,2-0.4v2.6c-0.3,0-0.5,0-0.6,0c-0.8,0-1.4,0.2-1.9,0.7c-0.5,0.4-0.7,1.1-0.7,2v4.6h-2.8v-9.7
			h2.7v1.3C192.6,399.5,193,399.2,193.6,399z"/>
		<path d="M200.4,399h2.5v2.2h-2.4v7.3h-2.8v-7.3h-1.5V399h1.5v-0.4c0-1.1,0.3-2,1-2.6c0.7-0.6,1.6-1,2.8-1c0.4,0,0.8,0,1.2,0.1
			s0.7,0.2,0.9,0.4l-0.7,2c-0.3-0.2-0.7-0.3-1.1-0.3c-0.9,0-1.3,0.5-1.3,1.4V399z"/>
		<path d="M206,407.9c-0.8-0.4-1.4-1-1.9-1.8c-0.5-0.8-0.7-1.6-0.7-2.6s0.2-1.8,0.7-2.6s1.1-1.3,1.9-1.8c0.8-0.4,1.7-0.6,2.7-0.6
			c1,0,1.9,0.2,2.7,0.6c0.8,0.4,1.4,1,1.9,1.8s0.7,1.6,0.7,2.6s-0.2,1.8-0.7,2.6c-0.5,0.8-1.1,1.3-1.9,1.8c-0.8,0.4-1.7,0.6-2.7,0.6
			C207.7,408.6,206.8,408.4,206,407.9z M210.5,405.5c0.5-0.5,0.7-1.1,0.7-2s-0.2-1.5-0.7-2s-1.1-0.7-1.8-0.7s-1.3,0.2-1.8,0.7
			s-0.7,1.1-0.7,2s0.2,1.5,0.7,2c0.5,0.5,1.1,0.7,1.8,0.7S210.1,406,210.5,405.5z"/>
		<path d="M220,399c0.6-0.2,1.2-0.4,2-0.4v2.6c-0.3,0-0.5,0-0.6,0c-0.8,0-1.4,0.2-1.9,0.7c-0.5,0.4-0.7,1.1-0.7,2v4.6h-2.8v-9.7h2.7
			v1.3C219,399.5,219.4,399.2,220,399z"/>
		<path d="M238.9,399.7c0.7,0.7,1.1,1.8,1.1,3.2v5.5h-2.8v-5.1c0-0.8-0.2-1.3-0.5-1.7s-0.8-0.6-1.4-0.6c-0.7,0-1.2,0.2-1.6,0.6
			s-0.6,1.1-0.6,1.9v4.9h-2.8v-5.1c0-1.5-0.6-2.3-1.8-2.3c-0.6,0-1.2,0.2-1.5,0.6c-0.4,0.4-0.6,1.1-0.6,1.9v4.9h-2.8v-9.7h2.7v1.1
			c0.4-0.4,0.8-0.7,1.3-0.9c0.5-0.2,1.1-0.3,1.7-0.3c0.7,0,1.3,0.1,1.9,0.4c0.6,0.3,1,0.7,1.3,1.2c0.4-0.5,0.9-0.9,1.5-1.2
			c0.6-0.3,1.3-0.4,2-0.4C237.2,398.6,238.2,399,238.9,399.7z"/>
		<path d="M249.9,399.7c0.8,0.7,1.2,1.8,1.2,3.2v5.5h-2.6v-1.2c-0.5,0.9-1.5,1.3-3,1.3c-0.7,0-1.4-0.1-1.9-0.4c-0.5-0.3-1-0.6-1.3-1
			c-0.3-0.4-0.4-0.9-0.4-1.5c0-0.9,0.3-1.6,1-2.1c0.7-0.5,1.7-0.8,3.1-0.8h2.2c0-0.6-0.2-1.1-0.6-1.4s-0.9-0.5-1.7-0.5
			c-0.5,0-1,0.1-1.5,0.2c-0.5,0.2-0.9,0.4-1.3,0.7l-1-2c0.5-0.4,1.2-0.7,1.9-0.9c0.7-0.2,1.5-0.3,2.3-0.3
			C247.9,398.6,249.1,399,249.9,399.7z M247.5,406.3c0.4-0.2,0.6-0.5,0.8-1v-1h-1.9c-1.2,0-1.7,0.4-1.7,1.1c0,0.4,0.1,0.6,0.4,0.9
			s0.7,0.3,1.2,0.3C246.7,406.7,247.1,406.6,247.5,406.3z"/>
		<path d="M262.4,399.7c0.7,0.7,1.1,1.8,1.1,3.2v5.5h-2.8v-5.1c0-0.8-0.2-1.3-0.5-1.7s-0.8-0.6-1.5-0.6c-0.7,0-1.3,0.2-1.7,0.7
			c-0.4,0.4-0.6,1.1-0.6,2v4.8h-2.8v-9.7h2.7v1.1c0.4-0.4,0.8-0.7,1.4-0.9c0.6-0.2,1.2-0.3,1.8-0.3
			C260.7,398.6,261.7,399,262.4,399.7z"/>
		<path d="M268,407.9c-0.8-0.4-1.5-1-1.9-1.8c-0.5-0.8-0.7-1.6-0.7-2.6s0.2-1.8,0.7-2.6s1.1-1.3,1.9-1.8c0.8-0.4,1.7-0.6,2.8-0.6
			c1,0,1.9,0.2,2.7,0.6c0.8,0.4,1.3,1,1.7,1.8l-2.2,1.2c-0.5-0.9-1.2-1.3-2.2-1.3c-0.7,0-1.3,0.2-1.8,0.7c-0.5,0.5-0.7,1.1-0.7,2
			s0.2,1.5,0.7,2c0.5,0.5,1.1,0.7,1.8,0.7c1,0,1.7-0.4,2.2-1.3l2.2,1.2c-0.3,0.8-0.9,1.4-1.7,1.8c-0.8,0.4-1.7,0.6-2.7,0.6
			C269.8,408.6,268.9,408.4,268,407.9z"/>
		<path d="M286.1,404.4h-7.3c0.1,0.6,0.4,1.1,0.9,1.4s1.1,0.5,1.8,0.5c0.5,0,1-0.1,1.3-0.2c0.4-0.1,0.8-0.4,1.1-0.7l1.5,1.6
			c-0.9,1-2.2,1.6-4,1.6c-1.1,0-2.1-0.2-2.9-0.6s-1.5-1-1.9-1.8c-0.5-0.8-0.7-1.6-0.7-2.6c0-0.9,0.2-1.8,0.7-2.6
			c0.5-0.8,1.1-1.4,1.9-1.8c0.8-0.4,1.7-0.6,2.6-0.6c0.9,0,1.8,0.2,2.6,0.6c0.8,0.4,1.4,1,1.8,1.8c0.4,0.8,0.7,1.6,0.7,2.7
			C286.1,403.7,286.1,403.9,286.1,404.4z M279.5,401.3c-0.4,0.4-0.7,0.9-0.8,1.5h4.8c-0.1-0.6-0.4-1.1-0.8-1.5
			c-0.4-0.4-1-0.5-1.6-0.5C280.5,400.7,280,400.9,279.5,401.3z"/>
		<path d="M295,407.9c-0.8-0.4-1.5-1-1.9-1.8c-0.5-0.8-0.7-1.6-0.7-2.6s0.2-1.8,0.7-2.6s1.1-1.3,1.9-1.8c0.8-0.4,1.7-0.6,2.8-0.6
			c1,0,1.9,0.2,2.7,0.6c0.8,0.4,1.3,1,1.7,1.8l-2.2,1.2c-0.5-0.9-1.2-1.3-2.2-1.3c-0.7,0-1.3,0.2-1.8,0.7c-0.5,0.5-0.7,1.1-0.7,2
			s0.2,1.5,0.7,2c0.5,0.5,1.1,0.7,1.8,0.7c1,0,1.7-0.4,2.2-1.3l2.2,1.2c-0.3,0.8-0.9,1.4-1.7,1.8c-0.8,0.4-1.7,0.6-2.7,0.6
			C296.8,408.6,295.8,408.4,295,407.9z"/>
		<path d="M311.1,399.7c0.8,0.7,1.2,1.8,1.2,3.2v5.5h-2.6v-1.2c-0.5,0.9-1.5,1.3-3,1.3c-0.7,0-1.4-0.1-1.9-0.4s-1-0.6-1.3-1
			c-0.3-0.4-0.4-0.9-0.4-1.5c0-0.9,0.3-1.6,1-2.1c0.7-0.5,1.7-0.8,3.1-0.8h2.2c0-0.6-0.2-1.1-0.6-1.4c-0.4-0.3-0.9-0.5-1.7-0.5
			c-0.5,0-1,0.1-1.5,0.2c-0.5,0.2-0.9,0.4-1.3,0.7l-1-2c0.5-0.4,1.2-0.7,1.9-0.9c0.7-0.2,1.5-0.3,2.3-0.3
			C309.2,398.6,310.3,399,311.1,399.7z M308.7,406.3c0.4-0.2,0.6-0.5,0.8-1v-1h-1.9c-1.2,0-1.7,0.4-1.7,1.1c0,0.4,0.1,0.6,0.4,0.9
			c0.3,0.2,0.7,0.3,1.2,0.3C307.9,406.7,308.3,406.6,308.7,406.3z"/>
		<path d="M330.1,399.7c0.7,0.7,1.1,1.8,1.1,3.2v5.5h-2.8v-5.1c0-0.8-0.2-1.3-0.5-1.7c-0.3-0.4-0.8-0.6-1.4-0.6
			c-0.7,0-1.2,0.2-1.6,0.6c-0.4,0.4-0.6,1.1-0.6,1.9v4.9h-2.8v-5.1c0-1.5-0.6-2.3-1.8-2.3c-0.6,0-1.2,0.2-1.5,0.6
			c-0.4,0.4-0.6,1.1-0.6,1.9v4.9h-2.8v-9.7h2.7v1.1c0.4-0.4,0.8-0.7,1.3-0.9c0.5-0.2,1.1-0.3,1.7-0.3c0.7,0,1.3,0.1,1.9,0.4
			c0.6,0.3,1,0.7,1.3,1.2c0.4-0.5,0.9-0.9,1.5-1.2c0.6-0.3,1.3-0.4,2-0.4C328.5,398.6,329.4,399,330.1,399.7z"/>
		<path d="M341.9,399.2c0.7,0.4,1.3,1,1.7,1.7s0.6,1.6,0.6,2.6s-0.2,1.9-0.6,2.6s-1,1.3-1.7,1.7c-0.7,0.4-1.6,0.6-2.5,0.6
			c-1.2,0-2.2-0.4-2.9-1.2v4.5h-2.8v-13.2h2.7v1.1c0.7-0.8,1.7-1.3,3-1.3C340.4,398.6,341.2,398.8,341.9,399.2z M340.8,405.5
			c0.5-0.5,0.7-1.1,0.7-2s-0.2-1.5-0.7-2s-1.1-0.7-1.8-0.7s-1.3,0.2-1.8,0.7s-0.7,1.1-0.7,2s0.2,1.5,0.7,2c0.5,0.5,1.1,0.7,1.8,0.7
			S340.3,406,340.8,405.5z"/>
		<path d="M353.4,399.7c0.8,0.7,1.2,1.8,1.2,3.2v5.5h-2.6v-1.2c-0.5,0.9-1.5,1.3-3,1.3c-0.7,0-1.4-0.1-1.9-0.4s-1-0.6-1.3-1
			c-0.3-0.4-0.4-0.9-0.4-1.5c0-0.9,0.3-1.6,1-2.1c0.7-0.5,1.7-0.8,3.1-0.8h2.2c0-0.6-0.2-1.1-0.6-1.4s-0.9-0.5-1.7-0.5
			c-0.5,0-1,0.1-1.5,0.2c-0.5,0.2-0.9,0.4-1.3,0.7l-1-2c0.5-0.4,1.2-0.7,1.9-0.9c0.7-0.2,1.5-0.3,2.3-0.3
			C351.4,398.6,352.6,399,353.4,399.7z M351,406.3c0.4-0.2,0.6-0.5,0.8-1v-1h-1.9c-1.2,0-1.7,0.4-1.7,1.1c0,0.4,0.1,0.6,0.4,0.9
			c0.3,0.2,0.7,0.3,1.2,0.3C350.2,406.7,350.6,406.6,351,406.3z"/>
		<path d="M357.2,396.9c-0.3-0.3-0.5-0.7-0.5-1.1c0-0.4,0.2-0.8,0.5-1.1c0.3-0.3,0.7-0.5,1.3-0.5c0.5,0,0.9,0.1,1.3,0.4
			s0.5,0.6,0.5,1.1c0,0.5-0.2,0.9-0.5,1.2c-0.3,0.3-0.7,0.5-1.3,0.5C358,397.4,357.6,397.2,357.2,396.9z M357.1,398.7h2.8v9.7h-2.8
			V398.7z"/>
		<path d="M372.5,398.7v8.1c0,1.8-0.5,3.1-1.4,4c-0.9,0.9-2.3,1.3-4.1,1.3c-0.9,0-1.8-0.1-2.7-0.3c-0.8-0.2-1.5-0.6-2.1-1l1.1-2
			c0.4,0.3,0.9,0.6,1.5,0.8s1.2,0.3,1.9,0.3c1,0,1.7-0.2,2.2-0.7c0.5-0.4,0.7-1.1,0.7-2v-0.4c-0.7,0.8-1.8,1.2-3.1,1.2
			c-0.9,0-1.7-0.2-2.4-0.6c-0.7-0.4-1.3-0.9-1.8-1.6c-0.4-0.7-0.6-1.5-0.6-2.4c0-0.9,0.2-1.7,0.6-2.4c0.4-0.7,1-1.3,1.8-1.6
			c0.7-0.4,1.6-0.6,2.4-0.6c1.4,0,2.5,0.5,3.2,1.4v-1.2H372.5z M369,405c0.5-0.4,0.7-1,0.7-1.7c0-0.7-0.2-1.3-0.7-1.7
			c-0.5-0.4-1.1-0.7-1.8-0.7s-1.4,0.2-1.8,0.7c-0.5,0.4-0.7,1-0.7,1.7c0,0.7,0.2,1.3,0.7,1.7c0.5,0.4,1.1,0.7,1.8,0.7
			S368.6,405.4,369,405z"/>
		<path d="M383.9,399.7c0.7,0.7,1.1,1.8,1.1,3.2v5.5h-2.8v-5.1c0-0.8-0.2-1.3-0.5-1.7s-0.8-0.6-1.5-0.6c-0.7,0-1.3,0.2-1.7,0.7
			c-0.4,0.4-0.6,1.1-0.6,2v4.8h-2.8v-9.7h2.7v1.1c0.4-0.4,0.8-0.7,1.4-0.9c0.6-0.2,1.2-0.3,1.8-0.3
			C382.2,398.6,383.2,399,383.9,399.7z"/>
		<path d="M388.5,408.3c-0.8-0.2-1.4-0.4-1.8-0.7l0.9-2c0.4,0.3,1,0.5,1.6,0.7c0.6,0.2,1.2,0.3,1.8,0.3c1.2,0,1.8-0.3,1.8-0.9
			c0-0.3-0.2-0.5-0.5-0.6s-0.8-0.2-1.5-0.3c-0.8-0.1-1.4-0.3-2-0.4s-1-0.4-1.3-0.8c-0.4-0.4-0.6-1-0.6-1.7c0-0.6,0.2-1.2,0.5-1.6
			c0.4-0.5,0.9-0.8,1.5-1.1c0.7-0.3,1.5-0.4,2.4-0.4c0.7,0,1.4,0.1,2,0.2c0.7,0.1,1.2,0.4,1.7,0.6l-0.9,2c-0.9-0.5-1.8-0.7-2.8-0.7
			c-0.6,0-1.1,0.1-1.4,0.3s-0.4,0.4-0.4,0.6c0,0.3,0.2,0.5,0.5,0.6c0.3,0.1,0.8,0.2,1.5,0.3c0.8,0.1,1.4,0.3,1.9,0.4
			c0.5,0.2,0.9,0.4,1.3,0.8c0.4,0.4,0.6,0.9,0.6,1.7c0,0.6-0.2,1.1-0.5,1.6s-0.9,0.8-1.6,1.1c-0.7,0.3-1.5,0.4-2.5,0.4
			C390,408.6,389.2,408.5,388.5,408.3z"/>
		<path d="M38.6,437.7c-0.3-0.3-0.5-0.8-0.5-1.3c0-0.5,0.2-0.9,0.5-1.3c0.3-0.3,0.7-0.5,1.2-0.5s0.9,0.2,1.2,0.5
			c0.3,0.3,0.5,0.7,0.5,1.3c0,0.5-0.2,0.9-0.5,1.3c-0.3,0.3-0.8,0.5-1.2,0.5S39,438,38.6,437.7z"/>
		<path d="M67.8,425.4L63.7,438h-3.1l-2.8-8.5L55,438h-3.1l-4.1-12.6h3l2.8,8.9l3-8.9h2.7l2.9,8.9l2.9-8.9H67.8z"/>
		<path d="M78,434h-7.3c0.1,0.6,0.4,1.1,0.9,1.4s1.1,0.5,1.8,0.5c0.5,0,1-0.1,1.3-0.2c0.4-0.1,0.8-0.4,1.1-0.7l1.5,1.6
			c-0.9,1-2.2,1.6-4,1.6c-1.1,0-2.1-0.2-2.9-0.6c-0.8-0.4-1.5-1-1.9-1.8c-0.5-0.8-0.7-1.6-0.7-2.6c0-0.9,0.2-1.8,0.7-2.6
			c0.5-0.8,1.1-1.4,1.9-1.8c0.8-0.4,1.7-0.6,2.6-0.6c0.9,0,1.8,0.2,2.6,0.6c0.8,0.4,1.4,1,1.8,1.8c0.4,0.8,0.7,1.6,0.7,2.7
			C78,433.3,78,433.5,78,434z M71.4,430.9c-0.4,0.4-0.7,0.9-0.8,1.5h4.8c-0.1-0.6-0.4-1.1-0.8-1.5c-0.4-0.4-1-0.5-1.6-0.5
			C72.4,430.3,71.8,430.5,71.4,430.9z"/>
		<path d="M86.9,437.5c-0.8-0.4-1.5-1-1.9-1.8c-0.5-0.8-0.7-1.6-0.7-2.6s0.2-1.8,0.7-2.6s1.1-1.3,1.9-1.8c0.8-0.4,1.7-0.6,2.8-0.6
			c1,0,1.9,0.2,2.7,0.6c0.8,0.4,1.3,1,1.7,1.8l-2.2,1.2c-0.5-0.9-1.2-1.3-2.2-1.3c-0.7,0-1.3,0.2-1.8,0.7c-0.5,0.5-0.7,1.1-0.7,2
			s0.2,1.5,0.7,2c0.5,0.5,1.1,0.7,1.8,0.7c1,0,1.7-0.4,2.2-1.3l2.2,1.2c-0.3,0.8-0.9,1.4-1.7,1.8c-0.8,0.4-1.7,0.6-2.7,0.6
			C88.6,438.2,87.7,438,86.9,437.5z"/>
		<path d="M99.7,428.6c0.6-0.2,1.2-0.4,2-0.4v2.6c-0.3,0-0.5,0-0.6,0c-0.8,0-1.4,0.2-1.9,0.7c-0.5,0.4-0.7,1.1-0.7,2v4.6h-2.8v-9.7
			h2.7v1.3C98.7,429.1,99.1,428.8,99.7,428.6z"/>
		<path d="M112.7,434h-7.3c0.1,0.6,0.4,1.1,0.9,1.4s1.1,0.5,1.8,0.5c0.5,0,1-0.1,1.3-0.2c0.4-0.1,0.8-0.4,1.1-0.7l1.5,1.6
			c-0.9,1-2.2,1.6-4,1.6c-1.1,0-2.1-0.2-2.9-0.6s-1.5-1-1.9-1.8c-0.5-0.8-0.7-1.6-0.7-2.6c0-0.9,0.2-1.8,0.7-2.6
			c0.5-0.8,1.1-1.4,1.9-1.8c0.8-0.4,1.7-0.6,2.6-0.6c0.9,0,1.8,0.2,2.6,0.6c0.8,0.4,1.4,1,1.8,1.8c0.4,0.8,0.7,1.6,0.7,2.7
			C112.7,433.3,112.7,433.5,112.7,434z M106.1,430.9c-0.4,0.4-0.7,0.9-0.8,1.5h4.8c-0.1-0.6-0.4-1.1-0.8-1.5c-0.4-0.4-1-0.5-1.6-0.5
			C107.1,430.3,106.5,430.5,106.1,430.9z"/>
		<path d="M121.7,429.3c0.8,0.7,1.2,1.8,1.2,3.2v5.5h-2.6v-1.2c-0.5,0.9-1.5,1.3-3,1.3c-0.7,0-1.4-0.1-1.9-0.4c-0.5-0.3-1-0.6-1.3-1
			c-0.3-0.4-0.4-0.9-0.4-1.5c0-0.9,0.3-1.6,1-2.1c0.7-0.5,1.7-0.8,3.1-0.8h2.2c0-0.6-0.2-1.1-0.6-1.4s-0.9-0.5-1.7-0.5
			c-0.5,0-1,0.1-1.5,0.2c-0.5,0.2-0.9,0.4-1.3,0.7l-1-2c0.5-0.4,1.2-0.7,1.9-0.9c0.7-0.2,1.5-0.3,2.3-0.3
			C119.7,428.2,120.9,428.6,121.7,429.3z M119.3,435.9c0.4-0.2,0.6-0.5,0.8-1v-1h-1.9c-1.2,0-1.7,0.4-1.7,1.1c0,0.4,0.1,0.6,0.4,0.9
			s0.7,0.3,1.2,0.3C118.5,436.3,118.9,436.2,119.3,435.9z"/>
		<path d="M131.7,437.6c-0.3,0.2-0.6,0.4-1,0.5c-0.4,0.1-0.8,0.2-1.3,0.2c-1.2,0-2-0.3-2.7-0.9s-0.9-1.5-0.9-2.6v-4h-1.5v-2.2h1.5
			v-2.4h2.8v2.4h2.4v2.2h-2.4v3.9c0,0.4,0.1,0.7,0.3,0.9c0.2,0.2,0.5,0.3,0.9,0.3c0.4,0,0.8-0.1,1.1-0.4L131.7,437.6z"/>
		<path d="M142.4,434h-7.3c0.1,0.6,0.4,1.1,0.9,1.4s1.1,0.5,1.8,0.5c0.5,0,1-0.1,1.3-0.2c0.4-0.1,0.8-0.4,1.1-0.7l1.5,1.6
			c-0.9,1-2.2,1.6-4,1.6c-1.1,0-2.1-0.2-2.9-0.6c-0.8-0.4-1.5-1-1.9-1.8c-0.5-0.8-0.7-1.6-0.7-2.6c0-0.9,0.2-1.8,0.7-2.6
			c0.5-0.8,1.1-1.4,1.9-1.8c0.8-0.4,1.7-0.6,2.6-0.6c0.9,0,1.8,0.2,2.6,0.6c0.8,0.4,1.4,1,1.8,1.8c0.4,0.8,0.7,1.6,0.7,2.7
			C142.4,433.3,142.4,433.5,142.4,434z M135.8,430.9c-0.4,0.4-0.7,0.9-0.8,1.5h4.8c-0.1-0.6-0.4-1.1-0.8-1.5c-0.4-0.4-1-0.5-1.6-0.5
			C136.8,430.3,136.2,430.5,135.8,430.9z"/>
		<path d="M152.1,437.4c-1-0.6-1.9-1.3-2.4-2.3c-0.6-1-0.9-2.1-0.9-3.4s0.3-2.4,0.9-3.4c0.6-1,1.4-1.8,2.4-2.3
			c1-0.6,2.2-0.8,3.5-0.8c1.1,0,2.1,0.2,3,0.6c0.9,0.4,1.6,0.9,2.2,1.7l-1.9,1.7c-0.9-1-1.9-1.5-3.2-1.5c-0.8,0-1.5,0.2-2.1,0.5
			c-0.6,0.3-1.1,0.8-1.4,1.4c-0.3,0.6-0.5,1.3-0.5,2.1s0.2,1.5,0.5,2.1s0.8,1.1,1.4,1.4c0.6,0.3,1.3,0.5,2.1,0.5
			c1.3,0,2.3-0.5,3.2-1.5l1.9,1.7c-0.6,0.7-1.3,1.3-2.2,1.7s-1.9,0.6-3,0.6C154.3,438.2,153.2,438,152.1,437.4z"/>
		<path d="M164.1,437.5c-0.8-0.4-1.4-1-1.9-1.8c-0.5-0.8-0.7-1.6-0.7-2.6s0.2-1.8,0.7-2.6s1.1-1.3,1.9-1.8c0.8-0.4,1.7-0.6,2.7-0.6
			c1,0,1.9,0.2,2.7,0.6c0.8,0.4,1.4,1,1.9,1.8s0.7,1.6,0.7,2.6s-0.2,1.8-0.7,2.6c-0.5,0.8-1.1,1.3-1.9,1.8s-1.7,0.6-2.7,0.6
			C165.8,438.2,164.9,438,164.1,437.5z M168.6,435.1c0.5-0.5,0.7-1.1,0.7-2s-0.2-1.5-0.7-2s-1.1-0.7-1.8-0.7c-0.7,0-1.3,0.2-1.8,0.7
			c-0.5,0.5-0.7,1.1-0.7,2s0.2,1.5,0.7,2c0.5,0.5,1.1,0.7,1.8,0.7C167.6,435.9,168.2,435.6,168.6,435.1z"/>
		<path d="M182.8,429.3c0.7,0.7,1.1,1.8,1.1,3.2v5.5h-2.8v-5.1c0-0.8-0.2-1.3-0.5-1.7s-0.8-0.6-1.5-0.6c-0.7,0-1.3,0.2-1.7,0.7
			c-0.4,0.4-0.6,1.1-0.6,2v4.8H174v-9.7h2.7v1.1c0.4-0.4,0.8-0.7,1.4-0.9c0.6-0.2,1.2-0.3,1.8-0.3
			C181.1,428.2,182.1,428.6,182.8,429.3z"/>
		<path d="M195.9,428.3l-4.1,9.7h-2.9l-4.1-9.7h2.9l2.7,6.6l2.8-6.6H195.9z"/>
		<path d="M206.2,434h-7.3c0.1,0.6,0.4,1.1,0.9,1.4s1.1,0.5,1.8,0.5c0.5,0,1-0.1,1.3-0.2c0.4-0.1,0.8-0.4,1.1-0.7l1.5,1.6
			c-0.9,1-2.2,1.6-4,1.6c-1.1,0-2.1-0.2-2.9-0.6s-1.5-1-1.9-1.8c-0.5-0.8-0.7-1.6-0.7-2.6c0-0.9,0.2-1.8,0.7-2.6
			c0.5-0.8,1.1-1.4,1.9-1.8c0.8-0.4,1.7-0.6,2.6-0.6c0.9,0,1.8,0.2,2.6,0.6c0.8,0.4,1.4,1,1.8,1.8c0.4,0.8,0.7,1.6,0.7,2.7
			C206.3,433.3,206.3,433.5,206.2,434z M199.7,430.9c-0.4,0.4-0.7,0.9-0.8,1.5h4.8c-0.1-0.6-0.4-1.1-0.8-1.5c-0.4-0.4-1-0.5-1.6-0.5
			C200.6,430.3,200.1,430.5,199.7,430.9z"/>
		<path d="M212.2,428.6c0.6-0.2,1.2-0.4,2-0.4v2.6c-0.3,0-0.5,0-0.6,0c-0.8,0-1.4,0.2-1.9,0.7c-0.5,0.4-0.7,1.1-0.7,2v4.6h-2.8v-9.7
			h2.7v1.3C211.2,429.1,211.6,428.8,212.2,428.6z"/>
		<path d="M216.8,437.9c-0.8-0.2-1.4-0.4-1.8-0.7l0.9-2c0.4,0.3,1,0.5,1.6,0.7s1.2,0.3,1.8,0.3c1.2,0,1.8-0.3,1.8-0.9
			c0-0.3-0.2-0.5-0.5-0.6s-0.8-0.2-1.5-0.3c-0.8-0.1-1.4-0.3-2-0.4s-1-0.4-1.3-0.8c-0.4-0.4-0.6-1-0.6-1.7c0-0.6,0.2-1.2,0.5-1.6
			c0.4-0.5,0.9-0.8,1.5-1.1c0.7-0.3,1.5-0.4,2.4-0.4c0.7,0,1.4,0.1,2,0.2c0.7,0.1,1.2,0.4,1.7,0.6l-0.9,2c-0.9-0.5-1.8-0.7-2.8-0.7
			c-0.6,0-1,0.1-1.3,0.3c-0.3,0.2-0.5,0.4-0.5,0.6c0,0.3,0.2,0.5,0.5,0.6c0.3,0.1,0.8,0.2,1.5,0.3c0.8,0.1,1.4,0.3,1.9,0.4
			c0.5,0.2,0.9,0.4,1.3,0.8c0.4,0.4,0.6,0.9,0.6,1.7c0,0.6-0.2,1.1-0.5,1.6c-0.4,0.5-0.9,0.8-1.6,1.1c-0.7,0.3-1.5,0.4-2.5,0.4
			C218.3,438.2,217.5,438.1,216.8,437.9z"/>
		<path d="M225.6,426.5c-0.3-0.3-0.5-0.7-0.5-1.1c0-0.4,0.2-0.8,0.5-1.1s0.7-0.5,1.3-0.5s0.9,0.1,1.3,0.4c0.3,0.3,0.5,0.6,0.5,1.1
			c0,0.5-0.2,0.9-0.5,1.2c-0.3,0.3-0.7,0.5-1.3,0.5S225.9,426.8,225.6,426.5z M225.4,428.3h2.8v9.7h-2.8V428.3z"/>
		<path d="M232.7,437.5c-0.8-0.4-1.4-1-1.9-1.8c-0.5-0.8-0.7-1.6-0.7-2.6s0.2-1.8,0.7-2.6s1.1-1.3,1.9-1.8c0.8-0.4,1.7-0.6,2.7-0.6
			c1,0,1.9,0.2,2.7,0.6c0.8,0.4,1.4,1,1.9,1.8s0.7,1.6,0.7,2.6s-0.2,1.8-0.7,2.6c-0.5,0.8-1.1,1.3-1.9,1.8c-0.8,0.4-1.7,0.6-2.7,0.6
			C234.4,438.2,233.5,438,232.7,437.5z M237.2,435.1c0.5-0.5,0.7-1.1,0.7-2s-0.2-1.5-0.7-2s-1.1-0.7-1.8-0.7s-1.3,0.2-1.8,0.7
			s-0.7,1.1-0.7,2s0.2,1.5,0.7,2c0.5,0.5,1.1,0.7,1.8,0.7S236.8,435.6,237.2,435.1z"/>
		<path d="M251.4,429.3c0.7,0.7,1.1,1.8,1.1,3.2v5.5h-2.8v-5.1c0-0.8-0.2-1.3-0.5-1.7s-0.8-0.6-1.5-0.6c-0.7,0-1.3,0.2-1.7,0.7
			c-0.4,0.4-0.6,1.1-0.6,2v4.8h-2.8v-9.7h2.7v1.1c0.4-0.4,0.8-0.7,1.4-0.9c0.6-0.2,1.2-0.3,1.8-0.3
			C249.7,428.2,250.7,428.6,251.4,429.3z"/>
		<path d="M262.1,437.5c-0.8-0.4-1.5-1-1.9-1.8c-0.5-0.8-0.7-1.6-0.7-2.6s0.2-1.8,0.7-2.6s1.1-1.3,1.9-1.8c0.8-0.4,1.7-0.6,2.8-0.6
			c1,0,1.9,0.2,2.7,0.6c0.8,0.4,1.3,1,1.7,1.8l-2.2,1.2c-0.5-0.9-1.2-1.3-2.2-1.3c-0.7,0-1.3,0.2-1.8,0.7c-0.5,0.5-0.7,1.1-0.7,2
			s0.2,1.5,0.7,2c0.5,0.5,1.1,0.7,1.8,0.7c1,0,1.7-0.4,2.2-1.3l2.2,1.2c-0.3,0.8-0.9,1.4-1.7,1.8c-0.8,0.4-1.7,0.6-2.7,0.6
			C263.8,438.2,262.9,438,262.1,437.5z"/>
		<path d="M278.2,429.3c0.8,0.7,1.2,1.8,1.2,3.2v5.5h-2.6v-1.2c-0.5,0.9-1.5,1.3-3,1.3c-0.7,0-1.4-0.1-1.9-0.4c-0.5-0.3-1-0.6-1.3-1
			c-0.3-0.4-0.4-0.9-0.4-1.5c0-0.9,0.3-1.6,1-2.1c0.7-0.5,1.7-0.8,3.1-0.8h2.2c0-0.6-0.2-1.1-0.6-1.4s-0.9-0.5-1.7-0.5
			c-0.5,0-1,0.1-1.5,0.2c-0.5,0.2-0.9,0.4-1.3,0.7l-1-2c0.5-0.4,1.2-0.7,1.9-0.9c0.7-0.2,1.5-0.3,2.3-0.3
			C276.2,428.2,277.4,428.6,278.2,429.3z M275.8,435.9c0.4-0.2,0.6-0.5,0.8-1v-1h-1.9c-1.2,0-1.7,0.4-1.7,1.1c0,0.4,0.1,0.6,0.4,0.9
			s0.7,0.3,1.2,0.3C275,436.3,275.4,436.2,275.8,435.9z"/>
		<path d="M297.2,429.3c0.7,0.7,1.1,1.8,1.1,3.2v5.5h-2.8v-5.1c0-0.8-0.2-1.3-0.5-1.7s-0.8-0.6-1.4-0.6c-0.7,0-1.2,0.2-1.6,0.6
			s-0.6,1.1-0.6,1.9v4.9h-2.8v-5.1c0-1.5-0.6-2.3-1.8-2.3c-0.6,0-1.2,0.2-1.5,0.6c-0.4,0.4-0.6,1.1-0.6,1.9v4.9h-2.8v-9.7h2.7v1.1
			c0.4-0.4,0.8-0.7,1.3-0.9c0.5-0.2,1.1-0.3,1.7-0.3c0.7,0,1.3,0.1,1.9,0.4c0.6,0.3,1,0.7,1.3,1.2c0.4-0.5,0.9-0.9,1.5-1.2
			c0.6-0.3,1.3-0.4,2-0.4C295.5,428.2,296.5,428.6,297.2,429.3z"/>
		<path d="M309,428.8c0.7,0.4,1.3,1,1.7,1.7s0.6,1.6,0.6,2.6s-0.2,1.9-0.6,2.6s-1,1.3-1.7,1.7c-0.7,0.4-1.6,0.6-2.5,0.6
			c-1.2,0-2.2-0.4-2.9-1.2v4.5h-2.8v-13.2h2.7v1.1c0.7-0.8,1.7-1.3,3-1.3C307.4,428.2,308.2,428.4,309,428.8z M307.8,435.1
			c0.5-0.5,0.7-1.1,0.7-2s-0.2-1.5-0.7-2c-0.5-0.5-1.1-0.7-1.8-0.7s-1.3,0.2-1.8,0.7c-0.5,0.5-0.7,1.1-0.7,2s0.2,1.5,0.7,2
			c0.5,0.5,1.1,0.7,1.8,0.7S307.3,435.6,307.8,435.1z"/>
		<path d="M320.4,429.3c0.8,0.7,1.2,1.8,1.2,3.2v5.5H319v-1.2c-0.5,0.9-1.5,1.3-3,1.3c-0.7,0-1.4-0.1-1.9-0.4c-0.5-0.3-1-0.6-1.3-1
			c-0.3-0.4-0.4-0.9-0.4-1.5c0-0.9,0.3-1.6,1-2.1c0.7-0.5,1.7-0.8,3.1-0.8h2.2c0-0.6-0.2-1.1-0.6-1.4s-0.9-0.5-1.7-0.5
			c-0.5,0-1,0.1-1.5,0.2c-0.5,0.2-0.9,0.4-1.3,0.7l-1-2c0.5-0.4,1.2-0.7,1.9-0.9c0.7-0.2,1.5-0.3,2.3-0.3
			C318.5,428.2,319.6,428.6,320.4,429.3z M318,435.9c0.4-0.2,0.6-0.5,0.8-1v-1h-1.9c-1.2,0-1.7,0.4-1.7,1.1c0,0.4,0.1,0.6,0.4,0.9
			s0.7,0.3,1.2,0.3C317.2,436.3,317.7,436.2,318,435.9z"/>
		<path d="M324.3,426.5c-0.3-0.3-0.5-0.7-0.5-1.1c0-0.4,0.2-0.8,0.5-1.1c0.3-0.3,0.7-0.5,1.3-0.5c0.5,0,0.9,0.1,1.3,0.4
			s0.5,0.6,0.5,1.1c0,0.5-0.2,0.9-0.5,1.2c-0.3,0.3-0.7,0.5-1.3,0.5C325.1,427,324.6,426.8,324.3,426.5z M324.2,428.3h2.8v9.7h-2.8
			V428.3z"/>
		<path d="M339.6,428.3v8.1c0,1.8-0.5,3.1-1.4,4c-0.9,0.9-2.3,1.3-4.1,1.3c-0.9,0-1.8-0.1-2.7-0.3c-0.8-0.2-1.5-0.6-2.1-1l1.1-2
			c0.4,0.3,0.9,0.6,1.5,0.8s1.2,0.3,1.9,0.3c1,0,1.7-0.2,2.2-0.7c0.5-0.4,0.7-1.1,0.7-2v-0.4c-0.7,0.8-1.8,1.2-3.1,1.2
			c-0.9,0-1.7-0.2-2.4-0.6c-0.7-0.4-1.3-0.9-1.8-1.6c-0.4-0.7-0.6-1.5-0.6-2.4c0-0.9,0.2-1.7,0.6-2.4c0.4-0.7,1-1.3,1.8-1.6
			c0.7-0.4,1.6-0.6,2.4-0.6c1.4,0,2.5,0.5,3.2,1.4v-1.2H339.6z M336.1,434.6c0.5-0.4,0.7-1,0.7-1.7c0-0.7-0.2-1.3-0.7-1.7
			c-0.5-0.4-1.1-0.7-1.8-0.7s-1.4,0.2-1.8,0.7c-0.5,0.4-0.7,1-0.7,1.7c0,0.7,0.2,1.3,0.7,1.7c0.5,0.4,1.1,0.7,1.8,0.7
			S335.6,435,336.1,434.6z"/>
		<path d="M351,429.3c0.7,0.7,1.1,1.8,1.1,3.2v5.5h-2.8v-5.1c0-0.8-0.2-1.3-0.5-1.7s-0.8-0.6-1.5-0.6c-0.7,0-1.3,0.2-1.7,0.7
			c-0.4,0.4-0.6,1.1-0.6,2v4.8h-2.8v-9.7h2.7v1.1c0.4-0.4,0.8-0.7,1.4-0.9c0.6-0.2,1.2-0.3,1.8-0.3
			C349.3,428.2,350.2,428.6,351,429.3z"/>
		<path d="M355.5,437.9c-0.8-0.2-1.4-0.4-1.8-0.7l0.9-2c0.4,0.3,1,0.5,1.6,0.7c0.6,0.2,1.2,0.3,1.8,0.3c1.2,0,1.8-0.3,1.8-0.9
			c0-0.3-0.2-0.5-0.5-0.6s-0.8-0.2-1.5-0.3c-0.8-0.1-1.4-0.3-2-0.4s-1-0.4-1.3-0.8c-0.4-0.4-0.6-1-0.6-1.7c0-0.6,0.2-1.2,0.5-1.6
			c0.4-0.5,0.9-0.8,1.5-1.1c0.7-0.3,1.5-0.4,2.4-0.4c0.7,0,1.4,0.1,2,0.2c0.7,0.1,1.2,0.4,1.7,0.6l-0.9,2c-0.9-0.5-1.8-0.7-2.8-0.7
			c-0.6,0-1.1,0.1-1.4,0.3s-0.4,0.4-0.4,0.6c0,0.3,0.2,0.5,0.5,0.6c0.3,0.1,0.8,0.2,1.5,0.3c0.8,0.1,1.4,0.3,1.9,0.4
			c0.5,0.2,0.9,0.4,1.3,0.8c0.4,0.4,0.6,0.9,0.6,1.7c0,0.6-0.2,1.1-0.5,1.6s-0.9,0.8-1.6,1.1c-0.7,0.3-1.5,0.4-2.5,0.4
			C357.1,438.2,356.3,438.1,355.5,437.9z"/>
	</g>
</g>
</svg>
