<?xml version="1.0" encoding="utf-8"?>
<!-- Generator: Adobe Illustrator 25.2.3, SVG Export Plug-In . SVG Version: 6.00 Build 0)  -->
<svg version="1.1" id="Layer_1" xmlns="http://www.w3.org/2000/svg" xmlns:xlink="http://www.w3.org/1999/xlink" x="0px" y="0px"
	 viewBox="0 0 640 640" style="enable-background:new 0 0 640 640;" xml:space="preserve">
<style type="text/css">
	.st0{fill:#087892;}
	.st1{fill:none;stroke:#434244;stroke-width:0.5;stroke-miterlimit:10;}
</style>
<g id="e929e9a1-f970-4cd4-bf56-9dcfc1ccb2c1">
	
		<image style="overflow:visible;enable-background:new    ;" width="697" height="621" xlink:href="537667E8241ED013.jpeg"  transform="matrix(0.35 0 0 0.35 368.91 368.5699)">
	</image>
	<path class="st0" d="M41,77c-2-0.5-3.9-1.4-5.5-2.6l2.4-5.4c1.4,1,3.1,1.8,4.8,2.4c1.8,0.6,3.7,0.9,5.5,0.9
		c1.6,0.1,3.1-0.2,4.5-0.9c0.9-0.5,1.5-1.4,1.5-2.4c0-0.7-0.3-1.4-0.9-1.8c-0.7-0.5-1.4-0.9-2.2-1.2c-0.9-0.3-2.1-0.6-3.7-1
		c-2-0.4-3.9-1-5.8-1.7c-1.5-0.6-2.9-1.5-3.9-2.7c-1.1-1.4-1.7-3.2-1.6-5c0-1.8,0.5-3.5,1.5-4.9c1.1-1.6,2.7-2.8,4.5-3.5
		c2.3-0.9,4.8-1.4,7.2-1.3c2,0,3.9,0.2,5.8,0.7c1.8,0.4,3.5,1.1,5,2L57.8,54c-2.6-1.6-5.6-2.4-8.6-2.5c-1.6-0.1-3.1,0.2-4.5,1
		c-0.9,0.5-1.5,1.5-1.5,2.6c0,1.1,0.7,2,1.7,2.4c1.6,0.7,3.4,1.2,5.1,1.6c2,0.4,3.9,1,5.8,1.7c1.5,0.6,2.8,1.5,3.9,2.7
		c1.1,1.4,1.7,3.2,1.6,4.9c0,1.7-0.5,3.4-1.5,4.9c-1.1,1.6-2.7,2.8-4.5,3.5c-2.3,0.9-4.8,1.3-7.3,1.3C45.7,78,43.3,77.7,41,77z"/>
	<path class="st0" d="M70.4,76.3c-1.9-1-3.6-2.5-4.7-4.4c-2.3-3.9-2.3-8.8,0-12.7c1.1-1.9,2.7-3.4,4.7-4.4c2.1-1.1,4.4-1.6,6.8-1.6
		c2.4,0,4.7,0.5,6.8,1.6c1.9,1,3.6,2.5,4.7,4.4c2.3,3.9,2.3,8.8,0,12.7c-1.1,1.9-2.7,3.4-4.7,4.4c-2.1,1.1-4.4,1.6-6.8,1.6
		C74.9,77.9,72.5,77.4,70.4,76.3z M81.6,70.4c1.2-1.3,1.8-3.1,1.7-4.8c0.1-1.8-0.5-3.5-1.7-4.8c-1.1-1.2-2.7-1.9-4.4-1.8
		c-1.7-0.1-3.3,0.6-4.4,1.8c-1.2,1.3-1.8,3.1-1.7,4.8c-0.1,1.8,0.5,3.5,1.7,4.8c1.1,1.2,2.8,1.9,4.4,1.8
		C78.9,72.2,80.5,71.6,81.6,70.4z"/>
	<path class="st0" d="M99.7,76.3c-2-1-3.6-2.5-4.8-4.4c-2.3-3.9-2.3-8.8,0-12.7c1.1-1.9,2.8-3.4,4.8-4.4c2.1-1.1,4.5-1.6,6.9-1.6
		c2.3-0.1,4.6,0.5,6.6,1.6c1.8,1,3.3,2.6,4.1,4.5l-5.4,2.9c-1-2.1-3.1-3.3-5.4-3.3c-1.7,0-3.3,0.6-4.5,1.8c-1.2,1.3-1.9,3.1-1.8,4.9
		c-0.1,1.8,0.5,3.5,1.8,4.8c1.2,1.2,2.8,1.8,4.5,1.8c2.3,0.1,4.4-1.2,5.4-3.3l5.4,2.9c-0.9,1.9-2.3,3.5-4.1,4.4
		c-2,1.1-4.3,1.7-6.6,1.6C104.2,77.9,101.8,77.4,99.7,76.3z"/>
	<path class="st0" d="M121.7,49.1c-1.5-1.4-1.6-3.8-0.2-5.3c0.1-0.1,0.1-0.1,0.2-0.2c0.9-0.8,2-1.2,3.1-1.1c1.1-0.1,2.3,0.3,3.1,1.1
		c0.8,0.7,1.2,1.6,1.2,2.7c0,1.1-0.4,2.1-1.2,2.9c-0.8,0.8-2,1.2-3.1,1.1C123.6,50.3,122.5,49.9,121.7,49.1z M121.3,53.5h6.9v24
		h-6.9V53.5z"/>
	<path class="st0" d="M152.9,55.8c2,1.8,3,4.4,3,8v13.7h-6.5v-3c-1.3,2.2-3.8,3.3-7.3,3.3c-1.6,0-3.3-0.3-4.8-0.9
		c-1.3-0.5-2.3-1.4-3.1-2.6c-0.7-1.1-1.1-2.4-1.1-3.7c-0.1-2.1,0.9-4,2.5-5.3c1.7-1.3,4.3-1.9,7.8-1.9h5.6c0.1-1.3-0.4-2.6-1.4-3.5
		c-1.2-0.9-2.7-1.3-4.1-1.2c-1.3,0-2.5,0.2-3.8,0.6c-1.1,0.3-2.2,0.9-3.1,1.6l-2.6-4.8c1.4-1,3-1.7,4.7-2.1c1.8-0.5,3.7-0.8,5.6-0.8
		C148.1,53.2,150.9,54.1,152.9,55.8z M147,72.4c0.9-0.5,1.7-1.4,2-2.4v-2.5h-4.8c-2.8,0-4.3,0.9-4.3,2.8c0,0.8,0.4,1.6,1,2.1
		c0.8,0.6,1.9,0.8,2.9,0.8C145,73.2,146.1,72.9,147,72.4z"/>
	<path class="st0" d="M162.2,44.5h6.9v33h-6.9V44.5z"/>
	<path class="st0" d="M217.1,77.5V58.8l-9.2,15.4h-3.2l-9.1-15v18.3h-6.8V46.3h6l11.7,19.4l11.5-19.4h5.9l0.1,31.2H217.1z"/>
	<path class="st0" d="M254.1,67.5h-18.1c0.3,1.4,1.1,2.7,2.3,3.5c1.3,0.9,2.9,1.3,4.5,1.3c1.1,0,2.3-0.2,3.3-0.6
		c1-0.4,1.9-1,2.7-1.7l3.7,4c-2.3,2.6-5.6,3.9-9.9,3.9c-2.5,0-4.9-0.5-7.2-1.6c-2-1-3.7-2.5-4.8-4.4c-2.2-3.9-2.2-8.8,0-12.7
		c1.1-1.9,2.7-3.4,4.6-4.4c2-1.1,4.2-1.6,6.5-1.6c2.2,0,4.4,0.5,6.4,1.5c1.9,1,3.4,2.5,4.5,4.3c1.1,2,1.7,4.3,1.6,6.6
		C254.2,65.7,254.1,66.3,254.1,67.5z M237.8,59.8c-1.1,0.9-1.8,2.2-2,3.7h11.8c-0.2-1.4-0.9-2.7-2-3.6c-1.1-0.9-2.5-1.4-3.9-1.4
		C240.3,58.4,238.9,58.9,237.8,59.8z"/>
	<path class="st0" d="M283.2,44.5v33h-6.6v-2.8c-1.7,2.1-4.2,3.1-7.5,3.1c-2.1,0-4.2-0.5-6.1-1.5c-1.8-1-3.3-2.5-4.3-4.3
		c-2.1-4.1-2.1-8.9,0-13c1-1.8,2.5-3.3,4.3-4.3c1.9-1,4-1.5,6.1-1.5c2.7-0.1,5.3,0.9,7.2,2.9V44.5H283.2z M274.7,70.4
		c1.2-1.3,1.8-3.1,1.7-4.8c0.1-1.8-0.5-3.5-1.7-4.8c-2.4-2.4-6.3-2.4-8.8,0c-1.2,1.3-1.8,3.1-1.7,4.8c-0.1,1.8,0.5,3.5,1.7,4.8
		C268.3,72.8,272.2,72.8,274.7,70.4z"/>
	<path class="st0" d="M290,49.1c-1.5-1.4-1.6-3.8-0.2-5.3c0.1-0.1,0.1-0.1,0.2-0.2c0.9-0.8,2-1.2,3.1-1.1c1.1-0.1,2.3,0.3,3.1,1.1
		c0.8,0.7,1.2,1.6,1.2,2.7c0,1.1-0.4,2.1-1.2,2.9C294.4,50.6,291.8,50.6,290,49.1L290,49.1z M289.6,53.5h7v24h-7V53.5z"/>
	<path class="st0" d="M321.3,55.8c2,1.8,3,4.4,3,8v13.7h-6.5v-3c-1.3,2.2-3.7,3.3-7.3,3.3c-1.6,0-3.3-0.3-4.8-0.9
		c-1.3-0.5-2.3-1.4-3.1-2.6c-0.7-1.1-1.1-2.4-1.1-3.7c-0.1-2.1,0.8-4,2.5-5.2c1.7-1.3,4.3-1.9,7.8-1.9h5.5c0.1-1.3-0.4-2.6-1.4-3.5
		c-1.2-0.9-2.7-1.3-4.1-1.2c-1.3,0-2.5,0.2-3.8,0.6c-1.1,0.3-2.2,0.9-3.1,1.6l-2.5-4.8c1.4-1,3-1.7,4.7-2.1c1.8-0.5,3.7-0.8,5.6-0.8
		C316.4,53.2,319.3,54.1,321.3,55.8z M315.3,72.4c0.9-0.5,1.7-1.4,2-2.4v-2.5h-4.8c-2.9,0-4.3,0.9-4.3,2.8c0,0.8,0.4,1.6,1,2.1
		c0.8,0.6,1.9,0.8,2.9,0.8C313.3,73.2,314.4,72.9,315.3,72.4z"/>
	<path class="st0" d="M66.2,123.8v-18.7L57,120.5h-3.2l-9.1-15v18.3h-6.8V92.6h6L55.5,112L67,92.6h5.9l0.1,31.2H66.2z"/>
	<path class="st0" d="M98.1,102.2c2,1.8,3,4.4,3,8v13.7h-6.5v-3c-1.3,2.2-3.8,3.3-7.3,3.3c-1.6,0-3.3-0.3-4.8-0.9
		c-1.3-0.5-2.3-1.4-3.1-2.6c-0.7-1.1-1.1-2.4-1.1-3.8c-0.1-2.1,0.9-4,2.5-5.2c1.7-1.3,4.3-1.9,7.8-1.9h5.5c0.1-1.3-0.4-2.6-1.4-3.5
		c-1.2-0.9-2.7-1.4-4.2-1.3c-1.3,0-2.5,0.2-3.8,0.6c-1.1,0.4-2.2,0.9-3.1,1.6l-2.5-4.9c1.4-1,3-1.7,4.7-2.1c1.8-0.5,3.7-0.8,5.6-0.8
		C93.3,99.5,96.2,100.4,98.1,102.2z M92.2,118.7c0.9-0.5,1.6-1.4,2-2.4v-2.4h-4.8c-2.8,0-4.3,0.9-4.3,2.8c0,0.8,0.4,1.6,1.1,2.1
		c0.8,0.6,1.9,0.8,2.9,0.8C90.2,119.5,91.3,119.2,92.2,118.7z"/>
	<path class="st0" d="M129.2,102.2c1.8,1.8,2.7,4.4,2.7,7.9v13.7h-7v-12.7c0.1-1.5-0.3-3-1.2-4.3c-0.9-1-2.3-1.5-3.6-1.4
		c-1.6-0.1-3.1,0.5-4.2,1.6c-1.1,1.3-1.7,3.1-1.6,4.8v11.8h-6.9v-24h6.6v2.8c0.9-1,2.1-1.8,3.4-2.3c1.4-0.6,3-0.8,4.5-0.8
		C124.6,99.4,127.2,100.3,129.2,102.2z"/>
	<path class="st0" d="M156.4,102.2c2,1.8,3,4.4,3,8v13.7h-6.5v-3c-1.3,2.2-3.7,3.3-7.3,3.3c-1.6,0-3.3-0.3-4.8-0.9
		c-1.3-0.5-2.3-1.4-3.1-2.6c-0.7-1.1-1.1-2.4-1.1-3.8c-0.1-2.1,0.9-4,2.5-5.2c1.7-1.3,4.3-1.9,7.8-1.9h5.5c0.1-1.3-0.4-2.6-1.4-3.5
		c-1.2-0.9-2.7-1.3-4.1-1.2c-1.3,0-2.6,0.2-3.8,0.6c-1.1,0.4-2.2,0.9-3.1,1.6l-2.5-4.9c1.4-1,3-1.7,4.7-2.1c1.8-0.5,3.7-0.8,5.6-0.8
		C151.6,99.5,154.4,100.4,156.4,102.2z M150.5,118.7c0.9-0.5,1.6-1.4,2-2.4v-2.4h-4.8c-2.9,0-4.3,0.9-4.3,2.8c0,0.8,0.3,1.6,1,2.1
		c0.9,0.6,1.9,0.8,2.9,0.8C148.4,119.5,149.5,119.2,150.5,118.7z"/>
	<path class="st0" d="M190.6,99.9v20c0,4.4-1.1,7.7-3.4,9.8c-2.3,2.1-5.6,3.2-10,3.2c-2.2,0-4.4-0.3-6.6-0.8
		c-1.9-0.5-3.6-1.3-5.2-2.4l2.8-5c1.1,0.9,2.4,1.6,3.8,2c1.5,0.5,3.1,0.7,4.6,0.7c2.4,0,4.2-0.6,5.3-1.6c1.2-1.3,1.9-3.1,1.7-4.9v-1
		c-2,2.1-4.7,3.2-7.6,3c-2.1,0-4.2-0.5-6-1.4c-1.8-0.9-3.3-2.3-4.4-4.1c-2.1-3.8-2.1-8.4,0-12.1c1-1.7,2.6-3.1,4.4-4.1
		c1.8-1,3.9-1.5,6-1.4c3.5,0,6.1,1.1,7.9,3.4v-3.1H190.6z M182,115.3c2.3-2.3,2.4-6.1,0-8.5c0,0,0,0,0,0c-1.2-1.1-2.9-1.7-4.5-1.6
		c-1.7-0.1-3.3,0.5-4.5,1.6c-2.3,2.3-2.4,6.1,0,8.5c0,0,0,0,0,0c1.2,1.1,2.9,1.7,4.6,1.7C179.2,117.1,180.8,116.5,182,115.3z"/>
	<path class="st0" d="M220.4,113.8h-18.1c0.3,1.4,1.1,2.7,2.3,3.5c1.3,0.9,2.9,1.3,4.5,1.3c1.1,0,2.3-0.2,3.3-0.6
		c1-0.4,1.9-1,2.7-1.8l3.7,4c-2.3,2.6-5.6,3.9-9.9,3.9c-2.5,0.1-4.9-0.5-7.2-1.6c-2-1-3.7-2.5-4.8-4.4c-2.2-3.9-2.2-8.8,0-12.7
		c1.1-1.9,2.7-3.4,4.6-4.4c2-1.1,4.3-1.6,6.5-1.6c2.2,0,4.4,0.5,6.4,1.5c1.9,1,3.4,2.5,4.5,4.3c1.1,2,1.7,4.3,1.6,6.6
		C220.6,112,220.5,112.6,220.4,113.8z M204.2,106.1c-1.1,0.9-1.8,2.2-2,3.7H214c-0.2-1.4-0.9-2.7-2-3.6c-1.1-0.9-2.5-1.4-3.9-1.3
		C206.7,104.7,205.3,105.2,204.2,106.1L204.2,106.1z"/>
	<path class="st0" d="M263,102.2c1.8,1.8,2.6,4.4,2.6,8v13.7h-6.9v-12.7c0.1-1.5-0.3-3-1.2-4.3c-0.8-1-2.1-1.5-3.4-1.4
		c-1.5-0.1-2.9,0.5-3.9,1.6c-1,1.3-1.6,3-1.4,4.7v12H242v-12.6c0-3.8-1.5-5.7-4.6-5.7c-1.4-0.1-2.8,0.5-3.8,1.6
		c-1,1.3-1.5,3-1.4,4.7v12h-7v-24h6.6v2.8c0.9-1,2-1.8,3.3-2.3c1.4-0.5,2.8-0.8,4.2-0.8c1.6,0,3.2,0.3,4.6,1
		c1.3,0.6,2.5,1.7,3.3,2.9c1-1.3,2.3-2.2,3.7-2.9c1.5-0.7,3.2-1,4.9-1C258.5,99.3,261.1,100.3,263,102.2z"/>
	<path class="st0" d="M295.5,113.8h-18.1c0.3,1.4,1.1,2.7,2.3,3.5c1.3,0.9,2.9,1.3,4.5,1.3c1.1,0,2.3-0.2,3.3-0.6
		c1-0.4,1.9-1,2.7-1.8l3.7,4c-2.3,2.6-5.6,3.9-9.9,3.9c-2.5,0.1-4.9-0.5-7.2-1.6c-2-1-3.7-2.5-4.8-4.4c-2.2-3.9-2.2-8.8,0-12.7
		c1.1-1.9,2.7-3.4,4.6-4.4c2-1.1,4.3-1.6,6.5-1.6c2.2,0,4.4,0.5,6.4,1.5c1.9,1,3.4,2.5,4.5,4.3c1.1,2,1.7,4.3,1.6,6.6
		C295.7,112,295.6,112.6,295.5,113.8z M279.3,106.1c-1.1,0.9-1.8,2.2-2,3.7h11.8c-0.2-1.4-0.9-2.7-2-3.6c-1.1-0.9-2.5-1.4-3.9-1.3
		C281.7,104.7,280.4,105.2,279.3,106.1z"/>
	<path class="st0" d="M322,102.2c1.8,1.8,2.7,4.4,2.7,7.9v13.7h-7v-12.7c0.1-1.5-0.3-3-1.2-4.3c-0.9-1-2.3-1.5-3.6-1.4
		c-1.6-0.1-3.1,0.5-4.2,1.6c-1.1,1.3-1.7,3.1-1.6,4.8v11.8h-7v-24h6.6v2.8c0.9-1,2.1-1.8,3.4-2.3c1.4-0.6,3-0.8,4.5-0.8
		C317.5,99.4,320.1,100.3,322,102.2z"/>
	<path class="st0" d="M346.5,122.7c-0.8,0.5-1.6,0.9-2.5,1.1c-1,0.3-2.1,0.4-3.1,0.4c-2.4,0.2-4.8-0.6-6.6-2.2
		c-1.6-1.5-2.3-3.6-2.3-6.4v-9.8h-3.7v-5.3h3.7v-5.8h7v5.8h6v5.3h-6v9.8c-0.1,0.9,0.2,1.7,0.8,2.3c0.6,0.6,1.4,0.9,2.2,0.8
		c1,0,2-0.3,2.8-0.9L346.5,122.7z"/>
	<line class="st1" x1="33.8" y1="589.3" x2="611.1" y2="589.3"/>
	<g>
		<path class="st0" d="M65.7,162.2l-7.1,21h-2.3l-6.1-17.9L44,183.2h-2.3l-7.1-21h2.3l6.1,18.1l6.3-18.1h2.1l6.2,18.1l6.1-18.1H65.7
			z"/>
		<path class="st0" d="M81.3,176H68.1c0.1,1.6,0.8,3,1.9,4c1.1,1,2.6,1.5,4.3,1.5c1,0,1.9-0.2,2.7-0.5c0.8-0.3,1.5-0.9,2.1-1.5
			l1.2,1.4c-0.7,0.8-1.6,1.5-2.6,1.9s-2.2,0.7-3.5,0.7c-1.6,0-3.1-0.3-4.3-1c-1.2-0.7-2.2-1.6-2.9-2.9c-0.7-1.2-1.1-2.6-1.1-4.1
			c0-1.5,0.3-2.9,1-4.1s1.6-2.2,2.8-2.9c1.2-0.7,2.5-1,3.9-1s2.8,0.3,3.9,1c1.2,0.7,2.1,1.6,2.7,2.8c0.7,1.2,1,2.6,1,4.2L81.3,176z
			 M69.8,170.6c-1,1-1.6,2.2-1.8,3.8h11.2c-0.1-1.6-0.7-2.8-1.8-3.8c-1-1-2.3-1.5-3.9-1.5C72.1,169.1,70.9,169.6,69.8,170.6z"/>
		<path class="st0" d="M115.5,167.4l-6,15.8h-2l-5-12.9l-5,12.9h-2l-5.9-15.8h2l5,13.4l5.1-13.4h1.8l5,13.4l5-13.4H115.5z"/>
		<path class="st0" d="M120,182.3c-1.2-0.7-2.2-1.6-2.9-2.9c-0.7-1.2-1.1-2.6-1.1-4.1c0-1.5,0.3-2.9,1.1-4.1
			c0.7-1.2,1.7-2.2,2.9-2.9c1.2-0.7,2.6-1,4.1-1c1.5,0,2.9,0.3,4.1,1c1.2,0.7,2.2,1.6,2.9,2.9s1,2.6,1,4.1c0,1.5-0.3,2.9-1,4.1
			c-0.7,1.2-1.6,2.2-2.9,2.9c-1.2,0.7-2.6,1-4.1,1C122.6,183.3,121.2,183,120,182.3z M127.1,180.7c0.9-0.5,1.6-1.2,2.1-2.2
			c0.5-0.9,0.8-2,0.8-3.2c0-1.2-0.3-2.3-0.8-3.2c-0.5-0.9-1.2-1.7-2.1-2.2c-0.9-0.5-1.9-0.8-3-0.8s-2.1,0.3-3,0.8
			c-0.9,0.5-1.6,1.2-2.1,2.2c-0.5,0.9-0.8,2-0.8,3.2c0,1.2,0.3,2.3,0.8,3.2c0.5,0.9,1.2,1.7,2.1,2.2c0.9,0.5,1.9,0.8,3,0.8
			S126.2,181.2,127.1,180.7z"/>
		<path class="st0" d="M140.1,168.1c1-0.5,2.2-0.8,3.7-0.8v2.1l-0.5,0c-1.7,0-3,0.5-3.9,1.5s-1.4,2.5-1.4,4.3v8h-2.1v-15.8h2v3.1
			C138.4,169.4,139.1,168.6,140.1,168.1z"/>
		<path class="st0" d="M152.9,175.3l-3.7,3.4v4.5H147v-22.3h2.1V176l9.4-8.6h2.6l-6.8,6.4l7.4,9.3h-2.6L152.9,175.3z"/>
		<path class="st0" d="M172.3,182.8c-1.2-0.4-2.1-0.8-2.7-1.4l1-1.7c0.7,0.5,1.5,0.9,2.5,1.3c1,0.3,2,0.5,3.1,0.5
			c1.4,0,2.5-0.2,3.2-0.7c0.7-0.5,1-1.1,1-1.9c0-0.6-0.2-1-0.6-1.4c-0.4-0.3-0.9-0.6-1.4-0.8s-1.3-0.3-2.3-0.5
			c-1.3-0.2-2.3-0.5-3.1-0.7c-0.8-0.2-1.4-0.7-2-1.3c-0.6-0.6-0.8-1.4-0.8-2.5c0-1.3,0.5-2.4,1.6-3.2c1.1-0.8,2.6-1.3,4.6-1.3
			c1,0,2,0.1,3.1,0.4s1.9,0.6,2.5,1.1l-0.9,1.7c-1.3-0.9-2.9-1.3-4.7-1.3c-1.4,0-2.4,0.2-3.1,0.7s-1,1.1-1,1.9
			c0,0.6,0.2,1.1,0.6,1.4s0.9,0.6,1.5,0.8c0.6,0.2,1.4,0.3,2.4,0.5c1.3,0.2,2.3,0.5,3,0.7c0.8,0.2,1.4,0.6,1.9,1.2s0.8,1.4,0.8,2.4
			c0,1.4-0.6,2.5-1.7,3.3c-1.2,0.8-2.7,1.2-4.8,1.2C174.7,183.3,173.5,183.2,172.3,182.8z"/>
		<path class="st0" d="M188.1,182.3c-1.2-0.7-2.2-1.6-2.9-2.9c-0.7-1.2-1.1-2.6-1.1-4.1c0-1.5,0.3-2.9,1.1-4.1
			c0.7-1.2,1.7-2.2,2.9-2.9c1.2-0.7,2.6-1,4.1-1c1.5,0,2.9,0.3,4.1,1c1.2,0.7,2.2,1.6,2.9,2.9s1,2.6,1,4.1c0,1.5-0.3,2.9-1,4.1
			c-0.7,1.2-1.6,2.2-2.9,2.9c-1.2,0.7-2.6,1-4.1,1C190.7,183.3,189.4,183,188.1,182.3z M195.3,180.7c0.9-0.5,1.6-1.2,2.1-2.2
			c0.5-0.9,0.8-2,0.8-3.2c0-1.2-0.3-2.3-0.8-3.2c-0.5-0.9-1.2-1.7-2.1-2.2c-0.9-0.5-1.9-0.8-3-0.8s-2.1,0.3-3,0.8
			c-0.9,0.5-1.6,1.2-2.1,2.2c-0.5,0.9-0.8,2-0.8,3.2c0,1.2,0.3,2.3,0.8,3.2c0.5,0.9,1.2,1.7,2.1,2.2c0.9,0.5,1.9,0.8,3,0.8
			S194.4,181.2,195.3,180.7z"/>
		<path class="st0" d="M224.5,167.4l-7.9,17.7c-0.6,1.5-1.4,2.5-2.2,3.1c-0.8,0.6-1.9,0.9-3,0.9c-0.8,0-1.5-0.1-2.1-0.4
			c-0.7-0.2-1.2-0.6-1.7-1.1l1-1.6c0.8,0.8,1.8,1.2,2.9,1.2c0.7,0,1.3-0.2,1.8-0.6c0.5-0.4,1-1.1,1.4-2l0.7-1.5l-7.1-15.8h2.2
			l5.9,13.4l5.9-13.4H224.5z"/>
		<path class="st0" d="M228.8,182.3c-1.2-0.7-2.2-1.6-2.9-2.9c-0.7-1.2-1.1-2.6-1.1-4.1c0-1.5,0.3-2.9,1.1-4.1
			c0.7-1.2,1.7-2.2,2.9-2.9c1.2-0.7,2.6-1,4.1-1c1.5,0,2.9,0.3,4.1,1c1.2,0.7,2.2,1.6,2.9,2.9s1,2.6,1,4.1c0,1.5-0.3,2.9-1,4.1
			c-0.7,1.2-1.6,2.2-2.9,2.9c-1.2,0.7-2.6,1-4.1,1C231.4,183.3,230,183,228.8,182.3z M236,180.7c0.9-0.5,1.6-1.2,2.1-2.2
			c0.5-0.9,0.8-2,0.8-3.2c0-1.2-0.3-2.3-0.8-3.2c-0.5-0.9-1.2-1.7-2.1-2.2c-0.9-0.5-1.9-0.8-3-0.8s-2.1,0.3-3,0.8
			c-0.9,0.5-1.6,1.2-2.1,2.2c-0.5,0.9-0.8,2-0.8,3.2c0,1.2,0.3,2.3,0.8,3.2c0.5,0.9,1.2,1.7,2.1,2.2c0.9,0.5,1.9,0.8,3,0.8
			S235.1,181.2,236,180.7z"/>
		<path class="st0" d="M258.9,167.4v15.8h-2v-2.9c-0.6,1-1.3,1.7-2.3,2.2c-1,0.5-2.1,0.8-3.4,0.8c-2.1,0-3.7-0.6-4.9-1.7
			c-1.2-1.1-1.8-2.8-1.8-5.1v-9.1h2.1v8.9c0,1.7,0.4,2.9,1.2,3.8c0.8,0.9,2,1.3,3.5,1.3c1.7,0,3-0.5,3.9-1.5c1-1,1.4-2.4,1.4-4.2
			v-8.3H258.9z"/>
		<path class="st0" d="M273.9,182.3c-1.2-0.7-2.2-1.6-2.9-2.9c-0.7-1.2-1.1-2.6-1.1-4.2c0-1.5,0.3-2.9,1.1-4.1
			c0.7-1.2,1.7-2.2,2.9-2.9c1.2-0.7,2.6-1,4.2-1c1.4,0,2.6,0.3,3.6,0.8c1.1,0.5,1.9,1.3,2.5,2.3l-1.6,1.1c-0.5-0.8-1.2-1.4-2-1.8
			c-0.8-0.4-1.7-0.6-2.6-0.6c-1.1,0-2.2,0.3-3.1,0.8c-0.9,0.5-1.6,1.2-2.1,2.2c-0.5,0.9-0.8,2-0.8,3.2c0,1.2,0.3,2.3,0.8,3.2
			c0.5,0.9,1.2,1.6,2.1,2.2c0.9,0.5,1.9,0.8,3.1,0.8c0.9,0,1.8-0.2,2.6-0.6c0.8-0.4,1.5-1,2-1.7l1.6,1.1c-0.6,1-1.5,1.8-2.5,2.3
			c-1.1,0.5-2.3,0.8-3.6,0.8C276.5,183.3,275.1,183,273.9,182.3z"/>
		<path class="st0" d="M298.1,168.8c1.1,1,1.6,2.6,1.6,4.6v9.8h-2v-2.5c-0.5,0.8-1.2,1.5-2.1,1.9c-0.9,0.5-2,0.7-3.3,0.7
			c-1.8,0-3.2-0.4-4.2-1.3c-1-0.8-1.6-2-1.6-3.3c0-1.3,0.5-2.4,1.5-3.2c1-0.8,2.5-1.2,4.6-1.2h5v-1c0-1.4-0.4-2.4-1.1-3.1
			c-0.8-0.7-1.9-1.1-3.3-1.1c-1,0-2,0.2-2.9,0.5s-1.7,0.8-2.4,1.4l-1-1.6c0.8-0.7,1.8-1.2,2.9-1.6c1.1-0.4,2.3-0.6,3.5-0.6
			C295.4,167.3,297,167.8,298.1,168.8z M295.7,180.8c0.9-0.5,1.5-1.3,1.9-2.4v-2.6h-5c-2.7,0-4,0.9-4,2.8c0,0.9,0.3,1.6,1,2.2
			c0.7,0.5,1.7,0.8,2.9,0.8C293.8,181.7,294.8,181.4,295.7,180.8z"/>
		<path class="st0" d="M317.7,169c1.2,1.1,1.8,2.8,1.8,5v9.1h-2.1v-8.9c0-1.6-0.4-2.9-1.2-3.8c-0.8-0.9-2-1.3-3.5-1.3
			c-1.7,0-3,0.5-4,1.5c-1,1-1.5,2.4-1.5,4.2v8.3h-2.1v-15.8h2v2.9c0.6-1,1.4-1.7,2.4-2.2c1-0.5,2.2-0.8,3.6-0.8
			C315,167.3,316.5,167.9,317.7,169z"/>
		<path class="st0" d="M336.2,168.1c1-0.5,2.2-0.8,3.7-0.8v2.1l-0.5,0c-1.7,0-3,0.5-3.9,1.5s-1.4,2.5-1.4,4.3v8h-2.1v-15.8h2v3.1
			C334.4,169.4,335.2,168.6,336.2,168.1z"/>
		<path class="st0" d="M356.7,176h-13.2c0.1,1.6,0.8,3,1.9,4c1.1,1,2.6,1.5,4.3,1.5c1,0,1.9-0.2,2.7-0.5c0.8-0.3,1.5-0.9,2.1-1.5
			l1.2,1.4c-0.7,0.8-1.6,1.5-2.6,1.9s-2.2,0.7-3.5,0.7c-1.6,0-3.1-0.3-4.3-1c-1.3-0.7-2.2-1.6-2.9-2.9c-0.7-1.2-1-2.6-1-4.1
			c0-1.5,0.3-2.9,1-4.1s1.6-2.2,2.8-2.9c1.2-0.7,2.5-1,3.9-1s2.8,0.3,3.9,1c1.2,0.7,2.1,1.6,2.7,2.8c0.7,1.2,1,2.6,1,4.2L356.7,176z
			 M345.2,170.6c-1,1-1.6,2.2-1.8,3.8h11.2c-0.1-1.6-0.7-2.8-1.8-3.8c-1-1-2.3-1.5-3.9-1.5C347.5,169.1,346.3,169.6,345.2,170.6z"/>
		<path class="st0" d="M370.3,168.8c1.1,1,1.6,2.6,1.6,4.6v9.8h-2v-2.5c-0.5,0.8-1.2,1.5-2.1,1.9c-0.9,0.5-2,0.7-3.3,0.7
			c-1.8,0-3.2-0.4-4.2-1.3c-1-0.8-1.6-2-1.6-3.3c0-1.3,0.5-2.4,1.5-3.2c1-0.8,2.5-1.2,4.6-1.2h5v-1c0-1.4-0.4-2.4-1.1-3.1
			c-0.8-0.7-1.9-1.1-3.3-1.1c-1,0-2,0.2-2.9,0.5c-0.9,0.3-1.7,0.8-2.4,1.4l-1-1.6c0.8-0.7,1.8-1.2,2.9-1.6c1.1-0.4,2.3-0.6,3.5-0.6
			C367.6,167.3,369.2,167.8,370.3,168.8z M367.9,180.8c0.9-0.5,1.5-1.3,1.9-2.4v-2.6h-5c-2.7,0-4,0.9-4,2.8c0,0.9,0.3,1.6,1,2.2
			c0.7,0.5,1.7,0.8,2.9,0.8C366,181.7,367,181.4,367.9,180.8z"/>
		<path class="st0" d="M379.5,182.3c-1.2-0.7-2.2-1.6-2.9-2.9s-1-2.6-1-4.2c0-1.5,0.3-2.9,1-4.1s1.7-2.2,2.9-2.9
			c1.2-0.7,2.6-1,4.2-1c1.4,0,2.6,0.3,3.6,0.8c1.1,0.5,1.9,1.3,2.5,2.3l-1.6,1.1c-0.5-0.8-1.2-1.4-2-1.8s-1.7-0.6-2.6-0.6
			c-1.1,0-2.2,0.3-3.1,0.8c-0.9,0.5-1.6,1.2-2.1,2.2c-0.5,0.9-0.8,2-0.8,3.2c0,1.2,0.3,2.3,0.8,3.2c0.5,0.9,1.2,1.6,2.1,2.2
			c0.9,0.5,1.9,0.8,3.1,0.8c0.9,0,1.8-0.2,2.6-0.6c0.8-0.4,1.5-1,2-1.7l1.6,1.1c-0.6,1-1.5,1.8-2.6,2.3c-1.1,0.5-2.3,0.8-3.6,0.8
			C382.2,183.3,380.8,183,379.5,182.3z"/>
		<path class="st0" d="M406,169c1.2,1.1,1.8,2.8,1.8,5v9.1h-2.1v-8.9c0-1.6-0.4-2.9-1.2-3.8s-2-1.3-3.5-1.3c-1.7,0-3,0.5-4,1.5
			s-1.5,2.4-1.5,4.2v8.3h-2.1v-22.3h2.1v9.2c0.6-0.9,1.4-1.6,2.4-2.1s2.2-0.8,3.5-0.8C403.2,167.3,404.8,167.9,406,169z"/>
		<path class="st0" d="M434.7,167.2l-7.5,17.3c-0.7,1.7-1.5,3-2.5,3.7s-2.2,1.1-3.6,1.1c-0.8,0-1.6-0.1-2.4-0.4
			c-0.8-0.3-1.4-0.6-1.9-1.1l1.5-2.8c0.4,0.3,0.8,0.6,1.3,0.8c0.5,0.2,1,0.3,1.5,0.3c0.7,0,1.2-0.2,1.6-0.5c0.4-0.3,0.8-0.9,1.2-1.7
			l0.3-0.6l-7-16.1h3.9l5,11.9l5.1-11.9H434.7z"/>
		<path class="st0" d="M438.8,182.3c-1.3-0.7-2.3-1.7-3-2.9c-0.7-1.2-1.1-2.7-1.1-4.2s0.4-3,1.1-4.2c0.7-1.2,1.7-2.2,3-2.9
			c1.3-0.7,2.8-1.1,4.4-1.1c1.6,0,3.1,0.4,4.4,1.1c1.3,0.7,2.3,1.7,3,2.9c0.7,1.2,1.1,2.7,1.1,4.2s-0.4,3-1.1,4.2
			c-0.7,1.3-1.7,2.2-3,2.9c-1.3,0.7-2.8,1-4.4,1C441.6,183.4,440.1,183,438.8,182.3z M446.6,178.8c0.9-0.9,1.3-2.1,1.3-3.6
			s-0.4-2.7-1.3-3.6c-0.9-0.9-2-1.4-3.4-1.4s-2.5,0.5-3.4,1.4c-0.9,0.9-1.3,2.1-1.3,3.6s0.4,2.7,1.3,3.6s2,1.4,3.4,1.4
			S445.7,179.7,446.6,178.8z"/>
		<path class="st0" d="M470.2,167.2v16h-3.6v-2c-0.6,0.7-1.4,1.3-2.2,1.7c-0.9,0.4-1.9,0.6-2.9,0.6c-2.1,0-3.8-0.6-5.1-1.8
			c-1.2-1.2-1.8-3-1.8-5.3v-9.1h3.8v8.6c0,1.4,0.3,2.5,1,3.2c0.6,0.7,1.6,1.1,2.8,1.1c1.3,0,2.4-0.4,3.2-1.2c0.8-0.8,1.2-2,1.2-3.6
			v-8.1H470.2z"/>
		<path class="st0" d="M483.8,167v3.6c-0.3-0.1-0.6-0.1-0.9-0.1c-1.5,0-2.6,0.4-3.4,1.3c-0.8,0.9-1.2,2.1-1.2,3.7v7.8h-3.8v-16h3.6
			v2.3C479.2,167.8,481.1,167,483.8,167z"/>
		<path class="st0" d="M494.4,163.9c-0.5-0.4-0.7-1-0.7-1.6c0-0.6,0.2-1.2,0.7-1.6c0.5-0.4,1-0.6,1.7-0.6s1.2,0.2,1.7,0.6
			c0.5,0.4,0.7,0.9,0.7,1.5c0,0.7-0.2,1.2-0.7,1.7s-1,0.7-1.7,0.7C495.4,164.5,494.9,164.3,494.4,163.9z M494.2,167.2h3.8v16h-3.8
			V167.2z"/>
		<path class="st0" d="M518,160.9v22.3h-3.6v-2.1c-0.6,0.8-1.4,1.3-2.3,1.7c-0.9,0.4-1.9,0.6-3,0.6c-1.5,0-2.9-0.3-4.2-1
			c-1.2-0.7-2.2-1.6-2.9-2.9c-0.7-1.2-1.1-2.7-1.1-4.3c0-1.6,0.3-3,1.1-4.3c0.7-1.2,1.7-2.2,2.9-2.9c1.2-0.7,2.6-1,4.2-1
			c1.1,0,2,0.2,2.9,0.5c0.9,0.4,1.6,0.9,2.2,1.6v-8.2H518z M512,179.6c0.7-0.4,1.3-1,1.7-1.8c0.4-0.8,0.6-1.6,0.6-2.6
			s-0.2-1.9-0.6-2.6c-0.4-0.8-1-1.3-1.7-1.8c-0.7-0.4-1.5-0.6-2.4-0.6c-0.9,0-1.7,0.2-2.4,0.6c-0.7,0.4-1.3,1-1.7,1.8
			c-0.4,0.8-0.6,1.6-0.6,2.6s0.2,1.9,0.6,2.6c0.4,0.8,1,1.3,1.7,1.8c0.7,0.4,1.5,0.6,2.4,0.6C510.4,180.2,511.2,180,512,179.6z"/>
		<path class="st0" d="M537.3,176.4h-12.6c0.2,1.2,0.8,2.1,1.7,2.8c0.9,0.7,2.1,1,3.5,1c1.8,0,3.2-0.6,4.3-1.7l2,2.3
			c-0.7,0.9-1.6,1.5-2.7,1.9c-1.1,0.4-2.3,0.7-3.7,0.7c-1.8,0-3.3-0.3-4.7-1s-2.4-1.7-3.1-2.9c-0.7-1.2-1.1-2.7-1.1-4.2
			c0-1.6,0.4-3,1.1-4.2c0.7-1.2,1.7-2.2,3-2.9c1.3-0.7,2.7-1.1,4.3-1.1c1.6,0,3,0.3,4.2,1c1.2,0.7,2.2,1.7,2.9,2.9
			c0.7,1.2,1,2.7,1,4.3C537.4,175.5,537.4,175.9,537.3,176.4z M526.2,171.1c-0.8,0.7-1.3,1.7-1.5,2.8h9.1c-0.2-1.2-0.7-2.1-1.5-2.8
			c-0.8-0.7-1.8-1.1-3.1-1.1C528.1,170,527.1,170.3,526.2,171.1z"/>
		<path class="st0" d="M551.5,168.7c1.2,1.1,1.9,2.8,1.9,5.1v9.4h-3.5v-2c-0.5,0.7-1.1,1.2-2,1.6c-0.9,0.4-1.9,0.6-3.1,0.6
			s-2.2-0.2-3.2-0.6c-0.9-0.4-1.6-1-2.1-1.7c-0.5-0.7-0.7-1.6-0.7-2.5c0-1.4,0.5-2.6,1.6-3.5c1.1-0.9,2.8-1.3,5.1-1.3h4.1v-0.2
			c0-1.1-0.3-2-1-2.6c-0.7-0.6-1.7-0.9-3-0.9c-0.9,0-1.8,0.1-2.7,0.4c-0.9,0.3-1.6,0.7-2.2,1.2l-1.5-2.7c0.8-0.6,1.8-1.1,3-1.5
			c1.2-0.3,2.4-0.5,3.8-0.5C548.4,167,550.2,167.6,551.5,168.7z M548,180c0.7-0.4,1.2-1,1.5-1.8v-1.9h-3.9c-2.2,0-3.2,0.7-3.2,2.1
			c0,0.7,0.3,1.2,0.8,1.6c0.5,0.4,1.3,0.6,2.2,0.6C546.5,180.7,547.3,180.5,548,180z"/>
		<path class="st0" d="M557.5,160.9h3.8v22.3h-3.8V160.9z"/>
		<path class="st0" d="M38.8,218.3c-1.3-0.7-2.4-1.7-3.1-2.9c-0.7-1.2-1.1-2.7-1.1-4.2s0.4-3,1.1-4.2c0.7-1.2,1.8-2.2,3.1-2.9
			c1.3-0.7,2.8-1.1,4.5-1.1c1.6,0,3,0.3,4.2,1c1.2,0.6,2.1,1.6,2.7,2.8l-2.9,1.7c-0.5-0.7-1-1.3-1.7-1.7s-1.4-0.6-2.3-0.6
			c-1.4,0-2.6,0.5-3.5,1.4s-1.4,2.1-1.4,3.6s0.5,2.7,1.4,3.6c0.9,0.9,2.1,1.4,3.5,1.4c0.8,0,1.6-0.2,2.3-0.6
			c0.7-0.4,1.3-0.9,1.7-1.7l2.9,1.7c-0.6,1.2-1.5,2.1-2.7,2.8c-1.2,0.7-2.6,1-4.1,1C41.6,219.4,40.2,219,38.8,218.3z"/>
		<path class="st0" d="M52.6,196.9h3.8v22.3h-3.8V196.9z"/>
		<path class="st0" d="M60.9,199.9c-0.5-0.4-0.7-1-0.7-1.6c0-0.6,0.2-1.2,0.7-1.6c0.5-0.4,1-0.6,1.7-0.6c0.7,0,1.2,0.2,1.7,0.6
			c0.5,0.4,0.7,0.9,0.7,1.5c0,0.7-0.2,1.2-0.7,1.7c-0.5,0.5-1,0.7-1.7,0.7C61.9,200.5,61.3,200.3,60.9,199.9z M60.7,203.2h3.8v16
			h-3.8V203.2z"/>
		<path class="st0" d="M83.8,212.4H71.2c0.2,1.2,0.8,2.1,1.7,2.8c0.9,0.7,2.1,1,3.5,1c1.8,0,3.2-0.6,4.4-1.7l2,2.3
			c-0.7,0.9-1.6,1.5-2.7,1.9c-1.1,0.4-2.3,0.7-3.7,0.7c-1.8,0-3.3-0.3-4.7-1s-2.4-1.7-3.1-2.9c-0.7-1.2-1.1-2.7-1.1-4.2
			c0-1.6,0.4-3,1.1-4.2c0.7-1.2,1.7-2.2,3-2.9c1.3-0.7,2.7-1.1,4.3-1.1c1.6,0,3,0.3,4.2,1s2.2,1.7,2.9,2.9s1,2.7,1,4.3
			C83.8,211.5,83.8,211.9,83.8,212.4z M72.7,207.1c-0.8,0.7-1.3,1.7-1.5,2.8h9.1c-0.2-1.2-0.7-2.1-1.5-2.8c-0.8-0.7-1.8-1.1-3.1-1.1
			C74.5,206,73.5,206.3,72.7,207.1z"/>
		<path class="st0" d="M100.8,204.8c1.2,1.2,1.8,2.9,1.8,5.2v9.2h-3.8v-8.7c0-1.4-0.3-2.5-1-3.2c-0.7-0.7-1.6-1.1-2.8-1.1
			c-1.4,0-2.5,0.4-3.3,1.2c-0.8,0.8-1.2,2-1.2,3.6v8.1h-3.8v-16h3.6v2.1c0.6-0.7,1.4-1.3,2.3-1.7c0.9-0.4,2-0.6,3.2-0.6
			C97.9,203,99.6,203.6,100.8,204.8z"/>
		<path class="st0" d="M116.4,218.3c-0.4,0.4-1,0.6-1.6,0.8c-0.6,0.2-1.3,0.3-2,0.3c-1.8,0-3.1-0.5-4.1-1.4s-1.4-2.3-1.4-4v-7.7
			h-2.6v-3h2.6v-3.7h3.8v3.7h4.3v3H111v7.6c0,0.8,0.2,1.4,0.6,1.8c0.4,0.4,0.9,0.6,1.6,0.6c0.8,0,1.5-0.2,2.1-0.7L116.4,218.3z"/>
		<path class="st0" d="M50.1,285.6H38.4l-2.5,5.6h-2.3l9.6-21h2.2l9.6,21h-2.3L50.1,285.6z M49.3,283.8l-5-11.3l-5,11.3H49.3z"/>
		<path class="st0" d="M65.2,290.8c-1.2-0.4-2.1-0.8-2.7-1.4l1-1.7c0.7,0.5,1.5,0.9,2.5,1.3c1,0.3,2,0.5,3.1,0.5
			c1.4,0,2.5-0.2,3.2-0.7c0.7-0.5,1-1.1,1-1.9c0-0.6-0.2-1-0.6-1.4c-0.4-0.3-0.9-0.6-1.4-0.8s-1.3-0.3-2.3-0.5
			c-1.3-0.2-2.3-0.5-3.1-0.7c-0.8-0.2-1.4-0.7-2-1.3c-0.6-0.6-0.8-1.4-0.8-2.5c0-1.3,0.5-2.4,1.6-3.2c1.1-0.8,2.6-1.3,4.6-1.3
			c1,0,2,0.1,3.1,0.4s1.9,0.6,2.5,1.1l-0.9,1.7c-1.3-0.9-2.9-1.3-4.7-1.3c-1.4,0-2.4,0.2-3.1,0.7s-1,1.1-1,1.9
			c0,0.6,0.2,1.1,0.6,1.4s0.9,0.6,1.5,0.8c0.6,0.2,1.4,0.3,2.4,0.5c1.3,0.2,2.3,0.5,3,0.7c0.8,0.2,1.4,0.6,1.9,1.2s0.8,1.4,0.8,2.4
			c0,1.4-0.6,2.5-1.7,3.3c-1.2,0.8-2.7,1.2-4.8,1.2C67.6,291.3,66.4,291.2,65.2,290.8z"/>
		<path class="st0" d="M81,290.3c-1.2-0.7-2.2-1.6-2.9-2.9c-0.7-1.2-1.1-2.6-1.1-4.1c0-1.5,0.3-2.9,1.1-4.1c0.7-1.2,1.7-2.2,2.9-2.9
			c1.2-0.7,2.6-1,4.1-1c1.5,0,2.9,0.3,4.1,1c1.2,0.7,2.2,1.6,2.9,2.9s1,2.6,1,4.1c0,1.5-0.3,2.9-1,4.1c-0.7,1.2-1.6,2.2-2.9,2.9
			c-1.2,0.7-2.6,1-4.1,1C83.6,291.3,82.3,291,81,290.3z M88.2,288.7c0.9-0.5,1.6-1.2,2.1-2.2c0.5-0.9,0.8-2,0.8-3.2
			c0-1.2-0.3-2.3-0.8-3.2c-0.5-0.9-1.2-1.7-2.1-2.2c-0.9-0.5-1.9-0.8-3-0.8s-2.1,0.3-3,0.8c-0.9,0.5-1.6,1.2-2.1,2.2
			c-0.5,0.9-0.8,2-0.8,3.2c0,1.2,0.3,2.3,0.8,3.2c0.5,0.9,1.2,1.7,2.1,2.2c0.9,0.5,1.9,0.8,3,0.8S87.3,289.2,88.2,288.7z"/>
		<path class="st0" d="M99.3,290.3c-1.2-0.7-2.2-1.6-2.9-2.9c-0.7-1.2-1.1-2.6-1.1-4.2c0-1.5,0.3-2.9,1.1-4.1
			c0.7-1.2,1.7-2.2,2.9-2.9c1.2-0.7,2.6-1,4.2-1c1.4,0,2.6,0.3,3.6,0.8c1.1,0.5,1.9,1.3,2.5,2.3l-1.6,1.1c-0.5-0.8-1.2-1.4-2-1.8
			c-0.8-0.4-1.7-0.6-2.6-0.6c-1.1,0-2.2,0.3-3.1,0.8c-0.9,0.5-1.6,1.2-2.1,2.2c-0.5,0.9-0.8,2-0.8,3.2c0,1.2,0.3,2.3,0.8,3.2
			c0.5,0.9,1.2,1.6,2.1,2.2c0.9,0.5,1.9,0.8,3.1,0.8c0.9,0,1.8-0.2,2.6-0.6c0.8-0.4,1.5-1,2-1.7l1.6,1.1c-0.6,1-1.5,1.8-2.5,2.3
			c-1.1,0.5-2.3,0.8-3.6,0.8C101.9,291.3,100.5,291,99.3,290.3z"/>
		<path class="st0" d="M113.2,271.5c-0.3-0.3-0.4-0.7-0.4-1.1c0-0.4,0.1-0.8,0.4-1.1c0.3-0.3,0.7-0.4,1.1-0.4s0.8,0.1,1.1,0.4
			c0.3,0.3,0.4,0.6,0.4,1c0,0.4-0.1,0.8-0.4,1.1c-0.3,0.3-0.7,0.5-1.1,0.5S113.5,271.8,113.2,271.5z M113.2,275.4h2.1v15.8h-2.1
			V275.4z"/>
		<path class="st0" d="M130.9,276.8c1.1,1,1.6,2.6,1.6,4.6v9.8h-2v-2.5c-0.5,0.8-1.2,1.5-2.1,1.9c-0.9,0.5-2,0.7-3.3,0.7
			c-1.8,0-3.2-0.4-4.2-1.3c-1-0.8-1.6-2-1.6-3.3c0-1.3,0.5-2.4,1.5-3.2c1-0.8,2.5-1.2,4.6-1.2h5v-1c0-1.4-0.4-2.4-1.1-3.1
			c-0.8-0.7-1.9-1.1-3.3-1.1c-1,0-2,0.2-2.9,0.5s-1.7,0.8-2.4,1.4l-1-1.6c0.8-0.7,1.8-1.2,2.9-1.6c1.1-0.4,2.3-0.6,3.5-0.6
			C128.3,275.3,129.8,275.8,130.9,276.8z M128.5,288.8c0.9-0.5,1.5-1.3,1.9-2.4v-2.6h-5c-2.7,0-4,0.9-4,2.8c0,0.9,0.3,1.6,1,2.2
			c0.7,0.5,1.7,0.8,2.9,0.8C126.6,289.7,127.7,289.4,128.5,288.8z"/>
		<path class="st0" d="M137.8,268.9h2.1v22.3h-2.1V268.9z"/>
		<path class="st0" d="M176.9,277c1.1,1.1,1.7,2.8,1.7,5v9.1h-2.1v-8.9c0-1.6-0.4-2.9-1.2-3.8s-1.9-1.3-3.3-1.3
			c-1.6,0-2.9,0.5-3.9,1.5c-0.9,1-1.4,2.4-1.4,4.2v8.3h-2.1v-8.9c0-1.6-0.4-2.9-1.2-3.8s-1.9-1.3-3.4-1.3c-1.6,0-2.9,0.5-3.9,1.5
			c-1,1-1.4,2.4-1.4,4.2v8.3h-2.1v-15.8h2v2.9c0.6-1,1.3-1.7,2.3-2.2c1-0.5,2.1-0.8,3.4-0.8c1.3,0,2.5,0.3,3.4,0.8
			c1,0.6,1.7,1.4,2.2,2.5c0.6-1,1.4-1.9,2.5-2.4c1.1-0.6,2.3-0.9,3.7-0.9C174.2,275.3,175.7,275.9,176.9,277z"/>
		<path class="st0" d="M197.5,284h-13.2c0.1,1.6,0.8,3,1.9,4c1.1,1,2.6,1.5,4.3,1.5c1,0,1.9-0.2,2.7-0.5c0.8-0.3,1.5-0.9,2.1-1.5
			l1.2,1.4c-0.7,0.8-1.6,1.5-2.6,1.9s-2.2,0.7-3.5,0.7c-1.6,0-3.1-0.3-4.3-1c-1.2-0.7-2.2-1.6-2.9-2.9c-0.7-1.2-1.1-2.6-1.1-4.1
			c0-1.5,0.3-2.9,1-4.1s1.6-2.2,2.8-2.9c1.2-0.7,2.5-1,3.9-1s2.8,0.3,3.9,1c1.2,0.7,2.1,1.6,2.7,2.8c0.7,1.2,1,2.6,1,4.2L197.5,284z
			 M186.1,278.6c-1,1-1.6,2.2-1.8,3.8h11.2c-0.1-1.6-0.7-2.8-1.8-3.8c-1-1-2.3-1.5-3.9-1.5C188.4,277.1,187.1,277.6,186.1,278.6z"/>
		<path class="st0" d="M215.7,268.9v22.3h-2v-3.1c-0.6,1.1-1.5,1.9-2.5,2.4c-1,0.6-2.2,0.8-3.6,0.8c-1.5,0-2.8-0.3-4-1
			c-1.2-0.7-2.1-1.6-2.8-2.9c-0.7-1.2-1-2.6-1-4.2s0.3-2.9,1-4.2c0.7-1.2,1.6-2.2,2.8-2.8c1.2-0.7,2.5-1,4-1c1.3,0,2.4,0.3,3.5,0.8
			c1,0.5,1.9,1.3,2.5,2.3v-9.5H215.7z M210.8,288.7c0.9-0.5,1.6-1.2,2.1-2.2c0.5-0.9,0.8-2,0.8-3.2c0-1.2-0.3-2.3-0.8-3.2
			c-0.5-0.9-1.2-1.7-2.1-2.2c-0.9-0.5-1.9-0.8-3-0.8c-1.1,0-2.1,0.3-3,0.8c-0.9,0.5-1.6,1.2-2.1,2.2c-0.5,0.9-0.8,2-0.8,3.2
			c0,1.2,0.3,2.3,0.8,3.2c0.5,0.9,1.2,1.7,2.1,2.2c0.9,0.5,1.9,0.8,3,0.8C208.9,289.4,209.9,289.2,210.8,288.7z"/>
		<path class="st0" d="M221,271.5c-0.3-0.3-0.4-0.7-0.4-1.1c0-0.4,0.1-0.8,0.4-1.1c0.3-0.3,0.7-0.4,1.1-0.4s0.8,0.1,1.1,0.4
			c0.3,0.3,0.4,0.6,0.4,1c0,0.4-0.1,0.8-0.4,1.1c-0.3,0.3-0.7,0.5-1.1,0.5S221.3,271.8,221,271.5z M221.1,275.4h2.1v15.8h-2.1V275.4
			z"/>
		<path class="st0" d="M238.8,276.8c1.1,1,1.6,2.6,1.6,4.6v9.8h-2v-2.5c-0.5,0.8-1.2,1.5-2.1,1.9c-0.9,0.5-2,0.7-3.3,0.7
			c-1.8,0-3.2-0.4-4.2-1.3c-1-0.8-1.6-2-1.6-3.3c0-1.3,0.5-2.4,1.5-3.2c1-0.8,2.5-1.2,4.6-1.2h5v-1c0-1.4-0.4-2.4-1.1-3.1
			c-0.8-0.7-1.9-1.1-3.3-1.1c-1,0-2,0.2-2.9,0.5s-1.7,0.8-2.4,1.4l-1-1.6c0.8-0.7,1.8-1.2,2.9-1.6c1.1-0.4,2.3-0.6,3.5-0.6
			C236.1,275.3,237.7,275.8,238.8,276.8z M236.4,288.8c0.9-0.5,1.5-1.3,1.9-2.4v-2.6h-5c-2.7,0-4,0.9-4,2.8c0,0.9,0.3,1.6,1,2.2
			c0.7,0.5,1.7,0.8,2.9,0.8C234.5,289.7,235.5,289.4,236.4,288.8z"/>
		<path class="st0" d="M265,276.3c1.2,0.7,2.1,1.6,2.8,2.8c0.7,1.2,1,2.6,1,4.2c0,1.6-0.3,3-1,4.2c-0.7,1.2-1.6,2.2-2.8,2.8
			c-1.2,0.7-2.5,1-4,1c-1.3,0-2.4-0.3-3.5-0.8c-1-0.5-1.9-1.3-2.5-2.3v8.8h-2.1v-21.6h2v3.1c0.6-1,1.5-1.8,2.5-2.4
			c1.1-0.6,2.2-0.8,3.6-0.8C262.5,275.3,263.8,275.6,265,276.3z M263.9,288.7c0.9-0.5,1.6-1.2,2.1-2.2c0.5-0.9,0.8-2,0.8-3.2
			c0-1.2-0.3-2.3-0.8-3.2c-0.5-0.9-1.2-1.7-2.1-2.2c-0.9-0.5-1.9-0.8-3-0.8c-1.1,0-2.1,0.3-3,0.8c-0.9,0.5-1.6,1.2-2.1,2.2
			c-0.5,0.9-0.8,2-0.8,3.2c0,1.2,0.3,2.3,0.8,3.2c0.5,0.9,1.2,1.7,2.1,2.2c0.9,0.5,1.9,0.8,3,0.8C262,289.4,263,289.2,263.9,288.7z"
			/>
		<path class="st0" d="M272.6,268.9h2.1v22.3h-2.1V268.9z"/>
		<path class="st0" d="M290.4,276.8c1.1,1,1.6,2.6,1.6,4.6v9.8h-2v-2.5c-0.5,0.8-1.2,1.5-2.1,1.9c-0.9,0.5-2,0.7-3.3,0.7
			c-1.8,0-3.2-0.4-4.2-1.3c-1-0.8-1.6-2-1.6-3.3c0-1.3,0.5-2.4,1.5-3.2c1-0.8,2.5-1.2,4.6-1.2h5v-1c0-1.4-0.4-2.4-1.1-3.1
			c-0.8-0.7-1.9-1.1-3.3-1.1c-1,0-2,0.2-2.9,0.5s-1.7,0.8-2.4,1.4l-1-1.6c0.8-0.7,1.8-1.2,2.9-1.6c1.1-0.4,2.3-0.6,3.5-0.6
			C287.7,275.3,289.3,275.8,290.4,276.8z M288,288.8c0.9-0.5,1.5-1.3,1.9-2.4v-2.6h-5c-2.7,0-4,0.9-4,2.8c0,0.9,0.3,1.6,1,2.2
			c0.7,0.5,1.7,0.8,2.9,0.8C286.1,289.7,287.1,289.4,288,288.8z"/>
		<path class="st0" d="M310,277c1.2,1.1,1.8,2.8,1.8,5v9.1h-2.1v-8.9c0-1.6-0.4-2.9-1.2-3.8c-0.8-0.9-2-1.3-3.5-1.3
			c-1.7,0-3,0.5-4,1.5c-1,1-1.5,2.4-1.5,4.2v8.3h-2.1v-15.8h2v2.9c0.6-1,1.4-1.7,2.4-2.2c1-0.5,2.2-0.8,3.6-0.8
			C307.2,275.3,308.8,275.9,310,277z"/>
		<path class="st0" d="M347.3,275.4l-6,15.8h-2l-5-12.9l-5,12.9h-2l-5.9-15.8h2l5,13.4l5.1-13.4h1.8l5,13.4l5-13.4H347.3z"/>
		<path class="st0" d="M349.9,271.5c-0.3-0.3-0.5-0.7-0.5-1.1c0-0.4,0.1-0.8,0.5-1.1c0.3-0.3,0.7-0.4,1.1-0.4c0.4,0,0.8,0.1,1.1,0.4
			c0.3,0.3,0.5,0.6,0.5,1c0,0.4-0.2,0.8-0.5,1.1c-0.3,0.3-0.7,0.5-1.1,0.5C350.6,272,350.2,271.8,349.9,271.5z M349.9,275.4h2.1
			v15.8h-2.1V275.4z"/>
		<path class="st0" d="M365.7,290.2c-0.4,0.4-0.9,0.6-1.5,0.8c-0.6,0.2-1.2,0.3-1.8,0.3c-1.5,0-2.6-0.4-3.4-1.2
			c-0.8-0.8-1.2-1.9-1.2-3.4v-9.5h-2.8v-1.8h2.8V272h2.1v3.5h4.8v1.8h-4.8v9.4c0,0.9,0.2,1.7,0.7,2.1c0.5,0.5,1.1,0.7,2,0.7
			c0.4,0,0.9-0.1,1.3-0.2c0.4-0.1,0.8-0.3,1.1-0.6L365.7,290.2z"/>
		<path class="st0" d="M381.8,277c1.2,1.1,1.8,2.8,1.8,5v9.1h-2.1v-8.9c0-1.6-0.4-2.9-1.2-3.8s-2-1.3-3.5-1.3c-1.7,0-3,0.5-4,1.5
			s-1.5,2.4-1.5,4.2v8.3H369v-22.3h2.1v9.2c0.6-0.9,1.4-1.6,2.4-2.1s2.2-0.8,3.5-0.8C379,275.3,380.6,275.9,381.8,277z"/>
		<path class="st0" d="M404.7,275v3.6c-0.3-0.1-0.6-0.1-0.9-0.1c-1.5,0-2.6,0.4-3.4,1.3c-0.8,0.9-1.2,2.1-1.2,3.7v7.8h-3.8v-16h3.6
			v2.3C400.1,275.8,402,275,404.7,275z"/>
		<path class="st0" d="M422.1,284.4h-12.6c0.2,1.2,0.8,2.1,1.7,2.8c0.9,0.7,2.1,1,3.5,1c1.8,0,3.2-0.6,4.3-1.7l2,2.3
			c-0.7,0.9-1.6,1.5-2.7,1.9c-1.1,0.4-2.3,0.7-3.7,0.7c-1.8,0-3.3-0.3-4.7-1s-2.4-1.7-3.1-2.9c-0.7-1.2-1.1-2.7-1.1-4.2
			c0-1.6,0.4-3,1.1-4.2c0.7-1.2,1.7-2.2,3-2.9c1.3-0.7,2.7-1.1,4.3-1.1c1.6,0,3,0.3,4.2,1c1.2,0.7,2.2,1.7,2.9,2.9
			c0.7,1.2,1,2.7,1,4.3C422.2,283.5,422.2,283.9,422.1,284.4z M411.1,279.1c-0.8,0.7-1.3,1.7-1.5,2.8h9.1c-0.2-1.2-0.7-2.1-1.5-2.8
			c-0.8-0.7-1.8-1.1-3.1-1.1C412.9,278,411.9,278.3,411.1,279.1z"/>
		<path class="st0" d="M436.3,276.7c1.2,1.1,1.9,2.8,1.9,5.1v9.4h-3.5v-2c-0.5,0.7-1.1,1.2-2,1.6c-0.9,0.4-1.9,0.6-3.1,0.6
			s-2.2-0.2-3.2-0.6c-0.9-0.4-1.6-1-2.1-1.7c-0.5-0.7-0.7-1.6-0.7-2.5c0-1.4,0.5-2.6,1.6-3.5c1.1-0.9,2.8-1.3,5.1-1.3h4.1v-0.2
			c0-1.1-0.3-2-1-2.6c-0.7-0.6-1.7-0.9-3-0.9c-0.9,0-1.8,0.1-2.7,0.4c-0.9,0.3-1.6,0.7-2.2,1.2l-1.5-2.7c0.8-0.6,1.8-1.1,3-1.5
			c1.2-0.3,2.4-0.5,3.8-0.5C433.2,275,435,275.6,436.3,276.7z M432.9,288c0.7-0.4,1.2-1,1.5-1.8v-1.9h-3.9c-2.2,0-3.2,0.7-3.2,2.1
			c0,0.7,0.3,1.2,0.8,1.6c0.5,0.4,1.3,0.6,2.2,0.6C431.3,288.7,432.1,288.5,432.9,288z"/>
		<path class="st0" d="M442.4,268.9h3.8v22.3h-3.8V268.9z"/>
		<path class="st0" d="M51,320.4H38.4c0.2,1.2,0.8,2.1,1.7,2.8c0.9,0.7,2.1,1,3.5,1c1.8,0,3.2-0.6,4.4-1.7l2,2.3
			c-0.7,0.9-1.6,1.5-2.7,1.9c-1.1,0.4-2.3,0.7-3.7,0.7c-1.8,0-3.3-0.3-4.7-1s-2.4-1.7-3.1-2.9s-1.1-2.7-1.1-4.2c0-1.6,0.4-3,1.1-4.2
			c0.7-1.2,1.7-2.2,3-2.9c1.3-0.7,2.7-1.1,4.3-1.1c1.6,0,3,0.3,4.2,1s2.2,1.7,2.9,2.9s1,2.7,1,4.3C51,319.5,51,319.9,51,320.4z
			 M39.9,315.1c-0.8,0.7-1.3,1.7-1.5,2.8h9.1c-0.2-1.2-0.7-2.1-1.5-2.8c-0.8-0.7-1.8-1.1-3.1-1.1C41.7,314,40.7,314.3,39.9,315.1z"
			/>
		<path class="st0" d="M68,312.8c1.2,1.2,1.8,2.9,1.8,5.2v9.2H66v-8.7c0-1.4-0.3-2.5-1-3.2c-0.7-0.7-1.6-1.1-2.8-1.1
			c-1.4,0-2.5,0.4-3.3,1.2c-0.8,0.8-1.2,2-1.2,3.6v8.1H54v-16h3.6v2.1c0.6-0.7,1.4-1.3,2.3-1.7c0.9-0.4,2-0.6,3.2-0.6
			C65.1,311,66.7,311.6,68,312.8z"/>
		<path class="st0" d="M90,311.2v13.6c0,5.6-2.9,8.5-8.6,8.5c-1.5,0-3-0.2-4.4-0.6c-1.4-0.4-2.5-1-3.4-1.7l1.7-2.8
			c0.7,0.6,1.6,1,2.7,1.4c1.1,0.3,2.2,0.5,3.3,0.5c1.8,0,3-0.4,3.9-1.2c0.8-0.8,1.2-2,1.2-3.7v-0.8c-0.6,0.7-1.4,1.2-2.3,1.6
			c-0.9,0.4-1.9,0.5-3,0.5c-1.5,0-2.9-0.3-4.1-1c-1.2-0.7-2.2-1.6-2.9-2.7c-0.7-1.2-1.1-2.5-1.1-4.1c0-1.5,0.4-2.9,1.1-4
			c0.7-1.2,1.7-2.1,2.9-2.7c1.2-0.6,2.6-1,4.1-1c1.2,0,2.2,0.2,3.2,0.6s1.7,1,2.4,1.7v-2.1H90z M85,322c0.9-0.8,1.4-2,1.4-3.3
			c0-1.3-0.5-2.4-1.4-3.3c-0.9-0.8-2.1-1.3-3.5-1.3c-1.4,0-2.6,0.4-3.5,1.3c-0.9,0.8-1.4,1.9-1.4,3.3c0,1.4,0.5,2.5,1.4,3.3
			c0.9,0.9,2.1,1.3,3.5,1.3C82.9,323.3,84.1,322.9,85,322z"/>
		<path class="st0" d="M105.9,312.7c1.2,1.1,1.9,2.8,1.9,5.1v9.4h-3.5v-2c-0.5,0.7-1.1,1.2-2,1.6c-0.9,0.4-1.9,0.6-3.1,0.6
			s-2.2-0.2-3.1-0.6c-0.9-0.4-1.6-1-2.1-1.7c-0.5-0.7-0.7-1.6-0.7-2.5c0-1.4,0.5-2.6,1.6-3.5c1.1-0.9,2.8-1.3,5.1-1.3h4.1v-0.2
			c0-1.1-0.3-2-1-2.6c-0.7-0.6-1.7-0.9-3-0.9c-0.9,0-1.8,0.1-2.7,0.4c-0.9,0.3-1.6,0.7-2.2,1.2l-1.5-2.7c0.8-0.6,1.9-1.1,3-1.5
			c1.2-0.3,2.4-0.5,3.8-0.5C102.8,311,104.6,311.6,105.9,312.7z M102.5,324c0.7-0.4,1.2-1,1.5-1.8v-1.9h-3.9c-2.2,0-3.2,0.7-3.2,2.1
			c0,0.7,0.3,1.2,0.8,1.6c0.5,0.4,1.3,0.6,2.2,0.6C100.9,324.7,101.7,324.5,102.5,324z"/>
		<path class="st0" d="M128,311.2v13.6c0,5.6-2.9,8.5-8.6,8.5c-1.5,0-3-0.2-4.4-0.6c-1.4-0.4-2.5-1-3.4-1.7l1.7-2.8
			c0.7,0.6,1.6,1,2.7,1.4c1.1,0.3,2.2,0.5,3.3,0.5c1.8,0,3-0.4,3.9-1.2c0.8-0.8,1.2-2,1.2-3.7v-0.8c-0.6,0.7-1.4,1.2-2.3,1.6
			c-0.9,0.4-1.9,0.5-3,0.5c-1.5,0-2.9-0.3-4.1-1c-1.2-0.7-2.2-1.6-2.9-2.7c-0.7-1.2-1.1-2.5-1.1-4.1c0-1.5,0.4-2.9,1.1-4
			c0.7-1.2,1.7-2.1,2.9-2.7c1.2-0.6,2.6-1,4.1-1c1.2,0,2.2,0.2,3.2,0.6s1.7,1,2.4,1.7v-2.1H128z M122.9,322c0.9-0.8,1.4-2,1.4-3.3
			c0-1.3-0.5-2.4-1.4-3.3c-0.9-0.8-2.1-1.3-3.5-1.3c-1.4,0-2.6,0.4-3.5,1.3c-0.9,0.8-1.4,1.9-1.4,3.3c0,1.4,0.5,2.5,1.4,3.3
			c0.9,0.9,2.1,1.3,3.5,1.3C120.9,323.3,122,322.9,122.9,322z"/>
		<path class="st0" d="M147.3,320.4h-12.6c0.2,1.2,0.8,2.1,1.7,2.8c0.9,0.7,2.1,1,3.5,1c1.8,0,3.2-0.6,4.4-1.7l2,2.3
			c-0.7,0.9-1.6,1.5-2.7,1.9c-1.1,0.4-2.3,0.7-3.7,0.7c-1.8,0-3.3-0.3-4.7-1s-2.4-1.7-3.1-2.9s-1.1-2.7-1.1-4.2c0-1.6,0.4-3,1.1-4.2
			c0.7-1.2,1.7-2.2,3-2.9c1.3-0.7,2.7-1.1,4.3-1.1c1.6,0,3,0.3,4.2,1s2.2,1.7,2.9,2.9s1,2.7,1,4.3
			C147.4,319.5,147.4,319.9,147.3,320.4z M136.2,315.1c-0.8,0.7-1.3,1.7-1.5,2.8h9.1c-0.2-1.2-0.7-2.1-1.5-2.8
			c-0.8-0.7-1.8-1.1-3.1-1.1C138.1,314,137.1,314.3,136.2,315.1z"/>
		<path class="st0" d="M175.4,312.7c1.2,1.2,1.8,2.9,1.8,5.3v9.2h-3.8v-8.7c0-1.4-0.3-2.5-0.9-3.2c-0.6-0.7-1.5-1.1-2.7-1.1
			c-1.3,0-2.3,0.4-3,1.2c-0.8,0.8-1.1,2-1.1,3.6v8.1h-3.8v-8.7c0-1.4-0.3-2.5-0.9-3.2c-0.6-0.7-1.5-1.1-2.7-1.1
			c-1.3,0-2.3,0.4-3,1.2c-0.8,0.8-1.1,2-1.1,3.6v8.1h-3.8v-16h3.6v2c0.6-0.7,1.4-1.3,2.2-1.6c0.9-0.4,1.9-0.6,3-0.6
			c1.2,0,2.3,0.2,3.2,0.7c0.9,0.4,1.7,1.1,2.2,2c0.7-0.8,1.5-1.5,2.5-2c1-0.5,2.2-0.7,3.5-0.7C172.6,311,174.2,311.6,175.4,312.7z"
			/>
		<path class="st0" d="M196.5,320.4h-12.6c0.2,1.2,0.8,2.1,1.7,2.8c0.9,0.7,2.1,1,3.5,1c1.8,0,3.2-0.6,4.4-1.7l2,2.3
			c-0.7,0.9-1.6,1.5-2.7,1.9c-1.1,0.4-2.3,0.7-3.7,0.7c-1.8,0-3.3-0.3-4.7-1s-2.4-1.7-3.1-2.9s-1.1-2.7-1.1-4.2c0-1.6,0.4-3,1.1-4.2
			c0.7-1.2,1.7-2.2,3-2.9c1.3-0.7,2.7-1.1,4.3-1.1c1.6,0,3,0.3,4.2,1s2.2,1.7,2.9,2.9s1,2.7,1,4.3
			C196.6,319.5,196.6,319.9,196.5,320.4z M185.4,315.1c-0.8,0.7-1.3,1.7-1.5,2.8h9.1c-0.2-1.2-0.7-2.1-1.5-2.8
			c-0.8-0.7-1.8-1.1-3.1-1.1C187.3,314,186.3,314.3,185.4,315.1z"/>
		<path class="st0" d="M213.5,312.8c1.2,1.2,1.8,2.9,1.8,5.2v9.2h-3.8v-8.7c0-1.4-0.3-2.5-1-3.2c-0.7-0.7-1.6-1.1-2.8-1.1
			c-1.4,0-2.5,0.4-3.3,1.2c-0.8,0.8-1.2,2-1.2,3.6v8.1h-3.8v-16h3.6v2.1c0.6-0.7,1.4-1.3,2.3-1.7c0.9-0.4,2-0.6,3.2-0.6
			C210.7,311,212.3,311.6,213.5,312.8z"/>
		<path class="st0" d="M229.2,326.3c-0.4,0.4-1,0.6-1.6,0.8c-0.6,0.2-1.3,0.3-2,0.3c-1.8,0-3.1-0.5-4.1-1.4s-1.4-2.3-1.4-4v-7.7
			h-2.6v-3h2.6v-3.7h3.8v3.7h4.3v3h-4.3v7.6c0,0.8,0.2,1.4,0.6,1.8c0.4,0.4,0.9,0.6,1.6,0.6c0.8,0,1.5-0.2,2.1-0.7L229.2,326.3z"/>
		<path class="st0" d="M234.9,323.1c0.5,0.5,0.7,1.1,0.7,1.8c0,0.3,0,0.7-0.1,1c-0.1,0.3-0.3,0.9-0.6,1.6l-1.5,4.2H231l1.2-4.6
			c-0.4-0.2-0.8-0.5-1-0.9c-0.2-0.4-0.4-0.8-0.4-1.4c0-0.7,0.2-1.3,0.7-1.8c0.5-0.5,1-0.7,1.7-0.7
			C233.9,322.4,234.5,322.6,234.9,323.1z"/>
		<path class="st0" d="M246.5,307.9c-0.5-0.4-0.7-1-0.7-1.6c0-0.6,0.2-1.2,0.7-1.6c0.5-0.4,1-0.6,1.7-0.6c0.7,0,1.2,0.2,1.7,0.6
			c0.5,0.4,0.7,0.9,0.7,1.5c0,0.7-0.2,1.2-0.7,1.7c-0.5,0.5-1,0.7-1.7,0.7C247.6,308.5,247,308.3,246.5,307.9z M246.3,311.2h3.8v16
			h-3.8V311.2z"/>
		<path class="st0" d="M268.4,312.8c1.2,1.2,1.8,2.9,1.8,5.2v9.2h-3.8v-8.7c0-1.4-0.3-2.5-1-3.2c-0.7-0.7-1.6-1.1-2.8-1.1
			c-1.4,0-2.5,0.4-3.3,1.2c-0.8,0.8-1.2,2-1.2,3.6v8.1h-3.8v-16h3.6v2.1c0.6-0.7,1.4-1.3,2.3-1.7c0.9-0.4,2-0.6,3.2-0.6
			C265.5,311,267.1,311.6,268.4,312.8z"/>
		<path class="st0" d="M284,326.3c-0.4,0.4-1,0.6-1.6,0.8c-0.6,0.2-1.3,0.3-2,0.3c-1.8,0-3.1-0.5-4.1-1.4s-1.4-2.3-1.4-4v-7.7h-2.6
			v-3h2.6v-3.7h3.8v3.7h4.3v3h-4.3v7.6c0,0.8,0.2,1.4,0.6,1.8c0.4,0.4,0.9,0.6,1.6,0.6c0.8,0,1.5-0.2,2.1-0.7L284,326.3z"/>
		<path class="st0" d="M300.9,320.4h-12.6c0.2,1.2,0.8,2.1,1.7,2.8c0.9,0.7,2.1,1,3.5,1c1.8,0,3.2-0.6,4.4-1.7l2,2.3
			c-0.7,0.9-1.6,1.5-2.7,1.9c-1.1,0.4-2.3,0.7-3.7,0.7c-1.8,0-3.3-0.3-4.7-1s-2.4-1.7-3.1-2.9s-1.1-2.7-1.1-4.2c0-1.6,0.4-3,1.1-4.2
			c0.7-1.2,1.7-2.2,3-2.9c1.3-0.7,2.7-1.1,4.3-1.1c1.6,0,3,0.3,4.2,1s2.2,1.7,2.9,2.9s1,2.7,1,4.3C301,319.5,301,319.9,300.9,320.4z
			 M289.9,315.1c-0.8,0.7-1.3,1.7-1.5,2.8h9.1c-0.2-1.2-0.7-2.1-1.5-2.8c-0.8-0.7-1.8-1.1-3.1-1.1
			C291.7,314,290.7,314.3,289.9,315.1z"/>
		<path class="st0" d="M313.3,311v3.6c-0.3-0.1-0.6-0.1-0.9-0.1c-1.5,0-2.6,0.4-3.4,1.3c-0.8,0.9-1.2,2.1-1.2,3.7v7.8H304v-16h3.6
			v2.3C308.7,311.8,310.6,311,313.3,311z"/>
		<path class="st0" d="M327.3,312.7c1.2,1.1,1.9,2.8,1.9,5.1v9.4h-3.5v-2c-0.5,0.7-1.1,1.2-2,1.6c-0.9,0.4-1.9,0.6-3.1,0.6
			s-2.2-0.2-3.1-0.6c-0.9-0.4-1.6-1-2.1-1.7c-0.5-0.7-0.7-1.6-0.7-2.5c0-1.4,0.5-2.6,1.6-3.5c1.1-0.9,2.8-1.3,5.1-1.3h4.1v-0.2
			c0-1.1-0.3-2-1-2.6c-0.7-0.6-1.7-0.9-3-0.9c-0.9,0-1.8,0.1-2.7,0.4c-0.9,0.3-1.6,0.7-2.2,1.2l-1.5-2.7c0.8-0.6,1.9-1.1,3-1.5
			c1.2-0.3,2.4-0.5,3.8-0.5C324.2,311,326,311.6,327.3,312.7z M323.9,324c0.7-0.4,1.2-1,1.5-1.8v-1.9h-3.9c-2.2,0-3.2,0.7-3.2,2.1
			c0,0.7,0.3,1.2,0.8,1.6c0.5,0.4,1.3,0.6,2.3,0.6C322.3,324.7,323.1,324.5,323.9,324z"/>
		<path class="st0" d="M336.4,326.3c-1.3-0.7-2.4-1.7-3.1-2.9c-0.7-1.2-1.1-2.7-1.1-4.2s0.4-3,1.1-4.2c0.7-1.2,1.8-2.2,3.1-2.9
			c1.3-0.7,2.8-1.1,4.5-1.1c1.6,0,3,0.3,4.2,1c1.2,0.6,2.1,1.6,2.7,2.8l-2.9,1.7c-0.5-0.7-1-1.3-1.7-1.7c-0.7-0.4-1.4-0.6-2.3-0.6
			c-1.4,0-2.6,0.5-3.5,1.4s-1.4,2.1-1.4,3.6s0.5,2.7,1.4,3.6c0.9,0.9,2.1,1.4,3.5,1.4c0.8,0,1.6-0.2,2.3-0.6
			c0.7-0.4,1.3-0.9,1.7-1.7l2.9,1.7c-0.6,1.2-1.5,2.1-2.7,2.8c-1.2,0.7-2.6,1-4.1,1C339.2,327.4,337.7,327,336.4,326.3z"/>
		<path class="st0" d="M360.2,326.3c-0.4,0.4-1,0.6-1.6,0.8c-0.6,0.2-1.3,0.3-2,0.3c-1.8,0-3.1-0.5-4.1-1.4s-1.4-2.3-1.4-4v-7.7
			h-2.6v-3h2.6v-3.7h3.8v3.7h4.3v3h-4.3v7.6c0,0.8,0.2,1.4,0.6,1.8c0.4,0.4,0.9,0.6,1.7,0.6c0.8,0,1.5-0.2,2.1-0.7L360.2,326.3z"/>
		<path class="st0" d="M362.9,307.9c-0.5-0.4-0.7-1-0.7-1.6c0-0.6,0.2-1.2,0.7-1.6c0.5-0.4,1-0.6,1.7-0.6s1.2,0.2,1.7,0.6
			c0.5,0.4,0.7,0.9,0.7,1.5c0,0.7-0.2,1.2-0.7,1.7s-1,0.7-1.7,0.7C363.9,308.5,363.3,308.3,362.9,307.9z M362.7,311.2h3.8v16h-3.8
			V311.2z"/>
		<path class="st0" d="M373.6,326.3c-1.3-0.7-2.3-1.7-3-2.9c-0.7-1.2-1.1-2.7-1.1-4.2s0.4-3,1.1-4.2c0.7-1.2,1.7-2.2,3-2.9
			c1.3-0.7,2.8-1.1,4.4-1.1c1.6,0,3.1,0.4,4.4,1.1c1.3,0.7,2.3,1.7,3,2.9c0.7,1.2,1.1,2.7,1.1,4.2s-0.4,3-1.1,4.2
			c-0.7,1.2-1.7,2.2-3,2.9c-1.3,0.7-2.8,1-4.4,1C376.3,327.4,374.9,327,373.6,326.3z M381.4,322.8c0.9-0.9,1.3-2.1,1.3-3.6
			s-0.4-2.7-1.3-3.6c-0.9-0.9-2-1.4-3.4-1.4s-2.5,0.5-3.4,1.4c-0.9,0.9-1.3,2.1-1.3,3.6s0.4,2.7,1.3,3.6s2,1.4,3.4,1.4
			S380.5,323.7,381.4,322.8z"/>
		<path class="st0" d="M403.5,312.8c1.2,1.2,1.8,2.9,1.8,5.2v9.2h-3.8v-8.7c0-1.4-0.3-2.5-1-3.2c-0.7-0.7-1.6-1.1-2.8-1.1
			c-1.4,0-2.5,0.4-3.3,1.2c-0.8,0.8-1.2,2-1.2,3.6v8.1h-3.8v-16h3.6v2.1c0.6-0.7,1.4-1.3,2.3-1.7c0.9-0.4,2-0.6,3.2-0.6
			C400.6,311,402.2,311.6,403.5,312.8z"/>
		<path class="st0" d="M410.6,326.9c-1.2-0.3-2.2-0.8-3-1.3l1.4-2.8c0.7,0.5,1.6,0.9,2.6,1.2c1,0.3,2,0.4,3,0.4
			c2.2,0,3.4-0.6,3.4-1.8c0-0.6-0.3-0.9-0.9-1.2c-0.6-0.2-1.5-0.4-2.7-0.6c-1.3-0.2-2.4-0.4-3.2-0.7c-0.8-0.3-1.5-0.7-2.2-1.4
			c-0.6-0.6-0.9-1.6-0.9-2.7c0-1.5,0.6-2.7,1.9-3.6c1.3-0.9,3-1.4,5.1-1.4c1.1,0,2.2,0.1,3.3,0.4c1.1,0.3,2,0.6,2.7,1l-1.4,2.8
			c-1.4-0.8-2.9-1.2-4.6-1.2c-1.1,0-1.9,0.2-2.5,0.5c-0.6,0.3-0.9,0.8-0.9,1.3c0,0.6,0.3,1,0.9,1.3c0.6,0.3,1.6,0.5,2.8,0.7
			c1.3,0.2,2.3,0.4,3.2,0.7c0.8,0.3,1.5,0.7,2.1,1.3c0.6,0.6,0.9,1.5,0.9,2.6c0,1.5-0.7,2.7-2,3.6c-1.3,0.9-3.1,1.3-5.3,1.3
			C413.1,327.4,411.8,327.2,410.6,326.9z"/>
		<path class="st0" d="M443.5,312.7c1.2,1.1,1.9,2.8,1.9,5.1v9.4h-3.5v-2c-0.5,0.7-1.1,1.2-2,1.6c-0.9,0.4-1.9,0.6-3.1,0.6
			s-2.2-0.2-3.2-0.6c-0.9-0.4-1.6-1-2.1-1.7c-0.5-0.7-0.7-1.6-0.7-2.5c0-1.4,0.5-2.6,1.6-3.5c1.1-0.9,2.8-1.3,5.1-1.3h4.1v-0.2
			c0-1.1-0.3-2-1-2.6c-0.7-0.6-1.7-0.9-3-0.9c-0.9,0-1.8,0.1-2.7,0.4c-0.9,0.3-1.6,0.7-2.2,1.2l-1.5-2.7c0.8-0.6,1.8-1.1,3-1.5
			c1.2-0.3,2.4-0.5,3.8-0.5C440.5,311,442.3,311.6,443.5,312.7z M440.1,324c0.7-0.4,1.2-1,1.5-1.8v-1.9h-3.9c-2.2,0-3.2,0.7-3.2,2.1
			c0,0.7,0.3,1.2,0.8,1.6c0.5,0.4,1.3,0.6,2.2,0.6C438.5,324.7,439.4,324.5,440.1,324z"/>
		<path class="st0" d="M463.5,312.8c1.2,1.2,1.8,2.9,1.8,5.2v9.2h-3.8v-8.7c0-1.4-0.3-2.5-1-3.2c-0.7-0.7-1.6-1.1-2.8-1.1
			c-1.4,0-2.5,0.4-3.3,1.2c-0.8,0.8-1.2,2-1.2,3.6v8.1h-3.8v-16h3.6v2.1c0.6-0.7,1.4-1.3,2.3-1.7c0.9-0.4,2-0.6,3.2-0.6
			C460.7,311,462.3,311.6,463.5,312.8z"/>
		<path class="st0" d="M485.4,304.9v22.3h-3.6v-2.1c-0.6,0.8-1.4,1.3-2.3,1.7c-0.9,0.4-1.9,0.6-3,0.6c-1.5,0-2.9-0.3-4.2-1
			c-1.2-0.7-2.2-1.6-2.9-2.9c-0.7-1.2-1.1-2.7-1.1-4.3c0-1.6,0.3-3,1.1-4.3c0.7-1.2,1.7-2.2,2.9-2.9c1.2-0.7,2.6-1,4.2-1
			c1.1,0,2,0.2,2.9,0.5c0.9,0.4,1.6,0.9,2.2,1.6v-8.2H485.4z M479.4,323.6c0.7-0.4,1.3-1,1.7-1.8c0.4-0.8,0.6-1.6,0.6-2.6
			s-0.2-1.9-0.6-2.6c-0.4-0.8-1-1.3-1.7-1.8c-0.7-0.4-1.5-0.6-2.4-0.6c-0.9,0-1.7,0.2-2.4,0.6c-0.7,0.4-1.3,1-1.7,1.8
			c-0.4,0.8-0.6,1.6-0.6,2.6s0.2,1.9,0.6,2.6c0.4,0.8,1,1.3,1.7,1.8c0.7,0.4,1.5,0.6,2.4,0.6C477.8,324.2,478.6,324,479.4,323.6z"/>
		<path class="st0" d="M40.1,346.3v1h4.4v3h-4.3v12.9h-3.8v-12.9h-2.6v-3h2.6v-1c0-1.7,0.5-3.1,1.5-4.1c1-1,2.4-1.5,4.2-1.5
			c1.4,0,2.6,0.3,3.4,0.9l-1,2.8c-0.6-0.4-1.3-0.7-2.1-0.7C40.9,343.7,40.1,344.6,40.1,346.3z"/>
		<path class="st0" d="M49,362.3c-1.3-0.7-2.3-1.7-3-2.9s-1.1-2.7-1.1-4.2s0.4-3,1.1-4.2c0.7-1.2,1.7-2.2,3-2.9c1.3-0.7,2.8-1,4.4-1
			c1.6,0,3.1,0.4,4.4,1c1.3,0.7,2.3,1.7,3,2.9c0.7,1.2,1.1,2.7,1.1,4.2s-0.4,3-1.1,4.2c-0.7,1.2-1.7,2.2-3,2.9c-1.3,0.7-2.8,1-4.4,1
			C51.8,363.4,50.3,363,49,362.3z M56.8,358.8c0.9-0.9,1.4-2.1,1.4-3.6s-0.5-2.7-1.4-3.6s-2-1.4-3.4-1.4c-1.4,0-2.5,0.5-3.4,1.4
			c-0.9,0.9-1.3,2.1-1.3,3.6s0.4,2.7,1.3,3.6c0.9,0.9,2,1.4,3.4,1.4C54.8,360.2,55.9,359.7,56.8,358.8z"/>
		<path class="st0" d="M64.9,340.9h3.8v22.3h-3.8V340.9z"/>
		<path class="st0" d="M73,340.9h3.8v22.3H73V340.9z"/>
		<path class="st0" d="M83.9,362.3c-1.3-0.7-2.3-1.7-3-2.9s-1.1-2.7-1.1-4.2s0.4-3,1.1-4.2c0.7-1.2,1.7-2.2,3-2.9
			c1.3-0.7,2.8-1,4.4-1c1.6,0,3.1,0.4,4.4,1c1.3,0.7,2.3,1.7,3,2.9c0.7,1.2,1.1,2.7,1.1,4.2s-0.4,3-1.1,4.2c-0.7,1.2-1.7,2.2-3,2.9
			c-1.3,0.7-2.8,1-4.4,1C86.7,363.4,85.2,363,83.9,362.3z M91.7,358.8c0.9-0.9,1.4-2.1,1.4-3.6s-0.5-2.7-1.4-3.6s-2-1.4-3.4-1.4
			c-1.4,0-2.5,0.5-3.4,1.4c-0.9,0.9-1.3,2.1-1.3,3.6s0.4,2.7,1.3,3.6c0.9,0.9,2,1.4,3.4,1.4C89.7,360.2,90.8,359.7,91.7,358.8z"/>
		<path class="st0" d="M124.4,347.2l-5.9,16h-3.6l-4.1-11l-4.2,11h-3.6l-5.9-16h3.5l4.2,11.8l4.4-11.8h3.2l4.3,11.9l4.4-11.9H124.4z
			"/>
		<path class="st0" d="M140.9,356.4h-12.6c0.2,1.2,0.8,2.1,1.7,2.8c0.9,0.7,2.1,1,3.5,1c1.8,0,3.2-0.6,4.4-1.7l2,2.3
			c-0.7,0.9-1.6,1.5-2.7,2c-1.1,0.4-2.3,0.7-3.7,0.7c-1.8,0-3.3-0.3-4.7-1s-2.4-1.7-3.1-2.9s-1.1-2.7-1.1-4.2c0-1.6,0.4-3,1.1-4.2
			c0.7-1.2,1.7-2.2,3-2.9c1.3-0.7,2.7-1,4.3-1c1.6,0,3,0.3,4.2,1s2.2,1.7,2.9,2.9s1,2.7,1,4.3C141,355.5,140.9,355.9,140.9,356.4z
			 M129.8,351.1c-0.8,0.7-1.3,1.7-1.5,2.8h9.1c-0.2-1.2-0.7-2.1-1.5-2.8c-0.8-0.7-1.8-1.1-3.1-1.1
			C131.7,350,130.6,350.3,129.8,351.1z"/>
		<path class="st0" d="M153.2,347v3.6c-0.3-0.1-0.6-0.1-0.9-0.1c-1.5,0-2.6,0.4-3.4,1.3c-0.8,0.9-1.2,2.1-1.2,3.7v7.8H144v-16h3.6
			v2.3C148.6,347.8,150.5,347,153.2,347z"/>
		<path class="st0" d="M157,362.9c-1.2-0.3-2.2-0.8-3-1.3l1.4-2.9c0.7,0.5,1.6,0.9,2.6,1.2c1,0.3,2,0.4,3,0.4c2.2,0,3.4-0.6,3.4-1.8
			c0-0.6-0.3-0.9-0.9-1.2c-0.6-0.2-1.5-0.4-2.7-0.6c-1.3-0.2-2.4-0.4-3.2-0.7c-0.8-0.3-1.6-0.7-2.2-1.4c-0.6-0.7-0.9-1.6-0.9-2.7
			c0-1.5,0.6-2.7,1.9-3.6c1.3-0.9,3-1.4,5.1-1.4c1.1,0,2.2,0.1,3.3,0.4c1.1,0.3,2,0.6,2.7,1l-1.4,2.9c-1.4-0.8-2.9-1.2-4.6-1.2
			c-1.1,0-1.9,0.2-2.5,0.5s-0.9,0.8-0.9,1.3c0,0.6,0.3,1,0.9,1.3c0.6,0.2,1.6,0.5,2.8,0.7c1.3,0.2,2.3,0.4,3.1,0.7
			c0.8,0.3,1.5,0.7,2.1,1.3c0.6,0.6,0.9,1.5,0.9,2.6c0,1.5-0.6,2.7-1.9,3.6c-1.3,0.9-3.1,1.3-5.3,1.3
			C159.5,363.4,158.2,363.2,157,362.9z"/>
		<path class="st0" d="M186.8,362.2c-0.4,0.4-0.9,0.6-1.5,0.8c-0.6,0.2-1.2,0.3-1.8,0.3c-1.5,0-2.6-0.4-3.4-1.2s-1.2-1.9-1.2-3.4
			v-9.5H176v-1.8h2.8V344h2.1v3.5h4.8v1.8H181v9.4c0,0.9,0.2,1.7,0.7,2.1c0.5,0.5,1.1,0.7,2,0.7c0.4,0,0.9-0.1,1.3-0.2
			c0.4-0.1,0.8-0.3,1.1-0.6L186.8,362.2z"/>
		<path class="st0" d="M191.8,362.3c-1.2-0.7-2.2-1.6-2.9-2.9c-0.7-1.2-1.1-2.6-1.1-4.1s0.3-2.9,1.1-4.1c0.7-1.2,1.7-2.2,2.9-2.8
			c1.2-0.7,2.6-1,4.1-1c1.5,0,2.9,0.3,4.1,1s2.2,1.6,2.9,2.8c0.7,1.2,1,2.6,1,4.1s-0.3,2.9-1,4.1s-1.6,2.2-2.9,2.9
			c-1.2,0.7-2.6,1-4.1,1C194.4,363.3,193.1,363,191.8,362.3z M199,360.7c0.9-0.5,1.6-1.2,2.1-2.2c0.5-0.9,0.8-2,0.8-3.2
			c0-1.2-0.3-2.3-0.8-3.2c-0.5-0.9-1.2-1.7-2.1-2.2c-0.9-0.5-1.9-0.8-3-0.8s-2.1,0.3-3,0.8c-0.9,0.5-1.6,1.2-2.1,2.2
			c-0.5,0.9-0.8,2-0.8,3.2c0,1.2,0.3,2.3,0.8,3.2c0.5,0.9,1.2,1.7,2.1,2.2s1.9,0.8,3,0.8S198.1,361.2,199,360.7z"/>
		<path class="st0" d="M239.3,349c1.1,1.1,1.7,2.8,1.7,5v9.2h-2.1v-8.9c0-1.6-0.4-2.9-1.2-3.8c-0.8-0.9-1.9-1.3-3.3-1.3
			c-1.6,0-2.9,0.5-3.9,1.5c-0.9,1-1.4,2.4-1.4,4.2v8.3h-2.1v-8.9c0-1.6-0.4-2.9-1.2-3.8c-0.8-0.9-1.9-1.3-3.4-1.3
			c-1.6,0-2.9,0.5-3.9,1.5c-1,1-1.4,2.4-1.4,4.2v8.3H215v-15.8h2v2.9c0.6-1,1.3-1.7,2.3-2.2c1-0.5,2.1-0.8,3.4-0.8
			c1.3,0,2.5,0.3,3.4,0.8c1,0.6,1.7,1.4,2.2,2.5c0.6-1,1.4-1.9,2.5-2.4c1.1-0.6,2.3-0.9,3.7-0.9C236.6,347.3,238.2,347.9,239.3,349z
			"/>
		<path class="st0" d="M256.5,348.8c1.1,1,1.6,2.6,1.6,4.6v9.8h-2v-2.5c-0.5,0.8-1.2,1.5-2.1,1.9c-0.9,0.5-2,0.7-3.3,0.7
			c-1.8,0-3.2-0.4-4.2-1.3c-1-0.8-1.6-1.9-1.6-3.3c0-1.3,0.5-2.4,1.5-3.2c1-0.8,2.5-1.2,4.6-1.2h5v-1c0-1.4-0.4-2.4-1.1-3.1
			c-0.8-0.7-1.9-1.1-3.3-1.1c-1,0-2,0.2-2.9,0.5s-1.7,0.8-2.4,1.4l-1-1.6c0.8-0.7,1.8-1.2,2.9-1.6c1.1-0.4,2.3-0.6,3.5-0.6
			C253.8,347.3,255.4,347.8,256.5,348.8z M254.1,360.8c0.9-0.5,1.5-1.3,1.9-2.4v-2.6h-5c-2.7,0-4,0.9-4,2.8c0,0.9,0.3,1.6,1,2.2
			c0.7,0.5,1.7,0.8,2.9,0.8C252.2,361.7,253.2,361.4,254.1,360.8z"/>
		<path class="st0" d="M269.1,355.3l-3.7,3.4v4.5h-2.1v-22.3h2.1V356l9.4-8.6h2.6l-6.8,6.5l7.4,9.3h-2.6L269.1,355.3z"/>
		<path class="st0" d="M293.8,356h-13.2c0.1,1.6,0.8,3,1.9,4s2.6,1.5,4.3,1.5c1,0,1.9-0.2,2.7-0.5c0.8-0.3,1.5-0.9,2.1-1.5l1.2,1.4
			c-0.7,0.8-1.6,1.5-2.6,1.9s-2.2,0.7-3.5,0.7c-1.6,0-3.1-0.3-4.3-1c-1.2-0.7-2.2-1.6-2.9-2.9c-0.7-1.2-1.1-2.6-1.1-4.1
			s0.3-2.9,1-4.1c0.7-1.2,1.6-2.2,2.8-2.8s2.5-1,3.9-1s2.8,0.3,3.9,1c1.2,0.7,2.1,1.6,2.7,2.8s1,2.6,1,4.2L293.8,356z M282.4,350.6
			c-1,1-1.6,2.2-1.8,3.8h11.2c-0.1-1.6-0.7-2.8-1.8-3.8c-1-1-2.3-1.5-3.9-1.5C284.7,349.1,283.4,349.6,282.4,350.6z"/>
		<path class="st0" d="M315.1,348.8c1.1,1,1.6,2.6,1.6,4.6v9.8h-2v-2.5c-0.5,0.8-1.2,1.5-2.1,1.9c-0.9,0.5-2,0.7-3.3,0.7
			c-1.8,0-3.2-0.4-4.2-1.3c-1-0.8-1.6-1.9-1.6-3.3c0-1.3,0.5-2.4,1.5-3.2c1-0.8,2.5-1.2,4.6-1.2h5v-1c0-1.4-0.4-2.4-1.1-3.1
			c-0.8-0.7-1.9-1.1-3.3-1.1c-1,0-2,0.2-2.9,0.5s-1.7,0.8-2.4,1.4l-1-1.6c0.8-0.7,1.8-1.2,2.9-1.6c1.1-0.4,2.3-0.6,3.5-0.6
			C312.5,347.3,314,347.8,315.1,348.8z M312.7,360.8c0.9-0.5,1.5-1.3,1.9-2.4v-2.6h-5c-2.7,0-4,0.9-4,2.8c0,0.9,0.3,1.6,1,2.2
			c0.7,0.5,1.7,0.8,2.9,0.8C310.8,361.7,311.9,361.4,312.7,360.8z"/>
		<path class="st0" d="M343.6,340.9v22.3h-2v-3.1c-0.6,1.1-1.5,1.9-2.5,2.4c-1,0.6-2.2,0.8-3.6,0.8c-1.5,0-2.8-0.3-4-1
			c-1.2-0.7-2.1-1.6-2.8-2.8c-0.7-1.2-1-2.6-1-4.2c0-1.6,0.3-3,1-4.2c0.7-1.2,1.6-2.2,2.8-2.8s2.5-1,4-1c1.3,0,2.4,0.3,3.5,0.8
			c1,0.5,1.9,1.3,2.5,2.3v-9.5H343.6z M338.7,360.7c0.9-0.5,1.6-1.2,2.1-2.2s0.8-2,0.8-3.2c0-1.2-0.3-2.3-0.8-3.2
			c-0.5-0.9-1.2-1.7-2.1-2.2c-0.9-0.5-1.9-0.8-3-0.8c-1.1,0-2.1,0.3-3,0.8c-0.9,0.5-1.6,1.2-2.1,2.2c-0.5,0.9-0.8,2-0.8,3.2
			c0,1.2,0.3,2.3,0.8,3.2c0.5,0.9,1.2,1.7,2.1,2.2c0.9,0.5,1.9,0.8,3,0.8C336.8,361.4,337.8,361.2,338.7,360.7z"/>
		<path class="st0" d="M348.9,343.5c-0.3-0.3-0.5-0.7-0.5-1.1c0-0.4,0.1-0.8,0.5-1c0.3-0.3,0.7-0.5,1.1-0.5c0.4,0,0.8,0.1,1.1,0.4
			c0.3,0.3,0.5,0.6,0.5,1c0,0.4-0.2,0.8-0.5,1.1c-0.3,0.3-0.7,0.4-1.1,0.4C349.6,344,349.2,343.8,348.9,343.5z M349,347.4h2.1v15.8
			H349V347.4z"/>
		<path class="st0" d="M359.6,343.3c-0.5,0.5-0.7,1.2-0.7,2.2v1.9h4.9v1.8h-4.8v14h-2.1v-14H354v-1.8h2.8v-2c0-1.4,0.4-2.6,1.2-3.4
			c0.8-0.8,2-1.3,3.5-1.3c0.6,0,1.2,0.1,1.7,0.3c0.6,0.2,1,0.4,1.4,0.7l-0.7,1.6c-0.6-0.5-1.4-0.8-2.3-0.8
			C360.7,342.6,360,342.8,359.6,343.3z"/>
		<path class="st0" d="M369.2,343.3c-0.5,0.5-0.7,1.2-0.7,2.2v1.9h4.9v1.8h-4.8v14h-2.1v-14h-2.8v-1.8h2.8v-2c0-1.4,0.4-2.6,1.2-3.4
			c0.8-0.8,2-1.3,3.5-1.3c0.6,0,1.2,0.1,1.7,0.3c0.6,0.2,1,0.4,1.4,0.7l-0.7,1.6c-0.6-0.5-1.4-0.8-2.3-0.8
			C370.3,342.6,369.6,342.8,369.2,343.3z"/>
		<path class="st0" d="M389.1,356h-13.2c0.1,1.6,0.8,3,1.9,4c1.1,1,2.6,1.5,4.3,1.5c1,0,1.9-0.2,2.7-0.5s1.5-0.9,2.1-1.5l1.2,1.4
			c-0.7,0.8-1.6,1.5-2.6,1.9s-2.2,0.7-3.5,0.7c-1.6,0-3.1-0.3-4.3-1c-1.3-0.7-2.2-1.6-2.9-2.9s-1-2.6-1-4.1s0.3-2.9,1-4.1
			c0.7-1.2,1.6-2.2,2.8-2.8c1.2-0.7,2.5-1,3.9-1s2.8,0.3,3.9,1s2.1,1.6,2.7,2.8s1,2.6,1,4.2L389.1,356z M377.6,350.6
			c-1,1-1.6,2.2-1.8,3.8H387c-0.1-1.6-0.7-2.8-1.8-3.8c-1-1-2.3-1.5-3.9-1.5C379.9,349.1,378.6,349.6,377.6,350.6z"/>
		<path class="st0" d="M397.1,348.1c1-0.5,2.2-0.8,3.7-0.8v2.1l-0.5,0c-1.7,0-3,0.5-3.9,1.5c-0.9,1-1.4,2.5-1.4,4.3v8h-2.1v-15.8h2
			v3.1C395.4,349.4,396.1,348.6,397.1,348.1z"/>
		<path class="st0" d="M417.6,356h-13.2c0.1,1.6,0.8,3,1.9,4c1.1,1,2.6,1.5,4.3,1.5c1,0,1.9-0.2,2.7-0.5s1.5-0.9,2.1-1.5l1.2,1.4
			c-0.7,0.8-1.6,1.5-2.6,1.9s-2.2,0.7-3.5,0.7c-1.6,0-3.1-0.3-4.3-1c-1.3-0.7-2.2-1.6-2.9-2.9s-1-2.6-1-4.1s0.3-2.9,1-4.1
			c0.7-1.2,1.6-2.2,2.8-2.8c1.2-0.7,2.5-1,3.9-1s2.8,0.3,3.9,1s2.1,1.6,2.7,2.8s1,2.6,1,4.2L417.6,356z M406.2,350.6
			c-1,1-1.6,2.2-1.8,3.8h11.2c-0.1-1.6-0.7-2.8-1.8-3.8c-1-1-2.3-1.5-3.9-1.5C408.5,349.1,407.2,349.6,406.2,350.6z"/>
		<path class="st0" d="M434.2,349c1.2,1.2,1.8,2.8,1.8,5v9.2h-2.1v-8.9c0-1.6-0.4-2.9-1.2-3.8c-0.8-0.9-2-1.3-3.5-1.3
			c-1.7,0-3,0.5-4,1.5s-1.5,2.4-1.5,4.2v8.3h-2.1v-15.8h2v2.9c0.6-1,1.4-1.7,2.4-2.2c1-0.5,2.2-0.8,3.6-0.8
			C431.4,347.3,433,347.9,434.2,349z"/>
		<path class="st0" d="M443.5,362.3c-1.2-0.7-2.2-1.6-2.9-2.9c-0.7-1.2-1-2.6-1-4.2s0.3-2.9,1-4.1c0.7-1.2,1.7-2.2,2.9-2.8
			c1.2-0.7,2.6-1,4.2-1c1.4,0,2.6,0.3,3.6,0.8c1.1,0.5,1.9,1.3,2.5,2.3l-1.6,1.1c-0.5-0.8-1.2-1.4-2-1.8s-1.7-0.6-2.6-0.6
			c-1.1,0-2.2,0.3-3.1,0.8c-0.9,0.5-1.6,1.2-2.1,2.2c-0.5,0.9-0.8,2-0.8,3.2c0,1.2,0.3,2.3,0.8,3.2c0.5,0.9,1.2,1.7,2.1,2.2
			s1.9,0.8,3.1,0.8c0.9,0,1.8-0.2,2.6-0.6s1.5-1,2-1.7l1.6,1.1c-0.6,1-1.5,1.8-2.6,2.3c-1.1,0.5-2.3,0.8-3.6,0.8
			C446.1,363.3,444.8,363,443.5,362.3z"/>
		<path class="st0" d="M470.9,356h-13.2c0.1,1.6,0.8,3,1.9,4c1.1,1,2.6,1.5,4.3,1.5c1,0,1.9-0.2,2.7-0.5s1.5-0.9,2.1-1.5l1.2,1.4
			c-0.7,0.8-1.6,1.5-2.6,1.9s-2.2,0.7-3.5,0.7c-1.6,0-3.1-0.3-4.3-1c-1.3-0.7-2.2-1.6-2.9-2.9s-1-2.6-1-4.1s0.3-2.9,1-4.1
			c0.7-1.2,1.6-2.2,2.8-2.8c1.2-0.7,2.5-1,3.9-1s2.8,0.3,3.9,1s2.1,1.6,2.7,2.8s1,2.6,1,4.2L470.9,356z M459.5,350.6
			c-1,1-1.6,2.2-1.8,3.8h11.2c-0.1-1.6-0.7-2.8-1.8-3.8c-1-1-2.3-1.5-3.9-1.5C461.8,349.1,460.5,349.6,459.5,350.6z"/>
		<path class="st0" d="M481.9,343.5c-0.3-0.3-0.5-0.7-0.5-1.1c0-0.4,0.1-0.8,0.5-1c0.3-0.3,0.7-0.5,1.1-0.5c0.4,0,0.8,0.1,1.1,0.4
			c0.3,0.3,0.5,0.6,0.5,1c0,0.4-0.2,0.8-0.5,1.1c-0.3,0.3-0.7,0.4-1.1,0.4C482.6,344,482.2,343.8,481.9,343.5z M482,347.4h2.1v15.8
			H482V347.4z"/>
		<path class="st0" d="M502.2,349c1.2,1.2,1.8,2.8,1.8,5v9.2h-2.1v-8.9c0-1.6-0.4-2.9-1.2-3.8c-0.8-0.9-2-1.3-3.5-1.3
			c-1.7,0-3,0.5-4,1.5s-1.5,2.4-1.5,4.2v8.3h-2.1v-15.8h2v2.9c0.6-1,1.4-1.7,2.4-2.2c1-0.5,2.2-0.8,3.6-0.8
			C499.5,347.3,501,347.9,502.2,349z"/>
		<path class="st0" d="M524.7,362.2c-0.4,0.4-0.9,0.6-1.5,0.8c-0.6,0.2-1.2,0.3-1.8,0.3c-1.5,0-2.6-0.4-3.4-1.2
			c-0.8-0.8-1.2-1.9-1.2-3.4v-9.5h-2.8v-1.8h2.8V344h2.1v3.5h4.8v1.8h-4.8v9.4c0,0.9,0.2,1.7,0.7,2.1s1.1,0.7,2,0.7
			c0.4,0,0.9-0.1,1.3-0.2s0.8-0.3,1.1-0.6L524.7,362.2z"/>
		<path class="st0" d="M540.8,349c1.2,1.2,1.8,2.8,1.8,5v9.2h-2.1v-8.9c0-1.6-0.4-2.9-1.2-3.8c-0.8-0.9-2-1.3-3.5-1.3
			c-1.7,0-3,0.5-4,1.5s-1.5,2.4-1.5,4.2v8.3H528v-22.3h2.1v9.2c0.6-0.9,1.4-1.6,2.4-2.1c1-0.5,2.2-0.8,3.5-0.8
			C538,347.3,539.6,347.9,540.8,349z"/>
		<path class="st0" d="M561.5,356h-13.2c0.1,1.6,0.8,3,1.9,4c1.1,1,2.6,1.5,4.3,1.5c1,0,1.9-0.2,2.7-0.5s1.5-0.9,2.1-1.5l1.2,1.4
			c-0.7,0.8-1.6,1.5-2.6,1.9s-2.2,0.7-3.5,0.7c-1.6,0-3.1-0.3-4.3-1c-1.3-0.7-2.2-1.6-2.9-2.9s-1-2.6-1-4.1s0.3-2.9,1-4.1
			c0.7-1.2,1.6-2.2,2.8-2.8c1.2-0.7,2.5-1,3.9-1s2.8,0.3,3.9,1s2.1,1.6,2.7,2.8s1,2.6,1,4.2L561.5,356z M550,350.6
			c-1,1-1.6,2.2-1.8,3.8h11.2c-0.1-1.6-0.7-2.8-1.8-3.8c-1-1-2.3-1.5-3.9-1.5C552.4,349.1,551.1,349.6,550,350.6z"/>
		<path class="st0" d="M50.9,376.9v22.3h-2v-3.1c-0.6,1.1-1.5,1.9-2.5,2.4c-1,0.6-2.2,0.8-3.6,0.8c-1.5,0-2.8-0.3-4-1
			c-1.2-0.7-2.1-1.6-2.8-2.8c-0.7-1.2-1-2.6-1-4.2c0-1.6,0.3-3,1-4.2c0.7-1.2,1.6-2.2,2.8-2.8c1.2-0.7,2.5-1,4-1
			c1.3,0,2.4,0.3,3.5,0.8c1,0.5,1.9,1.3,2.5,2.3v-9.5H50.9z M45.9,396.7c0.9-0.5,1.6-1.2,2.1-2.2c0.5-0.9,0.8-2,0.8-3.2
			c0-1.2-0.3-2.3-0.8-3.2c-0.5-0.9-1.2-1.7-2.1-2.2c-0.9-0.5-1.9-0.8-3-0.8c-1.1,0-2.1,0.3-3,0.8c-0.9,0.5-1.6,1.2-2.1,2.2
			c-0.5,0.9-0.8,2-0.8,3.2c0,1.2,0.3,2.3,0.8,3.2c0.5,0.9,1.2,1.7,2.1,2.2s1.9,0.8,3,0.8C44,397.4,45,397.2,45.9,396.7z"/>
		<path class="st0" d="M56.2,379.5c-0.3-0.3-0.4-0.7-0.4-1.1c0-0.4,0.1-0.8,0.4-1c0.3-0.3,0.7-0.5,1.1-0.5s0.8,0.1,1.1,0.4
			c0.3,0.3,0.4,0.6,0.4,1c0,0.4-0.1,0.8-0.4,1.1c-0.3,0.3-0.7,0.4-1.1,0.4S56.5,379.8,56.2,379.5z M56.2,383.4h2.1v15.8h-2.1V383.4z
			"/>
		<path class="st0" d="M78.3,383.4v13.9c0,2.7-0.7,4.7-2,6c-1.3,1.3-3.3,1.9-5.9,1.9c-1.5,0-2.8-0.2-4.2-0.6c-1.3-0.4-2.4-1-3.2-1.8
			l1.1-1.6c0.8,0.7,1.7,1.2,2.8,1.6c1.1,0.4,2.2,0.6,3.4,0.6c2,0,3.5-0.5,4.4-1.4c0.9-0.9,1.4-2.4,1.4-4.3v-2
			c-0.7,1-1.5,1.8-2.6,2.3c-1.1,0.5-2.3,0.8-3.6,0.8c-1.5,0-2.8-0.3-4-1c-1.2-0.6-2.2-1.6-2.9-2.7s-1-2.5-1-4c0-1.5,0.3-2.8,1-4
			c0.7-1.2,1.6-2.1,2.8-2.7c1.2-0.6,2.5-1,4-1c1.3,0,2.6,0.3,3.6,0.8c1.1,0.5,1.9,1.3,2.6,2.3v-3H78.3z M73.3,396
			c0.9-0.5,1.6-1.2,2.1-2.1c0.5-0.9,0.8-1.9,0.8-3c0-1.1-0.3-2.1-0.8-3c-0.5-0.9-1.2-1.5-2.1-2c-0.9-0.5-1.9-0.7-3.1-0.7
			c-1.1,0-2.2,0.2-3.1,0.7c-0.9,0.5-1.6,1.2-2.1,2c-0.5,0.9-0.8,1.9-0.8,3c0,1.1,0.3,2.1,0.8,3c0.5,0.9,1.2,1.6,2.1,2.1
			c0.9,0.5,1.9,0.7,3.1,0.7C71.4,396.7,72.4,396.5,73.3,396z"/>
		<path class="st0" d="M83.6,379.5c-0.3-0.3-0.4-0.7-0.4-1.1c0-0.4,0.1-0.8,0.4-1c0.3-0.3,0.7-0.5,1.1-0.5s0.8,0.1,1.1,0.4
			c0.3,0.3,0.4,0.6,0.4,1c0,0.4-0.1,0.8-0.4,1.1c-0.3,0.3-0.7,0.4-1.1,0.4S83.9,379.8,83.6,379.5z M83.7,383.4h2.1v15.8h-2.1V383.4z
			"/>
		<path class="st0" d="M99.4,398.2c-0.4,0.4-0.9,0.6-1.5,0.8c-0.6,0.2-1.2,0.3-1.8,0.3c-1.5,0-2.6-0.4-3.4-1.2s-1.2-1.9-1.2-3.4
			v-9.5h-2.8v-1.8h2.8V380h2.1v3.5h4.8v1.8h-4.8v9.4c0,0.9,0.2,1.7,0.7,2.1c0.5,0.5,1.1,0.7,2,0.7c0.4,0,0.9-0.1,1.3-0.2
			c0.4-0.1,0.8-0.3,1.1-0.6L99.4,398.2z"/>
		<path class="st0" d="M113,384.8c1.1,1,1.6,2.6,1.6,4.6v9.8h-2v-2.5c-0.5,0.8-1.2,1.5-2.1,1.9c-0.9,0.5-2,0.7-3.3,0.7
			c-1.8,0-3.2-0.4-4.2-1.3c-1-0.8-1.6-1.9-1.6-3.3c0-1.3,0.5-2.4,1.5-3.2c1-0.8,2.5-1.2,4.6-1.2h5v-1c0-1.4-0.4-2.4-1.1-3.1
			c-0.8-0.7-1.9-1.1-3.3-1.1c-1,0-2,0.2-2.9,0.5s-1.7,0.8-2.4,1.4l-1-1.6c0.8-0.7,1.8-1.2,2.9-1.6c1.1-0.4,2.3-0.6,3.5-0.6
			C110.3,383.3,111.9,383.8,113,384.8z M110.6,396.8c0.9-0.5,1.5-1.3,1.9-2.4v-2.6h-5c-2.7,0-4,0.9-4,2.8c0,0.9,0.3,1.6,1,2.2
			c0.7,0.5,1.7,0.8,2.9,0.8C108.7,397.7,109.7,397.4,110.6,396.8z"/>
		<path class="st0" d="M119.8,376.9h2.1v22.3h-2.1V376.9z"/>
		<path class="st0" d="M148.3,392h-13.2c0.1,1.6,0.8,3,1.9,4s2.6,1.5,4.3,1.5c1,0,1.9-0.2,2.7-0.5c0.8-0.3,1.5-0.9,2.1-1.5l1.2,1.4
			c-0.7,0.8-1.6,1.5-2.6,1.9s-2.2,0.7-3.5,0.7c-1.6,0-3.1-0.3-4.3-1c-1.2-0.7-2.2-1.6-2.9-2.9c-0.7-1.2-1.1-2.6-1.1-4.1
			s0.3-2.9,1-4.1c0.7-1.2,1.6-2.2,2.8-2.8s2.5-1,3.9-1s2.8,0.3,3.9,1c1.2,0.7,2.1,1.6,2.7,2.8s1,2.6,1,4.2L148.3,392z M136.8,386.6
			c-1,1-1.6,2.2-1.8,3.8h11.2c-0.1-1.6-0.7-2.8-1.8-3.8c-1-1-2.3-1.5-3.9-1.5C139.1,385.1,137.9,385.6,136.8,386.6z"/>
		<path class="st0" d="M164.8,385c1.2,1.2,1.8,2.8,1.8,5v9.2h-2.1v-8.9c0-1.6-0.4-2.9-1.2-3.8c-0.8-0.9-2-1.3-3.5-1.3
			c-1.7,0-3,0.5-4,1.5c-1,1-1.5,2.4-1.5,4.2v8.3h-2.1v-15.8h2v2.9c0.6-1,1.4-1.7,2.4-2.2c1-0.5,2.2-0.8,3.6-0.8
			C162.1,383.3,163.7,383.9,164.8,385z"/>
		<path class="st0" d="M184.7,383.4l-7,15.8h-2.2l-7-15.8h2.2l5.9,13.4l6-13.4H184.7z"/>
		<path class="st0" d="M187.1,379.5c-0.3-0.3-0.4-0.7-0.4-1.1c0-0.4,0.1-0.8,0.4-1c0.3-0.3,0.7-0.5,1.1-0.5s0.8,0.1,1.1,0.4
			c0.3,0.3,0.4,0.6,0.4,1c0,0.4-0.1,0.8-0.4,1.1c-0.3,0.3-0.7,0.4-1.1,0.4S187.4,379.8,187.1,379.5z M187.1,383.4h2.1v15.8h-2.1
			V383.4z"/>
		<path class="st0" d="M198.9,384.1c1-0.5,2.2-0.8,3.7-0.8v2.1l-0.5,0c-1.7,0-3,0.5-3.9,1.5c-0.9,1-1.4,2.5-1.4,4.3v8h-2.1v-15.8h2
			v3.1C197.1,385.4,197.9,384.6,198.9,384.1z"/>
		<path class="st0" d="M208,398.3c-1.2-0.7-2.2-1.6-2.9-2.9c-0.7-1.2-1.1-2.6-1.1-4.1s0.3-2.9,1.1-4.1c0.7-1.2,1.7-2.2,2.9-2.8
			c1.2-0.7,2.6-1,4.1-1c1.5,0,2.9,0.3,4.1,1s2.2,1.6,2.9,2.8c0.7,1.2,1,2.6,1,4.1s-0.3,2.9-1,4.1s-1.6,2.2-2.9,2.9
			c-1.2,0.7-2.6,1-4.1,1C210.6,399.3,209.2,399,208,398.3z M215.1,396.7c0.9-0.5,1.6-1.2,2.1-2.2c0.5-0.9,0.8-2,0.8-3.2
			c0-1.2-0.3-2.3-0.8-3.2c-0.5-0.9-1.2-1.7-2.1-2.2c-0.9-0.5-1.9-0.8-3-0.8s-2.1,0.3-3,0.8c-0.9,0.5-1.6,1.2-2.1,2.2
			c-0.5,0.9-0.8,2-0.8,3.2c0,1.2,0.3,2.3,0.8,3.2c0.5,0.9,1.2,1.7,2.1,2.2s1.9,0.8,3,0.8S214.2,397.2,215.1,396.7z"/>
		<path class="st0" d="M236.6,385c1.2,1.2,1.8,2.8,1.8,5v9.2h-2.1v-8.9c0-1.6-0.4-2.9-1.2-3.8c-0.8-0.9-2-1.3-3.5-1.3
			c-1.7,0-3,0.5-4,1.5c-1,1-1.5,2.4-1.5,4.2v8.3h-2.1v-15.8h2v2.9c0.6-1,1.4-1.7,2.4-2.2c1-0.5,2.2-0.8,3.6-0.8
			C233.9,383.3,235.4,383.9,236.6,385z"/>
		<path class="st0" d="M267.9,385c1.1,1.1,1.7,2.8,1.7,5v9.2h-2.1v-8.9c0-1.6-0.4-2.9-1.2-3.8c-0.8-0.9-1.9-1.3-3.3-1.3
			c-1.6,0-2.9,0.5-3.9,1.5c-0.9,1-1.4,2.4-1.4,4.2v8.3h-2.1v-8.9c0-1.6-0.4-2.9-1.2-3.8c-0.8-0.9-1.9-1.3-3.4-1.3
			c-1.6,0-2.9,0.5-3.9,1.5c-1,1-1.4,2.4-1.4,4.2v8.3h-2.1v-15.8h2v2.9c0.6-1,1.3-1.7,2.3-2.2c1-0.5,2.1-0.8,3.4-0.8
			c1.3,0,2.5,0.3,3.4,0.8c1,0.6,1.7,1.4,2.2,2.5c0.6-1,1.4-1.9,2.5-2.4c1.1-0.6,2.3-0.9,3.7-0.9C265.2,383.3,266.8,383.9,267.9,385z
			"/>
		<path class="st0" d="M288.6,392h-13.2c0.1,1.6,0.8,3,1.9,4s2.6,1.5,4.3,1.5c1,0,1.9-0.2,2.7-0.5c0.8-0.3,1.5-0.9,2.1-1.5l1.2,1.4
			c-0.7,0.8-1.6,1.5-2.6,1.9s-2.2,0.7-3.5,0.7c-1.6,0-3.1-0.3-4.3-1c-1.2-0.7-2.2-1.6-2.9-2.9c-0.7-1.2-1.1-2.6-1.1-4.1
			s0.3-2.9,1-4.1c0.7-1.2,1.6-2.2,2.8-2.8s2.5-1,3.9-1s2.8,0.3,3.9,1c1.2,0.7,2.1,1.6,2.7,2.8s1,2.6,1,4.2L288.6,392z M277.1,386.6
			c-1,1-1.6,2.2-1.8,3.8h11.2c-0.1-1.6-0.7-2.8-1.8-3.8c-1-1-2.3-1.5-3.9-1.5C279.4,385.1,278.2,385.6,277.1,386.6z"/>
		<path class="st0" d="M305.1,385c1.2,1.2,1.8,2.8,1.8,5v9.2h-2.1v-8.9c0-1.6-0.4-2.9-1.2-3.8c-0.8-0.9-2-1.3-3.5-1.3
			c-1.7,0-3,0.5-4,1.5c-1,1-1.5,2.4-1.5,4.2v8.3h-2.1v-15.8h2v2.9c0.6-1,1.4-1.7,2.4-2.2c1-0.5,2.2-0.8,3.6-0.8
			C302.4,383.3,304,383.9,305.1,385z"/>
		<path class="st0" d="M320.4,398.2c-0.4,0.4-0.9,0.6-1.5,0.8c-0.6,0.2-1.2,0.3-1.8,0.3c-1.5,0-2.6-0.4-3.4-1.2s-1.2-1.9-1.2-3.4
			v-9.5h-2.8v-1.8h2.8V380h2.1v3.5h4.8v1.8h-4.8v9.4c0,0.9,0.2,1.7,0.7,2.1c0.5,0.5,1.1,0.7,2,0.7c0.4,0,0.9-0.1,1.3-0.2
			s0.8-0.3,1.1-0.6L320.4,398.2z"/>
		<path class="st0" d="M323,398.9c-0.3-0.3-0.5-0.7-0.5-1.2s0.2-0.8,0.5-1.2c0.3-0.3,0.7-0.5,1.1-0.5c0.4,0,0.8,0.2,1.1,0.5
			c0.3,0.3,0.5,0.7,0.5,1.2s-0.2,0.9-0.5,1.2c-0.3,0.3-0.7,0.5-1.1,0.5C323.7,399.3,323.3,399.2,323,398.9z"/>
		<path class="st0" d="M40.3,470.1c-1.7-0.9-3.1-2.2-4-3.9c-1-1.6-1.5-3.5-1.5-5.5c0-2.1,0.5-3.9,1.5-5.5c1-1.6,2.3-2.9,4-3.9
			c1.7-0.9,3.6-1.4,5.7-1.4c1.7,0,3.3,0.3,4.7,0.9c1.4,0.6,2.6,1.5,3.6,2.6l-2.5,2.4c-1.5-1.6-3.4-2.5-5.6-2.5
			c-1.4,0-2.7,0.3-3.9,0.9c-1.1,0.6-2,1.5-2.7,2.6c-0.6,1.1-1,2.4-1,3.8s0.3,2.7,1,3.8c0.6,1.1,1.5,2,2.7,2.6
			c1.1,0.6,2.4,0.9,3.9,0.9c2.2,0,4.1-0.8,5.6-2.5l2.5,2.4c-1,1.1-2.2,2-3.6,2.6c-1.4,0.6-3,0.9-4.7,0.9
			C43.9,471.5,42,471,40.3,470.1z"/>
		<path class="st0" d="M57.2,448.9h3.8v22.3h-3.8V448.9z"/>
		<path class="st0" d="M80.2,464.4H67.7c0.2,1.2,0.8,2.1,1.7,2.8c0.9,0.7,2.1,1,3.5,1c1.8,0,3.2-0.6,4.4-1.7l2,2.3
			c-0.7,0.9-1.6,1.5-2.7,2c-1.1,0.4-2.3,0.7-3.7,0.7c-1.8,0-3.3-0.3-4.7-1s-2.4-1.7-3.1-2.9s-1.1-2.7-1.1-4.2c0-1.6,0.4-3,1.1-4.2
			c0.7-1.2,1.7-2.2,3-2.9c1.3-0.7,2.7-1,4.3-1c1.6,0,3,0.3,4.2,1s2.2,1.7,2.9,2.9s1,2.7,1,4.3C80.3,463.5,80.3,463.9,80.2,464.4z
			 M69.2,459.1c-0.8,0.7-1.3,1.7-1.5,2.8h9.1c-0.2-1.2-0.7-2.1-1.5-2.8c-0.8-0.7-1.8-1.1-3.1-1.1C71,458,70,458.3,69.2,459.1z"/>
		<path class="st0" d="M94.4,456.7c1.2,1.1,1.9,2.8,1.9,5.1v9.4h-3.5v-2c-0.5,0.7-1.1,1.2-2,1.6c-0.9,0.4-1.9,0.6-3.1,0.6
			s-2.2-0.2-3.1-0.6c-0.9-0.4-1.6-1-2.1-1.7c-0.5-0.7-0.7-1.6-0.7-2.5c0-1.4,0.5-2.6,1.6-3.5s2.8-1.3,5.1-1.3h4.1v-0.2
			c0-1.1-0.3-2-1-2.6c-0.7-0.6-1.7-0.9-3-0.9c-0.9,0-1.8,0.1-2.7,0.4c-0.9,0.3-1.6,0.7-2.2,1.2l-1.5-2.7c0.8-0.6,1.9-1.1,3-1.5
			c1.2-0.3,2.4-0.5,3.8-0.5C91.3,455,93.1,455.6,94.4,456.7z M91,468c0.7-0.4,1.2-1,1.5-1.8v-1.9h-3.9c-2.2,0-3.2,0.7-3.2,2.1
			c0,0.7,0.3,1.2,0.8,1.6c0.5,0.4,1.3,0.6,2.2,0.6C89.4,468.7,90.2,468.5,91,468z"/>
		<path class="st0" d="M109.7,455v3.6c-0.3-0.1-0.6-0.1-0.9-0.1c-1.5,0-2.6,0.4-3.4,1.3c-0.8,0.9-1.2,2.1-1.2,3.7v7.8h-3.8v-16h3.6
			v2.3C105.1,455.8,107,455,109.7,455z"/>
		<path class="st0" d="M123,470.3c-1.3-0.7-2.3-1.7-3-2.9s-1.1-2.7-1.1-4.2s0.4-3,1.1-4.2c0.7-1.2,1.7-2.2,3-2.9
			c1.3-0.7,2.8-1,4.4-1c1.6,0,3.1,0.4,4.4,1c1.3,0.7,2.3,1.7,3,2.9c0.7,1.2,1.1,2.7,1.1,4.2s-0.4,3-1.1,4.2c-0.7,1.2-1.7,2.2-3,2.9
			c-1.3,0.7-2.8,1-4.4,1C125.7,471.4,124.3,471,123,470.3z M130.8,466.8c0.9-0.9,1.4-2.1,1.4-3.6s-0.5-2.7-1.4-3.6s-2-1.4-3.4-1.4
			c-1.4,0-2.5,0.5-3.4,1.4c-0.9,0.9-1.3,2.1-1.3,3.6s0.4,2.7,1.3,3.6c0.9,0.9,2,1.4,3.4,1.4C128.7,468.2,129.9,467.7,130.8,466.8z"
			/>
		<path class="st0" d="M152,456c1.2,0.7,2.2,1.6,2.9,2.9c0.7,1.2,1.1,2.7,1.1,4.3s-0.4,3.1-1.1,4.3c-0.7,1.2-1.7,2.2-2.9,2.9
			s-2.6,1-4.2,1c-1.1,0-2.1-0.2-3-0.6c-0.9-0.4-1.7-0.9-2.3-1.7v2.1h-3.6v-22.3h3.8v8.2c0.6-0.7,1.4-1.2,2.3-1.6
			c0.9-0.4,1.8-0.5,2.9-0.5C149.3,455,150.7,455.3,152,456z M150.8,466.8c0.9-0.9,1.3-2.1,1.3-3.6s-0.4-2.7-1.3-3.6
			c-0.9-0.9-2-1.4-3.4-1.4c-0.9,0-1.7,0.2-2.4,0.6c-0.7,0.4-1.3,1-1.7,1.8c-0.4,0.8-0.6,1.6-0.6,2.6s0.2,1.9,0.6,2.6
			c0.4,0.8,1,1.3,1.7,1.8c0.7,0.4,1.5,0.6,2.4,0.6C148.7,468.2,149.9,467.7,150.8,466.8z"/>
		<path class="st0" d="M153.6,476.3l1.1-2.8c0.6,0.4,1.3,0.6,2.2,0.6c0.7,0,1.2-0.2,1.6-0.6c0.4-0.4,0.6-1.1,0.6-1.9v-16.4h3.8v16.3
			c0,1.8-0.5,3.2-1.5,4.2s-2.4,1.5-4.1,1.5C155.6,477.2,154.4,476.9,153.6,476.3z M159.2,451.9c-0.5-0.4-0.7-1-0.7-1.6
			c0-0.6,0.2-1.2,0.7-1.6c0.5-0.4,1-0.6,1.7-0.6c0.7,0,1.2,0.2,1.7,0.6c0.5,0.4,0.7,0.9,0.7,1.5c0,0.7-0.2,1.2-0.7,1.7
			c-0.5,0.5-1,0.7-1.7,0.7C160.2,452.5,159.7,452.3,159.2,451.9z"/>
		<path class="st0" d="M182.1,464.4h-12.6c0.2,1.2,0.8,2.1,1.7,2.8c0.9,0.7,2.1,1,3.5,1c1.8,0,3.2-0.6,4.4-1.7l2,2.3
			c-0.7,0.9-1.6,1.5-2.7,2c-1.1,0.4-2.3,0.7-3.7,0.7c-1.8,0-3.3-0.3-4.7-1s-2.4-1.7-3.1-2.9s-1.1-2.7-1.1-4.2c0-1.6,0.4-3,1.1-4.2
			c0.7-1.2,1.7-2.2,3-2.9c1.3-0.7,2.7-1,4.3-1c1.6,0,3,0.3,4.2,1s2.2,1.7,2.9,2.9s1,2.7,1,4.3C182.2,463.5,182.2,463.9,182.1,464.4z
			 M171,459.1c-0.8,0.7-1.3,1.7-1.5,2.8h9.1c-0.2-1.2-0.7-2.1-1.5-2.8c-0.8-0.7-1.8-1.1-3.1-1.1C172.9,458,171.9,458.3,171,459.1z"
			/>
		<path class="st0" d="M188.1,470.3c-1.3-0.7-2.4-1.7-3.1-2.9c-0.7-1.2-1.1-2.7-1.1-4.2s0.4-3,1.1-4.2c0.7-1.2,1.8-2.2,3.1-2.9
			c1.3-0.7,2.8-1,4.5-1c1.6,0,3,0.3,4.2,1c1.2,0.6,2.1,1.6,2.7,2.8l-2.9,1.7c-0.5-0.7-1-1.3-1.7-1.7s-1.4-0.6-2.3-0.6
			c-1.4,0-2.6,0.5-3.5,1.4c-0.9,0.9-1.4,2.1-1.4,3.6s0.5,2.7,1.4,3.6c0.9,0.9,2.1,1.4,3.5,1.4c0.8,0,1.6-0.2,2.3-0.6
			s1.3-0.9,1.7-1.7l2.9,1.7c-0.6,1.2-1.5,2.1-2.7,2.8c-1.2,0.6-2.6,1-4.1,1C190.9,471.4,189.4,471,188.1,470.3z"/>
		<path class="st0" d="M211.8,470.3c-0.4,0.4-1,0.6-1.6,0.8c-0.6,0.2-1.3,0.3-2,0.3c-1.8,0-3.1-0.5-4.1-1.4s-1.4-2.3-1.4-4v-7.7
			h-2.6v-3h2.6v-3.7h3.8v3.7h4.3v3h-4.3v7.6c0,0.8,0.2,1.4,0.6,1.8c0.4,0.4,0.9,0.6,1.6,0.6c0.8,0,1.5-0.2,2.1-0.7L211.8,470.3z"/>
		<path class="st0" d="M214.5,451.9c-0.5-0.4-0.7-1-0.7-1.6c0-0.6,0.2-1.2,0.7-1.6c0.5-0.4,1-0.6,1.7-0.6c0.7,0,1.2,0.2,1.7,0.6
			c0.5,0.4,0.7,0.9,0.7,1.5c0,0.7-0.2,1.2-0.7,1.7c-0.5,0.5-1,0.7-1.7,0.7C215.5,452.5,215,452.3,214.5,451.9z M214.3,455.2h3.8v16
			h-3.8V455.2z"/>
		<path class="st0" d="M237.4,455.2l-6.9,16h-3.9l-6.9-16h3.9l5,11.9l5.1-11.9H237.4z"/>
		<path class="st0" d="M253.7,464.4h-12.6c0.2,1.2,0.8,2.1,1.7,2.8c0.9,0.7,2.1,1,3.5,1c1.8,0,3.2-0.6,4.4-1.7l2,2.3
			c-0.7,0.9-1.6,1.5-2.7,2c-1.1,0.4-2.3,0.7-3.7,0.7c-1.8,0-3.3-0.3-4.7-1s-2.4-1.7-3.1-2.9s-1.1-2.7-1.1-4.2c0-1.6,0.4-3,1.1-4.2
			c0.7-1.2,1.7-2.2,3-2.9c1.3-0.7,2.7-1,4.3-1c1.6,0,3,0.3,4.2,1s2.2,1.7,2.9,2.9s1,2.7,1,4.3C253.8,463.5,253.7,463.9,253.7,464.4z
			 M242.6,459.1c-0.8,0.7-1.3,1.7-1.5,2.8h9.1c-0.2-1.2-0.7-2.1-1.5-2.8c-0.8-0.7-1.8-1.1-3.1-1.1
			C244.5,458,243.4,458.3,242.6,459.1z"/>
		<path class="st0" d="M257.9,470.9c-1.2-0.3-2.2-0.8-3-1.3l1.4-2.9c0.7,0.5,1.6,0.9,2.6,1.2c1,0.3,2,0.4,3,0.4
			c2.2,0,3.4-0.6,3.4-1.8c0-0.6-0.3-0.9-0.9-1.2c-0.6-0.2-1.5-0.4-2.7-0.6c-1.3-0.2-2.4-0.4-3.2-0.7c-0.8-0.3-1.6-0.7-2.2-1.4
			c-0.6-0.7-0.9-1.6-0.9-2.7c0-1.5,0.6-2.7,1.9-3.6c1.3-0.9,3-1.4,5.1-1.4c1.1,0,2.2,0.1,3.3,0.4c1.1,0.3,2,0.6,2.7,1l-1.4,2.9
			c-1.4-0.8-2.9-1.2-4.6-1.2c-1.1,0-1.9,0.2-2.5,0.5s-0.9,0.8-0.9,1.3c0,0.6,0.3,1,0.9,1.3c0.6,0.2,1.6,0.5,2.8,0.7
			c1.3,0.2,2.3,0.4,3.1,0.7c0.8,0.3,1.5,0.7,2.1,1.3c0.6,0.6,0.9,1.5,0.9,2.6c0,1.5-0.6,2.7-1.9,3.6c-1.3,0.9-3.1,1.3-5.3,1.3
			C260.4,471.4,259.1,471.2,257.9,470.9z"/>
		<path class="st0" d="M290.8,456.7c1.2,1.1,1.9,2.8,1.9,5.1v9.4h-3.5v-2c-0.5,0.7-1.1,1.2-2,1.6c-0.9,0.4-1.9,0.6-3.1,0.6
			s-2.2-0.2-3.1-0.6c-0.9-0.4-1.6-1-2.1-1.7c-0.5-0.7-0.7-1.6-0.7-2.5c0-1.4,0.5-2.6,1.6-3.5s2.8-1.3,5.1-1.3h4.1v-0.2
			c0-1.1-0.3-2-1-2.6c-0.7-0.6-1.7-0.9-3-0.9c-0.9,0-1.8,0.1-2.7,0.4c-0.9,0.3-1.6,0.7-2.2,1.2l-1.5-2.7c0.8-0.6,1.9-1.1,3-1.5
			c1.2-0.3,2.4-0.5,3.8-0.5C287.8,455,289.6,455.6,290.8,456.7z M287.4,468c0.7-0.4,1.2-1,1.5-1.8v-1.9h-3.9c-2.2,0-3.2,0.7-3.2,2.1
			c0,0.7,0.3,1.2,0.8,1.6c0.5,0.4,1.3,0.6,2.2,0.6C285.8,468.7,286.7,468.5,287.4,468z"/>
		<path class="st0" d="M310.8,456.8c1.2,1.2,1.8,2.9,1.8,5.2v9.2h-3.8v-8.7c0-1.4-0.3-2.5-1-3.2c-0.7-0.7-1.6-1.1-2.8-1.1
			c-1.4,0-2.5,0.4-3.3,1.2c-0.8,0.8-1.2,2-1.2,3.6v8.1h-3.8v-16h3.6v2.1c0.6-0.7,1.4-1.3,2.3-1.7c0.9-0.4,2-0.6,3.2-0.6
			C308,455,309.6,455.6,310.8,456.8z"/>
		<path class="st0" d="M332.7,448.9v22.3h-3.6v-2.1c-0.6,0.8-1.4,1.3-2.3,1.7c-0.9,0.4-1.9,0.6-3,0.6c-1.5,0-2.9-0.3-4.2-1
			c-1.2-0.7-2.2-1.6-2.9-2.9c-0.7-1.2-1-2.7-1-4.3s0.3-3,1-4.3c0.7-1.2,1.7-2.2,2.9-2.9c1.2-0.7,2.6-1,4.2-1c1.1,0,2,0.2,2.9,0.5
			c0.9,0.4,1.6,0.9,2.2,1.6v-8.2H332.7z M326.7,467.6c0.7-0.4,1.3-1,1.7-1.8c0.4-0.8,0.6-1.6,0.6-2.6s-0.2-1.9-0.6-2.6
			c-0.4-0.8-1-1.3-1.7-1.8c-0.7-0.4-1.5-0.6-2.4-0.6s-1.7,0.2-2.4,0.6c-0.7,0.4-1.3,1-1.7,1.8c-0.4,0.8-0.6,1.6-0.6,2.6
			s0.2,1.9,0.6,2.6c0.4,0.8,1,1.3,1.7,1.8c0.7,0.4,1.5,0.6,2.4,0.6S325.9,468,326.7,467.6z"/>
		<path class="st0" d="M61,492.7c1.2,1.2,1.8,2.9,1.8,5.3v9.2H59v-8.7c0-1.4-0.3-2.5-0.9-3.2c-0.6-0.7-1.5-1.1-2.7-1.1
			c-1.3,0-2.3,0.4-3,1.2c-0.8,0.8-1.1,2-1.1,3.6v8.1h-3.8v-8.7c0-1.4-0.3-2.5-0.9-3.2c-0.6-0.7-1.5-1.1-2.7-1.1
			c-1.3,0-2.3,0.4-3,1.2c-0.8,0.8-1.1,2-1.1,3.6v8.1H36v-16h3.6v2c0.6-0.7,1.4-1.3,2.2-1.6c0.9-0.4,1.9-0.6,3-0.6
			c1.2,0,2.3,0.2,3.2,0.7c0.9,0.5,1.7,1.1,2.2,2c0.7-0.8,1.5-1.5,2.5-2c1-0.5,2.2-0.7,3.5-0.7C58.2,491,59.8,491.6,61,492.7z"/>
		<path class="st0" d="M82.1,500.4H69.5c0.2,1.2,0.8,2.1,1.7,2.8c0.9,0.7,2.1,1,3.5,1c1.8,0,3.2-0.6,4.4-1.7l2,2.3
			c-0.7,0.9-1.6,1.5-2.7,2c-1.1,0.4-2.3,0.7-3.7,0.7c-1.8,0-3.3-0.3-4.7-1s-2.4-1.7-3.1-2.9s-1.1-2.7-1.1-4.2c0-1.6,0.4-3,1.1-4.2
			c0.7-1.2,1.7-2.2,3-2.9c1.3-0.7,2.7-1,4.3-1c1.6,0,3,0.3,4.2,1s2.2,1.7,2.9,2.9s1,2.7,1,4.3C82.2,499.5,82.1,499.9,82.1,500.4z
			 M71,495.1c-0.8,0.7-1.3,1.7-1.5,2.8h9.1c-0.2-1.2-0.7-2.1-1.5-2.8c-0.8-0.7-1.8-1.1-3.1-1.1C72.9,494,71.8,494.3,71,495.1z"/>
		<path class="st0" d="M96.2,492.7c1.2,1.1,1.9,2.8,1.9,5.1v9.4h-3.5v-2c-0.5,0.7-1.1,1.2-2,1.6c-0.9,0.4-1.9,0.6-3.1,0.6
			s-2.2-0.2-3.1-0.6c-0.9-0.4-1.6-1-2.1-1.7c-0.5-0.7-0.7-1.6-0.7-2.5c0-1.4,0.5-2.6,1.6-3.5s2.8-1.3,5.1-1.3h4.1v-0.2
			c0-1.1-0.3-2-1-2.6c-0.7-0.6-1.7-0.9-3-0.9c-0.9,0-1.8,0.1-2.7,0.4c-0.9,0.3-1.6,0.7-2.2,1.2L84,493c0.8-0.6,1.9-1.1,3-1.5
			c1.2-0.3,2.4-0.5,3.8-0.5C93.2,491,95,491.6,96.2,492.7z M92.8,504c0.7-0.4,1.2-1,1.5-1.8v-1.9h-3.9c-2.2,0-3.2,0.7-3.2,2.1
			c0,0.7,0.3,1.2,0.8,1.6c0.5,0.4,1.3,0.6,2.2,0.6C91.3,504.7,92.1,504.5,92.8,504z"/>
		<path class="st0" d="M103.5,506.9c-1.2-0.3-2.2-0.8-3-1.3l1.4-2.9c0.7,0.5,1.6,0.9,2.6,1.2c1,0.3,2,0.4,3,0.4
			c2.2,0,3.4-0.6,3.4-1.8c0-0.6-0.3-0.9-0.9-1.2c-0.6-0.2-1.5-0.4-2.7-0.6c-1.3-0.2-2.4-0.4-3.2-0.7c-0.8-0.3-1.6-0.7-2.2-1.4
			c-0.6-0.7-0.9-1.6-0.9-2.7c0-1.5,0.6-2.7,1.9-3.6c1.3-0.9,3-1.4,5.1-1.4c1.1,0,2.2,0.1,3.3,0.4c1.1,0.3,2,0.6,2.7,1l-1.4,2.9
			c-1.4-0.8-2.9-1.2-4.6-1.2c-1.1,0-1.9,0.2-2.5,0.5s-0.9,0.8-0.9,1.3c0,0.6,0.3,1,0.9,1.3c0.6,0.2,1.6,0.5,2.8,0.7
			c1.3,0.2,2.3,0.4,3.1,0.7c0.8,0.3,1.5,0.7,2.1,1.3c0.6,0.6,0.9,1.5,0.9,2.6c0,1.5-0.6,2.7-1.9,3.6c-1.3,0.9-3.1,1.3-5.3,1.3
			C106,507.4,104.7,507.2,103.5,506.9z"/>
		<path class="st0" d="M132.7,491.2v16h-3.6v-2c-0.6,0.7-1.4,1.3-2.2,1.7s-1.9,0.6-2.9,0.6c-2.1,0-3.8-0.6-5.1-1.8
			c-1.2-1.2-1.8-3-1.8-5.3v-9.1h3.8v8.6c0,1.4,0.3,2.5,1,3.2c0.6,0.7,1.6,1.1,2.8,1.1c1.3,0,2.4-0.4,3.2-1.2c0.8-0.8,1.2-2,1.2-3.6
			v-8.1H132.7z"/>
		<path class="st0" d="M146.3,491v3.6c-0.3-0.1-0.6-0.1-0.9-0.1c-1.5,0-2.6,0.4-3.4,1.3c-0.8,0.9-1.2,2.1-1.2,3.7v7.8H137v-16h3.6
			v2.3C141.6,491.8,143.5,491,146.3,491z"/>
		<path class="st0" d="M160.3,492.7c1.2,1.1,1.9,2.8,1.9,5.1v9.4h-3.5v-2c-0.5,0.7-1.1,1.2-2,1.6c-0.9,0.4-1.9,0.6-3.1,0.6
			s-2.2-0.2-3.1-0.6c-0.9-0.4-1.6-1-2.1-1.7c-0.5-0.7-0.7-1.6-0.7-2.5c0-1.4,0.5-2.6,1.6-3.5s2.8-1.3,5.1-1.3h4.1v-0.2
			c0-1.1-0.3-2-1-2.6c-0.7-0.6-1.7-0.9-3-0.9c-0.9,0-1.8,0.1-2.7,0.4c-0.9,0.3-1.6,0.7-2.2,1.2l-1.5-2.7c0.8-0.6,1.9-1.1,3-1.5
			c1.2-0.3,2.4-0.5,3.8-0.5C157.2,491,159,491.6,160.3,492.7z M156.9,504c0.7-0.4,1.2-1,1.5-1.8v-1.9h-3.9c-2.2,0-3.2,0.7-3.2,2.1
			c0,0.7,0.3,1.2,0.8,1.6c0.5,0.4,1.3,0.6,2.2,0.6C155.3,504.7,156.1,504.5,156.9,504z"/>
		<path class="st0" d="M179.4,492c1.2,0.7,2.2,1.6,2.9,2.9c0.7,1.2,1.1,2.7,1.1,4.3s-0.4,3.1-1.1,4.3c-0.7,1.2-1.7,2.2-2.9,2.9
			s-2.6,1-4.2,1c-1.1,0-2.1-0.2-3-0.6c-0.9-0.4-1.7-0.9-2.3-1.7v2.1h-3.6v-22.3h3.8v8.2c0.6-0.7,1.4-1.2,2.3-1.6
			c0.9-0.4,1.8-0.5,2.9-0.5C176.8,491,178.2,491.3,179.4,492z M178.2,502.8c0.9-0.9,1.3-2.1,1.3-3.6s-0.4-2.7-1.3-3.6
			c-0.9-0.9-2-1.4-3.4-1.4c-0.9,0-1.7,0.2-2.4,0.6c-0.7,0.4-1.3,1-1.7,1.8c-0.4,0.8-0.6,1.6-0.6,2.6s0.2,1.9,0.6,2.6
			c0.4,0.8,1,1.3,1.7,1.8c0.7,0.4,1.5,0.6,2.4,0.6C176.2,504.2,177.3,503.7,178.2,502.8z"/>
		<path class="st0" d="M186.3,484.9h3.8v22.3h-3.8V484.9z"/>
		<path class="st0" d="M209.4,500.4h-12.6c0.2,1.2,0.8,2.1,1.7,2.8c0.9,0.7,2.1,1,3.5,1c1.8,0,3.2-0.6,4.4-1.7l2,2.3
			c-0.7,0.9-1.6,1.5-2.7,2c-1.1,0.4-2.3,0.7-3.7,0.7c-1.8,0-3.3-0.3-4.7-1s-2.4-1.7-3.1-2.9s-1.1-2.7-1.1-4.2c0-1.6,0.4-3,1.1-4.2
			c0.7-1.2,1.7-2.2,3-2.9c1.3-0.7,2.7-1,4.3-1c1.6,0,3,0.3,4.2,1s2.2,1.7,2.9,2.9s1,2.7,1,4.3C209.5,499.5,209.5,499.9,209.4,500.4z
			 M198.3,495.1c-0.8,0.7-1.3,1.7-1.5,2.8h9.1c-0.2-1.2-0.7-2.1-1.5-2.8c-0.8-0.7-1.8-1.1-3.1-1.1
			C200.2,494,199.2,494.3,198.3,495.1z"/>
		<path class="st0" d="M231.7,492.7c1.2,1.1,1.9,2.8,1.9,5.1v9.4H230v-2c-0.5,0.7-1.1,1.2-2,1.6c-0.9,0.4-1.9,0.6-3.1,0.6
			s-2.2-0.2-3.1-0.6c-0.9-0.4-1.6-1-2.1-1.7c-0.5-0.7-0.7-1.6-0.7-2.5c0-1.4,0.5-2.6,1.6-3.5s2.8-1.3,5.1-1.3h4.1v-0.2
			c0-1.1-0.3-2-1-2.6c-0.7-0.6-1.7-0.9-3-0.9c-0.9,0-1.8,0.1-2.7,0.4c-0.9,0.3-1.6,0.7-2.2,1.2l-1.5-2.7c0.8-0.6,1.9-1.1,3-1.5
			c1.2-0.3,2.4-0.5,3.8-0.5C228.6,491,230.4,491.6,231.7,492.7z M228.3,504c0.7-0.4,1.2-1,1.5-1.8v-1.9h-3.9c-2.2,0-3.2,0.7-3.2,2.1
			c0,0.7,0.3,1.2,0.8,1.6c0.5,0.4,1.3,0.6,2.2,0.6C226.7,504.7,227.5,504.5,228.3,504z"/>
		<path class="st0" d="M240.8,506.3c-1.3-0.7-2.4-1.7-3.1-2.9c-0.7-1.2-1.1-2.7-1.1-4.2s0.4-3,1.1-4.2c0.7-1.2,1.8-2.2,3.1-2.9
			c1.3-0.7,2.8-1,4.5-1c1.6,0,3,0.3,4.2,1c1.2,0.6,2.1,1.6,2.7,2.8l-2.9,1.7c-0.5-0.7-1-1.3-1.7-1.7s-1.4-0.6-2.3-0.6
			c-1.4,0-2.6,0.5-3.5,1.4c-0.9,0.9-1.4,2.1-1.4,3.6s0.5,2.7,1.4,3.6c0.9,0.9,2.1,1.4,3.5,1.4c0.8,0,1.6-0.2,2.3-0.6
			s1.3-0.9,1.7-1.7l2.9,1.7c-0.6,1.2-1.5,2.1-2.7,2.8c-1.2,0.6-2.6,1-4.1,1C243.6,507.4,242.1,507,240.8,506.3z"/>
		<path class="st0" d="M264.6,506.3c-0.4,0.4-1,0.6-1.6,0.8c-0.6,0.2-1.3,0.3-2,0.3c-1.8,0-3.1-0.5-4.1-1.4s-1.4-2.3-1.4-4v-7.7
			h-2.6v-3h2.6v-3.7h3.8v3.7h4.3v3h-4.3v7.6c0,0.8,0.2,1.4,0.6,1.8c0.4,0.4,0.9,0.6,1.6,0.6c0.8,0,1.5-0.2,2.1-0.7L264.6,506.3z"/>
		<path class="st0" d="M267.3,487.9c-0.5-0.4-0.7-1-0.7-1.6c0-0.6,0.2-1.2,0.7-1.6c0.5-0.4,1-0.6,1.7-0.6c0.7,0,1.2,0.2,1.7,0.6
			c0.5,0.4,0.7,0.9,0.7,1.5c0,0.7-0.2,1.2-0.7,1.7c-0.5,0.5-1,0.7-1.7,0.7C268.3,488.5,267.7,488.3,267.3,487.9z M267.1,491.2h3.8
			v16h-3.8V491.2z"/>
		<path class="st0" d="M278,506.3c-1.3-0.7-2.3-1.7-3-2.9s-1.1-2.7-1.1-4.2s0.4-3,1.1-4.2c0.7-1.2,1.7-2.2,3-2.9
			c1.3-0.7,2.8-1,4.4-1c1.6,0,3.1,0.4,4.4,1c1.3,0.7,2.3,1.7,3,2.9c0.7,1.2,1.1,2.7,1.1,4.2s-0.4,3-1.1,4.2c-0.7,1.2-1.7,2.2-3,2.9
			c-1.3,0.7-2.8,1-4.4,1C280.7,507.4,279.3,507,278,506.3z M285.8,502.8c0.9-0.9,1.4-2.1,1.4-3.6s-0.5-2.7-1.4-3.6s-2-1.4-3.4-1.4
			c-1.4,0-2.5,0.5-3.4,1.4c-0.9,0.9-1.3,2.1-1.3,3.6s0.4,2.7,1.3,3.6c0.9,0.9,2,1.4,3.4,1.4C283.7,504.2,284.9,503.7,285.8,502.8z"
			/>
		<path class="st0" d="M307.8,492.8c1.2,1.2,1.8,2.9,1.8,5.2v9.2h-3.8v-8.7c0-1.4-0.3-2.5-1-3.2c-0.7-0.7-1.6-1.1-2.8-1.1
			c-1.4,0-2.5,0.4-3.3,1.2c-0.8,0.8-1.2,2-1.2,3.6v8.1h-3.8v-16h3.6v2.1c0.6-0.7,1.4-1.3,2.3-1.7c0.9-0.4,2-0.6,3.2-0.6
			C305,491,306.6,491.6,307.8,492.8z"/>
		<path class="st0" d="M315,506.9c-1.2-0.3-2.2-0.8-3-1.3l1.4-2.9c0.7,0.5,1.6,0.9,2.6,1.2c1,0.3,2,0.4,3,0.4c2.2,0,3.4-0.6,3.4-1.8
			c0-0.6-0.3-0.9-0.9-1.2c-0.6-0.2-1.5-0.4-2.7-0.6c-1.3-0.2-2.4-0.4-3.2-0.7c-0.8-0.3-1.6-0.7-2.2-1.4c-0.6-0.7-0.9-1.6-0.9-2.7
			c0-1.5,0.6-2.7,1.9-3.6c1.3-0.9,3-1.4,5.1-1.4c1.1,0,2.2,0.1,3.3,0.4c1.1,0.3,2,0.6,2.7,1l-1.4,2.9c-1.4-0.8-2.9-1.2-4.6-1.2
			c-1.1,0-1.9,0.2-2.5,0.5s-0.9,0.8-0.9,1.3c0,0.6,0.3,1,0.9,1.3c0.6,0.2,1.6,0.5,2.8,0.7c1.3,0.2,2.3,0.4,3.2,0.7
			c0.8,0.3,1.5,0.7,2.1,1.3s0.9,1.5,0.9,2.6c0,1.5-0.7,2.7-2,3.6c-1.3,0.9-3.1,1.3-5.3,1.3C317.5,507.4,316.2,507.2,315,506.9z"/>
		<path class="st0" d="M328.2,506.7c-0.5-0.5-0.7-1.1-0.7-1.8c0-0.7,0.2-1.3,0.7-1.8c0.5-0.5,1.1-0.7,1.8-0.7c0.7,0,1.3,0.2,1.8,0.7
			s0.7,1.1,0.7,1.8c0,0.7-0.2,1.3-0.7,1.8c-0.5,0.5-1.1,0.7-1.7,0.7C329.2,507.4,328.6,507.2,328.2,506.7z"/>
	</g>
</g>
</svg>
