<?xml version="1.0" encoding="utf-8"?>
<!-- Generator: Adobe Illustrator 25.2.3, SVG Export Plug-In . SVG Version: 6.00 Build 0)  -->
<svg version="1.1" id="Layer_1" xmlns="http://www.w3.org/2000/svg" xmlns:xlink="http://www.w3.org/1999/xlink" x="0px" y="0px"
	 viewBox="0 0 640 640" style="enable-background:new 0 0 640 640;" xml:space="preserve">
<style type="text/css">
	.st0{fill:none;stroke:#434244;stroke-width:0.5;stroke-miterlimit:10;}
	.st1{fill:#087892;}
</style>
<g id="b5fb1a19-5980-48c9-8dac-d8ad16350dac">
	
		<image style="overflow:visible;enable-background:new    ;" width="493" height="717" xlink:href="537ED2F4DE2D245A.jpeg"  transform="matrix(0.46 0 0 0.46 375.51 253.9598)">
	</image>
	<line class="st0" x1="32.5" y1="590.6" x2="609.8" y2="590.6"/>
	<path class="st1" d="M44.5,77.9c-2.5-1.3-4.6-3.3-6.1-5.8c-2.9-5.1-2.9-11.5,0-16.6c1.5-2.4,3.6-4.4,6.1-5.7
		c2.7-1.4,5.6-2.1,8.7-2.1c2.5,0,5,0.5,7.3,1.4c2.1,0.9,4,2.3,5.5,4.1l-4.6,4.3c-1.9-2.3-4.8-3.7-7.8-3.7c-1.8,0-3.6,0.4-5.2,1.3
		c-1.5,0.8-2.7,2.1-3.5,3.5c-1.7,3.2-1.7,7.1,0,10.3c0.8,1.5,2,2.7,3.5,3.5c1.6,0.9,3.4,1.3,5.2,1.3c3,0,5.9-1.3,7.8-3.7l4.7,4.3
		c-1.5,1.8-3.4,3.2-5.5,4.1c-2.3,1-4.8,1.5-7.3,1.4C50.1,80,47.1,79.3,44.5,77.9z"/>
	<path class="st1" d="M93.8,55.4v24h-6.6v-2.9c-0.9,1-2,1.8-3.3,2.4c-1.3,0.6-2.7,0.8-4.1,0.8c-2.8,0.1-5.5-0.8-7.5-2.7
		c-1.8-1.8-2.8-4.5-2.8-8.1V55.4h7V68c0,3.9,1.6,5.8,4.8,5.8c1.5,0.1,3-0.5,4-1.6c1.1-1.4,1.6-3.1,1.5-4.8V55.4H93.8z"/>
	<path class="st1" d="M102.5,79c-1.6-0.4-3.1-1-4.5-1.8l2.3-5c1.2,0.7,2.5,1.3,3.9,1.7c1.4,0.4,3,0.6,4.5,0.7c2.9,0,4.4-0.7,4.4-2.2
		c0-0.7-0.5-1.3-1.2-1.5c-1.2-0.4-2.4-0.6-3.7-0.8c-1.6-0.2-3.3-0.6-4.9-1c-1.3-0.4-2.4-1.1-3.3-2.1c-1-1.2-1.5-2.7-1.4-4.2
		c0-1.4,0.4-2.8,1.3-4c1-1.3,2.3-2.2,3.8-2.7c1.9-0.7,3.9-1,5.9-1c1.7,0,3.4,0.2,5.1,0.5c1.5,0.3,2.9,0.8,4.2,1.5l-2.3,5
		c-2.1-1.2-4.5-1.8-6.9-1.8c-1.1-0.1-2.3,0.1-3.3,0.6c-0.6,0.3-1.1,0.9-1.1,1.6c0,0.7,0.5,1.4,1.2,1.6c1.2,0.4,2.5,0.7,3.8,0.8
		c1.6,0.2,3.2,0.6,4.8,1c1.2,0.4,2.4,1.1,3.2,2c1,1.1,1.5,2.6,1.4,4.1c0,1.4-0.4,2.9-1.3,4c-1,1.3-2.4,2.2-3.9,2.7c-2,0.7-4,1-6.1,1
		C106.4,79.8,104.5,79.5,102.5,79z"/>
	<path class="st1" d="M139.4,78.2c-0.8,0.5-1.6,0.9-2.5,1.1c-1,0.3-2.1,0.4-3.1,0.4c-2.4,0.2-4.8-0.6-6.6-2.2
		c-1.6-1.4-2.3-3.6-2.3-6.4v-9.8h-3.7V56h3.7v-5.9h7V56h6v5.3h-6v9.8c-0.1,0.9,0.2,1.7,0.8,2.3c0.6,0.6,1.4,0.9,2.2,0.8
		c1,0,2-0.3,2.8-0.9L139.4,78.2z"/>
	<path class="st1" d="M147.2,78.2c-1.9-1-3.6-2.5-4.7-4.4c-2.3-3.9-2.3-8.8,0-12.7c1.1-1.9,2.7-3.4,4.7-4.4c2.1-1.1,4.4-1.6,6.8-1.6
		c2.4,0,4.7,0.5,6.8,1.6c1.9,1,3.5,2.5,4.7,4.4c2.3,3.9,2.3,8.8,0,12.7c-1.1,1.9-2.7,3.4-4.7,4.4c-2.1,1.1-4.4,1.6-6.8,1.6
		C151.6,79.8,149.3,79.3,147.2,78.2z M158.4,72.3c2.3-2.8,2.3-6.9,0-9.7c-1.1-1.2-2.7-1.9-4.4-1.8c-1.7-0.1-3.3,0.6-4.4,1.8
		c-2.3,2.8-2.3,6.9,0,9.7c1.1,1.2,2.8,1.9,4.4,1.8C155.6,74.1,157.2,73.5,158.4,72.3L158.4,72.3z"/>
	<path class="st1" d="M209.6,57.7c1.8,1.8,2.6,4.4,2.6,7.9v13.7h-6.9V66.8c0.1-1.5-0.3-3-1.2-4.3c-0.8-1-2.1-1.5-3.4-1.4
		c-1.5-0.1-2.9,0.5-3.9,1.6c-1,1.3-1.5,3-1.4,4.7v12h-6.9V66.8c0-3.8-1.5-5.7-4.5-5.7c-1.4-0.1-2.8,0.5-3.8,1.6
		c-1,1.3-1.6,3-1.4,4.7v12h-6.9v-24h6.6v2.8c0.9-1,2-1.8,3.3-2.3c1.4-0.5,2.8-0.8,4.2-0.8c1.6,0,3.2,0.3,4.6,1
		c1.4,0.7,2.5,1.7,3.3,3c1-1.3,2.3-2.2,3.7-2.9c1.5-0.7,3.2-1,4.9-1C205.1,55,207.7,55.9,209.6,57.7z"/>
	<path class="st1" d="M242.1,69.4h-18.1c0.3,1.4,1.1,2.7,2.3,3.5c1.3,0.9,2.9,1.3,4.5,1.3c1.1,0,2.3-0.2,3.3-0.6
		c1-0.4,1.9-1,2.7-1.8l3.7,4c-2.3,2.6-5.6,3.9-9.9,3.9c-2.5,0-4.9-0.5-7.2-1.6c-2-1-3.7-2.5-4.8-4.4c-1.1-1.9-1.7-4.1-1.6-6.4
		c0-2.2,0.5-4.4,1.7-6.3c1.1-1.9,2.7-3.4,4.6-4.4c2-1.1,4.2-1.6,6.5-1.6c2.2,0,4.4,0.5,6.4,1.5c1.9,1,3.4,2.5,4.5,4.3
		c1.1,2,1.7,4.3,1.6,6.6C242.2,67.6,242.2,68.2,242.1,69.4z M225.8,61.7c-1.1,0.9-1.8,2.2-2,3.6h11.8c-0.2-1.4-0.9-2.7-2-3.6
		c-1.1-0.9-2.5-1.4-3.9-1.4C228.3,60.3,226.9,60.8,225.8,61.7L225.8,61.7z"/>
	<path class="st1" d="M256.8,56c1.6-0.6,3.2-0.9,4.9-0.9v6.4c-0.8-0.1-1.3-0.1-1.6-0.1c-1.7-0.1-3.4,0.5-4.7,1.7
		c-1.2,1.4-1.8,3.2-1.7,5v11.3h-6.9v-24h6.6v3.2C254.3,57.4,255.5,56.5,256.8,56z"/>
	<path class="st1" d="M62.3,119.9v5.8H38.2V94.5h23.6v5.8H45.3v6.8h14.5v5.6H45.3v7.2H62.3z"/>
	<path class="st1" d="M82.5,125.7l-5.2-7.3l-5.4,7.3h-7.6l9.2-12.1l-8.9-11.9h7.8l5.1,7l5.2-7H90l-8.9,11.7l9.3,12.2H82.5z"/>
	<path class="st1" d="M114,102.9c1.8,1,3.3,2.5,4.3,4.3c2.1,4.1,2.1,8.9,0,13c-1,1.8-2.5,3.3-4.3,4.3c-1.9,1-4,1.6-6.1,1.5
		c-2.7,0.1-5.4-0.9-7.2-2.9v11.2h-6.9v-32.6h6.6v2.8c1.7-2.1,4.2-3.1,7.5-3.1C110,101.4,112.1,101.9,114,102.9z M111.1,118.6
		c2.3-2.8,2.3-6.8,0-9.7c-2.4-2.4-6.3-2.4-8.8,0c-2.3,2.8-2.3,6.9,0,9.7C104.8,121,108.7,121,111.1,118.6z"/>
	<path class="st1" d="M147.8,115.7h-18.1c0.3,1.4,1.1,2.7,2.3,3.5c1.3,0.9,2.9,1.3,4.5,1.3c1.1,0,2.3-0.2,3.3-0.6
		c1-0.4,1.9-1,2.7-1.8l3.7,4c-2.3,2.6-5.6,3.9-9.9,3.9c-2.5,0-4.9-0.5-7.2-1.6c-2-1-3.7-2.5-4.8-4.4c-1.1-1.9-1.7-4.1-1.7-6.4
		c0-2.2,0.5-4.4,1.7-6.3c1.1-1.9,2.7-3.4,4.6-4.4c4-2.1,8.8-2.1,12.9-0.1c1.9,1,3.4,2.5,4.5,4.3c1.1,2,1.7,4.3,1.6,6.6
		C148,113.9,147.9,114.5,147.8,115.7z M131.6,108c-1.1,0.9-1.8,2.2-2,3.7h11.8c-0.4-2.9-2.9-5.1-5.9-5
		C134.1,106.6,132.7,107.1,131.6,108z"/>
	<path class="st1" d="M162.6,102.3c1.6-0.6,3.2-0.9,4.9-0.9v6.4c-0.8-0.1-1.3-0.1-1.6-0.1c-1.7-0.1-3.4,0.5-4.7,1.7
		c-1.2,1.4-1.8,3.2-1.7,5v11.3h-6.9v-24h6.6v3.2C160.1,103.7,161.3,102.8,162.6,102.3z"/>
	<path class="st1" d="M172,97.3c-1.5-1.4-1.6-3.8-0.2-5.3c0.1-0.1,0.1-0.2,0.2-0.2c0.9-0.8,2-1.2,3.1-1.1c1.1,0,2.2,0.3,3.1,1.1
		c0.8,0.7,1.2,1.6,1.2,2.7c0,1.1-0.4,2.1-1.2,2.9C176.4,98.8,173.8,98.8,172,97.3L172,97.3z M171.6,101.8h6.9v24h-6.9V101.8z"/>
	<path class="st1" d="M208.4,115.7h-18.1c0.3,1.4,1.1,2.7,2.3,3.5c1.3,0.9,2.9,1.3,4.6,1.3c1.1,0,2.2-0.2,3.3-0.6
		c1-0.4,1.9-1,2.7-1.8l3.7,4c-2.3,2.6-5.6,3.9-9.9,3.9c-2.5,0-4.9-0.5-7.2-1.6c-2-1-3.7-2.5-4.8-4.4c-2.2-3.9-2.2-8.8,0-12.7
		c1.1-1.9,2.7-3.4,4.6-4.4c4-2.1,8.8-2.1,12.9-0.1c1.9,1,3.4,2.5,4.5,4.3c1.1,2,1.7,4.3,1.6,6.6
		C208.5,113.9,208.4,114.5,208.4,115.7z M192.1,108c-1.1,0.9-1.8,2.2-2,3.7h11.8c-0.4-2.9-2.9-5.1-5.9-5
		C194.6,106.6,193.2,107.1,192.1,108z"/>
	<path class="st1" d="M234.9,104.1c1.8,1.8,2.7,4.4,2.7,7.9v13.7h-7v-12.6c0.1-1.5-0.3-3-1.2-4.3c-0.9-1-2.3-1.5-3.6-1.4
		c-1.6-0.1-3.1,0.5-4.2,1.6c-1.1,1.3-1.7,3.1-1.6,4.8v11.8h-6.9v-24h6.6v2.8c0.9-1,2.1-1.8,3.4-2.3c1.4-0.6,3-0.8,4.5-0.8
		C230.3,101.3,232.9,102.2,234.9,104.1z"/>
	<path class="st1" d="M248.9,124.5c-4.1-2-6.6-6.2-6.5-10.8c0-2.2,0.6-4.4,1.7-6.4c1.2-1.9,2.8-3.4,4.8-4.4c2.1-1.1,4.5-1.6,6.9-1.6
		c2.3-0.1,4.6,0.5,6.6,1.6c1.8,1,3.3,2.6,4.1,4.5l-5.4,2.9c-1-2-3.1-3.3-5.4-3.3c-1.7-0.1-3.3,0.6-4.5,1.8c-2.4,2.8-2.4,6.9,0,9.7
		c1.2,1.2,2.8,1.8,4.5,1.8c2.3,0.1,4.4-1.2,5.4-3.3l5.4,2.9c-0.9,1.9-2.3,3.5-4.1,4.5c-2,1.1-4.3,1.7-6.6,1.6
		C253.4,126.1,251,125.6,248.9,124.5z"/>
	<path class="st1" d="M293.5,115.7h-18.1c0.3,1.4,1.1,2.7,2.3,3.5c1.3,0.9,2.9,1.3,4.5,1.3c1.1,0,2.3-0.2,3.3-0.6
		c1-0.4,1.9-1,2.7-1.8l3.7,4c-2.3,2.6-5.6,3.9-9.9,3.9c-2.5,0-4.9-0.5-7.2-1.6c-2-1-3.7-2.5-4.8-4.4c-1.1-1.9-1.7-4.1-1.7-6.4
		c0-2.2,0.5-4.4,1.7-6.3c1.1-1.9,2.7-3.4,4.6-4.4c4-2.1,8.8-2.1,12.9-0.1c1.9,1,3.4,2.5,4.5,4.3c1.1,2,1.7,4.3,1.6,6.6
		C293.6,113.9,293.6,114.5,293.5,115.7z M277.2,108c-1.1,0.9-1.8,2.2-2,3.7h11.9c-0.2-1.4-0.9-2.7-2-3.6c-1.1-0.9-2.5-1.4-3.9-1.4
		C279.8,106.6,278.4,107.1,277.2,108z"/>
	<g>
		<path class="st1" d="M55.6,181.3H43.9l-2.5,5.6h-2.3l9.6-21h2.2l9.6,21h-2.3L55.6,181.3z M54.8,179.5l-5-11.3l-5,11.3H54.8z"/>
		<path class="st1" d="M73.7,186.1c-1.3-0.7-2.4-1.7-3.1-2.9c-0.7-1.2-1.1-2.7-1.1-4.2s0.4-3,1.1-4.2c0.7-1.2,1.8-2.2,3.1-2.9
			c1.3-0.7,2.8-1.1,4.5-1.1c1.6,0,3,0.3,4.2,1c1.2,0.6,2.1,1.6,2.7,2.8l-2.9,1.7c-0.5-0.7-1-1.3-1.7-1.7s-1.4-0.6-2.3-0.6
			c-1.4,0-2.6,0.5-3.5,1.4s-1.4,2.1-1.4,3.6s0.5,2.7,1.4,3.6c0.9,0.9,2.1,1.4,3.5,1.4c0.8,0,1.6-0.2,2.3-0.6
			c0.7-0.4,1.3-0.9,1.7-1.7l2.9,1.7c-0.6,1.2-1.5,2.1-2.7,2.8c-1.2,0.7-2.6,1-4.1,1C76.5,187.1,75,186.8,73.7,186.1z"/>
		<path class="st1" d="M90.8,186.1c-1.3-0.7-2.3-1.7-3-2.9c-0.7-1.2-1.1-2.7-1.1-4.2s0.4-3,1.1-4.2c0.7-1.2,1.7-2.2,3-2.9
			c1.3-0.7,2.8-1.1,4.4-1.1c1.6,0,3.1,0.4,4.4,1.1c1.3,0.7,2.3,1.7,3,2.9c0.7,1.2,1.1,2.7,1.1,4.2s-0.4,3-1.1,4.2
			c-0.7,1.3-1.7,2.2-3,2.9c-1.3,0.7-2.8,1-4.4,1C93.6,187.1,92.1,186.8,90.8,186.1z M98.6,182.6c0.9-0.9,1.4-2.1,1.4-3.6
			s-0.5-2.7-1.4-3.6c-0.9-0.9-2-1.4-3.4-1.4c-1.4,0-2.5,0.5-3.4,1.4c-0.9,0.9-1.3,2.1-1.3,3.6s0.4,2.7,1.3,3.6
			c0.9,0.9,2,1.4,3.4,1.4C96.6,183.9,97.7,183.5,98.6,182.6z"/>
		<path class="st1" d="M132.4,172.5c1.2,1.2,1.8,2.9,1.8,5.3v9.2h-3.8v-8.7c0-1.4-0.3-2.5-0.9-3.2c-0.6-0.7-1.5-1.1-2.7-1.1
			c-1.3,0-2.3,0.4-3,1.2c-0.8,0.8-1.1,2-1.1,3.6v8.1h-3.8v-8.7c0-1.4-0.3-2.5-0.9-3.2c-0.6-0.7-1.5-1.1-2.7-1.1
			c-1.3,0-2.3,0.4-3,1.2c-0.8,0.8-1.1,2-1.1,3.6v8.1h-3.8v-16h3.6v2c0.6-0.7,1.4-1.3,2.2-1.6c0.9-0.4,1.9-0.6,3-0.6
			c1.2,0,2.3,0.2,3.2,0.7c0.9,0.4,1.7,1.1,2.2,2c0.7-0.8,1.5-1.5,2.5-2c1-0.5,2.2-0.7,3.5-0.7C129.6,170.7,131.2,171.3,132.4,172.5z
			"/>
		<path class="st1" d="M152,171.8c1.2,0.7,2.2,1.6,2.9,2.9c0.7,1.2,1.1,2.7,1.1,4.3c0,1.6-0.4,3.1-1.1,4.3c-0.7,1.2-1.7,2.2-2.9,2.9
			c-1.2,0.7-2.6,1-4.2,1c-2.2,0-3.9-0.7-5.1-2.2v7.8H139v-21.8h3.6v2.1c0.6-0.8,1.4-1.3,2.3-1.7c0.9-0.4,1.9-0.6,3-0.6
			C149.4,170.7,150.8,171.1,152,171.8z M150.8,182.6c0.9-0.9,1.3-2.1,1.3-3.6s-0.4-2.7-1.3-3.6c-0.9-0.9-2-1.4-3.4-1.4
			c-0.9,0-1.7,0.2-2.4,0.6c-0.7,0.4-1.3,1-1.7,1.8c-0.4,0.8-0.6,1.6-0.6,2.6s0.2,1.9,0.6,2.6c0.4,0.8,1,1.3,1.7,1.8
			c0.7,0.4,1.5,0.6,2.4,0.6C148.8,183.9,149.9,183.5,150.8,182.6z"/>
		<path class="st1" d="M168.8,170.7v3.6c-0.3-0.1-0.6-0.1-0.9-0.1c-1.5,0-2.6,0.4-3.4,1.3c-0.8,0.9-1.2,2.1-1.2,3.7v7.8h-3.8v-16
			h3.6v2.3C164.2,171.6,166.1,170.7,168.8,170.7z"/>
		<path class="st1" d="M186.8,180.1h-12.6c0.2,1.2,0.8,2.1,1.7,2.8c0.9,0.7,2.1,1,3.5,1c1.8,0,3.2-0.6,4.4-1.7l2,2.3
			c-0.7,0.9-1.6,1.5-2.7,1.9c-1.1,0.4-2.3,0.7-3.7,0.7c-1.8,0-3.3-0.3-4.7-1s-2.4-1.7-3.1-2.9c-0.7-1.2-1.1-2.7-1.1-4.2
			c0-1.6,0.4-3,1.1-4.2c0.7-1.2,1.7-2.2,3-2.9c1.3-0.7,2.7-1.1,4.3-1.1c1.6,0,3,0.3,4.2,1s2.2,1.7,2.9,2.9s1,2.7,1,4.3
			C186.9,179.3,186.9,179.6,186.8,180.1z M175.8,174.8c-0.8,0.7-1.3,1.7-1.5,2.8h9.1c-0.2-1.2-0.7-2.1-1.5-2.8
			c-0.8-0.7-1.8-1.1-3.1-1.1C177.6,173.7,176.6,174.1,175.8,174.8z"/>
		<path class="st1" d="M204.4,172.5c1.2,1.2,1.8,2.9,1.8,5.2v9.2h-3.8v-8.7c0-1.4-0.3-2.5-1-3.2c-0.7-0.7-1.6-1.1-2.8-1.1
			c-1.4,0-2.5,0.4-3.3,1.2c-0.8,0.8-1.2,2-1.2,3.6v8.1h-3.8v-22.3h3.8v8.1c0.6-0.7,1.4-1.2,2.3-1.5s1.9-0.5,3-0.5
			C201.6,170.7,203.2,171.3,204.4,172.5z"/>
		<path class="st1" d="M226.2,180.1h-12.6c0.2,1.2,0.8,2.1,1.7,2.8c0.9,0.7,2.1,1,3.5,1c1.8,0,3.2-0.6,4.4-1.7l2,2.3
			c-0.7,0.9-1.6,1.5-2.7,1.9c-1.1,0.4-2.3,0.7-3.7,0.7c-1.8,0-3.3-0.3-4.7-1s-2.4-1.7-3.1-2.9c-0.7-1.2-1.1-2.7-1.1-4.2
			c0-1.6,0.4-3,1.1-4.2c0.7-1.2,1.7-2.2,3-2.9c1.3-0.7,2.7-1.1,4.3-1.1c1.6,0,3,0.3,4.2,1s2.2,1.7,2.9,2.9s1,2.7,1,4.3
			C226.3,179.3,226.2,179.6,226.2,180.1z M215.1,174.8c-0.8,0.7-1.3,1.7-1.5,2.8h9.1c-0.2-1.2-0.7-2.1-1.5-2.8
			c-0.8-0.7-1.8-1.1-3.1-1.1C217,173.7,215.9,174.1,215.1,174.8z"/>
		<path class="st1" d="M243.8,172.5c1.2,1.2,1.8,2.9,1.8,5.2v9.2h-3.8v-8.7c0-1.4-0.3-2.5-1-3.2c-0.7-0.7-1.6-1.1-2.8-1.1
			c-1.4,0-2.5,0.4-3.3,1.2c-0.8,0.8-1.2,2-1.2,3.6v8.1h-3.8v-16h3.6v2.1c0.6-0.7,1.4-1.3,2.3-1.7c0.9-0.4,2-0.6,3.2-0.6
			C241,170.7,242.6,171.3,243.8,172.5z"/>
		<path class="st1" d="M251.5,186.6c-1.2-0.3-2.2-0.8-3-1.3l1.4-2.9c0.7,0.5,1.6,0.9,2.6,1.2c1,0.3,2,0.4,3,0.4
			c2.2,0,3.4-0.6,3.4-1.8c0-0.6-0.3-0.9-0.9-1.2c-0.6-0.2-1.5-0.4-2.7-0.6c-1.3-0.2-2.4-0.4-3.2-0.7c-0.8-0.3-1.6-0.7-2.2-1.4
			c-0.6-0.6-0.9-1.6-0.9-2.7c0-1.5,0.6-2.7,1.9-3.6c1.3-0.9,3-1.4,5.1-1.4c1.1,0,2.2,0.1,3.3,0.4c1.1,0.3,2,0.6,2.7,1l-1.4,2.8
			c-1.4-0.8-2.9-1.2-4.6-1.2c-1.1,0-1.9,0.2-2.5,0.5c-0.6,0.3-0.9,0.8-0.9,1.3c0,0.6,0.3,1,0.9,1.3c0.6,0.3,1.6,0.5,2.8,0.7
			c1.3,0.2,2.3,0.4,3.1,0.7c0.8,0.3,1.5,0.7,2.1,1.3c0.6,0.6,0.9,1.5,0.9,2.6c0,1.5-0.6,2.7-1.9,3.6c-1.3,0.9-3.1,1.4-5.3,1.4
			C254.1,187.1,252.8,187,251.5,186.6z"/>
		<path class="st1" d="M266,167.6c-0.5-0.4-0.7-1-0.7-1.6c0-0.6,0.2-1.2,0.7-1.6c0.5-0.4,1-0.6,1.7-0.6c0.7,0,1.2,0.2,1.7,0.6
			c0.5,0.4,0.7,0.9,0.7,1.5c0,0.7-0.2,1.2-0.7,1.7c-0.5,0.5-1,0.7-1.7,0.7C267.1,168.3,266.5,168.1,266,167.6z M265.9,170.9h3.8v16
			h-3.8V170.9z"/>
		<path class="st1" d="M289.5,170.9l-6.9,16h-3.9l-6.9-16h3.9l5,11.9l5.1-11.9H289.5z"/>
		<path class="st1" d="M306.4,180.1h-12.6c0.2,1.2,0.8,2.1,1.7,2.8c0.9,0.7,2.1,1,3.5,1c1.8,0,3.2-0.6,4.4-1.7l2,2.3
			c-0.7,0.9-1.6,1.5-2.7,1.9c-1.1,0.4-2.3,0.7-3.7,0.7c-1.8,0-3.3-0.3-4.7-1s-2.4-1.7-3.1-2.9c-0.7-1.2-1.1-2.7-1.1-4.2
			c0-1.6,0.4-3,1.1-4.2c0.7-1.2,1.7-2.2,3-2.9c1.3-0.7,2.7-1.1,4.3-1.1c1.6,0,3,0.3,4.2,1s2.2,1.7,2.9,2.9s1,2.7,1,4.3
			C306.5,179.3,306.5,179.6,306.4,180.1z M295.3,174.8c-0.8,0.7-1.3,1.7-1.5,2.8h9.1c-0.2-1.2-0.7-2.1-1.5-2.8
			c-0.8-0.7-1.8-1.1-3.1-1.1C297.2,173.7,296.2,174.1,295.3,174.8z"/>
		<path class="st1" d="M329.9,172.4c1.2,1.1,1.9,2.8,1.9,5.1v9.4h-3.5v-2c-0.5,0.7-1.1,1.2-2,1.6c-0.9,0.4-1.9,0.6-3.1,0.6
			s-2.3-0.2-3.2-0.6s-1.6-1-2.1-1.7c-0.5-0.7-0.7-1.6-0.7-2.5c0-1.4,0.5-2.6,1.6-3.5c1.1-0.9,2.8-1.3,5.1-1.3h4.1v-0.2
			c0-1.1-0.3-2-1-2.6c-0.7-0.6-1.7-0.9-3-0.9c-0.9,0-1.8,0.1-2.7,0.4c-0.9,0.3-1.6,0.7-2.2,1.2l-1.5-2.7c0.8-0.6,1.9-1.1,3-1.5
			c1.2-0.3,2.4-0.5,3.8-0.5C326.8,170.7,328.6,171.3,329.9,172.4z M326.5,183.8c0.7-0.4,1.2-1,1.5-1.8v-1.9h-3.9
			c-2.2,0-3.2,0.7-3.2,2.1c0,0.7,0.3,1.2,0.8,1.6c0.5,0.4,1.3,0.6,2.2,0.6C324.9,184.4,325.7,184.2,326.5,183.8z"/>
		<path class="st1" d="M350.5,172.5c1.2,1.2,1.8,2.9,1.8,5.2v9.2h-3.8v-8.7c0-1.4-0.3-2.5-1-3.2c-0.7-0.7-1.6-1.1-2.8-1.1
			c-1.4,0-2.5,0.4-3.3,1.2c-0.8,0.8-1.2,2-1.2,3.6v8.1h-3.8v-16h3.6v2.1c0.6-0.7,1.4-1.3,2.3-1.7c0.9-0.4,2-0.6,3.2-0.6
			C347.7,170.7,349.3,171.3,350.5,172.5z"/>
		<path class="st1" d="M373,164.7v22.3h-3.6v-2.1c-0.6,0.8-1.4,1.3-2.3,1.7c-0.9,0.4-1.9,0.6-3,0.6c-1.5,0-2.9-0.3-4.2-1
			c-1.2-0.7-2.2-1.6-2.9-2.9c-0.7-1.2-1.1-2.7-1.1-4.3c0-1.6,0.3-3,1.1-4.3c0.7-1.2,1.7-2.2,2.9-2.9c1.2-0.7,2.6-1,4.2-1
			c1.1,0,2,0.2,2.9,0.5c0.9,0.4,1.6,0.9,2.2,1.6v-8.2H373z M366.9,183.3c0.7-0.4,1.3-1,1.7-1.8c0.4-0.8,0.6-1.6,0.6-2.6
			s-0.2-1.9-0.6-2.6c-0.4-0.8-1-1.3-1.7-1.8c-0.7-0.4-1.5-0.6-2.4-0.6c-0.9,0-1.7,0.2-2.4,0.6c-0.7,0.4-1.3,1-1.7,1.8
			c-0.4,0.8-0.6,1.6-0.6,2.6s0.2,1.9,0.6,2.6c0.4,0.8,1,1.3,1.7,1.8c0.7,0.4,1.5,0.6,2.4,0.6C365.4,183.9,366.2,183.7,366.9,183.3z"
			/>
		<path class="st1" d="M44.3,222.1c-1.3-0.7-2.4-1.7-3.1-2.9c-0.7-1.2-1.1-2.7-1.1-4.2s0.4-3,1.1-4.2c0.7-1.2,1.8-2.2,3.1-2.9
			c1.3-0.7,2.8-1.1,4.5-1.1c1.6,0,3,0.3,4.2,1c1.2,0.6,2.1,1.6,2.7,2.8l-2.9,1.7c-0.5-0.7-1-1.3-1.7-1.7s-1.4-0.6-2.3-0.6
			c-1.4,0-2.6,0.5-3.5,1.4s-1.4,2.1-1.4,3.6s0.5,2.7,1.4,3.6c0.9,0.9,2.1,1.4,3.5,1.4c0.8,0,1.6-0.2,2.3-0.6
			c0.7-0.4,1.3-0.9,1.7-1.7l2.9,1.7c-0.6,1.2-1.5,2.1-2.7,2.8c-1.2,0.7-2.6,1-4.1,1C47.1,223.1,45.7,222.8,44.3,222.1z"/>
		<path class="st1" d="M74.4,206.9v16h-3.6v-2c-0.6,0.7-1.4,1.3-2.2,1.7s-1.9,0.6-2.9,0.6c-2.1,0-3.8-0.6-5.1-1.8
			c-1.2-1.2-1.8-3-1.8-5.3v-9.1h3.8v8.6c0,1.4,0.3,2.5,1,3.2s1.6,1.1,2.8,1.1c1.3,0,2.4-0.4,3.2-1.2c0.8-0.8,1.2-2,1.2-3.6v-8.1
			H74.4z"/>
		<path class="st1" d="M80.5,222.6c-1.2-0.3-2.2-0.8-3-1.3l1.4-2.9c0.7,0.5,1.6,0.9,2.6,1.2c1,0.3,2,0.4,3,0.4
			c2.2,0,3.4-0.6,3.4-1.8c0-0.6-0.3-0.9-0.9-1.2c-0.6-0.2-1.5-0.4-2.7-0.6c-1.3-0.2-2.4-0.4-3.2-0.7c-0.8-0.3-1.6-0.7-2.2-1.4
			c-0.6-0.6-0.9-1.6-0.9-2.7c0-1.5,0.6-2.7,1.9-3.6c1.3-0.9,3-1.4,5.1-1.4c1.1,0,2.2,0.1,3.3,0.4c1.1,0.3,2,0.6,2.7,1l-1.4,2.8
			c-1.4-0.8-2.9-1.2-4.6-1.2c-1.1,0-1.9,0.2-2.5,0.5c-0.6,0.3-0.9,0.8-0.9,1.3c0,0.6,0.3,1,0.9,1.3c0.6,0.3,1.6,0.5,2.8,0.7
			c1.3,0.2,2.3,0.4,3.1,0.7c0.8,0.3,1.5,0.7,2.1,1.3c0.6,0.6,0.9,1.5,0.9,2.6c0,1.5-0.6,2.7-1.9,3.6c-1.3,0.9-3.1,1.4-5.3,1.4
			C83,223.1,81.7,223,80.5,222.6z"/>
		<path class="st1" d="M104.4,222.1c-0.4,0.4-1,0.6-1.6,0.8c-0.6,0.2-1.3,0.3-2,0.3c-1.8,0-3.1-0.5-4.1-1.4s-1.4-2.3-1.4-4V210h-2.6
			v-3h2.6v-3.7H99v3.7h4.3v3H99v7.6c0,0.8,0.2,1.4,0.6,1.8c0.4,0.4,0.9,0.6,1.6,0.6c0.8,0,1.5-0.2,2.1-0.7L104.4,222.1z"/>
		<path class="st1" d="M109.8,222.1c-1.3-0.7-2.3-1.7-3-2.9c-0.7-1.2-1.1-2.7-1.1-4.2s0.4-3,1.1-4.2c0.7-1.2,1.7-2.2,3-2.9
			c1.3-0.7,2.8-1.1,4.4-1.1c1.6,0,3.1,0.4,4.4,1.1c1.3,0.7,2.3,1.7,3,2.9c0.7,1.2,1.1,2.7,1.1,4.2s-0.4,3-1.1,4.2
			c-0.7,1.3-1.7,2.2-3,2.9c-1.3,0.7-2.8,1-4.4,1C112.5,223.1,111.1,222.8,109.8,222.1z M117.6,218.6c0.9-0.9,1.4-2.1,1.4-3.6
			s-0.5-2.7-1.4-3.6c-0.9-0.9-2-1.4-3.4-1.4c-1.4,0-2.5,0.5-3.4,1.4c-0.9,0.9-1.3,2.1-1.3,3.6s0.4,2.7,1.3,3.6
			c0.9,0.9,2,1.4,3.4,1.4C115.5,219.9,116.7,219.5,117.6,218.6z"/>
		<path class="st1" d="M151.3,208.5c1.2,1.2,1.8,2.9,1.8,5.3v9.2h-3.8v-8.7c0-1.4-0.3-2.5-0.9-3.2c-0.6-0.7-1.5-1.1-2.7-1.1
			c-1.3,0-2.3,0.4-3,1.2c-0.8,0.8-1.1,2-1.1,3.6v8.1h-3.8v-8.7c0-1.4-0.3-2.5-0.9-3.2c-0.6-0.7-1.5-1.1-2.7-1.1
			c-1.3,0-2.3,0.4-3,1.2c-0.8,0.8-1.1,2-1.1,3.6v8.1h-3.8v-16h3.6v2c0.6-0.7,1.4-1.3,2.2-1.6c0.9-0.4,1.9-0.6,3-0.6
			c1.2,0,2.3,0.2,3.2,0.7c0.9,0.4,1.7,1.1,2.2,2c0.7-0.8,1.5-1.5,2.5-2c1-0.5,2.2-0.7,3.5-0.7C148.5,206.7,150.1,207.3,151.3,208.5z
			"/>
		<path class="st1" d="M158.1,203.6c-0.5-0.4-0.7-1-0.7-1.6c0-0.6,0.2-1.2,0.7-1.6c0.5-0.4,1-0.6,1.7-0.6c0.7,0,1.2,0.2,1.7,0.6
			c0.5,0.4,0.7,0.9,0.7,1.5c0,0.7-0.2,1.2-0.7,1.7c-0.5,0.5-1,0.7-1.7,0.7C159.1,204.3,158.5,204.1,158.1,203.6z M157.9,206.9h3.8
			v16h-3.8V206.9z"/>
		<path class="st1" d="M179.1,219.9v3h-13.8v-2.4l8.8-10.6h-8.6v-3h13.4v2.4l-8.8,10.6H179.1z"/>
		<path class="st1" d="M194.1,208.4c1.2,1.1,1.9,2.8,1.9,5.1v9.4h-3.5v-2c-0.5,0.7-1.1,1.2-2,1.6c-0.9,0.4-1.9,0.6-3.1,0.6
			s-2.2-0.2-3.1-0.6s-1.6-1-2.1-1.7c-0.5-0.7-0.7-1.6-0.7-2.5c0-1.4,0.5-2.6,1.6-3.5c1.1-0.9,2.8-1.3,5.1-1.3h4.1v-0.2
			c0-1.1-0.3-2-1-2.6c-0.7-0.6-1.7-0.9-3-0.9c-0.9,0-1.8,0.1-2.7,0.4c-0.9,0.3-1.6,0.7-2.2,1.2l-1.5-2.7c0.8-0.6,1.9-1.1,3-1.5
			c1.2-0.3,2.4-0.5,3.8-0.5C191,206.7,192.8,207.3,194.1,208.4z M190.6,219.8c0.7-0.4,1.2-1,1.5-1.8v-1.9h-3.9
			c-2.2,0-3.2,0.7-3.2,2.1c0,0.7,0.3,1.2,0.8,1.6c0.5,0.4,1.3,0.6,2.2,0.6C189.1,220.4,189.9,220.2,190.6,219.8z"/>
		<path class="st1" d="M213.8,207.8c1.2,0.7,2.2,1.6,2.9,2.9c0.7,1.2,1.1,2.7,1.1,4.3c0,1.6-0.4,3.1-1.1,4.3
			c-0.7,1.2-1.7,2.2-2.9,2.9c-1.2,0.7-2.6,1-4.2,1c-1.1,0-2.1-0.2-3-0.6c-0.9-0.4-1.7-0.9-2.3-1.7v2.1h-3.6v-22.3h3.8v8.2
			c0.6-0.7,1.4-1.2,2.3-1.6c0.9-0.4,1.8-0.5,2.9-0.5C211.2,206.7,212.6,207.1,213.8,207.8z M212.6,218.6c0.9-0.9,1.3-2.1,1.3-3.6
			s-0.4-2.7-1.3-3.6c-0.9-0.9-2-1.4-3.4-1.4c-0.9,0-1.7,0.2-2.4,0.6c-0.7,0.4-1.3,1-1.7,1.8c-0.4,0.8-0.6,1.6-0.6,2.6
			s0.2,1.9,0.6,2.6c0.4,0.8,1,1.3,1.7,1.8c0.7,0.4,1.5,0.6,2.4,0.6C210.6,219.9,211.7,219.5,212.6,218.6z"/>
		<path class="st1" d="M221.3,200.7h3.8v22.3h-3.8V200.7z"/>
		<path class="st1" d="M245,216.1h-12.6c0.2,1.2,0.8,2.1,1.7,2.8c0.9,0.7,2.1,1,3.5,1c1.8,0,3.2-0.6,4.4-1.7l2,2.3
			c-0.7,0.9-1.6,1.5-2.7,1.9c-1.1,0.4-2.3,0.7-3.7,0.7c-1.8,0-3.3-0.3-4.7-1s-2.4-1.7-3.1-2.9c-0.7-1.2-1.1-2.7-1.1-4.2
			c0-1.6,0.4-3,1.1-4.2c0.7-1.2,1.7-2.2,3-2.9c1.3-0.7,2.7-1.1,4.3-1.1c1.6,0,3,0.3,4.2,1s2.2,1.7,2.9,2.9s1,2.7,1,4.3
			C245,215.3,245,215.6,245,216.1z M233.9,210.8c-0.8,0.7-1.3,1.7-1.5,2.8h9.1c-0.2-1.2-0.7-2.1-1.5-2.8c-0.8-0.7-1.8-1.1-3.1-1.1
			C235.7,209.7,234.7,210.1,233.9,210.8z"/>
		<path class="st1" d="M271.9,216.1h-12.6c0.2,1.2,0.8,2.1,1.7,2.8c0.9,0.7,2.1,1,3.5,1c1.8,0,3.2-0.6,4.4-1.7l2,2.3
			c-0.7,0.9-1.6,1.5-2.7,1.9c-1.1,0.4-2.3,0.7-3.7,0.7c-1.8,0-3.3-0.3-4.7-1s-2.4-1.7-3.1-2.9c-0.7-1.2-1.1-2.7-1.1-4.2
			c0-1.6,0.4-3,1.1-4.2c0.7-1.2,1.7-2.2,3-2.9c1.3-0.7,2.7-1.1,4.3-1.1c1.6,0,3,0.3,4.2,1s2.2,1.7,2.9,2.9s1,2.7,1,4.3
			C272,215.3,272,215.6,271.9,216.1z M260.8,210.8c-0.8,0.7-1.3,1.7-1.5,2.8h9.1c-0.2-1.2-0.7-2.1-1.5-2.8c-0.8-0.7-1.8-1.1-3.1-1.1
			C262.7,209.7,261.7,210.1,260.8,210.8z"/>
		<path class="st1" d="M285.3,222.9l-4.1-5.5l-4.1,5.5h-4.1l6.2-8.1l-6-7.9h4.2l3.9,5.2l3.9-5.2h4.1l-6,7.8l6.3,8.2H285.3z"/>
		<path class="st1" d="M305.4,207.8c1.2,0.7,2.2,1.6,2.9,2.9c0.7,1.2,1.1,2.7,1.1,4.3c0,1.6-0.4,3.1-1.1,4.3
			c-0.7,1.2-1.7,2.2-2.9,2.9c-1.2,0.7-2.6,1-4.2,1c-2.2,0-3.9-0.7-5.1-2.2v7.8h-3.8v-21.8h3.6v2.1c0.6-0.8,1.4-1.3,2.3-1.7
			c0.9-0.4,1.9-0.6,3-0.6C302.8,206.7,304.2,207.1,305.4,207.8z M304.2,218.6c0.9-0.9,1.3-2.1,1.3-3.6s-0.4-2.7-1.3-3.6
			c-0.9-0.9-2-1.4-3.4-1.4c-0.9,0-1.7,0.2-2.4,0.6c-0.7,0.4-1.3,1-1.7,1.8c-0.4,0.8-0.6,1.6-0.6,2.6s0.2,1.9,0.6,2.6
			c0.4,0.8,1,1.3,1.7,1.8c0.7,0.4,1.5,0.6,2.4,0.6C302.2,219.9,303.3,219.5,304.2,218.6z"/>
		<path class="st1" d="M327.9,216.1h-12.6c0.2,1.2,0.8,2.1,1.7,2.8c0.9,0.7,2.1,1,3.5,1c1.8,0,3.2-0.6,4.3-1.7l2,2.3
			c-0.7,0.9-1.6,1.5-2.7,1.9c-1.1,0.4-2.3,0.7-3.7,0.7c-1.8,0-3.3-0.3-4.7-1s-2.4-1.7-3.1-2.9c-0.7-1.2-1.1-2.7-1.1-4.2
			c0-1.6,0.4-3,1.1-4.2c0.7-1.2,1.7-2.2,3-2.9c1.3-0.7,2.7-1.1,4.3-1.1c1.6,0,3,0.3,4.2,1c1.2,0.7,2.2,1.7,2.9,2.9
			c0.7,1.2,1,2.7,1,4.3C328,215.3,327.9,215.6,327.9,216.1z M316.8,210.8c-0.8,0.7-1.3,1.7-1.5,2.8h9.1c-0.2-1.2-0.7-2.1-1.5-2.8
			c-0.8-0.7-1.8-1.1-3.1-1.1C318.7,209.7,317.6,210.1,316.8,210.8z"/>
		<path class="st1" d="M340.8,206.7v3.6c-0.3-0.1-0.6-0.1-0.9-0.1c-1.5,0-2.6,0.4-3.4,1.3c-0.8,0.9-1.2,2.1-1.2,3.7v7.8h-3.8v-16
			h3.6v2.3C336.2,207.6,338.1,206.7,340.8,206.7z"/>
		<path class="st1" d="M344.2,203.6c-0.5-0.4-0.7-1-0.7-1.6c0-0.6,0.2-1.2,0.7-1.6c0.5-0.4,1-0.6,1.7-0.6s1.2,0.2,1.7,0.6
			c0.5,0.4,0.7,0.9,0.7,1.5c0,0.7-0.2,1.2-0.7,1.7s-1,0.7-1.7,0.7C345.2,204.3,344.6,204.1,344.2,203.6z M344,206.9h3.8v16H344
			V206.9z"/>
		<path class="st1" d="M367.7,216.1h-12.6c0.2,1.2,0.8,2.1,1.7,2.8c0.9,0.7,2.1,1,3.5,1c1.8,0,3.2-0.6,4.3-1.7l2,2.3
			c-0.7,0.9-1.6,1.5-2.7,1.9c-1.1,0.4-2.3,0.7-3.7,0.7c-1.8,0-3.3-0.3-4.7-1s-2.4-1.7-3.1-2.9c-0.7-1.2-1.1-2.7-1.1-4.2
			c0-1.6,0.4-3,1.1-4.2c0.7-1.2,1.7-2.2,3-2.9c1.3-0.7,2.7-1.1,4.3-1.1c1.6,0,3,0.3,4.2,1c1.2,0.7,2.2,1.7,2.9,2.9
			c0.7,1.2,1,2.7,1,4.3C367.7,215.3,367.7,215.6,367.7,216.1z M356.6,210.8c-0.8,0.7-1.3,1.7-1.5,2.8h9.1c-0.2-1.2-0.7-2.1-1.5-2.8
			c-0.8-0.7-1.8-1.1-3.1-1.1C358.4,209.7,357.4,210.1,356.6,210.8z"/>
		<path class="st1" d="M385.3,208.5c1.2,1.2,1.8,2.9,1.8,5.2v9.2h-3.8v-8.7c0-1.4-0.3-2.5-1-3.2c-0.7-0.7-1.6-1.1-2.8-1.1
			c-1.4,0-2.5,0.4-3.3,1.2c-0.8,0.8-1.2,2-1.2,3.6v8.1h-3.8v-16h3.6v2.1c0.6-0.7,1.4-1.3,2.3-1.7c0.9-0.4,2-0.6,3.2-0.6
			C382.4,206.7,384.1,207.3,385.3,208.5z"/>
		<path class="st1" d="M394.9,222.1c-1.3-0.7-2.4-1.7-3.1-2.9c-0.7-1.2-1.1-2.7-1.1-4.2s0.4-3,1.1-4.2c0.7-1.2,1.8-2.2,3.1-2.9
			c1.3-0.7,2.8-1.1,4.5-1.1c1.6,0,3,0.3,4.2,1c1.2,0.6,2.1,1.6,2.7,2.8l-2.9,1.7c-0.5-0.7-1-1.3-1.7-1.7c-0.7-0.4-1.4-0.6-2.3-0.6
			c-1.4,0-2.6,0.5-3.5,1.4s-1.4,2.1-1.4,3.6s0.5,2.7,1.4,3.6c0.9,0.9,2.1,1.4,3.5,1.4c0.8,0,1.6-0.2,2.3-0.6
			c0.7-0.4,1.3-0.9,1.7-1.7l2.9,1.7c-0.6,1.2-1.5,2.1-2.7,2.8c-1.2,0.7-2.6,1-4.1,1C397.7,223.1,396.2,222.8,394.9,222.1z"/>
		<path class="st1" d="M424.2,216.1h-12.6c0.2,1.2,0.8,2.1,1.7,2.8c0.9,0.7,2.1,1,3.5,1c1.8,0,3.2-0.6,4.3-1.7l2,2.3
			c-0.7,0.9-1.6,1.5-2.7,1.9c-1.1,0.4-2.3,0.7-3.7,0.7c-1.8,0-3.3-0.3-4.7-1s-2.4-1.7-3.1-2.9c-0.7-1.2-1.1-2.7-1.1-4.2
			c0-1.6,0.4-3,1.1-4.2c0.7-1.2,1.7-2.2,3-2.9c1.3-0.7,2.7-1.1,4.3-1.1c1.6,0,3,0.3,4.2,1c1.2,0.7,2.2,1.7,2.9,2.9
			c0.7,1.2,1,2.7,1,4.3C424.3,215.3,424.3,215.6,424.2,216.1z M413.1,210.8c-0.8,0.7-1.3,1.7-1.5,2.8h9.1c-0.2-1.2-0.7-2.1-1.5-2.8
			c-0.8-0.7-1.8-1.1-3.1-1.1C415,209.7,414,210.1,413.1,210.8z"/>
		<path class="st1" d="M445,222c-0.4,0.4-0.9,0.6-1.5,0.8c-0.6,0.2-1.2,0.3-1.8,0.3c-1.5,0-2.6-0.4-3.4-1.2
			c-0.8-0.8-1.2-1.9-1.2-3.4V209h-2.8v-1.8h2.8v-3.5h2.1v3.5h4.8v1.8h-4.8v9.4c0,0.9,0.2,1.7,0.7,2.1c0.5,0.5,1.1,0.7,2,0.7
			c0.4,0,0.9-0.1,1.3-0.2c0.4-0.1,0.8-0.3,1.1-0.6L445,222z"/>
		<path class="st1" d="M450.6,222c-1.2-0.7-2.2-1.6-2.9-2.9c-0.7-1.2-1-2.6-1-4.1c0-1.5,0.3-2.9,1-4.1s1.7-2.2,2.9-2.9
			c1.2-0.7,2.6-1,4.1-1c1.5,0,2.9,0.3,4.1,1c1.2,0.7,2.2,1.6,2.9,2.9c0.7,1.2,1,2.6,1,4.1c0,1.5-0.3,2.9-1,4.1
			c-0.7,1.2-1.6,2.2-2.9,2.9c-1.2,0.7-2.6,1-4.1,1C453.2,223.1,451.8,222.7,450.6,222z M457.7,220.4c0.9-0.5,1.6-1.2,2.1-2.2
			c0.5-0.9,0.8-2,0.8-3.2c0-1.2-0.2-2.3-0.8-3.2c-0.5-0.9-1.2-1.7-2.1-2.2c-0.9-0.5-1.9-0.8-3-0.8s-2.1,0.3-3,0.8
			c-0.9,0.5-1.6,1.2-2.1,2.2c-0.5,0.9-0.8,2-0.8,3.2c0,1.2,0.3,2.3,0.8,3.2c0.5,0.9,1.2,1.7,2.1,2.2c0.9,0.5,1.9,0.8,3,0.8
			S456.9,220.9,457.7,220.4z"/>
		<path class="st1" d="M44.3,258.1c-1.2-0.7-2.2-1.6-2.9-2.9c-0.7-1.2-1.1-2.6-1.1-4.2c0-1.5,0.3-2.9,1.1-4.1
			c0.7-1.2,1.7-2.2,2.9-2.9c1.2-0.7,2.6-1,4.2-1c1.4,0,2.6,0.3,3.6,0.8c1.1,0.5,1.9,1.3,2.5,2.3l-1.6,1.1c-0.5-0.8-1.2-1.4-2-1.8
			c-0.8-0.4-1.7-0.6-2.6-0.6c-1.1,0-2.2,0.3-3.1,0.8c-0.9,0.5-1.6,1.2-2.1,2.2c-0.5,0.9-0.8,2-0.8,3.2c0,1.2,0.3,2.3,0.8,3.2
			c0.5,0.9,1.2,1.6,2.1,2.2c0.9,0.5,1.9,0.8,3.1,0.8c0.9,0,1.8-0.2,2.6-0.6c0.8-0.4,1.5-1,2-1.7l1.6,1.1c-0.6,1-1.5,1.8-2.5,2.3
			c-1.1,0.5-2.3,0.8-3.6,0.8C46.9,259.1,45.6,258.7,44.3,258.1z"/>
		<path class="st1" d="M60.9,258c-1.2-0.7-2.2-1.6-2.9-2.9c-0.7-1.2-1.1-2.6-1.1-4.1c0-1.5,0.3-2.9,1.1-4.1c0.7-1.2,1.7-2.2,2.9-2.9
			c1.2-0.7,2.6-1,4.1-1c1.5,0,2.9,0.3,4.1,1c1.2,0.7,2.2,1.6,2.9,2.9s1,2.6,1,4.1c0,1.5-0.3,2.9-1,4.1c-0.7,1.2-1.6,2.2-2.9,2.9
			c-1.2,0.7-2.6,1-4.1,1C63.5,259.1,62.1,258.7,60.9,258z M68.1,256.4c0.9-0.5,1.6-1.2,2.1-2.2c0.5-0.9,0.8-2,0.8-3.2
			c0-1.2-0.3-2.3-0.8-3.2c-0.5-0.9-1.2-1.7-2.1-2.2c-0.9-0.5-1.9-0.8-3-0.8s-2.1,0.3-3,0.8c-0.9,0.5-1.6,1.2-2.1,2.2
			c-0.5,0.9-0.8,2-0.8,3.2c0,1.2,0.3,2.3,0.8,3.2c0.5,0.9,1.2,1.7,2.1,2.2c0.9,0.5,1.9,0.8,3,0.8S67.2,256.9,68.1,256.4z"/>
		<path class="st1" d="M90.2,244.8c1.2,1.1,1.8,2.8,1.8,5v9.1h-2.1V250c0-1.6-0.4-2.9-1.2-3.8c-0.8-0.9-2-1.3-3.5-1.3
			c-1.7,0-3,0.5-4,1.5c-1,1-1.5,2.4-1.5,4.2v8.3h-2.1v-15.8h2v2.9c0.6-1,1.4-1.7,2.4-2.2c1-0.5,2.2-0.8,3.6-0.8
			C87.4,243,89,243.6,90.2,244.8z"/>
		<path class="st1" d="M110.5,244.8c1.2,1.1,1.8,2.8,1.8,5v9.1h-2.1V250c0-1.6-0.4-2.9-1.2-3.8c-0.8-0.9-2-1.3-3.5-1.3
			c-1.7,0-3,0.5-4,1.5c-1,1-1.5,2.4-1.5,4.2v8.3h-2.1v-15.8h2v2.9c0.6-1,1.4-1.7,2.4-2.2c1-0.5,2.2-0.8,3.6-0.8
			C107.7,243,109.3,243.6,110.5,244.8z"/>
		<path class="st1" d="M131.8,251.7h-13.2c0.1,1.6,0.8,3,1.9,4c1.1,1,2.6,1.5,4.3,1.5c1,0,1.9-0.2,2.7-0.5c0.8-0.3,1.5-0.9,2.1-1.5
			l1.2,1.4c-0.7,0.8-1.6,1.5-2.6,1.9s-2.2,0.7-3.5,0.7c-1.6,0-3.1-0.3-4.3-1c-1.2-0.7-2.2-1.6-2.9-2.9c-0.7-1.2-1.1-2.6-1.1-4.1
			c0-1.5,0.3-2.9,1-4.1s1.6-2.2,2.8-2.9c1.2-0.7,2.5-1,3.9-1s2.8,0.3,3.9,1c1.2,0.7,2.1,1.6,2.7,2.8c0.7,1.2,1,2.6,1,4.2
			L131.8,251.7z M120.4,246.3c-1,1-1.6,2.2-1.8,3.8h11.2c-0.1-1.6-0.7-2.8-1.8-3.8c-1-1-2.3-1.5-3.9-1.5
			C122.7,244.9,121.4,245.3,120.4,246.3z"/>
		<path class="st1" d="M138.6,258.1c-1.2-0.7-2.2-1.6-2.9-2.9c-0.7-1.2-1.1-2.6-1.1-4.2c0-1.5,0.3-2.9,1.1-4.1
			c0.7-1.2,1.7-2.2,2.9-2.9c1.2-0.7,2.6-1,4.2-1c1.4,0,2.6,0.3,3.6,0.8c1.1,0.5,1.9,1.3,2.5,2.3l-1.6,1.1c-0.5-0.8-1.2-1.4-2-1.8
			c-0.8-0.4-1.7-0.6-2.6-0.6c-1.1,0-2.2,0.3-3.1,0.8c-0.9,0.5-1.6,1.2-2.1,2.2c-0.5,0.9-0.8,2-0.8,3.2c0,1.2,0.3,2.3,0.8,3.2
			c0.5,0.9,1.2,1.6,2.1,2.2c0.9,0.5,1.9,0.8,3.1,0.8c0.9,0,1.8-0.2,2.6-0.6c0.8-0.4,1.5-1,2-1.7l1.6,1.1c-0.6,1-1.5,1.8-2.5,2.3
			c-1.1,0.5-2.3,0.8-3.6,0.8C141.2,259.1,139.8,258.7,138.6,258.1z"/>
		<path class="st1" d="M161.6,258c-0.4,0.4-0.9,0.6-1.5,0.8c-0.6,0.2-1.2,0.3-1.8,0.3c-1.5,0-2.6-0.4-3.4-1.2s-1.2-1.9-1.2-3.4V245
			h-2.8v-1.8h2.8v-3.5h2.1v3.5h4.8v1.8h-4.8v9.4c0,0.9,0.2,1.7,0.7,2.1c0.5,0.5,1.1,0.7,2,0.7c0.4,0,0.9-0.1,1.3-0.2
			c0.4-0.1,0.8-0.3,1.1-0.6L161.6,258z"/>
		<path class="st1" d="M196.5,243.2l-6,15.8h-2l-5-12.9l-5,12.9h-2l-5.9-15.8h2l5,13.4l5.1-13.4h1.8l5,13.4l5-13.4H196.5z"/>
		<path class="st1" d="M199.6,239.3c-0.3-0.3-0.4-0.7-0.4-1.1c0-0.4,0.1-0.8,0.4-1.1c0.3-0.3,0.7-0.4,1.1-0.4s0.8,0.1,1.1,0.4
			c0.3,0.3,0.4,0.6,0.4,1c0,0.4-0.1,0.8-0.4,1.1c-0.3,0.3-0.7,0.5-1.1,0.5S199.9,239.6,199.6,239.3z M199.7,243.2h2.1v15.8h-2.1
			V243.2z"/>
		<path class="st1" d="M216.1,258c-0.4,0.4-0.9,0.6-1.5,0.8c-0.6,0.2-1.2,0.3-1.8,0.3c-1.5,0-2.6-0.4-3.4-1.2s-1.2-1.9-1.2-3.4V245
			h-2.8v-1.8h2.8v-3.5h2.1v3.5h4.8v1.8h-4.8v9.4c0,0.9,0.2,1.7,0.7,2.1c0.5,0.5,1.1,0.7,2,0.7c0.4,0,0.9-0.1,1.3-0.2
			c0.4-0.1,0.8-0.3,1.1-0.6L216.1,258z"/>
		<path class="st1" d="M232.7,244.8c1.2,1.1,1.8,2.8,1.8,5v9.1h-2.1V250c0-1.6-0.4-2.9-1.2-3.8c-0.8-0.9-2-1.3-3.5-1.3
			c-1.7,0-3,0.5-4,1.5c-1,1-1.5,2.4-1.5,4.2v8.3h-2.1v-22.3h2.1v9.2c0.6-0.9,1.4-1.6,2.4-2.1s2.2-0.8,3.5-0.8
			C229.9,243,231.5,243.6,232.7,244.8z"/>
		<path class="st1" d="M261.4,243.2l-7.9,17.7c-0.6,1.5-1.4,2.5-2.2,3.1c-0.8,0.6-1.9,0.9-3,0.9c-0.8,0-1.5-0.1-2.1-0.4
			c-0.7-0.2-1.2-0.6-1.7-1.1l1-1.6c0.8,0.8,1.8,1.2,2.9,1.2c0.7,0,1.3-0.2,1.8-0.6c0.5-0.4,1-1.1,1.4-2l0.7-1.5l-7.1-15.8h2.2
			l5.9,13.4l5.9-13.4H261.4z"/>
		<path class="st1" d="M266.2,258c-1.2-0.7-2.2-1.6-2.9-2.9c-0.7-1.2-1.1-2.6-1.1-4.1c0-1.5,0.3-2.9,1.1-4.1
			c0.7-1.2,1.7-2.2,2.9-2.9c1.2-0.7,2.6-1,4.1-1c1.5,0,2.9,0.3,4.1,1c1.2,0.7,2.2,1.6,2.9,2.9s1,2.6,1,4.1c0,1.5-0.3,2.9-1,4.1
			c-0.7,1.2-1.6,2.2-2.9,2.9c-1.2,0.7-2.6,1-4.1,1C268.8,259.1,267.5,258.7,266.2,258z M273.4,256.4c0.9-0.5,1.6-1.2,2.1-2.2
			c0.5-0.9,0.8-2,0.8-3.2c0-1.2-0.3-2.3-0.8-3.2c-0.5-0.9-1.2-1.7-2.1-2.2c-0.9-0.5-1.9-0.8-3-0.8s-2.1,0.3-3,0.8
			c-0.9,0.5-1.6,1.2-2.1,2.2c-0.5,0.9-0.8,2-0.8,3.2c0,1.2,0.3,2.3,0.8,3.2c0.5,0.9,1.2,1.7,2.1,2.2c0.9,0.5,1.9,0.8,3,0.8
			S272.5,256.9,273.4,256.4z"/>
		<path class="st1" d="M296.9,243.2v15.8h-2v-2.9c-0.6,1-1.3,1.7-2.3,2.2c-1,0.5-2.1,0.8-3.4,0.8c-2.1,0-3.7-0.6-4.9-1.7
			c-1.2-1.1-1.8-2.8-1.8-5.1v-9.1h2.1v8.9c0,1.7,0.4,2.9,1.2,3.8c0.8,0.9,2,1.3,3.5,1.3c1.7,0,3-0.5,3.9-1.5c1-1,1.4-2.4,1.4-4.2
			v-8.3H296.9z"/>
		<path class="st1" d="M307.2,243.8c1-0.5,2.2-0.8,3.7-0.8v2.1l-0.5,0c-1.7,0-3,0.5-3.9,1.5s-1.4,2.5-1.4,4.3v8h-2.1v-15.8h2v3.1
			C305.4,245.2,306.2,244.4,307.2,243.8z"/>
		<path class="st1" d="M325.1,258.1c-1.2-0.7-2.2-1.6-2.9-2.9c-0.7-1.2-1.1-2.6-1.1-4.2c0-1.5,0.3-2.9,1.1-4.1
			c0.7-1.2,1.7-2.2,2.9-2.9c1.2-0.7,2.6-1,4.2-1c1.4,0,2.6,0.3,3.6,0.8c1.1,0.5,1.9,1.3,2.5,2.3l-1.6,1.1c-0.5-0.8-1.2-1.4-2-1.8
			s-1.7-0.6-2.6-0.6c-1.1,0-2.2,0.3-3.1,0.8c-0.9,0.5-1.6,1.2-2.1,2.2c-0.5,0.9-0.8,2-0.8,3.2c0,1.2,0.3,2.3,0.8,3.2
			c0.5,0.9,1.2,1.6,2.1,2.2c0.9,0.5,1.9,0.8,3.1,0.8c0.9,0,1.8-0.2,2.6-0.6c0.8-0.4,1.5-1,2-1.7l1.6,1.1c-0.6,1-1.5,1.8-2.6,2.3
			c-1.1,0.5-2.3,0.8-3.6,0.8C327.8,259.1,326.4,258.7,325.1,258.1z"/>
		<path class="st1" d="M339.4,236.7h2.1v22.3h-2.1V236.7z"/>
		<path class="st1" d="M347.5,239.3c-0.3-0.3-0.5-0.7-0.5-1.1c0-0.4,0.1-0.8,0.5-1.1c0.3-0.3,0.7-0.4,1.1-0.4c0.4,0,0.8,0.1,1.1,0.4
			c0.3,0.3,0.5,0.6,0.5,1c0,0.4-0.2,0.8-0.5,1.1c-0.3,0.3-0.7,0.5-1.1,0.5C348.2,239.7,347.8,239.6,347.5,239.3z M347.5,243.2h2.1
			v15.8h-2.1V243.2z"/>
		<path class="st1" d="M369.3,251.7h-13.2c0.1,1.6,0.8,3,1.9,4c1.1,1,2.6,1.5,4.3,1.5c1,0,1.9-0.2,2.7-0.5c0.8-0.3,1.5-0.9,2.1-1.5
			l1.2,1.4c-0.7,0.8-1.6,1.5-2.6,1.9s-2.2,0.7-3.5,0.7c-1.6,0-3.1-0.3-4.3-1c-1.3-0.7-2.2-1.6-2.9-2.9c-0.7-1.2-1-2.6-1-4.1
			c0-1.5,0.3-2.9,1-4.1s1.6-2.2,2.8-2.9c1.2-0.7,2.5-1,3.9-1s2.8,0.3,3.9,1c1.2,0.7,2.1,1.6,2.7,2.8c0.7,1.2,1,2.6,1,4.2
			L369.3,251.7z M357.9,246.3c-1,1-1.6,2.2-1.8,3.8h11.2c-0.1-1.6-0.7-2.8-1.8-3.8c-1-1-2.3-1.5-3.9-1.5
			C360.2,244.9,358.9,245.3,357.9,246.3z"/>
		<path class="st1" d="M386.5,244.8c1.2,1.1,1.8,2.8,1.8,5v9.1h-2.1V250c0-1.6-0.4-2.9-1.2-3.8s-2-1.3-3.5-1.3c-1.7,0-3,0.5-4,1.5
			s-1.5,2.4-1.5,4.2v8.3h-2.1v-15.8h2v2.9c0.6-1,1.4-1.7,2.4-2.2c1-0.5,2.2-0.8,3.6-0.8C383.7,243,385.3,243.6,386.5,244.8z"/>
		<path class="st1" d="M402.3,258c-0.4,0.4-0.9,0.6-1.5,0.8c-0.6,0.2-1.2,0.3-1.8,0.3c-1.5,0-2.6-0.4-3.4-1.2
			c-0.8-0.8-1.2-1.9-1.2-3.4V245h-2.8v-1.8h2.8v-3.5h2.1v3.5h4.8v1.8h-4.8v9.4c0,0.9,0.2,1.7,0.7,2.1c0.5,0.5,1.1,0.7,2,0.7
			c0.4,0,0.9-0.1,1.3-0.2c0.4-0.1,0.8-0.3,1.1-0.6L402.3,258z"/>
		<path class="st1" d="M405.1,258.4c-0.5-0.5-0.7-1.1-0.7-1.8c0-0.7,0.2-1.3,0.7-1.8c0.5-0.5,1.1-0.7,1.8-0.7c0.7,0,1.3,0.2,1.8,0.7
			c0.5,0.5,0.7,1.1,0.7,1.8c0,0.7-0.2,1.3-0.7,1.8c-0.5,0.5-1.1,0.7-1.7,0.7C406.2,259.1,405.6,258.9,405.1,258.4z"/>
		<path d="M40.1,432.2c-0.3-0.3-0.5-0.8-0.5-1.3c0-0.5,0.2-0.9,0.5-1.3c0.3-0.3,0.7-0.5,1.2-0.5s0.9,0.2,1.2,0.5
			c0.3,0.3,0.5,0.7,0.5,1.3c0,0.5-0.2,0.9-0.5,1.3c-0.3,0.3-0.8,0.5-1.2,0.5S40.5,432.5,40.1,432.2z"/>
		<path d="M50.3,419.9h2.9v10.2h6.3v2.4h-9.2V419.9z"/>
		<path d="M62.8,432c-0.8-0.4-1.4-1-1.9-1.8c-0.5-0.8-0.7-1.6-0.7-2.6s0.2-1.8,0.7-2.6s1.1-1.3,1.9-1.8c0.8-0.4,1.7-0.6,2.7-0.6
			s1.9,0.2,2.7,0.6c0.8,0.4,1.4,1,1.9,1.8s0.7,1.6,0.7,2.6s-0.2,1.8-0.7,2.6c-0.5,0.8-1.1,1.3-1.9,1.8c-0.8,0.4-1.7,0.6-2.7,0.6
			S63.6,432.5,62.8,432z M67.3,429.6c0.5-0.5,0.7-1.1,0.7-2s-0.2-1.5-0.7-2s-1.1-0.7-1.8-0.7c-0.7,0-1.3,0.2-1.8,0.7
			c-0.5,0.5-0.7,1.1-0.7,2s0.2,1.5,0.7,2c0.5,0.5,1.1,0.7,1.8,0.7C66.2,430.4,66.8,430.1,67.3,429.6z"/>
		<path d="M88,422.8l-3.5,9.7h-2.7l-2.2-6l-2.2,6h-2.7l-3.5-9.7h2.6l2.3,6.6l2.4-6.6h2.4l2.3,6.6l2.4-6.6H88z"/>
		<path d="M98.5,428.5h-7.3c0.1,0.6,0.4,1.1,0.9,1.4s1.1,0.5,1.8,0.5c0.5,0,1-0.1,1.3-0.2c0.4-0.1,0.8-0.4,1.1-0.7l1.5,1.6
			c-0.9,1-2.2,1.6-4,1.6c-1.1,0-2.1-0.2-2.9-0.6c-0.8-0.4-1.5-1-1.9-1.8c-0.5-0.8-0.7-1.6-0.7-2.6c0-0.9,0.2-1.8,0.7-2.6
			c0.5-0.8,1.1-1.4,1.9-1.8c0.8-0.4,1.7-0.6,2.6-0.6c0.9,0,1.8,0.2,2.6,0.6s1.4,1,1.8,1.8s0.7,1.6,0.7,2.7
			C98.5,427.8,98.5,428,98.5,428.5z M91.9,425.4c-0.4,0.4-0.7,0.9-0.8,1.5h4.8c-0.1-0.6-0.4-1.1-0.8-1.5c-0.4-0.4-1-0.5-1.6-0.5
			C92.8,424.8,92.3,425,91.9,425.4z"/>
		<path d="M104.4,423.1c0.6-0.2,1.2-0.4,2-0.4v2.6c-0.3,0-0.5,0-0.6,0c-0.8,0-1.4,0.2-1.9,0.7c-0.5,0.4-0.7,1.1-0.7,2v4.6h-2.8v-9.7
			h2.7v1.3C103.4,423.7,103.8,423.3,104.4,423.1z"/>
		<path d="M115.1,432c-0.8-0.4-1.5-1-1.9-1.8c-0.5-0.8-0.7-1.6-0.7-2.6s0.2-1.8,0.7-2.6s1.1-1.3,1.9-1.8c0.8-0.4,1.7-0.6,2.8-0.6
			c1,0,1.9,0.2,2.7,0.6c0.8,0.4,1.3,1,1.7,1.8l-2.2,1.2c-0.5-0.9-1.2-1.3-2.2-1.3c-0.7,0-1.3,0.2-1.8,0.7c-0.5,0.5-0.7,1.1-0.7,2
			s0.2,1.5,0.7,2c0.5,0.5,1.1,0.7,1.8,0.7c1,0,1.7-0.4,2.2-1.3l2.2,1.2c-0.3,0.8-0.9,1.4-1.7,1.8s-1.7,0.6-2.7,0.6
			C116.9,432.7,115.9,432.5,115.1,432z"/>
		<path d="M125.6,432c-0.8-0.4-1.4-1-1.9-1.8c-0.5-0.8-0.7-1.6-0.7-2.6s0.2-1.8,0.7-2.6s1.1-1.3,1.9-1.8c0.8-0.4,1.7-0.6,2.7-0.6
			s1.9,0.2,2.7,0.6c0.8,0.4,1.4,1,1.9,1.8s0.7,1.6,0.7,2.6s-0.2,1.8-0.7,2.6c-0.5,0.8-1.1,1.3-1.9,1.8c-0.8,0.4-1.7,0.6-2.7,0.6
			S126.4,432.5,125.6,432z M130.1,429.6c0.5-0.5,0.7-1.1,0.7-2s-0.2-1.5-0.7-2s-1.1-0.7-1.8-0.7c-0.7,0-1.3,0.2-1.8,0.7
			c-0.5,0.5-0.7,1.1-0.7,2s0.2,1.5,0.7,2c0.5,0.5,1.1,0.7,1.8,0.7C129.1,430.4,129.7,430.1,130.1,429.6z"/>
		<path d="M136.4,432.4c-0.8-0.2-1.4-0.4-1.8-0.7l0.9-2c0.4,0.3,1,0.5,1.6,0.7c0.6,0.2,1.2,0.3,1.8,0.3c1.2,0,1.8-0.3,1.8-0.9
			c0-0.3-0.2-0.5-0.5-0.6s-0.8-0.2-1.5-0.3c-0.8-0.1-1.4-0.3-2-0.4c-0.5-0.2-1-0.4-1.3-0.8c-0.4-0.4-0.6-1-0.6-1.7
			c0-0.6,0.2-1.2,0.5-1.6c0.4-0.5,0.9-0.8,1.5-1.1c0.7-0.3,1.5-0.4,2.4-0.4c0.7,0,1.4,0.1,2,0.2c0.7,0.1,1.2,0.4,1.7,0.6l-0.9,2
			c-0.9-0.5-1.8-0.7-2.8-0.7c-0.6,0-1.1,0.1-1.4,0.3c-0.3,0.2-0.5,0.4-0.5,0.6c0,0.3,0.2,0.5,0.5,0.6c0.3,0.1,0.8,0.2,1.5,0.3
			c0.8,0.1,1.4,0.3,1.9,0.4c0.5,0.2,0.9,0.4,1.3,0.8c0.4,0.4,0.6,0.9,0.6,1.7c0,0.6-0.2,1.1-0.5,1.6s-0.9,0.8-1.6,1.1
			c-0.7,0.3-1.5,0.4-2.5,0.4C138,432.7,137.2,432.6,136.4,432.4z"/>
		<path d="M151.3,432.1c-0.3,0.2-0.6,0.4-1,0.5s-0.8,0.2-1.3,0.2c-1.2,0-2-0.3-2.7-0.9s-0.9-1.5-0.9-2.6v-4h-1.5v-2.2h1.5v-2.4h2.8
			v2.4h2.4v2.2h-2.4v3.9c0,0.4,0.1,0.7,0.3,0.9c0.2,0.2,0.5,0.3,0.9,0.3c0.4,0,0.8-0.1,1.1-0.4L151.3,432.1z"/>
		<path d="M153.8,432.4c-0.8-0.2-1.4-0.4-1.8-0.7l0.9-2c0.4,0.3,1,0.5,1.6,0.7c0.6,0.2,1.2,0.3,1.8,0.3c1.2,0,1.8-0.3,1.8-0.9
			c0-0.3-0.2-0.5-0.5-0.6s-0.8-0.2-1.5-0.3c-0.8-0.1-1.4-0.3-2-0.4c-0.5-0.2-1-0.4-1.3-0.8c-0.4-0.4-0.6-1-0.6-1.7
			c0-0.6,0.2-1.2,0.5-1.6c0.4-0.5,0.9-0.8,1.5-1.1c0.7-0.3,1.5-0.4,2.4-0.4c0.7,0,1.4,0.1,2,0.2c0.7,0.1,1.2,0.4,1.7,0.6l-0.9,2
			c-0.9-0.5-1.8-0.7-2.8-0.7c-0.6,0-1.1,0.1-1.4,0.3c-0.3,0.2-0.5,0.4-0.5,0.6c0,0.3,0.2,0.5,0.5,0.6c0.3,0.1,0.8,0.2,1.5,0.3
			c0.8,0.1,1.4,0.3,1.9,0.4c0.5,0.2,0.9,0.4,1.3,0.8c0.4,0.4,0.6,0.9,0.6,1.7c0,0.6-0.2,1.1-0.5,1.6s-0.9,0.8-1.6,1.1
			c-0.7,0.3-1.5,0.4-2.5,0.4C155.4,432.7,154.6,432.6,153.8,432.4z"/>
		<path d="M40.1,461.8c-0.3-0.3-0.5-0.8-0.5-1.3c0-0.5,0.2-0.9,0.5-1.3c0.3-0.3,0.7-0.5,1.2-0.5s0.9,0.2,1.2,0.5
			c0.3,0.3,0.5,0.7,0.5,1.3c0,0.5-0.2,0.9-0.5,1.3c-0.3,0.3-0.8,0.5-1.2,0.5S40.5,462.1,40.1,461.8z"/>
		<path d="M51.6,461.9c-0.9-0.3-1.7-0.6-2.2-1.1l1-2.2c0.5,0.4,1.2,0.7,1.9,1c0.7,0.2,1.5,0.4,2.2,0.4c0.8,0,1.4-0.1,1.8-0.4
			s0.6-0.6,0.6-1c0-0.3-0.1-0.5-0.4-0.7c-0.2-0.2-0.5-0.4-0.9-0.5c-0.4-0.1-0.9-0.3-1.5-0.4c-1-0.2-1.7-0.5-2.4-0.7
			c-0.6-0.2-1.1-0.6-1.6-1.1c-0.4-0.5-0.7-1.2-0.7-2c0-0.7,0.2-1.4,0.6-2s1-1.1,1.8-1.4c0.8-0.3,1.8-0.5,2.9-0.5
			c0.8,0,1.6,0.1,2.4,0.3c0.8,0.2,1.4,0.5,2,0.8l-0.9,2.2c-1.2-0.7-2.3-1-3.5-1c-0.8,0-1.4,0.1-1.8,0.4c-0.4,0.3-0.6,0.6-0.6,1
			c0,0.4,0.2,0.8,0.7,1c0.4,0.2,1.1,0.4,2.1,0.6c1,0.2,1.7,0.5,2.4,0.7c0.6,0.2,1.1,0.6,1.6,1.1c0.4,0.5,0.7,1.2,0.7,2
			c0,0.7-0.2,1.4-0.6,2c-0.4,0.6-1,1.1-1.8,1.4c-0.8,0.3-1.8,0.5-2.9,0.5C53.4,462.3,52.5,462.2,51.6,461.9z"/>
		<path d="M67.8,461.7c-0.3,0.2-0.6,0.4-1,0.5s-0.8,0.2-1.3,0.2c-1.2,0-2-0.3-2.7-0.9s-0.9-1.5-0.9-2.6v-4h-1.5v-2.2h1.5v-2.4h2.8
			v2.4h2.4v2.2h-2.4v3.9c0,0.4,0.1,0.7,0.3,0.9c0.2,0.2,0.5,0.3,0.9,0.3c0.4,0,0.8-0.1,1.1-0.4L67.8,461.7z"/>
		<path d="M73.5,452.7c0.6-0.2,1.2-0.4,2-0.4v2.6c-0.3,0-0.5,0-0.6,0c-0.8,0-1.4,0.2-1.9,0.7c-0.5,0.4-0.7,1.1-0.7,2v4.6h-2.8v-9.7
			h2.7v1.3C72.4,453.3,72.9,452.9,73.5,452.7z"/>
		<path d="M86.4,458.1h-7.3c0.1,0.6,0.4,1.1,0.9,1.4s1.1,0.5,1.8,0.5c0.5,0,1-0.1,1.3-0.2c0.4-0.1,0.8-0.4,1.1-0.7l1.5,1.6
			c-0.9,1-2.2,1.6-4,1.6c-1.1,0-2.1-0.2-2.9-0.6c-0.8-0.4-1.5-1-1.9-1.8c-0.5-0.8-0.7-1.6-0.7-2.6c0-0.9,0.2-1.8,0.7-2.6
			c0.5-0.8,1.1-1.4,1.9-1.8c0.8-0.4,1.7-0.6,2.6-0.6c0.9,0,1.8,0.2,2.6,0.6s1.4,1,1.8,1.8s0.7,1.6,0.7,2.7
			C86.5,457.4,86.5,457.6,86.4,458.1z M79.9,455c-0.4,0.4-0.7,0.9-0.8,1.5h4.8c-0.1-0.6-0.4-1.1-0.8-1.5c-0.4-0.4-1-0.5-1.6-0.5
			C80.8,454.4,80.3,454.6,79.9,455z"/>
		<path d="M95.5,453.4c0.8,0.7,1.2,1.8,1.2,3.2v5.5H94v-1.2c-0.5,0.9-1.5,1.3-3,1.3c-0.7,0-1.4-0.1-1.9-0.4c-0.5-0.3-1-0.6-1.3-1
			c-0.3-0.4-0.4-0.9-0.4-1.5c0-0.9,0.3-1.6,1-2.1c0.7-0.5,1.7-0.8,3.1-0.8h2.2c0-0.6-0.2-1.1-0.6-1.4c-0.4-0.3-0.9-0.5-1.7-0.5
			c-0.5,0-1,0.1-1.5,0.2c-0.5,0.2-0.9,0.4-1.3,0.7l-1-2c0.5-0.4,1.2-0.7,1.9-0.9c0.7-0.2,1.5-0.3,2.3-0.3
			C93.5,452.3,94.7,452.7,95.5,453.4z M93.1,460.1c0.4-0.2,0.6-0.5,0.8-1v-1h-1.9c-1.2,0-1.7,0.4-1.7,1.1c0,0.4,0.1,0.6,0.4,0.9
			c0.3,0.2,0.7,0.3,1.2,0.3C92.3,460.4,92.7,460.3,93.1,460.1z"/>
		<path d="M114.5,453.4c0.7,0.7,1.1,1.8,1.1,3.2v5.5h-2.8V457c0-0.8-0.2-1.3-0.5-1.7c-0.3-0.4-0.8-0.6-1.4-0.6
			c-0.7,0-1.2,0.2-1.6,0.6c-0.4,0.4-0.6,1.1-0.6,1.9v4.9H106V457c0-1.5-0.6-2.3-1.8-2.3c-0.6,0-1.2,0.2-1.5,0.6
			c-0.4,0.4-0.6,1.1-0.6,1.9v4.9h-2.8v-9.7h2.7v1.1c0.4-0.4,0.8-0.7,1.3-0.9c0.5-0.2,1.1-0.3,1.7-0.3c0.7,0,1.3,0.1,1.9,0.4
			c0.6,0.3,1,0.7,1.3,1.2c0.4-0.5,0.9-0.9,1.5-1.2c0.6-0.3,1.3-0.4,2-0.4C112.8,452.3,113.8,452.7,114.5,453.4z"/>
		<path d="M118.1,448.8h2.8v13.4h-2.8V448.8z"/>
		<path d="M123.7,450.6c-0.3-0.3-0.5-0.7-0.5-1.1c0-0.4,0.2-0.8,0.5-1.1c0.3-0.3,0.7-0.5,1.3-0.5c0.5,0,0.9,0.1,1.3,0.4
			c0.3,0.3,0.5,0.6,0.5,1.1c0,0.5-0.2,0.9-0.5,1.2c-0.3,0.3-0.7,0.5-1.3,0.5C124.4,451.1,124,450.9,123.7,450.6z M123.5,452.4h2.8
			v9.7h-2.8V452.4z"/>
		<path d="M137.7,453.4c0.7,0.7,1.1,1.8,1.1,3.2v5.5H136V457c0-0.8-0.2-1.3-0.5-1.7s-0.8-0.6-1.5-0.6c-0.7,0-1.3,0.2-1.7,0.7
			c-0.4,0.4-0.6,1.1-0.6,2v4.8h-2.8v-9.7h2.7v1.1c0.4-0.4,0.8-0.7,1.4-0.9c0.6-0.2,1.2-0.3,1.8-0.3C136,452.3,137,452.7,137.7,453.4
			z"/>
		<path d="M150.9,458.1h-7.3c0.1,0.6,0.4,1.1,0.9,1.4s1.1,0.5,1.8,0.5c0.5,0,1-0.1,1.3-0.2c0.4-0.1,0.8-0.4,1.1-0.7l1.5,1.6
			c-0.9,1-2.2,1.6-4,1.6c-1.1,0-2.1-0.2-2.9-0.6c-0.8-0.4-1.5-1-1.9-1.8c-0.5-0.8-0.7-1.6-0.7-2.6c0-0.9,0.2-1.8,0.7-2.6
			c0.5-0.8,1.1-1.4,1.9-1.8c0.8-0.4,1.7-0.6,2.6-0.6c0.9,0,1.8,0.2,2.6,0.6s1.4,1,1.8,1.8s0.7,1.6,0.7,2.7
			C151,457.4,150.9,457.6,150.9,458.1z M144.3,455c-0.4,0.4-0.7,0.9-0.8,1.5h4.8c-0.1-0.6-0.4-1.1-0.8-1.5c-0.4-0.4-1-0.5-1.6-0.5
			C145.3,454.4,144.8,454.6,144.3,455z"/>
		<path d="M166.1,452.9c0.7,0.4,1.3,1,1.7,1.7s0.6,1.6,0.6,2.6s-0.2,1.9-0.6,2.6s-1,1.3-1.7,1.7c-0.7,0.4-1.6,0.6-2.5,0.6
			c-1.2,0-2.2-0.4-2.9-1.2v4.5h-2.8v-13.2h2.7v1.1c0.7-0.8,1.7-1.3,3-1.3C164.5,452.3,165.4,452.5,166.1,452.9z M164.9,459.2
			c0.5-0.5,0.7-1.1,0.7-2s-0.2-1.5-0.7-2c-0.5-0.5-1.1-0.7-1.8-0.7c-0.7,0-1.3,0.2-1.8,0.7c-0.5,0.5-0.7,1.1-0.7,2s0.2,1.5,0.7,2
			c0.5,0.5,1.1,0.7,1.8,0.7C163.9,460,164.5,459.7,164.9,459.2z"/>
		<path d="M174.4,452.7c0.6-0.2,1.2-0.4,2-0.4v2.6c-0.3,0-0.5,0-0.6,0c-0.8,0-1.4,0.2-1.9,0.7c-0.5,0.4-0.7,1.1-0.7,2v4.6h-2.8v-9.7
			h2.7v1.3C173.4,453.3,173.8,452.9,174.4,452.7z"/>
		<path d="M179.8,461.6c-0.8-0.4-1.4-1-1.9-1.8c-0.5-0.8-0.7-1.6-0.7-2.6s0.2-1.8,0.7-2.6s1.1-1.3,1.9-1.8c0.8-0.4,1.7-0.6,2.7-0.6
			s1.9,0.2,2.7,0.6c0.8,0.4,1.4,1,1.9,1.8s0.7,1.6,0.7,2.6s-0.2,1.8-0.7,2.6c-0.5,0.8-1.1,1.3-1.9,1.8c-0.8,0.4-1.7,0.6-2.7,0.6
			S180.6,462.1,179.8,461.6z M184.3,459.2c0.5-0.5,0.7-1.1,0.7-2s-0.2-1.5-0.7-2s-1.1-0.7-1.8-0.7c-0.7,0-1.3,0.2-1.8,0.7
			c-0.5,0.5-0.7,1.1-0.7,2s0.2,1.5,0.7,2c0.5,0.5,1.1,0.7,1.8,0.7C183.3,460,183.9,459.7,184.3,459.2z"/>
		<path d="M191.6,461.6c-0.8-0.4-1.5-1-1.9-1.8c-0.5-0.8-0.7-1.6-0.7-2.6s0.2-1.8,0.7-2.6s1.1-1.3,1.9-1.8c0.8-0.4,1.7-0.6,2.8-0.6
			c1,0,1.9,0.2,2.7,0.6c0.8,0.4,1.3,1,1.7,1.8l-2.2,1.2c-0.5-0.9-1.2-1.3-2.2-1.3c-0.7,0-1.3,0.2-1.8,0.7c-0.5,0.5-0.7,1.1-0.7,2
			s0.2,1.5,0.7,2c0.5,0.5,1.1,0.7,1.8,0.7c1,0,1.7-0.4,2.2-1.3l2.2,1.2c-0.3,0.8-0.9,1.4-1.7,1.8s-1.7,0.6-2.7,0.6
			C193.4,462.3,192.5,462.1,191.6,461.6z"/>
		<path d="M209.7,458.1h-7.3c0.1,0.6,0.4,1.1,0.9,1.4s1.1,0.5,1.8,0.5c0.5,0,1-0.1,1.3-0.2c0.4-0.1,0.8-0.4,1.1-0.7l1.5,1.6
			c-0.9,1-2.2,1.6-4,1.6c-1.1,0-2.1-0.2-2.9-0.6c-0.8-0.4-1.5-1-1.9-1.8c-0.5-0.8-0.7-1.6-0.7-2.6c0-0.9,0.2-1.8,0.7-2.6
			c0.5-0.8,1.1-1.4,1.9-1.8c0.8-0.4,1.7-0.6,2.6-0.6c0.9,0,1.8,0.2,2.6,0.6s1.4,1,1.8,1.8s0.7,1.6,0.7,2.7
			C209.7,457.4,209.7,457.6,209.7,458.1z M203.1,455c-0.4,0.4-0.7,0.9-0.8,1.5h4.8c-0.1-0.6-0.4-1.1-0.8-1.5c-0.4-0.4-1-0.5-1.6-0.5
			C204.1,454.4,203.5,454.6,203.1,455z"/>
		<path d="M212.5,462c-0.8-0.2-1.4-0.4-1.8-0.7l0.9-2c0.4,0.3,1,0.5,1.6,0.7c0.6,0.2,1.2,0.3,1.8,0.3c1.2,0,1.8-0.3,1.8-0.9
			c0-0.3-0.2-0.5-0.5-0.6s-0.8-0.2-1.5-0.3c-0.8-0.1-1.4-0.3-2-0.4c-0.5-0.2-1-0.4-1.3-0.8c-0.4-0.4-0.6-1-0.6-1.7
			c0-0.6,0.2-1.2,0.5-1.6c0.4-0.5,0.9-0.8,1.5-1.1c0.7-0.3,1.5-0.4,2.4-0.4c0.7,0,1.4,0.1,2,0.2c0.7,0.1,1.2,0.4,1.7,0.6l-0.9,2
			c-0.9-0.5-1.8-0.7-2.8-0.7c-0.6,0-1.1,0.1-1.4,0.3c-0.3,0.2-0.5,0.4-0.5,0.6c0,0.3,0.2,0.5,0.5,0.6c0.3,0.1,0.8,0.2,1.5,0.3
			c0.8,0.1,1.4,0.3,1.9,0.4c0.5,0.2,0.9,0.4,1.3,0.8c0.4,0.4,0.6,0.9,0.6,1.7c0,0.6-0.2,1.1-0.5,1.6s-0.9,0.8-1.6,1.1
			c-0.7,0.3-1.5,0.4-2.5,0.4C214.1,462.3,213.3,462.2,212.5,462z"/>
		<path d="M222.1,462c-0.8-0.2-1.4-0.4-1.8-0.7l0.9-2c0.4,0.3,1,0.5,1.6,0.7c0.6,0.2,1.2,0.3,1.8,0.3c1.2,0,1.8-0.3,1.8-0.9
			c0-0.3-0.2-0.5-0.5-0.6s-0.8-0.2-1.5-0.3c-0.8-0.1-1.4-0.3-2-0.4c-0.5-0.2-1-0.4-1.3-0.8c-0.4-0.4-0.6-1-0.6-1.7
			c0-0.6,0.2-1.2,0.5-1.6c0.4-0.5,0.9-0.8,1.5-1.1c0.7-0.3,1.5-0.4,2.4-0.4c0.7,0,1.4,0.1,2,0.2c0.7,0.1,1.2,0.4,1.7,0.6l-0.9,2
			c-0.9-0.5-1.8-0.7-2.8-0.7c-0.6,0-1.1,0.1-1.4,0.3c-0.3,0.2-0.5,0.4-0.5,0.6c0,0.3,0.2,0.5,0.5,0.6c0.3,0.1,0.8,0.2,1.5,0.3
			c0.8,0.1,1.4,0.3,1.9,0.4c0.5,0.2,0.9,0.4,1.3,0.8c0.4,0.4,0.6,0.9,0.6,1.7c0,0.6-0.2,1.1-0.5,1.6s-0.9,0.8-1.6,1.1
			c-0.7,0.3-1.5,0.4-2.5,0.4C223.6,462.3,222.8,462.2,222.1,462z"/>
		<path d="M240.1,458.1h-7.3c0.1,0.6,0.4,1.1,0.9,1.4s1.1,0.5,1.8,0.5c0.5,0,1-0.1,1.3-0.2c0.4-0.1,0.8-0.4,1.1-0.7l1.5,1.6
			c-0.9,1-2.2,1.6-4,1.6c-1.1,0-2.1-0.2-2.9-0.6c-0.8-0.4-1.5-1-1.9-1.8c-0.5-0.8-0.7-1.6-0.7-2.6c0-0.9,0.2-1.8,0.7-2.6
			c0.5-0.8,1.1-1.4,1.9-1.8c0.8-0.4,1.7-0.6,2.6-0.6c0.9,0,1.8,0.2,2.6,0.6s1.4,1,1.8,1.8s0.7,1.6,0.7,2.7
			C240.2,457.4,240.2,457.6,240.1,458.1z M233.6,455c-0.4,0.4-0.7,0.9-0.8,1.5h4.8c-0.1-0.6-0.4-1.1-0.8-1.5c-0.4-0.4-1-0.5-1.6-0.5
			C234.5,454.4,234,454.6,233.6,455z"/>
		<path d="M243,462c-0.8-0.2-1.4-0.4-1.8-0.7l0.9-2c0.4,0.3,1,0.5,1.6,0.7c0.6,0.2,1.2,0.3,1.8,0.3c1.2,0,1.8-0.3,1.8-0.9
			c0-0.3-0.2-0.5-0.5-0.6s-0.8-0.2-1.5-0.3c-0.8-0.1-1.4-0.3-2-0.4c-0.5-0.2-1-0.4-1.3-0.8c-0.4-0.4-0.6-1-0.6-1.7
			c0-0.6,0.2-1.2,0.5-1.6c0.4-0.5,0.9-0.8,1.5-1.1c0.7-0.3,1.5-0.4,2.4-0.4c0.7,0,1.4,0.1,2,0.2c0.7,0.1,1.2,0.4,1.7,0.6l-0.9,2
			c-0.9-0.5-1.8-0.7-2.8-0.7c-0.6,0-1.1,0.1-1.4,0.3c-0.3,0.2-0.5,0.4-0.5,0.6c0,0.3,0.2,0.5,0.5,0.6c0.3,0.1,0.8,0.2,1.5,0.3
			c0.8,0.1,1.4,0.3,1.9,0.4c0.5,0.2,0.9,0.4,1.3,0.8c0.4,0.4,0.6,0.9,0.6,1.7c0,0.6-0.2,1.1-0.5,1.6s-0.9,0.8-1.6,1.1
			c-0.7,0.3-1.5,0.4-2.5,0.4C244.5,462.3,243.7,462.2,243,462z"/>
		<path d="M264.1,453.4c0.8,0.7,1.2,1.8,1.2,3.2v5.5h-2.6v-1.2c-0.5,0.9-1.5,1.3-3,1.3c-0.7,0-1.4-0.1-1.9-0.4c-0.5-0.3-1-0.6-1.3-1
			c-0.3-0.4-0.4-0.9-0.4-1.5c0-0.9,0.3-1.6,1-2.1c0.7-0.5,1.7-0.8,3.1-0.8h2.2c0-0.6-0.2-1.1-0.6-1.4c-0.4-0.3-0.9-0.5-1.7-0.5
			c-0.5,0-1,0.1-1.5,0.2c-0.5,0.2-0.9,0.4-1.3,0.7l-1-2c0.5-0.4,1.2-0.7,1.9-0.9c0.7-0.2,1.5-0.3,2.3-0.3
			C262.1,452.3,263.3,452.7,264.1,453.4z M261.7,460.1c0.4-0.2,0.6-0.5,0.8-1v-1h-1.9c-1.2,0-1.7,0.4-1.7,1.1c0,0.4,0.1,0.6,0.4,0.9
			c0.3,0.2,0.7,0.3,1.2,0.3C260.9,460.4,261.3,460.3,261.7,460.1z"/>
		<path d="M276.6,453.4c0.7,0.7,1.1,1.8,1.1,3.2v5.5h-2.8V457c0-0.8-0.2-1.3-0.5-1.7s-0.8-0.6-1.5-0.6c-0.7,0-1.3,0.2-1.7,0.7
			c-0.4,0.4-0.6,1.1-0.6,2v4.8h-2.8v-9.7h2.7v1.1c0.4-0.4,0.8-0.7,1.4-0.9c0.6-0.2,1.2-0.3,1.8-0.3
			C274.9,452.3,275.9,452.7,276.6,453.4z"/>
		<path d="M290.2,448.8v13.4h-2.7V461c-0.7,0.8-1.7,1.3-3,1.3c-0.9,0-1.7-0.2-2.5-0.6s-1.3-1-1.7-1.7c-0.4-0.8-0.6-1.6-0.6-2.6
			s0.2-1.9,0.6-2.6c0.4-0.8,1-1.3,1.7-1.7s1.6-0.6,2.5-0.6c1.2,0,2.2,0.4,2.9,1.2v-4.7H290.2z M286.8,459.2c0.5-0.5,0.7-1.1,0.7-2
			s-0.2-1.5-0.7-2c-0.5-0.5-1.1-0.7-1.8-0.7c-0.7,0-1.3,0.2-1.8,0.7c-0.5,0.5-0.7,1.1-0.7,2s0.2,1.5,0.7,2c0.5,0.5,1.1,0.7,1.8,0.7
			C285.7,460,286.3,459.7,286.8,459.2z"/>
		<path d="M298.8,462c-0.8-0.2-1.4-0.4-1.8-0.7l0.9-2c0.4,0.3,1,0.5,1.6,0.7c0.6,0.2,1.2,0.3,1.8,0.3c1.2,0,1.8-0.3,1.8-0.9
			c0-0.3-0.2-0.5-0.5-0.6s-0.8-0.2-1.5-0.3c-0.8-0.1-1.4-0.3-2-0.4c-0.5-0.2-1-0.4-1.3-0.8c-0.4-0.4-0.6-1-0.6-1.7
			c0-0.6,0.2-1.2,0.5-1.6c0.4-0.5,0.9-0.8,1.5-1.1c0.7-0.3,1.5-0.4,2.4-0.4c0.7,0,1.4,0.1,2,0.2c0.7,0.1,1.2,0.4,1.7,0.6l-0.9,2
			c-0.9-0.5-1.8-0.7-2.8-0.7c-0.6,0-1.1,0.1-1.4,0.3c-0.3,0.2-0.5,0.4-0.5,0.6c0,0.3,0.2,0.5,0.5,0.6c0.3,0.1,0.8,0.2,1.5,0.3
			c0.8,0.1,1.4,0.3,1.9,0.4c0.5,0.2,0.9,0.4,1.3,0.8c0.4,0.4,0.6,0.9,0.6,1.7c0,0.6-0.2,1.1-0.5,1.6s-0.9,0.8-1.6,1.1
			c-0.7,0.3-1.5,0.4-2.5,0.4C300.4,462.3,299.6,462.2,298.8,462z"/>
		<path d="M314.8,453.4c0.8,0.7,1.2,1.8,1.2,3.2v5.5h-2.6v-1.2c-0.5,0.9-1.5,1.3-3,1.3c-0.7,0-1.4-0.1-1.9-0.4c-0.5-0.3-1-0.6-1.3-1
			c-0.3-0.4-0.4-0.9-0.4-1.5c0-0.9,0.3-1.6,1-2.1c0.7-0.5,1.7-0.8,3.1-0.8h2.2c0-0.6-0.2-1.1-0.6-1.4c-0.4-0.3-0.9-0.5-1.7-0.5
			c-0.5,0-1,0.1-1.5,0.2c-0.5,0.2-0.9,0.4-1.3,0.7l-1-2c0.5-0.4,1.2-0.7,1.9-0.9c0.7-0.2,1.5-0.3,2.3-0.3
			C312.9,452.3,314,452.7,314.8,453.4z M312.5,460.1c0.4-0.2,0.6-0.5,0.8-1v-1h-1.9c-1.2,0-1.7,0.4-1.7,1.1c0,0.4,0.1,0.6,0.4,0.9
			c0.3,0.2,0.7,0.3,1.2,0.3C311.7,460.4,312.1,460.3,312.5,460.1z"/>
		<path d="M318.6,448.8h2.8v13.4h-2.8V448.8z"/>
		<path d="M333.4,458.1h-7.3c0.1,0.6,0.4,1.1,0.9,1.4s1.1,0.5,1.8,0.5c0.5,0,1-0.1,1.3-0.2c0.4-0.1,0.8-0.4,1.1-0.7l1.5,1.6
			c-0.9,1-2.2,1.6-4,1.6c-1.1,0-2.1-0.2-2.9-0.6s-1.5-1-1.9-1.8c-0.5-0.8-0.7-1.6-0.7-2.6c0-0.9,0.2-1.8,0.7-2.6
			c0.4-0.8,1.1-1.4,1.9-1.8c0.8-0.4,1.7-0.6,2.6-0.6c0.9,0,1.8,0.2,2.6,0.6s1.4,1,1.8,1.8s0.7,1.6,0.7,2.7
			C333.5,457.4,333.5,457.6,333.4,458.1z M326.9,455c-0.4,0.4-0.7,0.9-0.8,1.5h4.8c-0.1-0.6-0.4-1.1-0.8-1.5c-0.4-0.4-1-0.5-1.6-0.5
			C327.8,454.4,327.3,454.6,326.9,455z"/>
		<path d="M336.3,462c-0.8-0.2-1.4-0.4-1.8-0.7l0.9-2c0.4,0.3,1,0.5,1.6,0.7c0.6,0.2,1.2,0.3,1.8,0.3c1.2,0,1.8-0.3,1.8-0.9
			c0-0.3-0.2-0.5-0.5-0.6s-0.8-0.2-1.5-0.3c-0.8-0.1-1.4-0.3-2-0.4s-1-0.4-1.3-0.8c-0.4-0.4-0.6-1-0.6-1.7c0-0.6,0.2-1.2,0.5-1.6
			c0.4-0.5,0.9-0.8,1.5-1.1c0.7-0.3,1.5-0.4,2.4-0.4c0.7,0,1.4,0.1,2,0.2c0.7,0.1,1.2,0.4,1.7,0.6l-0.9,2c-0.9-0.5-1.8-0.7-2.8-0.7
			c-0.6,0-1.1,0.1-1.4,0.3s-0.4,0.4-0.4,0.6c0,0.3,0.2,0.5,0.5,0.6c0.3,0.1,0.8,0.2,1.5,0.3c0.8,0.1,1.4,0.3,1.9,0.4
			c0.5,0.2,0.9,0.4,1.3,0.8c0.4,0.4,0.6,0.9,0.6,1.7c0,0.6-0.2,1.1-0.5,1.6s-0.9,0.8-1.6,1.1c-0.7,0.3-1.5,0.4-2.5,0.4
			C337.8,462.3,337,462.2,336.3,462z"/>
		<path d="M40.1,491.4c-0.3-0.3-0.5-0.8-0.5-1.3c0-0.5,0.2-0.9,0.5-1.3c0.3-0.3,0.7-0.5,1.2-0.5s0.9,0.2,1.2,0.5
			c0.3,0.3,0.5,0.7,0.5,1.3c0,0.5-0.2,0.9-0.5,1.3c-0.3,0.3-0.8,0.5-1.2,0.5S40.5,491.7,40.1,491.4z"/>
		<path d="M58.9,489.4v2.4h-9.5v-1.9l4.9-4.6c0.5-0.5,0.9-0.9,1-1.3c0.2-0.4,0.3-0.7,0.3-1.1c0-0.5-0.2-0.9-0.5-1.2
			c-0.3-0.3-0.8-0.4-1.5-0.4c-0.6,0-1.1,0.1-1.5,0.3s-0.8,0.5-1.1,0.9l-2.1-1.4c0.5-0.7,1.2-1.3,2-1.7c0.9-0.4,1.9-0.6,3-0.6
			c0.9,0,1.8,0.2,2.5,0.5c0.7,0.3,1.2,0.7,1.6,1.3c0.4,0.6,0.6,1.2,0.6,2c0,0.7-0.1,1.3-0.4,1.9c-0.3,0.6-0.8,1.3-1.7,2.1l-2.9,2.7
			H58.9z"/>
		<path d="M71.5,489.1h-2.1v2.6h-2.8v-2.6h-6.8v-2l5.9-8h3.1l-5.5,7.6h3.4v-2.4h2.8v2.4h2.1V489.1z"/>
		<path d="M77.4,476.6h2.5l-5.9,17h-2.5L77.4,476.6z"/>
		<path d="M89.8,479.1v1.9l-4.7,10.7H82l4.5-10.2h-4.2v2.1h-2.6v-4.4H89.8z"/>
		<path d="M99.6,491.1c-1-0.6-1.9-1.3-2.4-2.3c-0.6-1-0.9-2.1-0.9-3.4s0.3-2.4,0.9-3.4c0.6-1,1.4-1.8,2.4-2.3c1-0.6,2.2-0.8,3.5-0.8
			c1.1,0,2.1,0.2,3,0.6c0.9,0.4,1.6,0.9,2.2,1.7l-1.9,1.7c-0.9-1-1.9-1.5-3.2-1.5c-0.8,0-1.5,0.2-2.1,0.5c-0.6,0.3-1.1,0.8-1.4,1.4
			c-0.3,0.6-0.5,1.3-0.5,2.1s0.2,1.5,0.5,2.1s0.8,1.1,1.4,1.4c0.6,0.3,1.3,0.5,2.1,0.5c1.3,0,2.3-0.5,3.2-1.5l1.9,1.7
			c-0.6,0.7-1.3,1.3-2.2,1.7c-0.9,0.4-1.9,0.6-3,0.6C101.8,491.9,100.6,491.7,99.6,491.1z"/>
		<path d="M110,478.4h2.8v13.4H110V478.4z"/>
		<path d="M115.6,480.2c-0.3-0.3-0.5-0.7-0.5-1.1c0-0.4,0.2-0.8,0.5-1.1c0.3-0.3,0.7-0.5,1.3-0.5c0.5,0,0.9,0.1,1.3,0.4
			c0.3,0.3,0.5,0.6,0.5,1.1c0,0.5-0.2,0.9-0.5,1.2c-0.3,0.3-0.7,0.5-1.3,0.5C116.3,480.7,115.9,480.5,115.6,480.2z M115.4,482h2.8
			v9.7h-2.8V482z"/>
		<path d="M130.3,487.7h-7.3c0.1,0.6,0.4,1.1,0.9,1.4s1.1,0.5,1.8,0.5c0.5,0,1-0.1,1.3-0.2c0.4-0.1,0.8-0.4,1.1-0.7l1.5,1.6
			c-0.9,1-2.2,1.6-4,1.6c-1.1,0-2.1-0.2-2.9-0.6c-0.8-0.4-1.5-1-1.9-1.8c-0.5-0.8-0.7-1.6-0.7-2.6c0-0.9,0.2-1.8,0.7-2.6
			c0.5-0.8,1.1-1.4,1.9-1.8c0.8-0.4,1.7-0.6,2.6-0.6c0.9,0,1.8,0.2,2.6,0.6s1.4,1,1.8,1.8s0.7,1.6,0.7,2.7
			C130.3,487,130.3,487.2,130.3,487.7z M123.7,484.6c-0.4,0.4-0.7,0.9-0.8,1.5h4.8c-0.1-0.6-0.4-1.1-0.8-1.5c-0.4-0.4-1-0.5-1.6-0.5
			C124.7,484,124.1,484.2,123.7,484.6z"/>
		<path d="M141,483c0.7,0.7,1.1,1.8,1.1,3.2v5.5h-2.8v-5.1c0-0.8-0.2-1.3-0.5-1.7s-0.8-0.6-1.5-0.6c-0.7,0-1.3,0.2-1.7,0.7
			c-0.4,0.4-0.6,1.1-0.6,2v4.8h-2.8V482h2.7v1.1c0.4-0.4,0.8-0.7,1.4-0.9c0.6-0.2,1.2-0.3,1.8-0.3C139.3,481.9,140.3,482.3,141,483z
			"/>
		<path d="M150.9,491.3c-0.3,0.2-0.6,0.4-1,0.5s-0.8,0.2-1.3,0.2c-1.2,0-2-0.3-2.7-0.9s-0.9-1.5-0.9-2.6v-4h-1.5v-2.2h1.5v-2.4h2.8
			v2.4h2.4v2.2h-2.4v3.9c0,0.4,0.1,0.7,0.3,0.9c0.2,0.2,0.5,0.3,0.9,0.3c0.4,0,0.8-0.1,1.1-0.4L150.9,491.3z"/>
		<path d="M158.5,491.6c-0.8-0.2-1.4-0.4-1.8-0.7l0.9-2c0.4,0.3,1,0.5,1.6,0.7c0.6,0.2,1.2,0.3,1.8,0.3c1.2,0,1.8-0.3,1.8-0.9
			c0-0.3-0.2-0.5-0.5-0.6s-0.8-0.2-1.5-0.3c-0.8-0.1-1.4-0.3-2-0.4c-0.5-0.2-1-0.4-1.3-0.8c-0.4-0.4-0.6-1-0.6-1.7
			c0-0.6,0.2-1.2,0.5-1.6c0.4-0.5,0.9-0.8,1.5-1.1c0.7-0.3,1.5-0.4,2.4-0.4c0.7,0,1.4,0.1,2,0.2c0.7,0.1,1.2,0.4,1.7,0.6l-0.9,2
			c-0.9-0.5-1.8-0.7-2.8-0.7c-0.6,0-1.1,0.1-1.4,0.3c-0.3,0.2-0.5,0.4-0.5,0.6c0,0.3,0.2,0.5,0.5,0.6c0.3,0.1,0.8,0.2,1.5,0.3
			c0.8,0.1,1.4,0.3,1.9,0.4c0.5,0.2,0.9,0.4,1.3,0.8c0.4,0.4,0.6,0.9,0.6,1.7c0,0.6-0.2,1.1-0.5,1.6s-0.9,0.8-1.6,1.1
			c-0.7,0.3-1.5,0.4-2.5,0.4C160,491.9,159.2,491.8,158.5,491.6z"/>
		<path d="M176.9,482v9.7h-2.7v-1.2c-0.4,0.4-0.8,0.7-1.3,1c-0.5,0.2-1.1,0.3-1.7,0.3c-1.3,0-2.3-0.4-3-1.1
			c-0.7-0.7-1.1-1.8-1.1-3.3V482h2.8v5.1c0,1.6,0.7,2.3,2,2.3c0.7,0,1.2-0.2,1.6-0.7c0.4-0.4,0.6-1.1,0.6-2V482H176.9z"/>
		<path d="M187.7,482.5c0.7,0.4,1.3,1,1.7,1.7s0.6,1.6,0.6,2.6s-0.2,1.9-0.6,2.6s-1,1.3-1.7,1.7c-0.7,0.4-1.6,0.6-2.5,0.6
			c-1.2,0-2.2-0.4-2.9-1.2v4.5h-2.8V482h2.7v1.1c0.7-0.8,1.7-1.3,3-1.3C186.1,481.9,186.9,482.1,187.7,482.5z M186.5,488.8
			c0.5-0.5,0.7-1.1,0.7-2s-0.2-1.5-0.7-2c-0.5-0.5-1.1-0.7-1.8-0.7c-0.7,0-1.3,0.2-1.8,0.7c-0.5,0.5-0.7,1.1-0.7,2s0.2,1.5,0.7,2
			c0.5,0.5,1.1,0.7,1.8,0.7C185.4,489.6,186,489.3,186.5,488.8z"/>
		<path d="M200.1,482.5c0.7,0.4,1.3,1,1.7,1.7s0.6,1.6,0.6,2.6s-0.2,1.9-0.6,2.6s-1,1.3-1.7,1.7c-0.7,0.4-1.6,0.6-2.5,0.6
			c-1.2,0-2.2-0.4-2.9-1.2v4.5h-2.8V482h2.7v1.1c0.7-0.8,1.7-1.3,3-1.3C198.5,481.9,199.3,482.1,200.1,482.5z M198.9,488.8
			c0.5-0.5,0.7-1.1,0.7-2s-0.2-1.5-0.7-2c-0.5-0.5-1.1-0.7-1.8-0.7c-0.7,0-1.3,0.2-1.8,0.7c-0.5,0.5-0.7,1.1-0.7,2s0.2,1.5,0.7,2
			c0.5,0.5,1.1,0.7,1.8,0.7C197.9,489.6,198.5,489.3,198.9,488.8z"/>
		<path d="M206.2,491.2c-0.8-0.4-1.4-1-1.9-1.8c-0.5-0.8-0.7-1.6-0.7-2.6s0.2-1.8,0.7-2.6s1.1-1.3,1.9-1.8c0.8-0.4,1.7-0.6,2.7-0.6
			s1.9,0.2,2.7,0.6c0.8,0.4,1.4,1,1.9,1.8s0.7,1.6,0.7,2.6s-0.2,1.8-0.7,2.6c-0.5,0.8-1.1,1.3-1.9,1.8c-0.8,0.4-1.7,0.6-2.7,0.6
			S207,491.7,206.2,491.2z M210.7,488.8c0.5-0.5,0.7-1.1,0.7-2s-0.2-1.5-0.7-2s-1.1-0.7-1.8-0.7c-0.7,0-1.3,0.2-1.8,0.7
			c-0.5,0.5-0.7,1.1-0.7,2s0.2,1.5,0.7,2c0.5,0.5,1.1,0.7,1.8,0.7C209.7,489.6,210.2,489.3,210.7,488.8z"/>
		<path d="M220.2,482.3c0.6-0.2,1.2-0.4,2-0.4v2.6c-0.3,0-0.5,0-0.6,0c-0.8,0-1.4,0.2-1.9,0.7c-0.5,0.4-0.7,1.1-0.7,2v4.6h-2.8V482
			h2.7v1.3C219.1,482.9,219.6,482.5,220.2,482.3z"/>
		<path d="M230.4,491.3c-0.3,0.2-0.6,0.4-1,0.5s-0.8,0.2-1.3,0.2c-1.2,0-2-0.3-2.7-0.9s-0.9-1.5-0.9-2.6v-4H223v-2.2h1.5v-2.4h2.8
			v2.4h2.4v2.2h-2.4v3.9c0,0.4,0.1,0.7,0.3,0.9c0.2,0.2,0.5,0.3,0.9,0.3c0.4,0,0.8-0.1,1.1-0.4L230.4,491.3z"/>
		<path d="M40.1,521c-0.3-0.3-0.5-0.8-0.5-1.3c0-0.5,0.2-0.9,0.5-1.3c0.3-0.3,0.7-0.5,1.2-0.5s0.9,0.2,1.2,0.5
			c0.3,0.3,0.5,0.7,0.5,1.3c0,0.5-0.2,0.9-0.5,1.3c-0.3,0.3-0.8,0.5-1.2,0.5S40.5,521.3,40.1,521z"/>
		<path d="M58.6,518.6h-5.9l-1.1,2.7h-3l5.6-12.6h2.9l5.6,12.6h-3.1L58.6,518.6z M57.7,516.4l-2-4.8l-2,4.8H57.7z"/>
		<path d="M73.5,511.6v9.7h-2.7v-1.2c-0.4,0.4-0.8,0.7-1.3,1c-0.5,0.2-1.1,0.3-1.7,0.3c-1.3,0-2.3-0.4-3-1.1
			c-0.7-0.7-1.1-1.8-1.1-3.3v-5.5h2.8v5.1c0,1.6,0.7,2.3,2,2.3c0.7,0,1.2-0.2,1.6-0.7c0.4-0.4,0.6-1.1,0.6-2v-4.8H73.5z"/>
		<path d="M82.3,520.9c-0.3,0.2-0.6,0.4-1,0.5s-0.8,0.2-1.3,0.2c-1.2,0-2-0.3-2.7-0.9s-0.9-1.5-0.9-2.6v-4h-1.5v-2.2h1.5v-2.4h2.8
			v2.4h2.4v2.2h-2.4v3.9c0,0.4,0.1,0.7,0.3,0.9c0.2,0.2,0.5,0.3,0.9,0.3c0.4,0,0.8-0.1,1.1-0.4L82.3,520.9z"/>
		<path d="M85.5,520.8c-0.8-0.4-1.4-1-1.9-1.8c-0.5-0.8-0.7-1.6-0.7-2.6s0.2-1.8,0.7-2.6s1.1-1.3,1.9-1.8c0.8-0.4,1.7-0.6,2.7-0.6
			s1.9,0.2,2.7,0.6c0.8,0.4,1.4,1,1.9,1.8s0.7,1.6,0.7,2.6s-0.2,1.8-0.7,2.6c-0.5,0.8-1.1,1.3-1.9,1.8c-0.8,0.4-1.7,0.6-2.7,0.6
			S86.3,521.3,85.5,520.8z M90,518.4c0.5-0.5,0.7-1.1,0.7-2s-0.2-1.5-0.7-2s-1.1-0.7-1.8-0.7c-0.7,0-1.3,0.2-1.8,0.7
			c-0.5,0.5-0.7,1.1-0.7,2s0.2,1.5,0.7,2c0.5,0.5,1.1,0.7,1.8,0.7C88.9,519.2,89.5,518.9,90,518.4z"/>
		<path d="M110.7,512.6c0.7,0.7,1.1,1.8,1.1,3.2v5.5h-2.8v-5.1c0-0.8-0.2-1.3-0.5-1.7c-0.3-0.4-0.8-0.6-1.4-0.6
			c-0.7,0-1.2,0.2-1.6,0.6c-0.4,0.4-0.6,1.1-0.6,1.9v4.9h-2.8v-5.1c0-1.5-0.6-2.3-1.8-2.3c-0.6,0-1.2,0.2-1.5,0.6
			c-0.4,0.4-0.6,1.1-0.6,1.9v4.9h-2.8v-9.7h2.7v1.1c0.4-0.4,0.8-0.7,1.3-0.9c0.5-0.2,1.1-0.3,1.7-0.3c0.7,0,1.3,0.1,1.9,0.4
			c0.6,0.3,1,0.7,1.3,1.2c0.4-0.5,0.9-0.9,1.5-1.2c0.6-0.3,1.3-0.4,2-0.4C109,511.5,110,511.9,110.7,512.6z"/>
		<path d="M121.6,512.6c0.8,0.7,1.2,1.8,1.2,3.2v5.5h-2.6v-1.2c-0.5,0.9-1.5,1.3-3,1.3c-0.7,0-1.4-0.1-1.9-0.4c-0.5-0.3-1-0.6-1.3-1
			c-0.3-0.4-0.4-0.9-0.4-1.5c0-0.9,0.3-1.6,1-2.1c0.7-0.5,1.7-0.8,3.1-0.8h2.2c0-0.6-0.2-1.1-0.6-1.4c-0.4-0.3-0.9-0.5-1.7-0.5
			c-0.5,0-1,0.1-1.5,0.2c-0.5,0.2-0.9,0.4-1.3,0.7l-1-2c0.5-0.4,1.2-0.7,1.9-0.9c0.7-0.2,1.5-0.3,2.3-0.3
			C119.7,511.5,120.8,511.9,121.6,512.6z M119.2,519.3c0.4-0.2,0.6-0.5,0.8-1v-1h-1.9c-1.2,0-1.7,0.4-1.7,1.1c0,0.4,0.1,0.6,0.4,0.9
			c0.3,0.2,0.7,0.3,1.2,0.3C118.4,519.6,118.9,519.5,119.2,519.3z"/>
		<path d="M131.6,520.9c-0.3,0.2-0.6,0.4-1,0.5s-0.8,0.2-1.3,0.2c-1.2,0-2-0.3-2.7-0.9s-0.9-1.5-0.9-2.6v-4h-1.5v-2.2h1.5v-2.4h2.8
			v2.4h2.4v2.2h-2.4v3.9c0,0.4,0.1,0.7,0.3,0.9c0.2,0.2,0.5,0.3,0.9,0.3c0.4,0,0.8-0.1,1.1-0.4L131.6,520.9z"/>
		<path d="M142.3,517.3H135c0.1,0.6,0.4,1.1,0.9,1.4s1.1,0.5,1.8,0.5c0.5,0,1-0.1,1.3-0.2c0.4-0.1,0.8-0.4,1.1-0.7l1.5,1.6
			c-0.9,1-2.2,1.6-4,1.6c-1.1,0-2.1-0.2-2.9-0.6c-0.8-0.4-1.5-1-1.9-1.8c-0.5-0.8-0.7-1.6-0.7-2.6c0-0.9,0.2-1.8,0.7-2.6
			c0.5-0.8,1.1-1.4,1.9-1.8c0.8-0.4,1.7-0.6,2.6-0.6c0.9,0,1.8,0.2,2.6,0.6c0.8,0.4,1.4,1,1.8,1.8s0.7,1.6,0.7,2.7
			C142.4,516.6,142.4,516.8,142.3,517.3z M135.8,514.2c-0.4,0.4-0.7,0.9-0.8,1.5h4.8c-0.1-0.6-0.4-1.1-0.8-1.5
			c-0.4-0.4-1-0.5-1.6-0.5C136.7,513.6,136.2,513.8,135.8,514.2z"/>
		<path d="M154.1,508v13.4h-2.7v-1.1c-0.7,0.8-1.7,1.3-3,1.3c-0.9,0-1.7-0.2-2.5-0.6s-1.3-1-1.7-1.7c-0.4-0.8-0.6-1.6-0.6-2.6
			s0.2-1.9,0.6-2.6c0.4-0.8,1-1.3,1.7-1.7c0.7-0.4,1.6-0.6,2.5-0.6c1.2,0,2.2,0.4,2.9,1.2V508H154.1z M150.7,518.4
			c0.5-0.5,0.7-1.1,0.7-2s-0.2-1.5-0.7-2c-0.5-0.5-1.1-0.7-1.8-0.7c-0.7,0-1.3,0.2-1.8,0.7c-0.5,0.5-0.7,1.1-0.7,2s0.2,1.5,0.7,2
			c0.5,0.5,1.1,0.7,1.8,0.7C149.6,519.2,150.2,518.9,150.7,518.4z"/>
		<path d="M165.9,511.9c0.6-0.2,1.2-0.4,2-0.4v2.6c-0.3,0-0.5,0-0.6,0c-0.8,0-1.4,0.2-1.9,0.7c-0.5,0.4-0.7,1.1-0.7,2v4.6h-2.8v-9.7
			h2.7v1.3C164.8,512.5,165.3,512.1,165.9,511.9z"/>
		<path d="M178.8,517.3h-7.3c0.1,0.6,0.4,1.1,0.9,1.4s1.1,0.5,1.8,0.5c0.5,0,1-0.1,1.3-0.2c0.4-0.1,0.8-0.4,1.1-0.7l1.5,1.6
			c-0.9,1-2.2,1.6-4,1.6c-1.1,0-2.1-0.2-2.9-0.6c-0.8-0.4-1.5-1-1.9-1.8c-0.5-0.8-0.7-1.6-0.7-2.6c0-0.9,0.2-1.8,0.7-2.6
			c0.5-0.8,1.1-1.4,1.9-1.8c0.8-0.4,1.7-0.6,2.6-0.6c0.9,0,1.8,0.2,2.6,0.6c0.8,0.4,1.4,1,1.8,1.8s0.7,1.6,0.7,2.7
			C178.9,516.6,178.9,516.8,178.8,517.3z M172.3,514.2c-0.4,0.4-0.7,0.9-0.8,1.5h4.8c-0.1-0.6-0.4-1.1-0.8-1.5
			c-0.4-0.4-1-0.5-1.6-0.5C173.2,513.6,172.7,513.8,172.3,514.2z"/>
		<path d="M181.7,521.2c-0.8-0.2-1.4-0.4-1.8-0.7l0.9-2c0.4,0.3,1,0.5,1.6,0.7c0.6,0.2,1.2,0.3,1.8,0.3c1.2,0,1.8-0.3,1.8-0.9
			c0-0.3-0.2-0.5-0.5-0.6s-0.8-0.2-1.5-0.3c-0.8-0.1-1.4-0.3-2-0.4c-0.5-0.2-1-0.4-1.3-0.8c-0.4-0.4-0.6-1-0.6-1.7
			c0-0.6,0.2-1.2,0.5-1.6c0.4-0.5,0.9-0.8,1.5-1.1c0.7-0.3,1.5-0.4,2.4-0.4c0.7,0,1.4,0.1,2,0.2c0.7,0.1,1.2,0.4,1.7,0.6l-0.9,2
			c-0.9-0.5-1.8-0.7-2.8-0.7c-0.6,0-1.1,0.1-1.4,0.3c-0.3,0.2-0.5,0.4-0.5,0.6c0,0.3,0.2,0.5,0.5,0.6c0.3,0.1,0.8,0.2,1.5,0.3
			c0.8,0.1,1.4,0.3,1.9,0.4c0.5,0.2,0.9,0.4,1.3,0.8c0.4,0.4,0.6,0.9,0.6,1.7c0,0.6-0.2,1.1-0.5,1.6s-0.9,0.8-1.6,1.1
			c-0.7,0.3-1.5,0.4-2.5,0.4C183.2,521.5,182.4,521.4,181.7,521.2z"/>
		<path d="M198.5,512.1c0.7,0.4,1.3,1,1.7,1.7s0.6,1.6,0.6,2.6s-0.2,1.9-0.6,2.6s-1,1.3-1.7,1.7c-0.7,0.4-1.6,0.6-2.5,0.6
			c-1.2,0-2.2-0.4-2.9-1.2v4.5h-2.8v-13.2h2.7v1.1c0.7-0.8,1.7-1.3,3-1.3C196.9,511.5,197.8,511.7,198.5,512.1z M197.3,518.4
			c0.5-0.5,0.7-1.1,0.7-2s-0.2-1.5-0.7-2c-0.5-0.5-1.1-0.7-1.8-0.7c-0.7,0-1.3,0.2-1.8,0.7c-0.5,0.5-0.7,1.1-0.7,2s0.2,1.5,0.7,2
			c0.5,0.5,1.1,0.7,1.8,0.7C196.3,519.2,196.9,518.9,197.3,518.4z"/>
		<path d="M204.6,520.8c-0.8-0.4-1.4-1-1.9-1.8c-0.5-0.8-0.7-1.6-0.7-2.6s0.2-1.8,0.7-2.6s1.1-1.3,1.9-1.8c0.8-0.4,1.7-0.6,2.7-0.6
			s1.9,0.2,2.7,0.6c0.8,0.4,1.4,1,1.9,1.8s0.7,1.6,0.7,2.6s-0.2,1.8-0.7,2.6c-0.5,0.8-1.1,1.3-1.9,1.8c-0.8,0.4-1.7,0.6-2.7,0.6
			S205.4,521.3,204.6,520.8z M209.1,518.4c0.5-0.5,0.7-1.1,0.7-2s-0.2-1.5-0.7-2s-1.1-0.7-1.8-0.7c-0.7,0-1.3,0.2-1.8,0.7
			c-0.5,0.5-0.7,1.1-0.7,2s0.2,1.5,0.7,2c0.5,0.5,1.1,0.7,1.8,0.7C208.1,519.2,208.7,518.9,209.1,518.4z"/>
		<path d="M223.3,512.6c0.7,0.7,1.1,1.8,1.1,3.2v5.5h-2.8v-5.1c0-0.8-0.2-1.3-0.5-1.7s-0.8-0.6-1.5-0.6c-0.7,0-1.3,0.2-1.7,0.7
			c-0.4,0.4-0.6,1.1-0.6,2v4.8h-2.8v-9.7h2.7v1.1c0.4-0.4,0.8-0.7,1.4-0.9c0.6-0.2,1.2-0.3,1.8-0.3
			C221.6,511.5,222.6,511.9,223.3,512.6z"/>
		<path d="M227.9,521.2c-0.8-0.2-1.4-0.4-1.8-0.7l0.9-2c0.4,0.3,1,0.5,1.6,0.7c0.6,0.2,1.2,0.3,1.8,0.3c1.2,0,1.8-0.3,1.8-0.9
			c0-0.3-0.2-0.5-0.5-0.6s-0.8-0.2-1.5-0.3c-0.8-0.1-1.4-0.3-2-0.4c-0.5-0.2-1-0.4-1.3-0.8c-0.4-0.4-0.6-1-0.6-1.7
			c0-0.6,0.2-1.2,0.5-1.6c0.4-0.5,0.9-0.8,1.5-1.1c0.7-0.3,1.5-0.4,2.4-0.4c0.7,0,1.4,0.1,2,0.2c0.7,0.1,1.2,0.4,1.7,0.6l-0.9,2
			c-0.9-0.5-1.8-0.7-2.8-0.7c-0.6,0-1.1,0.1-1.4,0.3c-0.3,0.2-0.5,0.4-0.5,0.6c0,0.3,0.2,0.5,0.5,0.6c0.3,0.1,0.8,0.2,1.5,0.3
			c0.8,0.1,1.4,0.3,1.9,0.4c0.5,0.2,0.9,0.4,1.3,0.8c0.4,0.4,0.6,0.9,0.6,1.7c0,0.6-0.2,1.1-0.5,1.6s-0.9,0.8-1.6,1.1
			c-0.7,0.3-1.5,0.4-2.5,0.4C229.4,521.5,228.6,521.4,227.9,521.2z"/>
		<path d="M246,517.3h-7.3c0.1,0.6,0.4,1.1,0.9,1.4s1.1,0.5,1.8,0.5c0.5,0,1-0.1,1.3-0.2c0.4-0.1,0.8-0.4,1.1-0.7l1.5,1.6
			c-0.9,1-2.2,1.6-4,1.6c-1.1,0-2.1-0.2-2.9-0.6c-0.8-0.4-1.5-1-1.9-1.8c-0.5-0.8-0.7-1.6-0.7-2.6c0-0.9,0.2-1.8,0.7-2.6
			c0.5-0.8,1.1-1.4,1.9-1.8c0.8-0.4,1.7-0.6,2.6-0.6c0.9,0,1.8,0.2,2.6,0.6c0.8,0.4,1.4,1,1.8,1.8s0.7,1.6,0.7,2.7
			C246,516.6,246,516.8,246,517.3z M239.4,514.2c-0.4,0.4-0.7,0.9-0.8,1.5h4.8c-0.1-0.6-0.4-1.1-0.8-1.5c-0.4-0.4-1-0.5-1.6-0.5
			C240.4,513.6,239.8,513.8,239.4,514.2z"/>
		<path d="M248.8,521.2c-0.8-0.2-1.4-0.4-1.8-0.7l0.9-2c0.4,0.3,1,0.5,1.6,0.7c0.6,0.2,1.2,0.3,1.8,0.3c1.2,0,1.8-0.3,1.8-0.9
			c0-0.3-0.2-0.5-0.5-0.6s-0.8-0.2-1.5-0.3c-0.8-0.1-1.4-0.3-2-0.4c-0.5-0.2-1-0.4-1.3-0.8c-0.4-0.4-0.6-1-0.6-1.7
			c0-0.6,0.2-1.2,0.5-1.6c0.4-0.5,0.9-0.8,1.5-1.1c0.7-0.3,1.5-0.4,2.4-0.4c0.7,0,1.4,0.1,2,0.2c0.7,0.1,1.2,0.4,1.7,0.6l-0.9,2
			c-0.9-0.5-1.8-0.7-2.8-0.7c-0.6,0-1.1,0.1-1.4,0.3c-0.3,0.2-0.5,0.4-0.5,0.6c0,0.3,0.2,0.5,0.5,0.6c0.3,0.1,0.8,0.2,1.5,0.3
			c0.8,0.1,1.4,0.3,1.9,0.4c0.5,0.2,0.9,0.4,1.3,0.8c0.4,0.4,0.6,0.9,0.6,1.7c0,0.6-0.2,1.1-0.5,1.6s-0.9,0.8-1.6,1.1
			c-0.7,0.3-1.5,0.4-2.5,0.4C250.3,521.5,249.6,521.4,248.8,521.2z"/>
		<path d="M40.1,550.6c-0.3-0.3-0.5-0.8-0.5-1.3c0-0.5,0.2-0.9,0.5-1.3c0.3-0.3,0.7-0.5,1.2-0.5s0.9,0.2,1.2,0.5
			c0.3,0.3,0.5,0.7,0.5,1.3c0,0.5-0.2,0.9-0.5,1.3c-0.3,0.3-0.8,0.5-1.2,0.5S40.5,550.9,40.1,550.6z"/>
		<path d="M52.8,550.3c-1-0.6-1.9-1.3-2.4-2.3c-0.6-1-0.9-2.1-0.9-3.4s0.3-2.4,0.9-3.4c0.6-1,1.4-1.8,2.4-2.3c1-0.6,2.2-0.8,3.5-0.8
			c1.1,0,2.1,0.2,3,0.6c0.9,0.4,1.6,0.9,2.2,1.7l-1.9,1.7c-0.9-1-1.9-1.5-3.2-1.5c-0.8,0-1.5,0.2-2.1,0.5c-0.6,0.3-1.1,0.8-1.4,1.4
			c-0.3,0.6-0.5,1.3-0.5,2.1s0.2,1.5,0.5,2.1s0.8,1.1,1.4,1.4c0.6,0.3,1.3,0.5,2.1,0.5c1.3,0,2.3-0.5,3.2-1.5l1.9,1.7
			c-0.6,0.7-1.3,1.3-2.2,1.7c-0.9,0.4-1.9,0.6-3,0.6C55,551.1,53.9,550.9,52.8,550.3z"/>
		<path d="M64.8,550.4c-0.8-0.4-1.4-1-1.9-1.8c-0.5-0.8-0.7-1.6-0.7-2.6s0.2-1.8,0.7-2.6s1.1-1.3,1.9-1.8c0.8-0.4,1.7-0.6,2.7-0.6
			s1.9,0.2,2.7,0.6c0.8,0.4,1.4,1,1.9,1.8s0.7,1.6,0.7,2.6s-0.2,1.8-0.7,2.6c-0.5,0.8-1.1,1.3-1.9,1.8c-0.8,0.4-1.7,0.6-2.7,0.6
			S65.6,550.9,64.8,550.4z M69.3,548c0.5-0.5,0.7-1.1,0.7-2s-0.2-1.5-0.7-2s-1.1-0.7-1.8-0.7c-0.7,0-1.3,0.2-1.8,0.7
			c-0.5,0.5-0.7,1.1-0.7,2s0.2,1.5,0.7,2c0.5,0.5,1.1,0.7,1.8,0.7C68.3,548.8,68.9,548.5,69.3,548z"/>
		<path d="M83.5,542.2c0.7,0.7,1.1,1.8,1.1,3.2v5.5h-2.8v-5.1c0-0.8-0.2-1.3-0.5-1.7s-0.8-0.6-1.5-0.6c-0.7,0-1.3,0.2-1.7,0.7
			c-0.4,0.4-0.6,1.1-0.6,2v4.8h-2.8v-9.7h2.7v1.1c0.4-0.4,0.8-0.7,1.4-0.9c0.6-0.2,1.2-0.3,1.8-0.3
			C81.8,541.1,82.8,541.5,83.5,542.2z"/>
		<path d="M93.4,550.5c-0.3,0.2-0.6,0.4-1,0.5s-0.8,0.2-1.3,0.2c-1.2,0-2-0.3-2.7-0.9s-0.9-1.5-0.9-2.6v-4H86v-2.2h1.5v-2.4h2.8v2.4
			h2.4v2.2h-2.4v3.9c0,0.4,0.1,0.7,0.3,0.9c0.2,0.2,0.5,0.3,0.9,0.3c0.4,0,0.8-0.1,1.1-0.4L93.4,550.5z"/>
		<path d="M102.4,542.2c0.8,0.7,1.2,1.8,1.2,3.2v5.5H101v-1.2c-0.5,0.9-1.5,1.3-3,1.3c-0.7,0-1.4-0.1-1.9-0.4c-0.5-0.3-1-0.6-1.3-1
			c-0.3-0.4-0.4-0.9-0.4-1.5c0-0.9,0.3-1.6,1-2.1c0.7-0.5,1.7-0.8,3.1-0.8h2.2c0-0.6-0.2-1.1-0.6-1.4c-0.4-0.3-0.9-0.5-1.7-0.5
			c-0.5,0-1,0.1-1.5,0.2c-0.5,0.2-0.9,0.4-1.3,0.7l-1-2c0.5-0.4,1.2-0.7,1.9-0.9c0.7-0.2,1.5-0.3,2.3-0.3
			C100.4,541.1,101.6,541.5,102.4,542.2z M100,548.9c0.4-0.2,0.6-0.5,0.8-1v-1h-1.9c-1.2,0-1.7,0.4-1.7,1.1c0,0.4,0.1,0.6,0.4,0.9
			c0.3,0.2,0.7,0.3,1.2,0.3C99.2,549.2,99.6,549.1,100,548.9z"/>
		<path d="M108.1,550.4c-0.8-0.4-1.5-1-1.9-1.8c-0.5-0.8-0.7-1.6-0.7-2.6s0.2-1.8,0.7-2.6s1.1-1.3,1.9-1.8c0.8-0.4,1.7-0.6,2.8-0.6
			c1,0,1.9,0.2,2.7,0.6c0.8,0.4,1.3,1,1.7,1.8l-2.2,1.2c-0.5-0.9-1.2-1.3-2.2-1.3c-0.7,0-1.3,0.2-1.8,0.7c-0.5,0.5-0.7,1.1-0.7,2
			s0.2,1.5,0.7,2c0.5,0.5,1.1,0.7,1.8,0.7c1,0,1.7-0.4,2.2-1.3l2.2,1.2c-0.3,0.8-0.9,1.4-1.7,1.8s-1.7,0.6-2.7,0.6
			C109.9,551.1,108.9,550.9,108.1,550.4z"/>
		<path d="M123.3,550.5c-0.3,0.2-0.6,0.4-1,0.5s-0.8,0.2-1.3,0.2c-1.2,0-2-0.3-2.7-0.9s-0.9-1.5-0.9-2.6v-4h-1.5v-2.2h1.5v-2.4h2.8
			v2.4h2.4v2.2h-2.4v3.9c0,0.4,0.1,0.7,0.3,0.9c0.2,0.2,0.5,0.3,0.9,0.3c0.4,0,0.8-0.1,1.1-0.4L123.3,550.5z"/>
		<path d="M139.5,541.2l-4.4,10.3c-0.4,1.1-1,1.9-1.6,2.4c-0.7,0.5-1.4,0.7-2.4,0.7c-0.5,0-1-0.1-1.5-0.2c-0.5-0.2-0.9-0.4-1.2-0.6
			l1-2c0.2,0.2,0.5,0.3,0.7,0.5c0.3,0.1,0.6,0.2,0.8,0.2c0.4,0,0.7-0.1,0.9-0.3c0.2-0.2,0.5-0.5,0.6-0.9l0-0.1l-4.2-9.8h2.9l2.7,6.6
			l2.7-6.6H139.5z"/>
		<path d="M142.3,550.4c-0.8-0.4-1.4-1-1.9-1.8c-0.5-0.8-0.7-1.6-0.7-2.6s0.2-1.8,0.7-2.6s1.1-1.3,1.9-1.8c0.8-0.4,1.7-0.6,2.7-0.6
			s1.9,0.2,2.7,0.6c0.8,0.4,1.4,1,1.9,1.8s0.7,1.6,0.7,2.6s-0.2,1.8-0.7,2.6c-0.5,0.8-1.1,1.3-1.9,1.8c-0.8,0.4-1.7,0.6-2.7,0.6
			S143.1,550.9,142.3,550.4z M146.8,548c0.5-0.5,0.7-1.1,0.7-2s-0.2-1.5-0.7-2s-1.1-0.7-1.8-0.7c-0.7,0-1.3,0.2-1.8,0.7
			c-0.5,0.5-0.7,1.1-0.7,2s0.2,1.5,0.7,2c0.5,0.5,1.1,0.7,1.8,0.7C145.8,548.8,146.3,548.5,146.8,548z"/>
		<path d="M162,541.2v9.7h-2.7v-1.2c-0.4,0.4-0.8,0.7-1.3,1c-0.5,0.2-1.1,0.3-1.7,0.3c-1.3,0-2.3-0.4-3-1.1
			c-0.7-0.7-1.1-1.8-1.1-3.3v-5.5h2.8v5.1c0,1.6,0.7,2.3,2,2.3c0.7,0,1.2-0.2,1.6-0.7c0.4-0.4,0.6-1.1,0.6-2v-4.8H162z"/>
		<path d="M168.6,541.5c0.6-0.2,1.2-0.4,2-0.4v2.6c-0.3,0-0.5,0-0.6,0c-0.8,0-1.4,0.2-1.9,0.7c-0.5,0.4-0.7,1.1-0.7,2v4.6h-2.8v-9.7
			h2.7v1.3C167.6,542.1,168.1,541.7,168.6,541.5z"/>
		<path d="M185.6,541.7c0.7,0.4,1.3,1,1.7,1.7s0.6,1.6,0.6,2.6s-0.2,1.9-0.6,2.6s-1,1.3-1.7,1.7c-0.7,0.4-1.6,0.6-2.5,0.6
			c-1.3,0-2.3-0.4-3-1.3v1.1h-2.7v-13.4h2.8v4.7c0.7-0.8,1.7-1.2,2.9-1.2C184.1,541.1,184.9,541.3,185.6,541.7z M184.4,548
			c0.5-0.5,0.7-1.1,0.7-2s-0.2-1.5-0.7-2c-0.5-0.5-1.1-0.7-1.8-0.7c-0.7,0-1.3,0.2-1.8,0.7c-0.5,0.5-0.7,1.1-0.7,2s0.2,1.5,0.7,2
			c0.5,0.5,1.1,0.7,1.8,0.7C183.4,548.8,184,548.5,184.4,548z"/>
		<path d="M199.6,541.2v9.7h-2.7v-1.2c-0.4,0.4-0.8,0.7-1.3,1c-0.5,0.2-1.1,0.3-1.7,0.3c-1.3,0-2.3-0.4-3-1.1
			c-0.7-0.7-1.1-1.8-1.1-3.3v-5.5h2.8v5.1c0,1.6,0.7,2.3,2,2.3c0.7,0,1.2-0.2,1.6-0.7c0.4-0.4,0.6-1.1,0.6-2v-4.8H199.6z"/>
		<path d="M211.8,541.2l-4.4,10.3c-0.4,1.1-1,1.9-1.6,2.4c-0.7,0.5-1.4,0.7-2.4,0.7c-0.5,0-1-0.1-1.5-0.2c-0.5-0.2-0.9-0.4-1.2-0.6
			l1-2c0.2,0.2,0.5,0.3,0.7,0.5c0.3,0.1,0.6,0.2,0.8,0.2c0.4,0,0.7-0.1,0.9-0.3c0.2-0.2,0.5-0.5,0.6-0.9l0-0.1l-4.2-9.8h2.9l2.7,6.6
			l2.7-6.6H211.8z"/>
		<path d="M222.1,546.9h-7.3c0.1,0.6,0.4,1.1,0.9,1.4s1.1,0.5,1.8,0.5c0.5,0,1-0.1,1.3-0.2c0.4-0.1,0.8-0.4,1.1-0.7l1.5,1.6
			c-0.9,1-2.2,1.6-4,1.6c-1.1,0-2.1-0.2-2.9-0.6c-0.8-0.4-1.5-1-1.9-1.8c-0.5-0.8-0.7-1.6-0.7-2.6c0-0.9,0.2-1.8,0.7-2.6
			c0.5-0.8,1.1-1.4,1.9-1.8c0.8-0.4,1.7-0.6,2.6-0.6c0.9,0,1.8,0.2,2.6,0.6s1.4,1,1.8,1.8s0.7,1.6,0.7,2.7
			C222.2,546.2,222.2,546.4,222.1,546.9z M215.6,543.8c-0.4,0.4-0.7,0.9-0.8,1.5h4.8c-0.1-0.6-0.4-1.1-0.8-1.5
			c-0.4-0.4-1-0.5-1.6-0.5C216.5,543.2,216,543.4,215.6,543.8z"/>
		<path d="M228.1,541.5c0.6-0.2,1.2-0.4,2-0.4v2.6c-0.3,0-0.5,0-0.6,0c-0.8,0-1.4,0.2-1.9,0.7c-0.5,0.4-0.7,1.1-0.7,2v4.6h-2.8v-9.7
			h2.7v1.3C227.1,542.1,227.5,541.7,228.1,541.5z"/>
	</g>
</g>
</svg>
