<?xml version="1.0" encoding="utf-8"?>
<!-- Generator: Adobe Illustrator 25.2.3, SVG Export Plug-In . SVG Version: 6.00 Build 0)  -->
<svg version="1.1" id="Layer_1" xmlns="http://www.w3.org/2000/svg" xmlns:xlink="http://www.w3.org/1999/xlink" x="0px" y="0px"
	 viewBox="0 0 640 640" style="enable-background:new 0 0 640 640;" xml:space="preserve">
<style type="text/css">
	.st0{fill:none;stroke:#434244;stroke-width:0.5;stroke-miterlimit:10;}
	.st1{fill:#087892;}
</style>
<g id="ae363a9f-8d49-41d1-8731-996b336a1538">
	<line class="st0" x1="34.7" y1="578.6" x2="347.6" y2="578.6"/>
	
		<image style="overflow:visible;enable-background:new    ;" width="587" height="595" xlink:href="535D26C1F5F3D336.jpeg"  transform="matrix(0.48 0 0 0.48 339.2 320.9499)">
	</image>
	<g>
		<path class="st1" d="M84.2,49.8l-9.9,30.6H65l-5.9-18.6L53,80.4h-9.3l-9.9-30.6h8.9l6.2,19.5l6.5-19.5h8l6.2,19.7l6.4-19.7H84.2z"
			/>
		<path class="st1" d="M109.2,70.7H92c0.3,1.2,1,2.2,2,2.8s2.3,1,3.8,1c1.1,0,2.1-0.2,3-0.5c0.8-0.3,1.7-0.8,2.5-1.6l4.4,4.5
			c-2.3,2.6-5.7,3.8-10.1,3.8c-2.8,0-5.2-0.5-7.3-1.6s-3.7-2.5-4.9-4.4c-1.2-1.9-1.7-4-1.7-6.3c0-2.3,0.6-4.4,1.7-6.3
			c1.1-1.9,2.7-3.3,4.7-4.4c2-1,4.2-1.6,6.7-1.6c2.4,0,4.5,0.5,6.4,1.5s3.4,2.4,4.6,4.2c1.1,1.9,1.7,4,1.7,6.6
			C109.4,68.7,109.3,69.4,109.2,70.7z M93.5,63.3c-0.9,0.7-1.4,1.7-1.6,3h9.7c-0.2-1.3-0.8-2.2-1.6-3c-0.9-0.7-1.9-1.1-3.2-1.1
			C95.5,62.2,94.4,62.6,93.5,63.3z"/>
		<path class="st1" d="M134,57.8c1.8,1,3.2,2.4,4.2,4.3c1,1.9,1.6,4,1.6,6.4s-0.5,4.6-1.6,6.5c-1,1.9-2.4,3.3-4.2,4.3
			c-1.8,1-3.7,1.5-5.9,1.5c-3.1,0-5.5-0.9-7-2.8v2.4h-7.9V48h8.3v10.8c1.6-1.6,3.8-2.4,6.6-2.4C130.3,56.3,132.3,56.8,134,57.8z
			 M130,72.7c0.9-1,1.4-2.4,1.4-4.2c0-1.7-0.5-3.1-1.4-4.1c-0.9-1-2.1-1.5-3.6-1.5s-2.7,0.5-3.6,1.5c-0.9,1-1.4,2.4-1.4,4.1
			c0,1.8,0.5,3.2,1.4,4.2c0.9,1,2.1,1.5,3.6,1.5S129,73.7,130,72.7z"/>
		<path class="st1" d="M156.7,49.8h14.5c3.4,0,6.3,0.6,8.9,1.9c2.6,1.3,4.6,3,6,5.3c1.4,2.3,2.1,5,2.1,8.1c0,3.1-0.7,5.8-2.1,8.1
			c-1.4,2.3-3.4,4.1-6,5.3c-2.6,1.3-5.6,1.9-8.9,1.9h-14.5V49.8z M170.9,73.5c2.6,0,4.7-0.7,6.3-2.2s2.4-3.5,2.4-6.2
			c0-2.6-0.8-4.7-2.4-6.2c-1.6-1.5-3.7-2.2-6.3-2.2h-5.5v16.8H170.9z"/>
		<path class="st1" d="M216.5,70.7h-17.2c0.3,1.2,1,2.2,2,2.8s2.3,1,3.8,1c1.1,0,2.1-0.2,3-0.5c0.8-0.3,1.7-0.8,2.5-1.6L215,77
			c-2.3,2.6-5.7,3.8-10.1,3.8c-2.8,0-5.2-0.5-7.3-1.6s-3.7-2.5-4.9-4.4c-1.2-1.9-1.7-4-1.7-6.3c0-2.3,0.6-4.4,1.7-6.3
			c1.1-1.9,2.7-3.3,4.7-4.4c2-1,4.2-1.6,6.7-1.6c2.4,0,4.5,0.5,6.4,1.5s3.4,2.4,4.6,4.2c1.1,1.9,1.7,4,1.7,6.6
			C216.7,68.7,216.6,69.4,216.5,70.7z M200.8,63.3c-0.9,0.7-1.4,1.7-1.6,3h9.7c-0.2-1.3-0.8-2.2-1.6-3c-0.9-0.7-1.9-1.1-3.2-1.1
			C202.8,62.2,201.7,62.6,200.8,63.3z"/>
		<path class="st1" d="M245.1,56.7l-9.8,23.7h-8.6l-9.8-23.7h8.5l5.7,14.5l6-14.5H245.1z"/>
		<path class="st1" d="M270.6,70.7h-17.2c0.3,1.2,1,2.2,2,2.8s2.3,1,3.8,1c1.1,0,2.1-0.2,3-0.5c0.8-0.3,1.7-0.8,2.5-1.6l4.4,4.5
			c-2.3,2.6-5.7,3.8-10.1,3.8c-2.8,0-5.2-0.5-7.3-1.6s-3.7-2.5-4.9-4.4c-1.2-1.9-1.7-4-1.7-6.3c0-2.3,0.6-4.4,1.7-6.3
			c1.1-1.9,2.7-3.3,4.7-4.4c2-1,4.2-1.6,6.7-1.6c2.4,0,4.5,0.5,6.4,1.5s3.4,2.4,4.6,4.2c1.1,1.9,1.7,4,1.7,6.6
			C270.8,68.7,270.7,69.4,270.6,70.7z M254.9,63.3c-0.9,0.7-1.4,1.7-1.6,3h9.7c-0.2-1.3-0.8-2.2-1.6-3c-0.9-0.7-1.9-1.1-3.2-1.1
			C256.8,62.2,255.8,62.6,254.9,63.3z"/>
		<path class="st1" d="M274.6,48h8.3v32.4h-8.3V48z"/>
		<path class="st1" d="M293.3,79.2c-2-1-3.6-2.5-4.8-4.4c-1.2-1.9-1.7-4-1.7-6.3c0-2.3,0.6-4.4,1.7-6.3c1.2-1.9,2.7-3.3,4.8-4.4
			c2-1,4.3-1.6,6.9-1.6s4.9,0.5,6.9,1.6c2,1,3.6,2.5,4.8,4.3c1.1,1.9,1.7,4,1.7,6.3s-0.6,4.5-1.7,6.3c-1.1,1.9-2.7,3.3-4.8,4.4
			c-2,1-4.3,1.6-6.9,1.6C297.7,80.8,295.4,80.3,293.3,79.2z M303.8,72.7c0.9-1,1.4-2.4,1.4-4.2c0-1.7-0.5-3.1-1.4-4.1
			c-0.9-1-2.1-1.5-3.6-1.5c-1.5,0-2.7,0.5-3.6,1.5c-0.9,1-1.4,2.4-1.4,4.1c0,1.8,0.5,3.2,1.4,4.2c0.9,1,2.1,1.5,3.6,1.5
			C301.7,74.2,302.8,73.7,303.8,72.7z"/>
		<path class="st1" d="M338.2,57.8c1.8,1,3.2,2.4,4.2,4.3c1,1.9,1.6,4,1.6,6.4s-0.5,4.6-1.6,6.4c-1,1.9-2.4,3.3-4.2,4.3
			c-1.8,1-3.7,1.5-5.9,1.5c-2.8,0-5-0.8-6.6-2.5v10.6h-8.3V56.7h7.9v2.4c1.5-1.8,3.9-2.8,7-2.8C334.5,56.3,336.4,56.8,338.2,57.8z
			 M334.2,72.7c0.9-1,1.4-2.4,1.4-4.1s-0.5-3.1-1.4-4.1c-0.9-1-2.1-1.5-3.6-1.5c-1.5,0-2.7,0.5-3.6,1.5c-0.9,1-1.4,2.4-1.4,4.1
			s0.5,3.1,1.4,4.1c0.9,1,2.1,1.5,3.6,1.5C332,74.2,333.2,73.7,334.2,72.7z"/>
		<path class="st1" d="M385.7,59c1.7,1.7,2.6,4.4,2.6,7.9v13.6h-8.3V68.2c0-1.7-0.3-2.9-0.9-3.7c-0.6-0.8-1.5-1.2-2.6-1.2
			c-1.3,0-2.3,0.4-3,1.3c-0.8,0.9-1.1,2.2-1.1,4v11.8h-8.3V68.2c0-3.2-1.2-4.9-3.6-4.9c-1.3,0-2.3,0.4-3.1,1.3
			c-0.8,0.9-1.1,2.2-1.1,4v11.8h-8.3V56.7h7.9v2.5c0.9-1,1.9-1.7,3.1-2.2c1.2-0.5,2.5-0.7,4-0.7c1.7,0,3.1,0.3,4.5,0.9
			c1.3,0.6,2.4,1.5,3.2,2.8c0.9-1.2,2.1-2.1,3.5-2.8c1.4-0.6,3-1,4.7-1C381.6,56.3,383.9,57.2,385.7,59z"/>
		<path class="st1" d="M417.9,70.7h-17.2c0.3,1.2,1,2.2,2,2.8s2.3,1,3.8,1c1.1,0,2.1-0.2,3-0.5c0.8-0.3,1.7-0.8,2.5-1.6l4.4,4.5
			c-2.3,2.6-5.7,3.8-10.1,3.8c-2.8,0-5.2-0.5-7.3-1.6s-3.7-2.5-4.9-4.4c-1.2-1.9-1.7-4-1.7-6.3c0-2.3,0.6-4.4,1.7-6.3
			c1.1-1.9,2.7-3.3,4.7-4.4c2-1,4.2-1.6,6.7-1.6c2.4,0,4.5,0.5,6.4,1.5s3.4,2.4,4.6,4.2c1.1,1.9,1.7,4,1.7,6.6
			C418.1,68.7,418,69.4,417.9,70.7z M402.2,63.3c-0.9,0.7-1.4,1.7-1.6,3h9.7c-0.2-1.3-0.8-2.2-1.6-3c-0.9-0.7-1.9-1.1-3.2-1.1
			C404.2,62.2,403.1,62.6,402.2,63.3z"/>
		<path class="st1" d="M444.5,59c1.8,1.7,2.7,4.4,2.7,7.9v13.6h-8.3V68.2c0-3.2-1.3-4.9-3.9-4.9c-1.4,0-2.6,0.5-3.4,1.4
			c-0.9,0.9-1.3,2.3-1.3,4.2v11.5h-8.3V56.7h7.9v2.6c0.9-1,2-1.7,3.3-2.2c1.3-0.5,2.7-0.8,4.2-0.8C440.3,56.3,442.7,57.2,444.5,59z"
			/>
		<path class="st1" d="M468.7,79.5c-0.7,0.4-1.6,0.8-2.6,1c-1,0.2-2.1,0.3-3.2,0.3c-3.1,0-5.5-0.8-7.1-2.3c-1.7-1.5-2.5-3.8-2.5-6.8
			v-8h-3.5v-6.2h3.5v-6.2h8.3v6.2h5.4v6.2h-5.4v7.9c0,0.8,0.2,1.5,0.7,2c0.5,0.5,1.1,0.7,1.8,0.7c1,0,1.8-0.2,2.5-0.7L468.7,79.5z"
			/>
		<path class="st1" d="M509.2,80.9l-3.5-3.1c-1.4,1-3,1.8-4.8,2.3s-3.6,0.8-5.5,0.8c-2.3,0-4.4-0.4-6.3-1.1
			c-1.9-0.7-3.3-1.8-4.4-3.1c-1-1.3-1.6-2.8-1.6-4.4c0-1.9,0.5-3.6,1.5-5.1s2.6-2.8,4.9-4c-2-2-2.9-4-2.9-6.2c0-1.5,0.4-2.9,1.3-4.1
			c0.8-1.2,2-2.1,3.6-2.8c1.6-0.7,3.4-1,5.4-1c2.8,0,5.1,0.7,6.8,2c1.7,1.3,2.6,3.1,2.6,5.4c0,1.6-0.5,3-1.4,4.2
			c-0.9,1.2-2.4,2.4-4.3,3.5l4.5,4c0.6-1.3,1-2.7,1.4-4.4l6.7,2c-0.6,2.6-1.5,4.9-2.8,7l3.2,2.9L509.2,80.9z M500.8,73.4l-6.6-5.9
			c-1,0.6-1.7,1.2-2.1,1.8c-0.4,0.6-0.7,1.3-0.7,2.1c0,0.9,0.4,1.7,1.3,2.3c0.8,0.6,2,0.9,3.4,0.9C497.8,74.7,499.4,74.3,500.8,73.4
			z M495.1,55.5c-0.5,0.4-0.7,1-0.7,1.6c0,0.5,0.1,1,0.4,1.4c0.3,0.5,0.8,1,1.6,1.8c1.2-0.6,2-1.2,2.5-1.7c0.5-0.5,0.7-1.1,0.7-1.7
			c0-0.6-0.2-1.1-0.6-1.5c-0.4-0.4-1-0.5-1.8-0.5C496.2,54.8,495.5,55.1,495.1,55.5z"/>
		<path class="st1" d="M39.7,123.8c-2.5-2.5-3.8-6-3.8-10.5v-17h8.7V113c0,4.9,1.9,7.3,5.8,7.3c3.8,0,5.8-2.4,5.8-7.3V96.3h8.5v17
			c0,4.5-1.3,8.1-3.8,10.5c-2.5,2.5-6.1,3.7-10.6,3.7C45.8,127.5,42.2,126.3,39.7,123.8z"/>
		<path class="st1" d="M70.5,96.3h8.7v30.6h-8.7V96.3z"/>
		<path class="st1" d="M95.1,90.1h7.4l-14.4,41.2h-7.4L95.1,90.1z"/>
		<path class="st1" d="M107,123.8c-2.5-2.5-3.8-6-3.8-10.5v-17h8.7V113c0,4.9,1.9,7.3,5.8,7.3c3.8,0,5.8-2.4,5.8-7.3V96.3h8.5v17
			c0,4.5-1.3,8.1-3.8,10.5c-2.5,2.5-6.1,3.7-10.6,3.7C113.1,127.5,109.6,126.3,107,123.8z"/>
		<path class="st1" d="M156.8,126.9l-6.3-9.5l-6.3,9.5h-9.9l11.1-15.5l-10.7-15.1h9.8l6.1,8.8l6-8.8h9.4l-10.7,14.8l11.4,15.8H156.8
			z"/>
		<path class="st1" d="M182.4,96.3h14.5c3.4,0,6.3,0.6,8.9,1.9c2.6,1.3,4.6,3,6,5.3c1.4,2.3,2.1,5,2.1,8.1c0,3.1-0.7,5.8-2.1,8.1
			c-1.4,2.3-3.4,4.1-6,5.3c-2.6,1.3-5.6,1.9-8.9,1.9h-14.5V96.3z M196.5,120c2.6,0,4.7-0.7,6.3-2.2s2.4-3.5,2.4-6.2
			s-0.8-4.7-2.4-6.2c-1.6-1.5-3.7-2.2-6.3-2.2h-5.5V120H196.5z"/>
		<path class="st1" d="M242.2,117.1H225c0.3,1.2,1,2.2,2,2.8s2.3,1,3.8,1c1.1,0,2.1-0.2,3-0.5c0.8-0.3,1.7-0.8,2.5-1.6l4.4,4.5
			c-2.3,2.6-5.7,3.8-10.1,3.8c-2.8,0-5.2-0.5-7.3-1.6s-3.7-2.5-4.9-4.4c-1.2-1.9-1.7-4-1.7-6.3c0-2.3,0.6-4.4,1.7-6.3
			c1.1-1.9,2.7-3.3,4.7-4.4c2-1,4.2-1.6,6.7-1.6c2.4,0,4.5,0.5,6.4,1.5s3.4,2.4,4.6,4.2c1.1,1.9,1.7,4,1.7,6.6
			C242.3,115.1,242.3,115.8,242.2,117.1z M226.5,109.8c-0.9,0.7-1.4,1.7-1.6,3h9.7c-0.2-1.3-0.8-2.2-1.6-3c-0.9-0.7-1.9-1.1-3.2-1.1
			C228.4,108.7,227.4,109.1,226.5,109.8z"/>
		<path class="st1" d="M248.9,126.6c-1.9-0.5-3.5-1-4.6-1.8l2.5-5.7c1.1,0.7,2.4,1.2,3.8,1.6c1.5,0.4,3,0.6,4.4,0.6
			c1.3,0,2.3-0.1,2.9-0.4c0.6-0.3,0.9-0.7,0.9-1.2c0-0.5-0.3-0.9-1-1.1s-1.8-0.4-3.3-0.6c-1.9-0.2-3.5-0.5-4.8-0.9
			c-1.3-0.4-2.5-1.1-3.4-2.1c-1-1-1.4-2.4-1.4-4.3c0-1.5,0.5-2.9,1.4-4c0.9-1.2,2.2-2.1,4-2.8c1.7-0.7,3.8-1,6.2-1
			c1.7,0,3.4,0.2,5.1,0.5c1.7,0.4,3.1,0.8,4.2,1.5l-2.5,5.6c-2.1-1.2-4.4-1.7-6.8-1.7c-1.3,0-2.3,0.2-2.9,0.5s-0.9,0.7-0.9,1.2
			c0,0.6,0.3,0.9,1,1.2s1.8,0.4,3.3,0.7c2,0.3,3.6,0.6,4.9,1c1.3,0.4,2.4,1.1,3.3,2.1c0.9,1,1.4,2.4,1.4,4.2c0,1.5-0.5,2.8-1.4,4
			c-0.9,1.2-2.2,2.1-4,2.8c-1.8,0.7-3.9,1-6.4,1C252.8,127.3,250.9,127.1,248.9,126.6z"/>
		<path class="st1" d="M270.6,99.3c-0.9-0.8-1.4-1.9-1.4-3.1c0-1.3,0.5-2.3,1.4-3.1c0.9-0.8,2.2-1.3,3.7-1.3s2.7,0.4,3.7,1.2
			c0.9,0.8,1.4,1.8,1.4,3.1c0,1.3-0.5,2.4-1.4,3.3c-0.9,0.9-2.2,1.3-3.7,1.3S271.5,100.1,270.6,99.3z M270.1,103.2h8.3v23.7h-8.3
			V103.2z"/>
		<path class="st1" d="M309.3,103.2v19.4c0,4.4-1.2,7.7-3.6,9.9c-2.4,2.2-5.8,3.3-10.3,3.3c-2.3,0-4.5-0.3-6.6-0.8
			c-2-0.5-3.8-1.3-5.2-2.3l3-5.8c1,0.8,2.2,1.4,3.7,1.9c1.5,0.5,2.9,0.7,4.4,0.7c2.2,0,3.8-0.5,4.8-1.4c1-1,1.5-2.4,1.5-4.3v-0.8
			c-1.6,1.9-4,2.8-7,2.8c-2.1,0-4-0.5-5.8-1.4c-1.8-0.9-3.2-2.3-4.2-4c-1-1.7-1.6-3.7-1.6-6c0-2.2,0.5-4.2,1.6-6
			c1-1.7,2.5-3.1,4.2-4c1.8-0.9,3.7-1.4,5.8-1.4c3.4,0,5.9,1.1,7.4,3.3v-2.9H309.3z M299.6,117.7c1-0.9,1.5-2.1,1.5-3.5
			c0-1.4-0.5-2.6-1.4-3.5c-1-0.9-2.2-1.3-3.7-1.3s-2.8,0.4-3.7,1.3c-1,0.9-1.5,2-1.5,3.5c0,1.4,0.5,2.6,1.5,3.5
			c1,0.9,2.2,1.4,3.7,1.4S298.6,118.6,299.6,117.7z"/>
		<path class="st1" d="M337.2,105.4c1.8,1.7,2.7,4.4,2.7,7.9v13.6h-8.3v-12.2c0-3.2-1.3-4.9-3.9-4.9c-1.4,0-2.6,0.5-3.4,1.4
			c-0.9,0.9-1.3,2.3-1.3,4.2v11.5h-8.3v-23.7h7.9v2.6c0.9-1,2-1.7,3.3-2.2c1.3-0.5,2.7-0.8,4.2-0.8
			C333,102.8,335.4,103.7,337.2,105.4z"/>
	</g>
	<g>
		<path class="st1" d="M40.5,186c-1.7-0.9-3.1-2.2-4-3.9c-1-1.7-1.5-3.5-1.5-5.5s0.5-3.9,1.5-5.5c1-1.6,2.3-2.9,4-3.9
			c1.7-0.9,3.6-1.4,5.8-1.4s4.1,0.5,5.8,1.4c1.7,0.9,3.1,2.2,4.1,3.9c1,1.6,1.5,3.5,1.5,5.5c0,2.1-0.5,3.9-1.5,5.5
			c-1,1.6-2.3,2.9-4.1,3.9c-1.7,0.9-3.6,1.4-5.8,1.4S42.2,187,40.5,186z M50,183.1c1.1-0.6,2-1.5,2.6-2.6c0.6-1.1,1-2.4,1-3.8
			c0-1.4-0.3-2.7-1-3.8s-1.5-2-2.6-2.6c-1.1-0.6-2.4-0.9-3.8-0.9s-2.7,0.3-3.8,0.9c-1.1,0.6-2,1.5-2.6,2.6c-0.6,1.1-1,2.4-1,3.8
			c0,1.4,0.3,2.7,1,3.8c0.6,1.1,1.5,2,2.6,2.6c1.1,0.6,2.4,0.9,3.8,0.9S48.9,183.7,50,183.1z"/>
		<path class="st1" d="M75.3,172.7c1.2,1.2,1.8,2.9,1.8,5.2v9.2h-3.8v-8.7c0-1.4-0.3-2.5-1-3.2c-0.7-0.7-1.6-1.1-2.8-1.1
			c-1.4,0-2.5,0.4-3.3,1.2c-0.8,0.8-1.2,2-1.2,3.6v8.1h-3.8v-16h3.6v2.1c0.6-0.7,1.4-1.3,2.3-1.7c0.9-0.4,2-0.6,3.2-0.6
			C72.4,170.9,74.1,171.5,75.3,172.7z"/>
		<path class="st1" d="M81.9,164.9h3.8v22.3h-3.8V164.9z"/>
		<path class="st1" d="M90.7,167.8c-0.5-0.4-0.7-1-0.7-1.6c0-0.6,0.2-1.2,0.7-1.6c0.5-0.4,1-0.6,1.7-0.6c0.7,0,1.2,0.2,1.7,0.6
			c0.5,0.4,0.7,0.9,0.7,1.5c0,0.7-0.2,1.2-0.7,1.7c-0.5,0.5-1,0.7-1.7,0.7C91.8,168.5,91.2,168.3,90.7,167.8z M90.6,171.1h3.8v16
			h-3.8V171.1z"/>
		<path class="st1" d="M113.2,172.7c1.2,1.2,1.8,2.9,1.8,5.2v9.2h-3.8v-8.7c0-1.4-0.3-2.5-1-3.2c-0.7-0.7-1.6-1.1-2.8-1.1
			c-1.4,0-2.5,0.4-3.3,1.2c-0.8,0.8-1.2,2-1.2,3.6v8.1h-3.8v-16h3.6v2.1c0.6-0.7,1.4-1.3,2.3-1.7c0.9-0.4,2-0.6,3.2-0.6
			C110.3,170.9,112,171.5,113.2,172.7z"/>
		<path class="st1" d="M134.9,180.3h-12.6c0.2,1.2,0.8,2.1,1.7,2.8c0.9,0.7,2.1,1,3.5,1c1.8,0,3.2-0.6,4.4-1.7l2,2.3
			c-0.7,0.9-1.6,1.5-2.7,1.9c-1.1,0.4-2.3,0.7-3.7,0.7c-1.8,0-3.3-0.3-4.7-1s-2.4-1.7-3.1-2.9c-0.7-1.2-1.1-2.7-1.1-4.2
			c0-1.6,0.4-3,1.1-4.2c0.7-1.2,1.7-2.2,3-2.9c1.3-0.7,2.7-1.1,4.3-1.1c1.6,0,3,0.3,4.2,1s2.2,1.7,2.9,2.9s1,2.7,1,4.3
			C135,179.5,135,179.8,134.9,180.3z M123.8,175c-0.8,0.7-1.3,1.7-1.5,2.8h9.1c-0.2-1.2-0.7-2.1-1.5-2.8c-0.8-0.7-1.8-1.1-3.1-1.1
			C125.7,173.9,124.7,174.3,123.8,175z"/>
		<path class="st1" d="M161.9,180.3h-12.6c0.2,1.2,0.8,2.1,1.7,2.8c0.9,0.7,2.1,1,3.5,1c1.8,0,3.2-0.6,4.4-1.7l2,2.3
			c-0.7,0.9-1.6,1.5-2.7,1.9c-1.1,0.4-2.3,0.7-3.7,0.7c-1.8,0-3.3-0.3-4.7-1s-2.4-1.7-3.1-2.9c-0.7-1.2-1.1-2.7-1.1-4.2
			c0-1.6,0.4-3,1.1-4.2c0.7-1.2,1.7-2.2,3-2.9c1.3-0.7,2.7-1.1,4.3-1.1c1.6,0,3,0.3,4.2,1s2.2,1.7,2.9,2.9s1,2.7,1,4.3
			C161.9,179.5,161.9,179.8,161.9,180.3z M150.8,175c-0.8,0.7-1.3,1.7-1.5,2.8h9.1c-0.2-1.2-0.7-2.1-1.5-2.8
			c-0.8-0.7-1.8-1.1-3.1-1.1C152.6,173.9,151.6,174.3,150.8,175z"/>
		<path class="st1" d="M175.3,187.1l-4.1-5.5l-4.1,5.5h-4.1l6.2-8.1l-6-7.9h4.2l3.9,5.2l3.9-5.2h4.1l-6,7.8l6.3,8.2H175.3z"/>
		<path class="st1" d="M195.3,171.9c1.2,0.7,2.2,1.6,2.9,2.9c0.7,1.2,1.1,2.7,1.1,4.3c0,1.6-0.4,3.1-1.1,4.3
			c-0.7,1.2-1.7,2.2-2.9,2.9c-1.2,0.7-2.6,1-4.2,1c-2.2,0-3.9-0.7-5.1-2.2v7.8h-3.8v-21.8h3.6v2.1c0.6-0.8,1.4-1.3,2.3-1.7
			c0.9-0.4,1.9-0.6,3-0.6C192.7,170.9,194.1,171.3,195.3,171.9z M194.1,182.7c0.9-0.9,1.3-2.1,1.3-3.6s-0.4-2.7-1.3-3.6
			c-0.9-0.9-2-1.4-3.4-1.4c-0.9,0-1.7,0.2-2.4,0.6c-0.7,0.4-1.3,1-1.7,1.8c-0.4,0.8-0.6,1.6-0.6,2.6s0.2,1.9,0.6,2.6
			c0.4,0.8,1,1.3,1.7,1.8c0.7,0.4,1.5,0.6,2.4,0.6C192.1,184.1,193.2,183.7,194.1,182.7z"/>
		<path class="st1" d="M217.8,180.3h-12.6c0.2,1.2,0.8,2.1,1.7,2.8c0.9,0.7,2.1,1,3.5,1c1.8,0,3.2-0.6,4.4-1.7l2,2.3
			c-0.7,0.9-1.6,1.5-2.7,1.9c-1.1,0.4-2.3,0.7-3.7,0.7c-1.8,0-3.3-0.3-4.7-1s-2.4-1.7-3.1-2.9c-0.7-1.2-1.1-2.7-1.1-4.2
			c0-1.6,0.4-3,1.1-4.2c0.7-1.2,1.7-2.2,3-2.9c1.3-0.7,2.7-1.1,4.3-1.1c1.6,0,3,0.3,4.2,1s2.2,1.7,2.9,2.9s1,2.7,1,4.3
			C217.9,179.5,217.9,179.8,217.8,180.3z M206.8,175c-0.8,0.7-1.3,1.7-1.5,2.8h9.1c-0.2-1.2-0.7-2.1-1.5-2.8
			c-0.8-0.7-1.8-1.1-3.1-1.1C208.6,173.9,207.6,174.3,206.8,175z"/>
		<path class="st1" d="M230.8,170.9v3.6c-0.3-0.1-0.6-0.1-0.9-0.1c-1.5,0-2.6,0.4-3.4,1.3c-0.8,0.9-1.2,2.1-1.2,3.7v7.8h-3.8v-16
			h3.6v2.3C226.2,171.8,228.1,170.9,230.8,170.9z"/>
		<path class="st1" d="M234.1,167.8c-0.5-0.4-0.7-1-0.7-1.6c0-0.6,0.2-1.2,0.7-1.6c0.5-0.4,1-0.6,1.7-0.6c0.7,0,1.2,0.2,1.7,0.6
			c0.5,0.4,0.7,0.9,0.7,1.5c0,0.7-0.2,1.2-0.7,1.7c-0.5,0.5-1,0.7-1.7,0.7C235.2,168.5,234.6,168.3,234.1,167.8z M234,171.1h3.8v16
			H234V171.1z"/>
		<path class="st1" d="M257.6,180.3h-12.6c0.2,1.2,0.8,2.1,1.7,2.8c0.9,0.7,2.1,1,3.5,1c1.8,0,3.2-0.6,4.4-1.7l2,2.3
			c-0.7,0.9-1.6,1.5-2.7,1.9c-1.1,0.4-2.3,0.7-3.7,0.7c-1.8,0-3.3-0.3-4.7-1s-2.4-1.7-3.1-2.9c-0.7-1.2-1.1-2.7-1.1-4.2
			c0-1.6,0.4-3,1.1-4.2c0.7-1.2,1.7-2.2,3-2.9c1.3-0.7,2.7-1.1,4.3-1.1c1.6,0,3,0.3,4.2,1s2.2,1.7,2.9,2.9s1,2.7,1,4.3
			C257.7,179.5,257.7,179.8,257.6,180.3z M246.5,175c-0.8,0.7-1.3,1.7-1.5,2.8h9.1c-0.2-1.2-0.7-2.1-1.5-2.8
			c-0.8-0.7-1.8-1.1-3.1-1.1C248.4,173.9,247.4,174.3,246.5,175z"/>
		<path class="st1" d="M275.2,172.7c1.2,1.2,1.8,2.9,1.8,5.2v9.2h-3.8v-8.7c0-1.4-0.3-2.5-1-3.2c-0.7-0.7-1.6-1.1-2.8-1.1
			c-1.4,0-2.5,0.4-3.3,1.2c-0.8,0.8-1.2,2-1.2,3.6v8.1h-3.8v-16h3.6v2.1c0.6-0.7,1.4-1.3,2.3-1.7c0.9-0.4,2-0.6,3.2-0.6
			C272.4,170.9,274,171.5,275.2,172.7z"/>
		<path class="st1" d="M284.9,186.3c-1.3-0.7-2.4-1.7-3.1-2.9c-0.7-1.2-1.1-2.7-1.1-4.2s0.4-3,1.1-4.2c0.7-1.2,1.8-2.2,3.1-2.9
			c1.3-0.7,2.8-1.1,4.5-1.1c1.6,0,3,0.3,4.2,1c1.2,0.6,2.1,1.6,2.7,2.8l-2.9,1.7c-0.5-0.7-1-1.3-1.7-1.7s-1.4-0.6-2.3-0.6
			c-1.4,0-2.6,0.5-3.5,1.4s-1.4,2.1-1.4,3.6s0.5,2.7,1.4,3.6c0.9,0.9,2.1,1.4,3.5,1.4c0.8,0,1.6-0.2,2.3-0.6
			c0.7-0.4,1.3-0.9,1.7-1.7l2.9,1.7c-0.6,1.2-1.5,2.1-2.7,2.8c-1.2,0.7-2.6,1-4.1,1C287.7,187.3,286.2,187,284.9,186.3z"/>
		<path class="st1" d="M314.2,180.3h-12.6c0.2,1.2,0.8,2.1,1.7,2.8c0.9,0.7,2.1,1,3.5,1c1.8,0,3.2-0.6,4.4-1.7l2,2.3
			c-0.7,0.9-1.6,1.5-2.7,1.9c-1.1,0.4-2.3,0.7-3.7,0.7c-1.8,0-3.3-0.3-4.7-1s-2.4-1.7-3.1-2.9c-0.7-1.2-1.1-2.7-1.1-4.2
			c0-1.6,0.4-3,1.1-4.2c0.7-1.2,1.7-2.2,3-2.9c1.3-0.7,2.7-1.1,4.3-1.1c1.6,0,3,0.3,4.2,1s2.2,1.7,2.9,2.9s1,2.7,1,4.3
			C314.2,179.5,314.2,179.8,314.2,180.3z M303.1,175c-0.8,0.7-1.3,1.7-1.5,2.8h9.1c-0.2-1.2-0.7-2.1-1.5-2.8
			c-0.8-0.7-1.8-1.1-3.1-1.1C304.9,173.9,303.9,174.3,303.1,175z"/>
		<path class="st1" d="M319,186.8c-1.2-0.3-2.2-0.8-3-1.3l1.4-2.9c0.7,0.5,1.6,0.9,2.6,1.2c1,0.3,2,0.4,3,0.4c2.2,0,3.4-0.6,3.4-1.8
			c0-0.6-0.3-0.9-0.9-1.2c-0.6-0.2-1.5-0.4-2.7-0.6c-1.3-0.2-2.4-0.4-3.2-0.7c-0.8-0.3-1.6-0.7-2.2-1.4c-0.6-0.6-0.9-1.6-0.9-2.7
			c0-1.5,0.6-2.7,1.9-3.6c1.3-0.9,3-1.4,5.1-1.4c1.1,0,2.2,0.1,3.3,0.4c1.1,0.3,2,0.6,2.7,1l-1.4,2.8c-1.4-0.8-2.9-1.2-4.6-1.2
			c-1.1,0-1.9,0.2-2.5,0.5c-0.6,0.3-0.9,0.8-0.9,1.3c0,0.6,0.3,1,0.9,1.3c0.6,0.3,1.6,0.5,2.8,0.7c1.3,0.2,2.3,0.4,3.2,0.7
			c0.8,0.3,1.5,0.7,2.1,1.3c0.6,0.6,0.9,1.5,0.9,2.6c0,1.5-0.7,2.7-1.9,3.6c-1.3,0.9-3.1,1.4-5.3,1.4
			C321.5,187.3,320.2,187.2,319,186.8z"/>
		<path class="st1" d="M351.2,186.3c-0.4,0.4-1,0.6-1.6,0.8s-1.3,0.3-2,0.3c-1.8,0-3.1-0.5-4.1-1.4s-1.4-2.3-1.4-4v-7.7h-2.6v-3h2.6
			v-3.7h3.8v3.7h4.3v3h-4.3v7.6c0,0.8,0.2,1.4,0.6,1.8c0.4,0.4,0.9,0.6,1.7,0.6c0.8,0,1.5-0.2,2.1-0.7L351.2,186.3z"/>
		<path class="st1" d="M368.2,172.7c1.2,1.2,1.8,2.9,1.8,5.2v9.2h-3.8v-8.7c0-1.4-0.3-2.5-1-3.2c-0.7-0.7-1.6-1.1-2.8-1.1
			c-1.4,0-2.5,0.4-3.3,1.2c-0.8,0.8-1.2,2-1.2,3.6v8.1h-3.8v-22.3h3.8v8.1c0.6-0.7,1.4-1.2,2.3-1.5s1.9-0.5,3-0.5
			C365.4,170.9,367,171.5,368.2,172.7z"/>
		<path class="st1" d="M386.4,172.6c1.2,1.1,1.9,2.8,1.9,5.1v9.4h-3.5v-2c-0.5,0.7-1.1,1.2-2,1.6c-0.9,0.4-1.9,0.6-3.1,0.6
			s-2.2-0.2-3.2-0.6c-0.9-0.4-1.6-1-2.1-1.7c-0.5-0.7-0.7-1.6-0.7-2.5c0-1.4,0.5-2.6,1.6-3.5c1.1-0.9,2.8-1.3,5.1-1.3h4.1v-0.2
			c0-1.1-0.3-2-1-2.6c-0.7-0.6-1.7-0.9-3-0.9c-0.9,0-1.8,0.1-2.7,0.4c-0.9,0.3-1.6,0.7-2.2,1.2l-1.5-2.7c0.8-0.6,1.8-1.1,3-1.5
			c1.2-0.3,2.4-0.5,3.8-0.5C383.3,170.9,385.1,171.5,386.4,172.6z M382.9,184c0.7-0.4,1.2-1,1.5-1.8v-1.9h-3.9
			c-2.2,0-3.2,0.7-3.2,2.1c0,0.7,0.3,1.2,0.8,1.6c0.5,0.4,1.3,0.6,2.2,0.6C381.4,184.6,382.2,184.4,382.9,184z"/>
		<path class="st1" d="M402.7,186.3c-0.4,0.4-1,0.6-1.6,0.8s-1.3,0.3-2,0.3c-1.8,0-3.1-0.5-4.1-1.4s-1.4-2.3-1.4-4v-7.7h-2.6v-3h2.6
			v-3.7h3.8v3.7h4.3v3h-4.3v7.6c0,0.8,0.2,1.4,0.6,1.8c0.4,0.4,0.9,0.6,1.7,0.6c0.8,0,1.5-0.2,2.1-0.7L402.7,186.3z"/>
		<path class="st1" d="M428,172.7c1.2,1.2,1.8,2.9,1.8,5.2v9.2h-3.8v-8.7c0-1.4-0.3-2.5-1-3.2c-0.7-0.7-1.6-1.1-2.8-1.1
			c-1.4,0-2.5,0.4-3.3,1.2c-0.8,0.8-1.2,2-1.2,3.6v8.1H414v-22.3h3.8v8.1c0.6-0.7,1.4-1.2,2.3-1.5s1.9-0.5,3-0.5
			C425.1,170.9,426.8,171.5,428,172.7z"/>
		<path class="st1" d="M446.1,172.6c1.2,1.1,1.9,2.8,1.9,5.1v9.4h-3.5v-2c-0.5,0.7-1.1,1.2-2,1.6c-0.9,0.4-1.9,0.6-3.1,0.6
			s-2.2-0.2-3.2-0.6c-0.9-0.4-1.6-1-2.1-1.7c-0.5-0.7-0.7-1.6-0.7-2.5c0-1.4,0.5-2.6,1.6-3.5c1.1-0.9,2.8-1.3,5.1-1.3h4.1v-0.2
			c0-1.1-0.3-2-1-2.6c-0.7-0.6-1.7-0.9-3-0.9c-0.9,0-1.8,0.1-2.7,0.4c-0.9,0.3-1.6,0.7-2.2,1.2l-1.5-2.7c0.8-0.6,1.8-1.1,3-1.5
			c1.2-0.3,2.4-0.5,3.8-0.5C443.1,170.9,444.9,171.5,446.1,172.6z M442.7,184c0.7-0.4,1.2-1,1.5-1.8v-1.9h-3.9
			c-2.2,0-3.2,0.7-3.2,2.1c0,0.7,0.3,1.2,0.8,1.6c0.5,0.4,1.3,0.6,2.2,0.6C441.1,184.6,442,184.4,442.7,184z"/>
		<path class="st1" d="M467.5,171.1l-6.9,16h-3.9l-6.9-16h3.9l5,11.9l5.1-11.9H467.5z"/>
		<path class="st1" d="M484.4,180.3h-12.6c0.2,1.2,0.8,2.1,1.7,2.8c0.9,0.7,2.1,1,3.5,1c1.8,0,3.2-0.6,4.3-1.7l2,2.3
			c-0.7,0.9-1.6,1.5-2.7,1.9c-1.1,0.4-2.3,0.7-3.7,0.7c-1.8,0-3.3-0.3-4.7-1s-2.4-1.7-3.1-2.9c-0.7-1.2-1.1-2.7-1.1-4.2
			c0-1.6,0.4-3,1.1-4.2c0.7-1.2,1.7-2.2,3-2.9c1.3-0.7,2.7-1.1,4.3-1.1c1.6,0,3,0.3,4.2,1c1.2,0.7,2.2,1.7,2.9,2.9
			c0.7,1.2,1,2.7,1,4.3C484.4,179.5,484.4,179.8,484.4,180.3z M473.3,175c-0.8,0.7-1.3,1.7-1.5,2.8h9.1c-0.2-1.2-0.7-2.1-1.5-2.8
			c-0.8-0.7-1.8-1.1-3.1-1.1C475.1,173.9,474.1,174.3,473.3,175z"/>
		<path class="st1" d="M36.3,203.8c-0.5-0.4-0.7-1-0.7-1.6c0-0.6,0.2-1.2,0.7-1.6c0.5-0.4,1-0.6,1.7-0.6c0.7,0,1.2,0.2,1.7,0.6
			c0.5,0.4,0.7,0.9,0.7,1.5c0,0.7-0.2,1.2-0.7,1.7c-0.5,0.5-1,0.7-1.7,0.7C37.3,204.5,36.7,204.3,36.3,203.8z M36.1,207.1h3.8v16
			h-3.8V207.1z"/>
		<path class="st1" d="M69.8,208.7c1.2,1.2,1.8,2.9,1.8,5.3v9.2h-3.8v-8.7c0-1.4-0.3-2.5-0.9-3.2c-0.6-0.7-1.5-1.1-2.7-1.1
			c-1.3,0-2.3,0.4-3,1.2c-0.8,0.8-1.1,2-1.1,3.6v8.1h-3.8v-8.7c0-1.4-0.3-2.5-0.9-3.2c-0.6-0.7-1.5-1.1-2.7-1.1
			c-1.3,0-2.3,0.4-3,1.2c-0.8,0.8-1.1,2-1.1,3.6v8.1h-3.8v-16h3.6v2c0.6-0.7,1.4-1.3,2.2-1.6c0.9-0.4,1.9-0.6,3-0.6
			c1.2,0,2.3,0.2,3.2,0.7c0.9,0.4,1.7,1.1,2.2,2c0.7-0.8,1.5-1.5,2.5-2c1-0.5,2.2-0.7,3.5-0.7C67,206.9,68.6,207.5,69.8,208.7z"/>
		<path class="st1" d="M89.4,207.9c1.2,0.7,2.2,1.6,2.9,2.9c0.7,1.2,1.1,2.7,1.1,4.3c0,1.6-0.4,3.1-1.1,4.3
			c-0.7,1.2-1.7,2.2-2.9,2.9c-1.2,0.7-2.6,1-4.2,1c-2.2,0-3.9-0.7-5.1-2.2v7.8h-3.8v-21.8h3.6v2.1c0.6-0.8,1.4-1.3,2.3-1.7
			c0.9-0.4,1.9-0.6,3-0.6C86.8,206.9,88.2,207.3,89.4,207.9z M88.2,218.7c0.9-0.9,1.3-2.1,1.3-3.6s-0.4-2.7-1.3-3.6
			c-0.9-0.9-2-1.4-3.4-1.4c-0.9,0-1.7,0.2-2.4,0.6c-0.7,0.4-1.3,1-1.7,1.8c-0.4,0.8-0.6,1.6-0.6,2.6s0.2,1.9,0.6,2.6
			c0.4,0.8,1,1.3,1.7,1.8c0.7,0.4,1.5,0.6,2.4,0.6C86.2,220.1,87.3,219.7,88.2,218.7z"/>
		<path class="st1" d="M108.2,208.6c1.2,1.1,1.9,2.8,1.9,5.1v9.4h-3.5v-2c-0.5,0.7-1.1,1.2-2,1.6c-0.9,0.4-1.9,0.6-3.1,0.6
			s-2.2-0.2-3.1-0.6s-1.6-1-2.1-1.7c-0.5-0.7-0.7-1.6-0.7-2.5c0-1.4,0.5-2.6,1.6-3.5c1.1-0.9,2.8-1.3,5.1-1.3h4.1v-0.2
			c0-1.1-0.3-2-1-2.6c-0.7-0.6-1.7-0.9-3-0.9c-0.9,0-1.8,0.1-2.7,0.4c-0.9,0.3-1.6,0.7-2.2,1.2l-1.5-2.7c0.8-0.6,1.9-1.1,3-1.5
			c1.2-0.3,2.4-0.5,3.8-0.5C105.2,206.9,107,207.5,108.2,208.6z M104.8,220c0.7-0.4,1.2-1,1.5-1.8v-1.9h-3.9c-2.2,0-3.2,0.7-3.2,2.1
			c0,0.7,0.3,1.2,0.8,1.6c0.5,0.4,1.3,0.6,2.2,0.6C103.3,220.6,104.1,220.4,104.8,220z"/>
		<path class="st1" d="M117.9,222.3c-1.3-0.7-2.4-1.7-3.1-2.9c-0.7-1.2-1.1-2.7-1.1-4.2s0.4-3,1.1-4.2c0.7-1.2,1.8-2.2,3.1-2.9
			c1.3-0.7,2.8-1.1,4.5-1.1c1.6,0,3,0.3,4.2,1c1.2,0.6,2.1,1.6,2.7,2.8l-2.9,1.7c-0.5-0.7-1-1.3-1.7-1.7s-1.4-0.6-2.3-0.6
			c-1.4,0-2.6,0.5-3.5,1.4s-1.4,2.1-1.4,3.6s0.5,2.7,1.4,3.6c0.9,0.9,2.1,1.4,3.5,1.4c0.8,0,1.6-0.2,2.3-0.6
			c0.7-0.4,1.3-0.9,1.7-1.7l2.9,1.7c-0.6,1.2-1.5,2.1-2.7,2.8c-1.2,0.7-2.6,1-4.1,1C120.8,223.3,119.3,223,117.9,222.3z"/>
		<path class="st1" d="M142.3,222.3c-0.4,0.4-1,0.6-1.6,0.8c-0.6,0.2-1.3,0.3-2,0.3c-1.8,0-3.1-0.5-4.1-1.4s-1.4-2.3-1.4-4v-7.7
			h-2.6v-3h2.6v-3.7h3.8v3.7h4.3v3H137v7.6c0,0.8,0.2,1.4,0.6,1.8c0.4,0.4,0.9,0.6,1.6,0.6c0.8,0,1.5-0.2,2.1-0.7L142.3,222.3z"/>
		<path class="st1" d="M148.7,219c0.5,0.5,0.7,1.1,0.7,1.8c0,0.3,0,0.7-0.1,1c-0.1,0.4-0.3,0.9-0.6,1.6l-1.5,4.2h-2.4l1.2-4.6
			c-0.4-0.2-0.8-0.5-1-0.9s-0.4-0.8-0.4-1.4c0-0.7,0.2-1.3,0.7-1.8c0.5-0.5,1-0.7,1.7-0.7C147.7,218.4,148.2,218.6,148.7,219z"/>
		<path class="st1" d="M176.3,207.1l-7.5,17.3c-0.7,1.7-1.6,3-2.5,3.7c-1,0.7-2.2,1.1-3.6,1.1c-0.8,0-1.6-0.1-2.4-0.4
			c-0.8-0.3-1.4-0.6-1.9-1.1l1.5-2.8c0.4,0.3,0.8,0.6,1.3,0.8c0.5,0.2,1,0.3,1.5,0.3c0.7,0,1.2-0.2,1.6-0.5c0.4-0.3,0.8-0.9,1.2-1.7
			l0.3-0.6l-7-16.1h3.9l5,11.9l5.1-11.9H176.3z"/>
		<path class="st1" d="M181,222.3c-1.3-0.7-2.3-1.7-3-2.9c-0.7-1.2-1.1-2.7-1.1-4.2s0.4-3,1.1-4.2c0.7-1.2,1.7-2.2,3-2.9
			c1.3-0.7,2.8-1.1,4.4-1.1c1.6,0,3.1,0.4,4.4,1.1c1.3,0.7,2.3,1.7,3,2.9c0.7,1.2,1.1,2.7,1.1,4.2s-0.4,3-1.1,4.2
			c-0.7,1.3-1.7,2.2-3,2.9c-1.3,0.7-2.8,1-4.4,1C183.8,223.3,182.3,223,181,222.3z M188.8,218.7c0.9-0.9,1.4-2.1,1.4-3.6
			s-0.5-2.7-1.4-3.6c-0.9-0.9-2-1.4-3.4-1.4c-1.4,0-2.5,0.5-3.4,1.4c-0.9,0.9-1.3,2.1-1.3,3.6s0.4,2.7,1.3,3.6
			c0.9,0.9,2,1.4,3.4,1.4C186.8,220.1,187.9,219.7,188.8,218.7z"/>
		<path class="st1" d="M213.1,207.1v16h-3.6v-2c-0.6,0.7-1.4,1.3-2.2,1.7s-1.9,0.6-2.9,0.6c-2.1,0-3.8-0.6-5.1-1.8
			c-1.2-1.2-1.8-3-1.8-5.3v-9.1h3.8v8.6c0,1.4,0.3,2.5,1,3.2s1.6,1.1,2.8,1.1c1.3,0,2.4-0.4,3.2-1.2c0.8-0.8,1.2-2,1.2-3.6v-8.1
			H213.1z"/>
		<path class="st1" d="M227.3,206.9v3.6c-0.3-0.1-0.6-0.1-0.9-0.1c-1.5,0-2.6,0.4-3.4,1.3c-0.8,0.9-1.2,2.1-1.2,3.7v7.8H218v-16h3.6
			v2.3C222.6,207.8,224.5,206.9,227.3,206.9z"/>
		<path class="st1" d="M254.4,207.1v16h-3.6v-2c-0.6,0.7-1.4,1.3-2.2,1.7s-1.9,0.6-2.9,0.6c-2.1,0-3.8-0.6-5.1-1.8
			c-1.2-1.2-1.8-3-1.8-5.3v-9.1h3.8v8.6c0,1.4,0.3,2.5,1,3.2s1.6,1.1,2.8,1.1c1.3,0,2.4-0.4,3.2-1.2c0.8-0.8,1.2-2,1.2-3.6v-8.1
			H254.4z"/>
		<path class="st1" d="M260.4,222.8c-1.2-0.3-2.2-0.8-3-1.3l1.4-2.9c0.7,0.5,1.6,0.9,2.6,1.2c1,0.3,2,0.4,3,0.4
			c2.2,0,3.4-0.6,3.4-1.8c0-0.6-0.3-0.9-0.9-1.2c-0.6-0.2-1.5-0.4-2.7-0.6c-1.3-0.2-2.4-0.4-3.2-0.7c-0.8-0.3-1.6-0.7-2.2-1.4
			c-0.6-0.6-0.9-1.6-0.9-2.7c0-1.5,0.6-2.7,1.9-3.6c1.3-0.9,3-1.4,5.1-1.4c1.1,0,2.2,0.1,3.3,0.4c1.1,0.3,2,0.6,2.7,1l-1.4,2.8
			c-1.4-0.8-2.9-1.2-4.6-1.2c-1.1,0-1.9,0.2-2.5,0.5c-0.6,0.3-0.9,0.8-0.9,1.3c0,0.6,0.3,1,0.9,1.3c0.6,0.3,1.6,0.5,2.8,0.7
			c1.3,0.2,2.3,0.4,3.1,0.7c0.8,0.3,1.5,0.7,2.1,1.3c0.6,0.6,0.9,1.5,0.9,2.6c0,1.5-0.6,2.7-1.9,3.6c-1.3,0.9-3.1,1.4-5.3,1.4
			C263,223.3,261.7,223.2,260.4,222.8z"/>
		<path class="st1" d="M289.8,216.3h-12.6c0.2,1.2,0.8,2.1,1.7,2.8c0.9,0.7,2.1,1,3.5,1c1.8,0,3.2-0.6,4.4-1.7l2,2.3
			c-0.7,0.9-1.6,1.5-2.7,1.9c-1.1,0.4-2.3,0.7-3.7,0.7c-1.8,0-3.3-0.3-4.7-1s-2.4-1.7-3.1-2.9c-0.7-1.2-1.1-2.7-1.1-4.2
			c0-1.6,0.4-3,1.1-4.2c0.7-1.2,1.7-2.2,3-2.9c1.3-0.7,2.7-1.1,4.3-1.1c1.6,0,3,0.3,4.2,1s2.2,1.7,2.9,2.9s1,2.7,1,4.3
			C289.8,215.5,289.8,215.8,289.8,216.3z M278.7,211c-0.8,0.7-1.3,1.7-1.5,2.8h9.1c-0.2-1.2-0.7-2.1-1.5-2.8
			c-0.8-0.7-1.8-1.1-3.1-1.1C280.5,209.9,279.5,210.3,278.7,211z"/>
		<path class="st1" d="M302.7,206.9v3.6c-0.3-0.1-0.6-0.1-0.9-0.1c-1.5,0-2.6,0.4-3.4,1.3c-0.8,0.9-1.2,2.1-1.2,3.7v7.8h-3.8v-16
			h3.6v2.3C298.1,207.8,300,206.9,302.7,206.9z"/>
		<path class="st1" d="M307.1,222.8c-1.2-0.3-2.2-0.8-3-1.3l1.4-2.9c0.7,0.5,1.6,0.9,2.6,1.2c1,0.3,2,0.4,3,0.4
			c2.2,0,3.4-0.6,3.4-1.8c0-0.6-0.3-0.9-0.9-1.2c-0.6-0.2-1.5-0.4-2.7-0.6c-1.3-0.2-2.4-0.4-3.2-0.7c-0.8-0.3-1.6-0.7-2.2-1.4
			c-0.6-0.6-0.9-1.6-0.9-2.7c0-1.5,0.6-2.7,1.9-3.6c1.3-0.9,3-1.4,5.1-1.4c1.1,0,2.2,0.1,3.3,0.4c1.1,0.3,2,0.6,2.7,1l-1.4,2.8
			c-1.4-0.8-2.9-1.2-4.6-1.2c-1.1,0-1.9,0.2-2.5,0.5c-0.6,0.3-0.9,0.8-0.9,1.3c0,0.6,0.3,1,0.9,1.3c0.6,0.3,1.6,0.5,2.8,0.7
			c1.3,0.2,2.3,0.4,3.1,0.7c0.8,0.3,1.5,0.7,2.1,1.3c0.6,0.6,0.9,1.5,0.9,2.6c0,1.5-0.6,2.7-1.9,3.6c-1.3,0.9-3.1,1.4-5.3,1.4
			C309.6,223.3,308.3,223.2,307.1,222.8z"/>
		<path class="st1" d="M354.6,207.1l-5.9,16h-3.6l-4.1-11l-4.2,11h-3.6l-5.9-16h3.5l4.2,11.8l4.4-11.8h3.2L347,219l4.4-11.9H354.6z"
			/>
		<path class="st1" d="M359.6,222.3c-1.3-0.7-2.3-1.7-3-2.9c-0.7-1.2-1.1-2.7-1.1-4.2s0.4-3,1.1-4.2c0.7-1.2,1.7-2.2,3-2.9
			c1.3-0.7,2.8-1.1,4.4-1.1c1.6,0,3.1,0.4,4.4,1.1c1.3,0.7,2.3,1.7,3,2.9c0.7,1.2,1.1,2.7,1.1,4.2s-0.4,3-1.1,4.2
			c-0.7,1.3-1.7,2.2-3,2.9c-1.3,0.7-2.8,1-4.4,1C362.4,223.3,360.9,223,359.6,222.3z M367.4,218.7c0.9-0.9,1.3-2.1,1.3-3.6
			s-0.4-2.7-1.3-3.6c-0.9-0.9-2-1.4-3.4-1.4s-2.5,0.5-3.4,1.4c-0.9,0.9-1.3,2.1-1.3,3.6s0.4,2.7,1.3,3.6s2,1.4,3.4,1.4
			S366.5,219.7,367.4,218.7z"/>
		<path class="st1" d="M390.1,208.7c1.2,1.2,1.8,2.9,1.8,5.2v9.2h-3.8v-8.7c0-1.4-0.3-2.5-1-3.2c-0.7-0.7-1.6-1.1-2.8-1.1
			c-1.4,0-2.5,0.4-3.3,1.2c-0.8,0.8-1.2,2-1.2,3.6v8.1h-3.8v-16h3.6v2.1c0.6-0.7,1.4-1.3,2.3-1.7c0.9-0.4,2-0.6,3.2-0.6
			C387.2,206.9,388.9,207.5,390.1,208.7z"/>
		<path class="st1" d="M399.5,201.3c0.5,0.5,0.7,1,0.7,1.8c0,0.4,0,0.7-0.1,1c-0.1,0.3-0.3,0.9-0.5,1.5L398,210h-2.4l1.2-4.6
			c-0.4-0.2-0.8-0.4-1-0.8c-0.2-0.4-0.4-0.9-0.4-1.4c0-0.7,0.2-1.3,0.7-1.8c0.5-0.5,1-0.7,1.7-0.7
			C398.5,200.7,399,200.9,399.5,201.3z"/>
		<path class="st1" d="M413.6,222.3c-0.4,0.4-1,0.6-1.6,0.8s-1.3,0.3-2,0.3c-1.8,0-3.1-0.5-4.1-1.4s-1.4-2.3-1.4-4v-7.7h-2.6v-3h2.6
			v-3.7h3.8v3.7h4.3v3h-4.3v7.6c0,0.8,0.2,1.4,0.6,1.8c0.4,0.4,0.9,0.6,1.7,0.6c0.8,0,1.5-0.2,2.1-0.7L413.6,222.3z"/>
		<path class="st1" d="M426.1,222.8c-1.2-0.3-2.2-0.8-3-1.3l1.4-2.9c0.7,0.5,1.6,0.9,2.6,1.2c1,0.3,2,0.4,3,0.4
			c2.2,0,3.4-0.6,3.4-1.8c0-0.6-0.3-0.9-0.9-1.2c-0.6-0.2-1.5-0.4-2.7-0.6c-1.3-0.2-2.4-0.4-3.2-0.7c-0.8-0.3-1.5-0.7-2.2-1.4
			c-0.6-0.6-0.9-1.6-0.9-2.7c0-1.5,0.6-2.7,1.9-3.6c1.3-0.9,3-1.4,5.1-1.4c1.1,0,2.2,0.1,3.3,0.4c1.1,0.3,2,0.6,2.7,1l-1.4,2.8
			c-1.4-0.8-2.9-1.2-4.6-1.2c-1.1,0-1.9,0.2-2.5,0.5c-0.6,0.3-0.9,0.8-0.9,1.3c0,0.6,0.3,1,0.9,1.3c0.6,0.3,1.6,0.5,2.8,0.7
			c1.3,0.2,2.3,0.4,3.2,0.7c0.8,0.3,1.5,0.7,2.1,1.3c0.6,0.6,0.9,1.5,0.9,2.6c0,1.5-0.7,2.7-2,3.6s-3.1,1.4-5.3,1.4
			C428.6,223.3,427.4,223.2,426.1,222.8z"/>
		<path class="st1" d="M450.1,222.3c-0.4,0.4-1,0.6-1.6,0.8s-1.3,0.3-2,0.3c-1.8,0-3.1-0.5-4.1-1.4s-1.4-2.3-1.4-4v-7.7h-2.6v-3h2.6
			v-3.7h3.8v3.7h4.3v3h-4.3v7.6c0,0.8,0.2,1.4,0.6,1.8c0.4,0.4,0.9,0.6,1.7,0.6c0.8,0,1.5-0.2,2.1-0.7L450.1,222.3z"/>
		<path class="st1" d="M455.4,222.3c-1.3-0.7-2.3-1.7-3-2.9c-0.7-1.2-1.1-2.7-1.1-4.2s0.4-3,1.1-4.2c0.7-1.2,1.7-2.2,3-2.9
			c1.3-0.7,2.8-1.1,4.4-1.1c1.6,0,3.1,0.4,4.4,1.1c1.3,0.7,2.3,1.7,3,2.9c0.7,1.2,1.1,2.7,1.1,4.2s-0.4,3-1.1,4.2
			c-0.7,1.3-1.7,2.2-3,2.9c-1.3,0.7-2.8,1-4.4,1C458.2,223.3,456.7,223,455.4,222.3z M463.2,218.7c0.9-0.9,1.3-2.1,1.3-3.6
			s-0.4-2.7-1.3-3.6c-0.9-0.9-2-1.4-3.4-1.4s-2.5,0.5-3.4,1.4c-0.9,0.9-1.3,2.1-1.3,3.6s0.4,2.7,1.3,3.6s2,1.4,3.4,1.4
			S462.3,219.7,463.2,218.7z"/>
		<path class="st1" d="M485,207.9c1.2,0.7,2.2,1.6,2.9,2.9s1,2.7,1,4.3c0,1.6-0.3,3.1-1,4.3c-0.7,1.2-1.7,2.2-2.9,2.9
			c-1.2,0.7-2.6,1-4.2,1c-2.2,0-3.9-0.7-5.1-2.2v7.8H472v-21.8h3.6v2.1c0.6-0.8,1.4-1.3,2.3-1.7c0.9-0.4,1.9-0.6,3-0.6
			C482.4,206.9,483.8,207.3,485,207.9z M483.8,218.7c0.9-0.9,1.3-2.1,1.3-3.6s-0.4-2.7-1.3-3.6c-0.9-0.9-2-1.4-3.4-1.4
			c-0.9,0-1.7,0.2-2.4,0.6c-0.7,0.4-1.3,1-1.7,1.8c-0.4,0.8-0.6,1.6-0.6,2.6s0.2,1.9,0.6,2.6c0.4,0.8,1,1.3,1.7,1.8
			c0.7,0.4,1.5,0.6,2.4,0.6C481.8,220.1,482.9,219.7,483.8,218.7z"/>
		<path class="st1" d="M45.3,242.9v3.6c-0.3-0.1-0.6-0.1-0.9-0.1c-1.5,0-2.6,0.4-3.4,1.3c-0.8,0.9-1.2,2.1-1.2,3.7v7.8h-3.8v-16h3.6
			v2.3C40.7,243.8,42.6,242.9,45.3,242.9z"/>
		<path class="st1" d="M63.4,252.3H50.8c0.2,1.2,0.8,2.1,1.7,2.8c0.9,0.7,2.1,1,3.5,1c1.8,0,3.2-0.6,4.4-1.7l2,2.3
			c-0.7,0.9-1.6,1.5-2.7,1.9c-1.1,0.4-2.3,0.7-3.7,0.7c-1.8,0-3.3-0.3-4.7-1s-2.4-1.7-3.1-2.9c-0.7-1.2-1.1-2.7-1.1-4.2
			c0-1.6,0.4-3,1.1-4.2c0.7-1.2,1.7-2.2,3-2.9c1.3-0.7,2.7-1.1,4.3-1.1c1.6,0,3,0.3,4.2,1s2.2,1.7,2.9,2.9s1,2.7,1,4.3
			C63.4,251.5,63.4,251.8,63.4,252.3z M52.3,247c-0.8,0.7-1.3,1.7-1.5,2.8h9.1c-0.2-1.2-0.7-2.1-1.5-2.8c-0.8-0.7-1.8-1.1-3.1-1.1
			C54.1,245.9,53.1,246.3,52.3,247z"/>
		<path class="st1" d="M69.9,258.3c-1.3-0.7-2.4-1.7-3.1-2.9c-0.7-1.2-1.1-2.7-1.1-4.2s0.4-3,1.1-4.2c0.7-1.2,1.8-2.2,3.1-2.9
			c1.3-0.7,2.8-1.1,4.5-1.1c1.6,0,3,0.3,4.2,1c1.2,0.6,2.1,1.6,2.7,2.8l-2.9,1.7c-0.5-0.7-1-1.3-1.7-1.7s-1.4-0.6-2.3-0.6
			c-1.4,0-2.6,0.5-3.5,1.4s-1.4,2.1-1.4,3.6s0.5,2.7,1.4,3.6c0.9,0.9,2.1,1.4,3.5,1.4c0.8,0,1.6-0.2,2.3-0.6
			c0.7-0.4,1.3-0.9,1.7-1.7l2.9,1.7c-0.6,1.2-1.5,2.1-2.7,2.8c-1.2,0.7-2.6,1-4.1,1C72.7,259.3,71.2,259,69.9,258.3z"/>
		<path class="st1" d="M87,258.3c-1.3-0.7-2.3-1.7-3-2.9c-0.7-1.2-1.1-2.7-1.1-4.2s0.4-3,1.1-4.2c0.7-1.2,1.7-2.2,3-2.9
			c1.3-0.7,2.8-1.1,4.4-1.1c1.6,0,3.1,0.4,4.4,1.1c1.3,0.7,2.3,1.7,3,2.9c0.7,1.2,1.1,2.7,1.1,4.2s-0.4,3-1.1,4.2
			c-0.7,1.3-1.7,2.2-3,2.9c-1.3,0.7-2.8,1-4.4,1C89.8,259.3,88.3,259,87,258.3z M94.8,254.7c0.9-0.9,1.4-2.1,1.4-3.6
			s-0.5-2.7-1.4-3.6c-0.9-0.9-2-1.4-3.4-1.4c-1.4,0-2.5,0.5-3.4,1.4c-0.9,0.9-1.3,2.1-1.3,3.6s0.4,2.7,1.3,3.6
			c0.9,0.9,2,1.4,3.4,1.4C92.8,256.1,93.9,255.7,94.8,254.7z"/>
		<path class="st1" d="M128.6,244.7c1.2,1.2,1.8,2.9,1.8,5.3v9.2h-3.8v-8.7c0-1.4-0.3-2.5-0.9-3.2c-0.6-0.7-1.5-1.1-2.7-1.1
			c-1.3,0-2.3,0.4-3,1.2c-0.8,0.8-1.1,2-1.1,3.6v8.1h-3.8v-8.7c0-1.4-0.3-2.5-0.9-3.2c-0.6-0.7-1.5-1.1-2.7-1.1
			c-1.3,0-2.3,0.4-3,1.2c-0.8,0.8-1.1,2-1.1,3.6v8.1h-3.8v-16h3.6v2c0.6-0.7,1.4-1.3,2.2-1.6c0.9-0.4,1.9-0.6,3-0.6
			c1.2,0,2.3,0.2,3.2,0.7c0.9,0.4,1.7,1.1,2.2,2c0.7-0.8,1.5-1.5,2.5-2c1-0.5,2.2-0.7,3.5-0.7C125.8,242.9,127.4,243.5,128.6,244.7z
			"/>
		<path class="st1" d="M160.2,244.7c1.2,1.2,1.8,2.9,1.8,5.3v9.2h-3.8v-8.7c0-1.4-0.3-2.5-0.9-3.2c-0.6-0.7-1.5-1.1-2.7-1.1
			c-1.3,0-2.3,0.4-3,1.2c-0.8,0.8-1.1,2-1.1,3.6v8.1h-3.8v-8.7c0-1.4-0.3-2.5-0.9-3.2c-0.6-0.7-1.5-1.1-2.7-1.1
			c-1.3,0-2.3,0.4-3,1.2c-0.8,0.8-1.1,2-1.1,3.6v8.1h-3.8v-16h3.6v2c0.6-0.7,1.4-1.3,2.2-1.6c0.9-0.4,1.9-0.6,3-0.6
			c1.2,0,2.3,0.2,3.2,0.7c0.9,0.4,1.7,1.1,2.2,2c0.7-0.8,1.5-1.5,2.5-2c1-0.5,2.2-0.7,3.5-0.7C157.4,242.9,159,243.5,160.2,244.7z"
			/>
		<path class="st1" d="M181.9,252.3h-12.6c0.2,1.2,0.8,2.1,1.7,2.8c0.9,0.7,2.1,1,3.5,1c1.8,0,3.2-0.6,4.4-1.7l2,2.3
			c-0.7,0.9-1.6,1.5-2.7,1.9c-1.1,0.4-2.3,0.7-3.7,0.7c-1.8,0-3.3-0.3-4.7-1s-2.4-1.7-3.1-2.9c-0.7-1.2-1.1-2.7-1.1-4.2
			c0-1.6,0.4-3,1.1-4.2c0.7-1.2,1.7-2.2,3-2.9c1.3-0.7,2.7-1.1,4.3-1.1c1.6,0,3,0.3,4.2,1s2.2,1.7,2.9,2.9s1,2.7,1,4.3
			C182,251.5,181.9,251.8,181.9,252.3z M170.8,247c-0.8,0.7-1.3,1.7-1.5,2.8h9.1c-0.2-1.2-0.7-2.1-1.5-2.8c-0.8-0.7-1.8-1.1-3.1-1.1
			C172.7,245.9,171.6,246.3,170.8,247z"/>
		<path class="st1" d="M199.5,244.7c1.2,1.2,1.8,2.9,1.8,5.2v9.2h-3.8v-8.7c0-1.4-0.3-2.5-1-3.2c-0.7-0.7-1.6-1.1-2.8-1.1
			c-1.4,0-2.5,0.4-3.3,1.2c-0.8,0.8-1.2,2-1.2,3.6v8.1h-3.8v-16h3.6v2.1c0.6-0.7,1.4-1.3,2.3-1.7c0.9-0.4,2-0.6,3.2-0.6
			C196.7,242.9,198.3,243.5,199.5,244.7z"/>
		<path class="st1" d="M222,236.9v22.3h-3.6v-2.1c-0.6,0.8-1.4,1.3-2.3,1.7c-0.9,0.4-1.9,0.6-3,0.6c-1.5,0-2.9-0.3-4.2-1
			c-1.2-0.7-2.2-1.6-2.9-2.9c-0.7-1.2-1-2.7-1-4.3c0-1.6,0.3-3,1-4.3c0.7-1.2,1.7-2.2,2.9-2.9c1.2-0.7,2.6-1,4.2-1
			c1.1,0,2,0.2,2.9,0.5c0.9,0.4,1.6,0.9,2.2,1.6v-8.2H222z M215.9,255.5c0.7-0.4,1.3-1,1.7-1.8c0.4-0.8,0.6-1.6,0.6-2.6
			s-0.2-1.9-0.6-2.6c-0.4-0.8-1-1.3-1.7-1.8c-0.7-0.4-1.5-0.6-2.4-0.6s-1.7,0.2-2.4,0.6c-0.7,0.4-1.3,1-1.7,1.8
			c-0.4,0.8-0.6,1.6-0.6,2.6s0.2,1.9,0.6,2.6c0.4,0.8,1,1.3,1.7,1.8c0.7,0.4,1.5,0.6,2.4,0.6S215.2,255.9,215.9,255.5z"/>
		<path class="st1" d="M227.1,239.8c-0.5-0.4-0.7-1-0.7-1.6c0-0.6,0.2-1.2,0.7-1.6c0.5-0.4,1-0.6,1.7-0.6c0.7,0,1.2,0.2,1.7,0.6
			c0.5,0.4,0.7,0.9,0.7,1.5c0,0.7-0.2,1.2-0.7,1.7c-0.5,0.5-1,0.7-1.7,0.7C228.1,240.5,227.5,240.3,227.1,239.8z M226.9,243.1h3.8
			v16h-3.8V243.1z"/>
		<path class="st1" d="M249.5,244.7c1.2,1.2,1.8,2.9,1.8,5.2v9.2h-3.8v-8.7c0-1.4-0.3-2.5-1-3.2c-0.7-0.7-1.6-1.1-2.8-1.1
			c-1.4,0-2.5,0.4-3.3,1.2c-0.8,0.8-1.2,2-1.2,3.6v8.1h-3.8v-16h3.6v2.1c0.6-0.7,1.4-1.3,2.3-1.7c0.9-0.4,2-0.6,3.2-0.6
			C246.7,242.9,248.3,243.5,249.5,244.7z"/>
		<path class="st1" d="M272.1,243.1v13.6c0,5.6-2.9,8.5-8.6,8.5c-1.5,0-3-0.2-4.4-0.6c-1.4-0.4-2.5-1-3.4-1.7l1.7-2.8
			c0.7,0.6,1.6,1,2.7,1.4c1.1,0.3,2.2,0.5,3.3,0.5c1.8,0,3-0.4,3.9-1.2c0.8-0.8,1.2-2,1.2-3.7v-0.8c-0.6,0.7-1.4,1.2-2.3,1.6
			c-0.9,0.4-1.9,0.5-3,0.5c-1.5,0-2.9-0.3-4.1-1c-1.2-0.6-2.2-1.6-2.9-2.7c-0.7-1.2-1.1-2.5-1.1-4.1c0-1.5,0.4-2.9,1.1-4
			c0.7-1.2,1.7-2.1,2.9-2.7c1.2-0.6,2.6-1,4.1-1c1.2,0,2.2,0.2,3.2,0.6s1.7,1,2.4,1.7v-2.1H272.1z M267.1,254c0.9-0.9,1.4-2,1.4-3.3
			c0-1.3-0.5-2.4-1.4-3.3c-0.9-0.8-2.1-1.3-3.5-1.3c-1.4,0-2.6,0.4-3.5,1.3c-0.9,0.8-1.4,1.9-1.4,3.3c0,1.4,0.5,2.5,1.4,3.3
			c0.9,0.9,2.1,1.3,3.5,1.3C265,255.2,266.2,254.8,267.1,254z"/>
		<path class="st1" d="M300.3,243.1l-7.5,17.3c-0.7,1.7-1.6,3-2.5,3.7c-1,0.7-2.2,1.1-3.6,1.1c-0.8,0-1.6-0.1-2.4-0.4
			c-0.8-0.3-1.4-0.6-1.9-1.1l1.5-2.8c0.4,0.3,0.8,0.6,1.3,0.8c0.5,0.2,1,0.3,1.5,0.3c0.7,0,1.2-0.2,1.6-0.5c0.4-0.3,0.8-0.9,1.2-1.7
			l0.3-0.6l-7-16.1h3.9l5,11.9l5.1-11.9H300.3z"/>
		<path class="st1" d="M305.1,258.3c-1.3-0.7-2.3-1.7-3-2.9c-0.7-1.2-1.1-2.7-1.1-4.2s0.4-3,1.1-4.2c0.7-1.2,1.7-2.2,3-2.9
			c1.3-0.7,2.8-1.1,4.4-1.1c1.6,0,3.1,0.4,4.4,1.1c1.3,0.7,2.3,1.7,3,2.9c0.7,1.2,1.1,2.7,1.1,4.2s-0.4,3-1.1,4.2
			c-0.7,1.3-1.7,2.2-3,2.9c-1.3,0.7-2.8,1-4.4,1C307.8,259.3,306.4,259,305.1,258.3z M312.9,254.7c0.9-0.9,1.4-2.1,1.4-3.6
			s-0.5-2.7-1.4-3.6c-0.9-0.9-2-1.4-3.4-1.4c-1.4,0-2.5,0.5-3.4,1.4c-0.9,0.9-1.3,2.1-1.3,3.6s0.4,2.7,1.3,3.6
			c0.9,0.9,2,1.4,3.4,1.4C310.8,256.1,312,255.7,312.9,254.7z"/>
		<path class="st1" d="M337.1,243.1v16h-3.6v-2c-0.6,0.7-1.4,1.3-2.2,1.7c-0.9,0.4-1.9,0.6-2.9,0.6c-2.1,0-3.8-0.6-5.1-1.8
			c-1.2-1.2-1.8-3-1.8-5.3v-9.1h3.8v8.6c0,1.4,0.3,2.5,1,3.2c0.6,0.7,1.6,1.1,2.8,1.1c1.3,0,2.4-0.4,3.2-1.2c0.8-0.8,1.2-2,1.2-3.6
			v-8.1H337.1z"/>
		<path class="st1" d="M341.5,258.6c-0.5-0.5-0.7-1.1-0.7-1.8c0-0.7,0.2-1.3,0.7-1.8c0.5-0.5,1.1-0.7,1.8-0.7c0.7,0,1.3,0.2,1.8,0.7
			c0.5,0.5,0.7,1.1,0.7,1.8c0,0.7-0.2,1.3-0.7,1.8c-0.5,0.5-1.1,0.7-1.7,0.7C342.5,259.3,342,259.1,341.5,258.6z"/>
		<path d="M34.9,390.8c-0.3-0.3-0.5-0.7-0.5-1.2c0-0.5,0.2-0.9,0.5-1.2c0.3-0.3,0.7-0.5,1.2-0.5s0.9,0.2,1.2,0.5s0.5,0.7,0.5,1.2
			c0,0.5-0.2,0.9-0.5,1.2c-0.3,0.3-0.7,0.5-1.2,0.5C35.6,391.3,35.2,391.1,34.9,390.8z"/>
		<path d="M45.9,377.1h2.6v14h-2.6V377.1z"/>
		<path d="M61.3,381.5c0.8,0.8,1.2,2,1.2,3.5v6.1h-2.5v-5.8c0-0.9-0.2-1.6-0.7-2.1c-0.4-0.5-1.1-0.7-1.9-0.7c-0.9,0-1.6,0.3-2.2,0.8
			c-0.5,0.6-0.8,1.3-0.8,2.4v5.4H52v-10.7h2.4v1.4c0.4-0.5,0.9-0.9,1.6-1.1c0.6-0.3,1.3-0.4,2.1-0.4
			C59.4,380.3,60.5,380.7,61.3,381.5z"/>
		<path d="M66.5,390.9c-0.8-0.2-1.5-0.5-2-0.9l1-1.9c0.5,0.3,1.1,0.6,1.7,0.8c0.7,0.2,1.3,0.3,2,0.3c1.5,0,2.2-0.4,2.2-1.2
			c0-0.4-0.2-0.6-0.6-0.8c-0.4-0.1-1-0.3-1.8-0.4c-0.9-0.1-1.6-0.3-2.1-0.5c-0.6-0.2-1-0.5-1.4-0.9c-0.4-0.4-0.6-1-0.6-1.8
			c0-1,0.4-1.8,1.3-2.4s2-0.9,3.4-0.9c0.7,0,1.5,0.1,2.2,0.2c0.7,0.2,1.3,0.4,1.8,0.7l-1,1.9c-0.9-0.5-1.9-0.8-3.1-0.8
			c-0.7,0-1.3,0.1-1.7,0.3s-0.6,0.5-0.6,0.9c0,0.4,0.2,0.7,0.6,0.8c0.4,0.2,1,0.3,1.9,0.5c0.9,0.1,1.6,0.3,2.1,0.5s1,0.5,1.4,0.9
			c0.4,0.4,0.6,1,0.6,1.8c0,1-0.4,1.8-1.3,2.4c-0.9,0.6-2,0.9-3.5,0.9C68.2,391.3,67.3,391.2,66.5,390.9z"/>
		<path d="M82.5,390.5c-0.3,0.2-0.6,0.4-1.1,0.5c-0.4,0.1-0.9,0.2-1.3,0.2c-1.2,0-2.1-0.3-2.7-0.9s-1-1.5-1-2.7v-5.1h-1.8v-2h1.8
			v-2.4h2.5v2.4h2.9v2h-2.9v5.1c0,0.5,0.1,0.9,0.4,1.2s0.6,0.4,1.1,0.4c0.6,0,1-0.1,1.4-0.4L82.5,390.5z"/>
		<path d="M84.6,378.3c-0.3-0.3-0.5-0.6-0.5-1.1c0-0.4,0.2-0.8,0.5-1.1s0.7-0.4,1.1-0.4s0.8,0.1,1.1,0.4c0.3,0.3,0.5,0.6,0.5,1
			c0,0.4-0.1,0.8-0.5,1.1c-0.3,0.3-0.7,0.4-1.1,0.4C85.3,378.7,84.9,378.5,84.6,378.3z M84.5,380.4H87v10.7h-2.5V380.4z"/>
		<path d="M96.7,390.5c-0.3,0.2-0.6,0.4-1.1,0.5c-0.4,0.1-0.9,0.2-1.3,0.2c-1.2,0-2.1-0.3-2.7-0.9s-1-1.5-1-2.7v-5.1h-1.8v-2h1.8
			v-2.4h2.5v2.4H96v2h-2.9v5.1c0,0.5,0.1,0.9,0.4,1.2s0.6,0.4,1.1,0.4c0.6,0,1-0.1,1.4-0.4L96.7,390.5z"/>
		<path d="M109.1,380.4v10.7h-2.4v-1.4c-0.4,0.5-0.9,0.9-1.5,1.1s-1.2,0.4-1.9,0.4c-1.4,0-2.6-0.4-3.4-1.2s-1.2-2-1.2-3.5v-6.1h2.5
			v5.8c0,1,0.2,1.7,0.6,2.2c0.4,0.5,1,0.7,1.9,0.7c0.9,0,1.6-0.3,2.1-0.8c0.5-0.6,0.8-1.4,0.8-2.4v-5.4H109.1z"/>
		<path d="M118.8,390.5c-0.3,0.2-0.6,0.4-1.1,0.5c-0.4,0.1-0.9,0.2-1.3,0.2c-1.2,0-2.1-0.3-2.7-0.9s-1-1.5-1-2.7v-5.1H111v-2h1.8
			v-2.4h2.5v2.4h2.9v2h-2.9v5.1c0,0.5,0.1,0.9,0.4,1.2s0.6,0.4,1.1,0.4c0.6,0,1-0.1,1.4-0.4L118.8,390.5z"/>
		<path d="M121,378.3c-0.3-0.3-0.5-0.6-0.5-1.1c0-0.4,0.2-0.8,0.5-1.1s0.7-0.4,1.1-0.4s0.8,0.1,1.1,0.4c0.3,0.3,0.5,0.6,0.5,1
			c0,0.4-0.1,0.8-0.5,1.1c-0.3,0.3-0.7,0.4-1.1,0.4C121.7,378.7,121.3,378.5,121,378.3z M120.9,380.4h2.5v10.7h-2.5V380.4z"/>
		<path d="M128.5,390.6c-0.9-0.5-1.5-1.1-2-2c-0.5-0.8-0.7-1.8-0.7-2.8s0.2-2,0.7-2.8c0.5-0.8,1.2-1.5,2-1.9s1.8-0.7,2.9-0.7
			c1.1,0,2.1,0.2,2.9,0.7s1.5,1.1,2,1.9c0.5,0.8,0.7,1.8,0.7,2.8s-0.2,2-0.7,2.8c-0.5,0.8-1.2,1.5-2,2s-1.8,0.7-2.9,0.7
			C130.4,391.3,129.4,391,128.5,390.6z M133.7,388.2c0.6-0.6,0.9-1.4,0.9-2.4s-0.3-1.8-0.9-2.4c-0.6-0.6-1.4-0.9-2.3-0.9
			s-1.7,0.3-2.3,0.9s-0.9,1.4-0.9,2.4s0.3,1.8,0.9,2.4s1.4,0.9,2.3,0.9S133.1,388.8,133.7,388.2z"/>
		<path d="M148.9,381.5c0.8,0.8,1.2,2,1.2,3.5v6.1h-2.5v-5.8c0-0.9-0.2-1.6-0.7-2.1c-0.4-0.5-1.1-0.7-1.9-0.7
			c-0.9,0-1.6,0.3-2.2,0.8c-0.5,0.6-0.8,1.3-0.8,2.4v5.4h-2.5v-10.7h2.4v1.4c0.4-0.5,0.9-0.9,1.6-1.1c0.6-0.3,1.3-0.4,2.1-0.4
			C147,380.3,148,380.7,148.9,381.5z"/>
		<path d="M160.9,381.5c0.8,0.8,1.2,1.9,1.2,3.4v6.3h-2.4v-1.3c-0.3,0.5-0.7,0.8-1.3,1.1c-0.6,0.2-1.2,0.4-2.1,0.4
			c-0.8,0-1.5-0.1-2.1-0.4c-0.6-0.3-1.1-0.7-1.4-1.1c-0.3-0.5-0.5-1-0.5-1.6c0-1,0.4-1.7,1.1-2.3c0.7-0.6,1.8-0.9,3.4-0.9h2.8v-0.2
			c0-0.7-0.2-1.3-0.7-1.7c-0.4-0.4-1.1-0.6-2-0.6c-0.6,0-1.2,0.1-1.8,0.3c-0.6,0.2-1.1,0.4-1.5,0.8l-1-1.8c0.6-0.4,1.2-0.8,2-1
			c0.8-0.2,1.6-0.3,2.5-0.3C158.9,380.3,160.1,380.7,160.9,381.5z M158.7,389c0.5-0.3,0.8-0.7,1-1.2v-1.2h-2.6
			c-1.4,0-2.2,0.5-2.2,1.4c0,0.5,0.2,0.8,0.5,1.1c0.4,0.3,0.9,0.4,1.5,0.4C157.6,389.4,158.2,389.3,158.7,389z"/>
		<path d="M165.4,376.3h2.5v14.8h-2.5V376.3z"/>
		<path d="M197.4,377.1l-4.6,14H190l-3.5-10.4l-3.5,10.4h-2.8l-4.6-14h2.7l3.5,10.6l3.6-10.6h2.4l3.5,10.7l3.6-10.7H197.4z"/>
		<path d="M208.5,386.6h-8.4c0.1,0.8,0.5,1.4,1.2,1.9c0.6,0.5,1.4,0.7,2.3,0.7c1.2,0,2.1-0.4,2.9-1.2l1.3,1.5
			c-0.5,0.6-1.1,1-1.8,1.3c-0.7,0.3-1.6,0.4-2.5,0.4c-1.2,0-2.2-0.2-3.1-0.7c-0.9-0.5-1.6-1.1-2.1-2c-0.5-0.8-0.7-1.8-0.7-2.8
			c0-1,0.2-2,0.7-2.8c0.5-0.8,1.1-1.5,2-1.9s1.8-0.7,2.8-0.7c1,0,2,0.2,2.8,0.7c0.8,0.5,1.5,1.1,1.9,1.9c0.5,0.8,0.7,1.8,0.7,2.9
			C208.5,386,208.5,386.3,208.5,386.6z M201.1,383c-0.6,0.5-0.9,1.1-1,1.9h6.1c-0.1-0.8-0.4-1.4-1-1.9c-0.5-0.5-1.2-0.7-2-0.7
			C202.3,382.3,201.6,382.6,201.1,383z"/>
		<path d="M219.6,381c0.8,0.5,1.5,1.1,1.9,1.9c0.5,0.8,0.7,1.8,0.7,2.9s-0.2,2-0.7,2.9s-1.1,1.5-1.9,1.9c-0.8,0.5-1.8,0.7-2.8,0.7
			c-0.7,0-1.4-0.1-2-0.4c-0.6-0.3-1.1-0.6-1.5-1.1v1.4h-2.4v-14.8h2.5v5.5c0.4-0.5,0.9-0.8,1.5-1.1c0.6-0.2,1.2-0.4,1.9-0.4
			C217.9,380.3,218.8,380.6,219.6,381z M218.8,388.2c0.6-0.6,0.9-1.4,0.9-2.4s-0.3-1.8-0.9-2.4s-1.3-0.9-2.3-0.9
			c-0.6,0-1.1,0.1-1.6,0.4s-0.9,0.7-1.1,1.2s-0.4,1.1-0.4,1.8s0.1,1.3,0.4,1.8s0.7,0.9,1.1,1.2s1,0.4,1.6,0.4
			C217.5,389.1,218.2,388.8,218.8,388.2z"/>
		<path d="M225.4,390.9c-0.8-0.2-1.5-0.5-2-0.9l1-1.9c0.5,0.3,1.1,0.6,1.7,0.8c0.7,0.2,1.3,0.3,2,0.3c1.5,0,2.2-0.4,2.2-1.2
			c0-0.4-0.2-0.6-0.6-0.8c-0.4-0.1-1-0.3-1.8-0.4c-0.9-0.1-1.6-0.3-2.1-0.5c-0.6-0.2-1-0.5-1.4-0.9c-0.4-0.4-0.6-1-0.6-1.8
			c0-1,0.4-1.8,1.3-2.4s2-0.9,3.4-0.9c0.7,0,1.5,0.1,2.2,0.2c0.7,0.2,1.3,0.4,1.8,0.7l-1,1.9c-0.9-0.5-1.9-0.8-3.1-0.8
			c-0.7,0-1.3,0.1-1.7,0.3s-0.6,0.5-0.6,0.9c0,0.4,0.2,0.7,0.6,0.8c0.4,0.2,1,0.3,1.9,0.5c0.9,0.1,1.6,0.3,2.1,0.5s1,0.5,1.4,0.9
			c0.4,0.4,0.6,1,0.6,1.8c0,1-0.4,1.8-1.3,2.4c-0.9,0.6-2,0.9-3.5,0.9C227.1,391.3,226.2,391.2,225.4,390.9z"/>
		<path d="M235.1,378.3c-0.3-0.3-0.5-0.6-0.5-1.1c0-0.4,0.2-0.8,0.5-1.1s0.7-0.4,1.1-0.4s0.8,0.1,1.1,0.4c0.3,0.3,0.5,0.6,0.5,1
			c0,0.4-0.1,0.8-0.5,1.1c-0.3,0.3-0.7,0.4-1.1,0.4C235.7,378.7,235.4,378.5,235.1,378.3z M234.9,380.4h2.5v10.7h-2.5V380.4z"/>
		<path d="M247.1,390.5c-0.3,0.2-0.6,0.4-1.1,0.5c-0.4,0.1-0.9,0.2-1.3,0.2c-1.2,0-2.1-0.3-2.7-0.9s-1-1.5-1-2.7v-5.1h-1.8v-2h1.8
			v-2.4h2.5v2.4h2.9v2h-2.9v5.1c0,0.5,0.1,0.9,0.4,1.2s0.6,0.4,1.1,0.4c0.6,0,1-0.1,1.4-0.4L247.1,390.5z"/>
		<path d="M258.8,386.6h-8.4c0.1,0.8,0.5,1.4,1.2,1.9c0.6,0.5,1.4,0.7,2.3,0.7c1.2,0,2.1-0.4,2.9-1.2l1.3,1.5
			c-0.5,0.6-1.1,1-1.8,1.3c-0.7,0.3-1.6,0.4-2.5,0.4c-1.2,0-2.2-0.2-3.1-0.7c-0.9-0.5-1.6-1.1-2.1-2c-0.5-0.8-0.7-1.8-0.7-2.8
			c0-1,0.2-2,0.7-2.8c0.5-0.8,1.1-1.5,2-1.9s1.8-0.7,2.8-0.7c1,0,2,0.2,2.8,0.7c0.8,0.5,1.5,1.1,1.9,1.9c0.5,0.8,0.7,1.8,0.7,2.9
			C258.9,386,258.9,386.3,258.8,386.6z M251.4,383c-0.6,0.5-0.9,1.1-1,1.9h6.1c-0.1-0.8-0.4-1.4-1-1.9c-0.5-0.5-1.2-0.7-2-0.7
			C252.7,382.3,252,382.6,251.4,383z"/>
		<path d="M262,390.9c-0.8-0.2-1.5-0.5-2-0.9l1-1.9c0.5,0.3,1.1,0.6,1.7,0.8c0.7,0.2,1.3,0.3,2,0.3c1.5,0,2.2-0.4,2.2-1.2
			c0-0.4-0.2-0.6-0.6-0.8c-0.4-0.1-1-0.3-1.8-0.4c-0.9-0.1-1.6-0.3-2.1-0.5c-0.6-0.2-1-0.5-1.4-0.9c-0.4-0.4-0.6-1-0.6-1.8
			c0-1,0.4-1.8,1.3-2.4s2-0.9,3.4-0.9c0.7,0,1.5,0.1,2.2,0.2c0.7,0.2,1.3,0.4,1.8,0.7l-1,1.9c-0.9-0.5-1.9-0.8-3.1-0.8
			c-0.7,0-1.3,0.1-1.7,0.3s-0.6,0.5-0.6,0.9c0,0.4,0.2,0.7,0.6,0.8c0.4,0.2,1,0.3,1.9,0.5c0.9,0.1,1.6,0.3,2.1,0.5s1,0.5,1.4,0.9
			c0.4,0.4,0.6,1,0.6,1.8c0,1-0.4,1.8-1.3,2.4c-0.9,0.6-2,0.9-3.5,0.9C263.7,391.3,262.9,391.2,262,390.9z"/>
		<path d="M34.9,424.8c-0.3-0.3-0.5-0.7-0.5-1.2c0-0.5,0.2-0.9,0.5-1.2c0.3-0.3,0.7-0.5,1.2-0.5s0.9,0.2,1.2,0.5s0.5,0.7,0.5,1.2
			c0,0.5-0.2,0.9-0.5,1.2c-0.3,0.3-0.7,0.5-1.2,0.5C35.6,425.3,35.2,425.1,34.9,424.8z"/>
		<path d="M55.7,420.6h-8.4c0.1,0.8,0.5,1.4,1.2,1.9c0.6,0.5,1.4,0.7,2.3,0.7c1.2,0,2.1-0.4,2.9-1.2l1.3,1.5c-0.5,0.6-1.1,1-1.8,1.3
			c-0.7,0.3-1.6,0.4-2.5,0.4c-1.2,0-2.2-0.2-3.1-0.7c-0.9-0.5-1.6-1.1-2.1-2c-0.5-0.8-0.7-1.8-0.7-2.8c0-1,0.2-2,0.7-2.8
			c0.5-0.8,1.1-1.5,2-1.9s1.8-0.7,2.8-0.7c1,0,2,0.2,2.8,0.7c0.8,0.5,1.5,1.1,1.9,1.9c0.5,0.8,0.7,1.8,0.7,2.9
			C55.7,420,55.7,420.3,55.7,420.6z M48.3,417c-0.6,0.5-0.9,1.1-1,1.9h6.1c-0.1-0.8-0.4-1.4-1-1.9c-0.5-0.5-1.2-0.7-2-0.7
			C49.5,416.3,48.8,416.6,48.3,417z"/>
		<path d="M58.3,411.1h2.6v11.8h7.3v2.2h-9.9V411.1z"/>
		<path d="M80,420.6h-8.4c0.1,0.8,0.5,1.4,1.2,1.9c0.6,0.5,1.4,0.7,2.3,0.7c1.2,0,2.1-0.4,2.9-1.2l1.3,1.5c-0.5,0.6-1.1,1-1.8,1.3
			c-0.7,0.3-1.6,0.4-2.5,0.4c-1.2,0-2.2-0.2-3.1-0.7c-0.9-0.5-1.6-1.1-2.1-2c-0.5-0.8-0.7-1.8-0.7-2.8c0-1,0.2-2,0.7-2.8
			c0.5-0.8,1.1-1.5,2-1.9s1.8-0.7,2.8-0.7c1,0,2,0.2,2.8,0.7c0.8,0.5,1.5,1.1,1.9,1.9c0.5,0.8,0.7,1.8,0.7,2.9
			C80,420,80,420.3,80,420.6z M72.6,417c-0.6,0.5-0.9,1.1-1,1.9h6.1c-0.1-0.8-0.4-1.4-1-1.9c-0.5-0.5-1.2-0.7-2-0.7
			C73.8,416.3,73.1,416.6,72.6,417z"/>
		<path d="M89.8,415.5c0.8,0.8,1.2,1.9,1.2,3.4v6.3h-2.4v-1.3c-0.3,0.5-0.7,0.8-1.3,1.1c-0.6,0.2-1.2,0.4-2.1,0.4
			c-0.8,0-1.5-0.1-2.1-0.4c-0.6-0.3-1.1-0.7-1.4-1.1c-0.3-0.5-0.5-1-0.5-1.6c0-1,0.4-1.7,1.1-2.3c0.7-0.6,1.8-0.9,3.4-0.9h2.8v-0.2
			c0-0.7-0.2-1.3-0.7-1.7c-0.4-0.4-1.1-0.6-2-0.6c-0.6,0-1.2,0.1-1.8,0.3c-0.6,0.2-1.1,0.4-1.5,0.8l-1-1.8c0.6-0.4,1.2-0.8,2-1
			c0.8-0.2,1.6-0.3,2.5-0.3C87.8,414.3,89,414.7,89.8,415.5z M87.5,423c0.5-0.3,0.8-0.7,1-1.2v-1.2H86c-1.4,0-2.2,0.5-2.2,1.4
			c0,0.5,0.2,0.8,0.5,1.1c0.4,0.3,0.9,0.4,1.5,0.4C86.5,423.4,87,423.3,87.5,423z"/>
		<path d="M100.4,414.3v2.4c-0.2,0-0.4-0.1-0.6-0.1c-1,0-1.7,0.3-2.3,0.9c-0.5,0.6-0.8,1.4-0.8,2.5v5.2h-2.5v-10.7h2.4v1.6
			C97.4,414.9,98.6,414.3,100.4,414.3z"/>
		<path d="M111.9,415.5c0.8,0.8,1.2,2,1.2,3.5v6.1h-2.5v-5.8c0-0.9-0.2-1.6-0.7-2.1c-0.4-0.5-1.1-0.7-1.9-0.7
			c-0.9,0-1.6,0.3-2.2,0.8c-0.5,0.6-0.8,1.3-0.8,2.4v5.4h-2.5v-10.7h2.4v1.4c0.4-0.5,0.9-0.9,1.6-1.1c0.6-0.3,1.3-0.4,2.1-0.4
			C110,414.3,111,414.7,111.9,415.5z"/>
		<path d="M116.4,412.3c-0.3-0.3-0.5-0.6-0.5-1.1c0-0.4,0.2-0.8,0.5-1.1s0.7-0.4,1.1-0.4s0.8,0.1,1.1,0.4c0.3,0.3,0.5,0.6,0.5,1
			c0,0.4-0.1,0.8-0.5,1.1c-0.3,0.3-0.7,0.4-1.1,0.4C117.1,412.7,116.7,412.5,116.4,412.3z M116.3,414.4h2.5v10.7h-2.5V414.4z"/>
		<path d="M131.3,415.5c0.8,0.8,1.2,2,1.2,3.5v6.1h-2.5v-5.8c0-0.9-0.2-1.6-0.7-2.1c-0.4-0.5-1.1-0.7-1.9-0.7
			c-0.9,0-1.6,0.3-2.2,0.8c-0.5,0.6-0.8,1.3-0.8,2.4v5.4H122v-10.7h2.4v1.4c0.4-0.5,0.9-0.9,1.6-1.1c0.6-0.3,1.3-0.4,2.1-0.4
			C129.4,414.3,130.5,414.7,131.3,415.5z"/>
		<path d="M146.4,414.4v9.1c0,3.8-1.9,5.6-5.8,5.6c-1,0-2-0.1-2.9-0.4s-1.7-0.6-2.3-1.1l1.1-1.9c0.5,0.4,1.1,0.7,1.8,0.9
			s1.4,0.4,2.2,0.4c1.2,0,2-0.3,2.6-0.8s0.8-1.3,0.8-2.4v-0.6c-0.4,0.5-0.9,0.8-1.6,1.1c-0.6,0.2-1.3,0.4-2,0.4
			c-1,0-1.9-0.2-2.8-0.6c-0.8-0.4-1.5-1-1.9-1.8c-0.5-0.8-0.7-1.7-0.7-2.7c0-1,0.2-1.9,0.7-2.7c0.5-0.8,1.1-1.4,1.9-1.8
			c0.8-0.4,1.7-0.6,2.8-0.6c0.8,0,1.5,0.1,2.1,0.4s1.2,0.6,1.6,1.2v-1.4H146.4z M143.1,421.7c0.6-0.6,0.9-1.3,0.9-2.2
			c0-0.9-0.3-1.6-0.9-2.2c-0.6-0.6-1.4-0.8-2.3-0.8c-1,0-1.7,0.3-2.4,0.8c-0.6,0.6-0.9,1.3-0.9,2.2c0,0.9,0.3,1.6,0.9,2.2
			c0.6,0.6,1.4,0.9,2.4,0.9C141.7,422.5,142.5,422.2,143.1,421.7z"/>
		<path d="M164.4,411.7c0.9,0.4,1.6,1,2.1,1.7c0.5,0.7,0.7,1.6,0.7,2.7c0,1-0.2,1.9-0.7,2.6c-0.5,0.8-1.2,1.3-2.1,1.7
			c-0.9,0.4-2,0.6-3.2,0.6h-3.2v4h-2.6v-14h5.8C162.4,411.1,163.5,411.3,164.4,411.7z M163.7,418.2c0.6-0.5,0.9-1.2,0.9-2.1
			c0-0.9-0.3-1.6-0.9-2.1c-0.6-0.5-1.4-0.7-2.6-0.7h-3v5.6h3C162.2,418.9,163.1,418.6,163.7,418.2z"/>
		<path d="M169.8,410.3h2.5v14.8h-2.5V410.3z"/>
		<path d="M183.2,415.5c0.8,0.8,1.2,1.9,1.2,3.4v6.3h-2.4v-1.3c-0.3,0.5-0.7,0.8-1.3,1.1c-0.6,0.2-1.2,0.4-2.1,0.4
			c-0.8,0-1.5-0.1-2.1-0.4c-0.6-0.3-1.1-0.7-1.4-1.1c-0.3-0.5-0.5-1-0.5-1.6c0-1,0.4-1.7,1.1-2.3c0.7-0.6,1.8-0.9,3.4-0.9h2.8v-0.2
			c0-0.7-0.2-1.3-0.7-1.7c-0.4-0.4-1.1-0.6-2-0.6c-0.6,0-1.2,0.1-1.8,0.3c-0.6,0.2-1.1,0.4-1.5,0.8l-1-1.8c0.6-0.4,1.2-0.8,2-1
			c0.8-0.2,1.6-0.3,2.5-0.3C181.2,414.3,182.4,414.7,183.2,415.5z M180.9,423c0.5-0.3,0.8-0.7,1-1.2v-1.2h-2.6
			c-1.4,0-2.2,0.5-2.2,1.4c0,0.5,0.2,0.8,0.5,1.1c0.4,0.3,0.9,0.4,1.5,0.4C179.9,423.4,180.5,423.3,180.9,423z"/>
		<path d="M194.1,424.5c-0.3,0.2-0.6,0.4-1.1,0.5c-0.4,0.1-0.9,0.2-1.3,0.2c-1.2,0-2.1-0.3-2.7-0.9s-1-1.5-1-2.7v-5.1h-1.8v-2h1.8
			v-2.4h2.5v2.4h2.9v2h-2.9v5.1c0,0.5,0.1,0.9,0.4,1.2s0.6,0.4,1.1,0.4c0.6,0,1-0.1,1.4-0.4L194.1,424.5z"/>
		<path d="M198.9,413.9v0.6h2.9v2H199v8.6h-2.5v-8.6h-1.8v-2h1.8v-0.7c0-1.1,0.3-2,1-2.7c0.7-0.7,1.6-1,2.8-1c1,0,1.7,0.2,2.3,0.6
			l-0.7,1.9c-0.4-0.3-0.9-0.4-1.4-0.4C199.4,412.2,198.9,412.7,198.9,413.9z"/>
		<path d="M205.3,424.6c-0.9-0.5-1.5-1.1-2-2c-0.5-0.8-0.7-1.8-0.7-2.8s0.2-2,0.7-2.8c0.5-0.8,1.2-1.5,2-1.9s1.8-0.7,2.9-0.7
			c1.1,0,2.1,0.2,2.9,0.7s1.5,1.1,2,1.9c0.5,0.8,0.7,1.8,0.7,2.8s-0.2,2-0.7,2.8c-0.5,0.8-1.2,1.5-2,2s-1.8,0.7-2.9,0.7
			C207.1,425.3,206.1,425,205.3,424.6z M210.5,422.2c0.6-0.6,0.9-1.4,0.9-2.4s-0.3-1.8-0.9-2.4c-0.6-0.6-1.4-0.9-2.3-0.9
			s-1.7,0.3-2.3,0.9s-0.9,1.4-0.9,2.4s0.3,1.8,0.9,2.4s1.4,0.9,2.3,0.9S209.9,422.8,210.5,422.2z"/>
		<path d="M222.5,414.3v2.4c-0.2,0-0.4-0.1-0.6-0.1c-1,0-1.7,0.3-2.3,0.9c-0.5,0.6-0.8,1.4-0.8,2.5v5.2h-2.5v-10.7h2.4v1.6
			C219.4,414.9,220.6,414.3,222.5,414.3z"/>
		<path d="M241.3,415.5c0.8,0.8,1.2,2,1.2,3.5v6.1h-2.5v-5.8c0-0.9-0.2-1.6-0.6-2.1c-0.4-0.5-1-0.7-1.8-0.7c-0.8,0-1.5,0.3-2,0.8
			c-0.5,0.6-0.8,1.3-0.8,2.4v5.4h-2.5v-5.8c0-0.9-0.2-1.6-0.6-2.1c-0.4-0.5-1-0.7-1.8-0.7c-0.9,0-1.5,0.3-2,0.8s-0.8,1.3-0.8,2.4
			v5.4h-2.5v-10.7h2.4v1.4c0.4-0.5,0.9-0.8,1.5-1.1s1.3-0.4,2-0.4c0.8,0,1.5,0.1,2.1,0.5c0.6,0.3,1.1,0.7,1.5,1.3
			c0.4-0.6,1-1,1.7-1.3s1.5-0.5,2.3-0.5C239.4,414.3,240.5,414.7,241.3,415.5z"/>
		<path d="M246.4,424.9c-0.8-0.2-1.5-0.5-2-0.9l1-1.9c0.5,0.3,1.1,0.6,1.7,0.8c0.7,0.2,1.3,0.3,2,0.3c1.5,0,2.2-0.4,2.2-1.2
			c0-0.4-0.2-0.6-0.6-0.8c-0.4-0.1-1-0.3-1.8-0.4c-0.9-0.1-1.6-0.3-2.1-0.5c-0.6-0.2-1-0.5-1.4-0.9c-0.4-0.4-0.6-1-0.6-1.8
			c0-1,0.4-1.8,1.3-2.4s2-0.9,3.4-0.9c0.7,0,1.5,0.1,2.2,0.2c0.7,0.2,1.3,0.4,1.8,0.7l-1,1.9c-0.9-0.5-1.9-0.8-3.1-0.8
			c-0.7,0-1.3,0.1-1.7,0.3s-0.6,0.5-0.6,0.9c0,0.4,0.2,0.7,0.6,0.8c0.4,0.2,1,0.3,1.9,0.5c0.9,0.1,1.6,0.3,2.1,0.5s1,0.5,1.4,0.9
			c0.4,0.4,0.6,1,0.6,1.8c0,1-0.4,1.8-1.3,2.4c-0.9,0.6-2,0.9-3.5,0.9C248.1,425.3,247.2,425.2,246.4,424.9z"/>
		<path d="M34.9,458.8c-0.3-0.3-0.5-0.7-0.5-1.2c0-0.5,0.2-0.9,0.5-1.2c0.3-0.3,0.7-0.5,1.2-0.5s0.9,0.2,1.2,0.5s0.5,0.7,0.5,1.2
			c0,0.5-0.2,0.9-0.5,1.2c-0.3,0.3-0.7,0.5-1.2,0.5C35.6,459.3,35.2,459.1,34.9,458.8z"/>
		<path d="M66.4,445.1l-4.6,14H59l-3.5-10.4L52,459.1h-2.8l-4.6-14h2.7l3.5,10.6l3.6-10.6h2.4l3.5,10.7l3.6-10.7H66.4z"/>
		<path d="M77.4,454.6h-8.4c0.1,0.8,0.5,1.4,1.2,1.9c0.6,0.5,1.4,0.7,2.3,0.7c1.2,0,2.1-0.4,2.9-1.2l1.3,1.5c-0.5,0.6-1.1,1-1.8,1.3
			c-0.7,0.3-1.6,0.4-2.5,0.4c-1.2,0-2.2-0.2-3.1-0.7c-0.9-0.5-1.6-1.1-2.1-2c-0.5-0.8-0.7-1.8-0.7-2.8c0-1,0.2-2,0.7-2.8
			c0.5-0.8,1.1-1.5,2-1.9s1.8-0.7,2.8-0.7c1,0,2,0.2,2.8,0.7c0.8,0.5,1.5,1.1,1.9,1.9c0.5,0.8,0.7,1.8,0.7,2.9
			C77.5,454,77.5,454.3,77.4,454.6z M70,451c-0.6,0.5-0.9,1.1-1,1.9h6.1c-0.1-0.8-0.4-1.4-1-1.9c-0.5-0.5-1.2-0.7-2-0.7
			C71.3,450.3,70.6,450.6,70,451z"/>
		<path d="M88.6,449c0.8,0.5,1.5,1.1,1.9,1.9c0.5,0.8,0.7,1.8,0.7,2.9s-0.2,2-0.7,2.9s-1.1,1.5-1.9,1.9c-0.8,0.5-1.8,0.7-2.8,0.7
			c-0.7,0-1.4-0.1-2-0.4c-0.6-0.3-1.1-0.6-1.5-1.1v1.4h-2.4v-14.8h2.5v5.5c0.4-0.5,0.9-0.8,1.5-1.1c0.6-0.2,1.2-0.4,1.9-0.4
			C86.8,448.3,87.8,448.6,88.6,449z M87.8,456.2c0.6-0.6,0.9-1.4,0.9-2.4s-0.3-1.8-0.9-2.4s-1.3-0.9-2.3-0.9c-0.6,0-1.1,0.1-1.6,0.4
			s-0.9,0.7-1.1,1.2s-0.4,1.1-0.4,1.8s0.1,1.3,0.4,1.8s0.7,0.9,1.1,1.2s1,0.4,1.6,0.4C86.4,457.1,87.2,456.8,87.8,456.2z"/>
		<path d="M93.7,446.3c-0.3-0.3-0.5-0.6-0.5-1.1c0-0.4,0.2-0.8,0.5-1.1s0.7-0.4,1.1-0.4s0.8,0.1,1.1,0.4c0.3,0.3,0.5,0.6,0.5,1
			c0,0.4-0.1,0.8-0.5,1.1c-0.3,0.3-0.7,0.4-1.1,0.4C94.4,446.7,94,446.5,93.7,446.3z M93.6,448.4h2.5v10.7h-2.5V448.4z"/>
		<path d="M108.7,449.5c0.8,0.8,1.2,2,1.2,3.5v6.1h-2.5v-5.8c0-0.9-0.2-1.6-0.7-2.1c-0.4-0.5-1.1-0.7-1.9-0.7
			c-0.9,0-1.6,0.3-2.2,0.8c-0.5,0.6-0.8,1.3-0.8,2.4v5.4h-2.5v-10.7h2.4v1.4c0.4-0.5,0.9-0.9,1.6-1.1c0.6-0.3,1.3-0.4,2.1-0.4
			C106.8,448.3,107.9,448.7,108.7,449.5z"/>
		<path d="M120.8,449.5c0.8,0.8,1.2,1.9,1.2,3.4v6.3h-2.4v-1.3c-0.3,0.5-0.7,0.8-1.3,1.1c-0.6,0.2-1.2,0.4-2.1,0.4
			c-0.8,0-1.5-0.1-2.1-0.4c-0.6-0.3-1.1-0.7-1.4-1.1c-0.3-0.5-0.5-1-0.5-1.6c0-1,0.4-1.7,1.1-2.3c0.7-0.6,1.8-0.9,3.4-0.9h2.8v-0.2
			c0-0.7-0.2-1.3-0.7-1.7c-0.4-0.4-1.1-0.6-2-0.6c-0.6,0-1.2,0.1-1.8,0.3c-0.6,0.2-1.1,0.4-1.5,0.8l-1-1.8c0.6-0.4,1.2-0.8,2-1
			c0.8-0.2,1.6-0.3,2.5-0.3C118.7,448.3,119.9,448.7,120.8,449.5z M118.5,457c0.5-0.3,0.8-0.7,1-1.2v-1.2h-2.6
			c-1.4,0-2.2,0.5-2.2,1.4c0,0.5,0.2,0.8,0.5,1.1c0.4,0.3,0.9,0.4,1.5,0.4C117.4,457.4,118,457.3,118.5,457z"/>
		<path d="M131.4,448.3v2.4c-0.2,0-0.4-0.1-0.6-0.1c-1,0-1.7,0.3-2.3,0.9c-0.5,0.6-0.8,1.4-0.8,2.5v5.2h-2.5v-10.7h2.4v1.6
			C128.3,448.9,129.6,448.3,131.4,448.3z"/>
		<path d="M134.3,458.9c-0.8-0.2-1.5-0.5-2-0.9l1-1.9c0.5,0.3,1.1,0.6,1.7,0.8c0.7,0.2,1.3,0.3,2,0.3c1.5,0,2.2-0.4,2.2-1.2
			c0-0.4-0.2-0.6-0.6-0.8c-0.4-0.1-1-0.3-1.8-0.4c-0.9-0.1-1.6-0.3-2.1-0.5c-0.6-0.2-1-0.5-1.4-0.9c-0.4-0.4-0.6-1-0.6-1.8
			c0-1,0.4-1.8,1.3-2.4s2-0.9,3.4-0.9c0.7,0,1.5,0.1,2.2,0.2c0.7,0.2,1.3,0.4,1.8,0.7l-1,1.9c-0.9-0.5-1.9-0.8-3.1-0.8
			c-0.7,0-1.3,0.1-1.7,0.3s-0.6,0.5-0.6,0.9c0,0.4,0.2,0.7,0.6,0.8c0.4,0.2,1,0.3,1.9,0.5c0.9,0.1,1.6,0.3,2.1,0.5s1,0.5,1.4,0.9
			c0.4,0.4,0.6,1,0.6,1.8c0,1-0.4,1.8-1.3,2.4c-0.9,0.6-2,0.9-3.5,0.9C136,459.3,135.1,459.2,134.3,458.9z"/>
		<path d="M34.9,492.8c-0.3-0.3-0.5-0.7-0.5-1.2c0-0.5,0.2-0.9,0.5-1.2c0.3-0.3,0.7-0.5,1.2-0.5s0.9,0.2,1.2,0.5s0.5,0.7,0.5,1.2
			c0,0.5-0.2,0.9-0.5,1.2c-0.3,0.3-0.7,0.5-1.2,0.5C35.6,493.3,35.2,493.1,34.9,492.8z"/>
		<path d="M45.9,479.1h2.6v11.8h7.3v2.2h-9.9V479.1z"/>
		<path d="M65.4,483.5c0.8,0.8,1.2,1.9,1.2,3.4v6.3h-2.4v-1.3c-0.3,0.5-0.7,0.8-1.3,1.1c-0.6,0.2-1.2,0.4-2.1,0.4
			c-0.8,0-1.5-0.1-2.1-0.4c-0.6-0.3-1.1-0.7-1.4-1.1c-0.3-0.5-0.5-1-0.5-1.6c0-1,0.4-1.7,1.1-2.3c0.7-0.6,1.8-0.9,3.4-0.9h2.8v-0.2
			c0-0.7-0.2-1.3-0.7-1.7c-0.4-0.4-1.1-0.6-2-0.6c-0.6,0-1.2,0.1-1.8,0.3c-0.6,0.2-1.1,0.4-1.5,0.8l-1-1.8c0.6-0.4,1.2-0.8,2-1
			c0.8-0.2,1.6-0.3,2.5-0.3C63.4,482.3,64.6,482.7,65.4,483.5z M63.1,491c0.5-0.3,0.8-0.7,1-1.2v-1.2h-2.6c-1.4,0-2.2,0.5-2.2,1.4
			c0,0.5,0.2,0.8,0.5,1.1c0.4,0.3,0.9,0.4,1.5,0.4C62.1,491.4,62.7,491.3,63.1,491z"/>
		<path d="M79.2,483.5c0.8,0.8,1.2,2,1.2,3.5v6.1h-2.5v-5.8c0-0.9-0.2-1.6-0.7-2.1c-0.4-0.5-1.1-0.7-1.9-0.7c-0.9,0-1.6,0.3-2.2,0.8
			c-0.5,0.6-0.8,1.3-0.8,2.4v5.4h-2.5v-10.7h2.4v1.4c0.4-0.5,0.9-0.9,1.6-1.1c0.6-0.3,1.3-0.4,2.1-0.4
			C77.3,482.3,78.4,482.7,79.2,483.5z"/>
		<path d="M94.1,478.3v14.8h-2.4v-1.4c-0.4,0.5-0.9,0.9-1.5,1.1c-0.6,0.3-1.3,0.4-2,0.4c-1,0-2-0.2-2.8-0.7
			c-0.8-0.5-1.5-1.1-1.9-1.9s-0.7-1.8-0.7-2.9s0.2-2,0.7-2.9c0.5-0.8,1.1-1.5,1.9-1.9c0.8-0.5,1.7-0.7,2.8-0.7
			c0.7,0,1.4,0.1,1.9,0.4c0.6,0.2,1.1,0.6,1.5,1.1v-5.5H94.1z M90.1,490.7c0.5-0.3,0.9-0.7,1.1-1.2c0.3-0.5,0.4-1.1,0.4-1.8
			s-0.1-1.3-0.4-1.8c-0.3-0.5-0.7-0.9-1.1-1.2s-1-0.4-1.6-0.4s-1.1,0.1-1.6,0.4s-0.9,0.7-1.1,1.2c-0.3,0.5-0.4,1.1-0.4,1.8
			s0.1,1.3,0.4,1.8c0.3,0.5,0.7,0.9,1.1,1.2s1,0.4,1.6,0.4S89.6,491,90.1,490.7z"/>
		<path d="M97.5,480.3c-0.3-0.3-0.5-0.6-0.5-1.1c0-0.4,0.2-0.8,0.5-1.1s0.7-0.4,1.1-0.4s0.8,0.1,1.1,0.4c0.3,0.3,0.5,0.6,0.5,1
			c0,0.4-0.1,0.8-0.5,1.1c-0.3,0.3-0.7,0.4-1.1,0.4C98.2,480.7,97.8,480.5,97.5,480.3z M97.4,482.4h2.5v10.7h-2.5V482.4z"/>
		<path d="M112.5,483.5c0.8,0.8,1.2,2,1.2,3.5v6.1h-2.5v-5.8c0-0.9-0.2-1.6-0.7-2.1c-0.4-0.5-1.1-0.7-1.9-0.7
			c-0.9,0-1.6,0.3-2.2,0.8c-0.5,0.6-0.8,1.3-0.8,2.4v5.4h-2.5v-10.7h2.4v1.4c0.4-0.5,0.9-0.9,1.6-1.1c0.6-0.3,1.3-0.4,2.1-0.4
			C110.6,482.3,111.7,482.7,112.5,483.5z"/>
		<path d="M127.6,482.4v9.1c0,3.8-1.9,5.6-5.8,5.6c-1,0-2-0.1-2.9-0.4s-1.7-0.6-2.3-1.1l1.1-1.9c0.5,0.4,1.1,0.7,1.8,0.9
			s1.4,0.4,2.2,0.4c1.2,0,2-0.3,2.6-0.8s0.8-1.3,0.8-2.4v-0.6c-0.4,0.5-0.9,0.8-1.6,1.1c-0.6,0.2-1.3,0.4-2,0.4
			c-1,0-1.9-0.2-2.8-0.6c-0.8-0.4-1.5-1-1.9-1.8c-0.5-0.8-0.7-1.7-0.7-2.7c0-1,0.2-1.9,0.7-2.7c0.5-0.8,1.1-1.4,1.9-1.8
			c0.8-0.4,1.7-0.6,2.8-0.6c0.8,0,1.5,0.1,2.1,0.4s1.2,0.6,1.6,1.2v-1.4H127.6z M124.2,489.7c0.6-0.6,0.9-1.3,0.9-2.2
			c0-0.9-0.3-1.6-0.9-2.2c-0.6-0.6-1.4-0.8-2.3-0.8c-1,0-1.7,0.3-2.4,0.8c-0.6,0.6-0.9,1.3-0.9,2.2c0,0.9,0.3,1.6,0.9,2.2
			c0.6,0.6,1.4,0.9,2.4,0.9C122.8,490.5,123.6,490.2,124.2,489.7z"/>
		<path d="M145.6,479.7c0.9,0.4,1.6,1,2.1,1.7c0.5,0.7,0.7,1.6,0.7,2.7c0,1-0.2,1.9-0.7,2.6c-0.5,0.8-1.2,1.3-2.1,1.7
			c-0.9,0.4-2,0.6-3.2,0.6h-3.2v4h-2.6v-14h5.8C143.6,479.1,144.7,479.3,145.6,479.7z M144.9,486.2c0.6-0.5,0.9-1.2,0.9-2.1
			c0-0.9-0.3-1.6-0.9-2.1c-0.6-0.5-1.4-0.7-2.6-0.7h-3v5.6h3C143.4,486.9,144.3,486.6,144.9,486.2z"/>
		<path d="M158.3,483.5c0.8,0.8,1.2,1.9,1.2,3.4v6.3h-2.4v-1.3c-0.3,0.5-0.7,0.8-1.3,1.1c-0.6,0.2-1.2,0.4-2.1,0.4
			c-0.8,0-1.5-0.1-2.1-0.4c-0.6-0.3-1.1-0.7-1.4-1.1c-0.3-0.5-0.5-1-0.5-1.6c0-1,0.4-1.7,1.1-2.3c0.7-0.6,1.8-0.9,3.4-0.9h2.8v-0.2
			c0-0.7-0.2-1.3-0.7-1.7c-0.4-0.4-1.1-0.6-2-0.6c-0.6,0-1.2,0.1-1.8,0.3c-0.6,0.2-1.1,0.4-1.5,0.8l-1-1.8c0.6-0.4,1.2-0.8,2-1
			c0.8-0.2,1.6-0.3,2.5-0.3C156.3,482.3,157.5,482.7,158.3,483.5z M156,491c0.5-0.3,0.8-0.7,1-1.2v-1.2h-2.6c-1.4,0-2.2,0.5-2.2,1.4
			c0,0.5,0.2,0.8,0.5,1.1c0.4,0.3,0.9,0.4,1.5,0.4C155,491.4,155.5,491.3,156,491z"/>
		<path d="M173.5,482.4v9.1c0,3.8-1.9,5.6-5.8,5.6c-1,0-2-0.1-2.9-0.4s-1.7-0.6-2.3-1.1l1.1-1.9c0.5,0.4,1.1,0.7,1.8,0.9
			s1.4,0.4,2.2,0.4c1.2,0,2-0.3,2.6-0.8s0.8-1.3,0.8-2.4v-0.6c-0.4,0.5-0.9,0.8-1.6,1.1c-0.6,0.2-1.3,0.4-2,0.4
			c-1,0-1.9-0.2-2.8-0.6c-0.8-0.4-1.5-1-1.9-1.8c-0.5-0.8-0.7-1.7-0.7-2.7c0-1,0.2-1.9,0.7-2.7c0.5-0.8,1.1-1.4,1.9-1.8
			c0.8-0.4,1.7-0.6,2.8-0.6c0.8,0,1.5,0.1,2.1,0.4s1.2,0.6,1.6,1.2v-1.4H173.5z M170.1,489.7c0.6-0.6,0.9-1.3,0.9-2.2
			c0-0.9-0.3-1.6-0.9-2.2c-0.6-0.6-1.4-0.8-2.3-0.8c-1,0-1.7,0.3-2.4,0.8c-0.6,0.6-0.9,1.3-0.9,2.2c0,0.9,0.3,1.6,0.9,2.2
			c0.6,0.6,1.4,0.9,2.4,0.9C168.7,490.5,169.5,490.2,170.1,489.7z"/>
		<path d="M186.7,488.6h-8.4c0.1,0.8,0.5,1.4,1.2,1.9c0.6,0.5,1.4,0.7,2.3,0.7c1.2,0,2.1-0.4,2.9-1.2l1.3,1.5
			c-0.5,0.6-1.1,1-1.8,1.3c-0.7,0.3-1.6,0.4-2.5,0.4c-1.2,0-2.2-0.2-3.1-0.7c-0.9-0.5-1.6-1.1-2.1-2c-0.5-0.8-0.7-1.8-0.7-2.8
			c0-1,0.2-2,0.7-2.8c0.5-0.8,1.1-1.5,2-1.9s1.8-0.7,2.8-0.7c1,0,2,0.2,2.8,0.7c0.8,0.5,1.5,1.1,1.9,1.9c0.5,0.8,0.7,1.8,0.7,2.9
			C186.8,488,186.8,488.3,186.7,488.6z M179.3,485c-0.6,0.5-0.9,1.1-1,1.9h6.1c-0.1-0.8-0.4-1.4-1-1.9c-0.5-0.5-1.2-0.7-2-0.7
			C180.6,484.3,179.9,484.6,179.3,485z"/>
		<path d="M189.9,492.9c-0.8-0.2-1.5-0.5-2-0.9l1-1.9c0.5,0.3,1.1,0.6,1.7,0.8c0.7,0.2,1.3,0.3,2,0.3c1.5,0,2.2-0.4,2.2-1.2
			c0-0.4-0.2-0.6-0.6-0.8c-0.4-0.1-1-0.3-1.8-0.4c-0.9-0.1-1.6-0.3-2.1-0.5c-0.6-0.2-1-0.5-1.4-0.9c-0.4-0.4-0.6-1-0.6-1.8
			c0-1,0.4-1.8,1.3-2.4s2-0.9,3.4-0.9c0.7,0,1.5,0.1,2.2,0.2c0.7,0.2,1.3,0.4,1.8,0.7l-1,1.9c-0.9-0.5-1.9-0.8-3.1-0.8
			c-0.7,0-1.3,0.1-1.7,0.3s-0.6,0.5-0.6,0.9c0,0.4,0.2,0.7,0.6,0.8c0.4,0.2,1,0.3,1.9,0.5c0.9,0.1,1.6,0.3,2.1,0.5s1,0.5,1.4,0.9
			c0.4,0.4,0.6,1,0.6,1.8c0,1-0.4,1.8-1.3,2.4c-0.9,0.6-2,0.9-3.5,0.9C191.6,493.3,190.8,493.2,189.9,492.9z"/>
		<path d="M34.9,526.8c-0.3-0.3-0.5-0.7-0.5-1.2c0-0.5,0.2-0.9,0.5-1.2c0.3-0.3,0.7-0.5,1.2-0.5s0.9,0.2,1.2,0.5s0.5,0.7,0.5,1.2
			c0,0.5-0.2,0.9-0.5,1.2c-0.3,0.3-0.7,0.5-1.2,0.5C35.6,527.3,35.2,527.1,34.9,526.8z"/>
		<path d="M56.4,524.9v2.2H45.9v-14h10.2v2.2h-7.6v3.6h6.8v2.1h-6.8v3.9H56.4z"/>
		<path d="M58.1,520.5h5.5v2.1h-5.5V520.5z"/>
		<path d="M68.5,526.6c-0.9-0.5-1.6-1.1-2.1-2c-0.5-0.8-0.7-1.8-0.7-2.8s0.2-2,0.7-2.8c0.5-0.8,1.2-1.5,2-1.9c0.9-0.5,1.9-0.7,3-0.7
			c1.1,0,2,0.2,2.8,0.6c0.8,0.4,1.4,1,1.8,1.8l-1.9,1.1c-0.3-0.5-0.7-0.9-1.2-1.1c-0.5-0.2-1-0.4-1.5-0.4c-0.9,0-1.7,0.3-2.3,0.9
			c-0.6,0.6-0.9,1.4-0.9,2.4s0.3,1.8,0.9,2.4c0.6,0.6,1.4,0.9,2.3,0.9c0.5,0,1-0.1,1.5-0.4c0.5-0.2,0.8-0.6,1.2-1.1l1.9,1.1
			c-0.4,0.8-1,1.4-1.8,1.9c-0.8,0.4-1.7,0.6-2.8,0.6C70.3,527.3,69.4,527,68.5,526.6z"/>
		<path d="M79.9,526.6c-0.9-0.5-1.5-1.1-2-2c-0.5-0.8-0.7-1.8-0.7-2.8s0.2-2,0.7-2.8c0.5-0.8,1.2-1.5,2-1.9s1.8-0.7,2.9-0.7
			c1.1,0,2.1,0.2,2.9,0.7s1.5,1.1,2,1.9c0.5,0.8,0.7,1.8,0.7,2.8s-0.2,2-0.7,2.8c-0.5,0.8-1.2,1.5-2,2s-1.8,0.7-2.9,0.7
			C81.7,527.3,80.8,527,79.9,526.6z M85.1,524.2c0.6-0.6,0.9-1.4,0.9-2.4s-0.3-1.8-0.9-2.4c-0.6-0.6-1.4-0.9-2.3-0.9
			s-1.7,0.3-2.3,0.9s-0.9,1.4-0.9,2.4s0.3,1.8,0.9,2.4s1.4,0.9,2.3,0.9S84.5,524.8,85.1,524.2z"/>
		<path d="M107.6,517.5c0.8,0.8,1.2,2,1.2,3.5v6.1h-2.5v-5.8c0-0.9-0.2-1.6-0.6-2.1c-0.4-0.5-1-0.7-1.8-0.7c-0.8,0-1.5,0.3-2,0.8
			c-0.5,0.6-0.8,1.3-0.8,2.4v5.4h-2.5v-5.8c0-0.9-0.2-1.6-0.6-2.1c-0.4-0.5-1-0.7-1.8-0.7c-0.9,0-1.5,0.3-2,0.8s-0.8,1.3-0.8,2.4
			v5.4h-2.5v-10.7h2.4v1.4c0.4-0.5,0.9-0.8,1.5-1.1s1.3-0.4,2-0.4c0.8,0,1.5,0.1,2.1,0.5c0.6,0.3,1.1,0.7,1.5,1.3
			c0.4-0.6,1-1,1.7-1.3s1.5-0.5,2.3-0.5C105.7,516.3,106.8,516.7,107.6,517.5z"/>
		<path d="M128.7,517.5c0.8,0.8,1.2,2,1.2,3.5v6.1h-2.5v-5.8c0-0.9-0.2-1.6-0.6-2.1c-0.4-0.5-1-0.7-1.8-0.7c-0.8,0-1.5,0.3-2,0.8
			c-0.5,0.6-0.8,1.3-0.8,2.4v5.4h-2.5v-5.8c0-0.9-0.2-1.6-0.6-2.1c-0.4-0.5-1-0.7-1.8-0.7c-0.9,0-1.5,0.3-2,0.8s-0.8,1.3-0.8,2.4
			v5.4H112v-10.7h2.4v1.4c0.4-0.5,0.9-0.8,1.5-1.1s1.3-0.4,2-0.4c0.8,0,1.5,0.1,2.1,0.5c0.6,0.3,1.1,0.7,1.5,1.3
			c0.4-0.6,1-1,1.7-1.3s1.5-0.5,2.3-0.5C126.8,516.3,127.9,516.7,128.7,517.5z"/>
		<path d="M143.1,522.6h-8.4c0.1,0.8,0.5,1.4,1.2,1.9c0.6,0.5,1.4,0.7,2.3,0.7c1.2,0,2.1-0.4,2.9-1.2l1.3,1.5
			c-0.5,0.6-1.1,1-1.8,1.3c-0.7,0.3-1.6,0.4-2.5,0.4c-1.2,0-2.2-0.2-3.1-0.7c-0.9-0.5-1.6-1.1-2.1-2c-0.5-0.8-0.7-1.8-0.7-2.8
			c0-1,0.2-2,0.7-2.8c0.5-0.8,1.1-1.5,2-1.9s1.8-0.7,2.8-0.7c1,0,2,0.2,2.8,0.7c0.8,0.5,1.5,1.1,1.9,1.9c0.5,0.8,0.7,1.8,0.7,2.9
			C143.2,522,143.2,522.3,143.1,522.6z M135.7,519c-0.6,0.5-0.9,1.1-1,1.9h6.1c-0.1-0.8-0.4-1.4-1-1.9c-0.5-0.5-1.2-0.7-2-0.7
			C137,518.3,136.3,518.6,135.7,519z"/>
		<path d="M151.8,516.3v2.4c-0.2,0-0.4-0.1-0.6-0.1c-1,0-1.7,0.3-2.3,0.9c-0.5,0.6-0.8,1.4-0.8,2.5v5.2h-2.5v-10.7h2.4v1.6
			C148.7,516.9,149.9,516.3,151.8,516.3z"/>
		<path d="M155.7,526.6c-0.9-0.5-1.6-1.1-2.1-2c-0.5-0.8-0.7-1.8-0.7-2.8s0.2-2,0.7-2.8c0.5-0.8,1.2-1.5,2-1.9
			c0.9-0.5,1.9-0.7,3-0.7c1.1,0,2,0.2,2.8,0.6c0.8,0.4,1.4,1,1.8,1.8l-1.9,1.1c-0.3-0.5-0.7-0.9-1.2-1.1c-0.5-0.2-1-0.4-1.5-0.4
			c-0.9,0-1.7,0.3-2.3,0.9c-0.6,0.6-0.9,1.4-0.9,2.4s0.3,1.8,0.9,2.4c0.6,0.6,1.4,0.9,2.3,0.9c0.5,0,1-0.1,1.5-0.4
			c0.5-0.2,0.8-0.6,1.2-1.1l1.9,1.1c-0.4,0.8-1,1.4-1.8,1.9c-0.8,0.4-1.7,0.6-2.8,0.6C157.6,527.3,156.6,527,155.7,526.6z"/>
		<path d="M175.2,522.6h-8.4c0.1,0.8,0.5,1.4,1.2,1.9c0.6,0.5,1.4,0.7,2.3,0.7c1.2,0,2.1-0.4,2.9-1.2l1.3,1.5
			c-0.5,0.6-1.1,1-1.8,1.3c-0.7,0.3-1.6,0.4-2.5,0.4c-1.2,0-2.2-0.2-3.1-0.7c-0.9-0.5-1.6-1.1-2.1-2c-0.5-0.8-0.7-1.8-0.7-2.8
			c0-1,0.2-2,0.7-2.8c0.5-0.8,1.1-1.5,2-1.9s1.8-0.7,2.8-0.7c1,0,2,0.2,2.8,0.7c0.8,0.5,1.5,1.1,1.9,1.9c0.5,0.8,0.7,1.8,0.7,2.9
			C175.3,522,175.3,522.3,175.2,522.6z M167.8,519c-0.6,0.5-0.9,1.1-1,1.9h6.1c-0.1-0.8-0.4-1.4-1-1.9c-0.5-0.5-1.2-0.7-2-0.7
			C169.1,518.3,168.4,518.6,167.8,519z"/>
		<path d="M34.9,560.8c-0.3-0.3-0.5-0.7-0.5-1.2c0-0.5,0.2-0.9,0.5-1.2c0.3-0.3,0.7-0.5,1.2-0.5s0.9,0.2,1.2,0.5s0.5,0.7,0.5,1.2
			c0,0.5-0.2,0.9-0.5,1.2c-0.3,0.3-0.7,0.5-1.2,0.5C35.6,561.3,35.2,561.1,34.9,560.8z"/>
		<path d="M47.1,560.9c-1-0.3-1.8-0.7-2.4-1.2l0.9-2c0.6,0.5,1.3,0.8,2.1,1.1c0.8,0.3,1.7,0.4,2.5,0.4c1,0,1.8-0.2,2.3-0.5
			s0.8-0.8,0.8-1.3c0-0.4-0.1-0.7-0.4-1c-0.3-0.3-0.6-0.5-1.1-0.6c-0.4-0.1-1-0.3-1.8-0.5c-1.1-0.3-1.9-0.5-2.6-0.8
			c-0.7-0.3-1.2-0.7-1.7-1.2c-0.5-0.5-0.7-1.3-0.7-2.2c0-0.8,0.2-1.5,0.6-2.1c0.4-0.6,1.1-1.1,1.9-1.5s1.9-0.6,3.1-0.6
			c0.9,0,1.7,0.1,2.5,0.3c0.8,0.2,1.5,0.5,2.1,0.9l-0.8,2c-0.6-0.4-1.3-0.6-1.9-0.8c-0.7-0.2-1.3-0.3-1.9-0.3c-1,0-1.8,0.2-2.3,0.5
			s-0.8,0.8-0.8,1.4c0,0.4,0.1,0.7,0.4,1c0.3,0.3,0.7,0.5,1.1,0.6c0.4,0.1,1,0.3,1.8,0.5c1,0.2,1.9,0.5,2.6,0.8
			c0.7,0.3,1.2,0.7,1.7,1.2s0.7,1.3,0.7,2.2c0,0.8-0.2,1.5-0.6,2.1c-0.4,0.6-1.1,1.1-1.9,1.5s-1.9,0.6-3.1,0.6
			C49.2,561.3,48.1,561.2,47.1,560.9z"/>
		<path d="M69,558.9v2.2H58.5v-14h10.2v2.2h-7.6v3.6h6.8v2.1h-6.8v3.9H69z"/>
		<path d="M74.5,560.4c-1.1-0.6-2-1.5-2.7-2.6c-0.7-1.1-1-2.3-1-3.7s0.3-2.6,1-3.7c0.7-1.1,1.6-2,2.7-2.6c1.1-0.6,2.4-0.9,3.9-0.9
			s2.7,0.3,3.9,0.9c1.1,0.6,2,1.5,2.7,2.6c0.7,1.1,1,2.3,1,3.7s-0.3,2.6-1,3.7c-0.7,1.1-1.6,2-2.7,2.6c-1.1,0.6-2.4,0.9-3.9,0.9
			S75.6,561,74.5,560.4z M80.9,558.4c0.7-0.4,1.3-1,1.8-1.8c0.4-0.8,0.6-1.6,0.6-2.5s-0.2-1.8-0.6-2.5c-0.4-0.8-1-1.3-1.8-1.8
			s-1.6-0.6-2.5-0.6c-0.9,0-1.8,0.2-2.5,0.6s-1.3,1-1.8,1.8c-0.4,0.8-0.6,1.6-0.6,2.5s0.2,1.8,0.6,2.5c0.4,0.8,1,1.3,1.8,1.8
			s1.6,0.6,2.5,0.6C79.3,559,80.1,558.8,80.9,558.4z"/>
		<path d="M103.1,547.7c0.9,0.4,1.6,1,2.1,1.7c0.5,0.7,0.7,1.6,0.7,2.7c0,1-0.2,1.9-0.7,2.6c-0.5,0.8-1.2,1.3-2.1,1.7
			c-0.9,0.4-2,0.6-3.2,0.6h-3.2v4h-2.6v-14h5.8C101.1,547.1,102.2,547.3,103.1,547.7z M102.4,554.2c0.6-0.5,0.9-1.2,0.9-2.1
			c0-0.9-0.3-1.6-0.9-2.1c-0.6-0.5-1.4-0.7-2.6-0.7h-3v5.6h3C100.9,554.9,101.8,554.6,102.4,554.2z"/>
		<path d="M110.1,560.6c-0.9-0.5-1.5-1.1-2-2c-0.5-0.8-0.7-1.8-0.7-2.8s0.2-2,0.7-2.8c0.5-0.8,1.2-1.5,2-1.9s1.8-0.7,2.9-0.7
			c1.1,0,2.1,0.2,2.9,0.7s1.5,1.1,2,1.9c0.5,0.8,0.7,1.8,0.7,2.8s-0.2,2-0.7,2.8c-0.5,0.8-1.2,1.5-2,2s-1.8,0.7-2.9,0.7
			C111.9,561.3,111,561,110.1,560.6z M115.3,558.2c0.6-0.6,0.9-1.4,0.9-2.4s-0.3-1.8-0.9-2.4c-0.6-0.6-1.4-0.9-2.3-0.9
			s-1.7,0.3-2.3,0.9s-0.9,1.4-0.9,2.4s0.3,1.8,0.9,2.4s1.4,0.9,2.3,0.9S114.7,558.8,115.3,558.2z"/>
		<path d="M121.9,560.9c-0.8-0.2-1.5-0.5-2-0.9l1-1.9c0.5,0.3,1.1,0.6,1.7,0.8c0.7,0.2,1.3,0.3,2,0.3c1.5,0,2.2-0.4,2.2-1.2
			c0-0.4-0.2-0.6-0.6-0.8c-0.4-0.1-1-0.3-1.8-0.4c-0.9-0.1-1.6-0.3-2.1-0.5c-0.6-0.2-1-0.5-1.4-0.9c-0.4-0.4-0.6-1-0.6-1.8
			c0-1,0.4-1.8,1.3-2.4s2-0.9,3.4-0.9c0.7,0,1.5,0.1,2.2,0.2c0.7,0.2,1.3,0.4,1.8,0.7l-1,1.9c-0.9-0.5-1.9-0.8-3.1-0.8
			c-0.7,0-1.3,0.1-1.7,0.3s-0.6,0.5-0.6,0.9c0,0.4,0.2,0.7,0.6,0.8c0.4,0.2,1,0.3,1.9,0.5c0.9,0.1,1.6,0.3,2.1,0.5s1,0.5,1.4,0.9
			c0.4,0.4,0.6,1,0.6,1.8c0,1-0.4,1.8-1.3,2.4c-0.9,0.6-2,0.9-3.5,0.9C123.5,561.3,122.7,561.2,121.9,560.9z"/>
		<path d="M131.5,548.3c-0.3-0.3-0.5-0.6-0.5-1.1c0-0.4,0.2-0.8,0.5-1.1s0.7-0.4,1.1-0.4s0.8,0.1,1.1,0.4c0.3,0.3,0.5,0.6,0.5,1
			c0,0.4-0.1,0.8-0.5,1.1c-0.3,0.3-0.7,0.4-1.1,0.4C132.2,548.7,131.8,548.5,131.5,548.3z M131.4,550.4h2.5v10.7h-2.5V550.4z"/>
		<path d="M143.6,560.5c-0.3,0.2-0.6,0.4-1.1,0.5c-0.4,0.1-0.9,0.2-1.3,0.2c-1.2,0-2.1-0.3-2.7-0.9s-1-1.5-1-2.7v-5.1h-1.8v-2h1.8
			v-2.4h2.5v2.4h2.9v2H140v5.1c0,0.5,0.1,0.9,0.4,1.2s0.6,0.4,1.1,0.4c0.6,0,1-0.1,1.4-0.4L143.6,560.5z"/>
		<path d="M145.8,548.3c-0.3-0.3-0.5-0.6-0.5-1.1c0-0.4,0.2-0.8,0.5-1.1s0.7-0.4,1.1-0.4s0.8,0.1,1.1,0.4c0.3,0.3,0.5,0.6,0.5,1
			c0,0.4-0.1,0.8-0.5,1.1c-0.3,0.3-0.7,0.4-1.1,0.4C146.5,548.7,146.1,548.5,145.8,548.3z M145.7,550.4h2.5v10.7h-2.5V550.4z"/>
		<path d="M153.3,560.6c-0.9-0.5-1.5-1.1-2-2c-0.5-0.8-0.7-1.8-0.7-2.8s0.2-2,0.7-2.8c0.5-0.8,1.2-1.5,2-1.9s1.8-0.7,2.9-0.7
			c1.1,0,2.1,0.2,2.9,0.7s1.5,1.1,2,1.9c0.5,0.8,0.7,1.8,0.7,2.8s-0.2,2-0.7,2.8c-0.5,0.8-1.2,1.5-2,2s-1.8,0.7-2.9,0.7
			C155.2,561.3,154.2,561,153.3,560.6z M158.5,558.2c0.6-0.6,0.9-1.4,0.9-2.4s-0.3-1.8-0.9-2.4c-0.6-0.6-1.4-0.9-2.3-0.9
			s-1.7,0.3-2.3,0.9s-0.9,1.4-0.9,2.4s0.3,1.8,0.9,2.4s1.4,0.9,2.3,0.9S157.9,558.8,158.5,558.2z"/>
		<path d="M173.7,551.5c0.8,0.8,1.2,2,1.2,3.5v6.1h-2.5v-5.8c0-0.9-0.2-1.6-0.7-2.1c-0.4-0.5-1.1-0.7-1.9-0.7
			c-0.9,0-1.6,0.3-2.2,0.8c-0.5,0.6-0.8,1.3-0.8,2.4v5.4h-2.5v-10.7h2.4v1.4c0.4-0.5,0.9-0.9,1.6-1.1c0.6-0.3,1.3-0.4,2.1-0.4
			C171.8,550.3,172.8,550.7,173.7,551.5z"/>
		<path d="M178.2,548.3c-0.3-0.3-0.5-0.6-0.5-1.1c0-0.4,0.2-0.8,0.5-1.1s0.7-0.4,1.1-0.4s0.8,0.1,1.1,0.4c0.3,0.3,0.5,0.6,0.5,1
			c0,0.4-0.1,0.8-0.5,1.1c-0.3,0.3-0.7,0.4-1.1,0.4C178.9,548.7,178.5,548.5,178.2,548.3z M178.1,550.4h2.5v10.7h-2.5V550.4z"/>
		<path d="M193.1,551.5c0.8,0.8,1.2,2,1.2,3.5v6.1h-2.5v-5.8c0-0.9-0.2-1.6-0.7-2.1c-0.4-0.5-1.1-0.7-1.9-0.7
			c-0.9,0-1.6,0.3-2.2,0.8c-0.5,0.6-0.8,1.3-0.8,2.4v5.4h-2.5v-10.7h2.4v1.4c0.4-0.5,0.9-0.9,1.6-1.1c0.6-0.3,1.3-0.4,2.1-0.4
			C191.2,550.3,192.3,550.7,193.1,551.5z"/>
		<path d="M208.2,550.4v9.1c0,3.8-1.9,5.6-5.8,5.6c-1,0-2-0.1-2.9-0.4s-1.7-0.6-2.3-1.1l1.1-1.9c0.5,0.4,1.1,0.7,1.8,0.9
			s1.4,0.4,2.2,0.4c1.2,0,2-0.3,2.6-0.8s0.8-1.3,0.8-2.4v-0.6c-0.4,0.5-0.9,0.8-1.6,1.1c-0.6,0.2-1.3,0.4-2,0.4
			c-1,0-1.9-0.2-2.8-0.6c-0.8-0.4-1.5-1-1.9-1.8c-0.5-0.8-0.7-1.7-0.7-2.7c0-1,0.2-1.9,0.7-2.7c0.5-0.8,1.1-1.4,1.9-1.8
			c0.8-0.4,1.7-0.6,2.8-0.6c0.8,0,1.5,0.1,2.1,0.4s1.2,0.6,1.6,1.2v-1.4H208.2z M204.9,557.7c0.6-0.6,0.9-1.3,0.9-2.2
			c0-0.9-0.3-1.6-0.9-2.2c-0.6-0.6-1.4-0.8-2.3-0.8c-1,0-1.7,0.3-2.4,0.8c-0.6,0.6-0.9,1.3-0.9,2.2c0,0.9,0.3,1.6,0.9,2.2
			c0.6,0.6,1.4,0.9,2.4,0.9C203.5,558.5,204.3,558.2,204.9,557.7z"/>
	</g>
</g>
</svg>
