<?xml version="1.0" encoding="utf-8"?>
<!-- Generator: Adobe Illustrator 25.2.3, SVG Export Plug-In . SVG Version: 6.00 Build 0)  -->
<svg version="1.1" id="Layer_1" xmlns="http://www.w3.org/2000/svg" xmlns:xlink="http://www.w3.org/1999/xlink" x="0px" y="0px"
	 viewBox="0 0 640 640" style="enable-background:new 0 0 640 640;" xml:space="preserve">
<style type="text/css">
	.st0{fill:#087892;}
	.st1{fill:none;stroke:#434244;stroke-width:0.5;stroke-miterlimit:10;}
</style>
<g id="a26265bc-6448-4b94-b9d3-6c4de85ec78b">
	
		<image style="overflow:visible;enable-background:new    ;" width="530" height="484" xlink:href="536DFCDB6A107BC8.jpeg"  transform="matrix(0.47 0 0 0.47 382.34 362.3698)">
	</image>
	<path class="st0" d="M37.9,46.3h7.2v31.2h-7.2V46.3z"/>
	<path class="st0" d="M73.8,55.9c1.8,1.8,2.7,4.4,2.7,7.9v13.7h-6.9V64.9c0.1-1.5-0.3-3-1.2-4.2c-0.9-1-2.3-1.5-3.6-1.4
		c-1.6-0.1-3.1,0.5-4.2,1.6c-1.1,1.3-1.7,3.1-1.6,4.8v11.8H52v-24h6.6v2.8c1-1,2.1-1.8,3.4-2.3c1.4-0.6,3-0.8,4.5-0.8
		C69.2,53.1,71.8,54,73.8,55.9z"/>
	<path class="st0" d="M90.4,54.1h6.2v5.3h-6v18.1h-7V59.4h-3.6v-5.3h3.7V53c-0.1-2.4,0.7-4.7,2.4-6.5c1.9-1.7,4.3-2.6,6.8-2.4
		c1,0,2,0.1,3,0.3c0.8,0.2,1.6,0.5,2.3,1l-1.8,5c-0.8-0.6-1.8-0.9-2.8-0.8c-2.1,0-3.2,1.2-3.2,3.5L90.4,54.1z M100,44.5h7v33h-7
		V44.5z"/>
	<path class="st0" d="M137.6,53.5v24H131v-2.9c-0.9,1-2,1.8-3.3,2.4c-1.3,0.6-2.7,0.8-4.1,0.8c-2.8,0.2-5.5-0.8-7.6-2.7
		c-1.9-1.8-2.8-4.5-2.8-8.1V53.5h7v12.5c0,3.9,1.6,5.8,4.9,5.8c1.5,0.1,3-0.5,4-1.6c1.1-1.4,1.6-3.1,1.5-4.8V53.5H137.6z"/>
	<path class="st0" d="M167.3,67.5h-18.1c0.3,1.4,1.1,2.7,2.3,3.5c1.3,0.9,2.9,1.3,4.6,1.3c1.1,0,2.3-0.2,3.3-0.6
		c1-0.4,1.9-1,2.7-1.8l3.7,4c-2.2,2.6-5.5,3.9-9.9,3.9c-2.5,0.1-4.9-0.5-7.2-1.6c-2-1-3.7-2.5-4.8-4.4c-1.1-1.9-1.7-4.1-1.7-6.4
		c0-2.2,0.5-4.4,1.7-6.3c1.1-1.9,2.7-3.4,4.6-4.4c4-2.1,8.8-2.1,12.9-0.1c1.9,1,3.4,2.5,4.5,4.3c1.1,2,1.7,4.3,1.6,6.6
		C167.5,65.7,167.4,66.3,167.3,67.5z M151.1,59.8c-1.1,0.9-1.8,2.2-2,3.7h11.8c-0.2-1.4-0.9-2.7-2-3.6c-1.1-0.9-2.5-1.4-3.9-1.3
		C153.6,58.4,152.2,58.9,151.1,59.8z"/>
	<path class="st0" d="M193.9,55.9c1.8,1.8,2.7,4.4,2.7,7.9v13.7h-6.9V64.9c0.1-1.5-0.3-3-1.2-4.2c-0.9-1-2.3-1.5-3.6-1.4
		c-1.6-0.1-3.1,0.5-4.2,1.6c-1.1,1.3-1.7,3.1-1.6,4.8v11.8h-6.9v-24h6.6v2.8c1-1,2.1-1.8,3.4-2.3c1.4-0.6,3-0.8,4.5-0.8
		C189.3,53.1,191.9,54,193.9,55.9z"/>
	<path class="st0" d="M207.9,76.3c-2-1-3.6-2.5-4.8-4.4c-3.5-5.7-1.8-13.1,3.9-16.6c0.3-0.2,0.6-0.3,0.9-0.5
		c2.1-1.1,4.5-1.6,6.9-1.6c2.3-0.1,4.6,0.5,6.6,1.6c1.8,1,3.3,2.6,4.1,4.5l-5.4,2.9c-1-2.1-3.1-3.3-5.4-3.3
		c-1.7-0.1-3.3,0.6-4.5,1.8c-1.2,1.3-1.9,3.1-1.8,4.9c-0.1,1.8,0.5,3.5,1.8,4.8c1.2,1.2,2.8,1.8,4.5,1.8c2.3,0.1,4.4-1.2,5.4-3.3
		l5.4,2.9c-0.9,1.9-2.3,3.5-4.1,4.4c-2,1.1-4.3,1.7-6.6,1.6C212.3,77.9,210,77.4,207.9,76.3z"/>
	<path class="st0" d="M252.5,67.5h-18.1c0.3,1.4,1.1,2.7,2.3,3.5c1.3,0.9,2.9,1.3,4.5,1.3c1.1,0,2.3-0.2,3.3-0.6
		c1-0.4,1.9-1,2.7-1.7l3.7,4c-2.3,2.6-5.6,3.9-9.9,3.9c-2.5,0.1-4.9-0.5-7.2-1.6c-2-1-3.7-2.5-4.8-4.4c-1.1-1.9-1.7-4.1-1.7-6.4
		c0-2.2,0.5-4.4,1.7-6.3c1.1-1.9,2.7-3.4,4.6-4.4c2-1.1,4.2-1.6,6.5-1.6c2.2,0,4.4,0.5,6.4,1.5c1.9,1,3.4,2.5,4.5,4.3
		c1.1,2,1.7,4.3,1.6,6.6C252.6,65.7,252.6,66.3,252.5,67.5z M236.2,59.8c-1.1,0.9-1.8,2.2-2,3.7H246c-0.2-1.4-0.9-2.7-2-3.6
		c-1.1-0.9-2.5-1.4-3.9-1.3C238.7,58.4,237.3,58.9,236.2,59.8z"/>
	<path class="st0" d="M66.2,123.8v-18.7L57,120.5h-3.2l-9.1-15v18.3h-6.8V92.6h6L55.5,112L67,92.6h5.9l0.1,31.2H66.2z"/>
	<path class="st0" d="M98.1,102.2c2,1.8,3,4.4,3,8v13.7h-6.5v-3c-1.3,2.2-3.7,3.3-7.3,3.3c-1.6,0-3.3-0.3-4.8-0.9
		c-1.3-0.5-2.3-1.4-3.1-2.6c-0.7-1.1-1.1-2.4-1.1-3.7c-0.1-2.1,0.9-4,2.5-5.2c1.7-1.3,4.3-1.9,7.8-1.9h5.5c0.1-1.3-0.4-2.6-1.4-3.5
		c-1.2-0.9-2.7-1.4-4.1-1.3c-1.3,0-2.6,0.2-3.8,0.6c-1.1,0.4-2.2,0.9-3.1,1.6l-2.5-4.9c1.4-1,3-1.7,4.7-2.1c1.8-0.5,3.7-0.8,5.6-0.8
		C93.3,99.5,96.1,100.4,98.1,102.2z M92.2,118.7c0.9-0.5,1.6-1.4,2-2.4v-2.4h-4.8c-2.9,0-4.3,0.9-4.3,2.8c0,0.8,0.4,1.6,1.1,2.1
		c0.8,0.6,1.9,0.8,2.9,0.8C90.2,119.5,91.3,119.2,92.2,118.7z"/>
	<path class="st0" d="M117.4,100.4c1.6-0.6,3.2-0.9,4.9-0.9v6.4c-0.8-0.1-1.3-0.1-1.6-0.1c-1.7-0.1-3.4,0.5-4.7,1.7
		c-1.2,1.4-1.8,3.2-1.7,5v11.3h-6.9v-24h6.6v3.2C114.9,101.8,116,100.9,117.4,100.4z"/>
	<path class="st0" d="M136.7,114.4l-3.3,3.3v6.1h-7v-33h7v18.7l10.2-9.6h8.3l-10,10.2l10.9,13.8h-8.4L136.7,114.4z"/>
	<path class="st0" d="M178.1,113.8H160c0.3,1.4,1.1,2.7,2.3,3.5c1.3,0.9,2.9,1.4,4.5,1.3c1.1,0,2.3-0.2,3.3-0.6c1-0.4,1.9-1,2.7-1.8
		l3.7,4c-2.2,2.6-5.5,3.9-9.9,3.9c-2.5,0.1-4.9-0.5-7.2-1.6c-2-1-3.7-2.5-4.8-4.4c-2.2-3.9-2.2-8.8,0-12.7c1.1-1.9,2.7-3.4,4.6-4.4
		c2-1.1,4.2-1.6,6.5-1.6c2.2,0,4.4,0.5,6.4,1.5c1.9,1,3.4,2.5,4.5,4.3c1.1,2,1.7,4.3,1.6,6.6C178.3,112,178.2,112.6,178.1,113.8z
		 M161.9,106.1c-1.1,0.9-1.8,2.2-2,3.7h11.8c-0.2-1.4-0.9-2.7-2-3.6c-1.1-0.9-2.5-1.4-3.9-1.4C164.3,104.7,163,105.2,161.9,106.1z"
		/>
	<path class="st0" d="M198.3,122.7c-0.8,0.5-1.6,0.9-2.5,1.1c-1,0.3-2.1,0.4-3.1,0.4c-2.4,0.2-4.8-0.6-6.6-2.2
		c-1.6-1.5-2.3-3.6-2.3-6.4v-9.8H180v-5.3h3.7v-5.8h7v5.8h6v5.3h-6v9.8c-0.1,0.9,0.2,1.7,0.8,2.3c0.6,0.6,1.4,0.9,2.2,0.8
		c1,0,2-0.3,2.8-0.9L198.3,122.7z"/>
	<path class="st0" d="M202.6,95.4c-1.5-1.4-1.6-3.8-0.2-5.3c0.1-0.1,0.1-0.2,0.2-0.2c0.9-0.8,2-1.2,3.1-1.1c1.1-0.1,2.3,0.3,3.1,1.1
		c0.8,0.7,1.2,1.7,1.2,2.7c0,1.1-0.4,2.1-1.2,2.9c-0.8,0.8-2,1.2-3.1,1.1C204.6,96.6,203.5,96.2,202.6,95.4z M202.3,99.9h7v24h-7
		V99.9z"/>
	<path class="st0" d="M237.4,102.2c1.8,1.8,2.7,4.4,2.7,7.9v13.7h-6.9v-12.7c0.1-1.5-0.3-3-1.2-4.3c-0.9-1-2.3-1.5-3.6-1.4
		c-1.6-0.1-3.1,0.5-4.2,1.6c-1.1,1.3-1.7,3.1-1.6,4.8v11.8h-6.9v-24h6.6v2.8c1-1,2.1-1.8,3.4-2.3c1.4-0.6,3-0.8,4.5-0.8
		C232.9,99.4,235.5,100.3,237.4,102.2z"/>
	<path class="st0" d="M271.4,99.9v20c0,4.4-1.1,7.7-3.4,9.8c-2.3,2.1-5.6,3.2-10,3.2c-2.2,0-4.4-0.3-6.6-0.8
		c-1.9-0.5-3.6-1.3-5.2-2.4l2.8-5c1.1,0.9,2.4,1.6,3.8,2c1.5,0.5,3.1,0.7,4.6,0.7c2.4,0,4.2-0.6,5.3-1.6c1.2-1.3,1.9-3.1,1.7-4.9v-1
		c-2,2.1-4.7,3.2-7.6,3c-2.1,0-4.1-0.5-6-1.4c-1.8-0.9-3.3-2.3-4.3-4.1c-2.1-3.8-2.1-8.4,0-12.1c1-1.7,2.5-3.1,4.3-4.1
		c1.9-1,3.9-1.5,6-1.4c3.5,0,6.1,1.1,7.9,3.4v-3.1H271.4z M262.8,115.3c2.3-2.3,2.4-6.1,0-8.5c0,0,0,0,0,0c-1.2-1.1-2.9-1.7-4.5-1.6
		c-1.7-0.1-3.3,0.5-4.6,1.6c-2.3,2.3-2.4,6.1,0,8.5c0,0,0,0,0,0c1.2,1.1,2.9,1.7,4.6,1.6C260,117,261.6,116.5,262.8,115.3z"/>
	<line class="st1" x1="33.8" y1="589.3" x2="611.1" y2="589.3"/>
	<g>
		<path class="st0" d="M47.1,175l-3.3,3.4v5.4h-3.9v-21h3.9v10.8l10.4-10.8h4.4l-8.8,9.4l9.4,11.6h-4.6L47.1,175z"/>
		<path class="st0" d="M75.7,177H63.1c0.2,1.2,0.8,2.1,1.7,2.8c0.9,0.7,2.1,1,3.5,1c1.8,0,3.2-0.6,4.4-1.7l2,2.3
			c-0.7,0.9-1.6,1.5-2.7,1.9c-1.1,0.4-2.3,0.7-3.7,0.7c-1.8,0-3.3-0.3-4.7-1s-2.4-1.7-3.1-2.9c-0.7-1.2-1.1-2.7-1.1-4.2
			c0-1.6,0.4-3,1.1-4.2c0.7-1.2,1.7-2.2,3-2.9c1.3-0.7,2.7-1.1,4.3-1.1c1.6,0,3,0.3,4.2,1s2.2,1.7,2.9,2.9s1,2.7,1,4.3
			C75.7,176.2,75.7,176.5,75.7,177z M64.6,171.7c-0.8,0.7-1.3,1.7-1.5,2.8h9.1c-0.2-1.2-0.7-2.1-1.5-2.8c-0.8-0.7-1.8-1.1-3.1-1.1
			C66.4,170.6,65.4,171,64.6,171.7z"/>
		<path class="st0" d="M94,167.8l-7.5,17.3c-0.7,1.7-1.6,3-2.5,3.7c-1,0.7-2.2,1.1-3.6,1.1c-0.8,0-1.6-0.1-2.4-0.4
			c-0.8-0.3-1.4-0.6-1.9-1.1l1.5-2.8c0.4,0.3,0.8,0.6,1.3,0.8c0.5,0.2,1,0.3,1.5,0.3c0.7,0,1.2-0.2,1.6-0.5c0.4-0.3,0.8-0.9,1.2-1.7
			l0.3-0.6l-7-16.1h3.9l5,11.9l5.1-11.9H94z"/>
		<path class="st0" d="M109,182.7c-1.7-0.9-3.1-2.2-4-3.9c-1-1.7-1.5-3.5-1.5-5.5s0.5-3.9,1.5-5.5c1-1.6,2.3-2.9,4-3.9
			c1.7-0.9,3.6-1.4,5.8-1.4s4.1,0.5,5.8,1.4c1.7,0.9,3.1,2.2,4.1,3.9c1,1.6,1.5,3.5,1.5,5.5c0,2.1-0.5,3.9-1.5,5.5
			c-1,1.6-2.3,2.9-4.1,3.9c-1.7,0.9-3.6,1.4-5.8,1.4S110.8,183.6,109,182.7z M118.6,179.7c1.1-0.6,2-1.5,2.6-2.6
			c0.6-1.1,1-2.4,1-3.8c0-1.4-0.3-2.7-1-3.8s-1.5-2-2.6-2.6c-1.1-0.6-2.4-0.9-3.8-0.9s-2.7,0.3-3.8,0.9c-1.1,0.6-2,1.5-2.6,2.6
			c-0.6,1.1-1,2.4-1,3.8c0,1.4,0.3,2.7,1,3.8c0.6,1.1,1.5,2,2.6,2.6c1.1,0.6,2.4,0.9,3.8,0.9S117.5,180.4,118.6,179.7z"/>
		<path class="st0" d="M143,168.6c1.2,0.7,2.2,1.6,2.9,2.9c0.7,1.2,1.1,2.7,1.1,4.3c0,1.6-0.4,3.1-1.1,4.3c-0.7,1.2-1.7,2.2-2.9,2.9
			c-1.2,0.7-2.6,1-4.2,1c-2.2,0-3.9-0.7-5.1-2.2v7.8h-3.8v-21.8h3.6v2.1c0.6-0.8,1.4-1.3,2.3-1.7c0.9-0.4,1.9-0.6,3-0.6
			C140.4,167.6,141.8,168,143,168.6z M141.8,179.4c0.9-0.9,1.3-2.1,1.3-3.6s-0.4-2.7-1.3-3.6c-0.9-0.9-2-1.4-3.4-1.4
			c-0.9,0-1.7,0.2-2.4,0.6c-0.7,0.4-1.3,1-1.7,1.8c-0.4,0.8-0.6,1.6-0.6,2.6s0.2,1.9,0.6,2.6c0.4,0.8,1,1.3,1.7,1.8
			c0.7,0.4,1.5,0.6,2.4,0.6C139.8,180.8,140.9,180.4,141.8,179.4z"/>
		<path class="st0" d="M150.7,164.5c-0.5-0.4-0.7-1-0.7-1.6c0-0.6,0.2-1.2,0.7-1.6c0.5-0.4,1-0.6,1.7-0.6c0.7,0,1.2,0.2,1.7,0.6
			c0.5,0.4,0.7,0.9,0.7,1.5c0,0.7-0.2,1.2-0.7,1.7c-0.5,0.5-1,0.7-1.7,0.7C151.7,165.2,151.1,164.9,150.7,164.5z M150.5,167.8h3.8
			v16h-3.8V167.8z"/>
		<path class="st0" d="M173.1,169.4c1.2,1.2,1.8,2.9,1.8,5.2v9.2h-3.8v-8.7c0-1.4-0.3-2.5-1-3.2c-0.7-0.7-1.6-1.1-2.8-1.1
			c-1.4,0-2.5,0.4-3.3,1.2c-0.8,0.8-1.2,2-1.2,3.6v8.1h-3.8v-16h3.6v2.1c0.6-0.7,1.4-1.3,2.3-1.7c0.9-0.4,2-0.6,3.2-0.6
			C170.3,167.6,171.9,168.2,173.1,169.4z"/>
		<path class="st0" d="M179.9,164.5c-0.5-0.4-0.7-1-0.7-1.6c0-0.6,0.2-1.2,0.7-1.6c0.5-0.4,1-0.6,1.7-0.6c0.7,0,1.2,0.2,1.7,0.6
			c0.5,0.4,0.7,0.9,0.7,1.5c0,0.7-0.2,1.2-0.7,1.7c-0.5,0.5-1,0.7-1.7,0.7C180.9,165.2,180.4,164.9,179.9,164.5z M179.7,167.8h3.8
			v16h-3.8V167.8z"/>
		<path class="st0" d="M191.2,183c-1.3-0.7-2.3-1.7-3-2.9c-0.7-1.2-1.1-2.7-1.1-4.2s0.4-3,1.1-4.2c0.7-1.2,1.7-2.2,3-2.9
			c1.3-0.7,2.8-1.1,4.4-1.1c1.6,0,3.1,0.4,4.4,1.1c1.3,0.7,2.3,1.7,3,2.9c0.7,1.2,1.1,2.7,1.1,4.2s-0.4,3-1.1,4.2
			c-0.7,1.3-1.7,2.2-3,2.9c-1.3,0.7-2.8,1-4.4,1C194,184,192.5,183.7,191.2,183z M199,179.4c0.9-0.9,1.4-2.1,1.4-3.6
			s-0.5-2.7-1.4-3.6c-0.9-0.9-2-1.4-3.4-1.4c-1.4,0-2.5,0.5-3.4,1.4c-0.9,0.9-1.3,2.1-1.3,3.6s0.4,2.7,1.3,3.6
			c0.9,0.9,2,1.4,3.4,1.4C197,180.8,198.1,180.4,199,179.4z"/>
		<path class="st0" d="M221.7,169.4c1.2,1.2,1.8,2.9,1.8,5.2v9.2h-3.8v-8.7c0-1.4-0.3-2.5-1-3.2c-0.7-0.7-1.6-1.1-2.8-1.1
			c-1.4,0-2.5,0.4-3.3,1.2c-0.8,0.8-1.2,2-1.2,3.6v8.1h-3.8v-16h3.6v2.1c0.6-0.7,1.4-1.3,2.3-1.7c0.9-0.4,2-0.6,3.2-0.6
			C218.8,167.6,220.5,168.2,221.7,169.4z"/>
		<path class="st0" d="M236.9,162.8h3.9v17.7h11v3.3h-14.9V162.8z"/>
		<path class="st0" d="M269.4,177h-12.6c0.2,1.2,0.8,2.1,1.7,2.8c0.9,0.7,2.1,1,3.5,1c1.8,0,3.2-0.6,4.4-1.7l2,2.3
			c-0.7,0.9-1.6,1.5-2.7,1.9c-1.1,0.4-2.3,0.7-3.7,0.7c-1.8,0-3.3-0.3-4.7-1s-2.4-1.7-3.1-2.9c-0.7-1.2-1.1-2.7-1.1-4.2
			c0-1.6,0.4-3,1.1-4.2c0.7-1.2,1.7-2.2,3-2.9c1.3-0.7,2.7-1.1,4.3-1.1c1.6,0,3,0.3,4.2,1s2.2,1.7,2.9,2.9s1,2.7,1,4.3
			C269.4,176.2,269.4,176.5,269.4,177z M258.3,171.7c-0.8,0.7-1.3,1.7-1.5,2.8h9.1c-0.2-1.2-0.7-2.1-1.5-2.8
			c-0.8-0.7-1.8-1.1-3.1-1.1C260.1,170.6,259.1,171,258.3,171.7z"/>
		<path class="st0" d="M284.1,169.3c1.2,1.1,1.9,2.8,1.9,5.1v9.4h-3.5v-2c-0.5,0.7-1.1,1.2-2,1.6c-0.9,0.4-1.9,0.6-3.1,0.6
			s-2.2-0.2-3.1-0.6s-1.6-1-2.1-1.7c-0.5-0.7-0.7-1.6-0.7-2.5c0-1.4,0.5-2.6,1.6-3.5c1.1-0.9,2.8-1.3,5.1-1.3h4.1v-0.2
			c0-1.1-0.3-2-1-2.6c-0.7-0.6-1.7-0.9-3-0.9c-0.9,0-1.8,0.1-2.7,0.4c-0.9,0.3-1.6,0.7-2.2,1.2l-1.5-2.7c0.8-0.6,1.9-1.1,3-1.5
			c1.2-0.3,2.4-0.5,3.8-0.5C281.1,167.6,282.9,168.2,284.1,169.3z M280.7,180.6c0.7-0.4,1.2-1,1.5-1.8v-1.9h-3.9
			c-2.2,0-3.2,0.7-3.2,2.1c0,0.7,0.3,1.2,0.8,1.6c0.5,0.4,1.3,0.6,2.2,0.6C279.1,181.3,280,181.1,280.7,180.6z"/>
		<path class="st0" d="M306.6,161.6v22.3H303v-2.1c-0.6,0.8-1.4,1.3-2.3,1.7c-0.9,0.4-1.9,0.6-3,0.6c-1.5,0-2.9-0.3-4.2-1
			c-1.2-0.7-2.2-1.6-2.9-2.9c-0.7-1.2-1-2.7-1-4.3c0-1.6,0.3-3,1-4.3c0.7-1.2,1.7-2.2,2.9-2.9c1.2-0.7,2.6-1,4.2-1
			c1.1,0,2,0.2,2.9,0.5c0.9,0.4,1.6,0.9,2.2,1.6v-8.2H306.6z M300.6,180.2c0.7-0.4,1.3-1,1.7-1.8c0.4-0.8,0.6-1.6,0.6-2.6
			s-0.2-1.9-0.6-2.6c-0.4-0.8-1-1.3-1.7-1.8c-0.7-0.4-1.5-0.6-2.4-0.6s-1.7,0.2-2.4,0.6c-0.7,0.4-1.3,1-1.7,1.8
			c-0.4,0.8-0.6,1.6-0.6,2.6s0.2,1.9,0.6,2.6c0.4,0.8,1,1.3,1.7,1.8c0.7,0.4,1.5,0.6,2.4,0.6S299.9,180.6,300.6,180.2z"/>
		<path class="st0" d="M326.6,177H314c0.2,1.2,0.8,2.1,1.7,2.8c0.9,0.7,2.1,1,3.5,1c1.8,0,3.2-0.6,4.3-1.7l2,2.3
			c-0.7,0.9-1.6,1.5-2.7,1.9c-1.1,0.4-2.3,0.7-3.7,0.7c-1.8,0-3.3-0.3-4.7-1s-2.4-1.7-3.1-2.9c-0.7-1.2-1.1-2.7-1.1-4.2
			c0-1.6,0.4-3,1.1-4.2c0.7-1.2,1.7-2.2,3-2.9c1.3-0.7,2.7-1.1,4.3-1.1c1.6,0,3,0.3,4.2,1c1.2,0.7,2.2,1.7,2.9,2.9
			c0.7,1.2,1,2.7,1,4.3C326.6,176.2,326.6,176.5,326.6,177z M315.5,171.7c-0.8,0.7-1.3,1.7-1.5,2.8h9.1c-0.2-1.2-0.7-2.1-1.5-2.8
			c-0.8-0.7-1.8-1.1-3.1-1.1C317.3,170.6,316.3,171,315.5,171.7z"/>
		<path class="st0" d="M339.5,167.6v3.6c-0.3-0.1-0.6-0.1-0.9-0.1c-1.5,0-2.6,0.4-3.4,1.3c-0.8,0.9-1.2,2.1-1.2,3.7v7.8h-3.8v-16
			h3.6v2.3C334.9,168.5,336.8,167.6,339.5,167.6z"/>
		<path class="st0" d="M343.9,183.5c-1.2-0.3-2.2-0.8-3-1.3l1.4-2.9c0.7,0.5,1.6,0.9,2.6,1.2c1,0.3,2,0.4,3,0.4
			c2.2,0,3.4-0.6,3.4-1.8c0-0.6-0.3-0.9-0.9-1.2c-0.6-0.2-1.5-0.4-2.7-0.6c-1.3-0.2-2.4-0.4-3.2-0.7c-0.8-0.3-1.5-0.7-2.2-1.4
			c-0.6-0.6-0.9-1.6-0.9-2.7c0-1.5,0.6-2.7,1.9-3.6c1.3-0.9,3-1.4,5.1-1.4c1.1,0,2.2,0.1,3.3,0.4c1.1,0.3,2,0.6,2.7,1l-1.4,2.8
			c-1.4-0.8-2.9-1.2-4.6-1.2c-1.1,0-1.9,0.2-2.5,0.5c-0.6,0.3-0.9,0.8-0.9,1.3c0,0.6,0.3,1,0.9,1.3c0.6,0.3,1.6,0.5,2.8,0.7
			c1.3,0.2,2.3,0.4,3.2,0.7c0.8,0.3,1.5,0.7,2.1,1.3c0.6,0.6,0.9,1.5,0.9,2.6c0,1.5-0.7,2.7-2,3.6s-3.1,1.4-5.3,1.4
			C346.4,184,345.1,183.9,343.9,183.5z"/>
		<path class="st0" d="M357.6,171.9c-0.5-0.5-0.7-1.1-0.7-1.8c0-0.7,0.2-1.3,0.7-1.8c0.5-0.5,1.1-0.7,1.8-0.7c0.7,0,1.3,0.2,1.8,0.7
			s0.7,1.1,0.7,1.8c0,0.7-0.2,1.3-0.7,1.8c-0.5,0.5-1.1,0.7-1.7,0.7C358.7,172.6,358.1,172.4,357.6,171.9z M357.6,183.3
			c-0.5-0.5-0.7-1.1-0.7-1.8c0-0.7,0.2-1.3,0.7-1.8c0.5-0.5,1.1-0.7,1.8-0.7c0.7,0,1.3,0.2,1.8,0.7c0.5,0.5,0.7,1.1,0.7,1.8
			c0,0.7-0.2,1.3-0.7,1.8c-0.5,0.5-1.1,0.7-1.7,0.7C358.7,184,358.1,183.8,357.6,183.3z"/>
		<path class="st0" d="M391.2,174.8c0.8,0.9,1.1,2,1.1,3.4c0,1.8-0.7,3.2-2,4.2c-1.3,1-3.3,1.5-5.9,1.5h-9.7v-21h9.1
			c2.3,0,4.2,0.5,5.4,1.4s1.9,2.3,1.9,4c0,1.2-0.3,2.1-0.9,3s-1.4,1.4-2.4,1.8C389.4,173.3,390.4,173.9,391.2,174.8z M377,164.6v7.6
			h6.7c1.7,0,3-0.3,3.9-1s1.4-1.6,1.4-2.8c0-1.2-0.5-2.2-1.4-2.8s-2.2-1-3.9-1H377z M388.6,181c1-0.6,1.4-1.6,1.4-3
			c0-2.6-1.9-3.9-5.7-3.9H377v7.9h7.4C386.3,182,387.7,181.7,388.6,181z"/>
		<path class="st0" d="M410.7,176.6h-13.2c0.1,1.6,0.8,3,1.9,4c1.1,1,2.6,1.5,4.3,1.5c1,0,1.9-0.2,2.7-0.5c0.8-0.3,1.5-0.9,2.1-1.5
			l1.2,1.4c-0.7,0.8-1.6,1.5-2.6,1.9s-2.2,0.7-3.5,0.7c-1.6,0-3.1-0.3-4.3-1c-1.3-0.7-2.2-1.6-2.9-2.9c-0.7-1.2-1-2.6-1-4.1
			c0-1.5,0.3-2.9,1-4.1s1.6-2.2,2.8-2.9c1.2-0.7,2.5-1,3.9-1s2.8,0.3,3.9,1c1.2,0.7,2.1,1.6,2.7,2.8c0.7,1.2,1,2.6,1,4.2
			L410.7,176.6z M399.2,171.2c-1,1-1.6,2.2-1.8,3.8h11.2c-0.1-1.6-0.7-2.8-1.8-3.8c-1-1-2.3-1.5-3.9-1.5
			C401.5,169.7,400.2,170.2,399.2,171.2z"/>
		<path class="st0" d="M417.4,182.9c-1.2-0.7-2.2-1.6-2.9-2.9s-1-2.6-1-4.2c0-1.5,0.3-2.9,1-4.1s1.7-2.2,2.9-2.9
			c1.2-0.7,2.6-1,4.2-1c1.4,0,2.6,0.3,3.6,0.8c1.1,0.5,1.9,1.3,2.5,2.3l-1.6,1.1c-0.5-0.8-1.2-1.4-2-1.8s-1.7-0.6-2.6-0.6
			c-1.1,0-2.2,0.3-3.1,0.8c-0.9,0.5-1.6,1.2-2.1,2.2c-0.5,0.9-0.8,2-0.8,3.2c0,1.2,0.3,2.3,0.8,3.2c0.5,0.9,1.2,1.6,2.1,2.2
			c0.9,0.5,1.9,0.8,3.1,0.8c0.9,0,1.8-0.2,2.6-0.6c0.8-0.4,1.5-1,2-1.7l1.6,1.1c-0.6,1-1.5,1.8-2.6,2.3c-1.1,0.5-2.3,0.8-3.6,0.8
			C420,184,418.6,183.6,417.4,182.9z"/>
		<path class="st0" d="M434,182.9c-1.2-0.7-2.2-1.6-2.9-2.9c-0.7-1.2-1-2.6-1-4.1c0-1.5,0.3-2.9,1-4.1s1.7-2.2,2.9-2.9
			c1.2-0.7,2.6-1,4.1-1c1.5,0,2.9,0.3,4.1,1c1.2,0.7,2.2,1.6,2.9,2.9c0.7,1.2,1,2.6,1,4.1c0,1.5-0.3,2.9-1,4.1
			c-0.7,1.2-1.6,2.2-2.9,2.9c-1.2,0.7-2.6,1-4.1,1C436.6,184,435.2,183.6,434,182.9z M441.1,181.3c0.9-0.5,1.6-1.2,2.1-2.2
			c0.5-0.9,0.8-2,0.8-3.2c0-1.2-0.2-2.3-0.8-3.2c-0.5-0.9-1.2-1.7-2.1-2.2c-0.9-0.5-1.9-0.8-3-0.8s-2.1,0.3-3,0.8
			c-0.9,0.5-1.6,1.2-2.1,2.2c-0.5,0.9-0.8,2-0.8,3.2c0,1.2,0.3,2.3,0.8,3.2c0.5,0.9,1.2,1.7,2.1,2.2c0.9,0.5,1.9,0.8,3,0.8
			S440.2,181.8,441.1,181.3z"/>
		<path class="st0" d="M474.8,169.6c1.1,1.1,1.7,2.8,1.7,5v9.1h-2.1v-8.9c0-1.6-0.4-2.9-1.2-3.8c-0.8-0.9-1.9-1.3-3.3-1.3
			c-1.6,0-2.9,0.5-3.9,1.5c-0.9,1-1.4,2.4-1.4,4.2v8.3h-2.1v-8.9c0-1.6-0.4-2.9-1.2-3.8s-1.9-1.3-3.4-1.3c-1.6,0-2.9,0.5-3.9,1.5
			c-1,1-1.4,2.4-1.4,4.2v8.3h-2.1V168h2v2.9c0.6-1,1.3-1.7,2.3-2.2c1-0.5,2.2-0.8,3.5-0.8c1.3,0,2.5,0.3,3.4,0.8
			c1,0.6,1.7,1.4,2.2,2.5c0.6-1,1.4-1.9,2.5-2.4c1.1-0.6,2.3-0.9,3.7-0.9C472.1,167.9,473.7,168.5,474.8,169.6z"/>
		<path class="st0" d="M496.1,176.6h-13.2c0.1,1.6,0.8,3,1.9,4c1.1,1,2.6,1.5,4.3,1.5c1,0,1.9-0.2,2.7-0.5c0.8-0.3,1.5-0.9,2.1-1.5
			l1.2,1.4c-0.7,0.8-1.6,1.5-2.6,1.9s-2.2,0.7-3.5,0.7c-1.6,0-3.1-0.3-4.3-1c-1.3-0.7-2.2-1.6-2.9-2.9c-0.7-1.2-1-2.6-1-4.1
			c0-1.5,0.3-2.9,1-4.1s1.6-2.2,2.8-2.9c1.2-0.7,2.5-1,3.9-1s2.8,0.3,3.9,1c1.2,0.7,2.1,1.6,2.7,2.8c0.7,1.2,1,2.6,1,4.2
			L496.1,176.6z M484.6,171.2c-1,1-1.6,2.2-1.8,3.8h11.2c-0.1-1.6-0.7-2.8-1.8-3.8c-1-1-2.3-1.5-3.9-1.5
			C487,169.7,485.7,170.2,484.6,171.2z"/>
		<path class="st0" d="M518.6,169.5c1.1,1,1.6,2.6,1.6,4.6v9.8h-2v-2.5c-0.5,0.8-1.2,1.5-2.1,1.9c-0.9,0.5-2,0.7-3.3,0.7
			c-1.8,0-3.2-0.4-4.2-1.3c-1-0.8-1.6-2-1.6-3.3c0-1.3,0.5-2.4,1.5-3.2c1-0.8,2.5-1.2,4.6-1.2h5v-1c0-1.4-0.4-2.4-1.1-3.1
			c-0.8-0.7-1.9-1.1-3.3-1.1c-1,0-2,0.2-2.9,0.5c-0.9,0.3-1.7,0.8-2.4,1.4l-1-1.6c0.8-0.7,1.8-1.2,2.9-1.6c1.1-0.4,2.3-0.6,3.5-0.6
			C515.9,167.9,517.5,168.4,518.6,169.5z M516.2,181.5c0.9-0.5,1.5-1.3,1.9-2.4v-2.6h-5c-2.7,0-4,0.9-4,2.8c0,0.9,0.3,1.6,1,2.2
			c0.7,0.5,1.7,0.8,2.9,0.8C514.3,182.3,515.3,182,516.2,181.5z"/>
		<path class="st0" d="M538.8,169.6c1.2,1.1,1.8,2.8,1.8,5v9.1h-2.1v-8.9c0-1.6-0.4-2.9-1.2-3.8s-2-1.3-3.5-1.3c-1.7,0-3,0.5-4,1.5
			s-1.5,2.4-1.5,4.2v8.3H526V168h2v2.9c0.6-1,1.4-1.7,2.4-2.2c1-0.5,2.2-0.8,3.6-0.8C536.1,167.9,537.6,168.5,538.8,169.6z"/>
		<path class="st0" d="M54.5,213H41.9c0.2,1.2,0.8,2.1,1.7,2.8c0.9,0.7,2.1,1,3.5,1c1.8,0,3.2-0.6,4.4-1.7l2,2.3
			c-0.7,0.9-1.6,1.5-2.7,1.9c-1.1,0.4-2.3,0.7-3.7,0.7c-1.8,0-3.3-0.3-4.7-1s-2.4-1.7-3.1-2.9c-0.7-1.2-1.1-2.7-1.1-4.2
			c0-1.6,0.4-3,1.1-4.2c0.7-1.2,1.7-2.2,3-2.9c1.3-0.7,2.7-1.1,4.3-1.1c1.6,0,3,0.3,4.2,1s2.2,1.7,2.9,2.9s1,2.7,1,4.3
			C54.6,212.2,54.5,212.5,54.5,213z M43.4,207.7c-0.8,0.7-1.3,1.7-1.5,2.8H51c-0.2-1.2-0.7-2.1-1.5-2.8c-0.8-0.7-1.8-1.1-3.1-1.1
			C45.3,206.6,44.2,207,43.4,207.7z"/>
		<path class="st0" d="M67.9,219.8l-4.1-5.5l-4.1,5.5h-4.1l6.2-8.1l-6-7.9H60l3.9,5.2l3.9-5.2h4.1l-6,7.8l6.3,8.2H67.9z"/>
		<path class="st0" d="M88,204.6c1.2,0.7,2.2,1.6,2.9,2.9c0.7,1.2,1.1,2.7,1.1,4.3c0,1.6-0.4,3.1-1.1,4.3c-0.7,1.2-1.7,2.2-2.9,2.9
			c-1.2,0.7-2.6,1-4.2,1c-2.2,0-3.9-0.7-5.1-2.2v7.8h-3.8v-21.8h3.6v2.1c0.6-0.8,1.4-1.3,2.3-1.7c0.9-0.4,1.9-0.6,3-0.6
			C85.3,203.6,86.7,204,88,204.6z M86.8,215.4c0.9-0.9,1.3-2.1,1.3-3.6s-0.4-2.7-1.3-3.6c-0.9-0.9-2-1.4-3.4-1.4
			c-0.9,0-1.7,0.2-2.4,0.6c-0.7,0.4-1.3,1-1.7,1.8c-0.4,0.8-0.6,1.6-0.6,2.6s0.2,1.9,0.6,2.6c0.4,0.8,1,1.3,1.7,1.8
			c0.7,0.4,1.5,0.6,2.4,0.6C84.7,216.8,85.9,216.4,86.8,215.4z"/>
		<path class="st0" d="M110.5,213H97.9c0.2,1.2,0.8,2.1,1.7,2.8c0.9,0.7,2.1,1,3.5,1c1.8,0,3.2-0.6,4.4-1.7l2,2.3
			c-0.7,0.9-1.6,1.5-2.7,1.9c-1.1,0.4-2.3,0.7-3.7,0.7c-1.8,0-3.3-0.3-4.7-1s-2.4-1.7-3.1-2.9c-0.7-1.2-1.1-2.7-1.1-4.2
			c0-1.6,0.4-3,1.1-4.2c0.7-1.2,1.7-2.2,3-2.9c1.3-0.7,2.7-1.1,4.3-1.1c1.6,0,3,0.3,4.2,1s2.2,1.7,2.9,2.9s1,2.7,1,4.3
			C110.5,212.2,110.5,212.5,110.5,213z M99.4,207.7c-0.8,0.7-1.3,1.7-1.5,2.8h9.1c-0.2-1.2-0.7-2.1-1.5-2.8
			c-0.8-0.7-1.8-1.1-3.1-1.1C101.2,206.6,100.2,207,99.4,207.7z"/>
		<path class="st0" d="M123.4,203.6v3.6c-0.3-0.1-0.6-0.1-0.9-0.1c-1.5,0-2.6,0.4-3.4,1.3c-0.8,0.9-1.2,2.1-1.2,3.7v7.8h-3.8v-16
			h3.6v2.3C118.8,204.5,120.7,203.6,123.4,203.6z"/>
		<path class="st0" d="M136.8,218.9c-0.4,0.4-1,0.6-1.6,0.8c-0.6,0.2-1.3,0.3-2,0.3c-1.8,0-3.1-0.5-4.1-1.4s-1.4-2.3-1.4-4v-7.7
			h-2.6v-3h2.6v-3.7h3.8v3.7h4.3v3h-4.3v7.6c0,0.8,0.2,1.4,0.6,1.8c0.4,0.4,0.9,0.6,1.6,0.6c0.8,0,1.5-0.2,2.1-0.7L136.8,218.9z"/>
		<path class="st0" d="M151,219c-1.3-0.7-2.3-1.7-3-2.9c-0.7-1.2-1.1-2.7-1.1-4.2s0.4-3,1.1-4.2c0.7-1.2,1.7-2.2,3-2.9
			c1.3-0.7,2.8-1.1,4.4-1.1c1.6,0,3.1,0.4,4.4,1.1c1.3,0.7,2.3,1.7,3,2.9c0.7,1.2,1.1,2.7,1.1,4.2s-0.4,3-1.1,4.2
			c-0.7,1.3-1.7,2.2-3,2.9c-1.3,0.7-2.8,1-4.4,1C153.8,220,152.3,219.7,151,219z M158.8,215.4c0.9-0.9,1.4-2.1,1.4-3.6
			s-0.5-2.7-1.4-3.6c-0.9-0.9-2-1.4-3.4-1.4c-1.4,0-2.5,0.5-3.4,1.4c-0.9,0.9-1.3,2.1-1.3,3.6s0.4,2.7,1.3,3.6
			c0.9,0.9,2,1.4,3.4,1.4C156.8,216.8,157.9,216.4,158.8,215.4z"/>
		<path class="st0" d="M171.7,203v1h4.4v3h-4.3v12.9H168v-12.9h-2.6v-3h2.6v-1c0-1.7,0.5-3.1,1.5-4.1c1-1,2.4-1.5,4.2-1.5
			c1.4,0,2.6,0.3,3.4,0.9l-1,2.8c-0.6-0.4-1.3-0.7-2.1-0.7C172.5,200.4,171.7,201.2,171.7,203z"/>
		<path class="st0" d="M201.9,203.8l-7.5,17.3c-0.7,1.7-1.6,3-2.5,3.7c-1,0.7-2.2,1.1-3.6,1.1c-0.8,0-1.6-0.1-2.4-0.4
			c-0.8-0.3-1.4-0.6-1.9-1.1l1.5-2.8c0.4,0.3,0.8,0.6,1.3,0.8c0.5,0.2,1,0.3,1.5,0.3c0.7,0,1.2-0.2,1.6-0.5c0.4-0.3,0.8-0.9,1.2-1.7
			l0.3-0.6l-7-16.1h3.9l5,11.9l5.1-11.9H201.9z"/>
		<path class="st0" d="M206.6,219c-1.3-0.7-2.3-1.7-3-2.9c-0.7-1.2-1.1-2.7-1.1-4.2s0.4-3,1.1-4.2c0.7-1.2,1.7-2.2,3-2.9
			c1.3-0.7,2.8-1.1,4.4-1.1c1.6,0,3.1,0.4,4.4,1.1c1.3,0.7,2.3,1.7,3,2.9c0.7,1.2,1.1,2.7,1.1,4.2s-0.4,3-1.1,4.2
			c-0.7,1.3-1.7,2.2-3,2.9c-1.3,0.7-2.8,1-4.4,1C209.4,220,207.9,219.7,206.6,219z M214.4,215.4c0.9-0.9,1.4-2.1,1.4-3.6
			s-0.5-2.7-1.4-3.6c-0.9-0.9-2-1.4-3.4-1.4c-1.4,0-2.5,0.5-3.4,1.4c-0.9,0.9-1.3,2.1-1.3,3.6s0.4,2.7,1.3,3.6
			c0.9,0.9,2,1.4,3.4,1.4C212.4,216.8,213.5,216.4,214.4,215.4z"/>
		<path class="st0" d="M238.6,203.8v16h-3.6v-2c-0.6,0.7-1.4,1.3-2.2,1.7s-1.9,0.6-2.9,0.6c-2.1,0-3.8-0.6-5.1-1.8
			c-1.2-1.2-1.8-3-1.8-5.3v-9.1h3.8v8.6c0,1.4,0.3,2.5,1,3.2s1.6,1.1,2.8,1.1c1.3,0,2.4-0.4,3.2-1.2c0.8-0.8,1.2-2,1.2-3.6v-8.1
			H238.6z"/>
		<path class="st0" d="M252.8,203.6v3.6c-0.3-0.1-0.6-0.1-0.9-0.1c-1.5,0-2.6,0.4-3.4,1.3c-0.8,0.9-1.2,2.1-1.2,3.7v7.8h-3.8v-16
			h3.6v2.3C248.2,204.5,250.1,203.6,252.8,203.6z"/>
		<path class="st0" d="M264.6,200.5c-0.5-0.4-0.7-1-0.7-1.6c0-0.6,0.2-1.2,0.7-1.6c0.5-0.4,1-0.6,1.7-0.6c0.7,0,1.2,0.2,1.7,0.6
			c0.5,0.4,0.7,0.9,0.7,1.5c0,0.7-0.2,1.2-0.7,1.7c-0.5,0.5-1,0.7-1.7,0.7C265.6,201.2,265.1,200.9,264.6,200.5z M264.4,203.8h3.8
			v16h-3.8V203.8z"/>
		<path class="st0" d="M287.1,205.4c1.2,1.2,1.8,2.9,1.8,5.2v9.2h-3.8v-8.7c0-1.4-0.3-2.5-1-3.2c-0.7-0.7-1.6-1.1-2.8-1.1
			c-1.4,0-2.5,0.4-3.3,1.2c-0.8,0.8-1.2,2-1.2,3.6v8.1h-3.8v-16h3.6v2.1c0.6-0.7,1.4-1.3,2.3-1.7c0.9-0.4,2-0.6,3.2-0.6
			C284.2,203.6,285.8,204.2,287.1,205.4z"/>
		<path class="st0" d="M309.5,197.6v22.3h-3.6v-2.1c-0.6,0.8-1.4,1.3-2.3,1.7c-0.9,0.4-1.9,0.6-3,0.6c-1.5,0-2.9-0.3-4.2-1
			c-1.2-0.7-2.2-1.6-2.9-2.9c-0.7-1.2-1-2.7-1-4.3c0-1.6,0.3-3,1-4.3c0.7-1.2,1.7-2.2,2.9-2.9c1.2-0.7,2.6-1,4.2-1
			c1.1,0,2,0.2,2.9,0.5c0.9,0.4,1.6,0.9,2.2,1.6v-8.2H309.5z M303.5,216.2c0.7-0.4,1.3-1,1.7-1.8c0.4-0.8,0.6-1.6,0.6-2.6
			s-0.2-1.9-0.6-2.6c-0.4-0.8-1-1.3-1.7-1.8c-0.7-0.4-1.5-0.6-2.4-0.6s-1.7,0.2-2.4,0.6c-0.7,0.4-1.3,1-1.7,1.8
			c-0.4,0.8-0.6,1.6-0.6,2.6s0.2,1.9,0.6,2.6c0.4,0.8,1,1.3,1.7,1.8c0.7,0.4,1.5,0.6,2.4,0.6S302.7,216.6,303.5,216.2z"/>
		<path class="st0" d="M329.9,203.8v16h-3.6v-2c-0.6,0.7-1.4,1.3-2.2,1.7c-0.9,0.4-1.9,0.6-2.9,0.6c-2.1,0-3.8-0.6-5.1-1.8
			c-1.2-1.2-1.8-3-1.8-5.3v-9.1h3.8v8.6c0,1.4,0.3,2.5,1,3.2s1.6,1.1,2.8,1.1c1.3,0,2.4-0.4,3.2-1.2c0.8-0.8,1.2-2,1.2-3.6v-8.1
			H329.9z"/>
		<path class="st0" d="M336,219.5c-1.2-0.3-2.2-0.8-3-1.3l1.4-2.9c0.7,0.5,1.6,0.9,2.6,1.2c1,0.3,2,0.4,3,0.4c2.2,0,3.4-0.6,3.4-1.8
			c0-0.6-0.3-0.9-0.9-1.2c-0.6-0.2-1.5-0.4-2.7-0.6c-1.3-0.2-2.4-0.4-3.2-0.7c-0.8-0.3-1.5-0.7-2.2-1.4c-0.6-0.6-0.9-1.6-0.9-2.7
			c0-1.5,0.6-2.7,1.9-3.6c1.3-0.9,3-1.4,5.1-1.4c1.1,0,2.2,0.1,3.3,0.4c1.1,0.3,2,0.6,2.7,1l-1.4,2.8c-1.4-0.8-2.9-1.2-4.6-1.2
			c-1.1,0-1.9,0.2-2.5,0.5c-0.6,0.3-0.9,0.8-0.9,1.3c0,0.6,0.3,1,0.9,1.3c0.6,0.3,1.6,0.5,2.8,0.7c1.3,0.2,2.3,0.4,3.2,0.7
			c0.8,0.3,1.5,0.7,2.1,1.3c0.6,0.6,0.9,1.5,0.9,2.6c0,1.5-0.7,2.7-2,3.6s-3.1,1.4-5.3,1.4C338.5,220,337.2,219.9,336,219.5z"/>
		<path class="st0" d="M359.9,218.9c-0.4,0.4-1,0.6-1.6,0.8s-1.3,0.3-2,0.3c-1.8,0-3.1-0.5-4.1-1.4s-1.4-2.3-1.4-4v-7.7h-2.6v-3h2.6
			v-3.7h3.8v3.7h4.3v3h-4.3v7.6c0,0.8,0.2,1.4,0.6,1.8c0.4,0.4,0.9,0.6,1.7,0.6c0.8,0,1.5-0.2,2.1-0.7L359.9,218.9z"/>
		<path class="st0" d="M372.3,203.6v3.6c-0.3-0.1-0.6-0.1-0.9-0.1c-1.5,0-2.6,0.4-3.4,1.3c-0.8,0.9-1.2,2.1-1.2,3.7v7.8H363v-16h3.6
			v2.3C367.7,204.5,369.6,203.6,372.3,203.6z"/>
		<path class="st0" d="M391.1,203.8l-7.5,17.3c-0.7,1.7-1.5,3-2.5,3.7s-2.2,1.1-3.6,1.1c-0.8,0-1.6-0.1-2.4-0.4
			c-0.8-0.3-1.4-0.6-1.9-1.1l1.5-2.8c0.4,0.3,0.8,0.6,1.3,0.8c0.5,0.2,1,0.3,1.5,0.3c0.7,0,1.2-0.2,1.6-0.5c0.4-0.3,0.8-0.9,1.2-1.7
			l0.3-0.6l-7-16.1h3.9l5,11.9l5.1-11.9H391.1z"/>
		<path class="st0" d="M413.2,205.3c1.2,1.1,1.9,2.8,1.9,5.1v9.4h-3.5v-2c-0.5,0.7-1.1,1.2-2,1.6c-0.9,0.4-1.9,0.6-3.1,0.6
			s-2.2-0.2-3.2-0.6c-0.9-0.4-1.6-1-2.1-1.7c-0.5-0.7-0.7-1.6-0.7-2.5c0-1.4,0.5-2.6,1.6-3.5c1.1-0.9,2.8-1.3,5.1-1.3h4.1v-0.2
			c0-1.1-0.3-2-1-2.6c-0.7-0.6-1.7-0.9-3-0.9c-0.9,0-1.8,0.1-2.7,0.4c-0.9,0.3-1.6,0.7-2.2,1.2l-1.5-2.7c0.8-0.6,1.8-1.1,3-1.5
			c1.2-0.3,2.4-0.5,3.8-0.5C410.2,203.6,412,204.2,413.2,205.3z M409.8,216.6c0.7-0.4,1.2-1,1.5-1.8v-1.9h-3.9
			c-2.2,0-3.2,0.7-3.2,2.1c0,0.7,0.3,1.2,0.8,1.6c0.5,0.4,1.3,0.6,2.2,0.6C408.2,217.3,409.1,217.1,409.8,216.6z"/>
		<path class="st0" d="M433.8,205.4c1.2,1.2,1.8,2.9,1.8,5.2v9.2h-3.8v-8.7c0-1.4-0.3-2.5-1-3.2c-0.7-0.7-1.6-1.1-2.8-1.1
			c-1.4,0-2.5,0.4-3.3,1.2c-0.8,0.8-1.2,2-1.2,3.6v8.1h-3.8v-16h3.6v2.1c0.6-0.7,1.4-1.3,2.3-1.7c0.9-0.4,2-0.6,3.2-0.6
			C431,203.6,432.6,204.2,433.8,205.4z"/>
		<path class="st0" d="M456.3,197.6v22.3h-3.6v-2.1c-0.6,0.8-1.4,1.3-2.3,1.7c-0.9,0.4-1.9,0.6-3,0.6c-1.5,0-2.9-0.3-4.2-1
			c-1.2-0.7-2.2-1.6-2.9-2.9c-0.7-1.2-1.1-2.7-1.1-4.3c0-1.6,0.3-3,1.1-4.3c0.7-1.2,1.7-2.2,2.9-2.9c1.2-0.7,2.6-1,4.2-1
			c1.1,0,2,0.2,2.9,0.5c0.9,0.4,1.6,0.9,2.2,1.6v-8.2H456.3z M450.3,216.2c0.7-0.4,1.3-1,1.7-1.8c0.4-0.8,0.6-1.6,0.6-2.6
			s-0.2-1.9-0.6-2.6c-0.4-0.8-1-1.3-1.7-1.8c-0.7-0.4-1.5-0.6-2.4-0.6c-0.9,0-1.7,0.2-2.4,0.6c-0.7,0.4-1.3,1-1.7,1.8
			c-0.4,0.8-0.6,1.6-0.6,2.6s0.2,1.9,0.6,2.6c0.4,0.8,1,1.3,1.7,1.8c0.7,0.4,1.5,0.6,2.4,0.6C448.7,216.8,449.5,216.6,450.3,216.2z"
			/>
		<path class="st0" d="M52.6,240.6c1.2,0.7,2.2,1.6,2.9,2.9c0.7,1.2,1.1,2.7,1.1,4.3c0,1.6-0.4,3.1-1.1,4.3
			c-0.7,1.2-1.7,2.2-2.9,2.9c-1.2,0.7-2.6,1-4.2,1c-2.2,0-3.9-0.7-5.1-2.2v7.8h-3.8v-21.8h3.6v2.1c0.6-0.8,1.4-1.3,2.3-1.7
			c0.9-0.4,1.9-0.6,3-0.6C49.9,239.6,51.3,240,52.6,240.6z M51.4,251.4c0.9-0.9,1.3-2.1,1.3-3.6s-0.4-2.7-1.3-3.6
			c-0.9-0.9-2-1.4-3.4-1.4c-0.9,0-1.7,0.2-2.4,0.6c-0.7,0.4-1.3,1-1.7,1.8c-0.4,0.8-0.6,1.6-0.6,2.6s0.2,1.9,0.6,2.6
			c0.4,0.8,1,1.3,1.7,1.8c0.7,0.4,1.5,0.6,2.4,0.6C49.3,252.8,50.5,252.4,51.4,251.4z"/>
		<path class="st0" d="M62.9,255c-1.3-0.7-2.3-1.7-3-2.9c-0.7-1.2-1.1-2.7-1.1-4.2s0.4-3,1.1-4.2c0.7-1.2,1.7-2.2,3-2.9
			c1.3-0.7,2.8-1.1,4.4-1.1c1.6,0,3.1,0.4,4.4,1.1c1.3,0.7,2.3,1.7,3,2.9c0.7,1.2,1.1,2.7,1.1,4.2s-0.4,3-1.1,4.2
			c-0.7,1.3-1.7,2.2-3,2.9c-1.3,0.7-2.8,1-4.4,1C65.7,256,64.2,255.7,62.9,255z M70.7,251.4c0.9-0.9,1.4-2.1,1.4-3.6
			s-0.5-2.7-1.4-3.6c-0.9-0.9-2-1.4-3.4-1.4c-1.4,0-2.5,0.5-3.4,1.4c-0.9,0.9-1.3,2.1-1.3,3.6s0.4,2.7,1.3,3.6
			c0.9,0.9,2,1.4,3.4,1.4C68.7,252.8,69.8,252.4,70.7,251.4z"/>
		<path class="st0" d="M80.6,255.5c-1.2-0.3-2.2-0.8-3-1.3l1.4-2.9c0.7,0.5,1.6,0.9,2.6,1.2c1,0.3,2,0.4,3,0.4
			c2.2,0,3.4-0.6,3.4-1.8c0-0.6-0.3-0.9-0.9-1.2c-0.6-0.2-1.5-0.4-2.7-0.6c-1.3-0.2-2.4-0.4-3.2-0.7c-0.8-0.3-1.6-0.7-2.2-1.4
			c-0.6-0.6-0.9-1.6-0.9-2.7c0-1.5,0.6-2.7,1.9-3.6c1.3-0.9,3-1.4,5.1-1.4c1.1,0,2.2,0.1,3.3,0.4c1.1,0.3,2,0.6,2.7,1l-1.4,2.8
			c-1.4-0.8-2.9-1.2-4.6-1.2c-1.1,0-1.9,0.2-2.5,0.5c-0.6,0.3-0.9,0.8-0.9,1.3c0,0.6,0.3,1,0.9,1.3c0.6,0.3,1.6,0.5,2.8,0.7
			c1.3,0.2,2.3,0.4,3.1,0.7c0.8,0.3,1.5,0.7,2.1,1.3c0.6,0.6,0.9,1.5,0.9,2.6c0,1.5-0.6,2.7-1.9,3.6c-1.3,0.9-3.1,1.4-5.3,1.4
			C83.1,256,81.8,255.9,80.6,255.5z"/>
		<path class="st0" d="M95.1,236.5c-0.5-0.4-0.7-1-0.7-1.6c0-0.6,0.2-1.2,0.7-1.6c0.5-0.4,1-0.6,1.7-0.6c0.7,0,1.2,0.2,1.7,0.6
			c0.5,0.4,0.7,0.9,0.7,1.5c0,0.7-0.2,1.2-0.7,1.7c-0.5,0.5-1,0.7-1.7,0.7C96.1,237.2,95.5,236.9,95.1,236.5z M94.9,239.8h3.8v16
			h-3.8V239.8z"/>
		<path class="st0" d="M113.2,254.9c-0.4,0.4-1,0.6-1.6,0.8c-0.6,0.2-1.3,0.3-2,0.3c-1.8,0-3.1-0.5-4.1-1.4s-1.4-2.3-1.4-4v-7.7
			h-2.6v-3h2.6v-3.7h3.8v3.7h4.3v3h-4.3v7.6c0,0.8,0.2,1.4,0.6,1.8c0.4,0.4,0.9,0.6,1.6,0.6c0.8,0,1.5-0.2,2.1-0.7L113.2,254.9z"/>
		<path class="st0" d="M116.4,236.5c-0.5-0.4-0.7-1-0.7-1.6c0-0.6,0.2-1.2,0.7-1.6c0.5-0.4,1-0.6,1.7-0.6c0.7,0,1.2,0.2,1.7,0.6
			c0.5,0.4,0.7,0.9,0.7,1.5c0,0.7-0.2,1.2-0.7,1.7c-0.5,0.5-1,0.7-1.7,0.7C117.5,237.2,116.9,236.9,116.4,236.5z M116.3,239.8h3.8
			v16h-3.8V239.8z"/>
		<path class="st0" d="M127.8,255c-1.3-0.7-2.3-1.7-3-2.9c-0.7-1.2-1.1-2.7-1.1-4.2s0.4-3,1.1-4.2c0.7-1.2,1.7-2.2,3-2.9
			c1.3-0.7,2.8-1.1,4.4-1.1c1.6,0,3.1,0.4,4.4,1.1c1.3,0.7,2.3,1.7,3,2.9c0.7,1.2,1.1,2.7,1.1,4.2s-0.4,3-1.1,4.2
			c-0.7,1.3-1.7,2.2-3,2.9c-1.3,0.7-2.8,1-4.4,1C130.5,256,129.1,255.7,127.8,255z M135.6,251.4c0.9-0.9,1.4-2.1,1.4-3.6
			s-0.5-2.7-1.4-3.6c-0.9-0.9-2-1.4-3.4-1.4c-1.4,0-2.5,0.5-3.4,1.4c-0.9,0.9-1.3,2.1-1.3,3.6s0.4,2.7,1.3,3.6
			c0.9,0.9,2,1.4,3.4,1.4C133.5,252.8,134.7,252.4,135.6,251.4z"/>
		<path class="st0" d="M158.2,241.4c1.2,1.2,1.8,2.9,1.8,5.2v9.2h-3.8v-8.7c0-1.4-0.3-2.5-1-3.2c-0.7-0.7-1.6-1.1-2.8-1.1
			c-1.4,0-2.5,0.4-3.3,1.2c-0.8,0.8-1.2,2-1.2,3.6v8.1h-3.8v-16h3.6v2.1c0.6-0.7,1.4-1.3,2.3-1.7c0.9-0.4,2-0.6,3.2-0.6
			C155.4,239.6,157,240.2,158.2,241.4z"/>
		<path class="st0" d="M188.1,239.8l-7.5,17.3c-0.7,1.7-1.6,3-2.5,3.7c-1,0.7-2.2,1.1-3.6,1.1c-0.8,0-1.6-0.1-2.4-0.4
			c-0.8-0.3-1.4-0.6-1.9-1.1l1.5-2.8c0.4,0.3,0.8,0.6,1.3,0.8c0.5,0.2,1,0.3,1.5,0.3c0.7,0,1.2-0.2,1.6-0.5c0.4-0.3,0.8-0.9,1.2-1.7
			l0.3-0.6l-7-16.1h3.9l5,11.9l5.1-11.9H188.1z"/>
		<path class="st0" d="M192.8,255c-1.3-0.7-2.3-1.7-3-2.9c-0.7-1.2-1.1-2.7-1.1-4.2s0.4-3,1.1-4.2c0.7-1.2,1.7-2.2,3-2.9
			c1.3-0.7,2.8-1.1,4.4-1.1c1.6,0,3.1,0.4,4.4,1.1c1.3,0.7,2.3,1.7,3,2.9c0.7,1.2,1.1,2.7,1.1,4.2s-0.4,3-1.1,4.2
			c-0.7,1.3-1.7,2.2-3,2.9c-1.3,0.7-2.8,1-4.4,1C195.6,256,194.1,255.7,192.8,255z M200.6,251.4c0.9-0.9,1.4-2.1,1.4-3.6
			s-0.5-2.7-1.4-3.6c-0.9-0.9-2-1.4-3.4-1.4c-1.4,0-2.5,0.5-3.4,1.4c-0.9,0.9-1.3,2.1-1.3,3.6s0.4,2.7,1.3,3.6
			c0.9,0.9,2,1.4,3.4,1.4C198.6,252.8,199.7,252.4,200.6,251.4z"/>
		<path class="st0" d="M224.9,239.8v16h-3.6v-2c-0.6,0.7-1.4,1.3-2.2,1.7s-1.9,0.6-2.9,0.6c-2.1,0-3.8-0.6-5.1-1.8
			c-1.2-1.2-1.8-3-1.8-5.3v-9.1h3.8v8.6c0,1.4,0.3,2.5,1,3.2s1.6,1.1,2.8,1.1c1.3,0,2.4-0.4,3.2-1.2c0.8-0.8,1.2-2,1.2-3.6v-8.1
			H224.9z"/>
		<path class="st0" d="M239.1,239.6v3.6c-0.3-0.1-0.6-0.1-0.9-0.1c-1.5,0-2.6,0.4-3.4,1.3c-0.8,0.9-1.2,2.1-1.2,3.7v7.8h-3.8v-16
			h3.6v2.3C234.4,240.5,236.3,239.6,239.1,239.6z"/>
		<path class="st0" d="M253.5,255c-1.3-0.7-2.4-1.7-3.1-2.9c-0.7-1.2-1.1-2.7-1.1-4.2s0.4-3,1.1-4.2c0.7-1.2,1.8-2.2,3.1-2.9
			c1.3-0.7,2.8-1.1,4.5-1.1c1.6,0,3,0.3,4.2,1c1.2,0.6,2.1,1.6,2.7,2.8L262,245c-0.5-0.7-1-1.3-1.7-1.7s-1.4-0.6-2.3-0.6
			c-1.4,0-2.6,0.5-3.5,1.4s-1.4,2.1-1.4,3.6s0.5,2.7,1.4,3.6c0.9,0.9,2.1,1.4,3.5,1.4c0.8,0,1.6-0.2,2.3-0.6
			c0.7-0.4,1.3-0.9,1.7-1.7l2.9,1.7c-0.6,1.2-1.5,2.1-2.7,2.8c-1.2,0.7-2.6,1-4.1,1C256.4,256,254.9,255.7,253.5,255z"/>
		<path class="st0" d="M270.7,255c-1.3-0.7-2.3-1.7-3-2.9c-0.7-1.2-1.1-2.7-1.1-4.2s0.4-3,1.1-4.2c0.7-1.2,1.7-2.2,3-2.9
			c1.3-0.7,2.8-1.1,4.4-1.1c1.6,0,3.1,0.4,4.4,1.1c1.3,0.7,2.3,1.7,3,2.9c0.7,1.2,1.1,2.7,1.1,4.2s-0.4,3-1.1,4.2
			c-0.7,1.3-1.7,2.2-3,2.9c-1.3,0.7-2.8,1-4.4,1C273.4,256,272,255.7,270.7,255z M278.5,251.4c0.9-0.9,1.4-2.1,1.4-3.6
			s-0.5-2.7-1.4-3.6c-0.9-0.9-2-1.4-3.4-1.4c-1.4,0-2.5,0.5-3.4,1.4c-0.9,0.9-1.3,2.1-1.3,3.6s0.4,2.7,1.3,3.6
			c0.9,0.9,2,1.4,3.4,1.4C276.4,252.8,277.6,252.4,278.5,251.4z"/>
		<path class="st0" d="M312.2,241.4c1.2,1.2,1.8,2.9,1.8,5.3v9.2h-3.8v-8.7c0-1.4-0.3-2.5-0.9-3.2c-0.6-0.7-1.5-1.1-2.7-1.1
			c-1.3,0-2.3,0.4-3,1.2c-0.8,0.8-1.1,2-1.1,3.6v8.1h-3.8v-8.7c0-1.4-0.3-2.5-0.9-3.2c-0.6-0.7-1.5-1.1-2.7-1.1
			c-1.3,0-2.3,0.4-3,1.2c-0.8,0.8-1.1,2-1.1,3.6v8.1h-3.8v-16h3.6v2c0.6-0.7,1.4-1.3,2.2-1.6c0.9-0.4,1.9-0.6,3-0.6
			c1.2,0,2.3,0.2,3.2,0.7c0.9,0.4,1.7,1.1,2.2,2c0.7-0.8,1.5-1.5,2.5-2c1-0.5,2.2-0.7,3.5-0.7C309.4,239.6,311,240.2,312.2,241.4z"
			/>
		<path class="st0" d="M331.9,240.6c1.2,0.7,2.2,1.6,2.9,2.9c0.7,1.2,1.1,2.7,1.1,4.3c0,1.6-0.3,3.1-1.1,4.3
			c-0.7,1.2-1.7,2.2-2.9,2.9c-1.2,0.7-2.6,1-4.2,1c-2.2,0-3.9-0.7-5.1-2.2v7.8h-3.8v-21.8h3.6v2.1c0.6-0.8,1.4-1.3,2.3-1.7
			c0.9-0.4,1.9-0.6,3-0.6C329.2,239.6,330.6,240,331.9,240.6z M330.7,251.4c0.9-0.9,1.3-2.1,1.3-3.6s-0.4-2.7-1.3-3.6
			c-0.9-0.9-2-1.4-3.4-1.4c-0.9,0-1.7,0.2-2.4,0.6c-0.7,0.4-1.3,1-1.7,1.8c-0.4,0.8-0.6,1.6-0.6,2.6s0.2,1.9,0.6,2.6
			c0.4,0.8,1,1.3,1.7,1.8c0.7,0.4,1.5,0.6,2.4,0.6C328.6,252.8,329.8,252.4,330.7,251.4z"/>
		<path class="st0" d="M350.7,241.3c1.2,1.1,1.9,2.8,1.9,5.1v9.4H349v-2c-0.5,0.7-1.1,1.2-2,1.6c-0.9,0.4-1.9,0.6-3.1,0.6
			s-2.2-0.2-3.2-0.6c-0.9-0.4-1.6-1-2.1-1.7c-0.5-0.7-0.7-1.6-0.7-2.5c0-1.4,0.5-2.6,1.6-3.5c1.1-0.9,2.8-1.3,5.1-1.3h4.1v-0.2
			c0-1.1-0.3-2-1-2.6c-0.7-0.6-1.7-0.9-3-0.9c-0.9,0-1.8,0.1-2.7,0.4c-0.9,0.3-1.6,0.7-2.2,1.2l-1.5-2.7c0.8-0.6,1.8-1.1,3-1.5
			c1.2-0.3,2.4-0.5,3.8-0.5C347.6,239.6,349.5,240.2,350.7,241.3z M347.3,252.6c0.7-0.4,1.2-1,1.5-1.8v-1.9H345
			c-2.2,0-3.2,0.7-3.2,2.1c0,0.7,0.3,1.2,0.8,1.6c0.5,0.4,1.3,0.6,2.2,0.6C345.7,253.3,346.5,253.1,347.3,252.6z"/>
		<path class="st0" d="M371.3,241.4c1.2,1.2,1.8,2.9,1.8,5.2v9.2h-3.8v-8.7c0-1.4-0.3-2.5-1-3.2c-0.7-0.7-1.6-1.1-2.8-1.1
			c-1.4,0-2.5,0.4-3.3,1.2c-0.8,0.8-1.2,2-1.2,3.6v8.1h-3.8v-16h3.6v2.1c0.6-0.7,1.4-1.3,2.3-1.7c0.9-0.4,2-0.6,3.2-0.6
			C368.5,239.6,370.1,240.2,371.3,241.4z"/>
		<path class="st0" d="M392.6,239.8l-7.5,17.3c-0.7,1.7-1.5,3-2.5,3.7s-2.2,1.1-3.6,1.1c-0.8,0-1.6-0.1-2.4-0.4
			c-0.8-0.3-1.4-0.6-1.9-1.1l1.5-2.8c0.4,0.3,0.8,0.6,1.3,0.8c0.5,0.2,1,0.3,1.5,0.3c0.7,0,1.2-0.2,1.6-0.5c0.4-0.3,0.8-0.9,1.2-1.7
			l0.3-0.6l-7-16.1h3.9l5,11.9l5.1-11.9H392.6z"/>
		<path class="st0" d="M393.4,255.3c-0.5-0.5-0.7-1.1-0.7-1.8c0-0.7,0.2-1.3,0.7-1.8c0.5-0.5,1.1-0.7,1.8-0.7c0.7,0,1.3,0.2,1.8,0.7
			c0.5,0.5,0.7,1.1,0.7,1.8c0,0.7-0.2,1.3-0.7,1.8c-0.5,0.5-1.1,0.7-1.7,0.7C394.5,256,393.9,255.8,393.4,255.3z"/>
		<path d="M38.3,397.5c-0.3-0.3-0.5-0.7-0.5-1.2c0-0.5,0.2-0.9,0.5-1.2c0.3-0.3,0.7-0.5,1.2-0.5s0.9,0.2,1.2,0.5s0.5,0.7,0.5,1.2
			c0,0.5-0.2,0.9-0.5,1.2c-0.3,0.3-0.7,0.5-1.2,0.5C39,398,38.6,397.8,38.3,397.5z"/>
		<path d="M58.5,397.8l-2.9-4.1c-0.1,0-0.3,0-0.5,0h-3.2v4.1h-2.6v-14h5.8c1.2,0,2.3,0.2,3.2,0.6c0.9,0.4,1.6,1,2.1,1.7
			c0.5,0.7,0.7,1.6,0.7,2.7c0,1.1-0.3,2-0.8,2.7c-0.5,0.8-1.2,1.3-2.2,1.7l3.2,4.6H58.5z M57.5,386.7c-0.6-0.5-1.4-0.7-2.6-0.7h-3
			v5.6h3c1.1,0,2-0.2,2.6-0.7c0.6-0.5,0.9-1.2,0.9-2.1C58.4,387.9,58.1,387.2,57.5,386.7z"/>
		<path d="M73.7,393.3h-8.4c0.1,0.8,0.5,1.4,1.2,1.9c0.6,0.5,1.4,0.7,2.3,0.7c1.2,0,2.1-0.4,2.9-1.2l1.3,1.5c-0.5,0.6-1.1,1-1.8,1.3
			c-0.7,0.3-1.6,0.4-2.5,0.4c-1.2,0-2.2-0.2-3.1-0.7c-0.9-0.5-1.6-1.1-2.1-2c-0.5-0.8-0.7-1.8-0.7-2.8c0-1,0.2-2,0.7-2.8
			c0.5-0.8,1.1-1.5,2-1.9s1.8-0.7,2.8-0.7c1,0,2,0.2,2.8,0.7c0.8,0.5,1.5,1.1,1.9,1.9c0.5,0.8,0.7,1.8,0.7,2.9
			C73.7,392.7,73.7,393,73.7,393.3z M66.3,389.7c-0.6,0.5-0.9,1.1-1,1.9h6.1c-0.1-0.8-0.4-1.4-1-1.9c-0.5-0.5-1.2-0.7-2-0.7
			C67.5,389,66.9,389.3,66.3,389.7z"/>
		<path d="M83.5,388.1c0.8,0.8,1.2,1.9,1.2,3.4v6.3h-2.4v-1.3c-0.3,0.5-0.7,0.8-1.3,1.1c-0.6,0.2-1.2,0.4-2.1,0.4
			c-0.8,0-1.5-0.1-2.1-0.4c-0.6-0.3-1.1-0.7-1.4-1.1c-0.3-0.5-0.5-1-0.5-1.6c0-1,0.4-1.7,1.1-2.3c0.7-0.6,1.8-0.9,3.4-0.9h2.8v-0.2
			c0-0.7-0.2-1.3-0.7-1.7c-0.4-0.4-1.1-0.6-2-0.6c-0.6,0-1.2,0.1-1.8,0.3c-0.6,0.2-1.1,0.4-1.5,0.8l-1-1.8c0.6-0.4,1.2-0.8,2-1
			c0.8-0.2,1.6-0.3,2.5-0.3C81.5,387,82.7,387.4,83.5,388.1z M81.2,395.7c0.5-0.3,0.8-0.7,1-1.2v-1.2h-2.6c-1.4,0-2.2,0.5-2.2,1.4
			c0,0.5,0.2,0.8,0.5,1.1c0.4,0.3,0.9,0.4,1.5,0.4C80.2,396.1,80.8,396,81.2,395.7z"/>
		<path d="M90,397.3c-0.9-0.5-1.6-1.1-2.1-2c-0.5-0.8-0.7-1.8-0.7-2.8s0.2-2,0.7-2.8c0.5-0.8,1.2-1.5,2-1.9c0.9-0.5,1.9-0.7,3-0.7
			c1.1,0,2,0.2,2.8,0.6c0.8,0.4,1.4,1,1.8,1.8l-1.9,1.1c-0.3-0.5-0.7-0.9-1.2-1.1c-0.5-0.2-1-0.4-1.5-0.4c-0.9,0-1.7,0.3-2.3,0.9
			c-0.6,0.6-0.9,1.4-0.9,2.4s0.3,1.8,0.9,2.4c0.6,0.6,1.4,0.9,2.3,0.9c0.5,0,1-0.1,1.5-0.4c0.5-0.2,0.8-0.6,1.2-1.1l1.9,1.1
			c-0.4,0.8-1,1.4-1.8,1.9c-0.8,0.4-1.7,0.6-2.8,0.6C91.9,398,90.9,397.7,90,397.3z"/>
		<path d="M108.9,388.2c0.8,0.8,1.2,2,1.2,3.5v6.1h-2.5V392c0-0.9-0.2-1.6-0.7-2.1c-0.4-0.5-1.1-0.7-1.9-0.7c-0.9,0-1.6,0.3-2.2,0.8
			c-0.5,0.6-0.8,1.3-0.8,2.4v5.4h-2.5V383h2.5v5.4c0.4-0.4,0.9-0.8,1.5-1c0.6-0.2,1.3-0.3,2-0.3C107,387,108.1,387.4,108.9,388.2z"
			/>
		<path d="M128.8,387.1l-5,11.5c-0.5,1.2-1,2-1.7,2.4c-0.7,0.5-1.5,0.7-2.4,0.7c-0.5,0-1.1-0.1-1.6-0.3c-0.5-0.2-0.9-0.4-1.3-0.7
			l1-1.8c0.2,0.2,0.5,0.4,0.8,0.5c0.3,0.1,0.7,0.2,1,0.2c0.4,0,0.8-0.1,1.1-0.3s0.6-0.6,0.8-1.1l0.2-0.4l-4.7-10.7h2.6l3.4,7.9
			l3.4-7.9H128.8z"/>
		<path d="M132,397.3c-0.9-0.5-1.5-1.1-2-2c-0.5-0.8-0.7-1.8-0.7-2.8s0.2-2,0.7-2.8c0.5-0.8,1.2-1.5,2-1.9s1.8-0.7,2.9-0.7
			c1.1,0,2.1,0.2,2.9,0.7s1.5,1.1,2,1.9c0.5,0.8,0.7,1.8,0.7,2.8s-0.2,2-0.7,2.8c-0.5,0.8-1.2,1.5-2,2s-1.8,0.7-2.9,0.7
			C133.8,398,132.8,397.7,132,397.3z M137.2,394.9c0.6-0.6,0.9-1.4,0.9-2.4s-0.3-1.8-0.9-2.4c-0.6-0.6-1.4-0.9-2.3-0.9
			s-1.7,0.3-2.3,0.9s-0.9,1.4-0.9,2.4s0.3,1.8,0.9,2.4s1.4,0.9,2.3,0.9S136.6,395.5,137.2,394.9z"/>
		<path d="M153.3,387.1v10.7h-2.4v-1.4c-0.4,0.5-0.9,0.9-1.5,1.1s-1.2,0.4-1.9,0.4c-1.4,0-2.6-0.4-3.4-1.2s-1.2-2-1.2-3.5v-6.1h2.5
			v5.8c0,1,0.2,1.7,0.6,2.2c0.4,0.5,1,0.7,1.9,0.7c0.9,0,1.6-0.3,2.1-0.8c0.5-0.6,0.8-1.4,0.8-2.4v-5.4H153.3z"/>
		<path d="M162.8,387v2.4c-0.2,0-0.4-0.1-0.6-0.1c-1,0-1.7,0.3-2.3,0.9c-0.5,0.6-0.8,1.4-0.8,2.5v5.2h-2.5v-10.7h2.4v1.6
			C159.7,387.6,161,387,162.8,387z"/>
		<path d="M176.9,397.2c-0.3,0.2-0.6,0.4-1.1,0.5c-0.4,0.1-0.9,0.2-1.3,0.2c-1.2,0-2.1-0.3-2.7-0.9s-1-1.5-1-2.7v-5.1h-1.8v-2h1.8
			v-2.4h2.5v2.4h2.9v2h-2.9v5.1c0,0.5,0.1,0.9,0.4,1.2s0.6,0.4,1.1,0.4c0.6,0,1-0.1,1.4-0.4L176.9,397.2z"/>
		<path d="M186.7,388.1c0.8,0.8,1.2,1.9,1.2,3.4v6.3h-2.4v-1.3c-0.3,0.5-0.7,0.8-1.3,1.1c-0.6,0.2-1.2,0.4-2.1,0.4
			c-0.8,0-1.5-0.1-2.1-0.4c-0.6-0.3-1.1-0.7-1.4-1.1c-0.3-0.5-0.5-1-0.5-1.6c0-1,0.4-1.7,1.1-2.3c0.7-0.6,1.8-0.9,3.4-0.9h2.8v-0.2
			c0-0.7-0.2-1.3-0.7-1.7c-0.4-0.4-1.1-0.6-2-0.6c-0.6,0-1.2,0.1-1.8,0.3c-0.6,0.2-1.1,0.4-1.5,0.8l-1-1.8c0.6-0.4,1.2-0.8,2-1
			c0.8-0.2,1.6-0.3,2.5-0.3C184.6,387,185.9,387.4,186.7,388.1z M184.4,395.7c0.5-0.3,0.8-0.7,1-1.2v-1.2h-2.6
			c-1.4,0-2.2,0.5-2.2,1.4c0,0.5,0.2,0.8,0.5,1.1c0.4,0.3,0.9,0.4,1.5,0.4C183.4,396.1,183.9,396,184.4,395.7z"/>
		<path d="M197.3,387v2.4c-0.2,0-0.4-0.1-0.6-0.1c-1,0-1.7,0.3-2.3,0.9c-0.5,0.6-0.8,1.4-0.8,2.5v5.2h-2.5v-10.7h2.4v1.6
			C194.2,387.6,195.5,387,197.3,387z"/>
		<path d="M209.9,387.1v9.1c0,3.8-1.9,5.6-5.8,5.6c-1,0-2-0.1-2.9-0.4s-1.7-0.6-2.3-1.1l1.1-1.9c0.5,0.4,1.1,0.7,1.8,0.9
			s1.4,0.4,2.2,0.4c1.2,0,2-0.3,2.6-0.8s0.8-1.3,0.8-2.4v-0.6c-0.4,0.5-0.9,0.8-1.6,1.1c-0.6,0.2-1.3,0.4-2,0.4
			c-1,0-1.9-0.2-2.8-0.6c-0.8-0.4-1.5-1-1.9-1.8c-0.5-0.8-0.7-1.7-0.7-2.7c0-1,0.2-1.9,0.7-2.7c0.5-0.8,1.1-1.4,1.9-1.8
			c0.8-0.4,1.7-0.6,2.8-0.6c0.8,0,1.5,0.1,2.1,0.4s1.2,0.6,1.6,1.2v-1.4H209.9z M206.6,394.4c0.6-0.6,0.9-1.3,0.9-2.2
			c0-0.9-0.3-1.6-0.9-2.2c-0.6-0.6-1.4-0.8-2.3-0.8c-1,0-1.7,0.3-2.4,0.8c-0.6,0.6-0.9,1.3-0.9,2.2c0,0.9,0.3,1.6,0.9,2.2
			c0.6,0.6,1.4,0.9,2.4,0.9C205.2,395.2,206,394.9,206.6,394.4z"/>
		<path d="M223.2,393.3h-8.4c0.1,0.8,0.5,1.4,1.2,1.9c0.6,0.5,1.4,0.7,2.3,0.7c1.2,0,2.1-0.4,2.9-1.2l1.3,1.5
			c-0.5,0.6-1.1,1-1.8,1.3c-0.7,0.3-1.6,0.4-2.5,0.4c-1.2,0-2.2-0.2-3.1-0.7c-0.9-0.5-1.6-1.1-2.1-2c-0.5-0.8-0.7-1.8-0.7-2.8
			c0-1,0.2-2,0.7-2.8c0.5-0.8,1.1-1.5,2-1.9s1.8-0.7,2.8-0.7c1,0,2,0.2,2.8,0.7c0.8,0.5,1.5,1.1,1.9,1.9c0.5,0.8,0.7,1.8,0.7,2.9
			C223.3,392.7,223.2,393,223.2,393.3z M215.8,389.7c-0.6,0.5-0.9,1.1-1,1.9h6.1c-0.1-0.8-0.4-1.4-1-1.9c-0.5-0.5-1.2-0.7-2-0.7
			C217.1,389,216.4,389.3,215.8,389.7z"/>
		<path d="M232.1,397.2c-0.3,0.2-0.6,0.4-1.1,0.5c-0.4,0.1-0.9,0.2-1.3,0.2c-1.2,0-2.1-0.3-2.7-0.9s-1-1.5-1-2.7v-5.1h-1.8v-2h1.8
			v-2.4h2.5v2.4h2.9v2h-2.9v5.1c0,0.5,0.1,0.9,0.4,1.2s0.6,0.4,1.1,0.4c0.6,0,1-0.1,1.4-0.4L232.1,397.2z"/>
		<path d="M247.3,388.1c0.8,0.8,1.2,1.9,1.2,3.4v6.3h-2.4v-1.3c-0.3,0.5-0.7,0.8-1.3,1.1c-0.6,0.2-1.2,0.4-2.1,0.4
			c-0.8,0-1.5-0.1-2.1-0.4c-0.6-0.3-1.1-0.7-1.4-1.1c-0.3-0.5-0.5-1-0.5-1.6c0-1,0.4-1.7,1.1-2.3c0.7-0.6,1.8-0.9,3.4-0.9h2.8v-0.2
			c0-0.7-0.2-1.3-0.7-1.7c-0.4-0.4-1.1-0.6-2-0.6c-0.6,0-1.2,0.1-1.8,0.3c-0.6,0.2-1.1,0.4-1.5,0.8l-1-1.8c0.6-0.4,1.2-0.8,2-1
			c0.8-0.2,1.6-0.3,2.5-0.3C245.3,387,246.5,387.4,247.3,388.1z M245.1,395.7c0.5-0.3,0.8-0.7,1-1.2v-1.2h-2.6
			c-1.4,0-2.2,0.5-2.2,1.4c0,0.5,0.2,0.8,0.5,1.1c0.4,0.3,0.9,0.4,1.5,0.4C244,396.1,244.6,396,245.1,395.7z"/>
		<path d="M262.1,387.1v10.7h-2.4v-1.4c-0.4,0.5-0.9,0.9-1.5,1.1s-1.2,0.4-1.9,0.4c-1.4,0-2.6-0.4-3.4-1.2s-1.2-2-1.2-3.5v-6.1h2.5
			v5.8c0,1,0.2,1.7,0.6,2.2c0.4,0.5,1,0.7,1.9,0.7c0.9,0,1.6-0.3,2.1-0.8c0.5-0.6,0.8-1.4,0.8-2.4v-5.4H262.1z"/>
		<path d="M275.9,383v14.8h-2.4v-1.4c-0.4,0.5-0.9,0.9-1.5,1.1c-0.6,0.3-1.3,0.4-2,0.4c-1,0-2-0.2-2.8-0.7c-0.8-0.5-1.5-1.1-1.9-1.9
			s-0.7-1.8-0.7-2.9s0.2-2,0.7-2.9c0.5-0.8,1.1-1.5,1.9-1.9c0.8-0.5,1.7-0.7,2.8-0.7c0.7,0,1.4,0.1,1.9,0.4c0.6,0.2,1.1,0.6,1.5,1.1
			V383H275.9z M271.9,395.4c0.5-0.3,0.9-0.7,1.1-1.2c0.3-0.5,0.4-1.1,0.4-1.8s-0.1-1.3-0.4-1.8c-0.3-0.5-0.7-0.9-1.1-1.2
			s-1-0.4-1.6-0.4s-1.1,0.1-1.6,0.4s-0.9,0.7-1.1,1.2c-0.3,0.5-0.4,1.1-0.4,1.8s0.1,1.3,0.4,1.8c0.3,0.5,0.7,0.9,1.1,1.2
			s1,0.4,1.6,0.4S271.4,395.7,271.9,395.4z"/>
		<path d="M279.3,384.9c-0.3-0.3-0.5-0.6-0.5-1.1c0-0.4,0.2-0.8,0.5-1.1s0.7-0.4,1.1-0.4s0.8,0.1,1.1,0.4c0.3,0.3,0.5,0.6,0.5,1
			c0,0.4-0.1,0.8-0.5,1.1c-0.3,0.3-0.7,0.4-1.1,0.4C280,385.4,279.6,385.2,279.3,384.9z M279.2,387.1h2.5v10.7h-2.5V387.1z"/>
		<path d="M294.9,393.3h-8.4c0.1,0.8,0.5,1.4,1.2,1.9c0.6,0.5,1.4,0.7,2.3,0.7c1.2,0,2.1-0.4,2.9-1.2l1.3,1.5
			c-0.5,0.6-1.1,1-1.8,1.3c-0.7,0.3-1.6,0.4-2.5,0.4c-1.2,0-2.2-0.2-3.1-0.7c-0.9-0.5-1.6-1.1-2.1-2c-0.5-0.8-0.7-1.8-0.7-2.8
			c0-1,0.2-2,0.7-2.8c0.5-0.8,1.1-1.5,2-1.9s1.8-0.7,2.8-0.7c1,0,2,0.2,2.8,0.7c0.8,0.5,1.5,1.1,1.9,1.9c0.5,0.8,0.7,1.8,0.7,2.9
			C295,392.7,295,393,294.9,393.3z M287.5,389.7c-0.6,0.5-0.9,1.1-1,1.9h6.1c-0.1-0.8-0.4-1.4-1-1.9c-0.5-0.5-1.2-0.7-2-0.7
			C288.8,389,288.1,389.3,287.5,389.7z"/>
		<path d="M306.7,388.2c0.8,0.8,1.2,2,1.2,3.5v6.1h-2.5V392c0-0.9-0.2-1.6-0.7-2.1c-0.4-0.5-1.1-0.7-1.9-0.7c-0.9,0-1.6,0.3-2.2,0.8
			c-0.5,0.6-0.8,1.3-0.8,2.4v5.4h-2.5v-10.7h2.4v1.4c0.4-0.5,0.9-0.9,1.6-1.1c0.6-0.3,1.3-0.4,2.1-0.4
			C304.8,387,305.9,387.4,306.7,388.2z"/>
		<path d="M313.1,397.3c-0.9-0.5-1.6-1.1-2.1-2c-0.5-0.8-0.7-1.8-0.7-2.8s0.2-2,0.7-2.8c0.5-0.8,1.2-1.5,2-1.9
			c0.9-0.5,1.9-0.7,3-0.7c1.1,0,2,0.2,2.8,0.6c0.8,0.4,1.4,1,1.8,1.8l-1.9,1.1c-0.3-0.5-0.7-0.9-1.2-1.1c-0.5-0.2-1-0.4-1.5-0.4
			c-0.9,0-1.7,0.3-2.3,0.9c-0.6,0.6-0.9,1.4-0.9,2.4s0.3,1.8,0.9,2.4c0.6,0.6,1.4,0.9,2.3,0.9c0.5,0,1-0.1,1.5-0.4
			c0.5-0.2,0.8-0.6,1.2-1.1l1.9,1.1c-0.4,0.8-1,1.4-1.8,1.9c-0.8,0.4-1.7,0.6-2.8,0.6C315,398,314,397.7,313.1,397.3z"/>
		<path d="M332.6,393.3h-8.4c0.1,0.8,0.5,1.4,1.2,1.9c0.6,0.5,1.4,0.7,2.3,0.7c1.2,0,2.1-0.4,2.9-1.2l1.3,1.5
			c-0.5,0.6-1.1,1-1.8,1.3c-0.7,0.3-1.6,0.4-2.5,0.4c-1.2,0-2.2-0.2-3.1-0.7c-0.9-0.5-1.6-1.1-2.1-2c-0.5-0.8-0.7-1.8-0.7-2.8
			c0-1,0.2-2,0.7-2.8c0.5-0.8,1.1-1.5,2-1.9s1.8-0.7,2.8-0.7c1,0,2,0.2,2.8,0.7c0.8,0.5,1.5,1.1,1.9,1.9c0.5,0.8,0.7,1.8,0.7,2.9
			C332.7,392.7,332.7,393,332.6,393.3z M325.2,389.7c-0.6,0.5-0.9,1.1-1,1.9h6.1c-0.1-0.8-0.4-1.4-1-1.9c-0.5-0.5-1.2-0.7-2-0.7
			C326.5,389,325.8,389.3,325.2,389.7z"/>
		<path d="M38.3,431.5c-0.3-0.3-0.5-0.7-0.5-1.2c0-0.5,0.2-0.9,0.5-1.2c0.3-0.3,0.7-0.5,1.2-0.5s0.9,0.2,1.2,0.5s0.5,0.7,0.5,1.2
			c0,0.5-0.2,0.9-0.5,1.2c-0.3,0.3-0.7,0.5-1.2,0.5C39,432,38.6,431.8,38.3,431.5z"/>
		<path d="M49.3,417.8h2.6v14h-2.6V417.8z"/>
		<path d="M64.8,422.2c0.8,0.8,1.2,2,1.2,3.5v6.1h-2.5V426c0-0.9-0.2-1.6-0.7-2.1c-0.4-0.5-1.1-0.7-1.9-0.7c-0.9,0-1.6,0.3-2.2,0.8
			c-0.5,0.6-0.8,1.3-0.8,2.4v5.4h-2.5v-10.7h2.4v1.4c0.4-0.5,0.9-0.9,1.6-1.1c0.6-0.3,1.3-0.4,2.1-0.4
			C62.9,421,63.9,421.4,64.8,422.2z"/>
		<path d="M71.2,431.3c-0.9-0.5-1.6-1.1-2.1-2c-0.5-0.8-0.7-1.8-0.7-2.8s0.2-2,0.7-2.8c0.5-0.8,1.2-1.5,2-1.9c0.9-0.5,1.9-0.7,3-0.7
			c1.1,0,2,0.2,2.8,0.6c0.8,0.4,1.4,1,1.8,1.8l-1.9,1.1c-0.3-0.5-0.7-0.9-1.2-1.1c-0.5-0.2-1-0.4-1.5-0.4c-0.9,0-1.7,0.3-2.3,0.9
			c-0.6,0.6-0.9,1.4-0.9,2.4s0.3,1.8,0.9,2.4c0.6,0.6,1.4,0.9,2.3,0.9c0.5,0,1-0.1,1.5-0.4c0.5-0.2,0.8-0.6,1.2-1.1l1.9,1.1
			c-0.4,0.8-1,1.4-1.8,1.9c-0.8,0.4-1.7,0.6-2.8,0.6C73.1,432,72.1,431.7,71.2,431.3z"/>
		<path d="M87.1,421v2.4c-0.2,0-0.4-0.1-0.6-0.1c-1,0-1.7,0.3-2.3,0.9c-0.5,0.6-0.8,1.4-0.8,2.5v5.2h-2.5v-10.7h2.4v1.6
			C84,421.6,85.2,421,87.1,421z"/>
		<path d="M99.1,427.3h-8.4c0.1,0.8,0.5,1.4,1.2,1.9c0.6,0.5,1.4,0.7,2.3,0.7c1.2,0,2.1-0.4,2.9-1.2l1.3,1.5c-0.5,0.6-1.1,1-1.8,1.3
			c-0.7,0.3-1.6,0.4-2.5,0.4c-1.2,0-2.2-0.2-3.1-0.7c-0.9-0.5-1.6-1.1-2.1-2c-0.5-0.8-0.7-1.8-0.7-2.8c0-1,0.2-2,0.7-2.8
			c0.5-0.8,1.1-1.5,2-1.9s1.8-0.7,2.8-0.7c1,0,2,0.2,2.8,0.7c0.8,0.5,1.5,1.1,1.9,1.9c0.5,0.8,0.7,1.8,0.7,2.9
			C99.1,426.7,99.1,427,99.1,427.3z M91.7,423.7c-0.6,0.5-0.9,1.1-1,1.9h6.1c-0.1-0.8-0.4-1.4-1-1.9c-0.5-0.5-1.2-0.7-2-0.7
			C92.9,423,92.2,423.3,91.7,423.7z"/>
		<path d="M108.9,422.1c0.8,0.8,1.2,1.9,1.2,3.4v6.3h-2.4v-1.3c-0.3,0.5-0.7,0.8-1.3,1.1c-0.6,0.2-1.2,0.4-2.1,0.4
			c-0.8,0-1.5-0.1-2.1-0.4c-0.6-0.3-1.1-0.7-1.4-1.1c-0.3-0.5-0.5-1-0.5-1.6c0-1,0.4-1.7,1.1-2.3c0.7-0.6,1.8-0.9,3.4-0.9h2.8v-0.2
			c0-0.7-0.2-1.3-0.7-1.7c-0.4-0.4-1.1-0.6-2-0.6c-0.6,0-1.2,0.1-1.8,0.3c-0.6,0.2-1.1,0.4-1.5,0.8l-1-1.8c0.6-0.4,1.2-0.8,2-1
			c0.8-0.2,1.6-0.3,2.5-0.3C106.9,421,108.1,421.4,108.9,422.1z M106.6,429.7c0.5-0.3,0.8-0.7,1-1.2v-1.2h-2.6
			c-1.4,0-2.2,0.5-2.2,1.4c0,0.5,0.2,0.8,0.5,1.1c0.4,0.3,0.9,0.4,1.5,0.4C105.6,430.1,106.1,430,106.6,429.7z"/>
		<path d="M114.1,431.6c-0.8-0.2-1.5-0.5-2-0.9l1-1.9c0.5,0.3,1.1,0.6,1.7,0.8c0.7,0.2,1.3,0.3,2,0.3c1.5,0,2.2-0.4,2.2-1.2
			c0-0.4-0.2-0.6-0.6-0.8c-0.4-0.1-1-0.3-1.8-0.4c-0.9-0.1-1.6-0.3-2.1-0.5c-0.6-0.2-1-0.5-1.4-0.9c-0.4-0.4-0.6-1-0.6-1.8
			c0-1,0.4-1.8,1.3-2.4s2-0.9,3.4-0.9c0.7,0,1.5,0.1,2.2,0.2c0.7,0.2,1.3,0.4,1.8,0.7l-1,1.9c-0.9-0.5-1.9-0.8-3.1-0.8
			c-0.7,0-1.3,0.1-1.7,0.3s-0.6,0.5-0.6,0.9c0,0.4,0.2,0.7,0.6,0.8c0.4,0.2,1,0.3,1.9,0.5c0.9,0.1,1.6,0.3,2.1,0.5s1,0.5,1.4,0.9
			c0.4,0.4,0.6,1,0.6,1.8c0,1-0.4,1.8-1.3,2.4c-0.9,0.6-2,0.9-3.5,0.9C115.8,432,114.9,431.8,114.1,431.6z"/>
		<path d="M133.7,427.3h-8.4c0.1,0.8,0.5,1.4,1.2,1.9c0.6,0.5,1.4,0.7,2.3,0.7c1.2,0,2.1-0.4,2.9-1.2l1.3,1.5
			c-0.5,0.6-1.1,1-1.8,1.3c-0.7,0.3-1.6,0.4-2.5,0.4c-1.2,0-2.2-0.2-3.1-0.7c-0.9-0.5-1.6-1.1-2.1-2c-0.5-0.8-0.7-1.8-0.7-2.8
			c0-1,0.2-2,0.7-2.8c0.5-0.8,1.1-1.5,2-1.9s1.8-0.7,2.8-0.7c1,0,2,0.2,2.8,0.7c0.8,0.5,1.5,1.1,1.9,1.9c0.5,0.8,0.7,1.8,0.7,2.9
			C133.7,426.7,133.7,427,133.7,427.3z M126.3,423.7c-0.6,0.5-0.9,1.1-1,1.9h6.1c-0.1-0.8-0.4-1.4-1-1.9c-0.5-0.5-1.2-0.7-2-0.7
			C127.5,423,126.8,423.3,126.3,423.7z"/>
		<path d="M151.6,421.1l-5,11.5c-0.5,1.2-1,2-1.7,2.4c-0.7,0.5-1.5,0.7-2.4,0.7c-0.5,0-1.1-0.1-1.6-0.3c-0.5-0.2-0.9-0.4-1.3-0.7
			l1-1.8c0.2,0.2,0.5,0.4,0.8,0.5c0.3,0.1,0.7,0.2,1,0.2c0.4,0,0.8-0.1,1.1-0.3s0.6-0.6,0.8-1.1l0.2-0.4l-4.7-10.7h2.6l3.4,7.9
			l3.4-7.9H151.6z"/>
		<path d="M154.8,431.3c-0.9-0.5-1.5-1.1-2-2c-0.5-0.8-0.7-1.8-0.7-2.8s0.2-2,0.7-2.8c0.5-0.8,1.2-1.5,2-1.9s1.8-0.7,2.9-0.7
			c1.1,0,2.1,0.2,2.9,0.7s1.5,1.1,2,1.9c0.5,0.8,0.7,1.8,0.7,2.8s-0.2,2-0.7,2.8c-0.5,0.8-1.2,1.5-2,2s-1.8,0.7-2.9,0.7
			C156.6,432,155.6,431.7,154.8,431.3z M160,428.9c0.6-0.6,0.9-1.4,0.9-2.4s-0.3-1.8-0.9-2.4c-0.6-0.6-1.4-0.9-2.3-0.9
			s-1.7,0.3-2.3,0.9s-0.9,1.4-0.9,2.4s0.3,1.8,0.9,2.4s1.4,0.9,2.3,0.9S159.4,429.5,160,428.9z"/>
		<path d="M176.1,421.1v10.7h-2.4v-1.4c-0.4,0.5-0.9,0.9-1.5,1.1s-1.2,0.4-1.9,0.4c-1.4,0-2.6-0.4-3.4-1.2s-1.2-2-1.2-3.5v-6.1h2.5
			v5.8c0,1,0.2,1.7,0.6,2.2c0.4,0.5,1,0.7,1.9,0.7c0.9,0,1.6-0.3,2.1-0.8c0.5-0.6,0.8-1.4,0.8-2.4v-5.4H176.1z"/>
		<path d="M185.6,421v2.4c-0.2,0-0.4-0.1-0.6-0.1c-1,0-1.7,0.3-2.3,0.9c-0.5,0.6-0.8,1.4-0.8,2.5v5.2h-2.5v-10.7h2.4v1.6
			C182.5,421.6,183.8,421,185.6,421z"/>
		<path d="M202,421.7c0.8,0.5,1.5,1.1,1.9,1.9c0.5,0.8,0.7,1.8,0.7,2.9s-0.2,2-0.7,2.9s-1.1,1.5-1.9,1.9c-0.8,0.5-1.8,0.7-2.8,0.7
			c-0.7,0-1.4-0.1-2-0.4c-0.6-0.3-1.1-0.6-1.5-1.1v1.4h-2.4V417h2.5v5.5c0.4-0.5,0.9-0.8,1.5-1.1c0.6-0.2,1.2-0.4,1.9-0.4
			C200.3,421,201.2,421.2,202,421.7z M201.2,428.9c0.6-0.6,0.9-1.4,0.9-2.4s-0.3-1.8-0.9-2.4s-1.3-0.9-2.3-0.9
			c-0.6,0-1.1,0.1-1.6,0.4s-0.9,0.7-1.1,1.2s-0.4,1.1-0.4,1.8s0.1,1.3,0.4,1.8s0.7,0.9,1.1,1.2s1,0.4,1.6,0.4
			C199.9,429.8,200.6,429.5,201.2,428.9z"/>
		<path d="M213.2,421v2.4c-0.2,0-0.4-0.1-0.6-0.1c-1,0-1.7,0.3-2.3,0.9c-0.5,0.6-0.8,1.4-0.8,2.5v5.2H207v-10.7h2.4v1.6
			C210.1,421.6,211.4,421,213.2,421z"/>
		<path d="M223,422.1c0.8,0.8,1.2,1.9,1.2,3.4v6.3h-2.4v-1.3c-0.3,0.5-0.7,0.8-1.3,1.1c-0.6,0.2-1.2,0.4-2.1,0.4
			c-0.8,0-1.5-0.1-2.1-0.4c-0.6-0.3-1.1-0.7-1.4-1.1c-0.3-0.5-0.5-1-0.5-1.6c0-1,0.4-1.7,1.1-2.3c0.7-0.6,1.8-0.9,3.4-0.9h2.8v-0.2
			c0-0.7-0.2-1.3-0.7-1.7c-0.4-0.4-1.1-0.6-2-0.6c-0.6,0-1.2,0.1-1.8,0.3c-0.6,0.2-1.1,0.4-1.5,0.8l-1-1.8c0.6-0.4,1.2-0.8,2-1
			c0.8-0.2,1.6-0.3,2.5-0.3C220.9,421,222.1,421.4,223,422.1z M220.7,429.7c0.5-0.3,0.8-0.7,1-1.2v-1.2h-2.6c-1.4,0-2.2,0.5-2.2,1.4
			c0,0.5,0.2,0.8,0.5,1.1c0.4,0.3,0.9,0.4,1.5,0.4C219.6,430.1,220.2,430,220.7,429.7z"/>
		<path d="M236.7,422.2c0.8,0.8,1.2,2,1.2,3.5v6.1h-2.5V426c0-0.9-0.2-1.6-0.7-2.1c-0.4-0.5-1.1-0.7-1.9-0.7c-0.9,0-1.6,0.3-2.2,0.8
			c-0.5,0.6-0.8,1.3-0.8,2.4v5.4h-2.5v-10.7h2.4v1.4c0.4-0.5,0.9-0.9,1.6-1.1c0.6-0.3,1.3-0.4,2.1-0.4
			C234.8,421,235.9,421.4,236.7,422.2z"/>
		<path d="M251.7,417v14.8h-2.4v-1.4c-0.4,0.5-0.9,0.9-1.5,1.1c-0.6,0.3-1.3,0.4-2,0.4c-1,0-2-0.2-2.8-0.7c-0.8-0.5-1.5-1.1-1.9-1.9
			s-0.7-1.8-0.7-2.9s0.2-2,0.7-2.9c0.5-0.8,1.1-1.5,1.9-1.9c0.8-0.5,1.7-0.7,2.8-0.7c0.7,0,1.4,0.1,1.9,0.4c0.6,0.2,1.1,0.6,1.5,1.1
			V417H251.7z M247.7,429.4c0.5-0.3,0.9-0.7,1.1-1.2c0.3-0.5,0.4-1.1,0.4-1.8s-0.1-1.3-0.4-1.8c-0.3-0.5-0.7-0.9-1.1-1.2
			s-1-0.4-1.6-0.4s-1.1,0.1-1.6,0.4s-0.9,0.7-1.1,1.2c-0.3,0.5-0.4,1.1-0.4,1.8s0.1,1.3,0.4,1.8c0.3,0.5,0.7,0.9,1.1,1.2
			s1,0.4,1.6,0.4S247.2,429.7,247.7,429.4z"/>
		<path d="M268.2,422.1c0.8,0.8,1.2,1.9,1.2,3.4v6.3h-2.4v-1.3c-0.3,0.5-0.7,0.8-1.3,1.1c-0.6,0.2-1.2,0.4-2.1,0.4
			c-0.8,0-1.5-0.1-2.1-0.4c-0.6-0.3-1.1-0.7-1.4-1.1c-0.3-0.5-0.5-1-0.5-1.6c0-1,0.4-1.7,1.1-2.3c0.7-0.6,1.8-0.9,3.4-0.9h2.8v-0.2
			c0-0.7-0.2-1.3-0.7-1.7c-0.4-0.4-1.1-0.6-2-0.6c-0.6,0-1.2,0.1-1.8,0.3c-0.6,0.2-1.1,0.4-1.5,0.8l-1-1.8c0.6-0.4,1.2-0.8,2-1
			c0.8-0.2,1.6-0.3,2.5-0.3C266.1,421,267.3,421.4,268.2,422.1z M265.9,429.7c0.5-0.3,0.8-0.7,1-1.2v-1.2h-2.6
			c-1.4,0-2.2,0.5-2.2,1.4c0,0.5,0.2,0.8,0.5,1.1c0.4,0.3,0.9,0.4,1.5,0.4C264.8,430.1,265.4,430,265.9,429.7z"/>
		<path d="M289.1,421.1l-3.9,10.7h-2.4l-2.8-7.4l-2.8,7.4h-2.4l-3.9-10.7h2.4l2.8,7.9l2.9-7.9h2.1l2.9,7.9l2.9-7.9H289.1z"/>
		<path d="M298.1,422.1c0.8,0.8,1.2,1.9,1.2,3.4v6.3H297v-1.3c-0.3,0.5-0.7,0.8-1.3,1.1c-0.6,0.2-1.2,0.4-2.1,0.4
			c-0.8,0-1.5-0.1-2.1-0.4c-0.6-0.3-1.1-0.7-1.4-1.1c-0.3-0.5-0.5-1-0.5-1.6c0-1,0.4-1.7,1.1-2.3c0.7-0.6,1.8-0.9,3.4-0.9h2.8v-0.2
			c0-0.7-0.2-1.3-0.7-1.7c-0.4-0.4-1.1-0.6-2-0.6c-0.6,0-1.2,0.1-1.8,0.3c-0.6,0.2-1.1,0.4-1.5,0.8l-1-1.8c0.6-0.4,1.2-0.8,2-1
			c0.8-0.2,1.6-0.3,2.5-0.3C296.1,421,297.3,421.4,298.1,422.1z M295.9,429.7c0.5-0.3,0.8-0.7,1-1.2v-1.2h-2.6
			c-1.4,0-2.2,0.5-2.2,1.4c0,0.5,0.2,0.8,0.5,1.1c0.4,0.3,0.9,0.4,1.5,0.4C294.8,430.1,295.4,430,295.9,429.7z"/>
		<path d="M308.8,421v2.4c-0.2,0-0.4-0.1-0.6-0.1c-1,0-1.7,0.3-2.3,0.9c-0.5,0.6-0.8,1.4-0.8,2.5v5.2h-2.5v-10.7h2.4v1.6
			C305.7,421.6,307,421,308.8,421z"/>
		<path d="M320.8,427.3h-8.4c0.1,0.8,0.5,1.4,1.2,1.9c0.6,0.5,1.4,0.7,2.3,0.7c1.2,0,2.1-0.4,2.9-1.2l1.3,1.5
			c-0.5,0.6-1.1,1-1.8,1.3c-0.7,0.3-1.6,0.4-2.5,0.4c-1.2,0-2.2-0.2-3.1-0.7c-0.9-0.5-1.6-1.1-2.1-2c-0.5-0.8-0.7-1.8-0.7-2.8
			c0-1,0.2-2,0.7-2.8c0.5-0.8,1.1-1.5,2-1.9s1.8-0.7,2.8-0.7c1,0,2,0.2,2.8,0.7c0.8,0.5,1.5,1.1,1.9,1.9c0.5,0.8,0.7,1.8,0.7,2.9
			C320.8,426.7,320.8,427,320.8,427.3z M313.4,423.7c-0.6,0.5-0.9,1.1-1,1.9h6.1c-0.1-0.8-0.4-1.4-1-1.9c-0.5-0.5-1.2-0.7-2-0.7
			C314.6,423,314,423.3,313.4,423.7z"/>
		<path d="M332.5,422.2c0.8,0.8,1.2,2,1.2,3.5v6.1h-2.5V426c0-0.9-0.2-1.6-0.7-2.1c-0.4-0.5-1.1-0.7-1.9-0.7c-0.9,0-1.6,0.3-2.2,0.8
			c-0.5,0.6-0.8,1.3-0.8,2.4v5.4h-2.5v-10.7h2.4v1.4c0.4-0.5,0.9-0.9,1.6-1.1s1.3-0.4,2.1-0.4C330.6,421,331.7,421.4,332.5,422.2z"
			/>
		<path d="M347,427.3h-8.4c0.1,0.8,0.5,1.4,1.2,1.9s1.4,0.7,2.3,0.7c1.2,0,2.1-0.4,2.9-1.2l1.3,1.5c-0.5,0.6-1.1,1-1.8,1.3
			s-1.6,0.4-2.5,0.4c-1.2,0-2.2-0.2-3.1-0.7c-0.9-0.5-1.6-1.1-2.1-2c-0.5-0.8-0.7-1.8-0.7-2.8c0-1,0.2-2,0.7-2.8
			c0.5-0.8,1.1-1.5,2-1.9c0.8-0.5,1.8-0.7,2.8-0.7c1,0,2,0.2,2.8,0.7c0.8,0.5,1.5,1.1,1.9,1.9s0.7,1.8,0.7,2.9
			C347.1,426.7,347.1,427,347,427.3z M339.6,423.7c-0.6,0.5-0.9,1.1-1,1.9h6.1c-0.1-0.8-0.4-1.4-1-1.9c-0.5-0.5-1.2-0.7-2-0.7
			C340.9,423,340.2,423.3,339.6,423.7z"/>
		<path d="M350.2,431.6c-0.8-0.2-1.5-0.5-2-0.9l1-1.9c0.5,0.3,1.1,0.6,1.7,0.8c0.7,0.2,1.3,0.3,2,0.3c1.5,0,2.2-0.4,2.2-1.2
			c0-0.4-0.2-0.6-0.6-0.8c-0.4-0.1-1-0.3-1.8-0.4c-0.9-0.1-1.6-0.3-2.2-0.5c-0.6-0.2-1-0.5-1.4-0.9c-0.4-0.4-0.6-1-0.6-1.8
			c0-1,0.4-1.8,1.3-2.4s2-0.9,3.4-0.9c0.7,0,1.5,0.1,2.2,0.2s1.3,0.4,1.8,0.7l-1,1.9c-0.9-0.5-1.9-0.8-3.1-0.8
			c-0.7,0-1.3,0.1-1.7,0.3s-0.6,0.5-0.6,0.9c0,0.4,0.2,0.7,0.6,0.8c0.4,0.2,1,0.3,1.9,0.5c0.9,0.1,1.6,0.3,2.1,0.5
			c0.5,0.2,1,0.5,1.4,0.9c0.4,0.4,0.6,1,0.6,1.8c0,1-0.4,1.8-1.3,2.4c-0.9,0.6-2,0.9-3.5,0.9C351.9,432,351.1,431.8,350.2,431.6z"/>
		<path d="M360.5,431.6c-0.8-0.2-1.5-0.5-2-0.9l1-1.9c0.5,0.3,1.1,0.6,1.7,0.8c0.7,0.2,1.3,0.3,2,0.3c1.5,0,2.2-0.4,2.2-1.2
			c0-0.4-0.2-0.6-0.6-0.8c-0.4-0.1-1-0.3-1.8-0.4c-0.9-0.1-1.6-0.3-2.2-0.5c-0.6-0.2-1-0.5-1.4-0.9c-0.4-0.4-0.6-1-0.6-1.8
			c0-1,0.4-1.8,1.3-2.4s2-0.9,3.4-0.9c0.7,0,1.5,0.1,2.2,0.2s1.3,0.4,1.8,0.7l-1,1.9c-0.9-0.5-1.9-0.8-3.1-0.8
			c-0.7,0-1.3,0.1-1.7,0.3s-0.6,0.5-0.6,0.9c0,0.4,0.2,0.7,0.6,0.8c0.4,0.2,1,0.3,1.9,0.5c0.9,0.1,1.6,0.3,2.1,0.5
			c0.5,0.2,1,0.5,1.4,0.9c0.4,0.4,0.6,1,0.6,1.8c0,1-0.4,1.8-1.3,2.4c-0.9,0.6-2,0.9-3.5,0.9C362.2,432,361.4,431.8,360.5,431.6z"/>
		<path d="M38.3,465.5c-0.3-0.3-0.5-0.7-0.5-1.2c0-0.5,0.2-0.9,0.5-1.2c0.3-0.3,0.7-0.5,1.2-0.5s0.9,0.2,1.2,0.5s0.5,0.7,0.5,1.2
			c0,0.5-0.2,0.9-0.5,1.2c-0.3,0.3-0.7,0.5-1.2,0.5C39,466,38.6,465.8,38.3,465.5z"/>
		<path d="M52,465.1c-1.1-0.6-2-1.5-2.7-2.6c-0.6-1.1-1-2.3-1-3.7s0.3-2.6,1-3.7c0.7-1.1,1.6-2,2.7-2.6c1.1-0.6,2.4-0.9,3.8-0.9
			c1.1,0,2.2,0.2,3.1,0.6c0.9,0.4,1.7,1,2.4,1.7l-1.7,1.6c-1-1.1-2.3-1.6-3.7-1.6c-1,0-1.8,0.2-2.6,0.6c-0.8,0.4-1.4,1-1.8,1.8
			c-0.4,0.7-0.6,1.6-0.6,2.5c0,0.9,0.2,1.8,0.6,2.5c0.4,0.7,1,1.3,1.8,1.8c0.8,0.4,1.6,0.6,2.6,0.6c1.5,0,2.7-0.6,3.7-1.7l1.7,1.6
			c-0.7,0.8-1.5,1.3-2.4,1.7c-1,0.4-2,0.6-3.1,0.6C54.4,466,53.1,465.7,52,465.1z"/>
		<path d="M69.8,455v2.4c-0.2,0-0.4-0.1-0.6-0.1c-1,0-1.7,0.3-2.3,0.9c-0.5,0.6-0.8,1.4-0.8,2.5v5.2h-2.5v-10.7H66v1.6
			C66.7,455.6,68,455,69.8,455z"/>
		<path d="M81.8,461.3h-8.4c0.1,0.8,0.5,1.4,1.2,1.9c0.6,0.5,1.4,0.7,2.3,0.7c1.2,0,2.1-0.4,2.9-1.2l1.3,1.5c-0.5,0.6-1.1,1-1.8,1.3
			c-0.7,0.3-1.6,0.4-2.5,0.4c-1.2,0-2.2-0.2-3.1-0.7c-0.9-0.5-1.6-1.1-2.1-2c-0.5-0.8-0.7-1.8-0.7-2.8c0-1,0.2-2,0.7-2.8
			c0.5-0.8,1.1-1.5,2-1.9s1.8-0.7,2.8-0.7c1,0,2,0.2,2.8,0.7c0.8,0.5,1.5,1.1,1.9,1.9c0.5,0.8,0.7,1.8,0.7,2.9
			C81.9,460.7,81.8,461,81.8,461.3z M74.4,457.7c-0.6,0.5-0.9,1.1-1,1.9h6.1c-0.1-0.8-0.4-1.4-1-1.9c-0.5-0.5-1.2-0.7-2-0.7
			C75.7,457,75,457.3,74.4,457.7z"/>
		<path d="M91.6,456.1c0.8,0.8,1.2,1.9,1.2,3.4v6.3h-2.4v-1.3c-0.3,0.5-0.7,0.8-1.3,1.1c-0.6,0.2-1.2,0.4-2.1,0.4
			c-0.8,0-1.5-0.1-2.1-0.4c-0.6-0.3-1.1-0.7-1.4-1.1c-0.3-0.5-0.5-1-0.5-1.6c0-1,0.4-1.7,1.1-2.3c0.7-0.6,1.8-0.9,3.4-0.9h2.8v-0.2
			c0-0.7-0.2-1.3-0.7-1.7c-0.4-0.4-1.1-0.6-2-0.6c-0.6,0-1.2,0.1-1.8,0.3c-0.6,0.2-1.1,0.4-1.5,0.8l-1-1.8c0.6-0.4,1.2-0.8,2-1
			c0.8-0.2,1.6-0.3,2.5-0.3C89.6,455,90.8,455.4,91.6,456.1z M89.4,463.7c0.5-0.3,0.8-0.7,1-1.2v-1.2h-2.6c-1.4,0-2.2,0.5-2.2,1.4
			c0,0.5,0.2,0.8,0.5,1.1c0.4,0.3,0.9,0.4,1.5,0.4C88.3,464.1,88.9,464,89.4,463.7z"/>
		<path d="M102.5,465.2c-0.3,0.2-0.6,0.4-1.1,0.5c-0.4,0.1-0.9,0.2-1.3,0.2c-1.2,0-2.1-0.3-2.7-0.9s-1-1.5-1-2.7v-5.1h-1.8v-2h1.8
			v-2.4h2.5v2.4h2.9v2h-2.9v5.1c0,0.5,0.1,0.9,0.4,1.2s0.6,0.4,1.1,0.4c0.6,0,1-0.1,1.4-0.4L102.5,465.2z"/>
		<path d="M114.2,461.3h-8.4c0.1,0.8,0.5,1.4,1.2,1.9c0.6,0.5,1.4,0.7,2.3,0.7c1.2,0,2.1-0.4,2.9-1.2l1.3,1.5
			c-0.5,0.6-1.1,1-1.8,1.3c-0.7,0.3-1.6,0.4-2.5,0.4c-1.2,0-2.2-0.2-3.1-0.7c-0.9-0.5-1.6-1.1-2.1-2c-0.5-0.8-0.7-1.8-0.7-2.8
			c0-1,0.2-2,0.7-2.8c0.5-0.8,1.1-1.5,2-1.9s1.8-0.7,2.8-0.7c1,0,2,0.2,2.8,0.7c0.8,0.5,1.5,1.1,1.9,1.9c0.5,0.8,0.7,1.8,0.7,2.9
			C114.3,460.7,114.2,461,114.2,461.3z M106.8,457.7c-0.6,0.5-0.9,1.1-1,1.9h6.1c-0.1-0.8-0.4-1.4-1-1.9c-0.5-0.5-1.2-0.7-2-0.7
			C108.1,457,107.4,457.3,106.8,457.7z"/>
		<path d="M129.9,456.1c0.8,0.8,1.2,1.9,1.2,3.4v6.3h-2.4v-1.3c-0.3,0.5-0.7,0.8-1.3,1.1c-0.6,0.2-1.2,0.4-2.1,0.4
			c-0.8,0-1.5-0.1-2.1-0.4c-0.6-0.3-1.1-0.7-1.4-1.1c-0.3-0.5-0.5-1-0.5-1.6c0-1,0.4-1.7,1.1-2.3c0.7-0.6,1.8-0.9,3.4-0.9h2.8v-0.2
			c0-0.7-0.2-1.3-0.7-1.7c-0.4-0.4-1.1-0.6-2-0.6c-0.6,0-1.2,0.1-1.8,0.3c-0.6,0.2-1.1,0.4-1.5,0.8l-1-1.8c0.6-0.4,1.2-0.8,2-1
			c0.8-0.2,1.6-0.3,2.5-0.3C127.8,455,129,455.4,129.9,456.1z M127.6,463.7c0.5-0.3,0.8-0.7,1-1.2v-1.2H126c-1.4,0-2.2,0.5-2.2,1.4
			c0,0.5,0.2,0.8,0.5,1.1c0.4,0.3,0.9,0.4,1.5,0.4C126.5,464.1,127.1,464,127.6,463.7z"/>
		<path d="M141.8,465.3c-0.9-0.5-1.6-1.1-2.1-2c-0.5-0.8-0.7-1.8-0.7-2.8s0.2-2,0.7-2.8c0.5-0.8,1.2-1.5,2-1.9
			c0.9-0.5,1.9-0.7,3-0.7c1.1,0,2,0.2,2.8,0.6c0.8,0.4,1.4,1,1.8,1.8l-1.9,1.1c-0.3-0.5-0.7-0.9-1.2-1.1c-0.5-0.2-1-0.4-1.5-0.4
			c-0.9,0-1.7,0.3-2.3,0.9c-0.6,0.6-0.9,1.4-0.9,2.4s0.3,1.8,0.9,2.4c0.6,0.6,1.4,0.9,2.3,0.9c0.5,0,1-0.1,1.5-0.4
			c0.5-0.2,0.8-0.6,1.2-1.1l1.9,1.1c-0.4,0.8-1,1.4-1.8,1.9c-0.8,0.4-1.7,0.6-2.8,0.6C143.6,466,142.6,465.7,141.8,465.3z"/>
		<path d="M153.2,465.3c-0.9-0.5-1.5-1.1-2-2c-0.5-0.8-0.7-1.8-0.7-2.8s0.2-2,0.7-2.8c0.5-0.8,1.2-1.5,2-1.9s1.8-0.7,2.9-0.7
			c1.1,0,2.1,0.2,2.9,0.7s1.5,1.1,2,1.9c0.5,0.8,0.7,1.8,0.7,2.8s-0.2,2-0.7,2.8c-0.5,0.8-1.2,1.5-2,2s-1.8,0.7-2.9,0.7
			C155,466,154,465.7,153.2,465.3z M158.4,462.9c0.6-0.6,0.9-1.4,0.9-2.4s-0.3-1.8-0.9-2.4c-0.6-0.6-1.4-0.9-2.3-0.9
			s-1.7,0.3-2.3,0.9s-0.9,1.4-0.9,2.4s0.3,1.8,0.9,2.4s1.4,0.9,2.3,0.9S157.8,463.5,158.4,462.9z"/>
		<path d="M180.9,456.2c0.8,0.8,1.2,2,1.2,3.5v6.1h-2.5V460c0-0.9-0.2-1.6-0.6-2.1c-0.4-0.5-1-0.7-1.8-0.7c-0.8,0-1.5,0.3-2,0.8
			c-0.5,0.6-0.8,1.3-0.8,2.4v5.4h-2.5V460c0-0.9-0.2-1.6-0.6-2.1c-0.4-0.5-1-0.7-1.8-0.7c-0.9,0-1.5,0.3-2,0.8s-0.8,1.3-0.8,2.4v5.4
			h-2.5v-10.7h2.4v1.4c0.4-0.5,0.9-0.8,1.5-1.1s1.3-0.4,2-0.4c0.8,0,1.5,0.1,2.1,0.5c0.6,0.3,1.1,0.7,1.5,1.3c0.4-0.6,1-1,1.7-1.3
			s1.5-0.5,2.3-0.5C179,455,180.1,455.4,180.9,456.2z"/>
		<path d="M201.9,456.2c0.8,0.8,1.2,2,1.2,3.5v6.1h-2.5V460c0-0.9-0.2-1.6-0.6-2.1c-0.4-0.5-1-0.7-1.8-0.7c-0.8,0-1.5,0.3-2,0.8
			c-0.5,0.6-0.8,1.3-0.8,2.4v5.4h-2.5V460c0-0.9-0.2-1.6-0.6-2.1c-0.4-0.5-1-0.7-1.8-0.7c-0.9,0-1.5,0.3-2,0.8s-0.8,1.3-0.8,2.4v5.4
			h-2.5v-10.7h2.4v1.4c0.4-0.5,0.9-0.8,1.5-1.1s1.3-0.4,2-0.4c0.8,0,1.5,0.1,2.1,0.5c0.6,0.3,1.1,0.7,1.5,1.3c0.4-0.6,1-1,1.7-1.3
			s1.5-0.5,2.3-0.5C200.1,455,201.1,455.4,201.9,456.2z"/>
		<path d="M216.7,455.1v10.7h-2.4v-1.4c-0.4,0.5-0.9,0.9-1.5,1.1s-1.2,0.4-1.9,0.4c-1.4,0-2.6-0.4-3.4-1.2s-1.2-2-1.2-3.5v-6.1h2.5
			v5.8c0,1,0.2,1.7,0.6,2.2c0.4,0.5,1,0.7,1.9,0.7c0.9,0,1.6-0.3,2.1-0.8c0.5-0.6,0.8-1.4,0.8-2.4v-5.4H216.7z"/>
		<path d="M229.2,456.2c0.8,0.8,1.2,2,1.2,3.5v6.1H228V460c0-0.9-0.2-1.6-0.7-2.1c-0.4-0.5-1.1-0.7-1.9-0.7c-0.9,0-1.6,0.3-2.2,0.8
			c-0.5,0.6-0.8,1.3-0.8,2.4v5.4h-2.5v-10.7h2.4v1.4c0.4-0.5,0.9-0.9,1.6-1.1c0.6-0.3,1.3-0.4,2.1-0.4
			C227.3,455,228.4,455.4,229.2,456.2z"/>
		<path d="M233.8,452.9c-0.3-0.3-0.5-0.6-0.5-1.1c0-0.4,0.2-0.8,0.5-1.1s0.7-0.4,1.1-0.4s0.8,0.1,1.1,0.4c0.3,0.3,0.5,0.6,0.5,1
			c0,0.4-0.1,0.8-0.5,1.1c-0.3,0.3-0.7,0.4-1.1,0.4C234.4,453.4,234.1,453.2,233.8,452.9z M233.6,455.1h2.5v10.7h-2.5V455.1z"/>
		<path d="M245.8,465.2c-0.3,0.2-0.6,0.4-1.1,0.5c-0.4,0.1-0.9,0.2-1.3,0.2c-1.2,0-2.1-0.3-2.7-0.9s-1-1.5-1-2.7v-5.1H238v-2h1.8
			v-2.4h2.5v2.4h2.9v2h-2.9v5.1c0,0.5,0.1,0.9,0.4,1.2s0.6,0.4,1.1,0.4c0.6,0,1-0.1,1.4-0.4L245.8,465.2z"/>
		<path d="M257.7,455.1l-5,11.5c-0.5,1.2-1,2-1.7,2.4c-0.7,0.5-1.5,0.7-2.4,0.7c-0.5,0-1.1-0.1-1.6-0.3c-0.5-0.2-0.9-0.4-1.3-0.7
			l1-1.8c0.2,0.2,0.5,0.4,0.8,0.5c0.3,0.1,0.7,0.2,1,0.2c0.4,0,0.8-0.1,1.1-0.3s0.6-0.6,0.8-1.1l0.2-0.4l-4.7-10.7h2.6l3.4,7.9
			l3.4-7.9H257.7z"/>
		<path d="M272.5,456.1c0.8,0.8,1.2,1.9,1.2,3.4v6.3h-2.4v-1.3c-0.3,0.5-0.7,0.8-1.3,1.1c-0.6,0.2-1.2,0.4-2.1,0.4
			c-0.8,0-1.5-0.1-2.1-0.4c-0.6-0.3-1.1-0.7-1.4-1.1c-0.3-0.5-0.5-1-0.5-1.6c0-1,0.4-1.7,1.1-2.3c0.7-0.6,1.8-0.9,3.4-0.9h2.8v-0.2
			c0-0.7-0.2-1.3-0.7-1.7c-0.4-0.4-1.1-0.6-2-0.6c-0.6,0-1.2,0.1-1.8,0.3c-0.6,0.2-1.1,0.4-1.5,0.8l-1-1.8c0.6-0.4,1.2-0.8,2-1
			c0.8-0.2,1.6-0.3,2.5-0.3C270.4,455,271.6,455.4,272.5,456.1z M270.2,463.7c0.5-0.3,0.8-0.7,1-1.2v-1.2h-2.6
			c-1.4,0-2.2,0.5-2.2,1.4c0,0.5,0.2,0.8,0.5,1.1c0.4,0.3,0.9,0.4,1.5,0.4C269.1,464.1,269.7,464,270.2,463.7z"/>
		<path d="M286.2,456.2c0.8,0.8,1.2,2,1.2,3.5v6.1h-2.5V460c0-0.9-0.2-1.6-0.7-2.1c-0.4-0.5-1.1-0.7-1.9-0.7c-0.9,0-1.6,0.3-2.2,0.8
			c-0.5,0.6-0.8,1.3-0.8,2.4v5.4h-2.5v-10.7h2.4v1.4c0.4-0.5,0.9-0.9,1.6-1.1c0.6-0.3,1.3-0.4,2.1-0.4
			C284.3,455,285.4,455.4,286.2,456.2z"/>
		<path d="M301.2,451v14.8h-2.4v-1.4c-0.4,0.5-0.9,0.9-1.5,1.1c-0.6,0.3-1.3,0.4-2,0.4c-1,0-2-0.2-2.8-0.7c-0.8-0.5-1.5-1.1-1.9-1.9
			s-0.7-1.8-0.7-2.9s0.2-2,0.7-2.9c0.5-0.8,1.1-1.5,1.9-1.9c0.8-0.5,1.7-0.7,2.8-0.7c0.7,0,1.4,0.1,1.9,0.4c0.6,0.2,1.1,0.6,1.5,1.1
			V451H301.2z M297.2,463.4c0.5-0.3,0.9-0.7,1.1-1.2c0.3-0.5,0.4-1.1,0.4-1.8s-0.1-1.3-0.4-1.8c-0.3-0.5-0.7-0.9-1.1-1.2
			s-1-0.4-1.6-0.4s-1.1,0.1-1.6,0.4s-0.9,0.7-1.1,1.2c-0.3,0.5-0.4,1.1-0.4,1.8s0.1,1.3,0.4,1.8c0.3,0.5,0.7,0.9,1.1,1.2
			s1,0.4,1.6,0.4S296.7,463.7,297.2,463.4z"/>
		<path d="M60.2,475.1v14.6h-2.5v-5.2c-0.8,1-2,1.4-3.4,1.4c-1,0-2-0.2-2.8-0.7c-0.8-0.5-1.5-1.1-1.9-1.9c-0.5-0.8-0.7-1.8-0.7-2.9
			c0-1.1,0.2-2,0.7-2.9c0.5-0.8,1.1-1.5,1.9-1.9s1.7-0.7,2.8-0.7c0.7,0,1.4,0.1,2,0.4c0.6,0.3,1.1,0.6,1.5,1.1v-1.4H60.2z
			 M56.8,482.9c0.6-0.6,0.9-1.4,0.9-2.4s-0.3-1.8-0.9-2.4c-0.6-0.6-1.4-0.9-2.3-0.9s-1.7,0.3-2.3,0.9s-0.9,1.4-0.9,2.4
			s0.3,1.8,0.9,2.4s1.4,0.9,2.3,0.9S56.2,483.5,56.8,482.9z"/>
		<path d="M73.8,475.1v10.7h-2.4v-1.4c-0.4,0.5-0.9,0.9-1.5,1.1S68.7,486,68,486c-1.4,0-2.6-0.4-3.4-1.2s-1.2-2-1.2-3.5v-6.1h2.5
			v5.8c0,1,0.2,1.7,0.6,2.2c0.4,0.5,1,0.7,1.9,0.7c0.9,0,1.6-0.3,2.1-0.8c0.5-0.6,0.8-1.4,0.8-2.4v-5.4H73.8z"/>
		<path d="M84.7,476.1c0.8,0.8,1.2,1.9,1.2,3.4v6.3h-2.4v-1.3c-0.3,0.5-0.7,0.8-1.3,1.1c-0.6,0.2-1.2,0.4-2.1,0.4
			c-0.8,0-1.5-0.1-2.1-0.4c-0.6-0.3-1.1-0.7-1.4-1.1c-0.3-0.5-0.5-1-0.5-1.6c0-1,0.4-1.7,1.1-2.3c0.7-0.6,1.8-0.9,3.4-0.9h2.8v-0.2
			c0-0.7-0.2-1.3-0.7-1.7c-0.4-0.4-1.1-0.6-2-0.6c-0.6,0-1.2,0.1-1.8,0.3c-0.6,0.2-1.1,0.4-1.5,0.8l-1-1.8c0.6-0.4,1.2-0.8,2-1
			c0.8-0.2,1.6-0.3,2.5-0.3C82.7,475,83.9,475.4,84.7,476.1z M82.5,483.7c0.5-0.3,0.8-0.7,1-1.2v-1.2h-2.6c-1.4,0-2.2,0.5-2.2,1.4
			c0,0.5,0.2,0.8,0.5,1.1c0.4,0.3,0.9,0.4,1.5,0.4C81.4,484.1,82,484,82.5,483.7z"/>
		<path d="M89.2,471h2.5v14.8h-2.5V471z"/>
		<path d="M95.1,472.9c-0.3-0.3-0.5-0.6-0.5-1.1c0-0.4,0.2-0.8,0.5-1.1s0.7-0.4,1.1-0.4s0.8,0.1,1.1,0.4c0.3,0.3,0.5,0.6,0.5,1
			c0,0.4-0.1,0.8-0.5,1.1c-0.3,0.3-0.7,0.4-1.1,0.4C95.8,473.4,95.4,473.2,95.1,472.9z M95,475.1h2.5v10.7H95V475.1z"/>
		<path d="M103.5,474.6v0.6h2.9v2h-2.9v8.6h-2.5v-8.6h-1.8v-2h1.8v-0.7c0-1.1,0.3-2,1-2.7c0.7-0.7,1.6-1,2.8-1c1,0,1.7,0.2,2.3,0.6
			l-0.7,1.9c-0.4-0.3-0.9-0.4-1.4-0.4C104,472.9,103.5,473.4,103.5,474.6z M109.9,472.9c-0.3-0.3-0.5-0.6-0.5-1.1
			c0-0.4,0.2-0.8,0.5-1.1c0.3-0.3,0.7-0.4,1.1-0.4s0.8,0.1,1.1,0.4c0.3,0.3,0.5,0.6,0.5,1c0,0.4-0.1,0.8-0.5,1.1
			c-0.3,0.3-0.7,0.4-1.1,0.4C110.5,473.4,110.2,473.2,109.9,472.9z M109.7,475.1h2.5v10.7h-2.5V475.1z"/>
		<path d="M125.5,481.3h-8.4c0.1,0.8,0.5,1.4,1.2,1.9c0.6,0.5,1.4,0.7,2.3,0.7c1.2,0,2.1-0.4,2.9-1.2l1.3,1.5
			c-0.5,0.6-1.1,1-1.8,1.3c-0.7,0.3-1.6,0.4-2.5,0.4c-1.2,0-2.2-0.2-3.1-0.7c-0.9-0.5-1.6-1.1-2.1-2c-0.5-0.8-0.7-1.8-0.7-2.8
			c0-1,0.2-2,0.7-2.8c0.5-0.8,1.1-1.5,2-1.9s1.8-0.7,2.8-0.7c1,0,2,0.2,2.8,0.7c0.8,0.5,1.5,1.1,1.9,1.9c0.5,0.8,0.7,1.8,0.7,2.9
			C125.6,480.7,125.5,481,125.5,481.3z M118.1,477.7c-0.6,0.5-0.9,1.1-1,1.9h6.1c-0.1-0.8-0.4-1.4-1-1.9c-0.5-0.5-1.2-0.7-2-0.7
			C119.4,477,118.7,477.3,118.1,477.7z"/>
		<path d="M138.4,471v14.8H136v-1.4c-0.4,0.5-0.9,0.9-1.5,1.1c-0.6,0.3-1.3,0.4-2,0.4c-1,0-2-0.2-2.8-0.7c-0.8-0.5-1.5-1.1-1.9-1.9
			s-0.7-1.8-0.7-2.9s0.2-2,0.7-2.9c0.5-0.8,1.1-1.5,1.9-1.9c0.8-0.5,1.7-0.7,2.8-0.7c0.7,0,1.4,0.1,1.9,0.4c0.6,0.2,1.1,0.6,1.5,1.1
			V471H138.4z M134.4,483.4c0.5-0.3,0.9-0.7,1.1-1.2c0.3-0.5,0.4-1.1,0.4-1.8s-0.1-1.3-0.4-1.8c-0.3-0.5-0.7-0.9-1.1-1.2
			s-1-0.4-1.6-0.4s-1.1,0.1-1.6,0.4s-0.9,0.7-1.1,1.2c-0.3,0.5-0.4,1.1-0.4,1.8s0.1,1.3,0.4,1.8c0.3,0.5,0.7,0.9,1.1,1.2
			s1,0.4,1.6,0.4S133.9,483.7,134.4,483.4z"/>
		<path d="M147.2,471h2.5v14.8h-2.5V471z"/>
		<path d="M163,481.3h-8.4c0.1,0.8,0.5,1.4,1.2,1.9c0.6,0.5,1.4,0.7,2.3,0.7c1.2,0,2.1-0.4,2.9-1.2l1.3,1.5c-0.5,0.6-1.1,1-1.8,1.3
			c-0.7,0.3-1.6,0.4-2.5,0.4c-1.2,0-2.2-0.2-3.1-0.7c-0.9-0.5-1.6-1.1-2.1-2c-0.5-0.8-0.7-1.8-0.7-2.8c0-1,0.2-2,0.7-2.8
			c0.5-0.8,1.1-1.5,2-1.9s1.8-0.7,2.8-0.7c1,0,2,0.2,2.8,0.7c0.8,0.5,1.5,1.1,1.9,1.9c0.5,0.8,0.7,1.8,0.7,2.9
			C163,480.7,163,481,163,481.3z M155.6,477.7c-0.6,0.5-0.9,1.1-1,1.9h6.1c-0.1-0.8-0.4-1.4-1-1.9c-0.5-0.5-1.2-0.7-2-0.7
			C156.8,477,156.2,477.3,155.6,477.7z"/>
		<path d="M172.8,476.1c0.8,0.8,1.2,1.9,1.2,3.4v6.3h-2.4v-1.3c-0.3,0.5-0.7,0.8-1.3,1.1c-0.6,0.2-1.2,0.4-2.1,0.4
			c-0.8,0-1.5-0.1-2.1-0.4c-0.6-0.3-1.1-0.7-1.4-1.1c-0.3-0.5-0.5-1-0.5-1.6c0-1,0.4-1.7,1.1-2.3c0.7-0.6,1.8-0.9,3.4-0.9h2.8v-0.2
			c0-0.7-0.2-1.3-0.7-1.7c-0.4-0.4-1.1-0.6-2-0.6c-0.6,0-1.2,0.1-1.8,0.3c-0.6,0.2-1.1,0.4-1.5,0.8l-1-1.8c0.6-0.4,1.2-0.8,2-1
			c0.8-0.2,1.6-0.3,2.5-0.3C170.8,475,172,475.4,172.8,476.1z M170.5,483.7c0.5-0.3,0.8-0.7,1-1.2v-1.2H169c-1.4,0-2.2,0.5-2.2,1.4
			c0,0.5,0.2,0.8,0.5,1.1c0.4,0.3,0.9,0.4,1.5,0.4C169.5,484.1,170.1,484,170.5,483.7z"/>
		<path d="M187.8,471v14.8h-2.4v-1.4c-0.4,0.5-0.9,0.9-1.5,1.1c-0.6,0.3-1.3,0.4-2,0.4c-1,0-2-0.2-2.8-0.7c-0.8-0.5-1.5-1.1-1.9-1.9
			s-0.7-1.8-0.7-2.9s0.2-2,0.7-2.9c0.5-0.8,1.1-1.5,1.9-1.9c0.8-0.5,1.7-0.7,2.8-0.7c0.7,0,1.4,0.1,1.9,0.4c0.6,0.2,1.1,0.6,1.5,1.1
			V471H187.8z M183.8,483.4c0.5-0.3,0.9-0.7,1.1-1.2c0.3-0.5,0.4-1.1,0.4-1.8s-0.1-1.3-0.4-1.8c-0.3-0.5-0.7-0.9-1.1-1.2
			s-1-0.4-1.6-0.4s-1.1,0.1-1.6,0.4s-0.9,0.7-1.1,1.2c-0.3,0.5-0.4,1.1-0.4,1.8s0.1,1.3,0.4,1.8c0.3,0.5,0.7,0.9,1.1,1.2
			s1,0.4,1.6,0.4S183.3,483.7,183.8,483.4z"/>
		<path d="M191.9,485.6c-0.8-0.2-1.5-0.5-2-0.9l1-1.9c0.5,0.3,1.1,0.6,1.7,0.8c0.7,0.2,1.3,0.3,2,0.3c1.5,0,2.2-0.4,2.2-1.2
			c0-0.4-0.2-0.6-0.6-0.8c-0.4-0.1-1-0.3-1.8-0.4c-0.9-0.1-1.6-0.3-2.1-0.5c-0.6-0.2-1-0.5-1.4-0.9c-0.4-0.4-0.6-1-0.6-1.8
			c0-1,0.4-1.8,1.3-2.4s2-0.9,3.4-0.9c0.7,0,1.5,0.1,2.2,0.2c0.7,0.2,1.3,0.4,1.8,0.7l-1,1.9c-0.9-0.5-1.9-0.8-3.1-0.8
			c-0.7,0-1.3,0.1-1.7,0.3s-0.6,0.5-0.6,0.9c0,0.4,0.2,0.7,0.6,0.8c0.4,0.2,1,0.3,1.9,0.5c0.9,0.1,1.6,0.3,2.1,0.5s1,0.5,1.4,0.9
			c0.4,0.4,0.6,1,0.6,1.8c0,1-0.4,1.8-1.3,2.4c-0.9,0.6-2,0.9-3.5,0.9C193.5,486,192.7,485.8,191.9,485.6z"/>
		<path d="M38.3,519.5c-0.3-0.3-0.5-0.7-0.5-1.2c0-0.5,0.2-0.9,0.5-1.2c0.3-0.3,0.7-0.5,1.2-0.5s0.9,0.2,1.2,0.5s0.5,0.7,0.5,1.2
			c0,0.5-0.2,0.9-0.5,1.2c-0.3,0.3-0.7,0.5-1.2,0.5C39,520,38.6,519.8,38.3,519.5z"/>
		<path d="M61.1,513.8c0.5,0.6,0.7,1.3,0.7,2.2c0,1.2-0.5,2.1-1.4,2.8c-0.9,0.7-2.3,1-4.1,1h-7v-14h6.6c1.7,0,2.9,0.3,3.8,1
			c0.9,0.6,1.3,1.5,1.3,2.7c0,0.7-0.2,1.3-0.5,1.8c-0.3,0.5-0.8,0.9-1.3,1.2C60,512.8,60.6,513.2,61.1,513.8z M51.9,507.9v3.9h3.7
			c0.9,0,1.6-0.2,2.1-0.5c0.5-0.3,0.7-0.8,0.7-1.4c0-0.6-0.2-1.1-0.7-1.5c-0.5-0.3-1.2-0.5-2.1-0.5H51.9z M59.1,515.8c0-1.3-1-2-3-2
			h-4.2v4h4.2C58.1,517.8,59.1,517.1,59.1,515.8z"/>
		<path d="M66.2,519.3c-0.9-0.5-1.5-1.1-2-2c-0.5-0.8-0.7-1.8-0.7-2.8s0.2-2,0.7-2.8c0.5-0.8,1.2-1.5,2-1.9s1.8-0.7,2.9-0.7
			c1.1,0,2.1,0.2,2.9,0.7s1.5,1.1,2,1.9c0.5,0.8,0.7,1.8,0.7,2.8s-0.2,2-0.7,2.8c-0.5,0.8-1.2,1.5-2,2s-1.8,0.7-2.9,0.7
			C68,520,67,519.7,66.2,519.3z M71.4,516.9c0.6-0.6,0.9-1.4,0.9-2.4s-0.3-1.8-0.9-2.4c-0.6-0.6-1.4-0.9-2.3-0.9s-1.7,0.3-2.3,0.9
			c-0.6,0.6-0.9,1.4-0.9,2.4s0.3,1.8,0.9,2.4s1.4,0.9,2.3,0.9S70.8,517.5,71.4,516.9z"/>
		<path d="M79.1,519.3c-0.9-0.5-1.5-1.1-2-2c-0.5-0.8-0.7-1.8-0.7-2.8s0.2-2,0.7-2.8c0.5-0.8,1.2-1.5,2-1.9s1.8-0.7,2.9-0.7
			c1.1,0,2.1,0.2,2.9,0.7s1.5,1.1,2,1.9c0.5,0.8,0.7,1.8,0.7,2.8s-0.2,2-0.7,2.8c-0.5,0.8-1.2,1.5-2,2S83.1,520,82,520
			C80.9,520,79.9,519.7,79.1,519.3z M84.3,516.9c0.6-0.6,0.9-1.4,0.9-2.4s-0.3-1.8-0.9-2.4c-0.6-0.6-1.4-0.9-2.3-0.9
			s-1.7,0.3-2.3,0.9c-0.6,0.6-0.9,1.4-0.9,2.4s0.3,1.8,0.9,2.4s1.4,0.9,2.3,0.9S83.7,517.5,84.3,516.9z"/>
		<path d="M90.9,519.6c-0.8-0.2-1.5-0.5-2-0.9l1-1.9c0.5,0.3,1.1,0.6,1.7,0.8c0.7,0.2,1.3,0.3,2,0.3c1.5,0,2.2-0.4,2.2-1.2
			c0-0.4-0.2-0.6-0.6-0.8c-0.4-0.1-1-0.3-1.8-0.4c-0.9-0.1-1.6-0.3-2.1-0.5c-0.6-0.2-1-0.5-1.4-0.9c-0.4-0.4-0.6-1-0.6-1.8
			c0-1,0.4-1.8,1.3-2.4s2-0.9,3.4-0.9c0.7,0,1.5,0.1,2.2,0.2c0.7,0.2,1.3,0.4,1.8,0.7l-1,1.9c-0.9-0.5-1.9-0.8-3.1-0.8
			c-0.7,0-1.3,0.1-1.7,0.3s-0.6,0.5-0.6,0.9c0,0.4,0.2,0.7,0.6,0.8c0.4,0.2,1,0.3,1.9,0.5c0.9,0.1,1.6,0.3,2.1,0.5s1,0.5,1.4,0.9
			c0.4,0.4,0.6,1,0.6,1.8c0,1-0.4,1.8-1.3,2.4c-0.9,0.6-2,0.9-3.5,0.9C92.5,520,91.7,519.8,90.9,519.6z"/>
		<path d="M106.8,519.2c-0.3,0.2-0.6,0.4-1.1,0.5c-0.4,0.1-0.9,0.2-1.3,0.2c-1.2,0-2.1-0.3-2.7-0.9s-1-1.5-1-2.7v-5.1H99v-2h1.8
			v-2.4h2.5v2.4h2.9v2h-2.9v5.1c0,0.5,0.1,0.9,0.4,1.2s0.6,0.4,1.1,0.4c0.6,0,1-0.1,1.4-0.4L106.8,519.2z"/>
		<path d="M124.4,509.1l-5,11.5c-0.5,1.2-1,2-1.7,2.4c-0.7,0.5-1.5,0.7-2.4,0.7c-0.5,0-1.1-0.1-1.6-0.3c-0.5-0.2-0.9-0.4-1.3-0.7
			l1-1.8c0.2,0.2,0.5,0.4,0.8,0.5c0.3,0.1,0.7,0.2,1,0.2c0.4,0,0.8-0.1,1.1-0.3s0.6-0.6,0.8-1.1l0.2-0.4l-4.7-10.7h2.6l3.4,7.9
			l3.4-7.9H124.4z"/>
		<path d="M127.5,519.3c-0.9-0.5-1.5-1.1-2-2c-0.5-0.8-0.7-1.8-0.7-2.8s0.2-2,0.7-2.8c0.5-0.8,1.2-1.5,2-1.9s1.8-0.7,2.9-0.7
			c1.1,0,2.1,0.2,2.9,0.7s1.5,1.1,2,1.9c0.5,0.8,0.7,1.8,0.7,2.8s-0.2,2-0.7,2.8c-0.5,0.8-1.2,1.5-2,2s-1.8,0.7-2.9,0.7
			C129.4,520,128.4,519.7,127.5,519.3z M132.7,516.9c0.6-0.6,0.9-1.4,0.9-2.4s-0.3-1.8-0.9-2.4c-0.6-0.6-1.4-0.9-2.3-0.9
			s-1.7,0.3-2.3,0.9c-0.6,0.6-0.9,1.4-0.9,2.4s0.3,1.8,0.9,2.4s1.4,0.9,2.3,0.9S132.1,517.5,132.7,516.9z"/>
		<path d="M148.9,509.1v10.7h-2.4v-1.4c-0.4,0.5-0.9,0.9-1.5,1.1s-1.2,0.4-1.9,0.4c-1.4,0-2.6-0.4-3.4-1.2s-1.2-2-1.2-3.5v-6.1h2.5
			v5.8c0,1,0.2,1.7,0.6,2.2c0.4,0.5,1,0.7,1.9,0.7c0.9,0,1.6-0.3,2.1-0.8c0.5-0.6,0.8-1.4,0.8-2.4v-5.4H148.9z"/>
		<path d="M158.4,509v2.4c-0.2,0-0.4-0.1-0.6-0.1c-1,0-1.7,0.3-2.3,0.9c-0.5,0.6-0.8,1.4-0.8,2.5v5.2h-2.5v-10.7h2.4v1.6
			C155.3,509.6,156.5,509,158.4,509z"/>
		<path d="M166.9,519.6c-0.8-0.2-1.5-0.5-2-0.9l1-1.9c0.5,0.3,1.1,0.6,1.7,0.8c0.7,0.2,1.3,0.3,2,0.3c1.5,0,2.2-0.4,2.2-1.2
			c0-0.4-0.2-0.6-0.6-0.8c-0.4-0.1-1-0.3-1.8-0.4c-0.9-0.1-1.6-0.3-2.1-0.5c-0.6-0.2-1-0.5-1.4-0.9c-0.4-0.4-0.6-1-0.6-1.8
			c0-1,0.4-1.8,1.3-2.4s2-0.9,3.4-0.9c0.7,0,1.5,0.1,2.2,0.2c0.7,0.2,1.3,0.4,1.8,0.7l-1,1.9c-0.9-0.5-1.9-0.8-3.1-0.8
			c-0.7,0-1.3,0.1-1.7,0.3s-0.6,0.5-0.6,0.9c0,0.4,0.2,0.7,0.6,0.8c0.4,0.2,1,0.3,1.9,0.5c0.9,0.1,1.6,0.3,2.1,0.5s1,0.5,1.4,0.9
			c0.4,0.4,0.6,1,0.6,1.8c0,1-0.4,1.8-1.3,2.4c-0.9,0.6-2,0.9-3.5,0.9C168.5,520,167.7,519.8,166.9,519.6z"/>
		<path d="M184.1,510.1c0.8,0.8,1.2,1.9,1.2,3.4v6.3H183v-1.3c-0.3,0.5-0.7,0.8-1.3,1.1c-0.6,0.2-1.2,0.4-2.1,0.4
			c-0.8,0-1.5-0.1-2.1-0.4c-0.6-0.3-1.1-0.7-1.4-1.1c-0.3-0.5-0.5-1-0.5-1.6c0-1,0.4-1.7,1.1-2.3c0.7-0.6,1.8-0.9,3.4-0.9h2.8v-0.2
			c0-0.7-0.2-1.3-0.7-1.7c-0.4-0.4-1.1-0.6-2-0.6c-0.6,0-1.2,0.1-1.8,0.3c-0.6,0.2-1.1,0.4-1.5,0.8l-1-1.8c0.6-0.4,1.2-0.8,2-1
			c0.8-0.2,1.6-0.3,2.5-0.3C182,509,183.3,509.4,184.1,510.1z M181.8,517.7c0.5-0.3,0.8-0.7,1-1.2v-1.2h-2.6c-1.4,0-2.2,0.5-2.2,1.4
			c0,0.5,0.2,0.8,0.5,1.1c0.4,0.3,0.9,0.4,1.5,0.4C180.8,518.1,181.3,518,181.8,517.7z"/>
		<path d="M188.5,505h2.5v14.8h-2.5V505z"/>
		<path d="M204.3,515.3h-8.4c0.1,0.8,0.5,1.4,1.2,1.9c0.6,0.5,1.4,0.7,2.3,0.7c1.2,0,2.1-0.4,2.9-1.2l1.3,1.5
			c-0.5,0.6-1.1,1-1.8,1.3c-0.7,0.3-1.6,0.4-2.5,0.4c-1.2,0-2.2-0.2-3.1-0.7c-0.9-0.5-1.6-1.1-2.1-2c-0.5-0.8-0.7-1.8-0.7-2.8
			c0-1,0.2-2,0.7-2.8c0.5-0.8,1.1-1.5,2-1.9s1.8-0.7,2.8-0.7c1,0,2,0.2,2.8,0.7c0.8,0.5,1.5,1.1,1.9,1.9c0.5,0.8,0.7,1.8,0.7,2.9
			C204.4,514.7,204.3,515,204.3,515.3z M196.9,511.7c-0.6,0.5-0.9,1.1-1,1.9h6.1c-0.1-0.8-0.4-1.4-1-1.9c-0.5-0.5-1.2-0.7-2-0.7
			C198.2,511,197.5,511.3,196.9,511.7z"/>
		<path d="M207.5,519.6c-0.8-0.2-1.5-0.5-2-0.9l1-1.9c0.5,0.3,1.1,0.6,1.7,0.8c0.7,0.2,1.3,0.3,2,0.3c1.5,0,2.2-0.4,2.2-1.2
			c0-0.4-0.2-0.6-0.6-0.8c-0.4-0.1-1-0.3-1.8-0.4c-0.9-0.1-1.6-0.3-2.1-0.5c-0.6-0.2-1-0.5-1.4-0.9c-0.4-0.4-0.6-1-0.6-1.8
			c0-1,0.4-1.8,1.3-2.4s2-0.9,3.4-0.9c0.7,0,1.5,0.1,2.2,0.2c0.7,0.2,1.3,0.4,1.8,0.7l-1,1.9c-0.9-0.5-1.9-0.8-3.1-0.8
			c-0.7,0-1.3,0.1-1.7,0.3s-0.6,0.5-0.6,0.9c0,0.4,0.2,0.7,0.6,0.8c0.4,0.2,1,0.3,1.9,0.5c0.9,0.1,1.6,0.3,2.1,0.5s1,0.5,1.4,0.9
			c0.4,0.4,0.6,1,0.6,1.8c0,1-0.4,1.8-1.3,2.4c-0.9,0.6-2,0.9-3.5,0.9C209.2,520,208.3,519.8,207.5,519.6z"/>
		<path d="M38.3,553.5c-0.3-0.3-0.5-0.7-0.5-1.2c0-0.5,0.2-0.9,0.5-1.2c0.3-0.3,0.7-0.5,1.2-0.5s0.9,0.2,1.2,0.5s0.5,0.7,0.5,1.2
			c0,0.5-0.2,0.9-0.5,1.2c-0.3,0.3-0.7,0.5-1.2,0.5C39,554,38.6,553.8,38.3,553.5z"/>
		<path d="M61.1,547.8c0.5,0.6,0.7,1.3,0.7,2.2c0,1.2-0.5,2.1-1.4,2.8c-0.9,0.7-2.3,1-4.1,1h-7v-14h6.6c1.7,0,2.9,0.3,3.8,1
			c0.9,0.6,1.3,1.5,1.3,2.7c0,0.7-0.2,1.3-0.5,1.8c-0.3,0.5-0.8,0.9-1.3,1.2C60,546.8,60.6,547.2,61.1,547.8z M51.9,541.9v3.9h3.7
			c0.9,0,1.6-0.2,2.1-0.5c0.5-0.3,0.7-0.8,0.7-1.4c0-0.6-0.2-1.1-0.7-1.5c-0.5-0.3-1.2-0.5-2.1-0.5H51.9z M59.1,549.8c0-1.3-1-2-3-2
			h-4.2v4h4.2C58.1,551.8,59.1,551.1,59.1,549.8z"/>
		<path d="M74.6,543.1v10.7h-2.4v-1.4c-0.4,0.5-0.9,0.9-1.5,1.1s-1.2,0.4-1.9,0.4c-1.4,0-2.6-0.4-3.4-1.2s-1.2-2-1.2-3.5v-6.1h2.5
			v5.8c0,1,0.2,1.7,0.6,2.2c0.4,0.5,1,0.7,1.9,0.7c0.9,0,1.6-0.3,2.1-0.8c0.5-0.6,0.8-1.4,0.8-2.4v-5.4H74.6z"/>
		<path d="M78,540.9c-0.3-0.3-0.5-0.6-0.5-1.1c0-0.4,0.2-0.8,0.5-1.1s0.7-0.4,1.1-0.4s0.8,0.1,1.1,0.4c0.3,0.3,0.5,0.6,0.5,1
			c0,0.4-0.1,0.8-0.5,1.1c-0.3,0.3-0.7,0.4-1.1,0.4C78.7,541.4,78.3,541.2,78,540.9z M77.9,543.1h2.5v10.7h-2.5V543.1z"/>
		<path d="M83.7,539h2.5v14.8h-2.5V539z"/>
		<path d="M99.9,539v14.8h-2.4v-1.4c-0.4,0.5-0.9,0.9-1.5,1.1c-0.6,0.3-1.3,0.4-2,0.4c-1,0-2-0.2-2.8-0.7c-0.8-0.5-1.5-1.1-1.9-1.9
			s-0.7-1.8-0.7-2.9s0.2-2,0.7-2.9c0.5-0.8,1.1-1.5,1.9-1.9C92,543.2,93,543,94,543c0.7,0,1.4,0.1,1.9,0.4c0.6,0.2,1.1,0.6,1.5,1.1
			V539H99.9z M95.9,551.4c0.5-0.3,0.9-0.7,1.1-1.2c0.3-0.5,0.4-1.1,0.4-1.8s-0.1-1.3-0.4-1.8c-0.3-0.5-0.7-0.9-1.1-1.2
			s-1-0.4-1.6-0.4s-1.1,0.1-1.6,0.4s-0.9,0.7-1.1,1.2c-0.3,0.5-0.4,1.1-0.4,1.8s0.1,1.3,0.4,1.8c0.3,0.5,0.7,0.9,1.1,1.2
			s1,0.4,1.6,0.4S95.4,551.7,95.9,551.4z"/>
		<path d="M115.2,553.2c-0.3,0.2-0.6,0.4-1.1,0.5c-0.4,0.1-0.9,0.2-1.3,0.2c-1.2,0-2.1-0.3-2.7-0.9s-1-1.5-1-2.7v-5.1h-1.8v-2h1.8
			v-2.4h2.5v2.4h2.9v2h-2.9v5.1c0,0.5,0.1,0.9,0.4,1.2s0.6,0.4,1.1,0.4c0.6,0,1-0.1,1.4-0.4L115.2,553.2z"/>
		<path d="M123.4,543v2.4c-0.2,0-0.4-0.1-0.6-0.1c-1,0-1.7,0.3-2.3,0.9c-0.5,0.6-0.8,1.4-0.8,2.5v5.2h-2.5v-10.7h2.4v1.6
			C120.3,543.6,121.6,543,123.4,543z"/>
		<path d="M136,543.1v10.7h-2.4v-1.4c-0.4,0.5-0.9,0.9-1.5,1.1s-1.2,0.4-1.9,0.4c-1.4,0-2.6-0.4-3.4-1.2s-1.2-2-1.2-3.5v-6.1h2.5
			v5.8c0,1,0.2,1.7,0.6,2.2c0.4,0.5,1,0.7,1.9,0.7c0.9,0,1.6-0.3,2.1-0.8c0.5-0.6,0.8-1.4,0.8-2.4v-5.4H136z"/>
		<path d="M140,553.6c-0.8-0.2-1.5-0.5-2-0.9l1-1.9c0.5,0.3,1.1,0.6,1.7,0.8c0.7,0.2,1.3,0.3,2,0.3c1.5,0,2.2-0.4,2.2-1.2
			c0-0.4-0.2-0.6-0.6-0.8c-0.4-0.1-1-0.3-1.8-0.4c-0.9-0.1-1.6-0.3-2.1-0.5c-0.6-0.2-1-0.5-1.4-0.9c-0.4-0.4-0.6-1-0.6-1.8
			c0-1,0.4-1.8,1.3-2.4s2-0.9,3.4-0.9c0.7,0,1.5,0.1,2.2,0.2c0.7,0.2,1.3,0.4,1.8,0.7l-1,1.9c-0.9-0.5-1.9-0.8-3.1-0.8
			c-0.7,0-1.3,0.1-1.7,0.3s-0.6,0.5-0.6,0.9c0,0.4,0.2,0.7,0.6,0.8c0.4,0.2,1,0.3,1.9,0.5c0.9,0.1,1.6,0.3,2.1,0.5s1,0.5,1.4,0.9
			c0.4,0.4,0.6,1,0.6,1.8c0,1-0.4,1.8-1.3,2.4c-0.9,0.6-2,0.9-3.5,0.9C141.7,554,140.8,553.8,140,553.6z"/>
		<path d="M156,553.2c-0.3,0.2-0.6,0.4-1.1,0.5c-0.4,0.1-0.9,0.2-1.3,0.2c-1.2,0-2.1-0.3-2.7-0.9s-1-1.5-1-2.7v-5.1h-1.8v-2h1.8
			v-2.4h2.5v2.4h2.9v2h-2.9v5.1c0,0.5,0.1,0.9,0.4,1.2s0.6,0.4,1.1,0.4c0.6,0,1-0.1,1.4-0.4L156,553.2z"/>
	</g>
</g>
</svg>
