<?xml version="1.0" encoding="utf-8"?>
<!-- Generator: Adobe Illustrator 25.2.3, SVG Export Plug-In . SVG Version: 6.00 Build 0)  -->
<svg version="1.1" id="Layer_1" xmlns="http://www.w3.org/2000/svg" xmlns:xlink="http://www.w3.org/1999/xlink" x="0px" y="0px"
	 viewBox="0 0 640 640" style="enable-background:new 0 0 640 640;" xml:space="preserve">
<style type="text/css">
	.st0{fill:#087892;}
	.st1{fill:none;stroke:#434244;stroke-width:0.5;stroke-miterlimit:10;}
</style>
<g id="a7c4f53d-f7c4-4be7-b1b1-8bac74186a6f">
	<path class="st0" d="M44.2,76c-2.5-1.3-4.6-3.3-6.1-5.7c-2.9-5.1-2.9-11.5,0-16.6c1.5-2.4,3.6-4.4,6.1-5.7c2.7-1.4,5.6-2.1,8.7-2.1
		c2.5,0,5,0.4,7.3,1.4c2.1,0.9,4,2.3,5.5,4.1L61,55.6c-1.9-2.3-4.8-3.7-7.8-3.7c-1.8,0-3.6,0.4-5.2,1.3c-1.5,0.8-2.7,2-3.5,3.5
		c-1.7,3.2-1.7,7.1,0,10.3c0.8,1.5,2,2.7,3.5,3.5c1.6,0.9,3.4,1.3,5.2,1.3c3,0,5.9-1.3,7.8-3.7l4.6,4.3c-1.5,1.8-3.4,3.2-5.5,4.1
		c-2.3,1-4.8,1.4-7.3,1.4C49.8,78.1,46.8,77.4,44.2,76z"/>
	<path class="st0" d="M73.8,76.3c-1.9-1-3.6-2.5-4.7-4.4c-2.3-3.9-2.3-8.8,0-12.7c1.1-1.9,2.8-3.4,4.7-4.4c2.1-1.1,4.4-1.6,6.8-1.6
		c2.4,0,4.7,0.5,6.8,1.6c1.9,1,3.5,2.5,4.7,4.4c2.3,3.9,2.3,8.8,0,12.7c-1.1,1.9-2.7,3.4-4.7,4.4c-2.1,1.1-4.4,1.6-6.8,1.6
		C78.2,77.9,75.9,77.4,73.8,76.3z M85,70.4c1.2-1.3,1.8-3.1,1.7-4.8c0.1-1.8-0.5-3.5-1.7-4.8c-2.4-2.4-6.4-2.4-8.8,0
		c-1.2,1.3-1.8,3.1-1.7,4.8c-0.1,1.8,0.5,3.5,1.7,4.8C78.6,72.8,82.6,72.8,85,70.4z"/>
	<path class="st0" d="M120.1,55.9c1.8,1.8,2.7,4.4,2.7,7.9v13.7h-6.9V64.9c0.1-1.5-0.3-3-1.2-4.2c-0.9-1-2.3-1.5-3.6-1.4
		c-1.6-0.1-3.1,0.5-4.2,1.6c-1.1,1.3-1.7,3.1-1.6,4.8v11.8h-6.9v-24h6.6v2.8c0.9-1,2.1-1.8,3.4-2.3c1.4-0.6,3-0.8,4.5-0.8
		C115.6,53.1,118.2,54,120.1,55.9z"/>
	<path class="st0" d="M144.6,76.3c-0.8,0.5-1.6,0.9-2.5,1.1c-1,0.3-2.1,0.4-3.1,0.4c-2.4,0.2-4.8-0.6-6.6-2.2
		c-1.5-1.4-2.3-3.6-2.3-6.4v-9.8h-3.7v-5.3h3.7v-5.8h6.9v5.8h6v5.3h-6v9.7c-0.1,0.9,0.2,1.7,0.8,2.3c0.6,0.6,1.4,0.9,2.2,0.8
		c1,0,2-0.3,2.8-0.9L144.6,76.3z"/>
	<path class="st0" d="M171.1,67.5H153c0.3,1.4,1.1,2.7,2.3,3.5c1.3,0.9,2.9,1.3,4.6,1.3c1.1,0,2.3-0.2,3.3-0.6c1-0.4,1.9-1,2.7-1.8
		l3.7,4c-2.3,2.6-5.6,3.9-9.9,3.9c-2.5,0-4.9-0.5-7.2-1.6c-2-1-3.7-2.5-4.8-4.4c-2.2-3.9-2.2-8.8,0-12.7c1.1-1.9,2.7-3.4,4.6-4.4
		c2-1.1,4.3-1.6,6.5-1.6c2.2,0,4.4,0.5,6.4,1.5c1.9,1,3.4,2.5,4.5,4.3c1.1,2,1.7,4.3,1.6,6.6C171.2,65.7,171.2,66.3,171.1,67.5z
		 M154.8,59.8c-1.1,0.9-1.8,2.2-2,3.7h11.8c-0.2-1.4-0.9-2.7-2-3.6c-1.1-0.9-2.5-1.4-3.9-1.4C157.3,58.4,155.9,58.9,154.8,59.8z"/>
	<path class="st0" d="M197.6,55.9c1.8,1.8,2.7,4.4,2.7,7.9v13.7h-7V64.9c0.1-1.5-0.3-3-1.2-4.2c-0.9-1-2.3-1.5-3.6-1.4
		c-1.6-0.1-3.1,0.5-4.2,1.6c-1.1,1.3-1.7,3.1-1.6,4.8v11.8h-7v-24h6.6v2.8c1-1,2.2-1.8,3.5-2.3c1.4-0.6,3-0.8,4.5-0.8
		C193.1,53.1,195.7,54,197.6,55.9z"/>
	<path class="st0" d="M222.1,76.3c-0.8,0.5-1.6,0.9-2.5,1.1c-1,0.3-2.1,0.4-3.1,0.4c-2.4,0.2-4.8-0.6-6.6-2.2
		c-1.6-1.5-2.3-3.6-2.3-6.4v-9.8h-3.7v-5.3h3.7v-5.8h6.9v5.8h6v5.3h-6v9.7c-0.1,0.9,0.2,1.7,0.8,2.3c0.6,0.6,1.4,0.9,2.2,0.8
		c1,0,2-0.3,2.8-0.9L222.1,76.3z"/>
	<path class="st0" d="M66.2,123.8v-18.7L57,120.5h-3.2l-9.1-15v18.3h-6.8V92.6h6L55.5,112L67,92.6h5.9l0.1,31.2H66.2z"/>
	<path class="st0" d="M98.1,102.2c2,1.8,3,4.4,3,8v13.7h-6.5v-3c-1.3,2.2-3.7,3.3-7.3,3.3c-1.6,0-3.3-0.3-4.8-0.9
		c-1.3-0.5-2.3-1.4-3.1-2.6c-0.7-1.1-1.1-2.4-1.1-3.7c-0.1-2.1,0.9-4,2.5-5.2c1.7-1.3,4.3-1.9,7.8-1.9h5.5c0.1-1.3-0.4-2.6-1.4-3.5
		c-1.2-0.9-2.7-1.4-4.1-1.3c-1.3,0-2.6,0.2-3.8,0.6c-1.1,0.4-2.2,0.9-3.1,1.6l-2.5-4.9c1.4-1,3-1.7,4.7-2.1c1.8-0.5,3.7-0.8,5.6-0.8
		C93.3,99.5,96.1,100.4,98.1,102.2z M92.2,118.7c0.9-0.5,1.6-1.4,2-2.4v-2.4h-4.8c-2.9,0-4.3,0.9-4.3,2.8c0,0.8,0.3,1.6,1,2.1
		c0.9,0.6,1.9,0.8,2.9,0.8C90.1,119.5,91.2,119.2,92.2,118.7z"/>
	<path class="st0" d="M117.4,100.4c1.6-0.6,3.2-0.9,4.9-0.9v6.4c-0.8-0.1-1.3-0.1-1.6-0.1c-1.7-0.1-3.4,0.5-4.7,1.7
		c-1.2,1.4-1.8,3.2-1.7,5v11.3h-6.9v-24h6.6v3.2C114.9,101.8,116,100.9,117.4,100.4z"/>
	<path class="st0" d="M136.7,114.4l-3.3,3.3v6.1h-7v-33h7v18.7l10.2-9.6h8.3l-10,10.2l10.9,13.8h-8.4L136.7,114.4z"/>
	<path class="st0" d="M178.1,113.8H160c0.3,1.4,1.1,2.7,2.3,3.5c1.3,0.9,2.9,1.4,4.5,1.3c1.1,0,2.3-0.2,3.3-0.6c1-0.4,1.9-1,2.7-1.8
		l3.7,4c-2.2,2.6-5.5,3.9-9.9,3.9c-2.5,0.1-4.9-0.5-7.2-1.6c-2-1-3.7-2.5-4.8-4.4c-2.2-3.9-2.2-8.8,0-12.7c1.1-1.9,2.7-3.4,4.6-4.4
		c2-1.1,4.2-1.6,6.5-1.6c2.2,0,4.4,0.5,6.4,1.5c1.9,1,3.4,2.5,4.5,4.3c1.1,2,1.7,4.3,1.6,6.6C178.2,112,178.2,112.6,178.1,113.8z
		 M161.9,106.1c-1.1,0.9-1.8,2.2-2,3.7h11.8c-0.2-1.4-0.9-2.7-2-3.6C167.3,104.3,164.1,104.3,161.9,106.1L161.9,106.1z"/>
	<path class="st0" d="M198.3,122.7c-0.8,0.5-1.6,0.9-2.5,1.1c-1,0.3-2.1,0.4-3.1,0.4c-2.4,0.2-4.8-0.6-6.6-2.2
		c-1.6-1.5-2.3-3.6-2.3-6.4v-9.8H180v-5.3h3.7v-5.8h7v5.8h6v5.3h-6v9.8c-0.1,0.9,0.2,1.7,0.8,2.3c0.6,0.6,1.4,0.9,2.2,0.8
		c1,0,2-0.3,2.8-0.9L198.3,122.7z"/>
	<path class="st0" d="M202.6,95.4c-1.5-1.4-1.6-3.8-0.2-5.3c0.1-0.1,0.1-0.2,0.2-0.2c0.9-0.8,2-1.2,3.1-1.1c1.1-0.1,2.3,0.3,3.1,1.1
		c0.8,0.7,1.2,1.6,1.2,2.7c0,1.1-0.4,2.1-1.2,2.9C207,96.9,204.4,96.9,202.6,95.4L202.6,95.4z M202.3,99.9h7v24h-7V99.9z"/>
	<path class="st0" d="M237.4,102.2c1.8,1.8,2.7,4.4,2.7,7.9v13.7h-6.9v-12.7c0.1-1.5-0.3-3-1.2-4.3c-0.9-1-2.3-1.5-3.6-1.4
		c-1.6-0.1-3.1,0.5-4.2,1.6c-1.1,1.3-1.7,3.1-1.6,4.8v11.8h-7v-24h6.6v2.8c0.9-1,2.1-1.8,3.4-2.3c1.4-0.6,3-0.8,4.5-0.8
		C232.9,99.3,235.5,100.3,237.4,102.2z"/>
	<path class="st0" d="M271.4,99.9v20c0,4.4-1.1,7.7-3.4,9.8c-2.3,2.1-5.6,3.2-10,3.2c-2.2,0-4.4-0.3-6.6-0.8
		c-1.9-0.5-3.6-1.3-5.2-2.4l2.8-5c1.1,0.9,2.4,1.6,3.8,2c1.5,0.5,3.1,0.7,4.6,0.7c2.4,0,4.2-0.6,5.3-1.6c1.2-1.3,1.9-3.1,1.7-4.9v-1
		c-2,2.1-4.7,3.2-7.6,3c-2.1,0-4.1-0.5-6-1.4c-1.8-0.9-3.3-2.3-4.3-4.1c-2.1-3.8-2.1-8.4,0-12.1c1-1.7,2.5-3.1,4.3-4.1
		c1.9-1,3.9-1.5,6-1.4c3.5,0,6.1,1.1,7.9,3.4v-3.1H271.4z M262.8,115.3c2.3-2.3,2.4-6.1,0-8.5c0,0,0,0,0,0c-1.2-1.1-2.9-1.7-4.5-1.6
		c-1.7-0.1-3.3,0.5-4.6,1.6c-2.3,2.3-2.4,6.1,0,8.5c0,0,0,0,0,0c1.2,1.1,2.9,1.7,4.6,1.6C260,117,261.6,116.5,262.8,115.3z"/>
	<line class="st1" x1="33.8" y1="589.3" x2="611.1" y2="589.3"/>
	
		<image style="overflow:visible;enable-background:new    ;" width="663" height="603" xlink:href="538FA90E5249CCEC.jpeg"  transform="matrix(0.48 0 0 0.48 290.19 299.4598)">
	</image>
</g>
<g>
	<path class="st0" d="M69.4,163.1l-7.1,21H60l-6.1-17.9l-6.2,17.9h-2.3l-7.1-21h2.3l6.1,18.1l6.3-18.1H55l6.2,18.2l6.1-18.2H69.4z"
		/>
	<path class="st0" d="M85.6,176.9H72.4c0.1,1.6,0.8,3,1.9,4c1.1,1,2.6,1.5,4.3,1.5c1,0,1.9-0.2,2.7-0.5c0.8-0.3,1.5-0.9,2.1-1.5
		l1.2,1.4c-0.7,0.8-1.6,1.5-2.6,1.9c-1,0.4-2.2,0.7-3.5,0.7c-1.6,0-3.1-0.3-4.3-1c-1.2-0.7-2.2-1.6-2.9-2.9
		c-0.7-1.2-1.1-2.6-1.1-4.1s0.3-2.9,1-4.1s1.6-2.2,2.8-2.9c1.2-0.7,2.5-1,3.9-1s2.8,0.3,3.9,1c1.2,0.7,2.1,1.6,2.7,2.8
		c0.7,1.2,1,2.6,1,4.2L85.6,176.9z M74.1,171.5c-1,1-1.6,2.2-1.8,3.8h11.2c-0.1-1.6-0.7-2.8-1.8-3.8c-1-1-2.3-1.5-3.9-1.5
		C76.4,170,75.1,170.5,74.1,171.5z"/>
	<path class="st0" d="M112.4,168.3v13.9c0,2.7-0.7,4.7-2,6c-1.3,1.3-3.3,1.9-5.9,1.9c-1.5,0-2.8-0.2-4.2-0.6c-1.3-0.4-2.4-1-3.2-1.8
		l1.1-1.6c0.8,0.7,1.7,1.2,2.8,1.6c1.1,0.4,2.2,0.6,3.4,0.6c2,0,3.5-0.5,4.4-1.4c0.9-0.9,1.4-2.4,1.4-4.3v-2c-0.7,1-1.5,1.8-2.6,2.3
		c-1.1,0.5-2.3,0.8-3.6,0.8c-1.5,0-2.8-0.3-4-1c-1.2-0.6-2.2-1.6-2.9-2.7s-1-2.5-1-4c0-1.5,0.3-2.8,1-4c0.7-1.2,1.6-2.1,2.8-2.7
		c1.2-0.6,2.5-1,4-1c1.3,0,2.6,0.3,3.6,0.8c1.1,0.5,1.9,1.3,2.6,2.3v-3H112.4z M107.4,180.9c0.9-0.5,1.6-1.2,2.1-2.1
		c0.5-0.9,0.8-1.9,0.8-3s-0.3-2.1-0.8-3c-0.5-0.9-1.2-1.5-2.1-2c-0.9-0.5-1.9-0.7-3.1-0.7c-1.1,0-2.2,0.2-3.1,0.7
		c-0.9,0.5-1.6,1.2-2.1,2c-0.5,0.9-0.8,1.9-0.8,3s0.3,2.1,0.8,3c0.5,0.9,1.2,1.6,2.1,2.1c0.9,0.5,1.9,0.7,3.1,0.7
		C105.5,181.6,106.5,181.4,107.4,180.9z"/>
	<path class="st0" d="M132.1,176.9h-13.2c0.1,1.6,0.8,3,1.9,4c1.1,1,2.6,1.5,4.3,1.5c1,0,1.9-0.2,2.7-0.5c0.8-0.3,1.5-0.9,2.1-1.5
		l1.2,1.4c-0.7,0.8-1.6,1.5-2.6,1.9c-1,0.4-2.2,0.7-3.5,0.7c-1.6,0-3.1-0.3-4.3-1c-1.2-0.7-2.2-1.6-2.9-2.9
		c-0.7-1.2-1.1-2.6-1.1-4.1s0.3-2.9,1-4.1s1.6-2.2,2.8-2.9c1.2-0.7,2.5-1,3.9-1s2.8,0.3,3.9,1c1.2,0.7,2.1,1.6,2.7,2.8
		c0.7,1.2,1,2.6,1,4.2L132.1,176.9z M120.7,171.5c-1,1-1.6,2.2-1.8,3.8h11.2c-0.1-1.6-0.7-2.8-1.8-3.8c-1-1-2.3-1.5-3.9-1.5
		C123,170,121.7,170.5,120.7,171.5z"/>
	<path class="st0" d="M149.3,169.9c1.2,1.2,1.8,2.8,1.8,5v9.1h-2.1v-8.9c0-1.6-0.4-2.9-1.2-3.8c-0.8-0.9-2-1.3-3.5-1.3
		c-1.7,0-3,0.5-4,1.5c-1,1-1.5,2.4-1.5,4.2v8.3h-2.1v-15.8h2v2.9c0.6-1,1.4-1.7,2.4-2.2s2.2-0.8,3.6-0.8
		C146.5,168.2,148.1,168.8,149.3,169.9z"/>
	<path class="st0" d="M170.6,176.9h-13.2c0.1,1.6,0.8,3,1.9,4c1.1,1,2.6,1.5,4.3,1.5c1,0,1.9-0.2,2.7-0.5c0.8-0.3,1.5-0.9,2.1-1.5
		l1.2,1.4c-0.7,0.8-1.6,1.5-2.6,1.9c-1,0.4-2.2,0.7-3.5,0.7c-1.6,0-3.1-0.3-4.3-1c-1.2-0.7-2.2-1.6-2.9-2.9
		c-0.7-1.2-1.1-2.6-1.1-4.1s0.3-2.9,1-4.1s1.6-2.2,2.8-2.9c1.2-0.7,2.5-1,3.9-1s2.8,0.3,3.9,1c1.2,0.7,2.1,1.6,2.7,2.8
		c0.7,1.2,1,2.6,1,4.2L170.6,176.9z M159.2,171.5c-1,1-1.6,2.2-1.8,3.8h11.2c-0.1-1.6-0.7-2.8-1.8-3.8c-1-1-2.3-1.5-3.9-1.5
		C161.5,170,160.2,170.5,159.2,171.5z"/>
	<path class="st0" d="M179.3,169c1-0.5,2.2-0.8,3.7-0.8v2.1l-0.5,0c-1.7,0-3,0.5-3.9,1.5c-0.9,1-1.4,2.5-1.4,4.3v8H175v-15.8h2v3.1
		C177.5,170.3,178.3,169.5,179.3,169z"/>
	<path class="st0" d="M197,169.7c1.1,1,1.6,2.6,1.6,4.6v9.8h-2v-2.5c-0.5,0.8-1.2,1.5-2.1,1.9c-0.9,0.5-2,0.7-3.3,0.7
		c-1.8,0-3.2-0.4-4.2-1.3c-1-0.8-1.6-2-1.6-3.3c0-1.3,0.5-2.4,1.5-3.2c1-0.8,2.5-1.2,4.6-1.2h5v-1c0-1.4-0.4-2.4-1.1-3.1
		c-0.8-0.7-1.9-1.1-3.3-1.1c-1,0-2,0.2-2.9,0.5s-1.7,0.8-2.4,1.4l-1-1.6c0.8-0.7,1.8-1.2,2.9-1.6c1.1-0.4,2.3-0.6,3.5-0.6
		C194.3,168.2,195.9,168.7,197,169.7z M194.6,181.7c0.9-0.5,1.5-1.3,1.9-2.4v-2.6h-5c-2.7,0-4,0.9-4,2.8c0,0.9,0.3,1.6,1,2.2
		c0.7,0.5,1.7,0.8,2.9,0.8C192.7,182.6,193.7,182.3,194.6,181.7z"/>
	<path class="st0" d="M212.8,183.1c-0.4,0.4-0.9,0.6-1.5,0.8s-1.2,0.3-1.8,0.3c-1.5,0-2.6-0.4-3.4-1.2s-1.2-1.9-1.2-3.4v-9.5H202
		v-1.8h2.8v-3.5h2.1v3.5h4.8v1.8h-4.8v9.4c0,0.9,0.2,1.7,0.7,2.1c0.5,0.5,1.1,0.7,2,0.7c0.4,0,0.9-0.1,1.3-0.2
		c0.4-0.1,0.8-0.3,1.1-0.6L212.8,183.1z"/>
	<path class="st0" d="M229.8,176.9h-13.2c0.1,1.6,0.8,3,1.9,4c1.1,1,2.6,1.5,4.3,1.5c1,0,1.9-0.2,2.7-0.5c0.8-0.3,1.5-0.9,2.1-1.5
		l1.2,1.4c-0.7,0.8-1.6,1.5-2.6,1.9c-1,0.4-2.2,0.7-3.5,0.7c-1.6,0-3.1-0.3-4.3-1c-1.2-0.7-2.2-1.6-2.9-2.9
		c-0.7-1.2-1.1-2.6-1.1-4.1s0.3-2.9,1-4.1s1.6-2.2,2.8-2.9c1.2-0.7,2.5-1,3.9-1s2.8,0.3,3.9,1c1.2,0.7,2.1,1.6,2.7,2.8
		c0.7,1.2,1,2.6,1,4.2L229.8,176.9z M218.3,171.5c-1,1-1.6,2.2-1.8,3.8h11.2c-0.1-1.6-0.7-2.8-1.8-3.8c-1-1-2.3-1.5-3.9-1.5
		C220.7,170,219.4,170.5,218.3,171.5z"/>
	<path class="st0" d="M244.4,183.3c-1.3-0.7-2.4-1.7-3.1-2.9c-0.7-1.2-1.1-2.7-1.1-4.2s0.4-3,1.1-4.2c0.7-1.2,1.8-2.2,3.1-2.9
		c1.3-0.7,2.8-1.1,4.5-1.1c1.6,0,3,0.3,4.2,1c1.2,0.6,2.1,1.6,2.7,2.8l-2.9,1.7c-0.5-0.7-1-1.3-1.7-1.7s-1.4-0.6-2.3-0.6
		c-1.4,0-2.6,0.5-3.5,1.4s-1.4,2.1-1.4,3.6c0,1.5,0.5,2.7,1.4,3.6c0.9,0.9,2.1,1.4,3.5,1.4c0.8,0,1.6-0.2,2.3-0.6s1.3-0.9,1.7-1.7
		l2.9,1.7c-0.6,1.2-1.5,2.1-2.7,2.8c-1.2,0.7-2.6,1-4.1,1C247.2,184.3,245.7,184,244.4,183.3z"/>
	<path class="st0" d="M261.5,183.3c-1.3-0.7-2.3-1.7-3-2.9s-1.1-2.7-1.1-4.2s0.4-3,1.1-4.2c0.7-1.2,1.7-2.2,3-2.9s2.8-1.1,4.4-1.1
		c1.6,0,3.1,0.4,4.4,1.1c1.3,0.7,2.3,1.7,3,2.9c0.7,1.2,1.1,2.7,1.1,4.2s-0.4,3-1.1,4.2c-0.7,1.2-1.7,2.2-3,2.9
		c-1.3,0.7-2.8,1-4.4,1C264.3,184.3,262.8,184,261.5,183.3z M269.3,179.7c0.9-0.9,1.4-2.1,1.4-3.6s-0.5-2.7-1.4-3.6s-2-1.4-3.4-1.4
		c-1.4,0-2.5,0.5-3.4,1.4c-0.9,0.9-1.3,2.1-1.3,3.6s0.4,2.7,1.3,3.6c0.9,0.9,2,1.4,3.4,1.4C267.3,181.1,268.4,180.6,269.3,179.7z"/>
	<path class="st0" d="M292,169.7c1.2,1.2,1.8,2.9,1.8,5.2v9.2h-3.8v-8.7c0-1.4-0.3-2.5-1-3.2c-0.7-0.7-1.6-1.1-2.8-1.1
		c-1.4,0-2.5,0.4-3.3,1.2c-0.8,0.8-1.2,2-1.2,3.6v8.1h-3.8v-16h3.6v2.1c0.6-0.7,1.4-1.3,2.3-1.7c0.9-0.4,2-0.6,3.2-0.6
		C289.2,167.9,290.8,168.5,292,169.7z"/>
	<path class="st0" d="M313.3,168.1l-6.9,16h-3.9l-6.9-16h3.9l5,11.9l5.1-11.9H313.3z"/>
	<path class="st0" d="M315.8,164.8c-0.5-0.4-0.7-1-0.7-1.6c0-0.6,0.2-1.2,0.7-1.6c0.5-0.4,1-0.6,1.7-0.6c0.7,0,1.2,0.2,1.7,0.6
		c0.5,0.4,0.7,0.9,0.7,1.5c0,0.7-0.2,1.2-0.7,1.7c-0.5,0.5-1,0.7-1.7,0.7C316.9,165.4,316.3,165.2,315.8,164.8z M315.7,168.1h3.8v16
		h-3.8V168.1z"/>
	<path class="st0" d="M338.3,169.7c1.2,1.2,1.8,2.9,1.8,5.2v9.2h-3.8v-8.7c0-1.4-0.3-2.5-1-3.2c-0.7-0.7-1.6-1.1-2.8-1.1
		c-1.4,0-2.5,0.4-3.3,1.2s-1.2,2-1.2,3.6v8.1h-3.8v-16h3.6v2.1c0.6-0.7,1.4-1.3,2.3-1.7c0.9-0.4,2-0.6,3.2-0.6
		C335.4,167.9,337,168.5,338.3,169.7z"/>
	<path class="st0" d="M347.9,183.3c-1.3-0.7-2.4-1.7-3.1-2.9c-0.7-1.2-1.1-2.7-1.1-4.2s0.4-3,1.1-4.2c0.7-1.2,1.8-2.2,3.1-2.9
		s2.8-1.1,4.5-1.1c1.6,0,3,0.3,4.2,1c1.2,0.6,2.1,1.6,2.7,2.8l-2.9,1.7c-0.5-0.7-1-1.3-1.7-1.7s-1.4-0.6-2.3-0.6
		c-1.4,0-2.6,0.5-3.5,1.4s-1.4,2.1-1.4,3.6c0,1.5,0.5,2.7,1.4,3.6c0.9,0.9,2.1,1.4,3.5,1.4c0.8,0,1.6-0.2,2.3-0.6s1.3-0.9,1.7-1.7
		l2.9,1.7c-0.6,1.2-1.5,2.1-2.7,2.8c-1.2,0.7-2.6,1-4.1,1C350.7,184.3,349.2,184,347.9,183.3z"/>
	<path class="st0" d="M362.6,164.8c-0.5-0.4-0.7-1-0.7-1.6c0-0.6,0.2-1.2,0.7-1.6c0.5-0.4,1-0.6,1.7-0.6s1.2,0.2,1.7,0.6
		c0.5,0.4,0.7,0.9,0.7,1.5c0,0.7-0.2,1.2-0.7,1.7c-0.4,0.5-1,0.7-1.7,0.7C363.7,165.4,363.1,165.2,362.6,164.8z M362.4,168.1h3.8v16
		h-3.8V168.1z"/>
	<path class="st0" d="M385.1,169.7c1.2,1.2,1.8,2.9,1.8,5.2v9.2h-3.8v-8.7c0-1.4-0.3-2.5-1-3.2c-0.7-0.7-1.6-1.1-2.8-1.1
		c-1.4,0-2.5,0.4-3.3,1.2c-0.8,0.8-1.2,2-1.2,3.6v8.1h-3.8v-16h3.6v2.1c0.6-0.7,1.4-1.3,2.3-1.7s2-0.6,3.2-0.6
		C382.2,167.9,383.8,168.5,385.1,169.7z"/>
	<path class="st0" d="M407.7,168.1v13.6c0,5.6-2.9,8.5-8.6,8.5c-1.5,0-3-0.2-4.4-0.6c-1.4-0.4-2.5-1-3.4-1.7l1.7-2.8
		c0.7,0.6,1.6,1,2.7,1.4c1.1,0.3,2.2,0.5,3.3,0.5c1.8,0,3-0.4,3.9-1.2c0.8-0.8,1.2-2,1.2-3.7v-0.8c-0.6,0.7-1.4,1.2-2.3,1.6
		s-1.9,0.5-3,0.5c-1.5,0-2.9-0.3-4.1-1c-1.2-0.7-2.2-1.6-2.9-2.7c-0.7-1.2-1.1-2.5-1.1-4.1c0-1.5,0.4-2.9,1.1-4
		c0.7-1.2,1.7-2.1,2.9-2.7c1.2-0.6,2.6-1,4.1-1c1.2,0,2.2,0.2,3.2,0.6s1.7,1,2.4,1.7v-2.1H407.7z M402.7,178.9
		c0.9-0.8,1.4-2,1.4-3.3c0-1.3-0.5-2.4-1.4-3.3s-2.1-1.3-3.5-1.3c-1.4,0-2.6,0.4-3.5,1.3s-1.4,1.9-1.4,3.3c0,1.4,0.5,2.5,1.4,3.3
		c0.9,0.9,2.1,1.3,3.5,1.3C400.6,180.2,401.8,179.8,402.7,178.9z"/>
	<path class="st0" d="M432.5,169.6c1.2,1.1,1.9,2.8,1.9,5.1v9.4h-3.5v-2c-0.5,0.7-1.1,1.2-2,1.6s-1.9,0.6-3.1,0.6
		c-1.2,0-2.2-0.2-3.2-0.6c-0.9-0.4-1.6-1-2.1-1.7c-0.5-0.7-0.7-1.6-0.7-2.5c0-1.4,0.5-2.6,1.6-3.5s2.8-1.3,5.1-1.3h4.1v-0.2
		c0-1.1-0.3-2-1-2.6s-1.7-0.9-3-0.9c-0.9,0-1.8,0.1-2.7,0.4c-0.9,0.3-1.6,0.7-2.2,1.2l-1.5-2.7c0.8-0.6,1.8-1.1,3-1.5
		s2.4-0.5,3.8-0.5C429.4,167.9,431.2,168.5,432.5,169.6z M429,180.9c0.7-0.4,1.2-1,1.5-1.8v-1.9h-3.9c-2.2,0-3.2,0.7-3.2,2.1
		c0,0.7,0.3,1.2,0.8,1.6c0.5,0.4,1.3,0.6,2.2,0.6C427.5,181.6,428.3,181.4,429,180.9z"/>
	<path class="st0" d="M453.1,169.7c1.2,1.2,1.8,2.9,1.8,5.2v9.2h-3.8v-8.7c0-1.4-0.3-2.5-1-3.2c-0.7-0.7-1.6-1.1-2.8-1.1
		c-1.4,0-2.5,0.4-3.3,1.2c-0.8,0.8-1.2,2-1.2,3.6v8.1h-3.8v-16h3.6v2.1c0.6-0.7,1.4-1.3,2.3-1.7s2-0.6,3.2-0.6
		C450.2,167.9,451.9,168.5,453.1,169.7z"/>
	<path class="st0" d="M475.5,161.8v22.3h-3.6V182c-0.6,0.8-1.4,1.3-2.3,1.7c-0.9,0.4-1.9,0.6-3,0.6c-1.5,0-2.9-0.3-4.2-1
		c-1.2-0.7-2.2-1.6-2.9-2.9c-0.7-1.2-1.1-2.7-1.1-4.3s0.3-3,1.1-4.3c0.7-1.2,1.7-2.2,2.9-2.9c1.2-0.7,2.6-1,4.2-1
		c1.1,0,2,0.2,2.9,0.5c0.9,0.4,1.6,0.9,2.2,1.6v-8.2H475.5z M469.5,180.5c0.7-0.4,1.3-1,1.7-1.8c0.4-0.8,0.6-1.6,0.6-2.6
		s-0.2-1.9-0.6-2.6s-1-1.3-1.7-1.8c-0.7-0.4-1.5-0.6-2.4-0.6s-1.7,0.2-2.4,0.6s-1.3,1-1.7,1.8s-0.6,1.6-0.6,2.6s0.2,1.9,0.6,2.6
		c0.4,0.8,1,1.3,1.7,1.8c0.7,0.4,1.5,0.6,2.4,0.6S468.8,180.9,469.5,180.5z"/>
	<path class="st0" d="M54.6,213.3H42.1c0.2,1.2,0.8,2.1,1.7,2.8c0.9,0.7,2.1,1,3.5,1c1.8,0,3.2-0.6,4.4-1.7l2,2.3
		c-0.7,0.9-1.6,1.5-2.7,1.9c-1.1,0.4-2.3,0.7-3.7,0.7c-1.8,0-3.3-0.3-4.7-1s-2.4-1.7-3.1-2.9s-1.1-2.7-1.1-4.2c0-1.6,0.4-3,1.1-4.2
		c0.7-1.2,1.7-2.2,3-2.9c1.3-0.7,2.7-1.1,4.3-1.1c1.6,0,3,0.3,4.2,1c1.2,0.7,2.2,1.7,2.9,2.9s1,2.7,1,4.3
		C54.7,212.4,54.7,212.8,54.6,213.3z M43.5,208c-0.8,0.7-1.3,1.7-1.5,2.8h9.1c-0.2-1.2-0.7-2.1-1.5-2.8c-0.8-0.7-1.8-1.1-3.1-1.1
		C45.4,206.9,44.4,207.2,43.5,208z"/>
	<path class="st0" d="M62.4,203.2v1h4.4v3h-4.3v12.9h-3.8v-12.9h-2.6v-3h2.6v-1c0-1.7,0.5-3.1,1.5-4.1c1-1,2.4-1.5,4.2-1.5
		c1.4,0,2.6,0.3,3.4,0.9l-1,2.8c-0.6-0.4-1.3-0.7-2.1-0.7C63.2,200.7,62.4,201.5,62.4,203.2z"/>
	<path class="st0" d="M73.5,203.2v1h4.4v3h-4.3v12.9h-3.8v-12.9h-2.6v-3h2.6v-1c0-1.7,0.5-3.1,1.5-4.1c1-1,2.4-1.5,4.2-1.5
		c1.4,0,2.6,0.3,3.4,0.9l-1,2.8c-0.6-0.4-1.3-0.7-2.1-0.7C74.3,200.7,73.5,201.5,73.5,203.2z"/>
	<path class="st0" d="M95.2,213.3H82.6c0.2,1.2,0.8,2.1,1.7,2.8c0.9,0.7,2.1,1,3.5,1c1.8,0,3.2-0.6,4.4-1.7l2,2.3
		c-0.7,0.9-1.6,1.5-2.7,1.9c-1.1,0.4-2.3,0.7-3.7,0.7c-1.8,0-3.3-0.3-4.7-1s-2.4-1.7-3.1-2.9s-1.1-2.7-1.1-4.2c0-1.6,0.4-3,1.1-4.2
		c0.7-1.2,1.7-2.2,3-2.9c1.3-0.7,2.7-1.1,4.3-1.1c1.6,0,3,0.3,4.2,1c1.2,0.7,2.2,1.7,2.9,2.9s1,2.7,1,4.3
		C95.2,212.4,95.2,212.8,95.2,213.3z M84.1,208c-0.8,0.7-1.3,1.7-1.5,2.8h9.1c-0.2-1.2-0.7-2.1-1.5-2.8c-0.8-0.7-1.8-1.1-3.1-1.1
		C85.9,206.9,84.9,207.2,84.1,208z"/>
	<path class="st0" d="M101.7,219.3c-1.3-0.7-2.4-1.7-3.1-2.9c-0.7-1.2-1.1-2.7-1.1-4.2s0.4-3,1.1-4.2c0.7-1.2,1.8-2.2,3.1-2.9
		c1.3-0.7,2.8-1.1,4.5-1.1c1.6,0,3,0.3,4.2,1c1.2,0.6,2.1,1.6,2.7,2.8l-2.9,1.7c-0.5-0.7-1-1.3-1.7-1.7s-1.4-0.6-2.3-0.6
		c-1.4,0-2.6,0.5-3.5,1.4s-1.4,2.1-1.4,3.6c0,1.5,0.5,2.7,1.4,3.6c0.9,0.9,2.1,1.4,3.5,1.4c0.8,0,1.6-0.2,2.3-0.6s1.3-0.9,1.7-1.7
		l2.9,1.7c-0.6,1.2-1.5,2.1-2.7,2.8c-1.2,0.7-2.6,1-4.1,1C104.5,220.3,103,220,101.7,219.3z"/>
	<path class="st0" d="M126.1,219.2c-0.4,0.4-1,0.6-1.6,0.8c-0.6,0.2-1.3,0.3-2,0.3c-1.8,0-3.1-0.5-4.1-1.4s-1.4-2.3-1.4-4v-7.7h-2.6
		v-3h2.6v-3.7h3.8v3.7h4.3v3h-4.3v7.6c0,0.8,0.2,1.4,0.6,1.8c0.4,0.4,0.9,0.6,1.6,0.6c0.8,0,1.5-0.2,2.1-0.7L126.1,219.2z"/>
	<path class="st0" d="M129.4,200.8c-0.5-0.4-0.7-1-0.7-1.6c0-0.6,0.2-1.2,0.7-1.6c0.5-0.4,1-0.6,1.7-0.6c0.7,0,1.2,0.2,1.7,0.6
		c0.5,0.4,0.7,0.9,0.7,1.5c0,0.7-0.2,1.2-0.7,1.7c-0.5,0.5-1,0.7-1.7,0.7C130.4,201.4,129.8,201.2,129.4,200.8z M129.2,204.1h3.8v16
		h-3.8V204.1z"/>
	<path class="st0" d="M152.9,204.1l-6.9,16h-3.9l-6.9-16h3.9l5,11.9l5.1-11.9H152.9z"/>
	<path class="st0" d="M169.8,213.3h-12.6c0.2,1.2,0.8,2.1,1.7,2.8c0.9,0.7,2.1,1,3.5,1c1.8,0,3.2-0.6,4.4-1.7l2,2.3
		c-0.7,0.9-1.6,1.5-2.7,1.9c-1.1,0.4-2.3,0.7-3.7,0.7c-1.8,0-3.3-0.3-4.7-1s-2.4-1.7-3.1-2.9s-1.1-2.7-1.1-4.2c0-1.6,0.4-3,1.1-4.2
		c0.7-1.2,1.7-2.2,3-2.9c1.3-0.7,2.7-1.1,4.3-1.1c1.6,0,3,0.3,4.2,1c1.2,0.7,2.2,1.7,2.9,2.9s1,2.7,1,4.3
		C169.8,212.4,169.8,212.8,169.8,213.3z M158.7,208c-0.8,0.7-1.3,1.7-1.5,2.8h9.1c-0.2-1.2-0.7-2.1-1.5-2.8
		c-0.8-0.7-1.8-1.1-3.1-1.1C160.5,206.9,159.5,207.2,158.7,208z"/>
	<path class="st0" d="M182.8,219.8c-1.2-0.3-2.2-0.8-3-1.3l1.4-2.8c0.7,0.5,1.6,0.9,2.6,1.2c1,0.3,2,0.4,3,0.4
		c2.2,0,3.4-0.6,3.4-1.8c0-0.6-0.3-0.9-0.9-1.2c-0.6-0.2-1.5-0.4-2.7-0.6c-1.3-0.2-2.4-0.4-3.2-0.7c-0.8-0.3-1.6-0.7-2.2-1.4
		c-0.6-0.6-0.9-1.6-0.9-2.7c0-1.5,0.6-2.7,1.9-3.6c1.3-0.9,3-1.4,5.1-1.4c1.1,0,2.2,0.1,3.3,0.4c1.1,0.3,2,0.6,2.7,1l-1.4,2.8
		c-1.4-0.8-2.9-1.2-4.6-1.2c-1.1,0-1.9,0.2-2.5,0.5s-0.9,0.8-0.9,1.3c0,0.6,0.3,1,0.9,1.3c0.6,0.2,1.6,0.5,2.8,0.7
		c1.3,0.2,2.3,0.4,3.1,0.7c0.8,0.3,1.5,0.7,2.1,1.3c0.6,0.6,0.9,1.5,0.9,2.6c0,1.5-0.6,2.7-1.9,3.6c-1.3,0.9-3.1,1.3-5.3,1.3
		C185.4,220.3,184.1,220.1,182.8,219.8z"/>
	<path class="st0" d="M206.8,219.2c-0.4,0.4-1,0.6-1.6,0.8c-0.6,0.2-1.3,0.3-2,0.3c-1.8,0-3.1-0.5-4.1-1.4s-1.4-2.3-1.4-4v-7.7H195
		v-3h2.6v-3.7h3.8v3.7h4.3v3h-4.3v7.6c0,0.8,0.2,1.4,0.6,1.8c0.4,0.4,0.9,0.6,1.6,0.6c0.8,0,1.5-0.2,2.1-0.7L206.8,219.2z"/>
	<path class="st0" d="M219.1,203.9v3.6c-0.3-0.1-0.6-0.1-0.9-0.1c-1.5,0-2.6,0.4-3.4,1.3c-0.8,0.8-1.2,2.1-1.2,3.7v7.8h-3.8v-16h3.6
		v2.3C214.5,204.7,216.4,203.9,219.1,203.9z"/>
	<path class="st0" d="M233.8,205.6c1.2,1.1,1.9,2.8,1.9,5.1v9.4h-3.5v-2c-0.5,0.7-1.1,1.2-2,1.6c-0.9,0.4-1.9,0.6-3.1,0.6
		s-2.2-0.2-3.1-0.6c-0.9-0.4-1.6-1-2.1-1.7c-0.5-0.7-0.7-1.6-0.7-2.5c0-1.4,0.5-2.6,1.6-3.5s2.8-1.3,5.1-1.3h4.1v-0.2
		c0-1.1-0.3-2-1-2.6c-0.7-0.6-1.7-0.9-3-0.9c-0.9,0-1.8,0.1-2.7,0.4c-0.9,0.3-1.6,0.7-2.2,1.2l-1.5-2.7c0.8-0.6,1.9-1.1,3-1.5
		c1.2-0.3,2.4-0.5,3.8-0.5C230.7,203.9,232.5,204.5,233.8,205.6z M230.3,216.9c0.7-0.4,1.2-1,1.5-1.8v-1.9H228
		c-2.2,0-3.2,0.7-3.2,2.1c0,0.7,0.3,1.2,0.8,1.6c0.5,0.4,1.3,0.6,2.2,0.6C228.8,217.6,229.6,217.4,230.3,216.9z"/>
	<path class="st0" d="M250.1,219.2c-0.4,0.4-1,0.6-1.6,0.8c-0.6,0.2-1.3,0.3-2,0.3c-1.8,0-3.1-0.5-4.1-1.4s-1.4-2.3-1.4-4v-7.7h-2.6
		v-3h2.6v-3.7h3.8v3.7h4.3v3h-4.3v7.6c0,0.8,0.2,1.4,0.6,1.8c0.4,0.4,0.9,0.6,1.6,0.6c0.8,0,1.5-0.2,2.1-0.7L250.1,219.2z"/>
	<path class="st0" d="M267.6,213.3h-12.6c0.2,1.2,0.8,2.1,1.7,2.8c0.9,0.7,2.1,1,3.5,1c1.8,0,3.2-0.6,4.4-1.7l2,2.3
		c-0.7,0.9-1.6,1.5-2.7,1.9c-1.1,0.4-2.3,0.7-3.7,0.7c-1.8,0-3.3-0.3-4.7-1s-2.4-1.7-3.1-2.9s-1.1-2.7-1.1-4.2c0-1.6,0.4-3,1.1-4.2
		c0.7-1.2,1.7-2.2,3-2.9c1.3-0.7,2.7-1.1,4.3-1.1c1.6,0,3,0.3,4.2,1c1.2,0.7,2.2,1.7,2.9,2.9s1,2.7,1,4.3
		C267.7,212.4,267.7,212.8,267.6,213.3z M256.5,208c-0.8,0.7-1.3,1.7-1.5,2.8h9.1c-0.2-1.2-0.7-2.1-1.5-2.8
		c-0.8-0.7-1.8-1.1-3.1-1.1C258.4,206.9,257.4,207.2,256.5,208z"/>
	<path class="st0" d="M287.2,204.1v13.6c0,5.6-2.9,8.5-8.6,8.5c-1.5,0-3-0.2-4.4-0.6c-1.4-0.4-2.5-1-3.4-1.7l1.7-2.8
		c0.7,0.6,1.6,1,2.7,1.4c1.1,0.3,2.2,0.5,3.3,0.5c1.8,0,3-0.4,3.9-1.2c0.8-0.8,1.2-2,1.2-3.7v-0.8c-0.6,0.7-1.4,1.2-2.3,1.6
		c-0.9,0.4-1.9,0.5-3,0.5c-1.5,0-2.9-0.3-4.1-1c-1.2-0.7-2.2-1.6-2.9-2.7c-0.7-1.2-1.1-2.5-1.1-4.1c0-1.5,0.4-2.9,1.1-4
		c0.7-1.2,1.7-2.1,2.9-2.7c1.2-0.6,2.6-1,4.1-1c1.2,0,2.2,0.2,3.2,0.6s1.7,1,2.4,1.7v-2.1H287.2z M282.1,214.9
		c0.9-0.8,1.4-2,1.4-3.3c0-1.3-0.5-2.4-1.4-3.3c-0.9-0.8-2.1-1.3-3.5-1.3c-1.4,0-2.6,0.4-3.5,1.3c-0.9,0.8-1.4,1.9-1.4,3.3
		c0,1.4,0.5,2.5,1.4,3.3c0.9,0.9,2.1,1.3,3.5,1.3C280.1,216.2,281.2,215.8,282.1,214.9z"/>
	<path class="st0" d="M292.3,200.8c-0.5-0.4-0.7-1-0.7-1.6c0-0.6,0.2-1.2,0.7-1.6c0.5-0.4,1-0.6,1.7-0.6c0.7,0,1.2,0.2,1.7,0.6
		c0.5,0.4,0.7,0.9,0.7,1.5c0,0.7-0.2,1.2-0.7,1.7c-0.5,0.5-1,0.7-1.7,0.7C293.3,201.4,292.7,201.2,292.3,200.8z M292.1,204.1h3.8v16
		h-3.8V204.1z"/>
	<path class="st0" d="M315.8,213.3h-12.6c0.2,1.2,0.8,2.1,1.7,2.8c0.9,0.7,2.1,1,3.5,1c1.8,0,3.2-0.6,4.4-1.7l2,2.3
		c-0.7,0.9-1.6,1.5-2.7,1.9c-1.1,0.4-2.3,0.7-3.7,0.7c-1.8,0-3.3-0.3-4.7-1s-2.4-1.7-3.1-2.9s-1.1-2.7-1.1-4.2c0-1.6,0.4-3,1.1-4.2
		c0.7-1.2,1.7-2.2,3-2.9c1.3-0.7,2.7-1.1,4.3-1.1c1.6,0,3,0.3,4.2,1c1.2,0.7,2.2,1.7,2.9,2.9s1,2.7,1,4.3
		C315.8,212.4,315.8,212.8,315.8,213.3z M304.7,208c-0.8,0.7-1.3,1.7-1.5,2.8h9.1c-0.2-1.2-0.7-2.1-1.5-2.8
		c-0.8-0.7-1.8-1.1-3.1-1.1C306.5,206.9,305.5,207.2,304.7,208z"/>
	<path class="st0" d="M320.6,219.8c-1.2-0.3-2.2-0.8-3-1.3l1.4-2.8c0.7,0.5,1.6,0.9,2.6,1.2c1,0.3,2,0.4,3,0.4
		c2.2,0,3.4-0.6,3.4-1.8c0-0.6-0.3-0.9-0.9-1.2c-0.6-0.2-1.5-0.4-2.7-0.6c-1.3-0.2-2.4-0.4-3.2-0.7s-1.6-0.7-2.2-1.4
		c-0.6-0.6-0.9-1.6-0.9-2.7c0-1.5,0.6-2.7,1.9-3.6c1.3-0.9,3-1.4,5.1-1.4c1.1,0,2.2,0.1,3.3,0.4c1.1,0.3,2,0.6,2.7,1l-1.4,2.8
		c-1.4-0.8-2.9-1.2-4.6-1.2c-1.1,0-1.9,0.2-2.5,0.5c-0.6,0.3-0.9,0.8-0.9,1.3c0,0.6,0.3,1,0.9,1.3c0.6,0.2,1.6,0.5,2.8,0.7
		c1.3,0.2,2.3,0.4,3.2,0.7c0.8,0.3,1.5,0.7,2.1,1.3c0.6,0.6,0.9,1.5,0.9,2.6c0,1.5-0.7,2.7-1.9,3.6c-1.3,0.9-3.1,1.3-5.3,1.3
		C323.1,220.3,321.8,220.1,320.6,219.8z"/>
	<path class="st0" d="M351.6,219.1c-0.4,0.4-0.9,0.6-1.5,0.8s-1.2,0.3-1.8,0.3c-1.5,0-2.6-0.4-3.4-1.2s-1.2-1.9-1.2-3.4v-9.5h-2.8
		v-1.8h2.8v-3.5h2.1v3.5h4.8v1.8h-4.8v9.4c0,0.9,0.2,1.7,0.7,2.1c0.5,0.5,1.1,0.7,2,0.7c0.4,0,0.9-0.1,1.3-0.2s0.8-0.3,1.1-0.6
		L351.6,219.1z"/>
	<path class="st0" d="M357.2,219.2c-1.2-0.7-2.2-1.6-2.9-2.9c-0.7-1.2-1.1-2.6-1.1-4.1s0.3-2.9,1.1-4.1c0.7-1.2,1.7-2.2,2.9-2.9
		c1.2-0.7,2.6-1,4.1-1c1.5,0,2.9,0.3,4.1,1c1.2,0.7,2.2,1.6,2.9,2.9s1,2.6,1,4.1s-0.3,2.9-1,4.1c-0.7,1.2-1.6,2.2-2.9,2.9
		s-2.6,1-4.1,1C359.8,220.2,358.4,219.9,357.2,219.2z M364.3,217.6c0.9-0.5,1.6-1.2,2.1-2.2c0.5-0.9,0.8-2,0.8-3.2s-0.2-2.3-0.8-3.2
		s-1.2-1.7-2.1-2.2c-0.9-0.5-1.9-0.8-3-0.8c-1.1,0-2.1,0.3-3,0.8c-0.9,0.5-1.6,1.2-2.1,2.2s-0.8,2-0.8,3.2s0.3,2.3,0.8,3.2
		c0.5,0.9,1.2,1.7,2.1,2.2s1.9,0.8,3,0.8C362.4,218.4,363.4,218.1,364.3,217.6z"/>
	<path class="st0" d="M391.8,205.7c1.1,1,1.7,2.6,1.7,4.6v9.8h-2v-2.5c-0.5,0.8-1.2,1.5-2.1,1.9c-0.9,0.5-2,0.7-3.3,0.7
		c-1.8,0-3.2-0.4-4.2-1.3c-1-0.8-1.6-2-1.6-3.3c0-1.3,0.5-2.4,1.5-3.2s2.5-1.2,4.6-1.2h5v-1c0-1.4-0.4-2.4-1.1-3.1
		c-0.8-0.7-1.9-1.1-3.3-1.1c-1,0-2,0.2-2.9,0.5s-1.7,0.8-2.4,1.4l-1-1.6c0.8-0.7,1.8-1.2,2.9-1.6c1.1-0.4,2.3-0.6,3.5-0.6
		C389.1,204.2,390.7,204.7,391.8,205.7z M389.4,217.7c0.9-0.5,1.5-1.3,1.9-2.4v-2.6h-4.9c-2.7,0-4.1,0.9-4.1,2.8
		c0,0.9,0.3,1.6,1.1,2.2c0.7,0.5,1.7,0.8,2.9,0.8C387.5,218.6,388.5,218.3,389.4,217.7z"/>
	<path class="st0" d="M413.7,197.8v22.3h-2V217c-0.6,1.1-1.5,1.9-2.5,2.4c-1.1,0.6-2.2,0.8-3.6,0.8c-1.5,0-2.8-0.3-4-1
		c-1.2-0.7-2.1-1.6-2.8-2.8c-0.7-1.2-1-2.6-1-4.2c0-1.6,0.3-3,1-4.2c0.7-1.2,1.6-2.2,2.8-2.8c1.2-0.7,2.5-1,4-1
		c1.3,0,2.4,0.3,3.5,0.8c1,0.5,1.9,1.3,2.5,2.3v-9.5H413.7z M408.7,217.6c0.9-0.5,1.6-1.2,2.1-2.2c0.5-0.9,0.8-2,0.8-3.2
		s-0.3-2.3-0.8-3.2s-1.2-1.7-2.1-2.2c-0.9-0.5-1.9-0.8-3-0.8c-1.1,0-2.1,0.3-3,0.8c-0.9,0.5-1.6,1.2-2.1,2.2s-0.8,2-0.8,3.2
		s0.3,2.3,0.8,3.2c0.5,0.9,1.2,1.7,2.1,2.2s1.9,0.8,3,0.8C406.8,218.4,407.8,218.1,408.7,217.6z"/>
	<path class="st0" d="M434,197.8v22.3h-2V217c-0.6,1.1-1.5,1.9-2.5,2.4c-1.1,0.6-2.2,0.8-3.6,0.8c-1.5,0-2.8-0.3-4-1
		c-1.2-0.7-2.1-1.6-2.8-2.8c-0.7-1.2-1-2.6-1-4.2c0-1.6,0.3-3,1-4.2c0.7-1.2,1.6-2.2,2.8-2.8c1.2-0.7,2.5-1,4-1
		c1.3,0,2.4,0.3,3.5,0.8c1,0.5,1.9,1.3,2.5,2.3v-9.5H434z M429.1,217.6c0.9-0.5,1.6-1.2,2.1-2.2c0.5-0.9,0.8-2,0.8-3.2
		s-0.3-2.3-0.8-3.2s-1.2-1.7-2.1-2.2c-0.9-0.5-1.9-0.8-3-0.8c-1.1,0-2.1,0.3-3,0.8c-0.9,0.5-1.6,1.2-2.1,2.2s-0.8,2-0.8,3.2
		s0.3,2.3,0.8,3.2c0.5,0.9,1.2,1.7,2.1,2.2s1.9,0.8,3,0.8C427.2,218.4,428.2,218.1,429.1,217.6z"/>
	<path class="st0" d="M461.1,204.3l-7,15.8h-2.2l-7-15.8h2.2l5.9,13.4l6-13.4H461.1z"/>
	<path class="st0" d="M473.9,205.7c1.1,1,1.7,2.6,1.7,4.6v9.8h-2v-2.5c-0.5,0.8-1.2,1.5-2.1,1.9c-0.9,0.5-2,0.7-3.3,0.7
		c-1.8,0-3.2-0.4-4.2-1.3c-1-0.8-1.6-2-1.6-3.3c0-1.3,0.5-2.4,1.5-3.2s2.5-1.2,4.6-1.2h5v-1c0-1.4-0.4-2.4-1.1-3.1
		c-0.8-0.7-1.9-1.1-3.3-1.1c-1,0-2,0.2-2.9,0.5s-1.7,0.8-2.4,1.4l-1-1.6c0.8-0.7,1.8-1.2,2.9-1.6c1.1-0.4,2.3-0.6,3.5-0.6
		C471.2,204.2,472.8,204.7,473.9,205.7z M471.5,217.7c0.9-0.5,1.5-1.3,1.9-2.4v-2.6h-4.9c-2.7,0-4.1,0.9-4.1,2.8
		c0,0.9,0.3,1.6,1.1,2.2c0.7,0.5,1.7,0.8,2.9,0.8C469.6,218.6,470.6,218.3,471.5,217.7z"/>
	<path class="st0" d="M481.3,197.8h2.1v22.3h-2.1V197.8z"/>
	<path class="st0" d="M503.6,204.3v15.8h-2v-2.9c-0.6,1-1.3,1.7-2.3,2.2c-1,0.5-2.1,0.8-3.4,0.8c-2.1,0-3.7-0.6-4.9-1.7
		c-1.2-1.1-1.8-2.8-1.8-5.1v-9.1h2.1v8.9c0,1.7,0.4,2.9,1.2,3.8s2,1.3,3.5,1.3c1.7,0,3-0.5,3.9-1.5c1-1,1.4-2.4,1.4-4.2v-8.3H503.6z
		"/>
	<path class="st0" d="M523.3,212.9h-13.2c0.1,1.6,0.8,3,1.9,4c1.1,1,2.6,1.5,4.3,1.5c1,0,1.9-0.2,2.7-0.5s1.5-0.9,2.1-1.5l1.2,1.4
		c-0.7,0.8-1.6,1.5-2.6,1.9c-1.1,0.4-2.2,0.7-3.5,0.7c-1.6,0-3.1-0.3-4.3-1c-1.3-0.7-2.2-1.6-2.9-2.9c-0.7-1.2-1.1-2.6-1.1-4.1
		s0.3-2.9,1-4.1s1.6-2.2,2.8-2.9c1.2-0.7,2.5-1,3.9-1c1.5,0,2.8,0.3,3.9,1c1.2,0.7,2.1,1.6,2.7,2.8c0.7,1.2,1,2.6,1,4.2L523.3,212.9
		z M511.9,207.5c-1,1-1.6,2.2-1.8,3.8h11.2c-0.1-1.6-0.7-2.8-1.8-3.8c-1-1-2.3-1.5-3.9-1.5C514.2,206,512.9,206.5,511.9,207.5z"/>
	<path class="st0" d="M543.9,219.1c-0.4,0.4-0.9,0.6-1.5,0.8s-1.2,0.3-1.8,0.3c-1.5,0-2.6-0.4-3.4-1.2c-0.8-0.8-1.2-1.9-1.2-3.4
		v-9.5h-2.8v-1.8h2.8v-3.5h2.1v3.5h4.8v1.8H538v9.4c0,0.9,0.2,1.7,0.7,2.1c0.5,0.5,1.1,0.7,2,0.7c0.4,0,0.9-0.1,1.3-0.2
		s0.8-0.3,1.1-0.6L543.9,219.1z"/>
	<path class="st0" d="M549.5,219.2c-1.2-0.7-2.2-1.6-2.9-2.9c-0.7-1.2-1-2.6-1-4.1s0.3-2.9,1-4.1c0.7-1.2,1.7-2.2,2.9-2.9
		c1.2-0.7,2.6-1,4.1-1s2.9,0.3,4.1,1c1.2,0.7,2.2,1.6,2.9,2.9c0.7,1.2,1,2.6,1,4.1s-0.3,2.9-1,4.1c-0.7,1.2-1.6,2.2-2.9,2.9
		c-1.2,0.7-2.6,1-4.1,1S550.7,219.9,549.5,219.2z M556.6,217.6c0.9-0.5,1.6-1.2,2.1-2.2c0.5-0.9,0.8-2,0.8-3.2s-0.2-2.3-0.8-3.2
		s-1.2-1.7-2.1-2.2c-0.9-0.5-1.9-0.8-3-0.8c-1.1,0-2.1,0.3-3,0.8c-0.9,0.5-1.6,1.2-2.1,2.2c-0.5,0.9-0.8,2-0.8,3.2s0.3,2.3,0.8,3.2
		c0.5,0.9,1.2,1.7,2.1,2.2c0.9,0.5,1.9,0.8,3,0.8C554.7,218.4,555.7,218.1,556.6,217.6z"/>
	<path class="st0" d="M48.4,255.1c-0.4,0.4-0.9,0.6-1.5,0.8c-0.6,0.2-1.2,0.3-1.8,0.3c-1.5,0-2.6-0.4-3.4-1.2s-1.2-1.9-1.2-3.4v-9.5
		h-2.8v-1.8h2.8v-3.5h2.1v3.5h4.8v1.8h-4.8v9.4c0,0.9,0.2,1.7,0.7,2.1c0.5,0.5,1.1,0.7,2,0.7c0.4,0,0.9-0.1,1.3-0.2
		c0.4-0.1,0.8-0.3,1.1-0.6L48.4,255.1z"/>
	<path class="st0" d="M65.1,241.9c1.2,1.2,1.8,2.8,1.8,5v9.1h-2.1v-8.9c0-1.6-0.4-2.9-1.2-3.8c-0.8-0.9-2-1.3-3.5-1.3
		c-1.7,0-3,0.5-4,1.5c-1,1-1.5,2.4-1.5,4.2v8.3h-2.1v-22.3h2.1v9.2c0.6-0.9,1.4-1.6,2.4-2.1s2.2-0.8,3.5-0.8
		C62.3,240.2,63.9,240.8,65.1,241.9z"/>
	<path class="st0" d="M86.4,248.9H73.2c0.1,1.6,0.8,3,1.9,4c1.1,1,2.6,1.5,4.3,1.5c1,0,1.9-0.2,2.7-0.5c0.8-0.3,1.5-0.9,2.1-1.5
		l1.2,1.4c-0.7,0.8-1.6,1.5-2.6,1.9c-1,0.4-2.2,0.7-3.5,0.7c-1.6,0-3.1-0.3-4.3-1c-1.2-0.7-2.2-1.6-2.9-2.9
		c-0.7-1.2-1.1-2.6-1.1-4.1s0.3-2.9,1-4.1s1.6-2.2,2.8-2.9c1.2-0.7,2.5-1,3.9-1s2.8,0.3,3.9,1c1.2,0.7,2.1,1.6,2.7,2.8
		c0.7,1.2,1,2.6,1,4.2L86.4,248.9z M75,243.5c-1,1-1.6,2.2-1.8,3.8h11.2c-0.1-1.6-0.7-2.8-1.8-3.8c-1-1-2.3-1.5-3.9-1.5
		C77.3,242,76,242.5,75,243.5z"/>
	<path class="st0" d="M112.9,240.3v15.8h-2v-2.9c-0.6,1-1.3,1.7-2.3,2.2s-2.1,0.8-3.4,0.8c-2.1,0-3.7-0.6-4.9-1.7
		c-1.2-1.1-1.8-2.8-1.8-5.1v-9.1h2.1v8.9c0,1.7,0.4,2.9,1.2,3.8c0.8,0.9,2,1.3,3.5,1.3c1.7,0,3-0.5,3.9-1.5c1-1,1.4-2.4,1.4-4.2
		v-8.3H112.9z"/>
	<path class="st0" d="M119.4,255.7c-1.2-0.4-2.1-0.8-2.7-1.4l1-1.7c0.7,0.5,1.5,0.9,2.5,1.3c1,0.3,2,0.5,3.1,0.5
		c1.4,0,2.5-0.2,3.2-0.7s1-1.1,1-1.9c0-0.6-0.2-1-0.6-1.4c-0.4-0.3-0.9-0.6-1.4-0.8s-1.3-0.3-2.3-0.5c-1.3-0.2-2.3-0.5-3.1-0.7
		c-0.8-0.2-1.4-0.7-2-1.3c-0.6-0.6-0.8-1.4-0.8-2.5c0-1.3,0.5-2.4,1.6-3.2c1.1-0.8,2.6-1.3,4.6-1.3c1,0,2,0.1,3.1,0.4
		c1,0.3,1.9,0.6,2.5,1.1l-0.9,1.7c-1.3-0.9-2.9-1.3-4.7-1.3c-1.4,0-2.4,0.2-3.1,0.7c-0.7,0.5-1,1.1-1,1.9c0,0.6,0.2,1.1,0.6,1.4
		c0.4,0.4,0.9,0.6,1.5,0.8c0.6,0.2,1.4,0.3,2.4,0.5c1.3,0.2,2.3,0.5,3,0.7c0.8,0.2,1.4,0.6,1.9,1.2s0.8,1.4,0.8,2.4
		c0,1.4-0.6,2.5-1.7,3.3c-1.2,0.8-2.7,1.2-4.8,1.2C121.8,256.2,120.6,256.1,119.4,255.7z"/>
	<path class="st0" d="M147.3,248.9h-13.2c0.1,1.6,0.8,3,1.9,4c1.1,1,2.6,1.5,4.3,1.5c1,0,1.9-0.2,2.7-0.5c0.8-0.3,1.5-0.9,2.1-1.5
		l1.2,1.4c-0.7,0.8-1.6,1.5-2.6,1.9c-1,0.4-2.2,0.7-3.5,0.7c-1.6,0-3.1-0.3-4.3-1c-1.2-0.7-2.2-1.6-2.9-2.9
		c-0.7-1.2-1.1-2.6-1.1-4.1s0.3-2.9,1-4.1s1.6-2.2,2.8-2.9c1.2-0.7,2.5-1,3.9-1s2.8,0.3,3.9,1c1.2,0.7,2.1,1.6,2.7,2.8
		c0.7,1.2,1,2.6,1,4.2L147.3,248.9z M135.8,243.5c-1,1-1.6,2.2-1.8,3.8h11.2c-0.1-1.6-0.7-2.8-1.8-3.8c-1-1-2.3-1.5-3.9-1.5
		C138.1,242,136.8,242.5,135.8,243.5z"/>
	<path class="st0" d="M155.9,241c1-0.5,2.2-0.8,3.7-0.8v2.1l-0.5,0c-1.7,0-3,0.5-3.9,1.5c-0.9,1-1.4,2.5-1.4,4.3v8h-2.1v-15.8h2v3.1
		C154.2,242.3,154.9,241.5,155.9,241z"/>
	<path class="st0" d="M171.5,236.4c-0.3-0.3-0.4-0.7-0.4-1.1c0-0.4,0.1-0.8,0.4-1c0.3-0.3,0.7-0.5,1.1-0.5s0.8,0.1,1.1,0.4
		c0.3,0.3,0.4,0.6,0.4,1c0,0.4-0.1,0.8-0.4,1.1c-0.3,0.3-0.7,0.5-1.1,0.5S171.8,236.7,171.5,236.4z M171.5,240.3h2.1v15.8h-2.1
		V240.3z"/>
	<path class="st0" d="M192.4,241.9c1.2,1.2,1.8,2.8,1.8,5v9.1H192v-8.9c0-1.6-0.4-2.9-1.2-3.8c-0.8-0.9-2-1.3-3.5-1.3
		c-1.7,0-3,0.5-4,1.5c-1,1-1.5,2.4-1.5,4.2v8.3h-2.1v-15.8h2v2.9c0.6-1,1.4-1.7,2.4-2.2s2.2-0.8,3.6-0.8
		C189.6,240.2,191.2,240.8,192.4,241.9z"/>
	<path class="st0" d="M221.5,248.9h-13.2c0.1,1.6,0.8,3,1.9,4c1.1,1,2.6,1.5,4.3,1.5c1,0,1.9-0.2,2.7-0.5c0.8-0.3,1.5-0.9,2.1-1.5
		l1.2,1.4c-0.7,0.8-1.6,1.5-2.6,1.9c-1,0.4-2.2,0.7-3.5,0.7c-1.6,0-3.1-0.3-4.3-1c-1.2-0.7-2.2-1.6-2.9-2.9
		c-0.7-1.2-1.1-2.6-1.1-4.1s0.3-2.9,1-4.1s1.6-2.2,2.8-2.9c1.2-0.7,2.5-1,3.9-1s2.8,0.3,3.9,1c1.2,0.7,2.1,1.6,2.7,2.8
		c0.7,1.2,1,2.6,1,4.2L221.5,248.9z M210.1,243.5c-1,1-1.6,2.2-1.8,3.8h11.2c-0.1-1.6-0.7-2.8-1.8-3.8c-1-1-2.3-1.5-3.9-1.5
		C212.4,242,211.1,242.5,210.1,243.5z"/>
	<path class="st0" d="M238.9,240.3l-7,15.8h-2.2l-7-15.8h2.2l5.9,13.4l6-13.4H238.9z"/>
	<path class="st0" d="M255.1,248.9h-13.2c0.1,1.6,0.8,3,1.9,4c1.1,1,2.6,1.5,4.3,1.5c1,0,1.9-0.2,2.7-0.5c0.8-0.3,1.5-0.9,2.1-1.5
		l1.2,1.4c-0.7,0.8-1.6,1.5-2.6,1.9c-1,0.4-2.2,0.7-3.5,0.7c-1.6,0-3.1-0.3-4.3-1c-1.2-0.7-2.2-1.6-2.9-2.9
		c-0.7-1.2-1.1-2.6-1.1-4.1s0.3-2.9,1-4.1s1.6-2.2,2.8-2.9c1.2-0.7,2.5-1,3.9-1s2.8,0.3,3.9,1c1.2,0.7,2.1,1.6,2.7,2.8
		c0.7,1.2,1,2.6,1,4.2L255.1,248.9z M243.7,243.5c-1,1-1.6,2.2-1.8,3.8h11.2c-0.1-1.6-0.7-2.8-1.8-3.8c-1-1-2.3-1.5-3.9-1.5
		C246,242,244.7,242.5,243.7,243.5z"/>
	<path class="st0" d="M263.8,241c1-0.5,2.2-0.8,3.7-0.8v2.1l-0.5,0c-1.7,0-3,0.5-3.9,1.5c-0.9,1-1.4,2.5-1.4,4.3v8h-2.1v-15.8h2v3.1
		C262.1,242.3,262.8,241.5,263.8,241z"/>
	<path class="st0" d="M285.3,240.3l-7.9,17.7c-0.6,1.5-1.4,2.5-2.2,3.1c-0.8,0.6-1.9,0.9-3,0.9c-0.8,0-1.5-0.1-2.1-0.4
		s-1.2-0.6-1.7-1.1l1-1.6c0.8,0.8,1.8,1.2,2.9,1.2c0.7,0,1.3-0.2,1.8-0.6c0.5-0.4,1-1.1,1.4-2l0.7-1.5l-7.1-15.8h2.2l5.9,13.4
		l5.9-13.4H285.3z"/>
	<path class="st0" d="M298.5,255.2c-1.2-0.7-2.2-1.6-2.9-2.9c-0.7-1.2-1.1-2.6-1.1-4.2s0.3-2.9,1.1-4.1c0.7-1.2,1.7-2.2,2.9-2.9
		c1.2-0.7,2.6-1,4.2-1c1.4,0,2.6,0.3,3.6,0.8s1.9,1.3,2.5,2.3l-1.6,1.1c-0.5-0.8-1.2-1.4-2-1.8c-0.8-0.4-1.7-0.6-2.6-0.6
		c-1.1,0-2.2,0.3-3.1,0.8c-0.9,0.5-1.6,1.2-2.1,2.2c-0.5,0.9-0.8,2-0.8,3.2c0,1.2,0.3,2.3,0.8,3.2c0.5,0.9,1.2,1.7,2.1,2.2
		c0.9,0.5,1.9,0.8,3.1,0.8c0.9,0,1.8-0.2,2.6-0.6c0.8-0.4,1.5-1,2-1.7l1.6,1.1c-0.6,1-1.5,1.8-2.5,2.3s-2.3,0.8-3.6,0.8
		C301.1,256.2,299.7,255.9,298.5,255.2z"/>
	<path class="st0" d="M325.5,241.9c1.2,1.2,1.8,2.8,1.8,5v9.1h-2.1v-8.9c0-1.6-0.4-2.9-1.2-3.8c-0.8-0.9-2-1.3-3.5-1.3
		c-1.7,0-3,0.5-4,1.5c-1,1-1.5,2.4-1.5,4.2v8.3h-2.1v-22.3h2.1v9.2c0.6-0.9,1.4-1.6,2.4-2.1s2.2-0.8,3.5-0.8
		C322.8,240.2,324.4,240.8,325.5,241.9z"/>
	<path class="st0" d="M343.3,241.7c1.1,1,1.6,2.6,1.6,4.6v9.8h-2v-2.5c-0.5,0.8-1.2,1.5-2.1,1.9c-0.9,0.5-2,0.7-3.3,0.7
		c-1.8,0-3.2-0.4-4.2-1.3c-1-0.8-1.6-2-1.6-3.3c0-1.3,0.5-2.4,1.5-3.2c1-0.8,2.5-1.2,4.6-1.2h5v-1c0-1.4-0.4-2.4-1.1-3.1
		s-1.9-1.1-3.3-1.1c-1,0-2,0.2-2.9,0.5c-0.9,0.3-1.7,0.8-2.4,1.4l-1-1.6c0.8-0.7,1.8-1.2,2.9-1.6c1.1-0.4,2.3-0.6,3.5-0.6
		C340.7,240.2,342.2,240.7,343.3,241.7z M340.9,253.7c0.9-0.5,1.5-1.3,1.9-2.4v-2.6h-5c-2.7,0-4,0.9-4,2.8c0,0.9,0.3,1.6,1,2.2
		c0.7,0.5,1.7,0.8,2.9,0.8C339,254.6,340.1,254.3,340.9,253.7z"/>
	<path class="st0" d="M363.5,241.9c1.2,1.2,1.8,2.8,1.8,5v9.1h-2.1v-8.9c0-1.6-0.4-2.9-1.2-3.8c-0.8-0.9-2-1.3-3.5-1.3
		c-1.7,0-3,0.5-4,1.5s-1.5,2.4-1.5,4.2v8.3h-2.1v-15.8h2v2.9c0.6-1,1.4-1.7,2.4-2.2c1-0.5,2.2-0.8,3.6-0.8
		C360.8,240.2,362.4,240.8,363.5,241.9z"/>
	<path class="st0" d="M383.9,241.9c1.2,1.2,1.8,2.8,1.8,5v9.1h-2.1v-8.9c0-1.6-0.4-2.9-1.2-3.8c-0.8-0.9-2-1.3-3.5-1.3
		c-1.7,0-3,0.5-4,1.5s-1.5,2.4-1.5,4.2v8.3h-2.1v-15.8h2v2.9c0.6-1,1.4-1.7,2.4-2.2c1-0.5,2.2-0.8,3.6-0.8
		C381.1,240.2,382.7,240.8,383.9,241.9z"/>
	<path class="st0" d="M405.2,248.9H392c0.1,1.6,0.8,3,1.9,4c1.1,1,2.6,1.5,4.3,1.5c1,0,1.9-0.2,2.7-0.5s1.5-0.9,2.1-1.5l1.2,1.4
		c-0.7,0.8-1.6,1.5-2.6,1.9c-1.1,0.4-2.2,0.7-3.5,0.7c-1.6,0-3.1-0.3-4.3-1c-1.3-0.7-2.2-1.6-2.9-2.9c-0.7-1.2-1.1-2.6-1.1-4.1
		s0.3-2.9,1-4.1s1.6-2.2,2.8-2.9c1.2-0.7,2.5-1,3.9-1c1.5,0,2.8,0.3,3.9,1c1.2,0.7,2.1,1.6,2.7,2.8c0.7,1.2,1,2.6,1,4.2L405.2,248.9
		z M393.8,243.5c-1,1-1.6,2.2-1.8,3.8h11.2c-0.1-1.6-0.7-2.8-1.8-3.8c-1-1-2.3-1.5-3.9-1.5C396.1,242,394.8,242.5,393.8,243.5z"/>
	<path class="st0" d="M409.6,233.8h2.1v22.3h-2.1V233.8z"/>
	<path class="st0" d="M416.7,255.8c-0.3-0.3-0.5-0.7-0.5-1.2c0-0.5,0.2-0.8,0.5-1.2c0.3-0.3,0.7-0.5,1.1-0.5c0.4,0,0.8,0.2,1.1,0.5
		c0.3,0.3,0.5,0.7,0.5,1.2c0,0.5-0.2,0.9-0.5,1.2c-0.3,0.3-0.7,0.5-1.1,0.5C417.4,256.2,417,256.1,416.7,255.8z"/>
	<path d="M38.3,321.3c-0.3-0.3-0.5-0.8-0.5-1.3c0-0.5,0.2-0.9,0.5-1.3c0.3-0.3,0.7-0.5,1.2-0.5s0.9,0.2,1.2,0.5
		c0.3,0.3,0.5,0.7,0.5,1.3c0,0.5-0.2,0.9-0.5,1.3c-0.3,0.3-0.8,0.5-1.2,0.5S38.6,321.7,38.3,321.3z"/>
	<path d="M67.5,309.1l-4.1,12.6h-3.1l-2.8-8.5l-2.9,8.5h-3.1l-4.1-12.6h3l2.8,8.9l3-8.9h2.7l2.9,8.9l2.9-8.9H67.5z"/>
	<path d="M77.6,317.6h-7.3c0.1,0.6,0.4,1.1,0.9,1.4c0.5,0.3,1.1,0.5,1.8,0.5c0.5,0,1-0.1,1.3-0.2c0.4-0.2,0.8-0.4,1.1-0.7l1.5,1.6
		c-0.9,1-2.2,1.6-4,1.6c-1.1,0-2.1-0.2-2.9-0.6c-0.8-0.4-1.5-1-1.9-1.8s-0.7-1.6-0.7-2.6c0-0.9,0.2-1.8,0.7-2.6s1.1-1.4,1.9-1.8
		c0.8-0.4,1.7-0.6,2.6-0.6c0.9,0,1.8,0.2,2.6,0.6c0.8,0.4,1.4,1,1.8,1.8c0.4,0.8,0.7,1.6,0.7,2.7C77.7,316.9,77.7,317.2,77.6,317.6z
		 M71.1,314.5c-0.4,0.4-0.7,0.9-0.8,1.5h4.8c-0.1-0.6-0.4-1.1-0.8-1.5c-0.4-0.4-1-0.5-1.6-0.5C72,314,71.5,314.2,71.1,314.5z"/>
	<path d="M87.8,312.5c0.7,0.4,1.3,1,1.7,1.7s0.6,1.6,0.6,2.6s-0.2,1.9-0.6,2.6c-0.4,0.8-1,1.3-1.7,1.7c-0.7,0.4-1.6,0.6-2.5,0.6
		c-1.3,0-2.3-0.4-3-1.3v1.1h-2.7v-13.4h2.8v4.7c0.7-0.8,1.7-1.2,2.9-1.2C86.2,311.9,87,312.1,87.8,312.5z M86.6,318.8
		c0.5-0.5,0.7-1.1,0.7-2c0-0.8-0.2-1.5-0.7-2c-0.5-0.5-1.1-0.7-1.8-0.7c-0.7,0-1.3,0.2-1.8,0.7c-0.5,0.5-0.7,1.1-0.7,2
		c0,0.8,0.2,1.5,0.7,2c0.5,0.5,1.1,0.7,1.8,0.7C85.5,319.5,86.1,319.3,86.6,318.8z"/>
	<path d="M99.8,321.1c-1-0.6-1.9-1.3-2.4-2.3c-0.6-1-0.9-2.1-0.9-3.4s0.3-2.4,0.9-3.4c0.6-1,1.4-1.8,2.4-2.3c1-0.6,2.2-0.8,3.5-0.8
		c1.1,0,2.1,0.2,3,0.6s1.6,0.9,2.2,1.7l-1.9,1.7c-0.9-1-1.9-1.5-3.2-1.5c-0.8,0-1.5,0.2-2.1,0.5c-0.6,0.3-1.1,0.8-1.4,1.4
		c-0.3,0.6-0.5,1.3-0.5,2.1c0,0.8,0.2,1.5,0.5,2.1c0.3,0.6,0.8,1.1,1.4,1.4c0.6,0.3,1.3,0.5,2.1,0.5c1.3,0,2.3-0.5,3.2-1.5l1.9,1.7
		c-0.6,0.7-1.3,1.3-2.2,1.7c-0.9,0.4-1.9,0.6-3,0.6C102,321.9,100.9,321.6,99.8,321.1z"/>
	<path d="M111.8,321.2c-0.8-0.4-1.4-1-1.9-1.8s-0.7-1.6-0.7-2.6s0.2-1.8,0.7-2.6s1.1-1.3,1.9-1.8c0.8-0.4,1.7-0.6,2.7-0.6
		s1.9,0.2,2.7,0.6c0.8,0.4,1.4,1,1.9,1.8s0.7,1.6,0.7,2.6s-0.2,1.8-0.7,2.6s-1.1,1.3-1.9,1.8c-0.8,0.4-1.7,0.6-2.7,0.6
		S112.6,321.6,111.8,321.2z M116.3,318.8c0.5-0.5,0.7-1.1,0.7-2c0-0.8-0.2-1.5-0.7-2c-0.5-0.5-1.1-0.7-1.8-0.7
		c-0.7,0-1.3,0.2-1.8,0.7c-0.5,0.5-0.7,1.1-0.7,2c0,0.8,0.2,1.5,0.7,2c0.5,0.5,1.1,0.7,1.8,0.7C115.3,319.5,115.9,319.3,116.3,318.8
		z"/>
	<path d="M130.5,312.9c0.7,0.7,1.1,1.8,1.1,3.2v5.5h-2.8v-5.1c0-0.8-0.2-1.3-0.5-1.7s-0.8-0.6-1.5-0.6c-0.7,0-1.3,0.2-1.7,0.7
		c-0.4,0.4-0.6,1.1-0.6,2v4.8h-2.8V312h2.7v1.1c0.4-0.4,0.8-0.7,1.4-0.9c0.6-0.2,1.2-0.3,1.8-0.3
		C128.8,311.9,129.8,312.2,130.5,312.9z"/>
	<path d="M140.4,321.2c-0.3,0.2-0.6,0.4-1,0.5c-0.4,0.1-0.8,0.2-1.3,0.2c-1.2,0-2-0.3-2.7-0.9s-0.9-1.5-0.9-2.6v-4H133v-2.2h1.5
		v-2.4h2.8v2.4h2.4v2.2h-2.4v3.9c0,0.4,0.1,0.7,0.3,0.9c0.2,0.2,0.5,0.3,0.9,0.3c0.4,0,0.8-0.1,1.1-0.4L140.4,321.2z"/>
	<path d="M151.1,317.6h-7.3c0.1,0.6,0.4,1.1,0.9,1.4c0.5,0.3,1.1,0.5,1.8,0.5c0.5,0,1-0.1,1.3-0.2c0.4-0.2,0.8-0.4,1.1-0.7l1.5,1.6
		c-0.9,1-2.2,1.6-4,1.6c-1.1,0-2.1-0.2-2.9-0.6c-0.8-0.4-1.5-1-1.9-1.8s-0.7-1.6-0.7-2.6c0-0.9,0.2-1.8,0.7-2.6s1.1-1.4,1.9-1.8
		c0.8-0.4,1.7-0.6,2.6-0.6c0.9,0,1.8,0.2,2.6,0.6c0.8,0.4,1.4,1,1.8,1.8c0.4,0.8,0.7,1.6,0.7,2.7
		C151.2,316.9,151.2,317.2,151.1,317.6z M144.6,314.5c-0.4,0.4-0.7,0.9-0.8,1.5h4.8c-0.1-0.6-0.4-1.1-0.8-1.5
		c-0.4-0.4-1-0.5-1.6-0.5C145.5,314,145,314.2,144.6,314.5z"/>
	<path d="M161.8,312.9c0.7,0.7,1.1,1.8,1.1,3.2v5.5h-2.8v-5.1c0-0.8-0.2-1.3-0.5-1.7s-0.8-0.6-1.5-0.6c-0.7,0-1.3,0.2-1.7,0.7
		c-0.4,0.4-0.6,1.1-0.6,2v4.8H153V312h2.7v1.1c0.4-0.4,0.8-0.7,1.4-0.9c0.6-0.2,1.2-0.3,1.8-0.3
		C160.1,311.9,161.1,312.2,161.8,312.9z"/>
	<path d="M171.7,321.2c-0.3,0.2-0.6,0.4-1,0.5c-0.4,0.1-0.8,0.2-1.3,0.2c-1.2,0-2-0.3-2.7-0.9s-0.9-1.5-0.9-2.6v-4h-1.5v-2.2h1.5
		v-2.4h2.8v2.4h2.4v2.2h-2.4v3.9c0,0.4,0.1,0.7,0.3,0.9c0.2,0.2,0.5,0.3,0.9,0.3c0.4,0,0.8-0.1,1.1-0.4L171.7,321.2z"/>
	<path d="M38.3,350.9c-0.3-0.3-0.5-0.8-0.5-1.3c0-0.5,0.2-0.9,0.5-1.3c0.3-0.3,0.7-0.5,1.2-0.5s0.9,0.2,1.2,0.5
		c0.3,0.3,0.5,0.7,0.5,1.3c0,0.5-0.2,0.9-0.5,1.3c-0.3,0.3-0.8,0.5-1.2,0.5S38.6,351.3,38.3,350.9z"/>
	<path d="M60.6,338.7l-5.5,12.6h-2.9l-5.4-12.6H50l3.8,9l3.9-9H60.6z"/>
	<path d="M61.8,339.8c-0.3-0.3-0.5-0.7-0.5-1.1c0-0.4,0.2-0.8,0.5-1.1c0.3-0.3,0.7-0.5,1.3-0.5c0.5,0,0.9,0.1,1.3,0.4
		c0.3,0.3,0.5,0.6,0.5,1.1c0,0.5-0.2,0.9-0.5,1.2c-0.3,0.3-0.7,0.5-1.3,0.5C62.5,340.3,62.1,340.1,61.8,339.8z M61.6,341.6h2.8v9.7
		h-2.8V341.6z"/>
	<path d="M76.9,337.9v13.4h-2.7v-1.1c-0.7,0.8-1.7,1.3-3,1.3c-0.9,0-1.7-0.2-2.5-0.6s-1.3-1-1.7-1.7c-0.4-0.8-0.6-1.6-0.6-2.6
		s0.2-1.9,0.6-2.6c0.4-0.8,1-1.3,1.7-1.7s1.6-0.6,2.5-0.6c1.2,0,2.2,0.4,2.9,1.2v-4.7H76.9z M73.4,348.4c0.5-0.5,0.7-1.1,0.7-2
		s-0.2-1.5-0.7-2c-0.5-0.5-1.1-0.7-1.8-0.7c-0.7,0-1.3,0.2-1.8,0.7c-0.5,0.5-0.7,1.1-0.7,2s0.2,1.5,0.7,2c0.5,0.5,1.1,0.7,1.8,0.7
		C72.4,349.1,73,348.9,73.4,348.4z"/>
	<path d="M88.9,347.2h-7.3c0.1,0.6,0.4,1.1,0.9,1.4s1.1,0.5,1.8,0.5c0.5,0,1-0.1,1.3-0.2c0.4-0.1,0.8-0.4,1.1-0.7l1.5,1.6
		c-0.9,1-2.2,1.6-4,1.6c-1.1,0-2.1-0.2-2.9-0.6c-0.8-0.4-1.5-1-1.9-1.8c-0.5-0.8-0.7-1.6-0.7-2.6c0-0.9,0.2-1.8,0.7-2.6
		c0.5-0.8,1.1-1.4,1.9-1.8c0.8-0.4,1.7-0.6,2.6-0.6c0.9,0,1.8,0.2,2.6,0.6s1.4,1,1.8,1.8s0.7,1.6,0.7,2.7
		C89,346.5,88.9,346.8,88.9,347.2z M82.3,344.1c-0.4,0.4-0.7,0.9-0.8,1.5h4.8c-0.1-0.6-0.4-1.1-0.8-1.5c-0.4-0.4-1-0.5-1.6-0.5
		C83.3,343.6,82.8,343.8,82.3,344.1z"/>
	<path d="M92.7,350.8c-0.8-0.4-1.4-1-1.9-1.8c-0.5-0.8-0.7-1.6-0.7-2.6s0.2-1.8,0.7-2.6s1.1-1.3,1.9-1.8c0.8-0.4,1.7-0.6,2.7-0.6
		s1.9,0.2,2.7,0.6c0.8,0.4,1.4,1,1.9,1.8s0.7,1.6,0.7,2.6s-0.2,1.8-0.7,2.6c-0.5,0.8-1.1,1.3-1.9,1.8c-0.8,0.4-1.7,0.6-2.7,0.6
		S93.5,351.2,92.7,350.8z M97.2,348.4c0.5-0.5,0.7-1.1,0.7-2s-0.2-1.5-0.7-2s-1.1-0.7-1.8-0.7c-0.7,0-1.3,0.2-1.8,0.7
		c-0.5,0.5-0.7,1.1-0.7,2s0.2,1.5,0.7,2c0.5,0.5,1.1,0.7,1.8,0.7C96.2,349.1,96.8,348.9,97.2,348.4z"/>
	<path d="M38.3,380.5c-0.3-0.3-0.5-0.8-0.5-1.3c0-0.5,0.2-0.9,0.5-1.3c0.3-0.3,0.7-0.5,1.2-0.5s0.9,0.2,1.2,0.5
		c0.3,0.3,0.5,0.7,0.5,1.3c0,0.5-0.2,0.9-0.5,1.3c-0.3,0.3-0.8,0.5-1.2,0.5S38.6,380.9,38.3,380.5z"/>
	<path d="M56.8,378.2h-5.9l-1.1,2.7h-3l5.6-12.6h2.9l5.6,12.6h-3.1L56.8,378.2z M55.8,376l-2-4.8l-2,4.8H55.8z"/>
	<path d="M71.8,367.5v13.4h-2.7v-1.1c-0.7,0.8-1.7,1.3-3,1.3c-0.9,0-1.7-0.2-2.5-0.6s-1.3-1-1.7-1.7c-0.4-0.8-0.6-1.6-0.6-2.6
		s0.2-1.9,0.6-2.6c0.4-0.8,1-1.3,1.7-1.7s1.6-0.6,2.5-0.6c1.2,0,2.2,0.4,2.9,1.2v-4.7H71.8z M68.4,378c0.5-0.5,0.7-1.1,0.7-2
		s-0.2-1.5-0.7-2c-0.5-0.5-1.1-0.7-1.8-0.7c-0.7,0-1.3,0.2-1.8,0.7c-0.5,0.5-0.7,1.1-0.7,2s0.2,1.5,0.7,2c0.5,0.5,1.1,0.7,1.8,0.7
		C67.3,378.7,67.9,378.5,68.4,378z"/>
	<path d="M84,371.2l-4.1,9.7h-2.9l-4.1-9.7h2.9l2.7,6.6l2.8-6.6H84z"/>
	<path d="M94.3,376.8H87c0.1,0.6,0.4,1.1,0.9,1.4s1.1,0.5,1.8,0.5c0.5,0,1-0.1,1.3-0.2c0.4-0.1,0.8-0.4,1.1-0.7l1.5,1.6
		c-0.9,1-2.2,1.6-4,1.6c-1.1,0-2.1-0.2-2.9-0.6c-0.8-0.4-1.5-1-1.9-1.8c-0.5-0.8-0.7-1.6-0.7-2.6c0-0.9,0.2-1.8,0.7-2.6
		c0.5-0.8,1.1-1.4,1.9-1.8c0.8-0.4,1.7-0.6,2.6-0.6c0.9,0,1.8,0.2,2.6,0.6s1.4,1,1.8,1.8s0.7,1.6,0.7,2.7
		C94.4,376.1,94.4,376.4,94.3,376.8z M87.8,373.7c-0.4,0.4-0.7,0.9-0.8,1.5h4.8c-0.1-0.6-0.4-1.1-0.8-1.5c-0.4-0.4-1-0.5-1.6-0.5
		C88.7,373.2,88.2,373.4,87.8,373.7z"/>
	<path d="M100.3,371.4c0.6-0.2,1.2-0.4,2-0.4v2.6c-0.3,0-0.5,0-0.6,0c-0.8,0-1.4,0.2-1.9,0.7c-0.5,0.4-0.7,1.1-0.7,2v4.6h-2.8v-9.7
		H99v1.3C99.3,372,99.7,371.7,100.3,371.4z"/>
	<path d="M110.5,380.4c-0.3,0.2-0.6,0.4-1,0.5s-0.8,0.2-1.3,0.2c-1.2,0-2-0.3-2.7-0.9s-0.9-1.5-0.9-2.6v-4h-1.5v-2.2h1.5v-2.4h2.8
		v2.4h2.4v2.2h-2.4v3.9c0,0.4,0.1,0.7,0.3,0.9c0.2,0.2,0.5,0.3,0.9,0.3c0.4,0,0.8-0.1,1.1-0.4L110.5,380.4z"/>
	<path d="M112.3,369.4c-0.3-0.3-0.5-0.7-0.5-1.1c0-0.4,0.2-0.8,0.5-1.1c0.3-0.3,0.7-0.5,1.3-0.5c0.5,0,0.9,0.1,1.3,0.4
		c0.3,0.3,0.5,0.6,0.5,1.1c0,0.5-0.2,0.9-0.5,1.2c-0.3,0.3-0.7,0.5-1.3,0.5C113,369.9,112.6,369.7,112.3,369.4z M112.1,371.2h2.8
		v9.7h-2.8V371.2z"/>
	<path d="M118.5,380.7c-0.8-0.2-1.4-0.4-1.8-0.7l0.9-2c0.4,0.3,1,0.5,1.6,0.7c0.6,0.2,1.2,0.3,1.8,0.3c1.2,0,1.8-0.3,1.8-0.9
		c0-0.3-0.2-0.5-0.5-0.6s-0.8-0.2-1.5-0.3c-0.8-0.1-1.4-0.3-2-0.4c-0.5-0.2-1-0.4-1.3-0.8c-0.4-0.4-0.6-1-0.6-1.7
		c0-0.6,0.2-1.2,0.5-1.6c0.4-0.5,0.9-0.8,1.5-1.1c0.7-0.3,1.5-0.4,2.4-0.4c0.7,0,1.4,0.1,2,0.2c0.7,0.1,1.2,0.4,1.7,0.6l-0.9,2
		c-0.9-0.5-1.8-0.7-2.8-0.7c-0.6,0-1.1,0.1-1.4,0.3c-0.3,0.2-0.5,0.4-0.5,0.6c0,0.3,0.2,0.5,0.5,0.6c0.3,0.1,0.8,0.2,1.5,0.3
		c0.8,0.1,1.4,0.3,1.9,0.4c0.5,0.2,0.9,0.4,1.3,0.8c0.4,0.4,0.6,0.9,0.6,1.7c0,0.6-0.2,1.1-0.5,1.6s-0.9,0.8-1.6,1.1
		c-0.7,0.3-1.5,0.4-2.5,0.4C120,381,119.2,380.9,118.5,380.7z"/>
	<path d="M127.3,369.4c-0.3-0.3-0.5-0.7-0.5-1.1c0-0.4,0.2-0.8,0.5-1.1c0.3-0.3,0.7-0.5,1.3-0.5c0.5,0,0.9,0.1,1.3,0.4
		c0.3,0.3,0.5,0.6,0.5,1.1c0,0.5-0.2,0.9-0.5,1.2c-0.3,0.3-0.7,0.5-1.3,0.5C128,369.9,127.6,369.7,127.3,369.4z M127.1,371.2h2.8
		v9.7h-2.8V371.2z"/>
	<path d="M141.3,372.1c0.7,0.7,1.1,1.8,1.1,3.2v5.5h-2.8v-5.1c0-0.8-0.2-1.3-0.5-1.7s-0.8-0.6-1.5-0.6c-0.7,0-1.3,0.2-1.7,0.7
		c-0.4,0.4-0.6,1.1-0.6,2v4.8h-2.8v-9.7h2.7v1.1c0.4-0.4,0.8-0.7,1.4-0.9c0.6-0.2,1.2-0.3,1.8-0.3
		C139.6,371.1,140.6,371.4,141.3,372.1z"/>
	<path d="M155.1,371.2v8.1c0,1.8-0.5,3.1-1.4,4c-0.9,0.9-2.3,1.3-4,1.3c-0.9,0-1.8-0.1-2.7-0.3c-0.8-0.2-1.5-0.6-2.1-1l1.1-2
		c0.4,0.3,0.9,0.6,1.5,0.8c0.6,0.2,1.2,0.3,1.9,0.3c1,0,1.7-0.2,2.2-0.7c0.5-0.4,0.7-1.1,0.7-2v-0.4c-0.7,0.8-1.8,1.2-3.1,1.2
		c-0.9,0-1.7-0.2-2.4-0.6s-1.3-0.9-1.8-1.6c-0.4-0.7-0.6-1.5-0.6-2.4c0-0.9,0.2-1.7,0.6-2.4c0.4-0.7,1-1.3,1.8-1.6
		c0.7-0.4,1.6-0.6,2.4-0.6c1.4,0,2.5,0.5,3.2,1.4v-1.2H155.1z M151.6,377.5c0.5-0.4,0.7-1,0.7-1.7c0-0.7-0.2-1.3-0.7-1.7
		c-0.5-0.4-1.1-0.7-1.8-0.7c-0.7,0-1.4,0.2-1.8,0.7c-0.5,0.4-0.7,1-0.7,1.7c0,0.7,0.2,1.3,0.7,1.7c0.5,0.4,1.1,0.7,1.8,0.7
		C150.5,378.1,151.1,377.9,151.6,377.5z"/>
	<path d="M38.3,410.1c-0.3-0.3-0.5-0.8-0.5-1.3c0-0.5,0.2-0.9,0.5-1.3c0.3-0.3,0.7-0.5,1.2-0.5s0.9,0.2,1.2,0.5
		c0.3,0.3,0.5,0.7,0.5,1.3c0,0.5-0.2,0.9-0.5,1.3c-0.3,0.3-0.8,0.5-1.2,0.5S38.6,410.5,38.3,410.1z"/>
	<path d="M58.2,408.2v2.3h-9.8v-12.6H58v2.3h-6.6v2.7h5.9v2.3h-5.9v2.9H58.2z"/>
	<path d="M75.6,401.7c0.7,0.7,1.1,1.8,1.1,3.2v5.5h-2.8v-5.1c0-0.8-0.2-1.3-0.5-1.7c-0.3-0.4-0.8-0.6-1.4-0.6
		c-0.7,0-1.2,0.2-1.6,0.6c-0.4,0.4-0.6,1.1-0.6,1.9v4.9h-2.8v-5.1c0-1.5-0.6-2.3-1.8-2.3c-0.6,0-1.2,0.2-1.5,0.6
		c-0.4,0.4-0.6,1.1-0.6,1.9v4.9h-2.8v-9.7H63v1.1c0.4-0.4,0.8-0.7,1.3-0.9c0.5-0.2,1.1-0.3,1.7-0.3c0.7,0,1.3,0.1,1.9,0.4
		c0.6,0.3,1,0.7,1.3,1.2c0.4-0.5,0.9-0.9,1.5-1.2c0.6-0.3,1.3-0.4,2-0.4C74,400.7,74.9,401,75.6,401.7z"/>
	<path d="M86.6,401.7c0.8,0.7,1.2,1.8,1.2,3.2v5.5h-2.6v-1.2c-0.5,0.9-1.5,1.3-3,1.3c-0.7,0-1.4-0.1-1.9-0.4c-0.5-0.3-1-0.6-1.3-1
		c-0.3-0.4-0.4-0.9-0.4-1.5c0-0.9,0.3-1.6,1-2.1c0.7-0.5,1.7-0.8,3.1-0.8H85c0-0.6-0.2-1.1-0.6-1.4c-0.4-0.3-0.9-0.5-1.7-0.5
		c-0.5,0-1,0.1-1.5,0.2c-0.5,0.2-0.9,0.4-1.3,0.7l-1-2c0.5-0.4,1.2-0.7,1.9-0.9c0.7-0.2,1.5-0.3,2.3-0.3
		C84.6,400.7,85.8,401,86.6,401.7z M84.2,408.4c0.4-0.2,0.6-0.5,0.8-1v-1h-1.9c-1.2,0-1.7,0.4-1.7,1.1c0,0.4,0.1,0.6,0.4,0.9
		c0.3,0.2,0.7,0.3,1.2,0.3C83.4,408.7,83.8,408.6,84.2,408.4z"/>
	<path d="M90.5,399c-0.3-0.3-0.5-0.7-0.5-1.1c0-0.4,0.2-0.8,0.5-1.1c0.3-0.3,0.7-0.5,1.3-0.5c0.5,0,0.9,0.1,1.3,0.4
		c0.3,0.3,0.5,0.6,0.5,1.1c0,0.5-0.2,0.9-0.5,1.2c-0.3,0.3-0.7,0.5-1.3,0.5C91.2,399.5,90.8,399.3,90.5,399z M90.3,400.8h2.8v9.7
		h-2.8V400.8z"/>
	<path d="M95.8,397.1h2.8v13.4h-2.8V397.1z"/>
	<path d="M121.6,401.7c0.7,0.7,1.1,1.8,1.1,3.2v5.5h-2.8v-5.1c0-0.8-0.2-1.3-0.5-1.7c-0.3-0.4-0.8-0.6-1.4-0.6
		c-0.7,0-1.2,0.2-1.6,0.6c-0.4,0.4-0.6,1.1-0.6,1.9v4.9H113v-5.1c0-1.5-0.6-2.3-1.8-2.3c-0.6,0-1.2,0.2-1.5,0.6
		c-0.4,0.4-0.6,1.1-0.6,1.9v4.9h-2.8v-9.7h2.7v1.1c0.4-0.4,0.8-0.7,1.3-0.9c0.5-0.2,1.1-0.3,1.7-0.3c0.7,0,1.3,0.1,1.9,0.4
		c0.6,0.3,1,0.7,1.3,1.2c0.4-0.5,0.9-0.9,1.5-1.2c0.6-0.3,1.3-0.4,2-0.4C119.9,400.7,120.8,401,121.6,401.7z"/>
	<path d="M132.5,401.7c0.8,0.7,1.2,1.8,1.2,3.2v5.5h-2.6v-1.2c-0.5,0.9-1.5,1.3-3,1.3c-0.7,0-1.4-0.1-1.9-0.4c-0.5-0.3-1-0.6-1.3-1
		c-0.3-0.4-0.4-0.9-0.4-1.5c0-0.9,0.3-1.6,1-2.1c0.7-0.5,1.7-0.8,3.1-0.8h2.2c0-0.6-0.2-1.1-0.6-1.4c-0.4-0.3-0.9-0.5-1.7-0.5
		c-0.5,0-1,0.1-1.5,0.2c-0.5,0.2-0.9,0.4-1.3,0.7l-1-2c0.5-0.4,1.2-0.7,1.9-0.9c0.7-0.2,1.5-0.3,2.3-0.3
		C130.6,400.7,131.7,401,132.5,401.7z M130.1,408.4c0.4-0.2,0.6-0.5,0.8-1v-1H129c-1.2,0-1.7,0.4-1.7,1.1c0,0.4,0.1,0.6,0.4,0.9
		c0.3,0.2,0.7,0.3,1.2,0.3C129.3,408.7,129.7,408.6,130.1,408.4z"/>
	<path d="M140.3,401c0.6-0.2,1.2-0.4,2-0.4v2.6c-0.3,0-0.5,0-0.6,0c-0.8,0-1.4,0.2-1.9,0.7c-0.5,0.4-0.7,1.1-0.7,2v4.6h-2.8v-9.7
		h2.7v1.3C139.3,401.6,139.7,401.3,140.3,401z"/>
	<path d="M148.1,406.7l-1.4,1.3v2.5h-2.8v-13.4h2.8v7.6l4.1-3.9h3.3l-4,4.1l4.4,5.6h-3.4L148.1,406.7z"/>
	<path d="M164.8,406.4h-7.3c0.1,0.6,0.4,1.1,0.9,1.4s1.1,0.5,1.8,0.5c0.5,0,1-0.1,1.3-0.2c0.4-0.1,0.8-0.4,1.1-0.7l1.5,1.6
		c-0.9,1-2.2,1.6-4,1.6c-1.1,0-2.1-0.2-2.9-0.6c-0.8-0.4-1.5-1-1.9-1.8c-0.5-0.8-0.7-1.6-0.7-2.6c0-0.9,0.2-1.8,0.7-2.6
		c0.5-0.8,1.1-1.4,1.9-1.8c0.8-0.4,1.7-0.6,2.6-0.6c0.9,0,1.8,0.2,2.6,0.6s1.4,1,1.8,1.8s0.7,1.6,0.7,2.7
		C164.9,405.7,164.9,406,164.8,406.4z M158.3,403.3c-0.4,0.4-0.7,0.9-0.8,1.5h4.8c-0.1-0.6-0.4-1.1-0.8-1.5c-0.4-0.4-1-0.5-1.6-0.5
		C159.2,402.8,158.7,403,158.3,403.3z"/>
	<path d="M173,410c-0.3,0.2-0.6,0.4-1,0.5s-0.8,0.2-1.3,0.2c-1.2,0-2-0.3-2.7-0.9s-0.9-1.5-0.9-2.6v-4h-1.5V401h1.5v-2.4h2.8v2.4
		h2.4v2.2h-2.4v3.9c0,0.4,0.1,0.7,0.3,0.9c0.2,0.2,0.5,0.3,0.9,0.3c0.4,0,0.8-0.1,1.1-0.4L173,410z"/>
	<path d="M174.7,399c-0.3-0.3-0.5-0.7-0.5-1.1c0-0.4,0.2-0.8,0.5-1.1c0.3-0.3,0.7-0.5,1.3-0.5c0.5,0,0.9,0.1,1.3,0.4
		c0.3,0.3,0.5,0.6,0.5,1.1c0,0.5-0.2,0.9-0.5,1.2c-0.3,0.3-0.7,0.5-1.3,0.5C175.5,399.5,175.1,399.3,174.7,399z M174.6,400.8h2.8
		v9.7h-2.8V400.8z"/>
	<path d="M188.8,401.7c0.7,0.7,1.1,1.8,1.1,3.2v5.5h-2.8v-5.1c0-0.8-0.2-1.3-0.5-1.7s-0.8-0.6-1.5-0.6c-0.7,0-1.3,0.2-1.7,0.7
		c-0.4,0.4-0.6,1.1-0.6,2v4.8H180v-9.7h2.7v1.1c0.4-0.4,0.8-0.7,1.4-0.9c0.6-0.2,1.2-0.3,1.8-0.3C187.1,400.7,188.1,401,188.8,401.7
		z"/>
	<path d="M202.5,400.8v8.1c0,1.8-0.5,3.1-1.4,4c-0.9,0.9-2.3,1.3-4,1.3c-0.9,0-1.8-0.1-2.7-0.3c-0.8-0.2-1.5-0.6-2.1-1l1.1-2
		c0.4,0.3,0.9,0.6,1.5,0.8c0.6,0.2,1.2,0.3,1.9,0.3c1,0,1.7-0.2,2.2-0.7c0.5-0.4,0.7-1.1,0.7-2v-0.4c-0.7,0.8-1.8,1.2-3.1,1.2
		c-0.9,0-1.7-0.2-2.4-0.6s-1.3-0.9-1.8-1.6c-0.4-0.7-0.6-1.5-0.6-2.4c0-0.9,0.2-1.7,0.6-2.4c0.4-0.7,1-1.3,1.8-1.6
		c0.7-0.4,1.6-0.6,2.4-0.6c1.4,0,2.5,0.5,3.2,1.4v-1.2H202.5z M199.1,407.1c0.5-0.4,0.7-1,0.7-1.7c0-0.7-0.2-1.3-0.7-1.7
		c-0.5-0.4-1.1-0.7-1.8-0.7c-0.7,0-1.4,0.2-1.8,0.7c-0.5,0.4-0.7,1-0.7,1.7c0,0.7,0.2,1.3,0.7,1.7c0.5,0.4,1.1,0.7,1.8,0.7
		C198,407.7,198.6,407.5,199.1,407.1z"/>
	<path d="M38.3,439.7c-0.3-0.3-0.5-0.8-0.5-1.3c0-0.5,0.2-0.9,0.5-1.3c0.3-0.3,0.7-0.5,1.2-0.5s0.9,0.2,1.2,0.5
		c0.3,0.3,0.5,0.7,0.5,1.3c0,0.5-0.2,0.9-0.5,1.3c-0.3,0.3-0.8,0.5-1.2,0.5S38.6,440.1,38.3,439.7z"/>
	<path d="M49.7,439.9c-0.9-0.3-1.7-0.6-2.2-1.1l1-2.2c0.5,0.4,1.2,0.7,1.9,1c0.7,0.2,1.5,0.4,2.2,0.4c0.8,0,1.4-0.1,1.8-0.4
		s0.6-0.6,0.6-1c0-0.3-0.1-0.5-0.4-0.7c-0.2-0.2-0.5-0.4-0.9-0.5c-0.4-0.1-0.9-0.3-1.5-0.4c-1-0.2-1.7-0.5-2.4-0.7
		c-0.6-0.2-1.1-0.6-1.6-1.1c-0.4-0.5-0.7-1.2-0.7-2c0-0.7,0.2-1.4,0.6-2s1-1.1,1.8-1.4c0.8-0.3,1.8-0.5,2.9-0.5
		c0.8,0,1.6,0.1,2.4,0.3c0.8,0.2,1.4,0.5,2,0.8l-0.9,2.2c-1.2-0.7-2.3-1-3.5-1c-0.8,0-1.4,0.1-1.8,0.4c-0.4,0.3-0.6,0.6-0.6,1
		c0,0.4,0.2,0.8,0.7,1c0.4,0.2,1.1,0.4,2.1,0.6c1,0.2,1.7,0.5,2.4,0.7c0.6,0.2,1.1,0.6,1.6,1.1c0.4,0.5,0.7,1.2,0.7,2
		c0,0.7-0.2,1.4-0.6,2c-0.4,0.6-1,1.1-1.8,1.4c-0.8,0.3-1.8,0.5-2.9,0.5C51.6,440.3,50.6,440.2,49.7,439.9z"/>
	<path d="M61.6,439.6c-0.8-0.4-1.4-1-1.9-1.8c-0.5-0.8-0.7-1.6-0.7-2.6s0.2-1.8,0.7-2.6s1.1-1.3,1.9-1.8c0.8-0.4,1.7-0.6,2.7-0.6
		s1.9,0.2,2.7,0.6c0.8,0.4,1.4,1,1.9,1.8s0.7,1.6,0.7,2.6s-0.2,1.8-0.7,2.6c-0.5,0.8-1.1,1.3-1.9,1.8c-0.8,0.4-1.7,0.6-2.7,0.6
		S62.4,440,61.6,439.6z M66.1,437.2c0.5-0.5,0.7-1.1,0.7-2s-0.2-1.5-0.7-2s-1.1-0.7-1.8-0.7c-0.7,0-1.3,0.2-1.8,0.7
		c-0.5,0.5-0.7,1.1-0.7,2s0.2,1.5,0.7,2c0.5,0.5,1.1,0.7,1.8,0.7C65.1,437.9,65.7,437.7,66.1,437.2z"/>
	<path d="M73.4,439.6c-0.8-0.4-1.5-1-1.9-1.8c-0.5-0.8-0.7-1.6-0.7-2.6s0.2-1.8,0.7-2.6s1.1-1.3,1.9-1.8c0.8-0.4,1.7-0.6,2.8-0.6
		c1,0,1.9,0.2,2.7,0.6c0.8,0.4,1.3,1,1.7,1.8l-2.2,1.2c-0.5-0.9-1.2-1.3-2.2-1.3c-0.7,0-1.3,0.2-1.8,0.7c-0.5,0.5-0.7,1.1-0.7,2
		s0.2,1.5,0.7,2c0.5,0.5,1.1,0.7,1.8,0.7c1,0,1.7-0.4,2.2-1.3l2.2,1.2c-0.3,0.8-0.9,1.4-1.7,1.8s-1.7,0.6-2.7,0.6
		C75.2,440.2,74.3,440,73.4,439.6z"/>
	<path d="M82.3,428.6c-0.3-0.3-0.5-0.7-0.5-1.1c0-0.4,0.2-0.8,0.5-1.1c0.3-0.3,0.7-0.5,1.3-0.5c0.5,0,0.9,0.1,1.3,0.4
		c0.3,0.3,0.5,0.6,0.5,1.1c0,0.5-0.2,0.9-0.5,1.2c-0.3,0.3-0.7,0.5-1.3,0.5C83.1,429.1,82.6,428.9,82.3,428.6z M82.2,430.4H85v9.7
		h-2.8V430.4z"/>
	<path d="M95,431.3c0.8,0.7,1.2,1.8,1.2,3.2v5.5h-2.6v-1.2c-0.5,0.9-1.5,1.3-3,1.3c-0.7,0-1.4-0.1-1.9-0.4c-0.5-0.3-1-0.6-1.3-1
		c-0.3-0.4-0.4-0.9-0.4-1.5c0-0.9,0.3-1.6,1-2.1c0.7-0.5,1.7-0.8,3.1-0.8h2.2c0-0.6-0.2-1.1-0.6-1.4c-0.4-0.3-0.9-0.5-1.7-0.5
		c-0.5,0-1,0.1-1.5,0.2c-0.5,0.2-0.9,0.4-1.3,0.7l-1-2c0.5-0.4,1.2-0.7,1.9-0.9c0.7-0.2,1.5-0.3,2.3-0.3
		C93,430.3,94.2,430.6,95,431.3z M92.6,438c0.4-0.2,0.6-0.5,0.8-1v-1h-1.9c-1.2,0-1.7,0.4-1.7,1.1c0,0.4,0.1,0.6,0.4,0.9
		c0.3,0.2,0.7,0.3,1.2,0.3C91.8,438.3,92.2,438.2,92.6,438z"/>
	<path d="M98.7,426.7h2.8v13.4h-2.8V426.7z"/>
	<path d="M124.5,431.3c0.7,0.7,1.1,1.8,1.1,3.2v5.5h-2.8V435c0-0.8-0.2-1.3-0.5-1.7c-0.3-0.4-0.8-0.6-1.4-0.6
		c-0.7,0-1.2,0.2-1.6,0.6c-0.4,0.4-0.6,1.1-0.6,1.9v4.9H116V435c0-1.5-0.6-2.3-1.8-2.3c-0.6,0-1.2,0.2-1.5,0.6
		c-0.4,0.4-0.6,1.1-0.6,1.9v4.9h-2.8v-9.7h2.7v1.1c0.4-0.4,0.8-0.7,1.3-0.9c0.5-0.2,1.1-0.3,1.7-0.3c0.7,0,1.3,0.1,1.9,0.4
		c0.6,0.3,1,0.7,1.3,1.2c0.4-0.5,0.9-0.9,1.5-1.2c0.6-0.3,1.3-0.4,2-0.4C122.8,430.3,123.8,430.6,124.5,431.3z"/>
	<path d="M137.6,436h-7.3c0.1,0.6,0.4,1.1,0.9,1.4s1.1,0.5,1.8,0.5c0.5,0,1-0.1,1.3-0.2c0.4-0.1,0.8-0.4,1.1-0.7l1.5,1.6
		c-0.9,1-2.2,1.6-4,1.6c-1.1,0-2.1-0.2-2.9-0.6c-0.8-0.4-1.5-1-1.9-1.8c-0.5-0.8-0.7-1.6-0.7-2.6c0-0.9,0.2-1.8,0.7-2.6
		c0.5-0.8,1.1-1.4,1.9-1.8c0.8-0.4,1.7-0.6,2.6-0.6c0.9,0,1.8,0.2,2.6,0.6s1.4,1,1.8,1.8s0.7,1.6,0.7,2.7
		C137.7,435.3,137.7,435.6,137.6,436z M131.1,432.9c-0.4,0.4-0.7,0.9-0.8,1.5h4.8c-0.1-0.6-0.4-1.1-0.8-1.5c-0.4-0.4-1-0.5-1.6-0.5
		C132,432.4,131.5,432.6,131.1,432.9z"/>
	<path d="M149.4,426.7v13.4h-2.7V439c-0.7,0.8-1.7,1.3-3,1.3c-0.9,0-1.7-0.2-2.5-0.6s-1.3-1-1.7-1.7c-0.4-0.8-0.6-1.6-0.6-2.6
		s0.2-1.9,0.6-2.6c0.4-0.8,1-1.3,1.7-1.7s1.6-0.6,2.5-0.6c1.2,0,2.2,0.4,2.9,1.2v-4.7H149.4z M146,437.2c0.5-0.5,0.7-1.1,0.7-2
		s-0.2-1.5-0.7-2c-0.5-0.5-1.1-0.7-1.8-0.7c-0.7,0-1.3,0.2-1.8,0.7c-0.5,0.5-0.7,1.1-0.7,2s0.2,1.5,0.7,2c0.5,0.5,1.1,0.7,1.8,0.7
		C144.9,437.9,145.5,437.7,146,437.2z"/>
	<path d="M152.2,428.6c-0.3-0.3-0.5-0.7-0.5-1.1c0-0.4,0.2-0.8,0.5-1.1c0.3-0.3,0.7-0.5,1.3-0.5c0.5,0,0.9,0.1,1.3,0.4
		c0.3,0.3,0.5,0.6,0.5,1.1c0,0.5-0.2,0.9-0.5,1.2c-0.3,0.3-0.7,0.5-1.3,0.5C152.9,429.1,152.5,428.9,152.2,428.6z M152,430.4h2.8
		v9.7H152V430.4z"/>
	<path d="M164.8,431.3c0.8,0.7,1.2,1.8,1.2,3.2v5.5h-2.6v-1.2c-0.5,0.9-1.5,1.3-3,1.3c-0.7,0-1.4-0.1-1.9-0.4c-0.5-0.3-1-0.6-1.3-1
		c-0.3-0.4-0.4-0.9-0.4-1.5c0-0.9,0.3-1.6,1-2.1c0.7-0.5,1.7-0.8,3.1-0.8h2.2c0-0.6-0.2-1.1-0.6-1.4c-0.4-0.3-0.9-0.5-1.7-0.5
		c-0.5,0-1,0.1-1.5,0.2c-0.5,0.2-0.9,0.4-1.3,0.7l-1-2c0.5-0.4,1.2-0.7,1.9-0.9c0.7-0.2,1.5-0.3,2.3-0.3
		C162.8,430.3,164,430.6,164.8,431.3z M162.4,438c0.4-0.2,0.6-0.5,0.8-1v-1h-1.9c-1.2,0-1.7,0.4-1.7,1.1c0,0.4,0.1,0.6,0.4,0.9
		c0.3,0.2,0.7,0.3,1.2,0.3C161.6,438.3,162,438.2,162.4,438z"/>
	<path d="M38.3,469.3c-0.3-0.3-0.5-0.8-0.5-1.3c0-0.5,0.2-0.9,0.5-1.3c0.3-0.3,0.7-0.5,1.2-0.5s0.9,0.2,1.2,0.5
		c0.3,0.3,0.5,0.7,0.5,1.3c0,0.5-0.2,0.9-0.5,1.3c-0.3,0.3-0.8,0.5-1.2,0.5S38.6,469.7,38.3,469.3z"/>
	<path d="M59.4,464.3c0.4,0.5,0.6,1.2,0.6,2c0,1.1-0.4,2-1.3,2.5c-0.9,0.6-2.1,0.9-3.8,0.9h-6.5v-12.6h6.2c1.5,0,2.7,0.3,3.5,0.9
		c0.8,0.6,1.2,1.4,1.2,2.4c0,0.6-0.1,1.2-0.4,1.6c-0.3,0.5-0.7,0.9-1.2,1.1C58.4,463.4,59,463.7,59.4,464.3z M51.4,459.3v3h2.9
		c0.7,0,1.3-0.1,1.6-0.4c0.4-0.3,0.6-0.6,0.6-1.1s-0.2-0.9-0.6-1.1c-0.4-0.2-0.9-0.4-1.6-0.4H51.4z M56.5,467.1
		c0.4-0.3,0.6-0.6,0.6-1.2c0-1-0.8-1.6-2.3-1.6h-3.4v3.1h3.4C55.5,467.5,56.1,467.4,56.5,467.1z"/>
	<path d="M62,456.3h2.8v13.4H62V456.3z"/>
	<path d="M69.3,469.2c-0.8-0.4-1.4-1-1.9-1.8c-0.5-0.8-0.7-1.6-0.7-2.6s0.2-1.8,0.7-2.6s1.1-1.3,1.9-1.8c0.8-0.4,1.7-0.6,2.7-0.6
		s1.9,0.2,2.7,0.6c0.8,0.4,1.4,1,1.9,1.8s0.7,1.6,0.7,2.6s-0.2,1.8-0.7,2.6c-0.5,0.8-1.1,1.3-1.9,1.8c-0.8,0.4-1.7,0.6-2.7,0.6
		S70.1,469.6,69.3,469.2z M73.8,466.8c0.5-0.5,0.7-1.1,0.7-2s-0.2-1.5-0.7-2s-1.1-0.7-1.8-0.7c-0.7,0-1.3,0.2-1.8,0.7
		c-0.5,0.5-0.7,1.1-0.7,2s0.2,1.5,0.7,2c0.5,0.5,1.1,0.7,1.8,0.7C72.8,467.5,73.4,467.3,73.8,466.8z"/>
	<path d="M89.2,460v8.1c0,1.8-0.5,3.1-1.4,4c-0.9,0.9-2.3,1.3-4,1.3c-0.9,0-1.8-0.1-2.7-0.3c-0.8-0.2-1.5-0.6-2.1-1l1.1-2
		c0.4,0.3,0.9,0.6,1.5,0.8c0.6,0.2,1.2,0.3,1.9,0.3c1,0,1.7-0.2,2.2-0.7c0.5-0.4,0.7-1.1,0.7-2V468c-0.7,0.8-1.8,1.2-3.1,1.2
		c-0.9,0-1.7-0.2-2.4-0.6s-1.3-0.9-1.8-1.6c-0.4-0.7-0.6-1.5-0.6-2.4c0-0.9,0.2-1.7,0.6-2.4c0.4-0.7,1-1.3,1.8-1.6
		c0.7-0.4,1.6-0.6,2.4-0.6c1.4,0,2.5,0.5,3.2,1.4V460H89.2z M85.8,466.3c0.5-0.4,0.7-1,0.7-1.7c0-0.7-0.2-1.3-0.7-1.7
		c-0.5-0.4-1.1-0.7-1.8-0.7c-0.7,0-1.4,0.2-1.8,0.7c-0.5,0.4-0.7,1-0.7,1.7c0,0.7,0.2,1.3,0.7,1.7c0.5,0.4,1.1,0.7,1.8,0.7
		C84.7,466.9,85.3,466.7,85.8,466.3z"/>
	<path d="M92.7,469.5c-0.8-0.2-1.4-0.4-1.8-0.7l0.9-2c0.4,0.3,1,0.5,1.6,0.7c0.6,0.2,1.2,0.3,1.8,0.3c1.2,0,1.8-0.3,1.8-0.9
		c0-0.3-0.2-0.5-0.5-0.6s-0.8-0.2-1.5-0.3c-0.8-0.1-1.4-0.3-2-0.4c-0.5-0.2-1-0.4-1.3-0.8c-0.4-0.4-0.6-1-0.6-1.7
		c0-0.6,0.2-1.2,0.5-1.6c0.4-0.5,0.9-0.8,1.5-1.1c0.7-0.3,1.5-0.4,2.4-0.4c0.7,0,1.4,0.1,2,0.2c0.7,0.1,1.2,0.4,1.7,0.6l-0.9,2
		c-0.9-0.5-1.8-0.7-2.8-0.7c-0.6,0-1.1,0.1-1.4,0.3c-0.3,0.2-0.5,0.4-0.5,0.6c0,0.3,0.2,0.5,0.5,0.6c0.3,0.1,0.8,0.2,1.5,0.3
		c0.8,0.1,1.4,0.3,1.9,0.4c0.5,0.2,0.9,0.4,1.3,0.8c0.4,0.4,0.6,0.9,0.6,1.7c0,0.6-0.2,1.1-0.5,1.6s-0.9,0.8-1.6,1.1
		c-0.7,0.3-1.5,0.4-2.5,0.4C94.3,469.8,93.5,469.7,92.7,469.5z"/>
	<path d="M38.3,498.9c-0.3-0.3-0.5-0.8-0.5-1.3c0-0.5,0.2-0.9,0.5-1.3c0.3-0.3,0.7-0.5,1.2-0.5s0.9,0.2,1.2,0.5
		c0.3,0.3,0.5,0.7,0.5,1.3c0,0.5-0.2,0.9-0.5,1.3c-0.3,0.3-0.8,0.5-1.2,0.5S38.6,499.3,38.3,498.9z"/>
	<path d="M67.5,486.7l-4.1,12.6h-3.1l-2.8-8.5l-2.9,8.5h-3.1l-4.1-12.6h3l2.8,8.9l3-8.9h2.7l2.9,8.9l2.9-8.9H67.5z"/>
	<path d="M77.6,495.2h-7.3c0.1,0.6,0.4,1.1,0.9,1.4s1.1,0.5,1.8,0.5c0.5,0,1-0.1,1.3-0.2c0.4-0.1,0.8-0.4,1.1-0.7l1.5,1.6
		c-0.9,1-2.2,1.6-4,1.6c-1.1,0-2.1-0.2-2.9-0.6c-0.8-0.4-1.5-1-1.9-1.8c-0.5-0.8-0.7-1.6-0.7-2.6c0-0.9,0.2-1.8,0.7-2.6
		c0.5-0.8,1.1-1.4,1.9-1.8c0.8-0.4,1.7-0.6,2.6-0.6c0.9,0,1.8,0.2,2.6,0.6s1.4,1,1.8,1.8s0.7,1.6,0.7,2.7
		C77.7,494.5,77.7,494.8,77.6,495.2z M71.1,492.1c-0.4,0.4-0.7,0.9-0.8,1.5h4.8c-0.1-0.6-0.4-1.1-0.8-1.5c-0.4-0.4-1-0.5-1.6-0.5
		C72,491.6,71.5,491.8,71.1,492.1z"/>
	<path d="M87.8,490.1c0.7,0.4,1.3,1,1.7,1.7s0.6,1.6,0.6,2.6s-0.2,1.9-0.6,2.6s-1,1.3-1.7,1.7c-0.7,0.4-1.6,0.6-2.5,0.6
		c-1.3,0-2.3-0.4-3-1.3v1.1h-2.7v-13.4h2.8v4.7c0.7-0.8,1.7-1.2,2.9-1.2C86.2,489.5,87,489.7,87.8,490.1z M86.6,496.4
		c0.5-0.5,0.7-1.1,0.7-2s-0.2-1.5-0.7-2c-0.5-0.5-1.1-0.7-1.8-0.7c-0.7,0-1.3,0.2-1.8,0.7c-0.5,0.5-0.7,1.1-0.7,2s0.2,1.5,0.7,2
		c0.5,0.5,1.1,0.7,1.8,0.7C85.5,497.1,86.1,496.9,86.6,496.4z"/>
	<path d="M92.1,487.8c-0.3-0.3-0.5-0.7-0.5-1.1c0-0.4,0.2-0.8,0.5-1.1c0.3-0.3,0.7-0.5,1.3-0.5c0.5,0,0.9,0.1,1.3,0.4
		c0.3,0.3,0.5,0.6,0.5,1.1c0,0.5-0.2,0.9-0.5,1.2c-0.3,0.3-0.7,0.5-1.3,0.5C92.9,488.3,92.5,488.1,92.1,487.8z M92,489.6h2.8v9.7H92
		V489.6z"/>
	<path d="M106.2,490.5c0.7,0.7,1.1,1.8,1.1,3.2v5.5h-2.8v-5.1c0-0.8-0.2-1.3-0.5-1.7s-0.8-0.6-1.5-0.6c-0.7,0-1.3,0.2-1.7,0.7
		c-0.4,0.4-0.6,1.1-0.6,2v4.8h-2.8v-9.7h2.7v1.1c0.4-0.4,0.8-0.7,1.4-0.9c0.6-0.2,1.2-0.3,1.8-0.3
		C104.5,489.5,105.5,489.8,106.2,490.5z"/>
	<path d="M117.2,490.5c0.8,0.7,1.2,1.8,1.2,3.2v5.5h-2.6v-1.2c-0.5,0.9-1.5,1.3-3,1.3c-0.7,0-1.4-0.1-1.9-0.4c-0.5-0.3-1-0.6-1.3-1
		c-0.3-0.4-0.4-0.9-0.4-1.5c0-0.9,0.3-1.6,1-2.1c0.7-0.5,1.7-0.8,3.1-0.8h2.2c0-0.6-0.2-1.1-0.6-1.4c-0.4-0.3-0.9-0.5-1.7-0.5
		c-0.5,0-1,0.1-1.5,0.2c-0.5,0.2-0.9,0.4-1.3,0.7l-1-2c0.5-0.4,1.2-0.7,1.9-0.9c0.7-0.2,1.5-0.3,2.3-0.3
		C115.3,489.5,116.4,489.8,117.2,490.5z M114.8,497.2c0.4-0.2,0.6-0.5,0.8-1v-1h-1.9c-1.2,0-1.7,0.4-1.7,1.1c0,0.4,0.1,0.6,0.4,0.9
		c0.3,0.2,0.7,0.3,1.2,0.3C114,497.5,114.4,497.4,114.8,497.2z"/>
	<path d="M125,489.8c0.6-0.2,1.2-0.4,2-0.4v2.6c-0.3,0-0.5,0-0.6,0c-0.8,0-1.4,0.2-1.9,0.7c-0.5,0.4-0.7,1.1-0.7,2v4.6H121v-9.7h2.7
		v1.3C124,490.4,124.4,490.1,125,489.8z"/>
	<path d="M129.6,499.1c-0.8-0.2-1.4-0.4-1.8-0.7l0.9-2c0.4,0.3,1,0.5,1.6,0.7c0.6,0.2,1.2,0.3,1.8,0.3c1.2,0,1.8-0.3,1.8-0.9
		c0-0.3-0.2-0.5-0.5-0.6s-0.8-0.2-1.5-0.3c-0.8-0.1-1.4-0.3-2-0.4c-0.5-0.2-1-0.4-1.3-0.8c-0.4-0.4-0.6-1-0.6-1.7
		c0-0.6,0.2-1.2,0.5-1.6c0.4-0.5,0.9-0.8,1.5-1.1c0.7-0.3,1.5-0.4,2.4-0.4c0.7,0,1.4,0.1,2,0.2c0.7,0.1,1.2,0.4,1.7,0.6l-0.9,2
		c-0.9-0.5-1.8-0.7-2.8-0.7c-0.6,0-1.1,0.1-1.4,0.3c-0.3,0.2-0.5,0.4-0.5,0.6c0,0.3,0.2,0.5,0.5,0.6c0.3,0.1,0.8,0.2,1.5,0.3
		c0.8,0.1,1.4,0.3,1.9,0.4c0.5,0.2,0.9,0.4,1.3,0.8c0.4,0.4,0.6,0.9,0.6,1.7c0,0.6-0.2,1.1-0.5,1.6s-0.9,0.8-1.6,1.1
		c-0.7,0.3-1.5,0.4-2.5,0.4C131.1,499.4,130.3,499.3,129.6,499.1z"/>
	<path d="M38.3,528.5c-0.3-0.3-0.5-0.8-0.5-1.3c0-0.5,0.2-0.9,0.5-1.3c0.3-0.3,0.7-0.5,1.2-0.5s0.9,0.2,1.2,0.5
		c0.3,0.3,0.5,0.7,0.5,1.3c0,0.5-0.2,0.9-0.5,1.3c-0.3,0.3-0.8,0.5-1.2,0.5S38.6,528.9,38.3,528.5z"/>
	<path d="M48.5,516.3h2.9v12.6h-2.9V516.3z"/>
	<path d="M63,520.1c0.7,0.7,1.1,1.8,1.1,3.2v5.5h-2.8v-5.1c0-0.8-0.2-1.3-0.5-1.7s-0.8-0.6-1.5-0.6c-0.7,0-1.3,0.2-1.7,0.7
		c-0.4,0.4-0.6,1.1-0.6,2v4.8h-2.8v-9.7h2.7v1.1c0.4-0.4,0.8-0.7,1.4-0.9c0.6-0.2,1.2-0.3,1.8-0.3C61.3,519.1,62.2,519.4,63,520.1z"
		/>
	<path d="M74.8,519.7c0.7,0.4,1.3,1,1.7,1.7s0.6,1.6,0.6,2.6s-0.2,1.9-0.6,2.6s-1,1.3-1.7,1.7c-0.7,0.4-1.6,0.6-2.5,0.6
		c-1.3,0-2.3-0.4-3-1.3v1.1h-2.7v-13.4h2.8v4.7c0.7-0.8,1.7-1.2,2.9-1.2C73.2,519.1,74.1,519.3,74.8,519.7z M73.6,526
		c0.5-0.5,0.7-1.1,0.7-2s-0.2-1.5-0.7-2c-0.5-0.5-1.1-0.7-1.8-0.7c-0.7,0-1.3,0.2-1.8,0.7c-0.5,0.5-0.7,1.1-0.7,2s0.2,1.5,0.7,2
		c0.5,0.5,1.1,0.7,1.8,0.7C72.6,526.7,73.2,526.5,73.6,526z"/>
	<path d="M80.9,528.4c-0.8-0.4-1.4-1-1.9-1.8c-0.5-0.8-0.7-1.6-0.7-2.6s0.2-1.8,0.7-2.6s1.1-1.3,1.9-1.8c0.8-0.4,1.7-0.6,2.7-0.6
		s1.9,0.2,2.7,0.6c0.8,0.4,1.4,1,1.9,1.8s0.7,1.6,0.7,2.6s-0.2,1.8-0.7,2.6c-0.5,0.8-1.1,1.3-1.9,1.8c-0.8,0.4-1.7,0.6-2.7,0.6
		S81.7,528.8,80.9,528.4z M85.4,526c0.5-0.5,0.7-1.1,0.7-2s-0.2-1.5-0.7-2s-1.1-0.7-1.8-0.7c-0.7,0-1.3,0.2-1.8,0.7
		c-0.5,0.5-0.7,1.1-0.7,2s0.2,1.5,0.7,2c0.5,0.5,1.1,0.7,1.8,0.7C84.4,526.7,85,526.5,85.4,526z"/>
	<path d="M100.6,519.2v9.7h-2.7v-1.2c-0.4,0.4-0.8,0.7-1.3,1c-0.5,0.2-1.1,0.3-1.7,0.3c-1.3,0-2.3-0.4-3-1.1
		c-0.7-0.7-1.1-1.8-1.1-3.3v-5.5h2.8v5.1c0,1.6,0.7,2.3,2,2.3c0.7,0,1.2-0.2,1.6-0.7c0.4-0.4,0.6-1.1,0.6-2v-4.8H100.6z"/>
	<path d="M112,520.1c0.7,0.7,1.1,1.8,1.1,3.2v5.5h-2.8v-5.1c0-0.8-0.2-1.3-0.5-1.7s-0.8-0.6-1.5-0.6c-0.7,0-1.3,0.2-1.7,0.7
		c-0.4,0.4-0.6,1.1-0.6,2v4.8h-2.8v-9.7h2.7v1.1c0.4-0.4,0.8-0.7,1.4-0.9c0.6-0.2,1.2-0.3,1.8-0.3
		C110.3,519.1,111.2,519.4,112,520.1z"/>
	<path d="M125.6,515.5v13.4h-2.7v-1.1c-0.7,0.8-1.7,1.3-3,1.3c-0.9,0-1.7-0.2-2.5-0.6s-1.3-1-1.7-1.7c-0.4-0.8-0.6-1.6-0.6-2.6
		s0.2-1.9,0.6-2.6c0.4-0.8,1-1.3,1.7-1.7s1.6-0.6,2.5-0.6c1.2,0,2.2,0.4,2.9,1.2v-4.7H125.6z M122.1,526c0.5-0.5,0.7-1.1,0.7-2
		s-0.2-1.5-0.7-2c-0.5-0.5-1.1-0.7-1.8-0.7c-0.7,0-1.3,0.2-1.8,0.7c-0.5,0.5-0.7,1.1-0.7,2s0.2,1.5,0.7,2c0.5,0.5,1.1,0.7,1.8,0.7
		C121.1,526.7,121.7,526.5,122.1,526z"/>
	<path d="M144.9,528.9l0-7.6l-3.7,6.2h-1.3l-3.7-6.1v7.4h-2.7v-12.6h2.4l4.7,7.8l4.6-7.8h2.4l0,12.6H144.9z"/>
	<path d="M157.8,520.1c0.8,0.7,1.2,1.8,1.2,3.2v5.5h-2.6v-1.2c-0.5,0.9-1.5,1.3-3,1.3c-0.7,0-1.4-0.1-1.9-0.4c-0.5-0.3-1-0.6-1.3-1
		c-0.3-0.4-0.4-0.9-0.4-1.5c0-0.9,0.3-1.6,1-2.1c0.7-0.5,1.7-0.8,3.1-0.8h2.2c0-0.6-0.2-1.1-0.6-1.4c-0.4-0.3-0.9-0.5-1.7-0.5
		c-0.5,0-1,0.1-1.5,0.2c-0.5,0.2-0.9,0.4-1.3,0.7l-1-2c0.5-0.4,1.2-0.7,1.9-0.9c0.7-0.2,1.5-0.3,2.3-0.3
		C155.9,519.1,157,519.4,157.8,520.1z M155.4,526.8c0.4-0.2,0.6-0.5,0.8-1v-1h-1.9c-1.2,0-1.7,0.4-1.7,1.1c0,0.4,0.1,0.6,0.4,0.9
		c0.3,0.2,0.7,0.3,1.2,0.3C154.6,527.1,155.1,527,155.4,526.8z"/>
	<path d="M165.6,519.4c0.6-0.2,1.2-0.4,2-0.4v2.6c-0.3,0-0.5,0-0.6,0c-0.8,0-1.4,0.2-1.9,0.7c-0.5,0.4-0.7,1.1-0.7,2v4.6h-2.8v-9.7
		h2.7v1.3C164.6,520,165,519.7,165.6,519.4z"/>
	<path d="M173.4,525.1l-1.4,1.3v2.5h-2.8v-13.4h2.8v7.6l4.1-3.9h3.3l-4,4.1l4.4,5.6h-3.4L173.4,525.1z"/>
	<path d="M190.2,524.8h-7.3c0.1,0.6,0.4,1.1,0.9,1.4s1.1,0.5,1.8,0.5c0.5,0,1-0.1,1.3-0.2c0.4-0.1,0.8-0.4,1.1-0.7l1.5,1.6
		c-0.9,1-2.2,1.6-4,1.6c-1.1,0-2.1-0.2-2.9-0.6c-0.8-0.4-1.5-1-1.9-1.8c-0.5-0.8-0.7-1.6-0.7-2.6c0-0.9,0.2-1.8,0.7-2.6
		c0.5-0.8,1.1-1.4,1.9-1.8c0.8-0.4,1.7-0.6,2.6-0.6c0.9,0,1.8,0.2,2.6,0.6s1.4,1,1.8,1.8s0.7,1.6,0.7,2.7
		C190.2,524.1,190.2,524.4,190.2,524.8z M183.6,521.7c-0.4,0.4-0.7,0.9-0.8,1.5h4.8c-0.1-0.6-0.4-1.1-0.8-1.5
		c-0.4-0.4-1-0.5-1.6-0.5C184.6,521.2,184,521.4,183.6,521.7z"/>
	<path d="M198.3,528.4c-0.3,0.2-0.6,0.4-1,0.5s-0.8,0.2-1.3,0.2c-1.2,0-2-0.3-2.7-0.9s-0.9-1.5-0.9-2.6v-4h-1.5v-2.2h1.5v-2.4h2.8
		v2.4h2.4v2.2h-2.4v3.9c0,0.4,0.1,0.7,0.3,0.9c0.2,0.2,0.5,0.3,0.9,0.3c0.4,0,0.8-0.1,1.1-0.4L198.3,528.4z"/>
	<path d="M200.1,517.4c-0.3-0.3-0.5-0.7-0.5-1.1c0-0.4,0.2-0.8,0.5-1.1c0.3-0.3,0.7-0.5,1.3-0.5c0.5,0,0.9,0.1,1.3,0.4
		c0.3,0.3,0.5,0.6,0.5,1.1c0,0.5-0.2,0.9-0.5,1.2c-0.3,0.3-0.7,0.5-1.3,0.5C200.8,517.9,200.4,517.7,200.1,517.4z M199.9,519.2h2.8
		v9.7h-2.8V519.2z"/>
	<path d="M214.1,520.1c0.7,0.7,1.1,1.8,1.1,3.2v5.5h-2.8v-5.1c0-0.8-0.2-1.3-0.5-1.7s-0.8-0.6-1.5-0.6c-0.7,0-1.3,0.2-1.7,0.7
		c-0.4,0.4-0.6,1.1-0.6,2v4.8h-2.8v-9.7h2.7v1.1c0.4-0.4,0.8-0.7,1.4-0.9c0.6-0.2,1.2-0.3,1.8-0.3
		C212.4,519.1,213.4,519.4,214.1,520.1z"/>
	<path d="M227.9,519.2v8.1c0,1.8-0.5,3.1-1.4,4c-0.9,0.9-2.3,1.3-4,1.3c-0.9,0-1.8-0.1-2.7-0.3c-0.8-0.2-1.5-0.6-2.1-1l1.1-2
		c0.4,0.3,0.9,0.6,1.5,0.8c0.6,0.2,1.2,0.3,1.9,0.3c1,0,1.7-0.2,2.2-0.7c0.5-0.4,0.7-1.1,0.7-2v-0.4c-0.7,0.8-1.8,1.2-3.1,1.2
		c-0.9,0-1.7-0.2-2.4-0.6s-1.3-0.9-1.8-1.6c-0.4-0.7-0.6-1.5-0.6-2.4c0-0.9,0.2-1.7,0.6-2.4c0.4-0.7,1-1.3,1.8-1.6
		c0.7-0.4,1.6-0.6,2.4-0.6c1.4,0,2.5,0.5,3.2,1.4v-1.2H227.9z M224.4,525.5c0.5-0.4,0.7-1,0.7-1.7c0-0.7-0.2-1.3-0.7-1.7
		c-0.5-0.4-1.1-0.7-1.8-0.7c-0.7,0-1.4,0.2-1.8,0.7c-0.5,0.4-0.7,1-0.7,1.7c0,0.7,0.2,1.3,0.7,1.7c0.5,0.4,1.1,0.7,1.8,0.7
		C223.3,526.1,223.9,525.9,224.4,525.5z"/>
</g>
</svg>
