<svg id="Capa_1" data-name="Capa 1" xmlns="http://www.w3.org/2000/svg" viewBox="0 0 29.55 32.35"><defs><style>.cls-1{fill:#fff;}</style></defs><path class="cls-1" d="M878.83,474.72c0,3.73,0,7.46,0,11.19,0,2.36-1.27,3.63-3.64,3.63H852.92a3.34,3.34,0,0,1-3.63-3.67q0-11.07,0-22.16c0-2.48,1.28-3.72,3.77-3.74a8.34,8.34,0,0,0,1,0c.94-.1,1.3.28,1.32,1.25a2.14,2.14,0,0,0,2.17,2.32,2.12,2.12,0,0,0,2.26-2.21c0-1.18.56-1.4,1.58-1.37q2.82.09,5.64,0c1,0,1.37.32,1.38,1.33a2.07,2.07,0,0,0,2.49,2.24,2,2,0,0,0,1.83-2.25c0-1,.41-1.41,1.39-1.31a8.34,8.34,0,0,0,1,0c2.43,0,3.7,1.26,3.71,3.67Zm-14.78-7.36c-3.69,0-7.38,0-11.07,0-.9,0-1.23.29-1.23,1.21,0,5.69,0,11.37,0,17.06,0,1.27.19,1.45,1.5,1.45h21.6c1.32,0,1.48-.16,1.49-1.46,0-5.65,0-11.29,0-16.94,0-1-.37-1.33-1.37-1.32C871.36,467.38,867.71,467.36,864.05,467.36Z" transform="translate(-849.28 -457.2)"/><path class="cls-1" d="M855.91,460a6.55,6.55,0,0,1,.21-1.65,1.54,1.54,0,0,1,1.48-1.12,1.4,1.4,0,0,1,1.48,1.1,7,7,0,0,1,0,3.5,1.55,1.55,0,0,1-3-.08A14.41,14.41,0,0,1,855.91,460Z" transform="translate(-849.28 -457.2)"/><path class="cls-1" d="M869,460a11.8,11.8,0,0,1,0-1.33,1.51,1.51,0,0,1,1.51-1.47,1.44,1.44,0,0,1,1.56,1.29,10,10,0,0,1,0,3.19,1.42,1.42,0,0,1-1.59,1.24,1.45,1.45,0,0,1-1.48-1.37,13.34,13.34,0,0,1,0-1.55Z" transform="translate(-849.28 -457.2)"/><path class="cls-1" d="M862.67,478.24c.52-1.13.94-2.15,1.45-3.12a12.28,12.28,0,0,1,3.73-4.31c.65-.47,1.07-.38,1.33.39a1,1,0,0,1,0,.1c1,2.35,1,2.36-.8,4.09a24.43,24.43,0,0,0-5,6.58c-.37.72-.67.84-1.25.19a8.62,8.62,0,0,0-3.47-2.31.8.8,0,0,1-.56-1.19,18.58,18.58,0,0,0,.53-1.8c.22-.89.74-1,1.5-.68A6.33,6.33,0,0,1,862.67,478.24Z" transform="translate(-849.28 -457.2)"/></svg>