<?xml version="1.0" encoding="utf-8"?>
<!-- Generator: Adobe Illustrator 25.2.3, SVG Export Plug-In . SVG Version: 6.00 Build 0)  -->
<svg version="1.1" xmlns="http://www.w3.org/2000/svg" xmlns:xlink="http://www.w3.org/1999/xlink" x="0px" y="0px"
	 viewBox="0 0 76.6 74.4" style="enable-background:new 0 0 76.6 74.4;" xml:space="preserve">
<style type="text/css">
	.st0{opacity:0.3;fill:#BFC0C0;}
	.st1{fill:#D52A33;}
	.st2{fill:#D03539;}
	.st3{clip-path:url(#SVGID_10_);fill:#D9D9D9;}
	.st4{clip-path:url(#SVGID_10_);fill:#FFFFFF;}
	.st5{clip-path:url(#SVGID_10_);}
	.st6{clip-path:url(#SVGID_16_);fill:#FFFFFF;}
	.st7{clip-path:url(#SVGID_22_);fill:#FFFFFF;}
	.st8{clip-path:url(#SVGID_28_);fill:#FFFFFF;}
	.st9{clip-path:url(#SVGID_34_);fill:#FFFFFF;}
	.st10{fill:#004C95;}
	.st11{fill:#0B559F;}
	.st12{fill:#0B2C95;}
	.st13{fill:url(#SVGID_37_);}
	.st14{fill:#076839;}
	.st15{fill:#FFFFFF;}
	.st16{fill:#DE2826;}
	.st17{fill:#202D4E;}
	.st18{fill:#77787B;}
	.st19{fill:#221F1F;}
	.st20{fill:#355C83;}
	.st21{fill:url(#SVGID_38_);}
	.st22{fill:url(#SVGID_39_);}
	.st23{fill:url(#SVGID_40_);}
	.st24{fill:#DB5133;}
	.st25{fill:#EAC330;}
	.st26{fill:#CECCCC;}
	.st27{opacity:0.16;fill:url(#SVGID_41_);}
	.st28{fill:#AAC7CA;}
	.st29{opacity:0.16;fill:url(#SVGID_42_);}
	.st30{fill:#838383;}
	.st31{fill:#515252;}
	.st32{fill:#92BCC3;}
	.st33{fill:#E6BF5E;}
	.st34{fill:#8A2780;}
	.st35{fill-rule:evenodd;clip-rule:evenodd;fill:#E0C0A2;}
	.st36{fill-rule:evenodd;clip-rule:evenodd;fill:#9F672E;stroke:#000000;stroke-width:0.5743;stroke-miterlimit:10;}
	.st37{fill-rule:evenodd;clip-rule:evenodd;fill:#FFFFFF;}
	.st38{opacity:0.5;fill-rule:evenodd;clip-rule:evenodd;fill:#8A2780;}
	.st39{fill-rule:evenodd;clip-rule:evenodd;fill:#832F80;}
	.st40{fill-rule:evenodd;clip-rule:evenodd;fill:#C896BB;}
	.st41{fill-rule:evenodd;clip-rule:evenodd;fill:#122129;}
	.st42{fill:#1D1C1A;}
	.st43{fill:none;stroke:#E5E5E5;stroke-width:2.5062;stroke-linecap:round;stroke-linejoin:round;stroke-miterlimit:10;}
	.st44{fill:#832F80;}
	.st45{opacity:0.8;}
	.st46{fill:#434244;}
	.st47{fill:none;stroke:#8A2780;stroke-width:0.8181;stroke-miterlimit:10;}
	.st48{fill:#1F5D8C;}
	.st49{fill:url(#SVGID_43_);}
	.st50{fill:none;stroke:#000000;stroke-width:0.4431;stroke-miterlimit:10;}
	.st51{fill:url(#SVGID_44_);}
	.st52{fill:url(#SVGID_45_);}
	.st53{fill:url(#SVGID_46_);}
	.st54{fill:url(#SVGID_47_);}
	.st55{clip-path:url(#SVGID_49_);fill:#29B080;}
	.st56{clip-path:url(#SVGID_49_);fill:#78DFC1;}
	.st57{clip-path:url(#SVGID_49_);fill:#087897;}
	.st58{clip-path:url(#SVGID_49_);fill:#14808A;}
	.st59{fill:#848484;}
	.st60{fill:url(#SVGID_50_);}
	.st61{clip-path:url(#SVGID_52_);fill:#29B080;}
	.st62{clip-path:url(#SVGID_52_);fill:#78DFC1;}
	.st63{clip-path:url(#SVGID_52_);fill:#087897;}
	.st64{clip-path:url(#SVGID_52_);fill:#14808A;}
	.st65{fill:url(#SVGID_53_);}
	.st66{clip-path:url(#SVGID_55_);}
	.st67{clip-path:url(#SVGID_59_);fill:#29B080;}
	.st68{clip-path:url(#SVGID_59_);fill:#78DFC1;}
	.st69{clip-path:url(#SVGID_59_);fill:#087897;}
	.st70{clip-path:url(#SVGID_59_);fill:#14808A;}
	.st71{clip-path:url(#SVGID_65_);fill:#FFFFFF;}
	.st72{clip-path:url(#SVGID_71_);fill:#FFFFFF;}
	.st73{fill:url(#SVGID_90_);}
	.st74{opacity:0.1;fill:url(#SVGID_91_);}
	.st75{fill:#212429;}
	.st76{clip-path:url(#SVGID_95_);fill:#29B080;}
	.st77{clip-path:url(#SVGID_95_);fill:#78DFC1;}
	.st78{clip-path:url(#SVGID_95_);fill:#087897;}
	.st79{clip-path:url(#SVGID_95_);fill:#14808A;}
	.st80{opacity:0.1;}
	.st81{clip-path:url(#SVGID_101_);}
	.st82{fill:#BFC0C0;}
	.st83{clip-path:url(#SVGID_103_);}
	.st84{fill:url(#SVGID_104_);}
	.st85{fill:url(#SVGID_105_);}
	.st86{fill:url(#SVGID_106_);}
	.st87{fill:url(#SVGID_107_);}
	.st88{fill:url(#SVGID_108_);}
	.st89{fill:url(#SVGID_109_);}
	.st90{fill:none;stroke:url(#SVGID_110_);stroke-width:0.3139;stroke-miterlimit:10;}
	.st91{fill:url(#SVGID_111_);}
	.st92{fill:#FBFBFB;}
	.st93{fill:#F9F9F9;}
	.st94{fill:#F8F8F8;}
	.st95{fill:#F7F7F7;}
	.st96{fill:#F5F5F5;}
	.st97{fill:#F4F4F4;}
	.st98{fill:#F3F3F3;}
	.st99{fill:#F2F2F2;}
	.st100{fill:#F0F0F0;}
	.st101{fill:#EFEFEF;}
	.st102{fill:#EEEEEE;}
	.st103{fill:#ECECEC;}
	.st104{fill:#EBEBEB;}
	.st105{fill:#EAEAEA;}
	.st106{fill:#E8E8E8;}
	.st107{fill:#E7E7E7;}
	.st108{fill:#E6E6E6;}
	.st109{fill:#E5E5E5;}
	.st110{fill:#E3E3E3;}
	.st111{fill:#E2E2E2;}
	.st112{fill:#E1E1E1;}
	.st113{fill:#DFDFDF;}
	.st114{fill:#DEDEDE;}
	.st115{fill:#DDDDDD;}
	.st116{fill:#DBDBDB;}
	.st117{fill:#DADADA;}
	.st118{fill:#D9D9D9;}
	.st119{fill:#D8D8D8;}
	.st120{fill:#D6D6D6;}
	.st121{fill:#D5D5D5;}
	.st122{fill:#D4D4D4;}
	.st123{fill:#D2D2D2;}
	.st124{fill:#D1D1D1;}
	.st125{fill:#D0D0D0;}
	.st126{fill:#CECECE;}
	.st127{fill:#CDCDCD;}
	.st128{fill:#CCCCCC;}
	.st129{fill:#CBCBCB;}
	.st130{fill:#C9C9C9;}
	.st131{fill:#C8C8C8;}
	.st132{fill:#C7C7C7;}
	.st133{fill:#C5C5C5;}
	.st134{fill:#C4C4C4;}
	.st135{fill:#C3C3C3;}
	.st136{fill:#C1C1C1;}
	.st137{fill:#C0C0C0;}
	.st138{fill:#BFBFBF;}
	.st139{fill:#BDBDBD;}
	.st140{fill:#BCBCBC;}
	.st141{fill:#BBBBBB;}
	.st142{fill:#BABABA;}
	.st143{fill:#B8B8B8;}
	.st144{fill:#B7B7B7;}
	.st145{fill:#B6B6B6;}
	.st146{fill:#B4B4B4;}
	.st147{fill:#B3B3B3;}
	.st148{fill:#B2B2B2;}
	.st149{fill:#B0B0B0;}
	.st150{fill:#AFAFAF;}
	.st151{fill:#AEAEAE;}
	.st152{fill:#ADADAD;}
	.st153{fill:#ABABAB;}
	.st154{fill:#AAAAAA;}
	.st155{fill:#A9A9A9;}
	.st156{fill:#A7A7A7;}
	.st157{fill:#A6A6A6;}
	.st158{fill:#A5A5A5;}
	.st159{fill:#A3A3A3;}
	.st160{fill:#A2A2A2;}
	.st161{fill:#A1A1A1;}
	.st162{fill:#A0A0A0;}
	.st163{fill:#9E9E9E;}
	.st164{fill:#9D9D9D;}
	.st165{fill:#9C9C9C;}
	.st166{fill:#9A9A9A;}
	.st167{fill:#999999;}
	.st168{fill:#989898;}
	.st169{fill:#969696;}
	.st170{fill:#959595;}
	.st171{fill:#949494;}
	.st172{fill:#939393;}
	.st173{fill:#919191;}
	.st174{fill:#909090;}
	.st175{fill:#8F8F8F;}
	.st176{fill:#8D8D8D;}
	.st177{fill:#8C8C8C;}
	.st178{fill:url(#SVGID_112_);}
	.st179{fill:#B4B9BB;}
	.st180{fill:none;stroke:url(#SVGID_113_);stroke-width:0.3139;stroke-miterlimit:10;}
	.st181{fill:url(#SVGID_114_);}
	.st182{fill:#FAFAFA;}
	.st183{fill:#F6F6F6;}
	.st184{fill:#F1F1F1;}
	.st185{fill:#EDEDED;}
	.st186{fill:#E4E4E4;}
	.st187{fill:#DCDCDC;}
	.st188{fill:#D3D3D3;}
	.st189{fill:#CFCFCF;}
	.st190{fill:#CACACA;}
	.st191{fill:#C6C6C6;}
	.st192{fill:#C2C2C2;}
	.st193{fill:#BEBEBE;}
	.st194{fill:#B9B9B9;}
	.st195{fill:#B5B5B5;}
	.st196{fill:#ACACAC;}
	.st197{fill:#A4A4A4;}
	.st198{fill:#9B9B9B;}
	.st199{fill:#979797;}
	.st200{fill:#929292;}
	.st201{fill:#8E8E8E;}
	.st202{fill:url(#SVGID_115_);}
	.st203{fill:none;stroke:url(#SVGID_116_);stroke-width:0.3139;stroke-miterlimit:10;}
	.st204{fill:url(#SVGID_117_);}
	.st205{fill:url(#SVGID_118_);}
	.st206{fill:none;stroke:#000000;stroke-width:0.653;stroke-miterlimit:10;}
	.st207{fill:url(#SVGID_119_);}
	.st208{clip-path:url(#SVGID_121_);fill:#29B080;}
	.st209{clip-path:url(#SVGID_121_);fill:#78DFC1;}
	.st210{clip-path:url(#SVGID_121_);fill:#087897;}
	.st211{clip-path:url(#SVGID_121_);fill:#14808A;}
	.st212{clip-path:url(#SVGID_123_);}
	.st213{clip-path:url(#SVGID_125_);}
	.st214{fill:url(#SVGID_126_);}
	.st215{fill:url(#SVGID_127_);}
	.st216{fill:url(#SVGID_128_);}
	.st217{fill:url(#SVGID_129_);}
	.st218{fill:url(#SVGID_130_);}
	.st219{fill:url(#SVGID_131_);}
	.st220{fill:none;stroke:url(#SVGID_132_);stroke-width:0.3139;stroke-miterlimit:10;}
	.st221{fill:url(#SVGID_133_);}
	.st222{fill:#FEFEFE;}
	.st223{fill:#FCFCFC;}
	.st224{fill:#E0E0E0;}
	.st225{fill:#D7D7D7;}
	.st226{fill:#B1B1B1;}
	.st227{fill:#A8A8A8;}
	.st228{fill:#9F9F9F;}
	.st229{fill:url(#SVGID_134_);}
	.st230{fill:none;stroke:url(#SVGID_135_);stroke-width:0.3139;stroke-miterlimit:10;}
	.st231{fill:url(#SVGID_136_);}
	.st232{fill:#FDFDFD;}
	.st233{fill:#E9E9E9;}
	.st234{fill:url(#SVGID_137_);}
	.st235{fill:none;stroke:url(#SVGID_138_);stroke-width:0.3139;stroke-miterlimit:10;}
	.st236{fill:url(#SVGID_139_);}
	.st237{fill:url(#SVGID_140_);}
	.st238{fill:url(#SVGID_141_);}
	.st239{clip-path:url(#SVGID_143_);fill:#29B080;}
	.st240{clip-path:url(#SVGID_143_);fill:#78DFC1;}
	.st241{clip-path:url(#SVGID_143_);fill:#087897;}
	.st242{clip-path:url(#SVGID_143_);fill:#14808A;}
	.st243{fill:url(#SVGID_144_);}
	.st244{fill:url(#SVGID_145_);}
	.st245{fill:none;stroke:url(#SVGID_146_);stroke-miterlimit:10;}
	.st246{fill:none;stroke:url(#SVGID_147_);stroke-miterlimit:10;}
	.st247{fill:none;stroke:url(#SVGID_148_);stroke-miterlimit:10;}
	.st248{fill:none;stroke:url(#SVGID_149_);stroke-miterlimit:10;}
	.st249{fill:none;stroke:url(#SVGID_150_);stroke-miterlimit:10;}
	.st250{fill:url(#SVGID_151_);}
	.st251{fill:none;stroke:url(#SVGID_152_);stroke-miterlimit:10;}
	.st252{fill:url(#SVGID_153_);}
	.st253{fill:none;stroke:url(#SVGID_154_);stroke-miterlimit:10;}
	.st254{fill:none;stroke:url(#SVGID_155_);stroke-miterlimit:10;}
	.st255{fill:none;stroke:url(#SVGID_156_);stroke-miterlimit:10;}
	.st256{fill:none;stroke:url(#SVGID_157_);stroke-miterlimit:10;}
	.st257{fill:none;stroke:url(#SVGID_158_);stroke-miterlimit:10;}
	.st258{fill:url(#SVGID_159_);}
	.st259{fill:none;stroke:url(#SVGID_160_);stroke-miterlimit:10;}
	.st260{clip-path:url(#SVGID_164_);fill:#29B080;}
	.st261{clip-path:url(#SVGID_164_);fill:#74E0C1;}
	.st262{clip-path:url(#SVGID_164_);fill:#087897;}
	.st263{clip-path:url(#SVGID_164_);fill:#14808A;}
	.st264{fill:url(#SVGID_167_);}
	.st265{clip-path:url(#SVGID_171_);fill:#29B080;}
	.st266{clip-path:url(#SVGID_171_);fill:#74E0C1;}
	.st267{clip-path:url(#SVGID_171_);fill:#087897;}
	.st268{clip-path:url(#SVGID_171_);fill:#14808A;}
	.st269{clip-path:url(#SVGID_175_);fill:#29B080;}
	.st270{clip-path:url(#SVGID_175_);fill:#74E0C1;}
	.st271{clip-path:url(#SVGID_175_);fill:#087897;}
	.st272{clip-path:url(#SVGID_175_);fill:#14808A;}
	.st273{fill:#006937;}
	.st274{fill:#E1251B;}
	.st275{clip-path:url(#SVGID_177_);}
	.st276{fill:url(#SVGID_178_);}
	.st277{clip-path:url(#SVGID_180_);}
	.st278{clip-path:url(#SVGID_184_);fill:#29B080;}
	.st279{clip-path:url(#SVGID_184_);fill:#74E0C1;}
	.st280{clip-path:url(#SVGID_184_);fill:#087897;}
	.st281{clip-path:url(#SVGID_184_);fill:#14808A;}
	.st282{fill:#FFFFFF;stroke:#231F20;stroke-width:0.5;stroke-miterlimit:10;}
	.st283{fill:none;stroke:#434244;stroke-width:0.6587;stroke-miterlimit:10;}
	.st284{fill:url(#SVGID_187_);}
	.st285{fill:url(#SVGID_188_);}
	.st286{fill:url(#SVGID_195_);}
	.st287{fill:url(#SVGID_196_);}
	.st288{fill:url(#SVGID_197_);}
	.st289{clip-path:url(#SVGID_199_);fill:#29B080;}
	.st290{clip-path:url(#SVGID_199_);fill:#78DFC1;}
	.st291{clip-path:url(#SVGID_199_);fill:#087897;}
	.st292{clip-path:url(#SVGID_199_);fill:#14808A;}
	.st293{clip-path:url(#SVGID_203_);fill:#FFFFFF;}
	.st294{clip-path:url(#SVGID_207_);}
	.st295{clip-path:url(#SVGID_209_);}
	.st296{fill:url(#SVGID_210_);}
	.st297{fill:url(#SVGID_211_);}
	.st298{fill:url(#SVGID_212_);}
	.st299{fill:url(#SVGID_213_);}
	.st300{fill:url(#SVGID_214_);}
	.st301{fill:url(#SVGID_215_);}
	.st302{fill:none;stroke:url(#SVGID_216_);stroke-width:0.3139;stroke-miterlimit:10;}
	.st303{fill:url(#SVGID_217_);}
	.st304{fill:url(#SVGID_218_);}
	.st305{fill:none;stroke:url(#SVGID_219_);stroke-width:0.3139;stroke-miterlimit:10;}
	.st306{fill:url(#SVGID_220_);}
	.st307{fill:url(#SVGID_221_);}
	.st308{fill:none;stroke:url(#SVGID_222_);stroke-width:0.3139;stroke-miterlimit:10;}
	.st309{fill:url(#SVGID_223_);}
	.st310{fill:url(#SVGID_224_);}
	.st311{fill:url(#SVGID_225_);}
	.st312{clip-path:url(#SVGID_227_);fill:#29B080;}
	.st313{clip-path:url(#SVGID_227_);fill:#78DFC1;}
	.st314{clip-path:url(#SVGID_227_);fill:#087897;}
	.st315{clip-path:url(#SVGID_227_);fill:#14808A;}
	.st316{fill:none;stroke:url(#SVGID_228_);stroke-miterlimit:10;}
	.st317{fill:none;stroke:url(#SVGID_229_);stroke-miterlimit:10;}
	.st318{fill:none;stroke:url(#SVGID_230_);stroke-miterlimit:10;}
	.st319{fill:none;stroke:url(#SVGID_231_);stroke-miterlimit:10;}
	.st320{fill:none;stroke:url(#SVGID_232_);stroke-miterlimit:10;}
	.st321{fill:url(#SVGID_233_);}
	.st322{fill:none;stroke:url(#SVGID_234_);stroke-miterlimit:10;}
	.st323{clip-path:url(#SVGID_236_);}
	.st324{fill:url(#SVGID_237_);}
	.st325{clip-path:url(#SVGID_239_);}
	.st326{clip-path:url(#SVGID_243_);fill:#29B080;}
	.st327{clip-path:url(#SVGID_243_);fill:#74E0C1;}
	.st328{clip-path:url(#SVGID_243_);fill:#087897;}
	.st329{clip-path:url(#SVGID_243_);fill:#14808A;}
	.st330{fill:url(#SVGID_246_);}
	.st331{fill:url(#SVGID_247_);}
	.st332{fill:url(#SVGID_264_);}
	.st333{fill:#1F4193;}
	.st334{fill:#D80D18;}
	.st335{fill:#050505;}
	.st336{fill:#089645;}
	.st337{fill:#043974;}
	.st338{fill:#118556;}
	.st339{fill:#043263;}
	.st340{fill:#1E110D;}
	.st341{fill:#F7BE00;}
	.st342{fill:#FF5100;}
	.st343{display:none;}
	.st344{display:inline;}
	.st345{opacity:0.3;clip-path:url(#SVGID_266_);}
	.st346{opacity:0.3;}
	.st347{clip-path:url(#SVGID_268_);fill:#B0B0B0;}
	.st348{clip-path:url(#SVGID_268_);}
	.st349{clip-path:url(#SVGID_270_);}
</style>
<g id="Layer_1">
</g>
<g id="Nombres_servicios">
</g>
<g id="Layer_2">
	<g>
		<g>
			<g>
				<g>
					<polygon points="11.8,65.1 6.5,65.1 6.5,60.5 4.2,60.5 4.2,72 6.5,72 6.5,67.3 11.8,67.3 11.8,72 14.1,72 14.1,60.5 11.8,60.5 
											"/>
					<path d="M24.9,67.1c0,1.9-0.9,2.9-2.6,2.9c-1.7,0-2.6-1-2.6-2.9v-6.5h-2.3v6.6c0,3.2,1.8,5.1,4.9,5.1c3.2,0,5-1.9,5-5.2v-6.5
						h-2.3V67.1z"/>
					<polygon points="51.9,68.4 49.3,60.5 47.4,60.5 44.8,68.4 42.3,60.5 39.8,60.5 43.8,72 45.7,72 48.3,64.4 50.9,72 52.9,72 
						56.9,60.5 54.5,60.5 					"/>
					<polygon points="61.1,67.1 65.3,67.1 65.3,65 61.1,65 61.1,62.6 67.2,62.6 67.2,60.5 58.8,60.5 58.8,72 67.5,72 67.5,69.9 
						61.1,69.9 					"/>
					<rect x="70.2" y="60.5" width="2.3" height="11.5"/>
					<path d="M37.2,69.6l1,2.4h2.4l-5-11.5h-2.1L28.5,72h2.4l1-2.4H37.2z M34.5,63.4l1.8,4.1h-3.5L34.5,63.4z"/>
				</g>
			</g>
			<radialGradient id="SVGID_2_" cx="46.4216" cy="8.3436" r="50.1312" gradientUnits="userSpaceOnUse">
				<stop  offset="0" style="stop-color:#EEB79E"/>
				<stop  offset="0.43" style="stop-color:#DB0A1F"/>
				<stop  offset="1" style="stop-color:#96040C"/>
			</radialGradient>
			<path style="fill:url(#SVGID_2_);" d="M67.6,22.6C68,16.8,62,11.3,62,11.3s-11,13.3-19,30.8c0,0.1-0.1,0.2,0,0.3
				c0.1,0.1,0.2,0.1,0.3,0c3-1.5,15.5-7.9,20.7-12.9C64.1,29.5,67.4,26.9,67.6,22.6z M53.6,9.4c0,0-1.4-5.1-7-6.5
				c0,0-1.6-0.4-3.3-0.6c0,0-6.2,8-3.2,38.3c0,0.2,0.1,0.2,0.2,0.2c0.1,0,0.2,0,0.3-0.1c2-2.9,11.1-16.4,13-24.6
				C53.5,16,54.6,12,53.6,9.4z M45,46.7c0,0.1-0.1,0.2,0.1,0.3c2,1.4,8.1,5.7,11.1,6.5c0,0,5.4,1.9,10.2-6.3c0,0-15.8-0.6-21.1-0.7
				C45.2,46.6,45.1,46.7,45,46.7z M71.9,28.7c0,0-17.9,9.6-27.1,15.8c-0.1,0-0.2,0.1-0.1,0.3c0,0.1,0.1,0.2,0.2,0.2
				c3.3,0,15.8,0,16.2,0c0,0,1.6-0.1,3.6-0.8c0,0,4.5-1.4,6.8-6.5C71.5,37.7,73.5,33.6,71.9,28.7z M31.8,44.6
				C22.6,38.3,4.7,28.7,4.7,28.7c-1.6,4.8,0.5,9,0.5,9c2.3,5.1,6.8,6.5,6.8,6.5c2,0.8,3.6,0.8,3.6,0.8c0.3,0.1,12.8,0,16.2,0
				c0.1,0,0.2-0.1,0.2-0.2C32,44.7,31.9,44.6,31.8,44.6z M31.3,46.6c-5.3,0.2-21.1,0.7-21.1,0.7c4.7,8.1,10.2,6.3,10.2,6.3
				c2.9-0.8,9-5.1,11.1-6.5c0.1-0.1,0.1-0.3,0.1-0.3C31.5,46.7,31.4,46.6,31.3,46.6z M30,2.9c-5.6,1.4-7,6.5-7,6.5
				c-1,2.7,0,6.7,0,6.7c1.9,8.2,11,21.7,13,24.6c0.1,0.1,0.2,0.1,0.3,0.1c0.1,0,0.2-0.1,0.2-0.2c3-30.3-3.2-38.3-3.2-38.3
				C31.6,2.5,30,2.9,30,2.9z M14.6,11.3c0,0-5.9,5.5-5.6,11.3c0.2,4.2,3.5,6.9,3.5,6.9c5.3,5,17.7,11.4,20.7,12.9
				c0.1,0.1,0.2,0,0.3,0c0.1-0.1,0.1-0.2,0-0.3C25.5,24.6,14.6,11.3,14.6,11.3z"/>
		</g>
	</g>
</g>
<g id="Grilla" class="st343">
</g>
</svg>
