<?xml version="1.0" encoding="utf-8"?>
<!-- Generator: Adobe Illustrator 25.2.3, SVG Export Plug-In . SVG Version: 6.00 Build 0)  -->
<svg version="1.1" xmlns="http://www.w3.org/2000/svg" xmlns:xlink="http://www.w3.org/1999/xlink" x="0px" y="0px"
	 viewBox="0 0 126.8 86.3" style="enable-background:new 0 0 126.8 86.3;" xml:space="preserve">
<style type="text/css">
	.st0{opacity:0.3;fill:#BFC0C0;}
	.st1{fill:#D52A33;}
	.st2{fill:#D03539;}
	.st3{clip-path:url(#SVGID_10_);fill:#D9D9D9;}
	.st4{clip-path:url(#SVGID_10_);fill:#FFFFFF;}
	.st5{clip-path:url(#SVGID_10_);}
	.st6{clip-path:url(#SVGID_16_);fill:#FFFFFF;}
	.st7{clip-path:url(#SVGID_22_);fill:#FFFFFF;}
	.st8{clip-path:url(#SVGID_28_);fill:#FFFFFF;}
	.st9{clip-path:url(#SVGID_34_);fill:#FFFFFF;}
	.st10{fill:#004A98;}
	.st11{fill:#0B559F;}
	.st12{fill:#0B2C95;}
	.st13{fill:url(#SVGID_37_);}
	.st14{fill:#006937;}
	.st15{fill:#FFFFFF;}
	.st16{fill:#E1251B;}
	.st17{fill:#202D4E;}
	.st18{fill:#77787B;}
	.st19{fill:#221F1F;}
	.st20{fill:#355C83;}
	.st21{fill:url(#SVGID_38_);}
	.st22{fill:url(#SVGID_39_);}
	.st23{fill:url(#SVGID_40_);}
	.st24{fill:#DB5133;}
	.st25{fill:#EAC330;}
	.st26{fill:#CECCCC;}
	.st27{opacity:0.16;fill:url(#SVGID_41_);}
	.st28{fill:#AAC7CA;}
	.st29{opacity:0.16;fill:url(#SVGID_42_);}
	.st30{fill:#838383;}
	.st31{fill:#515252;}
	.st32{fill:#92BCC3;}
	.st33{fill:#E6BF5E;}
	.st34{fill:#8A2780;}
	.st35{fill-rule:evenodd;clip-rule:evenodd;fill:#E0C0A2;}
	.st36{fill-rule:evenodd;clip-rule:evenodd;fill:#9F672E;stroke:#000000;stroke-width:0.5743;stroke-miterlimit:10;}
	.st37{fill-rule:evenodd;clip-rule:evenodd;fill:#FFFFFF;}
	.st38{opacity:0.5;fill-rule:evenodd;clip-rule:evenodd;fill:#8A2780;}
	.st39{fill-rule:evenodd;clip-rule:evenodd;fill:#832F80;}
	.st40{fill-rule:evenodd;clip-rule:evenodd;fill:#C896BB;}
	.st41{fill-rule:evenodd;clip-rule:evenodd;fill:#122129;}
	.st42{fill:#1D1C1A;}
	.st43{fill:none;stroke:#E5E5E5;stroke-width:2.5062;stroke-linecap:round;stroke-linejoin:round;stroke-miterlimit:10;}
	.st44{fill:#832F80;}
	.st45{opacity:0.8;}
	.st46{fill:#434244;}
	.st47{fill:none;stroke:#8A2780;stroke-width:0.8181;stroke-miterlimit:10;}
	.st48{fill:#1F5D8C;}
	.st49{fill:url(#SVGID_43_);}
	.st50{fill:none;stroke:#000000;stroke-width:0.4431;stroke-miterlimit:10;}
	.st51{fill:url(#SVGID_44_);}
	.st52{fill:url(#SVGID_45_);}
	.st53{fill:url(#SVGID_46_);}
	.st54{fill:url(#SVGID_47_);}
	.st55{clip-path:url(#SVGID_49_);fill:#29B080;}
	.st56{clip-path:url(#SVGID_49_);fill:#74E0C1;}
	.st57{clip-path:url(#SVGID_49_);fill:#087897;}
	.st58{clip-path:url(#SVGID_49_);fill:#14808A;}
	.st59{fill:#848484;}
	.st60{fill:url(#SVGID_50_);}
	.st61{clip-path:url(#SVGID_52_);fill:#29B080;}
	.st62{clip-path:url(#SVGID_52_);fill:#74E0C1;}
	.st63{clip-path:url(#SVGID_52_);fill:#087897;}
	.st64{clip-path:url(#SVGID_52_);fill:#14808A;}
	.st65{fill:url(#SVGID_53_);}
	.st66{clip-path:url(#SVGID_55_);}
	.st67{clip-path:url(#SVGID_59_);fill:#29B080;}
	.st68{clip-path:url(#SVGID_59_);fill:#74E0C1;}
	.st69{clip-path:url(#SVGID_59_);fill:#087897;}
	.st70{clip-path:url(#SVGID_59_);fill:#14808A;}
	.st71{clip-path:url(#SVGID_65_);fill:#FFFFFF;}
	.st72{clip-path:url(#SVGID_71_);fill:#FFFFFF;}
	.st73{fill:url(#SVGID_90_);}
	.st74{opacity:0.1;fill:url(#SVGID_91_);}
	.st75{fill:#212429;}
	.st76{clip-path:url(#SVGID_95_);fill:#29B080;}
	.st77{clip-path:url(#SVGID_95_);fill:#74E0C1;}
	.st78{clip-path:url(#SVGID_95_);fill:#087897;}
	.st79{clip-path:url(#SVGID_95_);fill:#14808A;}
	.st80{opacity:0.1;}
	.st81{clip-path:url(#SVGID_101_);}
	.st82{fill:#BFC0C0;}
	.st83{clip-path:url(#SVGID_103_);}
	.st84{fill:url(#SVGID_104_);}
	.st85{fill:url(#SVGID_105_);}
	.st86{fill:url(#SVGID_106_);}
	.st87{fill:url(#SVGID_107_);}
	.st88{fill:url(#SVGID_108_);}
	.st89{fill:url(#SVGID_109_);}
	.st90{fill:none;stroke:url(#SVGID_110_);stroke-width:0.3139;stroke-miterlimit:10;}
	.st91{fill:url(#SVGID_111_);}
	.st92{fill:#FBFBFB;}
	.st93{fill:#F9F9F9;}
	.st94{fill:#F8F8F8;}
	.st95{fill:#F7F7F7;}
	.st96{fill:#F5F5F5;}
	.st97{fill:#F4F4F4;}
	.st98{fill:#F3F3F3;}
	.st99{fill:#F2F2F2;}
	.st100{fill:#F0F0F0;}
	.st101{fill:#EFEFEF;}
	.st102{fill:#EEEEEE;}
	.st103{fill:#ECECEC;}
	.st104{fill:#EBEBEB;}
	.st105{fill:#EAEAEA;}
	.st106{fill:#E8E8E8;}
	.st107{fill:#E7E7E7;}
	.st108{fill:#E6E6E6;}
	.st109{fill:#E5E5E5;}
	.st110{fill:#E3E3E3;}
	.st111{fill:#E2E2E2;}
	.st112{fill:#E1E1E1;}
	.st113{fill:#DFDFDF;}
	.st114{fill:#DEDEDE;}
	.st115{fill:#DDDDDD;}
	.st116{fill:#DBDBDB;}
	.st117{fill:#DADADA;}
	.st118{fill:#D9D9D9;}
	.st119{fill:#D8D8D8;}
	.st120{fill:#D6D6D6;}
	.st121{fill:#D5D5D5;}
	.st122{fill:#D4D4D4;}
	.st123{fill:#D2D2D2;}
	.st124{fill:#D1D1D1;}
	.st125{fill:#D0D0D0;}
	.st126{fill:#CECECE;}
	.st127{fill:#CDCDCD;}
	.st128{fill:#CCCCCC;}
	.st129{fill:#CBCBCB;}
	.st130{fill:#C9C9C9;}
	.st131{fill:#C8C8C8;}
	.st132{fill:#C7C7C7;}
	.st133{fill:#C5C5C5;}
	.st134{fill:#C4C4C4;}
	.st135{fill:#C3C3C3;}
	.st136{fill:#C1C1C1;}
	.st137{fill:#C0C0C0;}
	.st138{fill:#BFBFBF;}
	.st139{fill:#BDBDBD;}
	.st140{fill:#BCBCBC;}
	.st141{fill:#BBBBBB;}
	.st142{fill:#BABABA;}
	.st143{fill:#B8B8B8;}
	.st144{fill:#B7B7B7;}
	.st145{fill:#B6B6B6;}
	.st146{fill:#B4B4B4;}
	.st147{fill:#B3B3B3;}
	.st148{fill:#B2B2B2;}
	.st149{fill:#B0B0B0;}
	.st150{fill:#AFAFAF;}
	.st151{fill:#AEAEAE;}
	.st152{fill:#ADADAD;}
	.st153{fill:#ABABAB;}
	.st154{fill:#AAAAAA;}
	.st155{fill:#A9A9A9;}
	.st156{fill:#A7A7A7;}
	.st157{fill:#A6A6A6;}
	.st158{fill:#A5A5A5;}
	.st159{fill:#A3A3A3;}
	.st160{fill:#A2A2A2;}
	.st161{fill:#A1A1A1;}
	.st162{fill:#A0A0A0;}
	.st163{fill:#9E9E9E;}
	.st164{fill:#9D9D9D;}
	.st165{fill:#9C9C9C;}
	.st166{fill:#9A9A9A;}
	.st167{fill:#999999;}
	.st168{fill:#989898;}
	.st169{fill:#969696;}
	.st170{fill:#959595;}
	.st171{fill:#949494;}
	.st172{fill:#939393;}
	.st173{fill:#919191;}
	.st174{fill:#909090;}
	.st175{fill:#8F8F8F;}
	.st176{fill:#8D8D8D;}
	.st177{fill:#8C8C8C;}
	.st178{fill:url(#SVGID_112_);}
	.st179{fill:#B4B9BB;}
	.st180{fill:none;stroke:url(#SVGID_113_);stroke-width:0.3139;stroke-miterlimit:10;}
	.st181{fill:url(#SVGID_114_);}
	.st182{fill:#FAFAFA;}
	.st183{fill:#F6F6F6;}
	.st184{fill:#F1F1F1;}
	.st185{fill:#EDEDED;}
	.st186{fill:#E4E4E4;}
	.st187{fill:#DCDCDC;}
	.st188{fill:#D3D3D3;}
	.st189{fill:#CFCFCF;}
	.st190{fill:#CACACA;}
	.st191{fill:#C6C6C6;}
	.st192{fill:#C2C2C2;}
	.st193{fill:#BEBEBE;}
	.st194{fill:#B9B9B9;}
	.st195{fill:#B5B5B5;}
	.st196{fill:#ACACAC;}
	.st197{fill:#A4A4A4;}
	.st198{fill:#9B9B9B;}
	.st199{fill:#979797;}
	.st200{fill:#929292;}
	.st201{fill:#8E8E8E;}
	.st202{fill:url(#SVGID_115_);}
	.st203{fill:none;stroke:url(#SVGID_116_);stroke-width:0.3139;stroke-miterlimit:10;}
	.st204{fill:url(#SVGID_117_);}
	.st205{fill:url(#SVGID_118_);}
	.st206{fill:none;stroke:#000000;stroke-width:0.653;stroke-miterlimit:10;}
	.st207{fill:url(#SVGID_119_);}
	.st208{clip-path:url(#SVGID_121_);fill:#29B080;}
	.st209{clip-path:url(#SVGID_121_);fill:#74E0C1;}
	.st210{clip-path:url(#SVGID_121_);fill:#087897;}
	.st211{clip-path:url(#SVGID_121_);fill:#14808A;}
	.st212{clip-path:url(#SVGID_123_);}
	.st213{clip-path:url(#SVGID_125_);}
	.st214{fill:url(#SVGID_126_);}
	.st215{fill:url(#SVGID_127_);}
	.st216{fill:url(#SVGID_128_);}
	.st217{fill:url(#SVGID_129_);}
	.st218{fill:url(#SVGID_130_);}
	.st219{fill:url(#SVGID_131_);}
	.st220{fill:none;stroke:url(#SVGID_132_);stroke-width:0.3139;stroke-miterlimit:10;}
	.st221{fill:url(#SVGID_133_);}
	.st222{fill:#FEFEFE;}
	.st223{fill:#FCFCFC;}
	.st224{fill:#E0E0E0;}
	.st225{fill:#D7D7D7;}
	.st226{fill:#B1B1B1;}
	.st227{fill:#A8A8A8;}
	.st228{fill:#9F9F9F;}
	.st229{fill:url(#SVGID_134_);}
	.st230{fill:none;stroke:url(#SVGID_135_);stroke-width:0.3139;stroke-miterlimit:10;}
	.st231{fill:url(#SVGID_136_);}
	.st232{fill:#FDFDFD;}
	.st233{fill:#E9E9E9;}
	.st234{fill:url(#SVGID_137_);}
	.st235{fill:none;stroke:url(#SVGID_138_);stroke-width:0.3139;stroke-miterlimit:10;}
	.st236{fill:url(#SVGID_139_);}
	.st237{fill:url(#SVGID_140_);}
	.st238{fill:url(#SVGID_141_);}
	.st239{clip-path:url(#SVGID_143_);fill:#29B080;}
	.st240{clip-path:url(#SVGID_143_);fill:#74E0C1;}
	.st241{clip-path:url(#SVGID_143_);fill:#087897;}
	.st242{clip-path:url(#SVGID_143_);fill:#14808A;}
	.st243{fill:url(#SVGID_144_);}
	.st244{fill:url(#SVGID_145_);}
	.st245{fill:none;stroke:url(#SVGID_146_);stroke-miterlimit:10;}
	.st246{fill:none;stroke:url(#SVGID_147_);stroke-miterlimit:10;}
	.st247{fill:none;stroke:url(#SVGID_148_);stroke-miterlimit:10;}
	.st248{fill:none;stroke:url(#SVGID_149_);stroke-miterlimit:10;}
	.st249{fill:none;stroke:url(#SVGID_150_);stroke-miterlimit:10;}
	.st250{fill:url(#SVGID_151_);}
	.st251{fill:none;stroke:url(#SVGID_152_);stroke-miterlimit:10;}
	.st252{fill:url(#SVGID_153_);}
	.st253{fill:none;stroke:url(#SVGID_154_);stroke-miterlimit:10;}
	.st254{fill:none;stroke:url(#SVGID_155_);stroke-miterlimit:10;}
	.st255{fill:none;stroke:url(#SVGID_156_);stroke-miterlimit:10;}
	.st256{fill:none;stroke:url(#SVGID_157_);stroke-miterlimit:10;}
	.st257{fill:none;stroke:url(#SVGID_158_);stroke-miterlimit:10;}
	.st258{fill:url(#SVGID_159_);}
	.st259{fill:none;stroke:url(#SVGID_160_);stroke-miterlimit:10;}
	.st260{clip-path:url(#SVGID_164_);fill:#29B080;}
	.st261{clip-path:url(#SVGID_164_);fill:#74E0C1;}
	.st262{clip-path:url(#SVGID_164_);fill:#087897;}
	.st263{clip-path:url(#SVGID_164_);fill:#14808A;}
	.st264{fill:url(#SVGID_167_);}
	.st265{clip-path:url(#SVGID_171_);fill:#29B080;}
	.st266{clip-path:url(#SVGID_171_);fill:#74E0C1;}
	.st267{clip-path:url(#SVGID_171_);fill:#087897;}
	.st268{clip-path:url(#SVGID_171_);fill:#14808A;}
	.st269{clip-path:url(#SVGID_175_);fill:#29B080;}
	.st270{clip-path:url(#SVGID_175_);fill:#74E0C1;}
	.st271{clip-path:url(#SVGID_175_);fill:#087897;}
	.st272{clip-path:url(#SVGID_175_);fill:#14808A;}
	.st273{clip-path:url(#SVGID_177_);}
	.st274{fill:url(#SVGID_178_);}
	.st275{clip-path:url(#SVGID_180_);}
	.st276{clip-path:url(#SVGID_184_);fill:#29B080;}
	.st277{clip-path:url(#SVGID_184_);fill:#74E0C1;}
	.st278{clip-path:url(#SVGID_184_);fill:#087897;}
	.st279{clip-path:url(#SVGID_184_);fill:#14808A;}
	.st280{fill:#FFFFFF;stroke:#231F20;stroke-width:0.5;stroke-miterlimit:10;}
	.st281{fill:none;stroke:#434244;stroke-width:0.6587;stroke-miterlimit:10;}
	.st282{fill:url(#SVGID_187_);}
	.st283{fill:url(#SVGID_188_);}
	.st284{fill:url(#SVGID_195_);}
	.st285{fill:url(#SVGID_196_);}
	.st286{fill:url(#SVGID_197_);}
	.st287{clip-path:url(#SVGID_199_);fill:#29B080;}
	.st288{clip-path:url(#SVGID_199_);fill:#74E0C1;}
	.st289{clip-path:url(#SVGID_199_);fill:#087897;}
	.st290{clip-path:url(#SVGID_199_);fill:#14808A;}
	.st291{clip-path:url(#SVGID_203_);fill:#FFFFFF;}
	.st292{clip-path:url(#SVGID_207_);}
	.st293{clip-path:url(#SVGID_209_);}
	.st294{fill:url(#SVGID_210_);}
	.st295{fill:url(#SVGID_211_);}
	.st296{fill:url(#SVGID_212_);}
	.st297{fill:url(#SVGID_213_);}
	.st298{fill:url(#SVGID_214_);}
	.st299{fill:url(#SVGID_215_);}
	.st300{fill:none;stroke:url(#SVGID_216_);stroke-width:0.3139;stroke-miterlimit:10;}
	.st301{fill:url(#SVGID_217_);}
	.st302{fill:url(#SVGID_218_);}
	.st303{fill:none;stroke:url(#SVGID_219_);stroke-width:0.3139;stroke-miterlimit:10;}
	.st304{fill:url(#SVGID_220_);}
	.st305{fill:url(#SVGID_221_);}
	.st306{fill:none;stroke:url(#SVGID_222_);stroke-width:0.3139;stroke-miterlimit:10;}
	.st307{fill:url(#SVGID_223_);}
	.st308{fill:url(#SVGID_224_);}
	.st309{fill:url(#SVGID_225_);}
	.st310{clip-path:url(#SVGID_227_);fill:#29B080;}
	.st311{clip-path:url(#SVGID_227_);fill:#74E0C1;}
	.st312{clip-path:url(#SVGID_227_);fill:#087897;}
	.st313{clip-path:url(#SVGID_227_);fill:#14808A;}
	.st314{fill:none;stroke:url(#SVGID_228_);stroke-miterlimit:10;}
	.st315{fill:none;stroke:url(#SVGID_229_);stroke-miterlimit:10;}
	.st316{fill:none;stroke:url(#SVGID_230_);stroke-miterlimit:10;}
	.st317{fill:none;stroke:url(#SVGID_231_);stroke-miterlimit:10;}
	.st318{fill:none;stroke:url(#SVGID_232_);stroke-miterlimit:10;}
	.st319{fill:url(#SVGID_233_);}
	.st320{fill:none;stroke:url(#SVGID_234_);stroke-miterlimit:10;}
	.st321{clip-path:url(#SVGID_236_);}
	.st322{fill:url(#SVGID_237_);}
	.st323{clip-path:url(#SVGID_239_);}
	.st324{clip-path:url(#SVGID_243_);fill:#29B080;}
	.st325{clip-path:url(#SVGID_243_);fill:#74E0C1;}
	.st326{clip-path:url(#SVGID_243_);fill:#087897;}
	.st327{clip-path:url(#SVGID_243_);fill:#14808A;}
	.st328{fill:url(#SVGID_246_);}
	.st329{fill:url(#SVGID_247_);}
	.st330{fill:url(#SVGID_264_);}
	.st331{fill:#1F4193;}
	.st332{fill:#D80D18;}
	.st333{fill:#050505;}
	.st334{fill:#089645;}
	.st335{fill:#043974;}
	.st336{fill:#118556;}
	.st337{fill:#043263;}
	.st338{fill:#1E110D;}
	.st339{fill:#F7BE00;}
	.st340{fill:#FF5100;}
	.st341{display:none;}
	.st342{display:inline;}
	.st343{opacity:0.3;clip-path:url(#SVGID_266_);}
	.st344{opacity:0.3;}
	.st345{clip-path:url(#SVGID_268_);fill:#B0B0B0;}
	.st346{clip-path:url(#SVGID_268_);}
	.st347{clip-path:url(#SVGID_270_);}
</style>
<g id="Layer_1">
</g>
<g id="Nombres_servicios">
</g>
<g id="Layer_2">
	<g>
		<path class="st12" d="M72.9,79.5c-1.9,0.1-4-0.2-6-0.3c-2.8-0.2-5.6-0.6-8.3-1.2c-3.8-0.8-7.5-1.9-11.1-3.2
			c-2.9-1.1-5.7-2.3-8.3-3.8c-3.4-2-6.5-4.3-9.3-7.1c-2.4-2.4-4.5-5.1-6.1-8.2c-2-3.8-2.8-7.9-2.3-12.2c0.5-4.3,2.3-8,5.4-11.1
			c2.4-2.3,5.1-3.9,8.3-4.8c2.4-0.7,4.8-1.1,7.3-1c2.1,0.1,4.2,0.4,6.3,1c3.1,0.8,6,2.2,8.6,3.9c1.8,1.2,3.5,2.5,5.1,4
			c0.4,0.4,0.7,0.4,1-0.1c1.5-2,3.2-3.9,5-5.6c2.6-2.5,5.5-4.5,8.8-6c2.9-1.3,6-2,9.2-1.9c4.4,0.1,8.5,1.5,12,4.4
			c2.5,2.1,4,4.7,4.9,7.8c0.5,1.8,0.5,3.7,0.4,5.5c-0.1,2.4-0.7,4.7-1.5,6.9c-0.9,2.4-2,4.6-3.4,6.7c-2.1,3.2-4.6,6.1-7.3,8.8
			c-1.2,1.1-2.4,2.2-3.6,3.3c-0.3,0.2-0.6,0.4-0.8,0c-1.5-2.5-5.5-2.7-7.8-1.9c-1.8,0.6-3,2-4.1,3.4c-0.6,0.8-0.8,0.8-1.5,0.2
			c-1.9-1.7-4.2-2.4-6.7-2c-2.1,0.3-3.6,1.4-4.2,3.4c-0.4,1.4,0,2.8,0.9,4c0.6,0.8,1.2,1.4,2,2c0.1,0.1,0.3,0.3,0.5,0.1
			c0.2-0.2,0-0.4-0.1-0.5c-0.8-1.3-1.3-2.6-1.1-4.2c0.3-1.7,1.4-2.6,2.9-3.1c2.2-0.7,4.2-0.1,6.1,1.1c1.2,0.8,1.2,0.8,2.1-0.3
			c1.4-1.7,3.1-2.8,5.5-2.7c2.7,0.1,4,1.9,3.8,4.5c-0.2,2.1-1.3,3.7-2.7,5.2c-1.6,1.7-3.4,3.1-5.5,4.2
			C75.8,79.4,75.3,79.5,72.9,79.5z M51,57.3c0,0.3,0,0.5,0,0.8c0.2,2.5,2.3,3.5,4.1,3.2c1.9-0.3,3.3-1.4,4.4-2.9
			c0.5-0.7,0.6-0.7,1.1,0.1c0.6,1.2,1.6,1.9,3,1.8c1.2-0.1,2.3-0.5,3.2-1.2c0.5-0.4,1-0.8,1.4-1.3c0.4-0.4,0.6-0.3,1,0
			c1.2,1.3,2.2,1.5,3.7,0.7c0.9-0.5,1.7-1.1,2.4-1.9c0.4-0.5,0.7-0.5,0.9,0.1c0.4,1,1.1,1.3,2.1,1.3c2.1,0,3.5-1.1,4.6-2.7
			c0.5-0.7,0.6-0.7,1.1,0c0.5,0.7,1,1.3,1.8,1.6c1.5,0.7,2.8,0.1,4.1-0.8c1.4-1,2.4-2.5,3.3-4c0.2-0.3,0.6-0.7,0.3-0.8
			c-0.4-0.3-0.6,0.3-0.8,0.6c-1.1,1.2-2.1,2.5-3.7,3.2c-0.8,0.3-1.7,0-2-0.9c-0.4-1.1-0.4-2.2-0.3-3.4c0.1-0.5,0.2-1.1,0.6-1.5
			c1.2-1.3,2.4-2.6,3.2-4.2c1-1.8,1.9-3.6,2.2-5.7c0.1-0.7,0.1-1.3-0.1-2c-0.3-1-1-1.6-2.1-1.6c-1.3-0.1-2.3,0.7-3.1,1.6
			c-1.1,1.2-1.9,2.6-2.5,4.2c-0.6,1.6-1.2,3.1-1.5,4.8c-0.3,2-0.7,4-0.4,6.1c0.1,0.5-0.1,1-0.6,1.4c-0.6,0.5-1.2,1-1.9,1.4
			c-0.4,0.2-0.8,0.4-1.3,0.1c-0.4-0.3-0.3-0.8-0.3-1.2c0.2-1.2,0.6-2.3,1.1-3.4c0.5-1.2,0.4-1.5-0.8-2c-0.3-0.1-0.6-0.3-0.8-0.7
			c-0.6-1.3-2.5-2.2-3.9-1.8c-1.1,0.3-2.1,0.9-2.8,1.7c-2,2.1-3.1,4.6-3.3,7.5c0,0.2,0,0.5-0.2,0.6c-0.8,0.8-1.5,1.6-2.6,2
			c-1,0.4-2,0-2.1-0.9c-0.2-1.4-0.2-2.8,0-4.1c0.4-1.8,0.9-3.5,1.3-5.3c0.1-0.5,0.4-0.9,0.9-1c0.9-0.2,1.8-0.5,2.8-0.7
			c1.3-0.3,2.6-0.7,3.9-1c0.2,0,0.4,0,0.4-0.3c0-0.3-0.2-0.4-0.5-0.4c-0.5,0-1,0-1.5,0.1c-1.5,0.2-2.9,0.3-4.4,0.4
			c-0.5,0-0.7-0.3-0.5-0.7c0.2-0.6,0.4-1.3,0.5-1.9c0.4-1.7-0.3-2.6-2.1-2.7c-0.1,0-0.2,0-0.3,0c-1.1,0-1.3,0.1-1.2,1.2
			c0,1.5-0.3,3-0.6,4.4c-0.1,0.3-0.2,0.5-0.5,0.5c-0.6,0-1.2,0.3-1.8,0.3c-0.3,0-0.8-0.1-0.9,0.4c-0.1,0.5,0.2,0.8,0.6,1.1
			c0.2,0.2,0.5,0.2,0.8,0.2c1.1,0,1.2,0.2,0.9,1.2c-0.4,1.5-0.8,3-1,4.5c-0.1,0.9-0.2,1.8-0.2,2.7c0,0.2,0,0.3-0.1,0.4
			c-1,1.3-2.2,2.6-3.8,3c-1.1,0.3-2,0.1-2.1-1.5c0-2,0.8-3.7,1.6-5.5c0.1-0.3,0.3-0.7,0.4-1c0-0.4-0.1-0.7-0.5-0.7
			c-1.3-0.2-2.8-0.1-3.5,1.6C51.4,54,51,55.6,51,57.3z M48.8,40c0,3.2-1,6.1-1.9,9.1c-1,3.1-2.2,6-3.8,8.9c-0.5,1-1.1,2-2,2.7
			c-0.5,0.4-1,0.3-1.2-0.3c-0.1-0.3-0.2-0.7-0.2-1.1c0-3,0-6,0.1-9c0.1-1.9,0.3-3.8,0.1-5.8c-0.1-1-0.3-1.9-1.3-2.4
			c-1.2-0.7-2.4-0.5-3.6-0.3c-0.3,0-0.5,0.3-0.4,0.6c0.5,1.1,0.6,2.3,0.8,3.5c0.4,2.2,0.5,4.4,0.7,6.6c0.3,2.9,0.4,5.7,1.1,8.5
			c0.6,2.4,2.7,3.3,4.8,2.1c1.1-0.7,2-1.6,2.8-2.6c1.5-1.9,2.7-3.9,3.7-6.1c1.3-2.6,2.4-5.4,3.2-8.2c0.5-1.7,0.9-3.4,1-5.2
			c0.1-2-0.9-2.6-2.8-2.9c-1-0.2-1.1,0.1-1.1,1.1C48.8,39.5,48.8,39.7,48.8,40z M54.9,48.6c0.4,0,0.9-0.1,1.3-0.2
			c0.8-0.3,1-0.9,0.6-1.7c-0.4-0.7-1.1-1-1.9-1c-1,0-1.5,0.7-1.5,1.8C53.4,48.4,53.7,48.6,54.9,48.6z"/>
		<linearGradient id="SVGID_2_" gradientUnits="userSpaceOnUse" x1="11.2363" y1="42.1004" x2="117.1528" y2="42.1004">
			<stop  offset="0.5839" style="stop-color:#FB7F33"/>
			<stop  offset="0.9889" style="stop-color:#FCDB45"/>
		</linearGradient>
		<path style="fill:url(#SVGID_2_);" d="M41.3,75.4c-0.7,0.1-1.3-0.2-1.9-0.4c-3-1.2-6-2.4-8.8-4c-3.5-1.9-6.8-4.3-9.8-6.9
			c-3.3-2.9-6-6.2-8.3-9.9c-1.4-2.2-2.6-4.5-3.4-7c-0.8-2.7-1-5.4-0.7-8.1c0.3-3.2,1.3-6.2,2.8-9c1-1.9,2.3-3.6,3.7-5.2
			c2-2.1,4.2-3.8,6.7-5.1c2.2-1.2,4.6-2,7.1-2.6c3-0.7,6.1-0.6,9.1-0.5c1.9,0.1,3.9,0.6,5.7,1.1c2.8,0.8,5.4,1.9,7.9,3.3
			c2.2,1.2,4.3,2.6,6.3,4.1c0.5,0.4,0.8,0.3,1.2-0.2c2-2.7,4.1-5.3,6.6-7.5c4.1-3.7,8.8-6.6,14.2-7.9c2.6-0.6,5.1-0.9,7.8-0.8
			c2.8,0.1,5.5,0.5,8.2,1.4c4.4,1.4,8.3,3.6,11.2,7.3c2.7,3.5,4.2,7.4,4.4,11.8c0.1,2.4,0,4.7-0.5,7c-0.6,2.8-1.6,5.5-2.8,8.1
			c-1.3,2.8-3,5.3-4.8,7.8c-0.1,0.1-0.2,0.2-0.3,0.3c-0.1,0.1-0.3,0.2-0.5,0.4c0-0.5,0.2-0.7,0.4-1c0.9-1.5,1.5-3.2,2.2-4.8
			c0.6-1.6,1-3.3,1.3-5c0.4-2.2,0.4-4.4,0.2-6.6c-0.1-1.1-0.5-2.2-0.8-3.3c-0.6-2.2-1.8-4.1-3.1-5.9c-0.6-0.9-1.5-1.6-2.4-2.3
			c-1.2-1-2.5-1.9-3.9-2.5c-1.6-0.8-3.2-1.5-4.9-1.9c-2.4-0.5-4.8-0.9-7.2-0.6c-2.6,0.3-5.2,0.9-7.6,1.9c-3.1,1.3-5.8,3.1-8.4,5.2
			c-1.9,1.6-3.5,3.4-5.2,5.1c-0.4,0.4-0.7,0.3-1,0c-1.8-1.5-3.7-2.7-5.7-3.8c-3-1.5-6-2.7-9.3-3.2c-1.6-0.3-3.2-0.5-4.9-0.5
			c-2.3,0.1-4.5,0.3-6.7,0.9c-2.9,0.7-5.5,1.9-7.9,3.6c-3.4,2.5-5.9,5.7-7.5,9.6c-0.5,1.3-0.9,2.7-1.2,4c-0.4,1.9-0.6,3.9-0.3,5.9
			c0.5,4.6,2.2,8.8,4.8,12.6c1.7,2.5,3.7,4.7,5.9,6.8c2.3,2.2,4.9,4,7.5,5.6c1.4,0.8,2.8,1.5,4.2,2.3C41.1,75.1,41.2,75.1,41.3,75.4
			z"/>
		<path class="st12" d="M76.4,50c0,1.8-0.4,3.5-1.3,5.1c-0.6,1.1-1.5,1.8-2.6,2.2c-0.9,0.3-1.4,0-1.4-0.9c0-1,0.1-2,0.5-2.9
			c0.6-1.5,1.5-2.9,2.5-4.2c0.4-0.4,0.8-0.8,1.3-1c0.5-0.2,0.8,0,0.9,0.5c0,0,0,0.1,0,0.1C76.4,49.3,76.4,49.7,76.4,50z"/>
		<path class="st12" d="M90.8,38.6c-0.1,1.5-0.7,2.8-1.2,4.2c-0.4,1.2-1,2.3-1.8,3.3c-0.1,0.2-0.2,0.4-0.5,0.3
			C87,46.3,87,46,87.1,45.8c0.5-2.4,0.9-4.9,2.5-7c0.2-0.2,0.4-0.4,0.5-0.6c0.2-0.2,0.3-0.4,0.6-0.2C90.9,38.1,90.8,38.3,90.8,38.6z
			"/>
	</g>
</g>
<g id="Grilla" class="st341">
</g>
</svg>
