<svg xmlns="http://www.w3.org/2000/svg" xmlns:xlink="http://www.w3.org/1999/xlink" viewBox="0 0 183.18 233.7"><defs><style>.cls-1{font-size:31.36px;font-family:Montserrat-Bold, Montserrat;font-weight:700;letter-spacing:0.04em;}.cls-2{letter-spacing:0.03em;}.cls-3{letter-spacing:0.03em;}.cls-4{letter-spacing:0.04em;}.cls-5{letter-spacing:0.03em;}.cls-6{letter-spacing:0.04em;}.cls-7{letter-spacing:0.03em;}.cls-8{letter-spacing:0.04em;}.cls-9{letter-spacing:0.05em;}.cls-10{letter-spacing:0.06em;}.cls-11{letter-spacing:0.03em;}.cls-12{letter-spacing:0.04em;}.cls-13{letter-spacing:0.04em;}.cls-14{letter-spacing:0.04em;}.cls-15{letter-spacing:0.05em;}.cls-16{letter-spacing:0.01em;}.cls-17,.cls-27{font-family:Montserrat-Regular, Montserrat;}.cls-17{font-weight:400;letter-spacing:0.02em;}.cls-18{letter-spacing:0.04em;}.cls-19{letter-spacing:0.06em;}.cls-20{letter-spacing:0.02em;}.cls-21{letter-spacing:0.03em;}.cls-22{letter-spacing:0.01em;}.cls-23{letter-spacing:0.03em;}.cls-24{letter-spacing:0.01em;}.cls-25{letter-spacing:0.04em;}.cls-26{letter-spacing:0.03em;}.cls-27{font-size:21.76px;letter-spacing:0.04em;}.cls-27,.cls-29{fill:#355c84;}.cls-28{fill:#fff;}.cls-30{fill:url(#Degradado_sin_nombre_24);}.cls-31{fill:url(#Degradado_sin_nombre_24-2);}.cls-32{fill:url(#Degradado_sin_nombre_24-3);}</style><linearGradient id="Degradado_sin_nombre_24" x1="31.63" y1="47.56" x2="108.94" y2="-28.84" gradientUnits="userSpaceOnUse"><stop offset="0" stop-color="#fff"/><stop offset="0.6" stop-color="#325884"/></linearGradient><linearGradient id="Degradado_sin_nombre_24-2" x1="53.94" y1="77.77" x2="99.84" y2="97.1" xlink:href="#Degradado_sin_nombre_24"/><linearGradient id="Degradado_sin_nombre_24-3" x1="19.94" y1="89.75" x2="47.29" y2="57.97" xlink:href="#Degradado_sin_nombre_24"/></defs><g id="Capa_2" data-name="Capa 2"><g id="Layer_2" data-name="Layer 2"><text class="cls-1" transform="translate(0.28 150.21)">E<tspan class="cls-2" x="22.33" y="0">n</tspan><tspan class="cls-3" x="45.04" y="0">t</tspan><tspan class="cls-4" x="59.71" y="0">e</tspan><tspan class="cls-5" x="80.69" y="0">r</tspan><tspan class="cls-6" x="95.08" y="0">p</tspan><tspan class="cls-7" x="118.03" y="0">r</tspan><tspan class="cls-8" x="132.43" y="0">i</tspan><tspan class="cls-9" x="143.27" y="0">s</tspan><tspan class="cls-10" x="161.36" y="0">e</tspan><tspan class="cls-11"><tspan x="0" y="37.64">A</tspan><tspan class="cls-12" x="24.92" y="37.64">g</tspan><tspan class="cls-13" x="47.98" y="37.64">il</tspan><tspan class="cls-14" x="69.12" y="37.64">i</tspan><tspan class="cls-15" x="79.83" y="37.64">t</tspan><tspan class="cls-16" x="95.12" y="37.64">y</tspan></tspan><tspan class="cls-17"><tspan x="0" y="75.27">I</tspan><tspan class="cls-18" x="10.15" y="75.27">n</tspan><tspan class="cls-19" x="32.52" y="75.27">s</tspan><tspan class="cls-20" x="49.63" y="75.27">t</tspan><tspan class="cls-21" x="63.14" y="75.27">i</tspan><tspan class="cls-22" x="72.55" y="75.27">t</tspan><tspan class="cls-23" x="85.58" y="75.27">u</tspan><tspan class="cls-24" x="107.65" y="75.27">t</tspan><tspan class="cls-25" x="120.81" y="75.27">e</tspan><tspan class="cls-26" x="141.07" y="75.27">®</tspan></tspan></text><text class="cls-27" transform="translate(95.18 18.5)">®</text><path class="cls-28" d="M99.14,86.93,74,15a21.8,21.8,0,0,0-2.75-5.32,53.17,53.17,0,0,0-41.52,2.73A21.67,21.67,0,0,0,28.59,15L5.24,81.37A52.94,52.94,0,0,0,26.09,105l4-12.74a8.72,8.72,0,0,1,13.44-4.48l28.2,20.42c.42.31.85.59,1.29.87A53.07,53.07,0,0,0,99.14,86.93ZM63.7,81l-20-14.3a8,8,0,0,1-3-8.86l3.92-12.62a6.69,6.69,0,0,1,12.79,0l10,33A2.48,2.48,0,0,1,63.7,81Z"/><path class="cls-29" d="M74,15l25.19,72A53,53,0,0,0,71.22,9.65,21.59,21.59,0,0,1,74,15Z"/><path class="cls-29" d="M43.74,66.64l20,14.3a2.48,2.48,0,0,0,3.81-2.73l-10-33a6.69,6.69,0,0,0-12.79,0L40.76,57.79A8,8,0,0,0,43.74,66.64Z"/><path class="cls-29" d="M28.59,14.94a20.18,20.18,0,0,1,1.11-2.56,53,53,0,0,0-24.45,69Z"/><path class="cls-29" d="M71.69,108.2,43.5,87.78a8.73,8.73,0,0,0-13.45,4.48L26.1,105A53.12,53.12,0,0,0,73,109.06C72.55,108.79,72.11,108.51,71.69,108.2Z"/><path class="cls-30" d="M40.76,57.79l3.92-12.63a6.69,6.69,0,0,1,12.79,0L58.33,48h0S54.48,30,44.21,23.39s-20.37,5.08-20.38,5.08L16.25,50Z"/><path class="cls-31" d="M67.57,79.33a2.46,2.46,0,0,1-3.86,1.61l-20-14.3a8,8,0,0,1-3-8.85h0a31.73,31.73,0,0,0,.39,24.66l2.35,5.33S68.45,100,67.57,79.33Z"/><path class="cls-32" d="M30.05,92.26A8.73,8.73,0,0,1,43.5,87.78C24.24,73.84,6.07,81.07,5.26,81.4A53.16,53.16,0,0,0,26.1,105Z"/></g></g></svg>