<svg xmlns="http://www.w3.org/2000/svg" xmlns:xlink="http://www.w3.org/1999/xlink" viewBox="0 0 169.37 39.84"><defs><style>.cls-1{fill:none;}.cls-2{clip-path:url(#clip-path);}.cls-3{fill:#087891;}.cls-4{fill:#0a7991;}.cls-5{fill:#0c7b91;}.cls-6{fill:#0e7c91;}.cls-7{fill:#107d91;}.cls-8{fill:#127e91;}.cls-9{fill:#148092;}.cls-10{fill:#158192;}.cls-11{fill:#178292;}.cls-12{fill:#198392;}.cls-13{fill:#1b8492;}.cls-14{fill:#1d8692;}.cls-15{fill:#1e8792;}.cls-16{fill:#208892;}.cls-17{fill:#228992;}.cls-18{fill:#248a92;}.cls-19{fill:#258b92;}.cls-20{fill:#278c92;}.cls-21{fill:#298d93;}.cls-22{fill:#2a8f93;}.cls-23{fill:#2c9093;}.cls-24{fill:#2e9193;}.cls-25{fill:#2f9293;}.cls-26{fill:#319393;}.cls-27{fill:#329493;}.cls-28{fill:#349593;}.cls-29{fill:#359693;}.cls-30{fill:#379793;}.cls-31{fill:#389893;}.cls-32{fill:#3a9993;}.cls-33{fill:#3b9a93;}.cls-34{fill:#3d9b93;}.cls-35{fill:#3e9c94;}.cls-36{fill:#3f9c94;}.cls-37{fill:#419d94;}.cls-38{fill:#429e94;}.cls-39{fill:#449f94;}.cls-40{fill:#45a094;}.cls-41{fill:#46a194;}.cls-42{fill:#47a294;}.cls-43{fill:#49a394;}.cls-44{fill:#4aa394;}.cls-45{fill:#4ba494;}.cls-46{fill:#4ca594;}.cls-47{fill:#4ea694;}.cls-48{fill:#4fa794;}.cls-49{fill:#50a794;}.cls-50{fill:#51a894;}.cls-51{fill:#52a994;}.cls-52{fill:#53aa94;}.cls-53{fill:#54aa95;}.cls-54{fill:#56ab95;}.cls-55{fill:#57ac95;}.cls-56{fill:#58ac95;}.cls-57{fill:#59ad95;}.cls-58{fill:#5aae95;}.cls-59{fill:#5bae95;}.cls-60{fill:#5caf95;}.cls-61{fill:#5db095;}.cls-62{fill:#5eb195;}.cls-63{fill:#5fb195;}.cls-64{fill:#60b295;}.cls-65{fill:#61b395;}.cls-66{fill:#62b395;}.cls-67{fill:#63b495;}.cls-68{fill:#64b595;}.cls-69{fill:#65b595;}.cls-70{fill:#66b695;}.cls-71{fill:#67b795;}.cls-72{fill:#68b795;}.cls-73{fill:#69b795;}.cls-74{fill:#fff;}</style><clipPath id="clip-path" transform="translate(0 0)"><path class="cls-1" d="M149.45,39.84H19.92A19.92,19.92,0,0,1,0,19.92H0A19.92,19.92,0,0,1,19.92,0H149.45a19.92,19.92,0,0,1,19.92,19.92h0A19.92,19.92,0,0,1,149.45,39.84Z"/></clipPath></defs><g id="Capa_2" data-name="Capa 2"><g id="Grilla"><g class="cls-2"><rect class="cls-3" width="34.27" height="39.84"/><rect class="cls-3" x="34.27" width="1.85" height="39.84"/><rect class="cls-4" x="36.12" width="1.85" height="39.84"/><rect class="cls-5" x="37.97" width="1.85" height="39.84"/><rect class="cls-6" x="39.82" width="1.85" height="39.84"/><rect class="cls-7" x="41.67" width="1.85" height="39.84"/><rect class="cls-8" x="43.52" width="1.85" height="39.84"/><rect class="cls-9" x="45.37" width="1.85" height="39.84"/><rect class="cls-10" x="47.23" width="1.85" height="39.84"/><rect class="cls-11" x="49.08" width="1.85" height="39.84"/><rect class="cls-12" x="50.93" width="1.85" height="39.84"/><rect class="cls-13" x="52.78" width="1.85" height="39.84"/><rect class="cls-14" x="54.63" width="1.85" height="39.84"/><rect class="cls-15" x="56.48" width="1.85" height="39.84"/><rect class="cls-16" x="58.33" width="1.85" height="39.84"/><rect class="cls-17" x="60.18" width="1.85" height="39.84"/><rect class="cls-18" x="62.03" width="1.85" height="39.84"/><rect class="cls-19" x="63.88" width="1.85" height="39.84"/><rect class="cls-20" x="65.73" width="1.85" height="39.84"/><rect class="cls-21" x="67.58" width="1.85" height="39.84"/><rect class="cls-22" x="69.43" width="1.85" height="39.84"/><rect class="cls-23" x="71.28" width="1.85" height="39.84"/><rect class="cls-24" x="73.13" width="1.85" height="39.84"/><rect class="cls-25" x="74.98" width="1.85" height="39.84"/><rect class="cls-26" x="76.83" width="1.85" height="39.84"/><rect class="cls-27" x="78.68" width="1.85" height="39.84"/><rect class="cls-28" x="80.53" width="1.85" height="39.84"/><rect class="cls-29" x="82.38" width="1.85" height="39.84"/><rect class="cls-30" x="84.23" width="1.85" height="39.84"/><rect class="cls-31" x="86.08" width="1.85" height="39.84"/><rect class="cls-32" x="87.93" width="1.85" height="39.84"/><rect class="cls-33" x="89.78" width="1.85" height="39.84"/><rect class="cls-34" x="91.63" width="1.85" height="39.84"/><rect class="cls-35" x="93.48" width="1.85" height="39.84"/><rect class="cls-36" x="95.33" width="1.85" height="39.84"/><rect class="cls-37" x="97.18" width="1.85" height="39.84"/><rect class="cls-38" x="99.03" width="1.85" height="39.84"/><rect class="cls-39" x="100.88" width="1.85" height="39.84"/><rect class="cls-40" x="102.73" width="1.85" height="39.84"/><rect class="cls-41" x="104.58" width="1.85" height="39.84"/><rect class="cls-42" x="106.43" width="1.85" height="39.84"/><rect class="cls-43" x="108.28" width="1.85" height="39.84"/><rect class="cls-44" x="110.13" width="1.85" height="39.84"/><rect class="cls-45" x="111.98" width="1.85" height="39.84"/><rect class="cls-46" x="113.83" width="1.85" height="39.84"/><rect class="cls-47" x="115.69" width="1.85" height="39.84"/><rect class="cls-48" x="117.54" width="1.85" height="39.84"/><rect class="cls-49" x="119.39" width="1.85" height="39.84"/><rect class="cls-50" x="121.24" width="1.85" height="39.84"/><rect class="cls-51" x="123.09" width="1.85" height="39.84"/><rect class="cls-52" x="124.94" width="1.85" height="39.84"/><rect class="cls-53" x="126.79" width="1.85" height="39.84"/><rect class="cls-54" x="128.64" width="1.85" height="39.84"/><rect class="cls-55" x="130.49" width="1.85" height="39.84"/><rect class="cls-56" x="132.34" width="1.85" height="39.84"/><rect class="cls-57" x="134.19" width="1.85" height="39.84"/><rect class="cls-58" x="136.04" width="1.85" height="39.84"/><rect class="cls-59" x="137.89" width="1.85" height="39.84"/><rect class="cls-60" x="139.74" width="1.85" height="39.84"/><rect class="cls-61" x="141.59" width="1.85" height="39.84"/><rect class="cls-61" x="143.44" width="1.85" height="39.84"/><rect class="cls-62" x="145.29" width="1.85" height="39.84"/><rect class="cls-63" x="147.14" width="1.85" height="39.84"/><rect class="cls-64" x="148.99" width="1.85" height="39.84"/><rect class="cls-65" x="150.84" width="1.85" height="39.84"/><rect class="cls-66" x="152.69" width="1.85" height="39.84"/><rect class="cls-67" x="154.54" width="1.85" height="39.84"/><rect class="cls-67" x="156.39" width="1.85" height="39.84"/><rect class="cls-68" x="158.24" width="1.85" height="39.84"/><rect class="cls-69" x="160.09" width="1.85" height="39.84"/><rect class="cls-70" x="161.94" width="1.85" height="39.84"/><rect class="cls-70" x="163.79" width="1.85" height="39.84"/><rect class="cls-71" x="165.64" width="1.85" height="39.84"/><rect class="cls-72" x="167.49" width="1.85" height="39.84"/><rect class="cls-73" x="169.34" width="0.03" height="39.84"/></g><path class="cls-74" d="M31.46,23.49H23.82l-1.57,3.59H20.13l6.51-14.36h2l6.52,14.36H33Zm-.72-1.64-3.1-7-3.1,7Z" transform="translate(0 0)"/><path class="cls-74" d="M47.33,16.21v9.4a5.62,5.62,0,0,1-1.41,4.21,5.86,5.86,0,0,1-4.23,1.37,10.13,10.13,0,0,1-2.93-.42,5.85,5.85,0,0,1-2.26-1.2l1-1.52a5.43,5.43,0,0,0,1.87,1,7,7,0,0,0,2.31.38,3.88,3.88,0,0,0,2.82-.9,3.71,3.71,0,0,0,.91-2.75V25a4.29,4.29,0,0,1-1.71,1.26,5.67,5.67,0,0,1-2.2.42A6,6,0,0,1,38.63,26a4.89,4.89,0,0,1-2-1.87,5.57,5.57,0,0,1,0-5.48,4.72,4.72,0,0,1,2-1.85,6,6,0,0,1,2.82-.66,5.73,5.73,0,0,1,2.28.45,4.27,4.27,0,0,1,1.74,1.33V16.21Zm-3.74,8.25a3.3,3.3,0,0,0,1.33-1.26,3.47,3.47,0,0,0,.49-1.84,3.32,3.32,0,0,0-1-2.55,4.21,4.21,0,0,0-5.4,0,3.35,3.35,0,0,0-1,2.55,3.56,3.56,0,0,0,.48,1.84,3.36,3.36,0,0,0,1.33,1.26,4.11,4.11,0,0,0,1.94.45A4.06,4.06,0,0,0,43.59,24.46Z" transform="translate(0 0)"/><path class="cls-74" d="M60.87,22.3H52.05a3.47,3.47,0,0,0,1.26,2.31,4.13,4.13,0,0,0,2.68.87,4,4,0,0,0,3.14-1.31l1.09,1.27a4.9,4.9,0,0,1-1.84,1.32,6.92,6.92,0,0,1-5.51-.26,5,5,0,0,1-2.06-2,6,6,0,0,1,0-5.72,5,5,0,0,1,2-2,5.48,5.48,0,0,1,2.8-.71,5.35,5.35,0,0,1,2.78.71,5,5,0,0,1,1.91,2,6,6,0,0,1,.68,2.91A4.83,4.83,0,0,1,60.87,22.3Zm-7.7-3.67a3.48,3.48,0,0,0-1.12,2.26h7a3.53,3.53,0,0,0-1.12-2.25,3.4,3.4,0,0,0-2.37-.87A3.44,3.44,0,0,0,53.17,18.63Z" transform="translate(0 0)"/><path class="cls-74" d="M72.74,17.31A4.73,4.73,0,0,1,74,20.83v6.25H72v-6a3.34,3.34,0,0,0-.76-2.38,2.85,2.85,0,0,0-2.17-.8,3.38,3.38,0,0,0-2.53.94,3.65,3.65,0,0,0-.92,2.67v5.6h-2V16.21h1.89v1.64a3.82,3.82,0,0,1,1.61-1.29,5.67,5.67,0,0,1,2.31-.45A4.48,4.48,0,0,1,72.74,17.31Z" transform="translate(0 0)"/><path class="cls-74" d="M87.93,11.86V27.08H86V25.36a4.28,4.28,0,0,1-1.66,1.38,5.21,5.21,0,0,1-2.21.47,5.74,5.74,0,0,1-2.83-.7,5,5,0,0,1-2-2,5.85,5.85,0,0,1-.71-2.9,5.76,5.76,0,0,1,.71-2.89,4.9,4.9,0,0,1,2-2,5.63,5.63,0,0,1,2.83-.7,5.27,5.27,0,0,1,2.15.44A4.17,4.17,0,0,1,86,17.85v-6ZM84.2,25a3.34,3.34,0,0,0,1.31-1.35,4.49,4.49,0,0,0,0-4A3.34,3.34,0,0,0,84.2,18.3a4,4,0,0,0-3.75,0,3.47,3.47,0,0,0-1.31,1.35,4.41,4.41,0,0,0,0,4A3.47,3.47,0,0,0,80.45,25a3.9,3.9,0,0,0,3.75,0Z" transform="translate(0 0)"/><path class="cls-74" d="M99.08,17.22a4.26,4.26,0,0,1,1.2,3.3v6.56H98.41V25.65A3.11,3.11,0,0,1,97,26.81a5.49,5.49,0,0,1-2.17.4,4.58,4.58,0,0,1-2.92-.88,3,3,0,0,1,0-4.63,5.17,5.17,0,0,1,3.32-.87h3.12v-.39a2.48,2.48,0,0,0-.74-2,3.1,3.1,0,0,0-2.17-.68,5.86,5.86,0,0,0-1.89.32A5.06,5.06,0,0,0,92,19l-.82-1.48a6,6,0,0,1,2-1,8.4,8.4,0,0,1,2.48-.36A4.91,4.91,0,0,1,99.08,17.22Zm-2,8a2.84,2.84,0,0,0,1.19-1.43V22.24h-3c-1.67,0-2.51.56-2.51,1.68a1.53,1.53,0,0,0,.64,1.3,2.92,2.92,0,0,0,1.76.47A3.72,3.72,0,0,0,97.12,25.19Z" transform="translate(0 0)"/><path class="cls-74" d="M107.34,16.6a5.47,5.47,0,0,1,2.44-.49V18a2.83,2.83,0,0,0-.45,0,3.31,3.31,0,0,0-2.52.95,3.77,3.77,0,0,0-.91,2.72v5.41h-2V16.21h1.89V18A3.37,3.37,0,0,1,107.34,16.6Z" transform="translate(0 0)"/><path class="cls-74" d="M148.7,20.84c0,3.18,0,6.35,0,9.53a2.77,2.77,0,0,1-3.09,3.09h-19a2.84,2.84,0,0,1-3.1-3.12q0-9.43,0-18.88c0-2.12,1.09-3.17,3.21-3.19a8,8,0,0,0,.85,0c.8-.09,1.11.23,1.13,1.06a1.89,1.89,0,1,0,3.77.09c0-1,.48-1.19,1.34-1.16,1.61.05,3.21.05,4.82,0,.85,0,1.16.27,1.16,1.13A1.78,1.78,0,0,0,142,11.3a1.75,1.75,0,0,0,1.56-1.92c0-.89.35-1.2,1.18-1.11a8,8,0,0,0,.85,0c2.08,0,3.16,1.08,3.16,3.13C148.71,14.55,148.7,17.69,148.7,20.84Zm-12.58-6.27c-3.15,0-6.29,0-9.44,0-.77,0-1.05.25-1,1,0,4.84,0,9.68,0,14.52,0,1.09.16,1.24,1.28,1.24h18.4c1.13,0,1.27-.14,1.27-1.24,0-4.81,0-9.62,0-14.43,0-.88-.32-1.14-1.17-1.13C142.34,14.59,139.23,14.57,136.12,14.57Z" transform="translate(0 0)"/><path class="cls-74" d="M129.18,8.28a5.08,5.08,0,0,1,.18-1.4,1.3,1.3,0,0,1,1.26-1,1.19,1.19,0,0,1,1.26.94,5.79,5.79,0,0,1,0,3,1.32,1.32,0,0,1-2.55-.07A12.13,12.13,0,0,1,129.18,8.28Z" transform="translate(0 0)"/><path class="cls-74" d="M140.33,8.3a10.63,10.63,0,0,1,0-1.13,1.29,1.29,0,0,1,1.29-1.26A1.23,1.23,0,0,1,143,7a8.28,8.28,0,0,1,0,2.72,1.19,1.19,0,0,1-1.35,1,1.22,1.22,0,0,1-1.26-1.17,11.43,11.43,0,0,1,0-1.31Z" transform="translate(0 0)"/><path class="cls-74" d="M134.93,23.83c.45-1,.81-1.83,1.25-2.65a10.38,10.38,0,0,1,3.17-3.67c.55-.4.91-.33,1.13.33l0,.08c.88,2,.89,2-.68,3.49A20.55,20.55,0,0,0,135.6,27c-.32.61-.58.71-1.07.16a7.38,7.38,0,0,0-2.95-2,.69.69,0,0,1-.48-1,15.82,15.82,0,0,0,.45-1.53c.18-.76.62-.84,1.27-.58A5.22,5.22,0,0,1,134.93,23.83Z" transform="translate(0 0)"/></g></g></svg>