<svg xmlns="http://www.w3.org/2000/svg" viewBox="0 0 25.17 27.56"><defs><style>.cls-1{fill:#fff;}</style></defs><g id="Capa_2" data-name="Capa 2"><g id="Capa_1-2" data-name="Capa 1"><path class="cls-1" d="M25.17,14.93c0,3.18,0,6.36,0,9.53a2.78,2.78,0,0,1-3.1,3.09H3.1A2.83,2.83,0,0,1,0,24.43Q0,15,0,5.55C0,3.44,1.1,2.38,3.22,2.36a8,8,0,0,0,.85,0c.8-.09,1.1.23,1.13,1.06A1.83,1.83,0,0,0,7,5.4,1.8,1.8,0,0,0,9,3.51c0-1,.48-1.19,1.35-1.16,1.6,0,3.21,0,4.81,0,.86,0,1.16.27,1.17,1.13a1.77,1.77,0,0,0,2.13,1.91A1.75,1.75,0,0,0,20,3.47c0-.89.34-1.2,1.18-1.11a8,8,0,0,0,.85,0c2.07,0,3.15,1.08,3.16,3.13C25.18,8.64,25.17,11.78,25.17,14.93ZM12.58,8.66c-3.14,0-6.29,0-9.43,0-.77,0-1,.25-1,1,0,4.84,0,9.68,0,14.52,0,1.09.16,1.24,1.28,1.24H21.79c1.13,0,1.27-.13,1.27-1.24,0-4.81,0-9.62,0-14.43,0-.88-.31-1.14-1.16-1.13C18.81,8.68,15.7,8.66,12.58,8.66Z"/><path class="cls-1" d="M5.65,2.37A5.48,5.48,0,0,1,5.82,1,1.32,1.32,0,0,1,7.09,0,1.2,1.2,0,0,1,8.35,1a6,6,0,0,1,0,3A1.23,1.23,0,0,1,7,4.88a1.22,1.22,0,0,1-1.2-1A12.52,12.52,0,0,1,5.65,2.37Z"/><path class="cls-1" d="M16.8,2.39a10.65,10.65,0,0,1,0-1.13A1.3,1.3,0,0,1,18.1,0a1.23,1.23,0,0,1,1.32,1.1,8.56,8.56,0,0,1,0,2.72,1.2,1.2,0,0,1-1.36,1.05,1.22,1.22,0,0,1-1.25-1.16,9.69,9.69,0,0,1,0-1.32Z"/><path class="cls-1" d="M11.4,17.93c.45-1,.81-1.83,1.24-2.66a10.5,10.5,0,0,1,3.18-3.67c.55-.4.91-.33,1.13.33A.2.2,0,0,0,17,12c.88,2,.89,2-.68,3.49a20.59,20.59,0,0,0-4.25,5.61c-.31.61-.57.71-1.07.16a7.31,7.31,0,0,0-3-2,.69.69,0,0,1-.48-1c.18-.51.33-1,.46-1.54.18-.76.62-.84,1.27-.58A5.31,5.31,0,0,1,11.4,17.93Z"/></g></g></svg>