<svg xmlns="http://www.w3.org/2000/svg" xmlns:xlink="http://www.w3.org/1999/xlink" viewBox="0 0 185.77 107.92"><defs><style>.cls-1{fill:url(#linear-gradient);}.cls-2{fill:url(#linear-gradient-2);}.cls-3{fill:url(#linear-gradient-3);}.cls-4{fill:url(#linear-gradient-4);}.cls-5{fill:url(#linear-gradient-5);}.cls-6{fill:url(#linear-gradient-6);}.cls-7{fill:url(#linear-gradient-7);}.cls-8{fill:url(#linear-gradient-8);}</style><linearGradient id="linear-gradient" x1="-114.76" y1="55.38" x2="1493.03" y2="55.38" gradientUnits="userSpaceOnUse"><stop offset="0.33" stop-color="#08788f"/><stop offset="0.35" stop-color="#0d7b8f"/><stop offset="0.48" stop-color="#329391"/><stop offset="0.61" stop-color="#4fa592"/><stop offset="0.74" stop-color="#64b293"/><stop offset="0.87" stop-color="#70ba94"/><stop offset="1" stop-color="#74bd94"/></linearGradient><linearGradient id="linear-gradient-2" x1="-114.76" y1="55.34" x2="1493.03" y2="55.34" xlink:href="#linear-gradient"/><linearGradient id="linear-gradient-3" x1="-12295.54" y1="5329.89" x2="-11309.88" y2="5329.89" gradientTransform="translate(-12075.36 5429.79) rotate(180)" xlink:href="#linear-gradient"/><linearGradient id="linear-gradient-4" x1="-12295.54" y1="5333.47" x2="-11309.88" y2="5333.47" gradientTransform="translate(-12075.36 5429.79) rotate(180)" xlink:href="#linear-gradient"/><linearGradient id="linear-gradient-5" x1="-12295.54" y1="5333.46" x2="-11309.88" y2="5333.46" gradientTransform="translate(-12075.36 5429.79) rotate(180)" xlink:href="#linear-gradient"/><linearGradient id="linear-gradient-6" x1="48.57" y1="4976.82" x2="1034.23" y2="4976.82" gradientTransform="translate(-82.99 -4968.79)" xlink:href="#linear-gradient"/><linearGradient id="linear-gradient-7" x1="48.57" y1="4980.4" x2="1034.23" y2="4980.4" gradientTransform="translate(-82.99 -4968.79)" xlink:href="#linear-gradient"/><linearGradient id="linear-gradient-8" x1="48.57" y1="4980.38" x2="1034.23" y2="4980.38" gradientTransform="translate(-82.99 -4968.79)" xlink:href="#linear-gradient"/></defs><g id="Capa_2" data-name="Capa 2"><g id="Grilla"><path class="cls-1" d="M0,63c0-5.18,0-10.36,0-15.53,0-4.63,1.82-6.1,6.35-5.49a62.7,62.7,0,0,0,11.94.6A9.81,9.81,0,0,0,25.6,39c4-4.63,7.74-9.53,12.11-13.86,5.67-5.62,12.09-7.59,19.84-4.91,5.13,1.77,10.29,3.64,14.58,6.89,3,2.25,5.59,3.81,9.54,3.94,7.55.24,8.74,10.42,5.51,14.45C86,47,85.75,48,87.1,49.76c3.2,4.13,2.1,11-2.06,14.19a1.55,1.55,0,0,0-.53,2.35c2.5,5-.05,12.75-6.4,13.5-.94.11-1.28.6-1.32,1.65-.18,5.37-3,8.6-8.31,9.09-13.34,1.22-26.69,2.11-40-.54a20.87,20.87,0,0,1-9.82-4.36,5.06,5.06,0,0,0-3.51-1.12c-3.25.06-6.51.08-9.76.11C1.74,84.66.07,83.11,0,79.44,0,74,0,68.49,0,63Zm54.22-5.6c-1.17,1.15-2.24,2.25-3.37,3.28a25.57,25.57,0,0,1-12,6.34c-.56.13-1.27.38-1.6-.27s.4-1,.85-1.33c1.49-1,3-1.86,4.53-2.79A32.46,32.46,0,0,0,53.91,51.57c1.84-3.13,1.63-8.32-.64-11.18a10.3,10.3,0,0,1-2.22-7.67c.08-.72.05-1.67,1-1.71.8,0,.9.85,1.14,1.44.75,1.8,1.13,3.79,2.69,5.39.5-.93.88-1.72,1.33-2.46a7.51,7.51,0,0,1,6.35-3.86c.71,0,1.68-.28,2,.53.39,1-.68,1.4-1.33,1.71-3.65,1.75-5.26,4.73-5.68,8.63a27.64,27.64,0,0,0,.53,9,6.77,6.77,0,0,0,2,3.64c2.36,2.15,5,1.47,5.7-1.53a40.94,40.94,0,0,1,4.29-11.37,18.47,18.47,0,0,0,2.2-5.31c.62-3.11-.11-5.22-2.77-6.84a58.19,58.19,0,0,0-16.85-7.23,11.92,11.92,0,0,0-9,1.33,28.61,28.61,0,0,0-7.35,6.35c-3.63,4.19-7,8.59-10.93,12.54a8.5,8.5,0,0,1-4.8,2.57,50.88,50.88,0,0,1-15.24-.11c-2.28-.34-2.77.43-2.75,2.55.09,9.1,0,18.2.06,27.3.06,6.14-1.51,6.38,6.23,5.68,4.59-.41,9-.26,12.68,3.18A9.35,9.35,0,0,0,26.81,86a53.71,53.71,0,0,0,10.05,1.69,201.66,201.66,0,0,0,21.64.13c-2.91-1.48-5.14-2.75-6.85-4.74a8.13,8.13,0,0,1,.06-10.9,2,2,0,0,0,.38-2.36c-.81-2.9-.88-5.91,1.37-8.11C54.93,60.32,55,59.18,54.23,57.42Zm6.14,5.78c-2.28.22-4.52-.41-5.08,2.3-.65,3.15.25,4.79,3.31,5.8,4.63,1.53,9.29,3,13.95,4.37a17.29,17.29,0,0,0,3.69.7c2.53.17,4.37-.91,5.17-3a6.62,6.62,0,0,0-.85-6.9,2.55,2.55,0,0,0-1.73-.91ZM58,57c0,1.88.68,2.5,2.11,2.67,5.86.69,11.77,1.18,17.56,2.27C84.2,63.13,86.28,58,84.91,53a3.81,3.81,0,0,0-3.85-3.07c-2.07,0-4.14,0-6.2,0-3.58.06-3.67.14-4.48,3.52-.21.86-.38,1.73-.63,2.58-.79,2.61-2.16,3.61-4.86,3.65A9.23,9.23,0,0,1,58,57Zm9.59,30.12c1-.06,1.5,0,2-.12,1.8-.34,3.47-2.47,3.64-4.55.13-1.65-.34-2.91-2.07-3.45-4.66-1.44-9.31-2.93-14-4.34-1.12-.34-2.39-.6-3.33.43a3.93,3.93,0,0,0-.61,4,5.17,5.17,0,0,0,1.68,2.57A26.69,26.69,0,0,0,67.61,87.09Zm12-52.75c-.65.25-2.22-.46-2.41.87a29,29,0,0,1-3.94,10.24c-.38.67-.27,1.25.62,1.11,2.54-.4,5.18,0,7.67-.79,2.84-.92,4.2-3.62,3.67-7.16C84.72,35.44,83.38,34.37,79.58,34.34Z"/><path class="cls-2" d="M185.76,63.08c0,5.33,0,10.65,0,16,0,4.11-1.58,5.61-5.67,5.56-1.4,0-2.81,0-4.21-.07-4.29-.32-8.18.12-11.82,3-3,2.37-7,2.62-10.75,3.13-12.62,1.74-25.23.92-37.83-.38-3.32-.35-6.46-4.47-6.5-8.5,0-1.27-.29-1.8-1.56-2.12-5.88-1.5-8.69-7.31-6.27-13,.61-1.44.42-2.06-.8-3-4-3.23-4.64-10.42-1.26-14.47.89-1.08,1-1.69.1-2.79a9.38,9.38,0,0,1-2.13-7.66c1-5.92,4.42-8.64,10.39-7.91a3.31,3.31,0,0,0,3.36-1.34c3.27-3.75,7.94-5.31,12.28-7.32a34.48,34.48,0,0,1,9.94-3c5.79-.79,10.35,1.74,14.43,5.46,4.61,4.2,8.32,9.22,12.31,14a10.89,10.89,0,0,0,8.65,4.09,66.82,66.82,0,0,0,11.49-.73c3.79-.55,5.8,1.08,5.84,5C185.8,52.28,185.75,57.68,185.76,63.08ZM127.37,87.9c8.93.13,17.26.52,25.56-.65,4.74-.67,9.27-1.77,13.07-5a7.29,7.29,0,0,1,5-1.38c3,.09,5.91.21,8.86.35,1.45.08,2.23-.42,2.23-2q0-16.1,0-32.18c0-1.32-.45-1.87-1.87-1.68-3.08.42-6.19.43-9.28.68-6.58.54-11.7-1.73-15.42-7.18a3,3,0,0,0-.27-.35c-3.81-4.22-7-9-11.49-12.6-3.9-3.14-8.1-4.33-13-2.87a67.29,67.29,0,0,0-14.42,6.23c-4.08,2.34-5,4.82-3.34,9.26a27,27,0,0,0,1.79,3.81,39.39,39.39,0,0,1,4.14,11c.7,3.17,3.29,3.9,5.78,1.68a6.7,6.7,0,0,0,2-3.65,27.41,27.41,0,0,0,.54-8.81c-.4-4-2-7.08-5.75-8.8a3.51,3.51,0,0,1-.73-.5c-.36-.27-.77-.58-.65-1.07s.73-.66,1.26-.68a7.6,7.6,0,0,1,7.21,3.91c.45.74.83,1.52,1.33,2.43,1.43-1.62,1.92-3.49,2.62-5.26.26-.64.32-1.7,1.25-1.57s.88,1.2,1,2a9.88,9.88,0,0,1-2.41,7.6c-.65.77-1.48,1.46-1.56,2.62-.25,3.89-.13,7.6,2.68,10.83a35,35,0,0,0,6.48,6.34c2.44,1.66,5,3.2,7.43,4.83.56.37,1.6.66,1.13,1.58-.34.67-1.19.31-1.83.16a25.37,25.37,0,0,1-11.79-6.32c-1.11-1-2.15-2.14-3.59-3.58.09,1.62-1.13,2.74.12,3.76,3.13,2.55,3.12,5.81,2.2,9.27a1.82,1.82,0,0,0,.34,2c3.14,3.61,3,8.06-.3,11.56C132,85.38,129.92,86.44,127.37,87.9ZM109.18,76.41a5,5,0,0,0,1-.06,128.33,128.33,0,0,0,18.41-5.65c1.94-.74,2.52-2.85,1.92-5.37-.48-2-2.09-2-3.68-2a26.28,26.28,0,0,0-3.32.17c-5,.64-10.1,1.34-15.16,2-3.17.41-4.79,2.35-4.56,5.54S106.05,76.37,109.18,76.41Zm18.58-19.26c-.78.53-1.4,1-2.09,1.43-4.76,2.8-8.72,1.16-10-4.12a19.53,19.53,0,0,1-.47-1.94,2.65,2.65,0,0,0-3-2.53c-2.15,0-4.29-.12-6.43-.09-3.91.06-5.39,2-5.2,6.5.15,3.66,2.51,6.07,5.92,5.68,6.45-.73,12.89-1.67,19.33-2.46C127.24,59.44,127.8,58.71,127.76,57.15ZM118.4,87a26.22,26.22,0,0,0,12.36-5.35,5.86,5.86,0,0,0,1.35-1.75,4.14,4.14,0,0,0,0-4.61c-1-1.46-2.51-1-3.85-.6-4.39,1.32-8.76,2.71-13.13,4.08-2.25.7-3,1.88-2.53,4.16C113.06,85.46,115,87.06,118.4,87Zm-12-52.71c-2,.09-3.82,0-4.8,1.54a7.44,7.44,0,0,0-.6,7c.91,2.25,2.79,3.12,5.07,3.33,1.61.14,3.23.24,4.84.34.58,0,1.31.33,1.69-.16s-.18-1.11-.46-1.6c-1.42-2.51-2.86-5-3.2-7.94C108.73,34.84,108,34,106.43,34.32Z"/><path class="cls-3" d="M94,100.07c0,2,0,4.08,0,6.11,0,.8,0,1.72-1.07,1.74s-1.14-1-1.14-1.79q0-6.18,0-12.37a5,5,0,0,1,0-.55c.07-.67.25-1.32,1-1.34s1.13.67,1.13,1.4c0,2.26,0,4.53,0,6.8Z"/><path class="cls-4" d="M77.05,102.33a2.28,2.28,0,0,1,.49-1.33c2.28-3.54,4.55-7.07,6.84-10.6.4-.62.85-1.32,1.72-.74s.47,1.24.05,1.88q-3.5,5.42-7,10.83c-.33.51-.71,1-1.42.78A.93.93,0,0,1,77.05,102.33Z"/><path class="cls-5" d="M99.17,90.68a1.1,1.1,0,0,1,.6-1.11.83.83,0,0,1,1,.12,4.5,4.5,0,0,1,.67.84c2.21,3.42,4.42,6.83,6.62,10.26a5.25,5.25,0,0,1,.6,1.21,1,1,0,0,1-1.55,1,3,3,0,0,1-.6-.73q-3.43-5.3-6.84-10.59A10.53,10.53,0,0,1,99.17,90.68Z"/><path class="cls-6" d="M91.78,7.86c0-2,0-4.08,0-6.12,0-.79,0-1.72,1.06-1.74S94,1,94,1.79Q94,8,94,14.17a4.87,4.87,0,0,1,0,.54c-.07.67-.25,1.32-1,1.34s-1.13-.67-1.13-1.39c0-2.27,0-4.54,0-6.8Z"/><path class="cls-7" d="M108.71,5.6a2.28,2.28,0,0,1-.49,1.32c-2.28,3.54-4.55,7.08-6.84,10.61-.4.61-.85,1.32-1.72.74s-.47-1.24,0-1.89q3.49-5.41,7-10.83c.33-.51.71-1,1.42-.78A.93.93,0,0,1,108.71,5.6Z"/><path class="cls-8" d="M86.59,17.24a1.12,1.12,0,0,1-.6,1.12.83.83,0,0,1-1-.13,4.5,4.5,0,0,1-.67-.84Q81,12.28,77.69,7.14a5.68,5.68,0,0,1-.6-1.21.9.9,0,0,1,.42-1.06A.89.89,0,0,1,78.64,5a3.19,3.19,0,0,1,.6.72q3.44,5.3,6.84,10.6A10.51,10.51,0,0,1,86.59,17.24Z"/></g></g></svg>