<svg xmlns="http://www.w3.org/2000/svg" xmlns:xlink="http://www.w3.org/1999/xlink" viewBox="0 0 324.7 147.36"><defs><style>.cls-1{fill:none;stroke:#007890;stroke-miterlimit:10;}.cls-2{fill:url(#linear-gradient);}.cls-3{fill:url(#linear-gradient-2);}.cls-4{fill:url(#linear-gradient-3);}.cls-5{fill:url(#linear-gradient-4);}.cls-6{fill:url(#linear-gradient-5);}.cls-7{font-size:28.55px;fill:#007890;font-family:Gotham-Bold, Gotham;font-weight:700;}.cls-8{letter-spacing:-0.03em;}.cls-9{letter-spacing:0em;}.cls-10{letter-spacing:-0.01em;}.cls-11{letter-spacing:-0.01em;}.cls-12{letter-spacing:0em;}</style><linearGradient id="linear-gradient" x1="-349.41" y1="42.81" x2="586.56" y2="42.81" gradientUnits="userSpaceOnUse"><stop offset="0.09" stop-color="#08788f"/><stop offset="0.33" stop-color="#08788f"/></linearGradient><linearGradient id="linear-gradient-2" x1="-349.41" y1="19.02" x2="586.56" y2="19.02" xlink:href="#linear-gradient"/><linearGradient id="linear-gradient-3" x1="-125.67" y1="46.07" x2="366.6" y2="46.07" xlink:href="#linear-gradient"/><linearGradient id="linear-gradient-4" x1="-349.41" y1="74.79" x2="586.56" y2="74.79" xlink:href="#linear-gradient"/><linearGradient id="linear-gradient-5" x1="-349.41" y1="56.84" x2="586.56" y2="56.84" xlink:href="#linear-gradient"/></defs><g id="Capa_2" data-name="Capa 2"><g id="Grilla"><path class="cls-1" d="M109,112.51V138H6.88V117.73L59,68.48q8.31-7.92,11.2-13.62a24.62,24.62,0,0,0,2.9-11.29q0-8.12-5.5-12.46T51.49,26.76a37.07,37.07,0,0,0-16,3.38,30.76,30.76,0,0,0-12,10.14L.7,25.61A53.41,53.41,0,0,1,22.52,7.16Q36.42.5,54.39.5,69.45.5,80.75,5.42A40.64,40.64,0,0,1,98.32,19.33a36,36,0,0,1,6.28,21.15A47.16,47.16,0,0,1,100,61.14q-4.63,9.66-18,22L50.91,112.51Z"/><path class="cls-2" d="M190.22,41.79h-4.55V37.24a1,1,0,0,0-2,0v4.55h-4.55a1,1,0,0,0,0,2h4.55v4.55a1,1,0,1,0,2,0V43.83h4.55a1,1,0,1,0,0-2Z"/><path class="cls-3" d="M142.69,18.45h-2.56V15.89a.58.58,0,0,0-1.15,0v2.56h-2.55a.58.58,0,1,0,0,1.15H139v2.55a.58.58,0,1,0,1.15,0V19.6h2.56a.58.58,0,0,0,0-1.15Z"/><path class="cls-4" d="M122.1,45.61H120V43.53a.47.47,0,0,0-.93,0v2.08H117a.47.47,0,0,0,0,.93h2.08v2.07a.47.47,0,1,0,.93,0V46.54h2.08a.47.47,0,0,0,0-.93Z"/><path class="cls-5" d="M173.25,74.06H170V70.8a.73.73,0,1,0-1.46,0v3.26h-3.26a.73.73,0,0,0,0,1.46h3.26v3.26a.73.73,0,1,0,1.46,0V75.52h3.26a.73.73,0,1,0,0-1.46Z"/><path class="cls-6" d="M168.86,58.24a21.91,21.91,0,0,0-.68-24.36c-.26-.35-.53-.69-.81-1l-.36-.43a21.93,21.93,0,0,0-33.78.19l-.23.29c-.28.33-.54.67-.79,1a21.66,21.66,0,0,0-.57,24.15l9.83,16v2h-1.15a1.14,1.14,0,1,0,0,2.27h1.15v1.42h-1.15a1.14,1.14,0,1,0,0,2.28h1.29a8.67,8.67,0,0,0,8.52,7.16h.15A8.66,8.66,0,0,0,158.8,82h1.4a1.14,1.14,0,0,0,0-2.28h-1.26V78.26h1.26a1.14,1.14,0,1,0,0-2.27h-1.26v-1.7ZM148.22,72.52,145,47.88a3.55,3.55,0,0,0,3-.8,3.4,3.4,0,0,0,4.54,0,3.5,3.5,0,0,0,3.07.77l-2.45,24.67ZM134.05,35.25c.22-.31.46-.61.71-.91l.23-.29a19.65,19.65,0,0,1,30.28-.17l.36.43c.25.3.49.61.73.92a19.63,19.63,0,0,1,.57,21.82l-9.57,15.47h-1.92l2.71-27.39a3.68,3.68,0,0,0,.06-.66,1.14,1.14,0,0,0-2.27-.12l0,.5a1.15,1.15,0,0,1-1.1.82,1.14,1.14,0,0,1-1.13-1.13,1.14,1.14,0,1,0-2.28,0,1.14,1.14,0,0,1-2.27,0,1.14,1.14,0,1,0-2.27,0,1.14,1.14,0,0,1-1.14,1.13,1.12,1.12,0,0,1-1.07-.8l-.07-.55a1.11,1.11,0,0,0-1.2-1,1.17,1.17,0,0,0-1.06,1.17,3.58,3.58,0,0,0,.11.87l3.51,27.11h-2.71l-9.64-15.64A19.39,19.39,0,0,1,134.05,35.25Zm16.23,51.59h-.15a6.39,6.39,0,0,1-6.2-4.88h12.55A6.37,6.37,0,0,1,150.28,86.84Zm6.39-7.16H143.75V78.26h12.92ZM143.75,76V74.84h12.92V76Z"/><text class="cls-7" transform="translate(115.06 112.61)">Elabo<tspan class="cls-8" x="82.89" y="0">r</tspan><tspan class="cls-9" x="94.11" y="0">amos tu</tspan><tspan x="0" y="26.27">p</tspan><tspan class="cls-10" x="19.27" y="26.27">r</tspan><tspan class="cls-9" x="30.78" y="26.27">opue</tspan><tspan class="cls-11" x="104.31" y="26.27">s</tspan><tspan class="cls-12" x="118.36" y="26.27">ta</tspan></text></g></g></svg>