<svg xmlns="http://www.w3.org/2000/svg" xmlns:xlink="http://www.w3.org/1999/xlink" viewBox="0 0 353.35 146.43"><defs><style>.cls-1{fill:none;stroke:#007890;stroke-miterlimit:10;}.cls-2{fill:url(#linear-gradient);}.cls-3{fill:url(#linear-gradient-2);}.cls-4{fill:url(#linear-gradient-3);}.cls-5{fill:url(#linear-gradient-4);}.cls-6{font-size:28.55px;fill:#007890;font-family:Gotham-Bold, Gotham;font-weight:700;}</style><linearGradient id="linear-gradient" x1="119.28" y1="49.73" x2="180.73" y2="49.73" gradientUnits="userSpaceOnUse"><stop offset="0.09" stop-color="#08788f"/><stop offset="0.33" stop-color="#08788f"/></linearGradient><linearGradient id="linear-gradient-2" x1="120.49" y1="96" x2="137.13" y2="96" xlink:href="#linear-gradient"/><linearGradient id="linear-gradient-3" x1="140.91" y1="90.94" x2="157.55" y2="90.94" xlink:href="#linear-gradient"/><linearGradient id="linear-gradient-4" x1="163.35" y1="84.87" x2="179.99" y2="84.87" xlink:href="#linear-gradient"/></defs><g id="Capa_2" data-name="Capa 2"><g id="Grilla"><path class="cls-1" d="M99,68.91q9.48,10.35,9.48,25.64a40.43,40.43,0,0,1-6.19,21.77q-6.19,10-18.87,16t-31.06,6a106.81,106.81,0,0,1-28.16-3.77A72.53,72.53,0,0,1,.64,123.77l12.19-24a59.13,59.13,0,0,0,17.9,9A69,69,0,0,0,51.54,112q11.81,0,18.57-4.55a14.6,14.6,0,0,0,6.78-12.87q0-16.64-25.35-16.64H37.22V57.2L65.08,25.66H7.41V.5h94.83V20.82L71.66,55.65Q89.47,58.56,99,68.91Z"/><path class="cls-2" d="M120.83,66.13a1.44,1.44,0,0,0-.42,2.84,68.09,68.09,0,0,0,14.5,1.68c20.7,0,31.42-11.84,39-24.42L178.56,49a1.43,1.43,0,0,0,2.15-1.47l-3-17.51a1.44,1.44,0,0,0-2-1.08L160.1,35.58a1.43,1.43,0,0,0-.07,2.61l4.72,2.3C152.15,68.25,122.12,66.23,120.83,66.13Zm47.11-25.76a1.43,1.43,0,0,0-.69-1.85L164.12,37l11.1-4.71,2.14,12.64L174.19,43a1.39,1.39,0,0,0-1.09-.16,1.45,1.45,0,0,0-.89.66C164.53,56.59,154.47,68.2,134,67.79,145,65.43,160.17,58.79,167.94,40.37Z"/><path class="cls-3" d="M125.43,84.44c-2.77,0-4.94,2.71-4.94,6.16v10.8c0,3.45,2.17,6.16,4.94,6.16h6.76c2.77,0,4.94-2.71,4.94-6.16V90.6c0-3.45-2.17-6.16-4.94-6.16Zm8.83,6.16v10.8c0,1.75-1,3.28-2.07,3.28h-6.76c-1.1,0-2.07-1.53-2.07-3.28V90.6c0-1.75,1-3.29,2.07-3.29h6.76C133.29,87.31,134.26,88.85,134.26,90.6Z"/><path class="cls-4" d="M145.85,74.32c-2.77,0-4.94,2.71-4.94,6.16V101.4c0,3.45,2.17,6.16,4.94,6.16h6.76c2.77,0,4.94-2.71,4.94-6.16V80.48c0-3.45-2.17-6.16-4.94-6.16Zm8.83,6.16V101.4c0,1.75-1,3.28-2.07,3.28h-6.76c-1.1,0-2.07-1.53-2.07-3.28V80.48c0-1.75,1-3.29,2.07-3.29h6.76C153.71,77.19,154.68,78.73,154.68,80.48Z"/><path class="cls-5" d="M175.05,62.18h-6.76c-2.77,0-4.94,2.7-4.94,6.16V101.4c0,3.45,2.17,6.16,4.94,6.16h6.76c2.77,0,4.94-2.71,4.94-6.16V68.34C180,64.88,177.82,62.18,175.05,62.18Zm2.07,39.22c0,1.75-1,3.28-2.07,3.28h-6.76c-1.1,0-2.07-1.53-2.07-3.28V68.34c0-1.75,1-3.29,2.07-3.29h6.76c1.1,0,2.07,1.54,2.07,3.29Z"/><text class="cls-6" transform="translate(117.29 137.95)">+Oportunidades</text></g></g></svg>