<svg xmlns="http://www.w3.org/2000/svg" viewBox="0 0 250.3 137.15"><defs><style>.cls-1{fill:#007890;}</style></defs><g id="Capa_2" data-name="Capa 2"><g id="Grilla"><path class="cls-1" d="M59.74,137.15H27.23V26.28H0V0H59.74Zm-31.51-1H58.74V1H1V25.28H28.23Z"/><path class="cls-1" d="M112.64,92.54c0,3.7,0,7.39,0,11.09a4.22,4.22,0,0,1-3.31,4.18,4.49,4.49,0,0,1-4.91-2,4.64,4.64,0,0,1-.62-2.6q0-6.48,0-12.94c0-1.45-.16-1.62-1.63-1.63-2.82,0-5.65,0-8.48,0-2.14,0-3.22-1-3.64-3.44A5.3,5.3,0,0,1,90,84.18q0-9,0-18a6.85,6.85,0,0,1,2.27-5.43c.63-.56,1.19-.79,1.89-.14.44.42,1.4.42,1.46,1s-.92.59-1.38,1a4,4,0,0,0-1.57,3.21q0,10,0,19.92a.44.44,0,0,0,.44.44c3.21,0,6.43,0,9.64,0s3.49,1.44,3.49,5.63c0,.13.1,7.67.1,9.78,0,.52,0,1,0,1.57.08,1.28.83,2.14,1.86,2.15a2,2,0,0,0,1.88-2.12c0-1.71,0-3.41,0-5.11,0-5.15,0-10.3,0-15.45,0-1.06-.35-1.43-1.38-1.35s-2.13,0-3.18,0A.72.72,0,0,1,105,81a4.07,4.07,0,0,1-.74-3c0-2.16-.09-1.53-4-2.35-1.13-.24-2.27-.36-3.41-.49s-1.77-.54-1.76-1.7c0-2.5,0-5,0-7.5,0-.86.3-1.53,1.27-1.56s1.36.57,1.37,1.46c0,1.81.07,3.62,0,5.43,0,1,.35,1.39,1.32,1.53,4.05.59,8.09,1.25,12.13,1.89.5.07,1.13.26,1.24-.45s-.58-.75-1.06-.83c-3.43-.56-6.87-1.08-10.3-1.65-1.74-.29-1.88-.5-1.88-2.28a23.63,23.63,0,0,1,.1-3.15c1.57-.54,2.33-.09,2.42,1,0,.22,0,.43,0,.65a1.59,1.59,0,0,0,2.09,1.39c.38-.15.42-.47.42-.8,0-1.09,0-2.18,0-3.26a3.6,3.6,0,0,0-2.08-3.1c-.77-.4-.59-.64,0-1,2-1.11,2.75-.89,3.91,1.14a7.83,7.83,0,0,1,.87,4.2c0,1.07-.44,2.39.2,3.17s2,.56,3.06.78c.82.17,1.65.25,2.46.42a3.33,3.33,0,0,1-.65,6.58,20.78,20.78,0,0,1-3.76-.54c-.53-.08-1.2-.4-1.32.57s.37,1.08,1.1,1.07a8.06,8.06,0,0,1,3.85.52,1.39,1.39,0,0,1,.72,1.2C112.66,84.42,112.64,88.48,112.64,92.54Z"/><path class="cls-1" d="M122.73,92.52q0-5.38,0-10.77c0-2.27,1-3.21,3.31-3.12.51,0,1,0,1.52,0,.76,0,.9-.45.85-1.08s-.55-.63-1-.55c-1.11.18-2.21.45-3.33.53a3.32,3.32,0,0,1-3.65-2.82,3.39,3.39,0,0,1,2.89-3.83c1.38-.27,2.78-.52,4.17-.71.74-.1,1-.43,1-1.14,0-1.2,0-2.39,0-3.59a6.87,6.87,0,0,1,2.64-5.14,1,1,0,0,1,1.22,0c2,1.59,1.44,1.73,1.06,1.92a4.06,4.06,0,0,0-2.26,4.22c0,.51,0,1,0,1.52s-.31,1.33.34,1.57a3,3,0,0,0,2.1-.35c.54-.23.31-.83.33-1.27,0-.68.07-1.33.81-1.63a1.26,1.26,0,0,1,1.81,1.11,25.7,25.7,0,0,1,0,3c0,.89-.72,1.22-1.47,1.35-2.54.43-5.07.85-7.62,1.24a28.77,28.77,0,0,0-3.42.59c-.43.12-.93.19-.8.79s.55.5,1,.43c4.52-.72,9-1.45,13.56-2.15a52.21,52.21,0,0,0,.23-6.73c0-1.09.62-1.65,1.53-1.46s1.15.92.89,1.95a12.73,12.73,0,0,0,0,6.57c.43,1.53-.19,2-1.17,2.19-2.82.44-5.62,1-8.46,1.28a.28.28,0,0,0-.15.49c.65.57.53,1.26.52,1.92-.05,1.81-.66,2.42-2.44,2.44h-.11c-3.27,0-3.27,0-3.27,3.34q0,8.86,0,17.73a7.22,7.22,0,0,0,.1,1.4,1.79,1.79,0,0,0,3.53.09,11.3,11.3,0,0,0,.36-3c0-2.37.1-4.76.1-7,0-5.26-1.15-7.64,2.12-7.69,3,0,6.62,0,9.59,0,1.24,0,1.66-.34,1.67-1.59,0-6.31,0-12.62,0-18.93a3.63,3.63,0,0,0-2.37-3.47c-.26-.1-.63-.13-.64-.49s.34-.42.59-.55.33-.14.49-.23c1.63-.87,1.9-.8,3.1.64a6.83,6.83,0,0,1,1.51,4.56q0,9.11,0,18.22a5.79,5.79,0,0,1-.25,1.75c-.58,1.86-1.54,2.63-3.37,2.63-3.3,0-6.6,0-9.9,0a.31.31,0,0,0-.31.31c0,4.79,0,9.58,0,14.37a4.24,4.24,0,0,1-3.28,4.42,4.46,4.46,0,0,1-5-2,4.17,4.17,0,0,1-.58-2.39Z"/><path class="cls-1" d="M148.46,76.08c0-3.77,0-7.55,0-11.32,0-2.79,1-5,3.64-6.3,1-.5,1.82-.49,2.22.22a1.33,1.33,0,0,1-.73,2c-2.11,1-2.5,2.78-2.49,4.87,0,7.47,0,14.94,0,22.41,0,3.12-1.72,4.82-4.85,4.83-2.33,0-2.07-.2-2.08,2.12,0,3.08,0,6.16,0,9.24,0,.9.27,1.25,1.18,1.2s2,0,2.93,0,1.67.51,1.64,1.32c0,1-.69,1.31-1.54,1.32q-5.49,0-11,0c-.86,0-1.52-.4-1.48-1.35s.68-1.29,1.57-1.28,2,0,3,0,1-.4,1-2.25,0-5.92,0-8.14c0-1.72.08-2.2-1-2.18-1.38,0-2.76,0-4.14,0-.9,0-1.59-.29-1.65-1.31,0-.8.58-1.32,1.63-1.33,3.67,0,7.34,0,11,0a1.06,1.06,0,0,0,1-1.06Q148.47,82.56,148.46,76.08Z"/><path class="cls-1" d="M86.92,76.15c0,3.88,0,7.76,0,11.64,0,1.81.51,2.31,2.34,2.32,2.83,0,5.66,0,8.49,0h.87c1.35,0,2,.43,2,1.3s-.62,1.35-2,1.35c-1.66,0-3.32,0-5-.06,0,4.23,0,8.46,0,12.69,1.42-.12,2.84-.07,4.26-.07.89,0,1.5.41,1.5,1.34S98.83,108,98,108c-3.7,0-7.39,0-11.09,0-.89,0-1.49-.44-1.45-1.39s.64-1.23,1.47-1.24c1.09,0,2.18,0,3.27,0s.75-.48.75-2.38,0-6,0-7.91c0-1.72.23-2.32-.78-2.27-.85,0-1.7,0-2.54,0a3.19,3.19,0,0,1-3.42-3.14q0-12.09,0-24.19a9.86,9.86,0,0,0-.19-2.16,3,3,0,0,0-1.44-2.07,10.79,10.79,0,0,1-1-.66c-.65-.47-1.06-1.08-.58-1.85s1.24-.74,2-.37a6.44,6.44,0,0,1,3.85,6.28c0,3.85,0,7.69,0,11.53Z"/><path class="cls-1" d="M98.75,47.19a6.29,6.29,0,0,1,6.47,6.43c0,4.94-5.55,8.61-10.69,5.07a4.48,4.48,0,0,1-1.64-2.08C90.92,51.58,94.12,47.2,98.75,47.19Zm.07,2.57a3.84,3.84,0,0,0,0,7.68,3.83,3.83,0,0,0,3.78-3.81A3.87,3.87,0,0,0,98.82,49.76Z"/><path class="cls-1" d="M136.66,47.19c4.64,0,7.83,4.49,5.78,9.55a4.59,4.59,0,0,1-1.73,2.09c-5.18,3.31-10.58-.34-10.56-5.25A6.3,6.3,0,0,1,136.66,47.19Zm-.1,10.25a3.84,3.84,0,1,0-3.74-3.85A3.86,3.86,0,0,0,136.56,57.44Z"/><path class="cls-1" d="M70.55,126.47v-.06A10.16,10.16,0,0,1,81,116.08a10.29,10.29,0,0,1,7.88,3.08l-2.79,3.23A7.37,7.37,0,0,0,81,120.13a5.92,5.92,0,0,0-5.8,6.22v.06c0,3.43,2.37,6.28,5.8,6.28a7.2,7.2,0,0,0,5.25-2.34l2.8,2.83a10.22,10.22,0,0,1-8.2,3.57A10.09,10.09,0,0,1,70.55,126.47Z"/><path class="cls-1" d="M91,128.84v-.06a8,8,0,0,1,8.31-8,8,8,0,0,1,8.25,7.9v.06a8,8,0,0,1-8.31,8A8,8,0,0,1,91,128.84Zm12.27,0v-.06a4.06,4.06,0,0,0-4-4.22,3.91,3.91,0,0,0-4,4.16v.06a4.07,4.07,0,0,0,4,4.23A3.92,3.92,0,0,0,103.3,128.84Z"/><path class="cls-1" d="M110.73,121.1h4.34v2.17a5.42,5.42,0,0,1,4.48-2.45c3.28,0,5.2,2.17,5.2,5.68v9.9h-4.34v-8.53c0-2.06-1-3.11-2.63-3.11s-2.71,1-2.71,3.11v8.53h-4.34Z"/><path class="cls-1" d="M129.23,132.06v-7.25h-1.82V121.1h1.82v-3.91h4.34v3.91h3.6v3.71h-3.6v6.54c0,1,.43,1.49,1.4,1.49a4.34,4.34,0,0,0,2.14-.55v3.49a6.4,6.4,0,0,1-3.42.88C131,136.66,129.23,135.6,129.23,132.06Z"/><path class="cls-1" d="M139.46,132V132c0-3.34,2.54-4.88,6.16-4.88a10.88,10.88,0,0,1,3.74.63v-.26c0-1.8-1.11-2.8-3.28-2.8a11.35,11.35,0,0,0-4.23.83l-1.08-3.31a13.52,13.52,0,0,1,5.94-1.23,7.1,7.1,0,0,1,5.17,1.71,6.7,6.7,0,0,1,1.65,4.89v8.87h-4.2v-1.65a5.87,5.87,0,0,1-4.62,1.94C141.83,136.69,139.46,135,139.46,132Zm10-1v-.77a6.75,6.75,0,0,0-2.77-.57c-1.86,0-3,.74-3,2.11v.06c0,1.17,1,1.85,2.37,1.85C148.05,133.69,149.42,132.58,149.42,131Zm-1-16.65,3.74,1.63-3.71,3.43h-3.2Z"/><path class="cls-1" d="M156.53,128.84v-.06a7.85,7.85,0,0,1,8-8,7.52,7.52,0,0,1,6.11,2.57L168,126.24a4.46,4.46,0,0,0-3.49-1.68,3.9,3.9,0,0,0-3.71,4.16v.06A3.93,3.93,0,0,0,164.7,133a4.86,4.86,0,0,0,3.51-1.63l2.54,2.57a7.71,7.71,0,0,1-6.25,2.8A7.82,7.82,0,0,1,156.53,128.84Z"/><path class="cls-1" d="M174.29,132.06v-7.25h-1.83V121.1h1.83v-3.91h4.34v3.91h3.6v3.71h-3.6v6.54c0,1,.43,1.49,1.4,1.49a4.34,4.34,0,0,0,2.14-.55v3.49a6.4,6.4,0,0,1-3.42.88C176.09,136.66,174.29,135.6,174.29,132.06Z"/><path class="cls-1" d="M184.51,132V132c0-3.34,2.54-4.88,6.17-4.88a10.88,10.88,0,0,1,3.74.63v-.26c0-1.8-1.11-2.8-3.28-2.8a11.35,11.35,0,0,0-4.23.83l-1.08-3.31a13.52,13.52,0,0,1,5.94-1.23,7.07,7.07,0,0,1,5.16,1.71,6.71,6.71,0,0,1,1.66,4.89v8.87h-4.2v-1.65a5.87,5.87,0,0,1-4.62,1.94C186.88,136.69,184.51,135,184.51,132Zm10-1v-.77a6.83,6.83,0,0,0-2.77-.57c-1.86,0-3,.74-3,2.11v.06c0,1.17,1,1.85,2.37,1.85C193.11,133.69,194.48,132.58,194.48,131Z"/><path class="cls-1" d="M202.33,121.1h4.34v2.17a5.43,5.43,0,0,1,4.48-2.45c3.29,0,5.2,2.17,5.2,5.68v9.9H212v-8.53c0-2.06-1-3.11-2.63-3.11s-2.71,1-2.71,3.11v8.53h-4.34Z"/><path class="cls-1" d="M219.38,128.84v-.06a8.29,8.29,0,0,1,16.56-.06v.06a8,8,0,0,1-8.31,8A8,8,0,0,1,219.38,128.84Zm12.27,0v-.06a4.06,4.06,0,0,0-4-4.22,3.91,3.91,0,0,0-4,4.16v.06a4.07,4.07,0,0,0,4,4.23A3.92,3.92,0,0,0,231.65,128.84Z"/><path class="cls-1" d="M237.88,134.38l1.86-2.86a8.62,8.62,0,0,0,4.82,1.83c1.26,0,1.83-.46,1.83-1.14v-.06c0-.94-1.49-1.26-3.17-1.77-2.14-.63-4.57-1.63-4.57-4.6v0c0-3.11,2.51-4.86,5.6-4.86a10.63,10.63,0,0,1,5.71,1.77l-1.66,3a9.1,9.1,0,0,0-4.14-1.43c-1,0-1.6.46-1.6,1.06v.06c0,.85,1.46,1.25,3.11,1.82,2.15.72,4.63,1.75,4.63,4.54v.06c0,3.4-2.54,4.94-5.85,4.94A10.73,10.73,0,0,1,237.88,134.38Z"/></g></g></svg>