<svg xmlns="http://www.w3.org/2000/svg" xmlns:xlink="http://www.w3.org/1999/xlink" viewBox="0 0 66.73 71.13"><defs><style>.af4f74b4-cf3e-4d97-a270-5ce510f1ae7b{fill:none;}.f1b2631a-2cc7-4f83-b3a7-0ddecca5ef82{fill:url(#aea0c9d3-c124-45aa-83af-cabb662a14dd);}.a69458fa-d496-4aa4-bf1b-a8b31325a684{clip-path:url(#bb92c7e0-9ab7-40c6-8b4f-f464a2fa6f2a);}.ed48c587-1a0c-4f9b-b277-cb8eb3497e35{fill:#29ad80;}.fc5548fa-3b67-4f33-be3c-6cc87145dabf{fill:#78dfc1;}.f5b41433-1bba-4e61-b9b9-d01ab05bf854{fill:#087894;}.fe5d83fa-bdbb-4148-9426-284cb6c92aba{fill:#148087;}</style><linearGradient id="aea0c9d3-c124-45aa-83af-cabb662a14dd" x1="8775.97" y1="867.24" x2="8775.97" y2="802.3" gradientTransform="translate(867.31 -8754.77) rotate(90)" gradientUnits="userSpaceOnUse"><stop offset="0.15" stop-color="#087894"/><stop offset="0.32" stop-color="#17908b"/><stop offset="0.49" stop-color="#29ad80"/><stop offset="1" stop-color="#29ad80"/></linearGradient><clipPath id="bb92c7e0-9ab7-40c6-8b4f-f464a2fa6f2a"><path class="af4f74b4-cf3e-4d97-a270-5ce510f1ae7b" d="M65.4,17.1,32.93,49.38.46,17.1c0,16.09.58,19.36,8.68,27.62,5.06,5.16,23.79,23.57,23.79,23.57S54.85,46.68,58.68,42.78C65.2,36.13,65.4,35.91,65.4,27Z"/></clipPath></defs><g id="b985aeb7-c875-4dd4-a6b0-5c08476db478" data-name="Layer 2"><path class="f1b2631a-2cc7-4f83-b3a7-0ddecca5ef82" d="M32.54,42.4S13.81,24,8.75,18.83C.65,10.57.07,11.43.07,0L32.54,32.28,65,0V1.15c0,8.87-.2,9.09-6.73,15.74C54.45,20.8,32.54,42.4,32.54,42.4"/><g class="a69458fa-d496-4aa4-bf1b-a8b31325a684"><rect class="ed48c587-1a0c-4f9b-b277-cb8eb3497e35" x="32.94" y="31.99" width="17.02" height="42.65"/><rect class="fc5548fa-3b67-4f33-be3c-6cc87145dabf" x="49.71" y="10.22" width="17.02" height="79.74"/><rect class="f5b41433-1bba-4e61-b9b9-d01ab05bf854" y="10.22" width="17.02" height="79.74"/><rect class="fe5d83fa-bdbb-4148-9426-284cb6c92aba" x="16.73" y="11.27" width="16.33" height="60.73"/></g></g></svg>