<svg xmlns="http://www.w3.org/2000/svg" xmlns:xlink="http://www.w3.org/1999/xlink" viewBox="0 0 115.35 115.35"><defs><style>.a3dd8010-4f24-4c33-98dd-6282813da059{fill:url(#eb037247-4985-4e27-a092-c28ee71bf9f9);}.b215b365-796d-4276-9356-35a59572c562{fill:#fff;}</style><linearGradient id="eb037247-4985-4e27-a092-c28ee71bf9f9" x1="-54.91" y1="-8.88" x2="165.7" y2="121.54" gradientUnits="userSpaceOnUse"><stop offset="0.33" stop-color="#087891"/><stop offset="0.35" stop-color="#0d7c91"/><stop offset="0.48" stop-color="#329493"/><stop offset="0.61" stop-color="#4fa794"/><stop offset="0.74" stop-color="#64b495"/><stop offset="0.87" stop-color="#70bc96"/><stop offset="1" stop-color="#74bf96"/></linearGradient></defs><g id="a84d832f-1c59-426f-842c-2bbd367d2aeb" data-name="Layer 2"><rect class="a3dd8010-4f24-4c33-98dd-6282813da059" width="115.35" height="115.35" rx="57.67"/><path class="b215b365-796d-4276-9356-35a59572c562" d="M73.54,42.75q0,5.59,0,11.19c0,2.36-1.26,3.62-3.63,3.63H47.63A3.33,3.33,0,0,1,44,53.9q0-11.08,0-22.16C44,29.26,45.28,28,47.77,28c.33,0,.67,0,1,0,.94-.1,1.29.28,1.32,1.25a2.14,2.14,0,0,0,2.16,2.32,2.12,2.12,0,0,0,2.26-2.21c0-1.18.56-1.4,1.58-1.37,1.88.06,3.77.06,5.65,0,1,0,1.36.32,1.37,1.33a2.08,2.08,0,0,0,2.5,2.24,2.05,2.05,0,0,0,1.83-2.26c0-1,.41-1.4,1.39-1.3.33,0,.66,0,1,0,2.43,0,3.7,1.26,3.7,3.67C73.54,35.36,73.54,39.06,73.54,42.75ZM58.76,35.39c-3.69,0-7.38,0-11.07,0-.91,0-1.24.29-1.23,1.21,0,5.69,0,11.37,0,17.05,0,1.28.19,1.45,1.5,1.46H69.57c1.33,0,1.49-.16,1.49-1.46,0-5.65,0-11.29,0-16.94,0-1-.37-1.33-1.36-1.32C66.07,35.41,62.41,35.39,58.76,35.39Z"/><path class="b215b365-796d-4276-9356-35a59572c562" d="M50.62,28a6.12,6.12,0,0,1,.21-1.65,1.52,1.52,0,0,1,1.48-1.12,1.4,1.4,0,0,1,1.48,1.1,6.92,6.92,0,0,1,0,3.5,1.55,1.55,0,0,1-3-.08A14.64,14.64,0,0,1,50.62,28Z"/><path class="b215b365-796d-4276-9356-35a59572c562" d="M63.71,28a11.8,11.8,0,0,1,0-1.33,1.5,1.5,0,0,1,1.51-1.47,1.43,1.43,0,0,1,1.56,1.29,9.76,9.76,0,0,1,0,3.19,1.39,1.39,0,0,1-1.58,1.23,1.44,1.44,0,0,1-1.48-1.37,13.17,13.17,0,0,1,0-1.54Z"/><path class="b215b365-796d-4276-9356-35a59572c562" d="M57.37,46.26c.53-1.12,1-2.14,1.46-3.11a12.28,12.28,0,0,1,3.73-4.31c.65-.47,1.07-.38,1.33.38a.49.49,0,0,0,0,.11c1,2.35,1,2.36-.8,4.09a24.07,24.07,0,0,0-5,6.58c-.37.72-.67.84-1.26.19a8.55,8.55,0,0,0-3.46-2.31.8.8,0,0,1-.56-1.19c.2-.59.39-1.2.53-1.8.22-.89.73-1,1.5-.68A6.2,6.2,0,0,1,57.37,46.26Z"/></g></svg>