<svg id="Capa_1" data-name="Capa 1" xmlns="http://www.w3.org/2000/svg" xmlns:xlink="http://www.w3.org/1999/xlink" viewBox="0 0 1306 479"><defs><style>.cls-1{font-size:85.3px;font-family:Montserrat-ExtraBold, Montserrat;font-weight:800;}.cls-1,.cls-2{fill:#fff;}.cls-2{font-size:42.63px;font-family:Montserrat-Regular, Montserrat;}.cls-3{letter-spacing:-0.02em;}.cls-4{letter-spacing:0em;}.cls-5{letter-spacing:-0.02em;}.cls-6{letter-spacing:0em;}.cls-7{font-size:37.93px;}.cls-8{letter-spacing:-0.02em;}.cls-9{letter-spacing:0em;}.cls-10{letter-spacing:-0.01em;}.cls-11{letter-spacing:0em;}.cls-12{letter-spacing:-0.01em;}.cls-13{fill:#0b559c;}</style></defs><image width="1306" height="479" xlink:href="Links/Screen%20Shot%202021-08-03%20at%2015.34.51.png"/><text class="cls-1" transform="translate(34.03 177.03)">Bots</text><text class="cls-2" transform="translate(36.94 223.5)"><tspan class="cls-3">C</tspan><tspan class="cls-4" x="29.88" y="0">us</tspan><tspan class="cls-5" x="79.42" y="0">t</tspan><tspan x="95.91" y="0">o</tspan><tspan class="cls-6" x="122.64" y="0">m</tspan><tspan class="cls-4" x="167.95" y="0">er</tspan><tspan class="cls-7"><tspan class="cls-8" x="0" y="37.11">e</tspan><tspan class="cls-9" x="22.34" y="37.11">xpe</tspan><tspan class="cls-10" x="91.21" y="37.11">r</tspan><tspan class="cls-9" x="106.12" y="37.11">ie</tspan><tspan class="cls-11" x="139.23" y="37.11">n</tspan><tspan class="cls-12" x="164.98" y="37.11">c</tspan><tspan x="186" y="37.11">e</tspan></tspan></text><g id="Layer_2" data-name="Layer 2"><path class="cls-13" d="M363.27,345.28c.35.52.53.87.7.87,7,2.8,9.26,5.77,8.91,11-.35,5.58-4,9.6-10.48,11.17-5.94,1.4-12,.53-18,.7-2.09.18-2.27-1.22-2.27-2.79V328c0-2.27.88-3,3.15-3,5.41.18,10.82,0,16.24.35,6.11.35,9.43,3,10.3,7.51,1.05,5.07-1.05,8.56-6.81,11.53A14.79,14.79,0,0,1,363.27,345.28ZM352.1,356.63v4.72c0,4,1.39,4.89,5.24,3.49,5.76-2.1,7.51-10.83,2.79-14.84-2.1-1.75-4.71-2.62-7.16-1.75-2.1.7-.7,3.32-1.05,5.06C351.92,354.54,352.1,355.58,352.1,356.63Zm0-19.91a9.58,9.58,0,0,0,0,2.27c.35,1.75-1.05,4.19,1.22,4.89a6.46,6.46,0,0,0,7.16-2.44,8.67,8.67,0,0,0,.87-8.91c-1.22-3-4.19-3.67-7.16-3.49-3.32.35-1.74,3-2.09,4.71A16.37,16.37,0,0,0,352.1,336.72Z" transform="translate(-307.18 -300.85)"/><path class="cls-13" d="M435.58,341.09c4.54,10.13.7,16.24-10.13,17.46-1.75.18-4.89-.87-4.72,2.27.18,3,3,2.8,5.24,3a51,51,0,0,0,5.24.18c8.73.7,12.23,7.33,7.86,14.84-4.37,7.34-19,9.78-25.5,4.19-4.54-3.84-3.49-8.9,2.62-13.44-4-4.89-3.84-6.29,1.57-12.23-2.27-1.22-4.36-2.44-5.41-4.89-3-6.11-.35-12.4,6.29-14.15,6.46-1.74,13.27-.34,19.91-.69.87,0,1.57.17,1.74,1.22.18,1.22-.52,1.74-1.57,1.74A10.75,10.75,0,0,1,435.58,341.09Zm-10.66,29c-6.11-.17-8.2,1.4-8.2,5.76,0,4.19,3.14,7.16,8,7.34,4.54.17,8.38-3,8.38-7.16C433.31,372.18,430.69,370.25,424.92,370.08Zm3.5-21.48V346c-.35-2.45-.53-5.59-3.67-5.76-3.32-.18-3.67,2.79-4.37,5.23a6.8,6.8,0,0,0-.17,1.93c.17,3.31-.35,8,4.19,8.2C428.77,355.76,428.07,351,428.42,348.6Z" transform="translate(-307.18 -300.85)"/><path class="cls-13" d="M443.26,353.84c.35-10.48,6.81-16.42,16.94-16.07,9.61.35,15.37,6.64,14.85,16.24-.35,9.78-7.16,16.24-16.77,15.9C449,369.73,442.91,363.27,443.26,353.84Zm22.18,0a21.58,21.58,0,0,0-1.22-9.26c-.87-2.09-2.27-3.84-4.89-3.84a4.75,4.75,0,0,0-4.89,3.67,30.25,30.25,0,0,0,0,18.86,4.52,4.52,0,0,0,4.54,3.49c2.27,0,3.67-1.57,4.54-3.49C465.09,360.12,465.27,356.46,465.44,353.84Z" transform="translate(-307.18 -300.85)"/><path class="cls-13" d="M381.61,345.63c-1.74-2.62-.87-4.37,1.57-5.41A19.06,19.06,0,0,1,398.9,339c4,1.4,6.11,4,6.11,8.56-.17,4.72,0,9.43,0,14.15,0,2.62,0,5.06,3.67,5.93-4.36,2.62-7.86,3.67-11,.53-1.92-1.92-2.62-1.4-4.37-.18-5.93,4.37-14,1.58-15-4.89-.7-4.19.7-7.51,4.89-9.25a56.45,56.45,0,0,1,7.69-2.45c2.44-.7,5.41-1.05,4.54-4.71-.7-3.5-3.32-4.89-6.64-4.72C385.8,342.31,383.71,343.88,381.61,345.63Zm14.15,11.88c-.7-1.4,1.22-3.67-1.4-4.2-3-.52-7,3.32-7,7,0,2.62,0,5.59,3.66,5.24C396.11,365.19,395.23,360.82,395.76,357.51Z" transform="translate(-307.18 -300.85)"/><path class="cls-13" d="M541.76,370.08c-5.41,0-8.21-2.27-8.73-7-.35-5.24-.18-10.65-.35-16.06,0-2.1.7-4.72-3-4.54-1.22,0-1.4-1.05-1.4-2.1,0-1.22.35-2.27,1.92-2.1,2.27.18,2.8-1.22,2.45-3-1-5.94,4.37-5.59,7.33-7.34,1.4-.87,1.75.52,1.75,1.75a50.88,50.88,0,0,1,0,5.24c-.17,2.09.18,3.66,3,3.49,1.4-.18,2.44.17,2.44,1.92,0,2.1-1,2.45-2.61,2.27-2.45-.17-2.8,1-2.8,3.14.18,5.42,0,10.66,0,16.07,0,2.62.35,4.89,3.84,4.72.7,0,1.75-.18,1.92.87.18,1.22-.52,1.75-1.57,2.1A28.17,28.17,0,0,0,541.76,370.08Z" transform="translate(-307.18 -300.85)"/><path class="cls-13" d="M478.54,338.47c2.27,0,4.19.17,5.94,0,3-.52,4.19.52,5.06,3.32,1.75,5.76,3.67,11.52,5.94,18.51,2.45-7,4.72-12.4,6.29-18.16,1.05-3.5,2.79-4.54,6.28-3.5-3.66,9.61-7.51,19.21-11.17,28.82-.88,2.1-2.27,1.75-3.84,1.57-1.58,0-3.5.7-4.37-1.74C485.53,358,482,348.42,478.54,338.47Z" transform="translate(-307.18 -300.85)"/><path class="cls-13" d="M514,354.19c0-4,.18-8.21,0-12.23-.35-4.19,2.27-3.49,4.72-3.49,2.62,0,4.54-.35,4.36,3.49-.35,8.21-.17,16.24,0,24.45,0,3.15-1.57,3.32-3.84,3-1.92-.35-5.41,1.92-5.24-2.79C514.17,362.4,514,358.2,514,354.19Z" transform="translate(-307.18 -300.85)"/><path class="cls-13" d="M518.36,331.66c-3.14-.35-4.89-1.92-4.89-5.07a4.76,4.76,0,0,1,5.06-5.06,4.68,4.68,0,0,1,5.07,5.06C523.6,329.74,521.68,331.48,518.36,331.66Z" transform="translate(-307.18 -300.85)"/><path class="cls-13" d="M453.74,334.63c3.67-4.19,6.29-7.34,9.08-10.31,1.75-1.92,4-3.32,6.11-.87,1.93,2.44,0,4.19-2.09,5.24C463,330.78,459.85,334.1,453.74,334.63Z" transform="translate(-307.18 -300.85)"/></g></svg>