<?xml version="1.0" encoding="utf-8"?>
<!-- Generator: Adobe Illustrator 25.2.3, SVG Export Plug-In . SVG Version: 6.00 Build 0)  -->
<svg version="1.1" id="Layer_1" xmlns="http://www.w3.org/2000/svg" xmlns:xlink="http://www.w3.org/1999/xlink" x="0px" y="0px"
	 viewBox="0 0 239.7 141.9" style="enable-background:new 0 0 239.7 141.9;" xml:space="preserve">
<style type="text/css">
	.st0{fill:url(#SVGID_1_);}
	.st1{fill:url(#SVGID_2_);}
	.st2{fill:url(#SVGID_3_);}
	.st3{fill:url(#SVGID_4_);}
	.st4{fill:url(#SVGID_5_);}
	.st5{fill:url(#SVGID_6_);}
	.st6{fill:#007890;}
</style>
<g id="f387b019-138d-40d2-8dd6-f63e05fe7f84">
	
		<linearGradient id="SVGID_1_" gradientUnits="userSpaceOnUse" x1="10.57" y1="72.3613" x2="109.1507" y2="72.3613" gradientTransform="matrix(1 0 0 -1 0 143.2912)">
		<stop  offset="9.000000e-02" style="stop-color:#08788F"/>
		<stop  offset="0.33" style="stop-color:#08788F"/>
	</linearGradient>
	<path class="st0" d="M100.5,70.5c5.8,6.3,8.7,14.1,8.7,23.5c0,7-1.9,13.9-5.7,19.9c-3.8,6.1-9.5,10.9-17.2,14.6
		c-7.7,3.7-17.2,5.5-28.4,5.5c-8.7,0-17.4-1.2-25.8-3.4c-7.7-2-15-5.3-21.5-9.8l11.1-21.9c4.9,3.7,10.5,6.5,16.4,8.3
		c6.1,1.9,12.6,2.9,19,2.9c7.2,0,12.9-1.4,17-4.2c4-2.5,6.4-7,6.2-11.8c0-10.1-7.7-15.2-23.2-15.2H44v-19l25.5-28.9H16.8v-23h86.7
		v18.6l-28,31.9C86.4,60.1,94.7,64.2,100.5,70.5z"/>
	
		<linearGradient id="SVGID_2_" gradientUnits="userSpaceOnUse" x1="120.33" y1="19.4313" x2="132.11" y2="19.4313" gradientTransform="matrix(1 0 0 -1 0 143.2912)">
		<stop  offset="9.000000e-02" style="stop-color:#08788F"/>
		<stop  offset="0.33" style="stop-color:#08788F"/>
	</linearGradient>
	<path class="st1" d="M132.1,125.4h-4.3v4.2h-3.2v-4.2h-4.3v-3h4.3v-4.2h3.2v4.2h4.3V125.4z"/>
	
		<linearGradient id="SVGID_3_" gradientUnits="userSpaceOnUse" x1="122.667" y1="90.3111" x2="178.8976" y2="90.3111" gradientTransform="matrix(1 0 0 -1 0 143.2912)">
		<stop  offset="9.000000e-02" style="stop-color:#08788F"/>
		<stop  offset="0.33" style="stop-color:#08788F"/>
	</linearGradient>
	<path class="st2" d="M124.1,68c-0.7-0.1-1.4,0.4-1.5,1.1c-0.1,0.7,0.4,1.3,1.1,1.5c4.4,1,8.8,1.5,13.2,1.5
		c18.9,0,28.7-10.8,35.7-22.3l4.2,2.5c0.4,0.3,1,0.3,1.4,0c0.4-0.3,0.6-0.8,0.6-1.3l-2.7-16c-0.1-0.4-0.3-0.7-0.7-0.9
		c-0.4-0.2-0.8-0.2-1.1-0.1l-14.3,6c-0.5,0.2-0.8,0.7-0.8,1.2c0,0.5,0.3,1,0.7,1.2l4.3,2.1C152.8,69.9,125.3,68,124.1,68z
		 M167.2,44.4c0.3-0.6,0-1.4-0.6-1.7l-2.9-1.4l10.2-4.4l2,11.6l-2.9-1.7c-0.6-0.4-1.4-0.2-1.8,0.4c0,0,0,0,0,0
		c-7,11.9-16.2,22.6-35,22.2C146.3,67.3,160.1,61.2,167.2,44.4L167.2,44.4z"/>
	
		<linearGradient id="SVGID_4_" gradientUnits="userSpaceOnUse" x1="123.83" y1="48.0313" x2="139.05" y2="48.0313" gradientTransform="matrix(1 0 0 -1 0 143.2912)">
		<stop  offset="9.000000e-02" style="stop-color:#08788F"/>
		<stop  offset="0.33" style="stop-color:#08788F"/>
	</linearGradient>
	<path class="st3" d="M128.4,84.7c-2.5,0-4.5,2.5-4.5,5.6v9.9c0,3.2,2,5.6,4.5,5.6h6.2c2.5,0,4.5-2.5,4.5-5.6v-9.9
		c0-3.2-2-5.6-4.5-5.6H128.4z M136.4,90.3v9.9c0,1.6-0.9,3-1.9,3h-6.2c-1,0-1.9-1.4-1.9-3v-9.9c0-1.6,0.9-3,1.9-3h6.2
		C135.5,87.3,136.4,88.7,136.4,90.3L136.4,90.3z"/>
	
		<linearGradient id="SVGID_5_" gradientUnits="userSpaceOnUse" x1="142.51" y1="52.6563" x2="157.72" y2="52.6563" gradientTransform="matrix(1 0 0 -1 0 143.2912)">
		<stop  offset="9.000000e-02" style="stop-color:#08788F"/>
		<stop  offset="0.33" style="stop-color:#08788F"/>
	</linearGradient>
	<path class="st4" d="M147,75.4c-2.5,0-4.5,2.5-4.5,5.6v19.1c0,3.2,2,5.6,4.5,5.6h6.2c2.5,0,4.5-2.5,4.5-5.6V81.1
		c0-3.2-2-5.6-4.5-5.6H147z M155.1,81.1v19.1c0,1.6-0.9,3-1.9,3H147c-1,0-1.9-1.4-1.9-3V81.1c0-1.6,0.9-3,1.9-3h6.2
		C154.2,78.1,155.1,79.5,155.1,81.1L155.1,81.1z"/>
	
		<linearGradient id="SVGID_6_" gradientUnits="userSpaceOnUse" x1="163.02" y1="58.2113" x2="178.2402" y2="58.2113" gradientTransform="matrix(1 0 0 -1 0 143.2912)">
		<stop  offset="9.000000e-02" style="stop-color:#08788F"/>
		<stop  offset="0.33" style="stop-color:#08788F"/>
	</linearGradient>
	<path class="st5" d="M173.7,64.3h-6.2c-2.5,0-4.5,2.5-4.5,5.7v30.2c0,3.2,2,5.6,4.5,5.6h6.2c2.5,0,4.5-2.5,4.5-5.6V70
		C178.2,66.8,176.2,64.3,173.7,64.3z M175.6,100.2c0,1.6-0.9,3-1.9,3h-6.2c-1,0-1.9-1.4-1.9-3V70c0-1.6,0.9-3,1.9-3h6.2
		c1,0,1.9,1.4,1.9,3V100.2z"/>
</g>
<g>
	<path class="st6" d="M141.1,130.3l2.6-3.1c1.8,1.5,3.7,2.4,6,2.4c1.8,0,2.9-0.7,2.9-1.9v-0.1c0-1.1-0.7-1.7-4-2.5
		c-4-1-6.6-2.1-6.6-6.1v-0.1c0-3.6,2.9-6,7-6c2.9,0,5.4,0.9,7.4,2.5l-2.3,3.3c-1.8-1.2-3.5-2-5.2-2s-2.6,0.8-2.6,1.7v0.1
		c0,1.3,0.9,1.7,4.3,2.6c4.1,1.1,6.3,2.5,6.3,6v0.1c0,4-3,6.2-7.3,6.2C146.6,133.5,143.5,132.4,141.1,130.3z"/>
	<path class="st6" d="M159.4,128.8L159.4,128.8c0-3.4,2.5-4.9,6.2-4.9c1.5,0,2.7,0.3,3.7,0.6v-0.3c0-1.8-1.1-2.8-3.3-2.8
		c-1.7,0-2.8,0.3-4.2,0.8l-1.1-3.3c1.7-0.7,3.3-1.2,5.9-1.2c2.4,0,4.1,0.6,5.2,1.7c1.1,1.1,1.7,2.8,1.7,4.9v8.9h-4.2v-1.7
		c-1.1,1.2-2.5,1.9-4.6,1.9C161.8,133.5,159.4,131.8,159.4,128.8z M169.4,127.8V127c-0.7-0.3-1.7-0.6-2.8-0.6c-1.9,0-3,0.7-3,2.1
		v0.1c0,1.2,1,1.9,2.4,1.9C168,130.5,169.4,129.4,169.4,127.8z"/>
	<path class="st6" d="M177.4,112.3h4.3v20.8h-4.3V112.3z"/>
	<path class="st6" d="M185.1,125.6L185.1,125.6c0-4.4,3.1-8,7.6-8c5.1,0,7.5,4,7.5,8.3c0,0.3,0,0.7-0.1,1.1h-10.6c0.4,2,1.8,3,3.7,3
		c1.5,0,2.5-0.5,3.7-1.6l2.5,2.2c-1.4,1.8-3.5,2.9-6.3,2.9C188.5,133.5,185.1,130.3,185.1,125.6z M195.9,124.3
		c-0.3-1.9-1.4-3.3-3.2-3.3c-1.8,0-3,1.3-3.3,3.3H195.9z"/>
	<path class="st6" d="M202.1,131.2l1.9-2.9c1.7,1.2,3.4,1.8,4.8,1.8c1.3,0,1.8-0.5,1.8-1.1v-0.1c0-0.9-1.5-1.3-3.2-1.8
		c-2.1-0.6-4.6-1.6-4.6-4.6v-0.1c0-3.1,2.5-4.9,5.6-4.9c1.9,0,4.1,0.7,5.7,1.8l-1.7,3c-1.5-0.9-3-1.4-4.1-1.4
		c-1.1,0-1.6,0.5-1.6,1.1v0.1c0,0.9,1.5,1.3,3.1,1.8c2.1,0.7,4.6,1.7,4.6,4.5v0.1c0,3.4-2.5,4.9-5.9,4.9
		C206.6,133.5,204.2,132.8,202.1,131.2z"/>
</g>
</svg>
