<?xml version="1.0" encoding="utf-8"?>
<!-- Generator: Adobe Illustrator 25.2.3, SVG Export Plug-In . SVG Version: 6.00 Build 0)  -->
<svg version="1.1" id="Layer_1" xmlns="http://www.w3.org/2000/svg" xmlns:xlink="http://www.w3.org/1999/xlink" x="0px" y="0px"
	 viewBox="0 0 252 146.6" style="enable-background:new 0 0 252 146.6;" xml:space="preserve">
<style type="text/css">
	.st0{fill:url(#SVGID_1_);}
	.st1{fill:url(#SVGID_2_);}
	.st2{fill:url(#SVGID_3_);}
	.st3{fill:url(#SVGID_4_);}
	.st4{fill:url(#SVGID_5_);}
	.st5{fill:url(#SVGID_6_);}
	.st6{fill:#007890;}
</style>
<g id="b676d6fb-ecec-4e09-b67f-04d459aa0ed7">
	
		<linearGradient id="SVGID_1_" gradientUnits="userSpaceOnUse" x1="-421.61" y1="76.4913" x2="669.51" y2="76.4913" gradientTransform="matrix(1 0 0 -1 0 147.2912)">
		<stop  offset="9.000000e-02" style="stop-color:#08788F"/>
		<stop  offset="0.33" style="stop-color:#08788F"/>
	</linearGradient>
	<path class="st0" d="M107,110.4v23.3H13.6v-18.5l47.7-45c5.1-4.8,8.5-9,10.2-12.4c1.7-3.2,2.6-6.7,2.7-10.3c0-4.9-1.7-8.7-5-11.4
		s-8.3-4-14.8-4c-5-0.1-10.1,0.9-14.6,3c-4.4,2.1-8.2,5.3-11,9.3L7.9,30.9c5-7.3,11.9-13.2,19.9-16.9c8.5-4,18.2-6.1,29.1-6.1
		c9.2,0,17.2,1.5,24.1,4.5c6.5,2.6,12,7.1,16.1,12.7c3.9,5.7,5.9,12.4,5.7,19.3c0,6.5-1.4,13-4.2,18.9c-2.8,5.9-8.3,12.6-16.4,20.1
		l-28.4,26.8H107z"/>
	
		<linearGradient id="SVGID_2_" gradientUnits="userSpaceOnUse" x1="-307.68" y1="82.3863" x2="548.27" y2="82.3863" gradientTransform="matrix(1 0 0 -1 0 147.2912)">
		<stop  offset="9.000000e-02" style="stop-color:#08788F"/>
		<stop  offset="0.33" style="stop-color:#08788F"/>
	</linearGradient>
	<path class="st1" d="M185.8,64h-4.2v-4.2c0-0.5-0.4-0.9-0.9-0.9c-0.5,0-0.9,0.4-0.9,0.9l0,0V64h-4.2c-0.5,0-0.9,0.4-0.9,0.9
		s0.4,0.9,0.9,0.9h4.2V70c0,0.5,0.4,0.9,0.9,0.9c0.5,0,0.9-0.4,0.9-0.9v-4.2h4.2c0.5,0,0.9-0.4,0.9-0.9S186.3,64,185.8,64L185.8,64z
		"/>
	
		<linearGradient id="SVGID_3_" gradientUnits="userSpaceOnUse" x1="-307.68" y1="104.1463" x2="548.27" y2="104.1463" gradientTransform="matrix(1 0 0 -1 0 147.2912)">
		<stop  offset="9.000000e-02" style="stop-color:#08788F"/>
		<stop  offset="0.33" style="stop-color:#08788F"/>
	</linearGradient>
	<path class="st2" d="M142.3,42.6H140v-2.3c0-0.3-0.2-0.5-0.5-0.5c-0.3,0-0.5,0.2-0.5,0.5v0v2.3h-2.3c-0.3,0-0.5,0.2-0.5,0.5
		c0,0,0,0,0,0c0,0.3,0.2,0.5,0.5,0.5l0,0h2.4V46c0,0.3,0.2,0.5,0.5,0.5l0,0c0.3,0,0.5-0.2,0.5-0.5v-2.3h2.3c0.3,0,0.5-0.2,0.5-0.5
		c0,0,0,0,0,0C142.9,42.9,142.6,42.6,142.3,42.6z"/>
	
		<linearGradient id="SVGID_4_" gradientUnits="userSpaceOnUse" x1="-307.68" y1="79.3115" x2="548.27" y2="79.3115" gradientTransform="matrix(1 0 0 -1 0 147.2912)">
		<stop  offset="9.000000e-02" style="stop-color:#08788F"/>
		<stop  offset="0.33" style="stop-color:#08788F"/>
	</linearGradient>
	<path class="st3" d="M123.1,67.1h-3.6v-3.6c0-0.4-0.5-0.8-0.9-0.7c-0.4,0-0.7,0.3-0.7,0.7v3.6h-3.6c-0.4,0-0.8,0.4-0.8,0.8
		c0,0.4,0.4,0.8,0.8,0.8h3.6v3.6c0,0.4,0.3,0.8,0.7,0.9s0.8-0.3,0.9-0.7c0-0.1,0-0.1,0-0.2v-3.6h3.6c0.4,0,0.8-0.4,0.8-0.8
		C123.9,67.4,123.6,67.1,123.1,67.1z"/>
	
		<linearGradient id="SVGID_5_" gradientUnits="userSpaceOnUse" x1="-307.68" y1="53.1363" x2="548.27" y2="53.1363" gradientTransform="matrix(1 0 0 -1 0 147.2912)">
		<stop  offset="9.000000e-02" style="stop-color:#08788F"/>
		<stop  offset="0.33" style="stop-color:#08788F"/>
	</linearGradient>
	<path class="st4" d="M170.3,93.5h-3v-3c0-0.4-0.2-0.7-0.6-0.7c-0.4,0-0.7,0.2-0.7,0.6c0,0.1,0,0.1,0,0.2v3h-3
		c-0.4,0-0.7,0.2-0.7,0.6c0,0.4,0.2,0.7,0.6,0.7c0.1,0,0.1,0,0.2,0h3v3c0,0.4,0.2,0.7,0.6,0.7c0.4,0,0.7-0.2,0.7-0.6
		c0-0.1,0-0.1,0-0.2v-3h3c0.4,0,0.7-0.2,0.7-0.6c0-0.4-0.2-0.7-0.6-0.7C170.4,93.5,170.3,93.5,170.3,93.5z"/>
	
		<linearGradient id="SVGID_6_" gradientUnits="userSpaceOnUse" x1="-307.68" y1="69.5668" x2="548.27" y2="69.5668" gradientTransform="matrix(1 0 0 -1 0 147.2912)">
		<stop  offset="9.000000e-02" style="stop-color:#08788F"/>
		<stop  offset="0.33" style="stop-color:#08788F"/>
	</linearGradient>
	<path class="st5" d="M166.3,79c4.3-6.9,4.1-15.7-0.6-22.3c-0.2-0.3-0.5-0.6-0.7-0.9l-0.3-0.4c-7.1-8.5-19.8-9.6-28.2-2.5
		c-1,0.8-1.8,1.7-2.6,2.7l-0.2,0.3c-0.3,0.3-0.5,0.6-0.7,0.9c-4.6,6.6-4.8,15.3-0.5,22.1l9,14.6v1.8h-1.1c-0.6,0-1,0.5-1,1
		s0.5,1,1,1l0,0h1.1v1.3h-1.1c-0.6,0-1,0.5-1,1s0.5,1,1,1l0,0h1.2c0.7,3.8,4,6.5,7.8,6.6h0.1c3.8,0,7.1-2.8,7.8-6.6h1.3
		c0.6,0,1-0.5,1-1s-0.5-1-1-1h-1.1v-1.3h1.1c0.6,0,1-0.5,1-1s-0.5-1-1-1h-1.1v-1.5L166.3,79z M147.4,92.1l-2.9-22.5
		c1,0.2,2-0.1,2.7-0.7c1.2,1.1,3,1.1,4.2,0c0.8,0.7,1.8,0.9,2.8,0.7l-2.2,22.6L147.4,92.1z M134.4,58c0.2-0.3,0.4-0.6,0.6-0.8
		l0.2-0.3c6.3-7.7,17.7-8.8,25.3-2.5c0.9,0.7,1.6,1.5,2.4,2.3l0.3,0.4c0.2,0.3,0.4,0.5,0.7,0.8c4.2,5.9,4.4,13.8,0.5,20l-8.7,14.2
		H154l2.5-25c0-0.2,0-0.4,0-0.6c0-0.6-0.4-1-1-1c-0.5-0.1-1,0.4-1.1,0.9c0,0,0,0,0,0v0.4c-0.1,0.5-0.5,0.8-1,0.8c-0.6,0-1-0.4-1-1
		c0-0.6-0.5-1-1-1c-0.6,0-1,0.5-1,1s-0.5,1-1,1c-0.6,0-1-0.5-1-1s-0.5-1-1-1c-0.6,0-1,0.5-1,1c0.1,0.6-0.3,1.1-0.8,1.2
		s-1.1-0.3-1.2-0.8l-0.1-0.5c-0.1-0.5-0.6-0.9-1.1-0.9c-0.6,0-1,0.5-1,1.1c0,0.3,0,0.5,0.1,0.8l3.2,24.8h-2.5L134,77.8
		C130.1,71.7,130.3,63.9,134.4,58z M149.3,105.2h-0.1c-2.7,0-5-1.9-5.7-4.5H155C154.4,103.3,152,105.2,149.3,105.2z M155.1,98.6
		h-11.8v-1.3h11.8L155.1,98.6z M143.3,95.2v-1h11.8v1H143.3z"/>
	<g>
		<path class="st6" d="M113.3,125L113.3,125c0-5.7,4.5-10.4,10.6-10.4s10.6,4.6,10.6,10.3v0.1c0,5.7-4.5,10.3-10.6,10.3
			C117.7,135.3,113.3,130.7,113.3,125z M129.9,125L129.9,125c0-3.5-2.5-6.3-6.1-6.3s-6,2.8-6,6.2v0.1c0,3.4,2.5,6.3,6.1,6.3
			S129.9,128.5,129.9,125z"/>
		<path class="st6" d="M138.7,123.4h-1.8v-3.6h1.8v-1c0-1.7,0.4-2.9,1.2-3.7c0.8-0.8,2-1.2,3.5-1.2c1.4,0,2.3,0.2,3.1,0.4v3.6
			c-0.6-0.2-1.2-0.4-2-0.4c-1,0-1.6,0.5-1.6,1.7v0.6h3.5v3.5h-3.5V135h-4.3V123.4z M149.6,123.4h-1.8v-3.6h1.8v-1
			c0-1.7,0.4-2.9,1.2-3.7c0.8-0.8,2-1.2,3.5-1.2c1.4,0,2.3,0.2,3.1,0.4v3.6c-0.6-0.2-1.2-0.4-2-0.4c-1,0-1.6,0.5-1.6,1.7v0.6h3.5
			v3.5H154V135h-4.3V123.4z"/>
		<path class="st6" d="M158.8,127.4L158.8,127.4c0-4.4,3.1-8,7.6-8c5.1,0,7.5,4,7.5,8.3c0,0.3,0,0.7-0.1,1.1h-10.6
			c0.4,2,1.8,3,3.7,3c1.5,0,2.5-0.5,3.7-1.6l2.5,2.2c-1.4,1.8-3.5,2.9-6.3,2.9C162.2,135.3,158.8,132.1,158.8,127.4z M169.6,126.1
			c-0.3-1.9-1.4-3.3-3.2-3.3c-1.8,0-3,1.3-3.3,3.3H169.6z"/>
		<path class="st6" d="M177,119.7h4.3v3.1c0.9-2.1,2.3-3.5,4.9-3.4v4.5H186c-2.9,0-4.7,1.7-4.7,5.4v5.7H177V119.7z"/>
		<path class="st6" d="M189,114.1h4.6v3.9H189V114.1z M189.2,119.7h4.3V135h-4.3V119.7z"/>
		<path class="st6" d="M197.6,119.7h4.3v2.2c1-1.3,2.3-2.5,4.5-2.5c3.3,0,5.2,2.2,5.2,5.7v9.9h-4.3v-8.5c0-2.1-1-3.1-2.6-3.1
			s-2.7,1.1-2.7,3.1v8.5h-4.3V119.7z"/>
		<path class="st6" d="M215.5,138l1.5-3.3c1.6,0.9,3.1,1.4,5.2,1.4c3,0,4.4-1.4,4.4-4.2v-0.7c-1.3,1.5-2.7,2.5-5,2.5
			c-3.6,0-6.8-2.6-6.8-7.1v-0.1c0-4.6,3.3-7.1,6.8-7.1c2.4,0,3.8,1,4.9,2.3v-2h4.3v11.8c0,2.7-0.7,4.7-1.9,6
			c-1.4,1.4-3.6,2.1-6.6,2.1C219.7,139.6,217.4,139,215.5,138z M226.5,126.6L226.5,126.6c0-2.1-1.6-3.6-3.7-3.6
			c-2.1,0-3.7,1.5-3.7,3.5v0.1c0,2.1,1.6,3.5,3.7,3.5C224.8,130.1,226.5,128.7,226.5,126.6z"/>
	</g>
</g>
</svg>
