<svg xmlns="http://www.w3.org/2000/svg" xmlns:xlink="http://www.w3.org/1999/xlink" viewBox="0 0 349.1 479.97" style=""><defs><style>.cls-1{fill:none;stroke:#74e0c1;stroke-miterlimit:10;stroke-width:0.81px;stroke-dasharray:4.08 4.08;}.cls-2{fill:#74e0c1;}.cls-3{fill:url(#radial-gradient);}.cls-4{fill:url(#linear-gradient);}.cls-5{fill:url(#linear-gradient-2);}</style><radialGradient id="radial-gradient" cx="181.54" cy="34.52" r="83.79" gradientUnits="userSpaceOnUse"><stop offset="0" stop-color="#71bd92"></stop><stop offset="0.16" stop-color="#6bb992"></stop><stop offset="0.37" stop-color="#5aaf91"></stop><stop offset="0.61" stop-color="#3e9e91"></stop><stop offset="0.87" stop-color="#178690"></stop><stop offset="1" stop-color="#00788f"></stop></radialGradient><linearGradient id="linear-gradient" x1="201.92" y1="110.62" x2="201.92" y2="-13.79" gradientUnits="userSpaceOnUse"><stop offset="0.19" stop-color="#00788f"></stop><stop offset="0.34" stop-color="#178690"></stop><stop offset="0.79" stop-color="#58ae91"></stop><stop offset="1" stop-color="#71bd92"></stop></linearGradient><linearGradient id="linear-gradient-2" x1="169.89" y1="63.72" x2="169.89" y2="20.22" gradientUnits="userSpaceOnUse"><stop offset="0" stop-color="#00788f"></stop><stop offset="0.18" stop-color="#047b8f"></stop><stop offset="0.37" stop-color="#12838f"></stop><stop offset="0.57" stop-color="#289090"></stop><stop offset="0.77" stop-color="#46a391"></stop><stop offset="0.98" stop-color="#6dbb92"></stop><stop offset="1" stop-color="#71bd92"></stop></linearGradient></defs><g id="Capa_2" data-name="Capa 2"><g id="Capa_1-2" data-name="Capa 1"><path class="cls-1 RdDQdJBh_0" d="M0.410000000000025,305.42A174.14,174.14 0,1,1 348.69,305.42A174.14,174.14 0,1,1 0.410000000000025,305.42"></path><path class="cls-2 RdDQdJBh_1" d="M179.38,130.17A3.85,3.85 0,1,1 187.07999999999998,130.17A3.85,3.85 0,1,1 179.38,130.17"></path><path class="cls-3 RdDQdJBh_2" d="M183.4,0l-1.12,0-1.13,0C152,.8,133.12,32.92,145,61.11l34.36,60.4c1.33,2.35,7.48,2.35,8.82,0l34.35-60.4C234.38,32.92,212.54.8,183.4,0Zm-5.17,63.7c-11.35,0-20.54-9.74-20.54-21.75s9.19-21.75,20.54-21.75S198.77,30,198.77,42,189.58,63.72,178.23,63.72Z"></path><path class="cls-4 RdDQdJBh_3" d="M186.34,0l-4.06,0-1.13,0c-1,0-2,.09-2.92.18C205.69,3,222.94,33.87,211.48,61.11L179.3,117.69c-1.49,2.43-2,.14-1.15,1.69l1.19,2.13c1.33,2.35,7.48,2.35,8.82,0l34.35-60.4C234.38,32.92,215.48.8,186.34,0Z"></path><path class="cls-5 RdDQdJBh_4" d="M178.23,63.72a19.1,19.1,0,0,0,3.87-.39c-9.5-1.91-16.68-10.75-16.68-21.36s7.18-19.45,16.68-21.36a19.1,19.1,0,0,0-3.87-.39c-11.35,0-20.54,9.74-20.54,21.75S166.88,63.72,178.23,63.72Z"></path></g></g><style data-made-with="vivus-instant">.RdDQdJBh_0{stroke-dasharray:1095 1097;stroke-dashoffset:1096;animation:RdDQdJBh_draw_0 5200ms ease 0ms infinite,RdDQdJBh_fade 5200ms linear 0ms infinite;}.RdDQdJBh_1{stroke-dasharray:25 27;stroke-dashoffset:26;animation:RdDQdJBh_draw_1 5200ms ease 0ms infinite,RdDQdJBh_fade 5200ms linear 0ms infinite;}.RdDQdJBh_2{stroke-dasharray:453 455;stroke-dashoffset:454;animation:RdDQdJBh_draw_2 5200ms ease 0ms infinite,RdDQdJBh_fade 5200ms linear 0ms infinite;}.RdDQdJBh_3{stroke-dasharray:322 324;stroke-dashoffset:323;animation:RdDQdJBh_draw_3 5200ms ease 0ms infinite,RdDQdJBh_fade 5200ms linear 0ms infinite;}.RdDQdJBh_4{stroke-dasharray:133 135;stroke-dashoffset:134;animation:RdDQdJBh_draw_4 5200ms ease 0ms infinite,RdDQdJBh_fade 5200ms linear 0ms infinite;}@keyframes RdDQdJBh_draw{100%{stroke-dashoffset:0;}}@keyframes RdDQdJBh_fade{0%{stroke-opacity:1;}92.3076923076923%{stroke-opacity:1;}100%{stroke-opacity:0;}}@keyframes RdDQdJBh_draw_0{15.384615384615385%{stroke-dashoffset: 1096}53.84615384615385%{ stroke-dashoffset: 0;}100%{ stroke-dashoffset: 0;}}@keyframes RdDQdJBh_draw_1{20.192307692307693%{stroke-dashoffset: 26}58.65384615384615%{ stroke-dashoffset: 0;}100%{ stroke-dashoffset: 0;}}@keyframes RdDQdJBh_draw_2{25%{stroke-dashoffset: 454}63.46153846153846%{ stroke-dashoffset: 0;}100%{ stroke-dashoffset: 0;}}@keyframes RdDQdJBh_draw_3{29.807692307692307%{stroke-dashoffset: 323}68.26923076923077%{ stroke-dashoffset: 0;}100%{ stroke-dashoffset: 0;}}@keyframes RdDQdJBh_draw_4{34.61538461538461%{stroke-dashoffset: 134}73.07692307692307%{ stroke-dashoffset: 0;}100%{ stroke-dashoffset: 0;}}</style></svg>