<svg id="aa49a151-bbd5-40a6-a012-fda19acfe6b2" data-name="Layer 1" xmlns="http://www.w3.org/2000/svg" xmlns:xlink="http://www.w3.org/1999/xlink" viewBox="0 0 269.34 83.41"><defs><style>.b63c82e4-b79e-4756-a917-5404a3f6bf30{fill:none;}.ed923592-8e95-444d-b213-b9458be62f37{clip-path:url(#be5f784d-0ca8-4071-98bd-f818a0fed668);}.a8eecb6b-77ff-42db-8eff-880d4f01fa29{fill:url(#be468028-e691-492e-a877-1c06e7bd41bb);}.b2f9f217-83d7-48e7-8251-fb3a2e1dc11c{clip-path:url(#b30f1427-dc56-45e5-8848-cbbcbfc756b0);}.b2a7ba37-fc67-470a-b431-f40b4207de51{fill:#00d998;}.b22f2ca4-85b2-4c67-8613-7eb812119282{fill:#74e0c1;}.e9ef7869-ee20-4ac2-9df5-b9fa550752c1{fill:#0079c3;}.ec2631e2-6261-4b93-a1f5-e5ef4d2a822f{fill:#0093b5;}.b967c612-f0ac-4984-994a-174d1925b4b4{fill:#58595b;}</style><clipPath id="be5f784d-0ca8-4071-98bd-f818a0fed668"><path class="b63c82e4-b79e-4756-a917-5404a3f6bf30" d="M182.13,4l36,36-36,36.15c12.7,0,11.75-.64,20.92-9.64C208.78,60.82,229.24,40,229.24,40s-24-24.34-28.34-28.6C193.51,4.17,193.26,4,183.41,4Z"/></clipPath><linearGradient id="be468028-e691-492e-a877-1c06e7bd41bb" x1="-4271.05" y1="933.15" x2="-4270" y2="933.15" gradientTransform="matrix(0, -68.96, -68.96, 0, 64557.01, -294461.61)" gradientUnits="userSpaceOnUse"><stop offset="0" stop-color="#0079c3"/><stop offset="0.15" stop-color="#0079c3"/><stop offset="0.24" stop-color="#0090b9"/><stop offset="0.45" stop-color="#00ca9f"/><stop offset="0.49" stop-color="#00d998"/><stop offset="1" stop-color="#00d998"/></linearGradient><clipPath id="b30f1427-dc56-45e5-8848-cbbcbfc756b0"><path class="b63c82e4-b79e-4756-a917-5404a3f6bf30" d="M201.13,3.51,237,39.58,201.13,75.65c17.87,0,21.5-.64,30.68-9.64C237.54,60.38,258,39.58,258,39.58S234,15.23,229.65,11c-7.38-7.25-7.63-7.47-17.49-7.47Z"/></clipPath></defs><g class="ed923592-8e95-444d-b213-b9458be62f37"><rect class="a8eecb6b-77ff-42db-8eff-880d4f01fa29" x="182.13" y="3.95" width="47.1" height="72.13"/></g><g class="b2f9f217-83d7-48e7-8251-fb3a2e1dc11c"><rect class="b2a7ba37-fc67-470a-b431-f40b4207de51" x="217.67" y="20.67" width="47.38" height="18.9"/><rect class="b22f2ca4-85b2-4c67-8613-7eb812119282" x="193.48" y="2.04" width="88.58" height="18.9"/><rect class="e9ef7869-ee20-4ac2-9df5-b9fa550752c1" x="193.48" y="57.25" width="88.58" height="18.9"/><rect class="ec2631e2-6261-4b93-a1f5-e5ef4d2a822f" x="194.65" y="39.43" width="67.47" height="18.14"/></g><rect class="b967c612-f0ac-4984-994a-174d1925b4b4" x="12.34" y="5.7" width="10.07" height="47.59"/><polygon class="b967c612-f0ac-4984-994a-174d1925b4b4" points="43.01 13.18 25.03 13.18 25.03 5.7 71.06 5.7 71.06 13.18 53.08 13.18 53.08 53.29 43.01 53.29 43.01 13.18"/><path class="b967c612-f0ac-4984-994a-174d1925b4b4" d="M108.29,7.74a17.59,17.59,0,0,1,8,5.84,14.91,14.91,0,0,1,2.79,9,15,15,0,0,1-2.79,9,17.45,17.45,0,0,1-8,5.88,33.78,33.78,0,0,1-12.29,2H83.76V53.29H73.68V5.7H96a33.78,33.78,0,0,1,12.29,2m-2.76,21.89a8.08,8.08,0,0,0,3.41-7,8.1,8.1,0,0,0-3.41-7q-3.41-2.44-10-2.44H83.76v18.9H95.54q6.58,0,10-2.45"/><path class="b967c612-f0ac-4984-994a-174d1925b4b4" d="M129.71,52.41a26.88,26.88,0,0,1-9.26-4.15l3.49-6.87a29.12,29.12,0,0,0,8.18,3.78,33.59,33.59,0,0,0,9.72,1.46q6,0,9-1.7c2-1.14,3-2.63,3-4.49a4.13,4.13,0,0,0-1.66-3.37A12.38,12.38,0,0,0,148,35c-1.7-.5-4-1.06-7-1.7a90,90,0,0,1-10-2.58,16.64,16.64,0,0,1-6.58-4,10,10,0,0,1-2.76-7.44,11.64,11.64,0,0,1,2.45-7.18,16.29,16.29,0,0,1,7.36-5.13A33.48,33.48,0,0,1,143.47,5a44.37,44.37,0,0,1,9.76,1.08,29.05,29.05,0,0,1,8.29,3.13l-3.17,6.87a34.43,34.43,0,0,0-7.44-2.79,31.75,31.75,0,0,0-7.52-1c-4,0-6.93.59-8.87,1.77a5.32,5.32,0,0,0-2.91,4.69,4,4,0,0,0,1.67,3.33,12.67,12.67,0,0,0,4.22,2c1.71.5,4,1.06,7,1.7a83.16,83.16,0,0,1,9.92,2.55A17,17,0,0,1,161,32.49a9.87,9.87,0,0,1,2.75,7.34A11.46,11.46,0,0,1,161.33,47a16.43,16.43,0,0,1-7.4,5.1A33.87,33.87,0,0,1,141.84,54a46.91,46.91,0,0,1-12.13-1.56"/><path class="b967c612-f0ac-4984-994a-174d1925b4b4" d="M28.8,65.62A5,5,0,0,1,30,69.29V75.7H27.41V69.63a3.29,3.29,0,0,0-.64-2.21,2.38,2.38,0,0,0-1.87-.74,2.72,2.72,0,0,0-2.11.87A3.54,3.54,0,0,0,22,70V75.7H19.38V69.63a3.24,3.24,0,0,0-.65-2.21,2.35,2.35,0,0,0-1.86-.74,2.7,2.7,0,0,0-2.12.86A3.53,3.53,0,0,0,14,70V75.7H11.35V64.52h2.49V66a3.94,3.94,0,0,1,1.57-1.15,5.19,5.19,0,0,1,2.09-.4,5,5,0,0,1,2.23.47,3.6,3.6,0,0,1,1.53,1.39A4.68,4.68,0,0,1,23,64.89a5.77,5.77,0,0,1,2.41-.49,4.58,4.58,0,0,1,3.35,1.22"/><path class="b967c612-f0ac-4984-994a-174d1925b4b4" d="M41.36,65.58a4.59,4.59,0,0,1,1.31,3.57v6.54H40.2V74.34a3,3,0,0,1-1.37,1.11,5.36,5.36,0,0,1-2.15.39,5.19,5.19,0,0,1-2.19-.43A3.34,3.34,0,0,1,33,74.22a3,3,0,0,1-.51-1.72,2.94,2.94,0,0,1,1.12-2.42,5.55,5.55,0,0,1,3.53-.91h2.88V69a2.29,2.29,0,0,0-.7-1.8,3,3,0,0,0-2.08-.63,5.87,5.87,0,0,0-1.85.3,4.42,4.42,0,0,0-1.54.81l-1-1.9a6.3,6.3,0,0,1,2.11-1,9.62,9.62,0,0,1,2.61-.35,5.44,5.44,0,0,1,3.78,1.18M39,73.49a2.45,2.45,0,0,0,1.08-1.29V70.9h-2.7c-1.5,0-2.26.5-2.26,1.49a1.34,1.34,0,0,0,.57,1.13,2.59,2.59,0,0,0,1.57.42A3.34,3.34,0,0,0,39,73.49"/><path class="b967c612-f0ac-4984-994a-174d1925b4b4" d="M52.37,64.4v2.49a3.57,3.57,0,0,0-.61-.07,3.15,3.15,0,0,0-2.38.89,3.58,3.58,0,0,0-.86,2.57V75.7H45.9V64.52h2.49v1.64c.76-1.18,2.08-1.76,4-1.76"/><polygon class="b967c612-f0ac-4984-994a-174d1925b4b4" points="59.04 70.9 57.09 72.75 57.09 75.69 54.48 75.69 54.48 60.17 57.09 60.17 57.09 69.55 62.51 64.52 65.65 64.52 60.98 69.21 66.09 75.69 62.91 75.69 59.04 70.9"/><path class="b967c612-f0ac-4984-994a-174d1925b4b4" d="M77.77,71H69a3,3,0,0,0,1.2,2,4,4,0,0,0,2.42.72,4,4,0,0,0,3-1.21L77.06,74a4.81,4.81,0,0,1-1.91,1.36,7.54,7.54,0,0,1-5.83-.27,5.28,5.28,0,0,1-2.17-2,6.18,6.18,0,0,1,0-5.9,5.25,5.25,0,0,1,2.06-2,6,6,0,0,1,3-.73,5.88,5.88,0,0,1,2.92.72,5.1,5.1,0,0,1,2,2,6.16,6.16,0,0,1,.72,3c0,.18,0,.44,0,.78M70,67.23a3.17,3.17,0,0,0-1.06,2h6.34a3.07,3.07,0,0,0-1-2,3.11,3.11,0,0,0-2.13-.75,3.17,3.17,0,0,0-2.12.74"/><path class="b967c612-f0ac-4984-994a-174d1925b4b4" d="M87,75.09a3,3,0,0,1-1.12.56,4.81,4.81,0,0,1-1.39.19,4,4,0,0,1-2.84-1,3.7,3.7,0,0,1-1-2.8V66.7H78.83V64.61h1.84V62.06h2.62v2.55h3V66.7h-3V72a1.76,1.76,0,0,0,.4,1.25,1.51,1.51,0,0,0,1.15.43,2.34,2.34,0,0,0,1.46-.46Z"/><path class="b967c612-f0ac-4984-994a-174d1925b4b4" d="M89.18,62.23a1.47,1.47,0,0,1-.48-1.12A1.5,1.5,0,0,1,89.18,60a1.7,1.7,0,0,1,1.2-.45,1.76,1.76,0,0,1,1.19.43,1.4,1.4,0,0,1,.48,1.08,1.61,1.61,0,0,1-1.67,1.63,1.7,1.7,0,0,1-1.2-.45m-.12,2.29h2.61V75.7H89.06Z"/><path class="b967c612-f0ac-4984-994a-174d1925b4b4" d="M104.73,65.63A4.89,4.89,0,0,1,106,69.29v6.4h-2.62V69.63a3.15,3.15,0,0,0-.69-2.21,2.56,2.56,0,0,0-2-.74,3,3,0,0,0-2.28.87,3.45,3.45,0,0,0-.84,2.5v5.64H95V64.52h2.49V66a4,4,0,0,1,1.64-1.17,5.73,5.73,0,0,1,2.21-.4,4.68,4.68,0,0,1,3.39,1.23"/><path class="b967c612-f0ac-4984-994a-174d1925b4b4" d="M120.41,64.52V74q0,5.9-6,5.9a11.23,11.23,0,0,1-3-.41,6.37,6.37,0,0,1-2.39-1.18l1.17-2a5.69,5.69,0,0,0,1.85,1,7.42,7.42,0,0,0,2.27.36,3.78,3.78,0,0,0,2.7-.83,3.4,3.4,0,0,0,.86-2.56v-.58a4.3,4.3,0,0,1-1.63,1.11,5.78,5.78,0,0,1-2.11.37,6,6,0,0,1-2.88-.68,5.11,5.11,0,0,1-2-1.91,5.74,5.74,0,0,1,0-5.64,5,5,0,0,1,2-1.89,6.11,6.11,0,0,1,2.88-.67,5.78,5.78,0,0,1,2.2.4A4.05,4.05,0,0,1,117.92,66V64.52Zm-3.53,7.57a3.06,3.06,0,0,0,1-2.32,3,3,0,0,0-1-2.28,3.87,3.87,0,0,0-4.89,0,3,3,0,0,0-1,2.28,3,3,0,0,0,1,2.32,3.8,3.8,0,0,0,4.89,0"/><polygon class="b63c82e4-b79e-4756-a917-5404a3f6bf30" points="218.13 39.94 199.38 58.81 210.36 59.1 229.26 40.01 218.13 39.94"/></svg>