<svg xmlns="http://www.w3.org/2000/svg" xmlns:xlink="http://www.w3.org/1999/xlink" viewBox="0 0 350.44 65.45"><defs><style>.cls-1{fill:none;stroke-miterlimit:10;stroke:url(#linear-gradient);}.cls-2,.cls-3{fill:#007890;}.cls-3{font-size:18px;font-family:Montserrat-Medium, Montserrat;font-weight:500;}.cls-4{letter-spacing:0em;}.cls-5{letter-spacing:0em;}.cls-6{letter-spacing:-0.01em;}</style><linearGradient id="linear-gradient" x1="107.28" y1="36.47" x2="350.44" y2="36.47" gradientUnits="userSpaceOnUse"><stop offset="0.33" stop-color="#007891"/><stop offset="0.36" stop-color="#0a7e91"/><stop offset="0.49" stop-color="#2f9692"/><stop offset="0.62" stop-color="#4ca893"/><stop offset="0.75" stop-color="#61b594"/><stop offset="0.88" stop-color="#6dbc94"/><stop offset="1" stop-color="#71bf94"/></linearGradient></defs><g id="Capa_2" data-name="Capa 2"><g id="Capa_1-2" data-name="Capa 1"><path class="cls-1" d="M321.46,65H136.27a28.48,28.48,0,0,1-28.49-28.48h0A28.48,28.48,0,0,1,136.27,8H321.46a28.48,28.48,0,0,1,28.48,28.49h0A28.48,28.48,0,0,1,321.46,65Z" transform="translate(0)"/><path class="cls-2" d="M313.79,38.85c0,4.3,0,8.59,0,12.88,0,2.72-1.45,4.17-4.18,4.18q-12.81,0-25.63,0a3.85,3.85,0,0,1-4.19-4.22q0-12.76,0-25.51c0-2.86,1.48-4.29,4.34-4.31.39,0,.77,0,1.15,0,1.09-.11,1.5.32,1.53,1.44A2.47,2.47,0,0,0,289.29,26a2.44,2.44,0,0,0,2.6-2.55c0-1.36.64-1.61,1.82-1.57,2.16.06,4.33.07,6.5,0,1.16,0,1.57.36,1.58,1.53A2.39,2.39,0,0,0,304.66,26a2.36,2.36,0,0,0,2.11-2.6c0-1.19.47-1.62,1.6-1.5.38,0,.76,0,1.15,0,2.8,0,4.26,1.45,4.26,4.23Q313.8,32.48,313.79,38.85Zm-17-8.48c-4.25,0-8.5,0-12.75,0-1,0-1.42.33-1.41,1.39,0,6.54,0,13.09,0,19.63,0,1.47.21,1.67,1.73,1.67q12.42,0,24.86,0c1.52,0,1.71-.18,1.71-1.67,0-6.5,0-13,0-19.51,0-1.18-.43-1.53-1.57-1.52C305.19,30.4,301,30.37,296.78,30.37Z" transform="translate(0)"/><path class="cls-2" d="M287.4,21.88a7.61,7.61,0,0,1,.24-1.9,1.78,1.78,0,0,1,1.71-1.29A1.62,1.62,0,0,1,291.06,20a8.09,8.09,0,0,1,0,4,1.64,1.64,0,0,1-1.82,1.28,1.66,1.66,0,0,1-1.63-1.37A17.11,17.11,0,0,1,287.4,21.88Z" transform="translate(0)"/><path class="cls-2" d="M302.47,21.9c0-.51,0-1,0-1.52a1.74,1.74,0,0,1,1.75-1.7A1.65,1.65,0,0,1,306,20.17a11.3,11.3,0,0,1,0,3.67,1.62,1.62,0,0,1-1.83,1.42,1.65,1.65,0,0,1-1.7-1.58,15.08,15.08,0,0,1,0-1.78Z" transform="translate(0)"/><path class="cls-2" d="M295.18,42.9c.6-1.3,1.09-2.47,1.68-3.59a14,14,0,0,1,4.29-5c.75-.54,1.23-.44,1.53.44a.61.61,0,0,0,.05.12c1.19,2.71,1.2,2.72-.92,4.71a28,28,0,0,0-5.74,7.58c-.42.83-.77,1-1.44.22a9.75,9.75,0,0,0-4-2.66.94.94,0,0,1-.65-1.38,21.39,21.39,0,0,0,.62-2.07c.25-1,.84-1.13,1.72-.78A7.23,7.23,0,0,1,295.18,42.9Z" transform="translate(0)"/><text class="cls-3" transform="translate(151.01 33.5)"><tspan class="cls-4">A</tspan><tspan x="13.09" y="0">ge</tspan><tspan class="cls-5" x="36.52" y="0">n</tspan><tspan x="48.83" y="0">da</tspan><tspan class="cls-5" x="71.87" y="0">m</tspan><tspan x="90.95" y="0">os</tspan><tspan x="0.01" y="18.62">una </tspan><tspan class="cls-6" x="40.06" y="18.62">r</tspan><tspan x="47.22" y="18.62">eunión</tspan></text><path class="cls-2" d="M31.81,45.34c0,3.7,0,7.4,0,11.1a4.21,4.21,0,0,1-3.31,4.17A4.37,4.37,0,0,1,23,56.07v-13c0-1.44-.17-1.62-1.63-1.62-2.83,0-5.66,0-8.49,0-2.14,0-3.22-1-3.64-3.44A6.31,6.31,0,0,1,9.12,37V19a6.86,6.86,0,0,1,2.28-5.44c.62-.55,1.19-.78,1.88-.13.44.42,1.41.42,1.46,1s-.92.6-1.38,1a4,4,0,0,0-1.57,3.2q0,10,0,19.93a.44.44,0,0,0,.44.44c3.22,0,6.43,0,9.65,0s3.48,1.43,3.48,5.63c0,.13.11,7.67.11,9.78,0,.52,0,1,0,1.56.08,1.29.83,2.15,1.86,2.16A2,2,0,0,0,29.25,56c.05-1.7,0-3.4,0-5.11,0-5.14,0-10.29,0-15.44,0-1.06-.35-1.43-1.38-1.35s-2.12,0-3.18,0a.73.73,0,0,1-.54-.23,4,4,0,0,1-.73-3c0-2.16-.1-1.54-4-2.36-1.12-.23-2.27-.35-3.41-.48s-1.76-.54-1.75-1.7c0-2.5,0-5,0-7.5,0-.86.3-1.54,1.27-1.57s1.36.58,1.37,1.46c0,1.82.07,3.63,0,5.44-.05,1,.34,1.38,1.31,1.53,4,.59,8.09,1.25,12.13,1.88.5.08,1.14.26,1.24-.45s-.57-.75-1.06-.83c-3.43-.55-6.87-1.07-10.3-1.64-1.74-.29-1.88-.5-1.88-2.29a25.28,25.28,0,0,1,.1-3.14c1.57-.54,2.34-.1,2.42,1,0,.21,0,.43,0,.65A1.58,1.58,0,0,0,23,22.2c.39-.14.42-.46.42-.79,0-1.09,0-2.18,0-3.26a3.59,3.59,0,0,0-2.08-3.1c-.77-.4-.59-.64,0-1,2-1.12,2.76-.89,3.92,1.14a7.81,7.81,0,0,1,.86,4.19c0,1.08-.44,2.4.2,3.18s2,.55,3.06.77c.82.17,1.65.25,2.47.43a3.33,3.33,0,0,1-.66,6.58,21.7,21.7,0,0,1-3.76-.54c-.53-.08-1.2-.4-1.31.57s.36,1.07,1.09,1.07a7.79,7.79,0,0,1,3.85.52,1.34,1.34,0,0,1,.72,1.2C31.83,37.23,31.81,41.29,31.81,45.34Z" transform="translate(0)"/><path class="cls-2" d="M41.89,45.33c0-3.59,0-7.18,0-10.77,0-2.27,1-3.22,3.32-3.12.5,0,1,0,1.51,0,.76,0,.9-.45.85-1.08s-.55-.63-1-.55c-1.11.18-2.21.45-3.32.53a3.33,3.33,0,0,1-3.66-2.83,3.38,3.38,0,0,1,2.89-3.82c1.39-.27,2.78-.52,4.18-.71.73-.1,1-.44,1-1.15,0-1.19,0-2.39,0-3.58a6.87,6.87,0,0,1,2.64-5.14,1,1,0,0,1,1.23,0c2,1.59,1.43,1.72,1,1.91a4.1,4.1,0,0,0-2.26,4.23c0,.5,0,1,0,1.52s-.31,1.33.34,1.56a3,3,0,0,0,2.1-.34c.54-.23.31-.83.34-1.28,0-.67.06-1.33.81-1.63a1.25,1.25,0,0,1,1.8,1.11,25.85,25.85,0,0,1,0,3.05c0,.89-.72,1.22-1.47,1.35q-3.8.64-7.61,1.23a28.11,28.11,0,0,0-3.42.6c-.43.11-.94.19-.81.79s.56.49,1,.42q6.78-1.08,13.56-2.14a50.47,50.47,0,0,0,.23-6.73c0-1.1.63-1.65,1.53-1.47s1.15.93.89,2a12.73,12.73,0,0,0,0,6.57c.44,1.53-.18,2-1.17,2.18-2.82.44-5.62,1-8.45,1.28a.28.28,0,0,0-.15.5c.65.56.53,1.25.51,1.92-.05,1.81-.66,2.42-2.43,2.43H47.7c-3.27,0-3.27,0-3.27,3.35,0,5.91,0,11.82,0,17.73a6.61,6.61,0,0,0,.11,1.4,1.79,1.79,0,0,0,3.52.09,11.32,11.32,0,0,0,.36-3c0-2.36.1-4.75.1-7,0-5.26-1.15-7.64,2.12-7.69,3,0,6.62,0,9.6,0,1.24,0,1.66-.34,1.66-1.6,0-6.3,0-12.61,0-18.92A3.61,3.61,0,0,0,59.52,15c-.26-.11-.62-.13-.64-.5s.34-.41.59-.54l.49-.23c1.63-.87,1.9-.81,3.11.64a6.84,6.84,0,0,1,1.5,4.55c0,6.08,0,12.15,0,18.22a5.75,5.75,0,0,1-.26,1.75c-.57,1.87-1.54,2.64-3.37,2.64-3.3,0-6.6,0-9.9,0a.29.29,0,0,0-.3.3c0,4.8,0,9.59,0,14.38a4.23,4.23,0,0,1-3.29,4.41,4.45,4.45,0,0,1-5-2,4.1,4.1,0,0,1-.59-2.39Z" transform="translate(0)"/><path class="cls-2" d="M67.62,28.88V17.57c0-2.79,1-5,3.64-6.31,1-.49,1.82-.48,2.22.23a1.32,1.32,0,0,1-.73,2c-2.11,1-2.49,2.79-2.48,4.88,0,7.47,0,14.94,0,22.41,0,3.11-1.71,4.81-4.85,4.82-2.33,0-2.07-.2-2.07,2.13,0,3.08,0,6.16,0,9.24,0,.89.27,1.25,1.18,1.2s2,0,2.94,0,1.67.51,1.64,1.32c0,1-.69,1.31-1.55,1.31q-5.49,0-11,0c-.87,0-1.53-.4-1.49-1.36s.69-1.28,1.57-1.27,2,0,3,0,1-.39,1-2.24,0-5.92,0-8.14c0-1.72.08-2.2-1-2.18-1.38,0-2.75,0-4.13,0-.91,0-1.59-.3-1.66-1.31-.05-.81.58-1.33,1.63-1.33,3.67,0,7.34,0,11,0a1.06,1.06,0,0,0,1-1.06Q67.63,35.37,67.62,28.88Z" transform="translate(0)"/><path class="cls-2" d="M6.08,29c0,3.88,0,7.76,0,11.64,0,1.81.52,2.31,2.35,2.31h9.35c1.35,0,2,.43,2,1.3s-.62,1.34-2,1.35c-1.66,0-3.31,0-5-.06.05,4.23,0,8.46,0,12.68,1.41-.12,2.83-.06,4.25-.06.9,0,1.5.41,1.5,1.34s-.63,1.28-1.45,1.29q-5.54,0-11.09,0c-.89,0-1.49-.45-1.45-1.39s.64-1.24,1.48-1.24c1.09,0,2.17,0,3.26,0s.76-.48.76-2.38,0-6,0-7.91c0-1.72.24-2.32-.78-2.27-.85,0-1.7,0-2.54,0a3.17,3.17,0,0,1-3.41-3.13q0-12.1,0-24.19a9.81,9.81,0,0,0-.19-2.16A3,3,0,0,0,1.79,14a9.55,9.55,0,0,1-1-.67C.14,12.9-.27,12.29.21,11.52s1.24-.74,2-.37a6.44,6.44,0,0,1,3.85,6.28c0,3.84,0,7.69,0,11.53Z" transform="translate(0)"/><path class="cls-2" d="M17.91,0a6.3,6.3,0,0,1,6.48,6.43c0,4.93-5.56,8.61-10.7,5.07a4.61,4.61,0,0,1-1.64-2.08C10.09,4.39,13.29,0,17.91,0ZM18,2.56a3.85,3.85,0,0,0-.05,7.69,3.84,3.84,0,0,0,3.79-3.81A3.9,3.9,0,0,0,18,2.56Z" transform="translate(0)"/><path class="cls-2" d="M55.83,0c4.63,0,7.83,4.49,5.77,9.55a4.4,4.4,0,0,1-1.73,2.08C54.69,15,49.3,11.3,49.31,6.39A6.3,6.3,0,0,1,55.83,0Zm-.1,10.25a3.87,3.87,0,0,0,3.84-3.77A3.8,3.8,0,1,0,52,6.4,3.83,3.83,0,0,0,55.73,10.25Z" transform="translate(0)"/></g></g></svg>