<svg xmlns="http://www.w3.org/2000/svg" xmlns:xlink="http://www.w3.org/1999/xlink" viewBox="0 0 251.47 144.88"><defs><style>.cls-1{fill:none;stroke:#007890;stroke-miterlimit:10;}.cls-2{font-size:28.55px;fill:#007890;font-family:Gotham-Bold, Gotham;font-weight:700;}.cls-3{letter-spacing:-0.01em;}.cls-4{fill:url(#linear-gradient);}.cls-5{fill:url(#linear-gradient-2);}.cls-6{fill:url(#linear-gradient-3);}.cls-7{fill:url(#linear-gradient-4);}.cls-8{fill:url(#linear-gradient-5);}.cls-9{fill:url(#linear-gradient-6);}.cls-10{fill:url(#linear-gradient-7);}.cls-11{fill:url(#linear-gradient-8);}</style><linearGradient id="linear-gradient" x1="-35.59" y1="63.9" x2="1495.98" y2="63.9" gradientUnits="userSpaceOnUse"><stop offset="0.33" stop-color="#00788f"/><stop offset="0.36" stop-color="#0a7e8f"/><stop offset="0.49" stop-color="#2f9590"/><stop offset="0.62" stop-color="#4ca691"/><stop offset="0.75" stop-color="#61b392"/><stop offset="0.88" stop-color="#6dba92"/><stop offset="1" stop-color="#71bd92"/></linearGradient><linearGradient id="linear-gradient-2" x1="-35.59" y1="63.87" x2="1495.98" y2="63.87" xlink:href="#linear-gradient"/><linearGradient id="linear-gradient-3" x1="-4208.13" y1="-475.13" x2="-3269.2" y2="-475.13" gradientTransform="translate(-3924.67 -368.82) rotate(180)" xlink:href="#linear-gradient"/><linearGradient id="linear-gradient-4" x1="-4208.13" y1="-471.72" x2="-3269.2" y2="-471.72" gradientTransform="translate(-3924.67 -368.82) rotate(180)" xlink:href="#linear-gradient"/><linearGradient id="linear-gradient-5" x1="-4208.13" y1="-471.73" x2="-3269.2" y2="-471.73" gradientTransform="translate(-3924.67 -368.82) rotate(180)" xlink:href="#linear-gradient"/><linearGradient id="linear-gradient-6" x1="5677.66" y1="138.58" x2="6616.59" y2="138.58" gradientTransform="translate(-5636.71 -117.87)" xlink:href="#linear-gradient"/><linearGradient id="linear-gradient-7" x1="5677.66" y1="141.99" x2="6616.59" y2="141.99" gradientTransform="translate(-5636.71 -117.87)" xlink:href="#linear-gradient"/><linearGradient id="linear-gradient-8" x1="5677.66" y1="141.97" x2="6616.59" y2="141.97" gradientTransform="translate(-5636.71 -117.87)" xlink:href="#linear-gradient"/></defs><g id="Capa_2" data-name="Capa 2"><g id="Capa_1-2" data-name="Capa 1"><path class="cls-1" d="M59.24.5V136.65H27.73V25.78H.5V.5Z"/><text class="cls-2" transform="translate(69.04 136.4)"><tspan class="cls-3">C</tspan><tspan x="20.79" y="0">ontáctanos</tspan></text><path class="cls-4" d="M73.74,71.18c0-4.93,0-9.87,0-14.8,0-4.41,1.73-5.81,6-5.22a60,60,0,0,0,11.37.57,9.35,9.35,0,0,0,7-3.43c3.82-4.42,7.37-9.08,11.53-13.21,5.41-5.35,11.52-7.23,18.9-4.68,4.89,1.7,9.8,3.47,13.89,6.57,2.84,2.14,5.33,3.63,9.09,3.75,7.19.23,8.32,9.93,5.25,13.77-1.17,1.46-1.37,2.37-.08,4,3.05,3.94,2,10.44-2,13.52a1.48,1.48,0,0,0-.5,2.24c2.38,4.78-.05,12.15-6.11,12.87-.89.1-1.21.57-1.25,1.56-.17,5.12-2.87,8.2-7.91,8.66-12.71,1.17-25.43,2-38.09-.51a20,20,0,0,1-9.36-4.15,4.78,4.78,0,0,0-3.34-1.07q-4.65.07-9.3.1c-3.49,0-5.08-1.44-5.12-4.94C73.7,81.61,73.74,76.39,73.74,71.18Zm51.65-5.34c-1.12,1.1-2.13,2.15-3.21,3.13a24.36,24.36,0,0,1-11.45,6c-.54.12-1.22.36-1.53-.26s.38-1,.81-1.26c1.42-.92,2.89-1.77,4.32-2.67a31,31,0,0,0,10.76-10.55c1.75-3,1.54-7.92-.61-10.65a9.78,9.78,0,0,1-2.12-7.31c.07-.68,0-1.58,1-1.63s.85.82,1.09,1.38c.71,1.72,1.08,3.61,2.56,5.13.48-.88.84-1.63,1.27-2.34a7.16,7.16,0,0,1,6-3.68c.67,0,1.6-.27,1.9.5.38,1-.64,1.34-1.27,1.64-3.47,1.66-5,4.5-5.4,8.22a26.15,26.15,0,0,0,.5,8.6,6.51,6.51,0,0,0,1.91,3.47c2.25,2.05,4.8,1.39,5.43-1.47a39.32,39.32,0,0,1,4.09-10.83,17,17,0,0,0,2.09-5c.6-3-.1-5-2.63-6.52a55.84,55.84,0,0,0-16-6.88,11.35,11.35,0,0,0-8.56,1.26,27.37,27.37,0,0,0-7,6c-3.46,4-6.69,8.19-10.41,12a8.09,8.09,0,0,1-4.57,2.44,48.08,48.08,0,0,1-14.52-.1c-2.17-.32-2.64.41-2.62,2.43.08,8.67,0,17.34,0,26,.06,5.85-1.44,6.07,5.94,5.41,4.37-.4,8.59-.25,12.08,3a9.11,9.11,0,0,0,4,1.78,51.86,51.86,0,0,0,9.57,1.61,193,193,0,0,0,20.61.12c-2.76-1.41-4.89-2.62-6.52-4.52A7.74,7.74,0,0,1,123,79.94a2,2,0,0,0,.36-2.25c-.77-2.76-.84-5.63,1.31-7.72C126.06,68.61,126.15,67.52,125.39,65.84Zm5.85,5.51c-2.17.21-4.31-.39-4.84,2.19-.62,3,.24,4.57,3.15,5.53,4.41,1.45,8.85,2.82,13.29,4.16a15.73,15.73,0,0,0,3.52.66,4.5,4.5,0,0,0,4.92-2.84,6.29,6.29,0,0,0-.81-6.57,2.43,2.43,0,0,0-1.65-.87ZM129,65.42c0,1.78.65,2.37,2,2.53,5.58.67,11.21,1.13,16.73,2.17,6.2,1.17,8.18-3.76,6.87-8.48A3.62,3.62,0,0,0,151,58.72c-2,0-3.94,0-5.91,0-3.41.07-3.49.14-4.27,3.36-.19.82-.36,1.65-.6,2.46-.74,2.48-2,3.44-4.62,3.47A8.8,8.8,0,0,1,129,65.42Zm9.13,28.69c.93-.06,1.43,0,1.91-.12,1.72-.32,3.31-2.35,3.47-4.33.12-1.57-.33-2.77-2-3.29-4.44-1.37-8.86-2.79-13.31-4.13-1.07-.33-2.27-.58-3.17.41a3.76,3.76,0,0,0-.59,3.79,4.91,4.91,0,0,0,1.6,2.44A25.47,25.47,0,0,0,138.13,94.11Zm11.4-50.26c-.62.25-2.11-.43-2.29.83a27.63,27.63,0,0,1-3.75,9.76c-.36.64-.26,1.19.59,1.05,2.42-.38,4.93,0,7.3-.74,2.71-.88,4-3.45,3.5-6.83C154.43,44.9,153.16,43.89,149.53,43.85Z"/><path class="cls-5" d="M250.68,71.23c0,5.08,0,10.15,0,15.23,0,3.91-1.5,5.34-5.39,5.3-1.34,0-2.69,0-4-.07-4.08-.31-7.79.11-11.26,2.89-2.82,2.27-6.69,2.5-10.24,3-12,1.65-24,.87-36-.37-3.17-.33-6.16-4.26-6.2-8.09,0-1.22-.27-1.72-1.49-2-5.59-1.42-8.27-7-6-12.42.58-1.38.4-2-.76-2.89-3.85-3.08-4.43-9.93-1.21-13.79.85-1,.93-1.61.1-2.65a9,9,0,0,1-2-7.3c.95-5.64,4.21-8.23,9.9-7.53a3.15,3.15,0,0,0,3.2-1.28c3.11-3.57,7.57-5.06,11.7-7a33.19,33.19,0,0,1,9.47-2.88c5.51-.75,9.86,1.65,13.74,5.2,4.39,4,7.93,8.79,11.73,13.31a10.34,10.34,0,0,0,8.24,3.89,63.68,63.68,0,0,0,11-.69c3.6-.53,5.52,1,5.56,4.73C250.72,61,250.68,66.09,250.68,71.23ZM195.06,94.88c8.51.12,16.44.49,24.35-.62,4.52-.63,8.83-1.69,12.45-4.73a6.89,6.89,0,0,1,4.8-1.32c2.81.09,5.63.2,8.44.34,1.38.07,2.12-.41,2.12-1.9q0-15.33,0-30.66c0-1.26-.43-1.78-1.78-1.59-2.93.39-5.9.4-8.85.64-6.27.51-11.14-1.64-14.68-6.84a2.91,2.91,0,0,0-.26-.33c-3.63-4-6.68-8.56-10.95-12-3.71-3-7.71-4.12-12.42-2.73a64.13,64.13,0,0,0-13.74,5.94c-3.88,2.23-4.77,4.59-3.18,8.82a27.89,27.89,0,0,0,1.71,3.63A37.83,37.83,0,0,1,187,62c.67,3,3.14,3.72,5.5,1.61a6.36,6.36,0,0,0,1.9-3.48,26.25,26.25,0,0,0,.52-8.39c-.38-3.78-1.88-6.75-5.48-8.39a3.18,3.18,0,0,1-.7-.47c-.34-.26-.73-.55-.61-1s.69-.63,1.19-.65a7.28,7.28,0,0,1,6.88,3.72c.43.71.79,1.46,1.26,2.32a15.54,15.54,0,0,0,2.5-5c.24-.62.3-1.63,1.19-1.51s.84,1.15.92,1.9a9.42,9.42,0,0,1-2.31,7.24,4.47,4.47,0,0,0-1.48,2.49c-.24,3.71-.12,7.25,2.55,10.33a33.85,33.85,0,0,0,6.17,6c2.33,1.59,4.74,3,7.09,4.6.53.36,1.52.64,1.07,1.51-.32.64-1.14.29-1.74.15a24.15,24.15,0,0,1-11.23-6c-1.07-1-2.05-2-3.42-3.41.08,1.54-1.08,2.61.11,3.58,3,2.43,3,5.54,2.1,8.84a1.72,1.72,0,0,0,.32,1.88c3,3.44,2.83,7.68-.28,11C199.49,92.48,197.49,93.49,195.06,94.88ZM177.74,83.93a5.19,5.19,0,0,0,.91-.05,122.86,122.86,0,0,0,17.53-5.39c1.85-.7,2.41-2.71,1.83-5.11-.46-1.9-2-1.95-3.5-1.95a25.53,25.53,0,0,0-3.16.15c-4.82.62-9.63,1.28-14.44,1.91-3,.39-4.57,2.23-4.35,5.27S174.75,83.9,177.74,83.93Zm17.69-18.35c-.74.52-1.33,1-2,1.37-4.54,2.67-8.32,1.11-9.57-3.93-.15-.61-.36-1.22-.45-1.84a2.52,2.52,0,0,0-2.88-2.41c-2,0-4.08-.12-6.12-.09-3.72,0-5.14,1.86-5,6.2.14,3.48,2.39,5.77,5.63,5.4,6.15-.69,12.28-1.59,18.42-2.34C194.94,67.76,195.47,67.07,195.43,65.58Zm-8.91,28.47A25,25,0,0,0,198.29,89a5.39,5.39,0,0,0,1.28-1.66,3.94,3.94,0,0,0,0-4.4c-.95-1.39-2.4-1-3.67-.56-4.18,1.25-8.34,2.57-12.51,3.88-2.14.67-2.81,1.79-2.41,4C181.43,92.56,183.3,94.08,186.52,94.05Zm-11.4-50.21c-1.94.08-3.64,0-4.58,1.46A7.09,7.09,0,0,0,170,52c.87,2.15,2.66,3,4.83,3.18,1.53.13,3.07.22,4.61.32.55,0,1.25.31,1.61-.16s-.17-1-.44-1.51c-1.35-2.39-2.72-4.82-3.05-7.57C177.31,44.33,176.61,43.53,175.12,43.84Z"/><path class="cls-6" d="M163.26,106.47c0,1.94,0,3.88,0,5.83,0,.75,0,1.63-1,1.65s-1.09-.91-1.09-1.71q0-5.88,0-11.78a4.43,4.43,0,0,1,0-.52c.06-.64.23-1.26,1-1.28s1.07.64,1.08,1.33c0,2.16,0,4.32,0,6.48Z"/><path class="cls-7" d="M147.12,108.62a2.22,2.22,0,0,1,.48-1.26q3.24-5.06,6.51-10.1c.38-.59.81-1.26,1.64-.71s.44,1.18.05,1.8l-6.67,10.31c-.32.49-.68.93-1.35.75A.9.9,0,0,1,147.12,108.62Z"/><path class="cls-8" d="M168.2,97.53a1,1,0,0,1,.57-1.06.77.77,0,0,1,1,.12,3.81,3.81,0,0,1,.64.8q3.16,4.88,6.31,9.77a5.14,5.14,0,0,1,.57,1.15.86.86,0,0,1-.4,1,.85.85,0,0,1-1.08-.08,2.91,2.91,0,0,1-.57-.69q-3.27-5-6.52-10.09C168.48,98.13,168.33,97.77,168.2,97.53Z"/><path class="cls-9" d="M161.15,20.55c0-1.94,0-3.88,0-5.83,0-.75,0-1.63,1-1.65s1.09.91,1.1,1.7c0,3.93,0,7.86,0,11.79,0,.17,0,.35,0,.52-.07.64-.24,1.26-1,1.28s-1.07-.64-1.08-1.33c0-2.16,0-4.32,0-6.48Z"/><path class="cls-10" d="M177.29,18.4a2.14,2.14,0,0,1-.47,1.26q-3.25,5.06-6.52,10.1c-.38.59-.81,1.26-1.64.71s-.44-1.18,0-1.8l6.66-10.31c.32-.49.68-.93,1.36-.75A.9.9,0,0,1,177.29,18.4Z"/><path class="cls-11" d="M156.21,29.49a1,1,0,0,1-.57,1.06.78.78,0,0,1-1-.12,4.59,4.59,0,0,1-.64-.8q-3.16-4.87-6.3-9.77a4.93,4.93,0,0,1-.57-1.15.83.83,0,0,1,.4-1,.85.85,0,0,1,1.08.08,3.18,3.18,0,0,1,.57.69c2.17,3.36,4.35,6.72,6.51,10.09A8.34,8.34,0,0,1,156.21,29.49Z"/></g></g></svg>