<svg xmlns="http://www.w3.org/2000/svg" xmlns:xlink="http://www.w3.org/1999/xlink" viewBox="0 0 251.99 146.65"><defs><style>.b1010eac-aaf3-4bb2-b939-11196a436ea2{fill:url(#aab1ac7e-23ab-440e-9485-cae9cac6fb2e);}.a5e5ebc1-e6b3-43c4-bc81-840aa0109487{fill:url(#a6237549-d6ac-45f9-88a3-5141eb533071);}.b4c794bc-de24-4979-89ea-5061cae99f40{fill:url(#a08bc994-bb51-4e6d-a661-48d9a23eff39);}.f09825ae-85ae-47f5-80c4-9bb7c50c8eb7{fill:url(#ad9fcab7-89ba-4f7d-b608-2b5e293fd481);}.a2e44255-35b2-43b3-a4b9-90b93a3f4982{fill:url(#a1eae61d-e932-453f-8c17-e9daf4d6a815);}.ff3081b5-e895-44b4-90ff-a5fa7ce8f741{fill:url(#a572cab9-c299-4c46-92f2-7c5fd37d3d09);}.b09cca3d-098b-4cb0-9c54-da7e4071940e{fill:url(#a452aa84-d803-48ac-b85a-19a13f2037da);}.a37862b4-7a63-479e-9eeb-4cbebb285d21{fill:url(#bb88f59f-a855-4860-a94b-f55d406178fe);}.bd78b103-fe7f-44c0-90b7-ef9f1196f115{fill:url(#fd985fa8-f202-4126-9435-9054189ed122);}.b9199f78-5ea5-4bba-9c98-f5fd4b482936{fill:url(#e8420c7d-6e9f-4b51-9cfa-1b5cc4d8190f);}.b23ac7ac-9135-4f0b-b611-ec449e57c3ef{fill:url(#b664598a-0b40-441d-bd49-48d7fa78df40);}.abb548d0-5450-42ba-9fdb-17026eaf4d65{fill:url(#fea94f5d-ef1c-407c-a8a1-c9082cef6866);}</style><linearGradient id="aab1ac7e-23ab-440e-9485-cae9cac6fb2e" x1="-421.61" y1="70.8" x2="669.51" y2="70.8" gradientUnits="userSpaceOnUse"><stop offset="0.09" stop-color="#08788f"/><stop offset="0.33" stop-color="#08788f"/></linearGradient><linearGradient id="a6237549-d6ac-45f9-88a3-5141eb533071" x1="-307.68" y1="125.26" x2="548.27" y2="125.26" xlink:href="#aab1ac7e-23ab-440e-9485-cae9cac6fb2e"/><linearGradient id="a08bc994-bb51-4e6d-a661-48d9a23eff39" x1="-307.68" y1="127.16" x2="548.27" y2="127.16" xlink:href="#aab1ac7e-23ab-440e-9485-cae9cac6fb2e"/><linearGradient id="ad9fcab7-89ba-4f7d-b608-2b5e293fd481" x1="-307.68" y1="127.26" x2="548.27" y2="127.26" xlink:href="#aab1ac7e-23ab-440e-9485-cae9cac6fb2e"/><linearGradient id="a1eae61d-e932-453f-8c17-e9daf4d6a815" x1="-307.68" y1="129.56" x2="548.27" y2="129.56" xlink:href="#aab1ac7e-23ab-440e-9485-cae9cac6fb2e"/><linearGradient id="a572cab9-c299-4c46-92f2-7c5fd37d3d09" x1="-307.68" y1="127.36" x2="548.27" y2="127.36" xlink:href="#aab1ac7e-23ab-440e-9485-cae9cac6fb2e"/><linearGradient id="a452aa84-d803-48ac-b85a-19a13f2037da" x1="-307.68" y1="125.89" x2="548.27" y2="125.89" xlink:href="#aab1ac7e-23ab-440e-9485-cae9cac6fb2e"/><linearGradient id="bb88f59f-a855-4860-a94b-f55d406178fe" x1="-307.68" y1="64.91" x2="548.27" y2="64.91" xlink:href="#aab1ac7e-23ab-440e-9485-cae9cac6fb2e"/><linearGradient id="fd985fa8-f202-4126-9435-9054189ed122" x1="-307.68" y1="43.16" x2="548.27" y2="43.16" xlink:href="#aab1ac7e-23ab-440e-9485-cae9cac6fb2e"/><linearGradient id="e8420c7d-6e9f-4b51-9cfa-1b5cc4d8190f" x1="-307.68" y1="67.89" x2="548.27" y2="67.89" xlink:href="#aab1ac7e-23ab-440e-9485-cae9cac6fb2e"/><linearGradient id="b664598a-0b40-441d-bd49-48d7fa78df40" x1="-307.68" y1="94.15" x2="548.27" y2="94.15" xlink:href="#aab1ac7e-23ab-440e-9485-cae9cac6fb2e"/><linearGradient id="fea94f5d-ef1c-407c-a8a1-c9082cef6866" x1="-307.68" y1="77.74" x2="548.27" y2="77.74" xlink:href="#aab1ac7e-23ab-440e-9485-cae9cac6fb2e"/></defs><g id="b676d6fb-ecec-4e09-b67f-04d459aa0ed7" data-name="Layer 2"><path class="b1010eac-aaf3-4bb2-b939-11196a436ea2" d="M107,110.36v23.31H13.58V115.13l47.68-45q7.59-7.23,10.25-12.45a22.69,22.69,0,0,0,2.65-10.33q0-7.41-5-11.39T54.37,32A33.83,33.83,0,0,0,39.72,35a28,28,0,0,0-10.95,9.27L7.93,30.89A48.88,48.88,0,0,1,27.88,14Q40.6,7.93,57,7.93q13.78,0,24.11,4.5A37.05,37.05,0,0,1,97.2,25.15a32.85,32.85,0,0,1,5.74,19.33,43,43,0,0,1-4.24,18.9q-4.23,8.83-16.42,20.14L53.84,110.36Z"/><path class="a5e5ebc1-e6b3-43c4-bc81-840aa0109487" d="M125.85,117.36a5.91,5.91,0,0,1,2.61,2.17,6.52,6.52,0,0,1,0,6.68,5.87,5.87,0,0,1-2.61,2.18,9.81,9.81,0,0,1-4,.75h-3.49v4.78h-4V116.59h7.5A9.49,9.49,0,0,1,125.85,117.36Zm-1.47,7.73a2.72,2.72,0,0,0,.94-2.21,2.76,2.76,0,0,0-.94-2.24,4.23,4.23,0,0,0-2.75-.78h-3.27v6h3.27A4.23,4.23,0,0,0,124.38,125.09Z"/><path class="b4c794bc-de24-4979-89ea-5061cae99f40" d="M137.51,120.9a7,7,0,0,1,2.72-.5V124c-.43,0-.72,0-.87,0a3.54,3.54,0,0,0-2.6.93,3.73,3.73,0,0,0-.94,2.78v6.29H132V120.6h3.69v1.76A4.32,4.32,0,0,1,137.51,120.9Z"/><path class="f09825ae-85ae-47f5-80c4-9bb7c50c8eb7" d="M145,133.24a6.47,6.47,0,0,1-2.61-2.44,7.14,7.14,0,0,1,0-7.08,6.54,6.54,0,0,1,2.61-2.44,8.52,8.52,0,0,1,7.54,0,6.58,6.58,0,0,1,2.6,2.44,7.14,7.14,0,0,1,0,7.08,6.51,6.51,0,0,1-2.6,2.44,8.52,8.52,0,0,1-7.54,0Zm6.21-3.29a4.25,4.25,0,0,0,0-5.38,3.22,3.22,0,0,0-2.43-1,3.32,3.32,0,0,0-2.46,1,4.25,4.25,0,0,0,0,5.38,3.28,3.28,0,0,0,2.46,1A3.18,3.18,0,0,0,151.18,130Z"/><path class="a2e44255-35b2-43b3-a4b9-90b93a3f4982" d="M169.88,121.26a6.13,6.13,0,0,1,2.39,2.4,7.88,7.88,0,0,1,0,7.2,6.09,6.09,0,0,1-2.39,2.41,6.76,6.76,0,0,1-3.38.85,5.15,5.15,0,0,1-4-1.61v6.22h-3.86V120.6h3.69v1.53a5.12,5.12,0,0,1,4.18-1.73A6.77,6.77,0,0,1,169.88,121.26ZM168.27,130a4.25,4.25,0,0,0,0-5.38,3.48,3.48,0,0,0-4.88,0,4.28,4.28,0,0,0,0,5.38,3.48,3.48,0,0,0,4.88,0Z"/><path class="ff3081b5-e895-44b4-90ff-a5fa7ce8f741" d="M189.14,120.6v13.32h-3.67v-1.58a5,5,0,0,1-1.83,1.32,6.32,6.32,0,0,1-6.47-1,6,6,0,0,1-1.53-4.48V120.6h3.86v7c0,2.14.9,3.22,2.7,3.22a2.87,2.87,0,0,0,2.23-.91,3.79,3.79,0,0,0,.84-2.68V120.6Z"/><path class="f09825ae-85ae-47f5-80c4-9bb7c50c8eb7" d="M205.7,128.35H195.62a3.2,3.2,0,0,0,1.29,2,4.27,4.27,0,0,0,2.53.72,5.21,5.21,0,0,0,1.84-.31,4.57,4.57,0,0,0,1.5-1l2.06,2.23a6.94,6.94,0,0,1-5.5,2.15,8.68,8.68,0,0,1-4-.88,6.44,6.44,0,0,1-2.67-2.44,6.69,6.69,0,0,1-.94-3.54,6.82,6.82,0,0,1,.93-3.53,6.4,6.4,0,0,1,2.55-2.45,7.9,7.9,0,0,1,7.17,0,6.14,6.14,0,0,1,2.48,2.42,7.11,7.11,0,0,1,.91,3.65S205.75,127.71,205.7,128.35Zm-9-4.28a3.14,3.14,0,0,0-1.08,2h6.56a3.21,3.21,0,0,0-1.09-2,3.29,3.29,0,0,0-2.18-.76A3.32,3.32,0,0,0,196.66,124.07Z"/><path class="f09825ae-85ae-47f5-80c4-9bb7c50c8eb7" d="M209.59,133.71a8.18,8.18,0,0,1-2.52-1l1.28-2.77a8.27,8.27,0,0,0,2.16.93,9,9,0,0,0,2.48.36c1.63,0,2.45-.41,2.45-1.21a.87.87,0,0,0-.67-.82,9.3,9.3,0,0,0-2.06-.42,21.39,21.39,0,0,1-2.7-.57,4.27,4.27,0,0,1-1.84-1.14,3.25,3.25,0,0,1-.78-2.33,3.62,3.62,0,0,1,.73-2.24,4.72,4.72,0,0,1,2.13-1.52,8.91,8.91,0,0,1,3.3-.55,12.82,12.82,0,0,1,2.82.31,7.75,7.75,0,0,1,2.31.86l-1.29,2.74a7.68,7.68,0,0,0-3.84-1,3.89,3.89,0,0,0-1.85.35,1,1,0,0,0-.62.89.89.89,0,0,0,.67.87,12.19,12.19,0,0,0,2.13.47,21.56,21.56,0,0,1,2.67.58,4,4,0,0,1,1.81,1.13,3.19,3.19,0,0,1,.77,2.28,3.49,3.49,0,0,1-.75,2.2,4.76,4.76,0,0,1-2.16,1.5,9.79,9.79,0,0,1-3.38.53A13.1,13.1,0,0,1,209.59,133.71Z"/><path class="b09cca3d-098b-4cb0-9c54-da7e4071940e" d="M230.1,133.28a4,4,0,0,1-1.4.63,7.17,7.17,0,0,1-1.75.21,5.2,5.2,0,0,1-3.68-1.21,4.68,4.68,0,0,1-1.3-3.57v-5.47h-2.05v-3H222v-3.25h3.87v3.25h3.32v3h-3.32v5.42a1.81,1.81,0,0,0,.43,1.3,1.6,1.6,0,0,0,1.23.46,2.43,2.43,0,0,0,1.56-.5Z"/><path class="f09825ae-85ae-47f5-80c4-9bb7c50c8eb7" d="M242.4,121.87a5.65,5.65,0,0,1,1.66,4.45v7.6h-3.61v-1.66c-.73,1.24-2.08,1.86-4.06,1.86a6.3,6.3,0,0,1-2.67-.52,4,4,0,0,1-1.72-1.44,3.77,3.77,0,0,1-.59-2.08,3.46,3.46,0,0,1,1.4-2.92,7.12,7.12,0,0,1,4.32-1.06h3.07a2.49,2.49,0,0,0-.77-1.95,3.4,3.4,0,0,0-2.3-.68,6.49,6.49,0,0,0-2.09.34,5.45,5.45,0,0,0-1.75.9L231.9,122a8.43,8.43,0,0,1,2.62-1.19,11.7,11.7,0,0,1,3.13-.42A6.93,6.93,0,0,1,242.4,121.87Zm-3.29,9.19a2.46,2.46,0,0,0,1.09-1.35v-1.36h-2.65c-1.58,0-2.38.52-2.38,1.56a1.39,1.39,0,0,0,.59,1.18,2.59,2.59,0,0,0,1.59.43A3.33,3.33,0,0,0,239.11,131.06Z"/><path class="a37862b4-7a63-479e-9eeb-4cbebb285d21" d="M185.82,64h-4.17V59.81a.93.93,0,0,0-1.86,0V64h-4.16a.93.93,0,1,0,0,1.86h4.16V70a.93.93,0,0,0,1.86,0V65.84h4.17a.93.93,0,1,0,0-1.86Z"/><path class="bd78b103-fe7f-44c0-90b7-ef9f1196f115" d="M142.34,42.63H140V40.29a.53.53,0,0,0-.53-.52.52.52,0,0,0-.52.52v2.34h-2.34a.52.52,0,0,0-.52.53.52.52,0,0,0,.52.52H139V46a.52.52,0,0,0,.52.52A.52.52,0,0,0,140,46V43.68h2.33a.52.52,0,0,0,.53-.52A.53.53,0,0,0,142.34,42.63Z"/><path class="b9199f78-5ea5-4bba-9c98-f5fd4b482936" d="M123.13,67.08h-3.61V63.47a.81.81,0,0,0-1.61,0v3.61H114.3a.81.81,0,0,0,0,1.62h3.61v3.61a.81.81,0,1,0,1.61,0V68.7h3.61a.81.81,0,0,0,0-1.62Z"/><path class="b23ac7ac-9135-4f0b-b611-ec449e57c3ef" d="M170.29,93.49h-3v-3a.67.67,0,1,0-1.33,0v3h-3a.67.67,0,1,0,0,1.33h3v3a.67.67,0,1,0,1.33,0v-3h3a.67.67,0,1,0,0-1.33Z"/><path class="abb548d0-5450-42ba-9fdb-17026eaf4d65" d="M166.28,79a20,20,0,0,0-.62-22.28c-.23-.32-.48-.63-.74-.94l-.33-.39a20.05,20.05,0,0,0-30.89.17l-.21.26c-.26.31-.5.62-.73.94a19.8,19.8,0,0,0-.51,22.09l9,14.59v1.79h-1.06a1,1,0,1,0,0,2.08h1.06v1.3h-1.06a1,1,0,1,0,0,2.08h1.18a7.94,7.94,0,0,0,7.79,6.55h.14a7.93,7.93,0,0,0,7.79-6.55h1.28a1,1,0,0,0,0-2.08h-1.15v-1.3h1.15a1,1,0,0,0,0-2.08h-1.15V93.7ZM147.41,92.08l-2.92-22.54a3.17,3.17,0,0,0,2.7-.73,3.1,3.1,0,0,0,4.16,0,3.18,3.18,0,0,0,2.8.71l-2.23,22.56ZM134.45,58c.2-.28.42-.56.64-.84l.22-.27A18,18,0,0,1,163,56.74l.33.4q.34.4.66.84a17.94,17.94,0,0,1,.52,20l-8.74,14.15H154l2.48-25a4.07,4.07,0,0,0,0-.61,1,1,0,0,0-1-1,1,1,0,0,0-1.09.93l0,.45a1,1,0,0,1-1,.76,1,1,0,0,1-1-1,1,1,0,0,0-2.08,0,1,1,0,1,1-2.08,0,1,1,0,1,0-2.08,0,1,1,0,0,1-2,.31l-.06-.51a1,1,0,0,0-1.1-.87,1.07,1.07,0,0,0-1,1.07,3,3,0,0,0,.1.79l3.21,24.8h-2.48L134,77.78A17.73,17.73,0,0,1,134.45,58Zm14.84,47.18h-.14a5.85,5.85,0,0,1-5.67-4.47H155A5.83,5.83,0,0,1,149.29,105.18Zm5.84-6.55H143.31v-1.3h11.82Zm-11.82-3.38v-1h11.82v1Z"/></g></svg>