<svg xmlns="http://www.w3.org/2000/svg" xmlns:xlink="http://www.w3.org/1999/xlink" viewBox="0 0 239.66 141.86"><defs><style>.eb2c3c64-143e-4243-9dae-14bc2262740d{fill:url(#beafd61e-c59f-4797-a600-f401d0046091);}.a2067156-bcb4-4e0e-a480-ee13f52b589a{fill:url(#adb74625-3f39-4061-a83b-bb7a38977e0a);}.bae81413-85ca-4369-8f6a-33cb9fdaed6f{fill:url(#b1d71956-eac1-4b7d-ba2e-4844a87ae53d);}.beb83aee-7ba6-4970-b998-2461aeebb21c{fill:url(#e40f048d-7253-4dfd-afe9-ed404aa85032);}.e9f87340-ed98-4801-9023-4351e83eec32{fill:url(#af001ced-49f1-4f45-bbbe-63b583820768);}.ac92c888-a287-4d57-a516-800cc8a898e3{fill:url(#f3418095-1e2d-4c63-a74b-3fbaaef8692b);}.af837c14-da8f-4d10-bd20-fb4b894a0027{fill:url(#fcd54b34-46e1-43b8-bf37-3b1acdeb9b82);}.a1094836-8735-4989-9701-c7a6a979de21{fill:url(#a26343ab-1edc-4e0e-ada2-6c365aa3f62e);}.aac4acec-43a9-45cf-97a9-66267fbb1374{fill:url(#b7057831-8aee-4cad-8acc-7b10a1a79b41);}.a7d5bd7a-d696-499e-ba45-b127c17232d6{fill:url(#a8b8b0cf-8a31-4c17-a8fc-30dadc9cc716);}.aa6eae8b-935a-49e4-8960-8819229fefb1{fill:url(#fa02f50e-e976-4625-a1c7-c04691106410);}.b8d7b3ea-f07b-49f5-a4a0-d27ad1e6ad22{fill:url(#ac2f2307-853e-492f-ae24-337df93ab475);}</style><linearGradient id="beafd61e-c59f-4797-a600-f401d0046091" x1="10.57" y1="70.93" x2="109.15" y2="70.93" gradientUnits="userSpaceOnUse"><stop offset="0.09" stop-color="#08788f"/><stop offset="0.33" stop-color="#08788f"/></linearGradient><linearGradient id="adb74625-3f39-4061-a83b-bb7a38977e0a" x1="120.33" y1="123.85" x2="132.11" y2="123.85" xlink:href="#beafd61e-c59f-4797-a600-f401d0046091"/><linearGradient id="b1d71956-eac1-4b7d-ba2e-4844a87ae53d" x1="140.41" y1="123.85" x2="159.35" y2="123.85" xlink:href="#beafd61e-c59f-4797-a600-f401d0046091"/><linearGradient id="e40f048d-7253-4dfd-afe9-ed404aa85032" x1="158.54" y1="125.86" x2="172.58" y2="125.86" xlink:href="#beafd61e-c59f-4797-a600-f401d0046091"/><linearGradient id="af001ced-49f1-4f45-bbbe-63b583820768" x1="175.15" y1="125.76" x2="188.77" y2="125.76" xlink:href="#beafd61e-c59f-4797-a600-f401d0046091"/><linearGradient id="f3418095-1e2d-4c63-a74b-3fbaaef8692b" x1="190.68" y1="124.49" x2="200.86" y2="124.49" xlink:href="#beafd61e-c59f-4797-a600-f401d0046091"/><linearGradient id="fcd54b34-46e1-43b8-bf37-3b1acdeb9b82" x1="202.17" y1="125.86" x2="214.83" y2="125.86" xlink:href="#beafd61e-c59f-4797-a600-f401d0046091"/><linearGradient id="a26343ab-1edc-4e0e-ada2-6c365aa3f62e" x1="217.03" y1="125.86" x2="229.09" y2="125.86" xlink:href="#beafd61e-c59f-4797-a600-f401d0046091"/><linearGradient id="b7057831-8aee-4cad-8acc-7b10a1a79b41" x1="122.72" y1="52.95" x2="178.92" y2="52.95" xlink:href="#beafd61e-c59f-4797-a600-f401d0046091"/><linearGradient id="a8b8b0cf-8a31-4c17-a8fc-30dadc9cc716" x1="123.83" y1="95.26" x2="139.05" y2="95.26" xlink:href="#beafd61e-c59f-4797-a600-f401d0046091"/><linearGradient id="fa02f50e-e976-4625-a1c7-c04691106410" x1="142.51" y1="90.63" x2="157.72" y2="90.63" xlink:href="#beafd61e-c59f-4797-a600-f401d0046091"/><linearGradient id="ac2f2307-853e-492f-ae24-337df93ab475" x1="163.02" y1="85.08" x2="178.24" y2="85.08" xlink:href="#beafd61e-c59f-4797-a600-f401d0046091"/></defs><g id="f387b019-138d-40d2-8dd6-f63e05fe7f84" data-name="Layer 2"><path class="eb2c3c64-143e-4243-9dae-14bc2262740d" d="M100.47,70.49q8.67,9.47,8.68,23.45a37,37,0,0,1-5.67,19.91q-5.67,9.12-17.25,14.6t-28.41,5.48a97.49,97.49,0,0,1-25.75-3.45,66.21,66.21,0,0,1-21.5-9.82L21.72,98.72A54,54,0,0,0,38.09,107a63.24,63.24,0,0,0,19,2.92q10.8,0,17-4.16a13.37,13.37,0,0,0,6.2-11.77q0-15.22-23.19-15.22H44V59.78L69.5,30.93H16.76v-23h86.72V26.51l-28,31.86Q91.8,61,100.47,70.49Z"/><path class="a2067156-bcb4-4e0e-a480-ee13f52b589a" d="M132.11,125.36H127.8v4.21h-3.19v-4.21h-4.28v-3h4.28v-4.21h3.19v4.21h4.31Z"/><path class="bae81413-85ca-4369-8f6a-33cb9fdaed6f" d="M159.35,115.19l-7.5,17.33h-4l-7.48-17.33h4.33L150,127.57l5.35-12.38Z"/><path class="beb83aee-7ba6-4970-b998-2461aeebb21c" d="M172.5,127H162.43a3.15,3.15,0,0,0,1.28,2,4.27,4.27,0,0,0,2.53.71,5,5,0,0,0,1.84-.31,4.38,4.38,0,0,0,1.5-1l2.06,2.23a6.94,6.94,0,0,1-5.5,2.15,8.68,8.68,0,0,1-4-.88,6.51,6.51,0,0,1-2.67-2.44,6.69,6.69,0,0,1-.94-3.54,6.82,6.82,0,0,1,.93-3.53,6.46,6.46,0,0,1,2.55-2.45,7.9,7.9,0,0,1,7.17,0,6.14,6.14,0,0,1,2.48,2.42,7.11,7.11,0,0,1,.91,3.65S172.55,126.31,172.5,127Zm-9-4.28a3.14,3.14,0,0,0-1.08,2h6.56a3.18,3.18,0,0,0-1.09-2,3.24,3.24,0,0,0-2.18-.76A3.32,3.32,0,0,0,163.46,122.67Z"/><path class="e9f87340-ed98-4801-9023-4351e83eec32" d="M187.25,120.49a5.86,5.86,0,0,1,1.52,4.4v7.63h-3.86v-7a3.49,3.49,0,0,0-.69-2.37,2.54,2.54,0,0,0-2-.78,3.07,3.07,0,0,0-2.33.91,3.77,3.77,0,0,0-.86,2.68v6.59h-3.87V119.2h3.69v1.56a5.15,5.15,0,0,1,1.91-1.3,6.54,6.54,0,0,1,2.5-.46A5.48,5.48,0,0,1,187.25,120.49Z"/><path class="ac92c888-a287-4d57-a516-800cc8a898e3" d="M200.86,131.88a4,4,0,0,1-1.4.63,7.05,7.05,0,0,1-1.75.21,5.16,5.16,0,0,1-3.67-1.21,4.64,4.64,0,0,1-1.3-3.57v-5.47h-2.06v-3h2.06v-3.25h3.86v3.25h3.32v3H196.6v5.42a1.81,1.81,0,0,0,.43,1.3,1.6,1.6,0,0,0,1.23.46,2.49,2.49,0,0,0,1.56-.5Z"/><path class="af837c14-da8f-4d10-bd20-fb4b894a0027" d="M213.17,120.47a5.68,5.68,0,0,1,1.66,4.45v7.6h-3.62v-1.66c-.73,1.24-2.08,1.86-4.06,1.86a6.25,6.25,0,0,1-2.66-.52,4,4,0,0,1-1.72-1.44,3.7,3.7,0,0,1-.6-2.08,3.47,3.47,0,0,1,1.4-2.92,7.12,7.12,0,0,1,4.32-1.06H211a2.47,2.47,0,0,0-.76-2,3.43,3.43,0,0,0-2.31-.68,6.53,6.53,0,0,0-2.09.34,5.56,5.56,0,0,0-1.75.9l-1.38-2.7a8.37,8.37,0,0,1,2.61-1.19,11.75,11.75,0,0,1,3.13-.42A7,7,0,0,1,213.17,120.47Zm-3.3,9.19a2.42,2.42,0,0,0,1.09-1.35V127h-2.65q-2.37,0-2.37,1.56a1.38,1.38,0,0,0,.58,1.18,2.62,2.62,0,0,0,1.6.43A3.29,3.29,0,0,0,209.87,129.66Z"/><path class="a1094836-8735-4989-9701-c7a6a979de21" d="M219.56,132.31a8.25,8.25,0,0,1-2.53-1l1.29-2.77a8,8,0,0,0,2.15.93,9.07,9.07,0,0,0,2.48.36c1.63,0,2.45-.41,2.45-1.22a.84.84,0,0,0-.67-.81,9.19,9.19,0,0,0-2-.42,21.39,21.39,0,0,1-2.7-.57,4.3,4.3,0,0,1-1.85-1.14,3.25,3.25,0,0,1-.78-2.33,3.69,3.69,0,0,1,.73-2.24,4.81,4.81,0,0,1,2.13-1.53,9.22,9.22,0,0,1,3.31-.54,12.74,12.74,0,0,1,2.81.31,8.23,8.23,0,0,1,2.32.85l-1.29,2.75a7.68,7.68,0,0,0-3.84-1,3.91,3.91,0,0,0-1.86.35,1,1,0,0,0-.62.89.9.9,0,0,0,.67.87,12.65,12.65,0,0,0,2.13.47,22.2,22.2,0,0,1,2.68.58,4,4,0,0,1,1.8,1.13,3.15,3.15,0,0,1,.77,2.28,3.54,3.54,0,0,1-.74,2.2,4.85,4.85,0,0,1-2.17,1.5,9.75,9.75,0,0,1-3.38.53A13,13,0,0,1,219.56,132.31Z"/><path class="aac4acec-43a9-45cf-97a9-66267fbb1374" d="M124.14,68a1.31,1.31,0,0,0-.39,2.59A62.43,62.43,0,0,0,137,72.08c18.93,0,28.73-10.83,35.7-22.34l4.21,2.53a1.29,1.29,0,0,0,1.41,0,1.31,1.31,0,0,0,.56-1.3l-2.71-16a1.32,1.32,0,0,0-.66-.93,1.36,1.36,0,0,0-1.15-.06L160.05,40a1.31,1.31,0,0,0-.8,1.18,1.3,1.3,0,0,0,.74,1.21l4.32,2.11C152.78,69.89,125.32,68,124.14,68Zm43.08-23.57a1.31,1.31,0,0,0-.63-1.69l-2.87-1.39L173.88,37l2,11.56-2.9-1.73a1.31,1.31,0,0,0-1.81.46c-7,11.94-16.22,22.56-35,22.18C146.28,67.31,160.12,61.23,167.22,44.38Z"/><path class="a7d5bd7a-d696-499e-ba45-b127c17232d6" d="M128.35,84.69c-2.53,0-4.52,2.48-4.52,5.63v9.88c0,3.15,2,5.63,4.52,5.63h6.18c2.53,0,4.52-2.48,4.52-5.63V90.32c0-3.15-2-5.63-4.52-5.63Zm8.07,5.63v9.88c0,1.6-.88,3-1.89,3h-6.18c-1,0-1.89-1.4-1.89-3V90.32c0-1.6.88-3,1.89-3h6.18C135.54,87.32,136.42,88.72,136.42,90.32Z"/><path class="aa6eae8b-935a-49e4-8960-8819229fefb1" d="M147,75.44c-2.53,0-4.51,2.47-4.51,5.63V100.2c0,3.15,2,5.63,4.51,5.63h6.18c2.54,0,4.52-2.48,4.52-5.63V81.07c0-3.16-2-5.63-4.52-5.63Zm8.08,5.63V100.2c0,1.6-.89,3-1.9,3H147c-1,0-1.89-1.4-1.89-3V81.07c0-1.6.89-3,1.89-3h6.18C154.21,78.06,155.1,79.47,155.1,81.07Z"/><path class="b8d7b3ea-f07b-49f5-a4a0-d27ad1e6ad22" d="M173.72,64.33h-6.18C165,64.33,163,66.81,163,70V100.2c0,3.15,2,5.63,4.52,5.63h6.18c2.53,0,4.52-2.48,4.52-5.63V70C178.24,66.81,176.25,64.33,173.72,64.33Zm1.89,35.87c0,1.6-.88,3-1.89,3h-6.18c-1,0-1.89-1.4-1.89-3V70c0-1.6.88-3,1.89-3h6.18c1,0,1.89,1.4,1.89,3Z"/></g></svg>